# Blender 5.1.1
# www.blender.org
mtllib pool_cue.mtl
o PoolCue
v -0.738867 -0.000000 0.000000
v 0.738867 0.000000 -0.000000
v -0.738867 -0.000000 -0.022864
v 0.738867 0.000000 -0.006650
v -0.738867 -0.019801 -0.011432
v 0.738867 -0.005759 -0.003325
v -0.738867 -0.019801 0.011432
v 0.738867 -0.005759 0.003325
v -0.738867 -0.000000 0.022864
v 0.738867 0.000000 0.006650
v -0.738867 0.019801 0.011432
v 0.738867 0.005759 0.003325
v -0.738867 0.019801 -0.011432
v 0.738867 0.005759 -0.003325
v -0.000000 -0.000000 -0.014757
v 0.000000 -0.012780 -0.007379
v 0.000000 -0.012780 0.007379
v 0.000000 0.000000 0.014757
v -0.000000 0.012780 0.007379
v -0.000000 0.012780 -0.007379
vn -1.0000 -0.0000 -0.0000
vn 1.0000 -0.0000 -0.0000
vn 0.0095 -0.5000 -0.8660
vn 0.0095 -1.0000 -0.0000
vn 0.0095 -0.5000 0.8660
vn 0.0095 0.5000 0.8660
vn 0.0095 1.0000 -0.0000
vn 0.0095 0.5000 -0.8660
vt 0.038191 0.193634
vt 0.053380 0.219943
vt 0.023002 0.219943
vt 0.088682 0.193634
vt 0.093100 0.201286
vt 0.084264 0.201286
vt 0.989018 0.315481
vt 0.007812 0.283173
vt 0.008055 0.274341
vt 0.989556 0.295881
vt 0.007812 0.193634
vt 0.097518 0.193634
vt 0.008200 0.265506
vt 0.989879 0.276277
vt 0.023002 0.167326
vt 0.093100 0.185982
vt 0.008249 0.256670
vt 0.989986 0.256670
vt 0.053380 0.167326
vt 0.084264 0.185982
vt 0.008200 0.247835
vt 0.989879 0.237064
vt 0.068569 0.193634
vt 0.079846 0.193634
vt 0.008055 0.239000
vt 0.989556 0.217459
vt 0.007812 0.230167
vt 0.989018 0.197859
vt 0.989852 0.038179
vt 0.008350 0.059720
vt 0.007812 0.040120
vt 0.989018 0.007812
vt 0.990352 0.068553
vt 0.008673 0.079325
vt 0.990518 0.098931
vt 0.008780 0.098931
vt 0.990352 0.129309
vt 0.008673 0.118538
vt 0.989852 0.159683
vt 0.008350 0.138142
vt 0.989018 0.190050
vt 0.007812 0.157742
s 1
usemtl Material.001
f 1/1/1 3/2/1 5/3/1
f 2/4/2 6/5/2 4/6/2
f 15/7/3 4/8/3 6/9/3 16/10/3
f 1/1/1 5/3/1 7/11/1
f 2/4/2 8/12/2 6/5/2
f 16/10/4 6/9/4 8/13/4 17/14/4
f 1/1/1 7/11/1 9/15/1
f 2/4/2 10/16/2 8/12/2
f 17/14/5 8/13/5 10/17/5 18/18/5
f 1/1/1 9/15/1 11/19/1
f 2/4/2 12/20/2 10/16/2
f 18/18/6 10/17/6 12/21/6 19/22/6
f 1/1/1 11/19/1 13/23/1
f 2/4/2 14/24/2 12/20/2
f 19/22/7 12/21/7 14/25/7 20/26/7
f 1/1/1 13/23/1 3/2/1
f 2/4/2 4/6/2 14/24/2
f 20/26/8 14/25/8 4/27/8 15/28/8
f 13/29/8 20/30/8 15/31/8 3/32/8
f 11/33/7 19/34/7 20/30/7 13/29/7
f 9/35/6 18/36/6 19/34/6 11/33/6
f 7/37/5 17/38/5 18/36/5 9/35/5
f 5/39/4 16/40/4 17/38/4 7/37/4
f 3/41/3 15/42/3 16/40/3 5/39/3
