# Blender 5.1.2
# www.blender.org
mtllib bg_buildings.mtl
o BgBuildings
v -16.141439 0.297822 8.251245
v -16.141439 5.362079 8.251245
v -11.077184 0.297822 13.315502
v -11.077184 5.362079 13.315502
v -11.077184 0.297822 8.251245
v -11.077184 5.362079 8.251245
v -7.277999 1.173700 8.686888
v -7.277999 5.351610 8.686888
v -1.345351 1.173700 8.686888
v -1.345351 5.351610 8.686888
vn -0.0000 -0.0000 -1.0000
vn 1.0000 -0.0000 -0.0000
vt 0.976271 0.002167
vt 0.976271 0.995042
vt 0.024157 0.995042
vt 0.024157 0.002167
vt 0.978933 -0.000406
vt 0.978932 0.997870
vt 0.020770 0.997870
vt 0.020770 -0.000406
vt 0.780093 -0.004057
vt 0.790531 0.989222
vt 0.013240 0.997390
vt 0.002803 0.004111
s 0
usemtl house
f 1/1/1 2/2/1 6/3/1 5/4/1
f 5/5/2 6/6/2 4/7/2 3/8/2
usemtl house2
f 7/9/1 8/10/1 10/11/1 9/12/1
