# Blender 5.1.2
# www.blender.org
mtllib building.mtl
o Plane
v -12.094272 0.000000 9.025656
v 4.000000 0.000000 9.025656
v -12.094272 0.000000 -9.025656
v 4.000000 0.000000 -9.025656
vn -0.0000 1.0000 -0.0000
vt 11.781546 -10.781546
vt -10.781546 11.781546
vt -10.781546 -10.781546
vt 11.781546 11.781546
s 0
usemtl concrete
f 2/1/1 3/2/1 1/3/1
f 2/1/1 4/4/1 3/2/1
o Cube
v -4.077093 -0.087450 -3.657935
v -4.077093 2.983045 -3.657935
v -4.077093 -0.087450 4.599625
v -4.077093 2.983045 4.599625
v -2.077093 -0.087450 -3.657935
v -2.077093 2.491045 -3.657935
v -2.077093 -0.087450 4.599625
v -2.077093 2.491045 4.599625
v -4.077093 0.230465 -3.657935
v -4.077093 0.230465 4.599625
v -2.077093 0.230465 4.599625
v -2.077093 0.230465 -3.657935
v -4.077093 -0.087450 -0.868844
v -4.077093 2.983045 -0.868844
v -2.077093 -0.087450 -0.868844
v -2.077093 2.491045 -0.868844
v -2.077093 0.230465 -0.868844
v -4.077093 2.983045 0.083191
v -2.077093 -0.087450 0.083191
v -4.077093 -0.087450 0.083192
v -2.077093 2.491045 0.083192
v -2.077093 0.230465 0.083192
v -0.933330 0.230465 0.083192
v -0.933330 0.230465 -0.868844
v -0.933330 -0.087450 -0.868844
v -0.933330 -0.087450 0.083191
v -2.077093 0.230465 -1.679154
v -2.077093 -0.087450 -1.679154
v -0.933330 0.230465 -1.679154
v -0.933330 -0.087450 -1.679154
v -2.077093 0.230465 0.910377
v -2.077093 -0.087450 0.910377
v -0.933330 0.230465 0.910377
v -0.933330 -0.087450 0.910377
v -2.077093 -0.005370 2.202326
v -2.077093 -0.087450 2.202325
v -0.933330 -0.005370 2.202326
v -0.933330 -0.087450 2.202325
v -2.077093 -0.010817 -2.925832
v -2.077093 -0.087450 -2.925832
v -0.933330 -0.010817 -2.925832
v -0.933330 -0.087450 -2.925832
v -4.077093 -0.087450 -0.392826
v -2.077093 2.491045 -0.392826
v -2.077093 0.230465 -0.392826
v -4.077093 2.983045 -0.392826
v -2.077093 -0.087450 -0.392826
v -0.933330 -0.087450 -0.392826
v -0.516640 0.110452 0.083192
v -0.516640 0.110452 -0.868844
v -0.516640 -0.222184 -0.392826
v -0.516640 -0.222184 0.083191
v -0.516640 0.110452 -1.679154
v -0.516640 -0.322127 -1.679154
v -0.516640 -0.322127 -0.868844
v -0.516640 -0.222184 0.910377
v -0.516640 0.110452 0.910377
v -0.516640 -0.225326 2.202326
v -0.516640 -0.322128 2.202325
v -0.516640 -0.230773 -2.925832
v -0.516640 -0.322127 -2.925832
v -0.921248 0.130121 -1.679154
v -0.921248 0.130121 -0.868844
v -0.921248 0.130121 0.910377
v -0.729020 -0.105714 2.202326
v -0.729020 -0.202516 -0.392826
v -0.729020 -0.202516 -0.868844
v -0.729020 -0.202516 0.083191
v -0.729020 -0.111161 -2.925832
v -0.729020 -0.202516 -1.679154
v -0.729020 -0.202516 2.202325
v -0.729020 -0.202516 -2.925832
v -0.729020 -0.202516 0.910377
v -0.921248 0.130121 0.083192
v -4.077093 1.843126 -3.657935
v -4.077093 1.843126 4.599625
v -2.077093 1.843126 4.599625
v -2.077093 1.843126 -3.657935
v -2.077093 1.985774 -0.868844
v -2.077093 1.985774 0.083192
v -4.077093 2.983045 0.486847
v -2.077093 -0.087450 0.486847
v -4.077093 -0.087450 0.486847
v -2.077093 2.491045 0.486847
v -2.077093 0.230465 0.486847
v -2.077093 1.985774 0.486847
v -4.077093 2.983045 1.583256
v -2.077093 -0.087450 1.583256
v -4.077093 -0.087450 1.583255
v -2.077093 2.491045 1.583255
v -2.077093 0.230465 1.583255
v -2.077093 1.985774 1.583255
v -4.077093 2.983045 1.939635
v -2.077093 -0.087450 1.939635
v -4.077093 -0.087450 1.939635
v -2.077093 2.491045 1.939635
v -2.077093 0.230465 1.939635
v -2.077093 1.985774 1.939635
v -4.077093 2.983045 3.022727
v -2.077093 -0.087450 3.022727
v -4.077093 -0.087450 3.022727
v -2.077093 2.491045 3.022727
v -2.077093 0.230465 3.022727
v -2.077093 1.985774 3.022727
v -4.077093 0.641030 4.599625
v -2.077093 0.641030 4.599625
v -2.077093 0.641030 -3.657935
v -2.077093 0.641030 -0.868844
v -2.077093 0.641030 0.083192
v -4.077093 0.641030 -3.657935
v -2.077093 0.537247 0.486847
v -2.077093 0.537247 1.583255
v -2.077093 0.537247 1.939635
v -2.077093 0.537247 3.022727
v -4.077093 2.295627 -3.657935
v -4.077093 2.295627 4.599625
v -2.077093 2.143573 4.599625
v -2.077093 2.143573 -3.657935
v -2.155794 1.976413 1.583255
v -2.155794 1.976413 0.486847
v -2.155794 1.979582 3.022727
v -2.155794 1.979582 1.939635
v -2.155794 0.537247 0.486847
v -2.155794 0.537247 1.583255
v -2.155794 0.537247 1.939635
v -2.155794 0.537247 3.022727
v -2.077093 2.333429 4.599625
v -0.274447 2.491045 -3.657935
v -0.274447 2.491045 4.599625
v -0.274447 2.491045 -0.868844
v -0.274447 2.491045 0.083192
v -0.274447 2.491045 -0.392826
v -0.274447 2.491045 0.486847
v -0.274447 2.491045 1.583255
v -0.274447 2.491045 1.939635
v -0.274447 2.491045 3.022727
v -2.077093 2.406466 -0.868844
v -2.077093 2.406466 -3.657935
v -2.077093 2.406466 -0.392826
v -2.077093 2.406466 0.486847
v -2.077093 2.406466 0.083192
v -2.077093 2.406466 1.583255
v -2.077093 2.406466 1.939635
v -2.077093 2.406466 3.022727
v -2.077093 2.406466 4.599625
v -0.274447 2.406466 -0.868844
v -0.274447 2.406466 -3.657935
v -0.274447 2.406466 -0.392826
v -0.274447 2.406466 0.486847
v -0.274447 2.406466 0.083192
v -0.274447 2.406466 1.583255
v -0.274447 2.406466 1.939635
v -0.274447 2.406466 3.022727
v -0.274447 2.406466 4.599625
vn -0.0000 -1.0000 -0.0000
vn -0.0000 -0.0000 1.0000
vn 1.0000 -0.0000 -0.0000
vn 0.2389 0.9710 -0.0000
vn -1.0000 -0.0000 -0.0000
vn -0.0000 -0.0000 -1.0000
vn -0.0000 1.0000 -0.0000
vn 0.0486 0.9988 -0.0000
vn 0.4786 0.8498 0.2209
vn -0.4827 -0.8571 0.1800
vn -0.0922 -0.9957 -0.0000
vn 0.0477 0.9820 -0.1827
vn -0.4907 -0.8713 -0.0000
vn 0.9928 0.1195 -0.0000
vn 0.9926 0.1195 -0.0231
vn 0.4387 0.8933 0.0978
vn 0.1181 -0.9930 -0.0000
vn 0.0784 -0.9969 -0.0000
vn -0.0000 0.9818 -0.1900
vn -0.0000 0.9837 0.1796
vn 0.0478 0.9839 0.1725
vn 0.4773 0.8475 -0.2320
vn -0.4896 -0.8693 -0.0673
vn 0.4384 0.8926 -0.1052
vn 0.9926 0.1195 0.0218
vt 0.395414 0.400525
vt -0.130536 0.156034
vt -0.130536 0.400525
vt 0.395414 0.497012
vt 0.395414 0.418618
vt -0.130536 0.418618
vt 0.497678 0.534862
vt 0.332095 0.509858
vt 0.438224 0.509858
vt 0.395414 0.741660
vt 0.395414 0.879890
vt -0.130536 0.741660
vt 0.329493 0.418618
vt 0.395414 0.442253
vt -0.130536 0.442253
vt 0.395414 0.519365
vt -0.130536 0.483980
vt -0.130536 0.519365
vt 0.489810 0.536208
vt 0.483980 0.357915
vt 0.489810 0.509858
vt 0.395414 0.483980
vt 0.696195 0.442253
vt 0.696195 0.329493
vt 0.395414 0.220210
vt 0.395414 0.329493
vt 0.696195 0.400525
vt 0.556491 0.357915
vt 0.669743 0.373588
vt 0.669743 0.357915
vt 0.483980 0.418618
vt 0.696195 0.556491
vt 0.696195 0.483980
vt 0.395414 0.373588
vt 0.696195 0.357915
vt 0.395414 0.357915
vt 0.395414 0.556491
vt 0.696195 0.669743
vt 0.395414 0.357915
vt 0.696195 0.372548
vt 0.395414 0.372548
vt 0.329493 0.357915
vt 0.220210 0.372548
vt 2.184618 0.019949
vt -4.691418 -5.376029
vt 2.184618 -0.770207
vt 3.894495 -0.108214
vt 4.404183 0.232044
vt 3.894495 0.232044
vt 2.862720 0.208946
vt 2.662835 -0.095301
vt 2.862720 -0.095301
vt 4.136646 1.521661
vt 4.404183 0.979158
vt 4.404183 1.521661
vt 0.749923 0.400525
vt 0.805774 0.442253
vt 0.805774 0.400525
vt 0.749923 0.483980
vt 0.749923 0.442253
vt 4.136646 -0.631707
vt 4.404183 -0.108214
vt 0.805774 0.329493
vt 0.749923 0.329493
vt 0.749923 0.335944
vt 0.805774 0.331589
vt 0.805774 0.313106
vt 0.749923 0.335945
vt 0.805774 0.330549
vt 0.749923 0.353388
vt 0.749923 0.556491
vt 0.805774 0.483980
vt 3.894495 0.631814
vt 3.894495 0.979158
vt 0.805774 0.220210
vt 0.749923 0.220210
vt 0.749923 0.669743
vt 0.805774 0.556491
vt 4.404183 0.631814
vt 0.879890 0.783910
vt 0.519365 0.726542
vt 0.615476 0.726542
vt 2.462950 0.318716
vt 2.862720 0.226936
vt 2.862720 0.318716
vt 0.696195 0.220210
vt 3.210064 0.226936
vt 3.210064 0.318716
vt 0.696195 0.357915
vt 0.749923 0.354428
vt -4.691418 12.177668
vt -4.691418 6.473126
vt -4.691418 -11.287714
vt 2.122692 0.318716
vt 2.462950 0.226936
vt 0.395414 0.477196
vt 0.374718 0.726542
vt 0.395414 0.726542
vt 0.395414 0.615476
vt -0.130536 0.615476
vt 0.395414 0.646716
vt -0.130536 0.646716
vt 0.374718 0.477196
vt 0.395414 0.741660
vt -0.130536 0.741660
vt 0.537491 0.493912
vt 0.156034 0.497012
vt -0.130536 0.879890
vt -0.130536 0.497012
vt 0.156034 0.418618
vt 0.400525 0.357915
vt 0.879890 0.497012
vt 0.879890 0.726542
vt 0.741660 0.477196
vt 0.993168 0.264553
vt 0.558147 0.019345
vt 0.007231 0.261453
vt 0.615476 0.850257
vt 0.519365 0.850257
vt 0.002272 1.002240
vt 0.995643 0.003611
vt 0.002273 0.003611
vt 0.005872 0.998328
vt 0.992615 0.007523
vt 0.005872 0.007523
vt 0.374718 0.615476
vt 0.374718 0.741660
vt 0.374718 0.519365
vt 0.374718 0.646716
vt 0.545091 0.509858
vt 0.586304 0.509858
vt 0.586304 0.536208
vt 0.869464 0.850257
vt 0.395414 0.834107
vt 0.395414 0.850257
vt 0.483980 0.850257
vt 0.442253 0.834107
vt 0.442253 0.850257
vt 0.519365 0.834107
vt 0.879890 0.850257
vt 0.741660 0.834107
vt 0.741660 0.850257
vt 0.869464 0.442253
vt 0.869464 0.400525
vt 0.400525 0.850257
vt 0.156034 0.834107
vt 0.156034 0.850257
vt 0.646716 0.834107
vt 0.646716 0.850257
vt 0.615476 0.834107
vt 0.869464 0.834107
vt 0.400525 0.834107
vt 0.483980 0.834107
vt 0.869464 0.646716
vt 0.869464 0.741660
vt 0.395414 0.156034
vt -0.130536 0.812944
vt -0.130536 0.944200
vt 0.395414 0.820162
vt -0.130536 0.726542
vt 0.395414 0.783910
vt -0.130536 0.357915
vt 0.332095 0.536208
vt -0.130536 0.442253
vt 0.395414 0.442253
vt 0.556491 0.418618
vt 0.696195 0.373588
vt 0.395414 0.669743
vt 0.220210 0.357915
vt 2.184618 1.703403
vt 2.184618 2.894274
vt 2.184618 0.929367
vt -1.093009 0.929367
vt 2.184618 0.474658
vt -1.093009 0.019949
vt 2.184618 -2.004321
vt 2.462950 0.208946
vt 2.122692 0.208946
vt 2.122692 -0.186714
vt 1.599199 -0.103157
vt 1.599199 -0.186714
vt 2.462950 -0.186714
vt 3.752567 -0.098175
vt 3.210064 0.208946
vt 3.210064 -0.095301
vt 3.752567 -0.186715
vt 4.404183 -0.631707
vt 0.805774 0.313106
vt 0.805774 0.669743
vt 0.156034 0.783910
vt 0.156034 0.726542
vt 0.537491 0.723442
vt 0.483980 0.726542
vt 0.741660 0.726542
vt 0.646716 0.726542
vt 2.122692 0.226936
vt 0.741660 0.944200
vt 0.879890 0.944200
vt 0.879890 0.812944
vt 0.646716 0.944200
vt 0.615476 0.944200
vt 0.646716 0.357915
vt 0.615476 0.357915
vt 0.879890 0.418618
vt 0.879890 0.357915
vt 0.741660 0.357915
vt 0.519365 0.944200
vt 0.483980 0.944200
vt 0.519365 0.357915
vt 0.442253 0.944200
vt 0.400525 0.944200
vt 0.156034 0.812944
vt 0.156034 0.944200
vt 0.442253 0.357915
vt 0.156034 0.357915
vt 0.519365 0.477196
vt 0.483980 0.497012
vt 0.615476 0.477196
vt 0.646716 0.477196
vt 0.531530 0.536208
vt 0.545091 0.536208
vt 0.646307 0.536208
vt 0.993169 0.022445
vt 0.007231 0.019345
vt 0.007231 0.970320
vt 0.993168 0.973421
vt 0.879890 0.820162
vt 0.995643 1.002240
vt 0.992615 0.998328
vt 0.531530 0.509858
vt 0.646307 0.509858
vt 0.879890 0.834107
vt 0.869464 0.879890
vt 0.869464 0.615476
vt 0.869464 0.519365
vt 0.869464 0.483980
vt 0.869464 0.156034
s 0
usemtl wall
f 19/5/2 17/7/2 5/6/2
f 110/8/3 14/10/3 15/9/3
f 19/13/6 21/11/6 31/17/6
f 51/18/2 47/19/2 17/7/2
f 86/20/2 87/22/2 24/21/2
f 89/23/4 86/25/4 23/24/4
f 23/26/2 51/18/2 52/27/2
f 34/28/2 32/30/2 44/29/2
f 29/31/2 19/5/2 32/30/2
f 36/32/6 40/34/6 39/33/6
f 26/35/6 23/24/6 36/32/6
f 23/26/2 30/37/2 38/36/2
f 39/38/3 40/40/3 42/39/3
f 36/41/2 38/36/2 42/42/2
f 44/43/7 43/45/7 45/44/7
f 32/46/6 31/17/6 43/47/6
f 51/18/2 19/5/2 29/31/2
f 23/26/2 24/21/2 47/19/2
f 71/60/11 59/62/11 55/61/11
f 72/63/12 70/64/12 55/61/12
f 71/60/14 74/68/14 58/67/14
f 75/69/3 63/71/3 62/70/3
f 76/72/7 73/74/7 64/73/7
f 77/75/12 72/63/12 56/76/12
f 74/68/14 76/80/14 65/79/14
f 75/81/12 77/75/12 60/82/12
f 121/84/4 96/86/4 90/85/4
f 42/42/14 38/36/14 77/75/14
f 34/28/14 46/90/14 76/80/14
f 38/36/14 30/37/14 72/63/14
f 46/93/7 45/44/7 73/74/7
f 42/39/3 75/69/3 69/94/3
f 29/31/14 34/28/14 74/68/14
f 30/37/14 52/27/14 70/64/14
f 52/27/14 29/31/14 71/60/14
f 117/100/3 102/102/3 126/101/3
f 92/103/2 93/104/2 87/22/2
f 98/105/2 99/106/2 93/104/2
f 118/100/7 130/107/7 125/101/7
f 104/108/2 105/109/2 99/106/2
f 112/110/4 21/11/4 111/111/4
f 11/15/2 7/112/2 105/109/2
f 114/113/7 16/9/7 13/10/7
f 13/114/6 17/115/6 114/111/6
f 110/116/4 118/118/4 81/117/4
f 94/122/4 121/84/4 88/123/4
f 116/100/7 128/107/7 123/101/7
f 90/20/18 96/103/18 123/130/18
f 102/105/19 108/14/19 125/131/19
f 116/103/8 115/20/8 127/132/8
f 115/100/3 90/102/3 124/101/3
f 118/14/8 117/105/8 129/133/8
f 133/137/3 12/139/3 149/138/3
f 25/140/6 48/142/6 143/141/6
f 94/122/6 88/123/6 144/143/6
f 12/144/6 106/146/6 148/145/6
f 20/149/6 10/151/6 142/150/6
f 106/146/6 100/153/6 147/152/6
f 100/153/6 94/122/6 146/154/6
f 10/139/7 132/137/7 151/155/7
f 48/142/6 20/149/6 141/156/6
f 88/123/6 25/140/6 145/157/6
f 19/5/2 5/6/2 9/160/2
f 120/161/3 12/139/3 8/162/3
f 120/161/3 131/163/3 12/139/3
f 80/164/3 121/165/3 120/161/3
f 120/161/3 121/165/3 131/163/3
f 109/113/3 81/102/3 80/164/3
f 80/164/3 81/102/3 121/165/3
f 11/43/3 14/10/3 7/166/3
f 14/10/3 110/8/3 109/113/3
f 109/113/3 110/8/3 81/102/3
f 15/9/3 14/10/3 11/43/3
f 19/13/6 31/17/6 32/46/6
f 51/18/2 17/7/2 19/5/2
f 86/20/2 24/21/2 23/26/2
f 89/23/4 23/24/4 26/35/4
f 23/26/2 52/27/2 30/37/2
f 34/28/2 44/29/2 46/90/2
f 29/31/2 32/30/2 34/28/2
f 36/32/6 39/33/6 35/170/6
f 26/35/6 36/32/6 35/170/6
f 23/26/2 38/36/2 36/41/2
f 39/38/3 42/39/3 41/171/3
f 36/41/2 42/42/2 40/172/2
f 44/43/7 45/44/7 46/93/7
f 32/46/6 43/47/6 44/173/6
f 51/18/2 29/31/2 52/27/2
f 23/26/2 47/19/2 51/18/2
f 71/60/12 55/61/12 70/64/12
f 72/63/12 55/61/12 56/76/12
f 71/60/14 58/67/14 59/62/14
f 75/69/3 62/70/3 69/94/3
f 76/72/7 64/73/7 65/192/7
f 77/75/12 56/76/12 60/82/12
f 74/68/14 65/79/14 58/67/14
f 75/81/24 60/82/24 63/193/24
f 122/194/4 83/196/4 82/195/4
f 122/194/4 84/197/4 83/196/4
f 108/198/4 121/84/4 81/117/4
f 102/199/4 121/84/4 108/198/4
f 121/84/4 90/85/4 122/194/4
f 122/194/4 90/85/4 84/197/4
f 96/86/4 121/84/4 102/199/4
f 42/42/14 77/75/14 75/81/14
f 34/28/14 76/80/14 74/68/14
f 38/36/14 72/63/14 77/75/14
f 46/93/7 73/74/7 76/72/7
f 42/39/3 69/94/3 41/171/3
f 29/31/14 74/68/14 71/60/14
f 30/37/14 70/64/14 72/63/14
f 52/27/14 71/60/14 70/64/14
f 117/100/3 126/101/3 129/107/3
f 92/103/2 87/22/2 86/20/2
f 98/105/2 93/104/2 92/103/2
f 118/100/7 125/101/7 108/102/7
f 104/108/2 99/106/2 98/105/2
f 112/110/4 82/195/4 83/196/4
f 111/111/4 21/11/4 16/167/4
f 112/110/4 111/111/4 82/195/4
f 11/15/2 105/109/2 104/108/2
f 122/165/7 119/161/7 10/139/7
f 10/139/7 119/161/7 6/162/7
f 82/102/7 79/164/7 122/165/7
f 122/165/7 79/164/7 119/161/7
f 111/8/7 79/164/7 82/102/7
f 111/8/7 114/113/7 79/164/7
f 5/166/7 16/9/7 9/43/7
f 16/9/7 114/113/7 111/8/7
f 13/10/7 16/9/7 5/166/7
f 103/201/6 120/203/6 8/202/6
f 103/201/6 80/117/6 120/203/6
f 97/204/6 80/117/6 103/201/6
f 97/204/6 91/205/6 80/117/6
f 80/117/6 99/206/6 109/116/6
f 91/205/6 93/207/6 80/117/6
f 93/207/6 99/206/6 80/117/6
f 14/208/6 105/210/6 7/209/6
f 109/116/6 105/210/6 14/208/6
f 85/211/6 93/207/6 91/205/6
f 105/210/6 109/116/6 99/206/6
f 22/212/6 87/213/6 85/211/6
f 50/214/6 24/24/6 22/212/6
f 85/211/6 87/213/6 93/207/6
f 22/212/6 24/24/6 87/213/6
f 18/215/6 79/195/6 50/214/6
f 119/216/6 18/215/6 6/217/6
f 79/195/6 18/215/6 119/216/6
f 50/214/6 47/218/6 24/24/6
f 50/214/6 79/195/6 47/218/6
f 114/111/6 17/115/6 79/195/6
f 17/115/6 47/218/6 79/195/6
f 17/115/6 13/114/6 5/219/6
f 115/220/4 113/221/4 90/85/4
f 90/85/4 113/221/4 84/197/4
f 113/221/4 115/220/4 26/35/4
f 26/35/4 115/220/4 89/23/4
f 102/199/4 116/222/4 96/86/4
f 117/223/4 116/222/4 102/199/4
f 116/222/4 89/23/4 115/220/4
f 116/222/4 95/224/4 89/23/4
f 117/223/4 95/224/4 116/222/4
f 117/223/4 101/225/4 95/224/4
f 81/117/4 118/118/4 108/198/4
f 118/118/4 101/225/4 117/223/4
f 107/136/4 118/118/4 15/226/4
f 15/226/4 118/118/4 110/116/4
f 118/118/4 107/136/4 101/225/4
f 20/149/4 122/194/4 10/151/4
f 122/194/4 88/123/4 121/84/4
f 121/84/4 106/146/4 131/231/4
f 122/194/4 20/149/4 48/142/4
f 131/231/4 106/146/4 12/144/4
f 106/146/4 121/84/4 100/153/4
f 48/142/4 25/140/4 122/194/4
f 25/140/4 88/123/4 122/194/4
f 100/153/4 121/84/4 94/122/4
f 116/100/7 123/101/7 96/102/7
f 90/20/18 123/130/18 124/132/18
f 102/105/19 125/131/19 126/133/19
f 116/103/8 127/132/8 128/130/8
f 115/100/3 124/101/3 127/107/3
f 118/14/8 129/133/8 130/131/8
f 133/137/3 149/138/3 158/155/3
f 25/140/6 143/141/6 145/157/6
f 94/122/6 144/143/6 146/154/6
f 12/144/6 148/145/6 149/236/6
f 20/149/6 142/150/6 141/156/6
f 106/146/6 147/152/6 148/145/6
f 100/153/6 146/154/6 147/152/6
f 10/139/7 151/155/7 142/138/7
f 48/142/6 141/156/6 143/141/6
f 88/123/6 145/157/6 144/143/6
usemtl window1
f 123/124/4 128/126/4 127/125/4
f 123/124/4 127/125/4 124/232/4
usemtl window2
f 125/127/4 130/129/4 129/128/4
f 125/127/4 129/128/4 126/233/4
usemtl door
f 21/11/4 19/13/4 9/12/4
f 112/119/4 113/121/4 49/120/4
f 98/134/4 107/136/4 104/135/4
f 21/11/4 9/12/4 16/167/4
f 112/119/4 49/120/4 21/227/4
f 49/120/4 113/121/4 26/228/4
f 113/121/4 83/230/4 84/229/4
f 83/230/4 113/121/4 112/119/4
f 95/224/4 86/25/4 89/23/4
f 95/224/4 92/234/4 86/25/4
f 101/225/4 92/234/4 95/224/4
f 101/225/4 98/134/4 92/234/4
f 11/235/4 104/135/4 15/226/4
f 15/226/4 104/135/4 107/136/4
f 107/136/4 98/134/4 101/225/4
usemtl wood
f 106/14/5 103/16/5 12/15/5
f 152/147/2 141/5/2 150/148/2
f 139/158/8 106/14/8 140/159/8
f 156/152/4 140/146/4 157/145/4
f 18/7/5 10/160/5 6/6/5
f 18/7/5 20/5/5 10/160/5
f 50/168/5 20/5/5 18/7/5
f 50/168/5 48/169/5 20/5/5
f 22/21/5 48/169/5 50/168/5
f 22/21/5 25/26/5 48/169/5
f 85/22/5 25/26/5 22/21/5
f 85/22/5 88/20/5 25/26/5
f 91/104/5 88/20/5 85/22/5
f 91/104/5 94/103/5 88/20/5
f 97/106/5 94/103/5 91/104/5
f 97/106/5 100/105/5 94/103/5
f 12/15/5 103/16/5 8/112/5
f 103/16/5 106/14/5 97/106/5
f 97/106/5 106/14/5 100/105/5
f 148/14/2 158/237/2 149/15/2
f 148/14/2 157/159/2 158/237/2
f 147/105/2 157/159/2 148/14/2
f 147/105/2 156/158/2 157/159/2
f 146/103/2 156/158/2 147/105/2
f 146/103/2 155/238/2 156/158/2
f 144/20/2 155/238/2 146/103/2
f 144/20/2 153/239/2 155/238/2
f 145/26/2 153/239/2 144/20/2
f 145/26/2 154/240/2 153/239/2
f 143/169/2 154/240/2 145/26/2
f 143/169/2 152/147/2 154/240/2
f 151/241/2 141/5/2 142/160/2
f 141/5/2 152/147/2 143/169/2
f 150/148/2 141/5/2 151/241/2
f 20/5/8 132/241/8 10/160/8
f 20/5/8 134/148/8 132/241/8
f 48/169/8 134/148/8 20/5/8
f 48/169/8 136/147/8 134/148/8
f 25/26/8 136/147/8 48/169/8
f 25/26/8 135/240/8 136/147/8
f 88/20/8 135/240/8 25/26/8
f 88/20/8 137/239/8 135/240/8
f 94/103/8 137/239/8 88/20/8
f 94/103/8 138/238/8 137/239/8
f 100/105/8 138/238/8 94/103/8
f 100/105/8 139/158/8 138/238/8
f 133/237/8 106/14/8 12/15/8
f 106/14/8 139/158/8 100/105/8
f 140/159/8 106/14/8 133/237/8
f 134/149/4 151/150/4 132/151/4
f 134/149/4 150/156/4 151/150/4
f 136/142/4 150/156/4 134/149/4
f 136/142/4 152/141/4 150/156/4
f 135/140/4 152/141/4 136/142/4
f 135/140/4 154/157/4 152/141/4
f 137/123/4 154/157/4 135/140/4
f 137/123/4 153/143/4 154/157/4
f 138/122/4 153/143/4 137/123/4
f 138/122/4 155/154/4 153/143/4
f 139/153/4 155/154/4 138/122/4
f 139/153/4 156/152/4 155/154/4
f 158/236/4 140/146/4 133/144/4
f 140/146/4 156/152/4 139/153/4
f 157/145/4 140/146/4 158/236/4
usemtl concrete
f 26/48/8 35/50/8 37/49/8
f 66/51/9 67/53/9 54/52/9
f 53/54/4 56/56/4 55/55/4
f 69/57/10 62/59/10 61/58/10
f 73/65/13 66/51/13 57/66/13
f 78/77/9 68/78/9 61/58/9
f 67/53/9 78/77/9 53/83/9
f 28/87/15 27/89/15 78/88/15
f 27/89/15 37/92/15 68/91/15
f 45/95/16 33/96/16 66/51/16
f 41/97/17 69/57/17 68/78/17
f 33/98/15 28/87/15 67/99/15
f 31/174/20 45/95/20 43/175/20
f 31/174/20 33/96/20 45/95/20
f 21/176/8 33/96/8 31/174/8
f 21/176/8 28/177/8 33/96/8
f 49/178/8 28/177/8 21/176/8
f 49/178/8 27/179/8 28/177/8
f 26/48/8 27/179/8 49/178/8
f 37/49/21 39/180/21 41/97/21
f 26/48/8 37/49/8 27/179/8
f 37/49/21 35/50/21 39/180/21
f 66/51/9 54/52/9 57/66/9
f 54/181/4 58/183/4 57/182/4
f 57/182/4 58/183/4 64/184/4
f 64/184/4 58/183/4 65/185/4
f 58/183/4 54/181/4 59/186/4
f 59/186/4 54/181/4 55/55/4
f 53/54/4 55/55/4 54/181/4
f 62/187/4 60/189/4 61/188/4
f 61/188/4 60/189/4 53/54/4
f 60/189/4 62/187/4 63/190/4
f 56/56/4 53/54/4 60/189/4
f 69/57/22 61/58/22 68/78/22
f 73/65/23 57/66/23 64/191/23
f 78/77/9 61/58/9 53/83/9
f 67/53/9 53/83/9 54/52/9
f 28/87/15 78/88/15 67/99/15
f 27/89/15 68/91/15 78/88/15
f 45/95/25 66/51/25 73/65/25
f 41/97/26 68/78/26 37/49/26
f 33/98/15 67/99/15 66/200/15
o Cube.001
v -0.828405 -0.003104 0.605722
v -0.828405 2.478549 0.605722
v -0.828405 -0.003104 0.505722
v -0.828405 2.478549 0.505722
v -0.728405 -0.003104 0.605722
v -0.728405 2.478549 0.605722
v -0.728405 -0.003104 0.505722
v -0.728405 2.478549 0.505722
v -0.828405 1.961403 0.605722
v -0.828405 1.961403 0.505722
v -0.728405 1.961403 0.505722
v -0.728405 1.961403 0.605722
v -0.828405 2.059734 0.605722
v -0.828405 2.059734 0.505722
v -0.728405 2.059734 0.505722
v -0.728405 2.059734 0.605722
v -0.828405 2.413167 0.045127
v -0.828405 2.413167 -0.031009
v -0.728405 2.413167 0.045127
v -0.728405 2.413167 -0.031009
v -0.728405 2.413167 1.066318
v -0.728405 2.413167 1.142454
v -0.828405 2.413167 1.142454
v -0.828405 2.413167 1.066318
vn -1.0000 -0.0000 -0.0000
vn -0.0000 -0.0000 -1.0000
vn 1.0000 -0.0000 -0.0000
vn -0.0000 -0.0000 1.0000
vn -0.0000 -1.0000 -0.0000
vn -0.0000 1.0000 -0.0000
vn -0.0000 0.7933 0.6088
vn -0.0000 0.7933 -0.6088
vn -0.0000 -0.7651 -0.6440
vn -0.0000 -0.7651 0.6440
vt 0.625000 0.000000
vt 0.594184 0.250000
vt 0.594184 0.000000
vt 0.625000 0.250000
vt 0.594184 0.500000
vt 0.625000 0.500000
vt 0.594184 0.750000
vt 0.625000 0.750000
vt 0.594184 1.000000
vt 0.375000 0.500000
vt 0.125000 0.750000
vt 0.125000 0.500000
vt 0.875000 0.500000
vt 0.584279 0.750000
vt 0.375000 1.000000
vt 0.375000 0.750000
vt 0.584279 0.500000
vt 0.584279 0.250000
vt 0.375000 0.250000
vt 0.584279 0.000000
vt 0.375000 0.000000
vt 0.584279 1.000000
vt 0.625000 1.000000
vt 0.875000 0.750000
s 0
usemtl wood
f 160/242/27 172/243/27 171/244/27
f 162/245/28 173/246/28 172/243/28
f 166/247/29 174/248/29 173/246/29
f 164/249/30 171/250/30 174/248/30
f 165/251/31 159/252/31 161/253/31
f 162/254/32 164/249/32 166/247/32
f 170/255/30 159/256/30 163/257/30
f 169/258/29 163/257/29 165/251/29
f 168/259/28 165/251/28 161/260/28
f 167/261/27 161/260/27 159/262/27
f 170/255/29 179/248/29 180/255/29
f 173/246/29 170/255/29 169/258/29
f 173/246/33 175/243/33 172/243/33
f 171/244/27 168/259/27 167/261/27
f 179/248/32 181/263/32 180/255/32
f 175/243/32 178/258/32 176/259/32
f 171/250/34 179/248/34 174/248/34
f 168/259/27 175/243/27 176/259/27
f 167/261/27 182/244/27 171/244/27
f 168/259/35 178/258/35 169/258/35
f 170/255/36 181/263/36 167/263/36
f 169/258/29 177/246/29 173/246/29
f 160/242/27 162/245/27 172/243/27
f 162/245/28 166/247/28 173/246/28
f 166/247/29 164/249/29 174/248/29
f 164/249/30 160/264/30 171/250/30
f 165/251/31 163/257/31 159/252/31
f 162/254/32 160/265/32 164/249/32
f 170/255/30 167/263/30 159/256/30
f 169/258/29 170/255/29 163/257/29
f 168/259/28 169/258/28 165/251/28
f 167/261/27 168/259/27 161/260/27
f 170/255/29 174/248/29 179/248/29
f 173/246/29 174/248/29 170/255/29
f 173/246/33 177/246/33 175/243/33
f 171/244/27 172/243/27 168/259/27
f 179/248/32 182/250/32 181/263/32
f 175/243/32 177/246/32 178/258/32
f 171/250/34 182/250/34 179/248/34
f 168/259/27 172/243/27 175/243/27
f 167/261/27 181/261/27 182/244/27
f 168/259/35 176/259/35 178/258/35
f 170/255/36 180/255/36 181/263/36
f 169/258/29 178/258/29 177/246/29
o Cube.002
v -0.828405 -0.003104 4.191839
v -0.828405 2.478549 4.191839
v -0.828405 -0.003104 4.091839
v -0.828405 2.478549 4.091839
v -0.728405 -0.003104 4.191839
v -0.728405 2.478549 4.191839
v -0.728405 -0.003104 4.091839
v -0.728405 2.478549 4.091839
v -0.828405 1.961403 4.191839
v -0.828405 1.961403 4.091839
v -0.728405 1.961403 4.091839
v -0.728405 1.961403 4.191839
v -0.828405 2.059734 4.191839
v -0.828405 2.059734 4.091839
v -0.728405 2.059734 4.091839
v -0.728405 2.059734 4.191839
v -0.828405 2.413167 3.631243
v -0.828405 2.413167 3.555107
v -0.728405 2.413167 3.631243
v -0.728405 2.413167 3.555107
vn -1.0000 -0.0000 -0.0000
vn -0.0000 -0.0000 -1.0000
vn 1.0000 -0.0000 -0.0000
vn -0.0000 -0.0000 1.0000
vn -0.0000 -1.0000 -0.0000
vn -0.0000 1.0000 -0.0000
vn -0.0000 0.7933 0.6088
vn -0.0000 -0.7651 -0.6440
vt 0.847376 -0.889503
vt 0.761739 -0.194752
vt 0.761739 -0.889503
vt 0.847376 -0.194752
vt 0.761739 0.500000
vt 0.847376 0.500000
vt 0.761739 1.194752
vt 0.847376 1.194752
vt 0.761739 1.889503
vt 0.152624 0.500000
vt -0.542127 1.194752
vt -0.542127 0.500000
vt 1.542127 0.500000
vt 0.734211 1.194752
vt 0.152624 1.889503
vt 0.152624 1.194752
vt 0.734211 0.500000
vt 0.734211 -0.194752
vt 0.152624 -0.194752
vt 0.734211 -0.889503
vt 0.152624 -0.889503
vt 0.734211 1.889503
vt 0.847376 1.889503
vt 1.542127 1.194752
s 0
usemtl wood
f 184/266/37 196/267/37 195/268/37
f 186/269/38 197/270/38 196/267/38
f 190/271/39 198/272/39 197/270/39
f 188/273/40 195/274/40 198/272/40
f 189/275/41 183/276/41 185/277/41
f 186/278/42 188/273/42 190/271/42
f 194/279/40 183/280/40 187/281/40
f 193/282/39 187/281/39 189/275/39
f 192/283/38 189/275/38 185/284/38
f 191/285/37 185/284/37 183/286/37
f 197/270/39 194/279/39 193/282/39
f 197/270/43 199/267/43 196/267/43
f 195/268/37 192/283/37 191/285/37
f 199/267/42 202/282/42 200/283/42
f 192/283/37 199/267/37 200/283/37
f 192/283/44 202/282/44 193/282/44
f 193/282/39 201/270/39 197/270/39
f 198/272/40 191/287/40 194/279/40
f 184/266/37 186/269/37 196/267/37
f 186/269/38 190/271/38 197/270/38
f 190/271/39 188/273/39 198/272/39
f 188/273/40 184/288/40 195/274/40
f 189/275/41 187/281/41 183/276/41
f 186/278/42 184/289/42 188/273/42
f 194/279/40 191/287/40 183/280/40
f 193/282/39 194/279/39 187/281/39
f 192/283/38 193/282/38 189/275/38
f 191/285/37 192/283/37 185/284/37
f 197/270/39 198/272/39 194/279/39
f 197/270/43 201/270/43 199/267/43
f 195/268/37 196/267/37 192/283/37
f 199/267/42 201/270/42 202/282/42
f 192/283/37 196/267/37 199/267/37
f 192/283/44 200/283/44 202/282/44
f 193/282/39 202/282/39 201/270/39
f 198/272/40 195/268/40 191/287/40
o Cube.003
v -0.728405 -0.003104 -3.256286
v -0.728405 2.478549 -3.256286
v -0.728405 -0.003104 -3.156286
v -0.728405 2.478549 -3.156286
v -0.828405 -0.003104 -3.256286
v -0.828405 2.478549 -3.256286
v -0.828405 -0.003104 -3.156286
v -0.828405 2.478549 -3.156286
v -0.728405 1.961403 -3.256286
v -0.728405 1.961403 -3.156286
v -0.828405 1.961403 -3.156286
v -0.828405 1.961403 -3.256286
v -0.728405 2.059734 -3.256286
v -0.728405 2.059734 -3.156286
v -0.828405 2.059734 -3.156286
v -0.828405 2.059734 -3.256286
v -0.728405 2.413167 -2.695690
v -0.728405 2.413167 -2.619554
v -0.828405 2.413167 -2.695690
v -0.828405 2.413167 -2.619554
vn 1.0000 -0.0000 -0.0000
vn -0.0000 -0.0000 1.0000
vn -1.0000 -0.0000 -0.0000
vn -0.0000 -0.0000 -1.0000
vn -0.0000 -1.0000 -0.0000
vn -0.0000 1.0000 -0.0000
vn -0.0000 0.7933 -0.6088
vn -0.0000 -0.7651 0.6440
vt 0.625000 0.000000
vt 0.594184 0.250000
vt 0.594184 0.000000
vt 0.625000 0.250000
vt 0.594184 0.500000
vt 0.625000 0.500000
vt 0.594184 0.750000
vt 0.625000 0.750000
vt 0.594184 1.000000
vt 0.375000 0.500000
vt 0.125000 0.750000
vt 0.125000 0.500000
vt 0.875000 0.500000
vt 0.584279 0.750000
vt 0.375000 1.000000
vt 0.375000 0.750000
vt 0.584279 0.500000
vt 0.584279 0.250000
vt 0.375000 0.250000
vt 0.584279 0.000000
vt 0.375000 0.000000
vt 0.584279 1.000000
vt 0.625000 1.000000
vt 0.875000 0.750000
s 0
usemtl wood
f 204/290/45 216/291/45 215/292/45
f 206/293/46 217/294/46 216/291/46
f 210/295/47 218/296/47 217/294/47
f 208/297/48 215/298/48 218/296/48
f 209/299/49 203/300/49 205/301/49
f 206/302/50 208/297/50 210/295/50
f 214/303/48 203/304/48 207/305/48
f 213/306/47 207/305/47 209/299/47
f 212/307/46 209/299/46 205/308/46
f 211/309/45 205/308/45 203/310/45
f 217/294/47 214/303/47 213/306/47
f 217/294/51 219/291/51 216/291/51
f 215/292/45 212/307/45 211/309/45
f 219/291/50 222/306/50 220/307/50
f 212/307/45 219/291/45 220/307/45
f 212/307/52 222/306/52 213/306/52
f 213/306/47 221/294/47 217/294/47
f 218/296/48 211/311/48 214/303/48
f 204/290/45 206/293/45 216/291/45
f 206/293/46 210/295/46 217/294/46
f 210/295/47 208/297/47 218/296/47
f 208/297/48 204/312/48 215/298/48
f 209/299/49 207/305/49 203/300/49
f 206/302/50 204/313/50 208/297/50
f 214/303/48 211/311/48 203/304/48
f 213/306/47 214/303/47 207/305/47
f 212/307/46 213/306/46 209/299/46
f 211/309/45 212/307/45 205/308/45
f 217/294/47 218/296/47 214/303/47
f 217/294/51 221/294/51 219/291/51
f 215/292/45 216/291/45 212/307/45
f 219/291/50 221/294/50 222/306/50
f 212/307/45 216/291/45 219/291/45
f 212/307/52 220/307/52 222/306/52
f 213/306/47 222/306/47 221/294/47
f 218/296/48 215/292/48 211/311/48
o Plane.001
v -2.672310 1.132501 -3.651278
v -2.672310 -0.017062 -3.651278
v -2.672310 1.132501 -6.445621
v -2.672310 -0.017062 -6.445621
vn 1.0000 -0.0000 -0.0000
vt -0.003504 -0.002687
vt -1.396324 1.015965
vt -0.003503 0.996510
vt -1.396325 0.016768
s 0
usemtl Material.005
f 224/314/53 225/315/53 223/316/53
f 224/314/53 226/317/53 225/315/53
o Cube.004
v -2.183179 0.699784 -0.992058
v -2.183179 2.131521 -0.992058
v -2.183179 0.699784 -3.449328
v -2.183179 2.131521 -3.449328
v -2.066585 0.699784 -0.992058
v -2.066585 2.131521 -0.992058
v -2.066585 0.699784 -3.449328
v -2.066585 2.131521 -3.449328
vn -1.0000 -0.0000 -0.0000
vn -0.0000 -0.0000 -1.0000
vn 1.0000 -0.0000 -0.0000
vn -0.0000 -0.0000 1.0000
vn -0.0000 -1.0000 -0.0000
vn -0.0000 1.0000 -0.0000
vt 0.625000 0.000000
vt 0.375000 0.250000
vt 0.375000 0.000000
vt 0.625000 0.250000
vt 0.995350 0.015923
vt 0.995350 1.005209
vt -0.000684 0.015922
vt -0.000684 1.005209
vt 0.375000 1.000000
vt 0.125000 0.750000
vt 0.125000 0.500000
vt 0.875000 0.500000
vt 0.625000 1.000000
vt 0.875000 0.750000
s 0
usemtl Material.002
f 228/318/54 229/319/54 227/320/54
f 230/321/55 233/322/55 229/319/55
f 234/323/56 231/324/56 233/322/56
f 232/325/57 227/326/57 231/324/57
f 233/322/58 227/327/58 229/328/58
f 230/329/59 232/325/59 234/323/59
f 228/318/54 230/321/54 229/319/54
f 230/321/55 234/323/55 233/322/55
f 234/323/56 232/325/56 231/324/56
f 232/325/57 228/330/57 227/326/57
f 233/322/58 231/324/58 227/327/58
f 230/329/59 228/331/59 232/325/59
o Cube.005
v -0.728971 1.971009 0.391995
v -0.728971 2.108123 0.391995
v -0.728971 1.971009 0.728947
v -0.728971 2.108123 0.728947
v -0.710183 1.971009 0.391995
v -0.710183 2.108123 0.391995
v -0.710183 1.971009 0.728947
v -0.710183 2.108123 0.728947
vn -1.0000 -0.0000 -0.0000
vn -0.0000 -0.0000 1.0000
vn 1.0000 -0.0000 -0.0000
vn -0.0000 -0.0000 -1.0000
vn -0.0000 -1.0000 -0.0000
vn -0.0000 1.0000 -0.0000
vt 0.247525 0.999254
vt 0.376179 0.000000
vt 0.376179 0.999254
vt 0.504832 0.000000
vt 0.566743 0.504574
vt 0.504832 0.504574
vt 0.005320 0.965091
vt 0.997497 -0.000853
vt 0.005320 -0.000853
vt 0.566743 0.000000
vt 0.628654 0.504574
vt 0.690565 0.000000
vt 0.690565 0.504574
vt 0.752475 0.000000
vt 0.752475 0.504574
vt 0.247525 0.000000
vt 0.997497 0.965092
vt 0.628654 0.000000
s 0
usemtl Material.003
f 236/332/60 235/334/60 237/333/60
f 238/335/61 237/337/61 241/336/61
f 242/338/62 241/340/62 239/339/62
f 240/341/63 239/336/63 235/342/63
f 241/342/64 237/344/64 235/343/64
f 238/344/65 242/346/65 240/345/65
f 236/332/60 237/333/60 238/347/60
f 238/335/61 241/336/61 242/341/61
f 242/338/62 239/339/62 240/348/62
f 240/341/63 235/342/63 236/349/63
f 241/342/64 235/343/64 239/349/64
f 238/344/65 240/345/65 236/343/65
o Cube.006
v -0.728971 1.971009 3.908126
v -0.728971 2.108123 3.908126
v -0.728971 1.971009 4.245079
v -0.728971 2.108123 4.245079
v -0.710183 1.971009 3.908126
v -0.710183 2.108123 3.908126
v -0.710183 1.971009 4.245079
v -0.710183 2.108123 4.245079
vn -1.0000 -0.0000 -0.0000
vn -0.0000 -0.0000 1.0000
vn 1.0000 -0.0000 -0.0000
vn -0.0000 -0.0000 -1.0000
vn -0.0000 -1.0000 -0.0000
vn -0.0000 1.0000 -0.0000
vt 0.247525 0.999254
vt 0.376179 0.000000
vt 0.376179 0.999254
vt 0.504832 0.000000
vt 0.566743 0.504574
vt 0.504832 0.504574
vt 0.005320 0.965091
vt 0.997497 -0.000853
vt 0.005320 -0.000853
vt 0.566743 0.000000
vt 0.628654 0.504574
vt 0.690565 0.000000
vt 0.690565 0.504574
vt 0.752475 0.000000
vt 0.752475 0.504574
vt 0.247525 0.000000
vt 0.997497 0.965092
vt 0.628654 0.000000
s 0
usemtl Material.004
f 244/350/66 243/352/66 245/351/66
f 246/353/67 245/355/67 249/354/67
f 250/356/68 249/358/68 247/357/68
f 248/359/69 247/354/69 243/360/69
f 249/360/70 245/362/70 243/361/70
f 246/362/71 250/364/71 248/363/71
f 244/350/66 245/351/66 246/365/66
f 246/353/67 249/354/67 250/359/67
f 250/356/68 247/357/68 248/366/68
f 248/359/69 243/360/69 244/367/69
f 249/360/70 243/361/70 247/367/70
f 246/362/71 248/363/71 244/361/71
o Plane.002
v -2.680002 1.122684 -6.451041
v -2.680002 -0.026879 -6.451041
v 0.191030 1.122684 -6.451041
v 0.191030 -0.026879 -6.451041
vn -0.0000 -0.0000 1.0000
vt -0.003504 -0.002687
vt -1.396324 1.015965
vt -0.003503 0.996510
vt -1.396325 0.016768
s 0
usemtl Material.006
f 252/368/72 253/369/72 251/370/72
f 252/368/72 254/371/72 253/369/72
o Cube.007
v -2.134781 -0.013259 5.059824
v -2.134781 1.682716 5.059824
v -2.134781 -0.013259 4.968556
v -2.134781 1.682716 4.968556
v -2.043513 -0.013259 5.059824
v -2.043513 1.682716 5.059824
v -2.043513 -0.013259 4.968556
v -2.043513 1.682716 4.968556
vn -1.0000 -0.0000 -0.0000
vn -0.0000 -0.0000 -1.0000
vn 1.0000 -0.0000 -0.0000
vn -0.0000 -0.0000 1.0000
vn -0.0000 -1.0000 -0.0000
vn -0.0000 1.0000 -0.0000
vt 0.398458 0.497608
vt 0.379752 0.516314
vt 0.379752 0.497608
vt 0.398458 0.516314
vt 0.379752 0.535019
vt 0.398458 0.535019
vt 0.379752 0.553725
vt 0.398458 0.553725
vt 0.379752 0.572431
vt 0.361046 0.553725
vt 0.361046 0.535019
vt 0.417164 0.535019
vt 0.398458 0.572431
vt 0.417164 0.553725
s 0
usemtl concrete
f 256/372/73 257/373/73 255/374/73
f 258/375/74 261/376/74 257/373/74
f 262/377/75 259/378/75 261/376/75
f 260/379/76 255/380/76 259/378/76
f 261/376/77 255/381/77 257/382/77
f 258/383/78 260/379/78 262/377/78
f 256/372/73 258/375/73 257/373/73
f 258/375/74 262/377/74 261/376/74
f 262/377/75 260/379/75 259/378/75
f 260/379/76 256/384/76 255/380/76
f 261/376/77 259/378/77 255/381/77
f 258/383/78 256/385/78 260/379/78
o Cube.008
v -2.068252 0.918058 5.184654
v -2.068252 1.689174 5.184654
v -2.068252 0.918058 4.840787
v -2.068252 1.689174 4.840787
v -2.039865 0.918058 5.184654
v -2.039865 1.689174 5.184654
v -2.039865 0.918058 4.840787
v -2.039865 1.689174 4.840787
vn -1.0000 -0.0000 -0.0000
vn -0.0000 -0.0000 -1.0000
vn 1.0000 -0.0000 -0.0000
vn -0.0000 -0.0000 1.0000
vn -0.0000 -1.0000 -0.0000
vn -0.0000 1.0000 -0.0000
vt 0.954367 0.430399
vt 0.960390 0.427798
vt 0.920633 0.430399
vt 0.963688 0.427798
vt 0.907035 0.431305
vt 0.998756 0.996126
vt -0.011086 0.007447
vt 0.998756 0.007447
vt 0.931481 0.455751
vt 0.907035 0.480197
vt 0.907035 0.455751
vt 0.888364 0.452623
vt 0.888364 0.428177
vt 0.961703 0.428177
vt 0.931481 0.431305
vt -0.011086 0.996126
vt 0.931481 0.480197
vt 0.961703 0.452623
s 0
usemtl Material.007
f 264/386/79 265/387/79 263/388/79
f 266/389/80 269/390/80 265/387/80
f 270/391/81 267/392/81 269/393/81
f 268/394/82 263/395/82 267/396/82
f 269/390/83 263/397/83 265/398/83
f 266/399/84 268/394/84 270/400/84
f 264/386/79 266/389/79 265/387/79
f 266/389/80 270/400/80 269/390/80
f 270/391/81 268/401/81 267/392/81
f 268/394/82 264/402/82 263/395/82
f 269/390/83 267/396/83 263/397/83
f 266/399/84 264/403/84 268/394/84
