# Blender 5.1.2
# www.blender.org
mtllib ground.mtl
o Ground
v -16.204342 0.000000 8.119225
v 3.421934 0.000000 8.119225
v -9.625071 0.000000 -10.000000
v 3.421934 0.000000 -10.000000
v -3.007785 0.000000 -10.000000
v -16.204342 0.000000 -3.767520
v -3.007785 0.000000 -3.767520
v -3.007785 0.000000 -6.891336
v 3.421934 0.000000 -7.977370
v 2.305098 0.000000 -10.000000
v 2.147207 0.000000 -6.917403
v 0.000000 0.000000 0.000000
vn -0.0000 1 -0.0000
vt -5.903321 -12.795442
vt 4.970594 -9.128087
vt 2.945959 -2.501187
vt 4.953838 -2.501187
vt 6.951979 6.005533
vt 6.951979 -2.501187
vt 6.951979 -9.331063
vt 5.651905 -12.795435
vt 6.951979 -12.795435
vt 2.945959 14.463386
vt -5.903326 14.463386
s 1
usemtl cobble
f 2/1/1 11/2/1 7/3/1
f 10/7/1 9/8/1 4/9/1
f 2/1/1 9/8/1 11/2/1
f 11/2/1 8/4/1 7/3/1
f 7/3/1 6/10/1 1/11/1
f 1/11/1 2/1/1 7/3/1
f 10/7/1 11/2/1 9/8/1
usemtl grass
f 7/3/1 8/4/1 3/5/1
f 11/2/1 5/6/1 8/4/1
f 3/5/1 6/10/1 7/3/1
f 8/4/1 5/6/1 3/5/1
f 11/2/1 10/7/1 5/6/1
