# Blender 5.1.2
# www.blender.org
mtllib sign.mtl
o Cube.001
v -0.015443 -0.959972 0.015443
v -0.015443 -0.958627 0.042440
v -0.042440 -0.958627 0.015443
v -0.015443 1.015747 0.042440
v -0.015443 1.019872 0.015443
v -0.042440 1.015747 0.015443
v -0.015443 -0.959972 -0.015443
v -0.042440 -0.958627 -0.015443
v -0.015443 -0.958627 -0.042440
v -0.015443 1.019872 -0.015443
v -0.015443 1.015747 -0.042440
v -0.042440 1.015747 -0.015443
v 0.015443 -0.959972 0.015443
v 0.042440 -0.958627 0.015443
v 0.015443 -0.958627 0.042440
v 0.015443 1.019872 0.015443
v 0.015443 1.015747 0.042440
v 0.042440 1.015747 0.015443
v 0.015443 -0.959972 -0.015443
v 0.015443 -0.958627 -0.042440
v 0.042440 -0.958627 -0.015443
v 0.015443 1.019872 -0.015443
v 0.042440 1.015747 -0.015443
v 0.015443 1.015747 -0.042440
v 0.054998 1.103376 0.249718
v 0.054999 -0.080762 0.249718
v 0.054998 1.103376 -0.233528
v 0.054999 -0.080762 -0.233528
vn -0.0497 -0.9975 0.0497
vn -0.1493 0.9774 0.1493
vn -0.0497 -0.9975 -0.0497
vn -0.1493 0.9774 -0.1493
vn 0.0497 -0.9975 0.0497
vn 0.1493 0.9774 0.1493
vn 0.0497 -0.9975 -0.0497
vn 0.1493 0.9774 -0.1493
vn -0.0498 -0.9988 -0.0000
vn -0.7071 -0.0000 0.7071
vn -0.1510 0.9885 -0.0000
vn -0.7071 -0.0000 -0.7071
vn -0.0000 -0.9988 -0.0498
vn -0.0000 0.9885 -0.1510
vn 0.7071 -0.0000 -0.7071
vn 0.0498 -0.9988 -0.0000
vn 0.1510 0.9885 -0.0000
vn 0.7071 -0.0000 0.7071
vn -0.0000 -0.9988 0.0498
vn -0.0000 0.9885 0.1510
vn -0.0000 -1.0000 -0.0000
vn -1.0000 -0.0000 -0.0000
vn -0.0000 -0.0000 1.0000
vn -0.0000 1.0000 -0.0000
vn -0.0000 -0.0000 -1.0000
vn 1.0000 -0.0000 -0.0000
vt 0.776222 0.799701
vt 0.776222 0.790092
vt 0.789895 0.799701
vt 0.803569 0.790092
vt 0.803569 0.799701
vt 0.776222 0.810694
vt 0.789895 0.810694
vt 0.776222 0.820302
vt 0.803569 0.810694
vt 0.803569 0.820302
vt 0.760578 0.799701
vt 0.746904 0.799701
vt 0.760578 0.790092
vt 0.819213 0.799701
vt 0.819213 0.790092
vt 0.832887 0.799701
vt 0.760578 0.810694
vt 0.760578 0.820302
vt 0.746904 0.810694
vt 0.819213 0.810694
vt 0.832887 0.810694
vt 0.819213 0.820302
vt 0.726622 0.087342
vt 0.740641 0.807784
vt 0.726622 0.807784
vt 0.770699 0.807784
vt 0.756680 0.087342
vt 0.770699 0.087342
vt 0.784718 0.807784
vt 0.784718 0.087342
vt 0.814776 0.807784
vt 0.800757 0.087342
vt 0.814776 0.087342
vt 0.740641 0.087342
vt 0.756680 0.807784
vt 0.830814 0.807784
vt 0.830814 0.087342
vt 0.846853 0.807784
vt 0.800757 0.807784
vt 0.003392 0.027091
vt 0.550029 0.996726
vt 0.003392 0.996726
vt 0.846853 0.087342
vt 0.550029 0.027091
s 0
usemtl sign
f 1/1/1 2/2/1 3/3/1
f 4/4/2 5/5/2 6/3/2
f 7/6/3 8/7/3 9/8/3
f 10/9/4 11/10/4 12/7/4
f 13/11/5 14/12/5 15/13/5
f 16/14/6 17/15/6 18/16/6
f 19/17/7 20/18/7 21/19/7
f 22/20/8 23/21/8 24/22/8
f 1/1/9 8/7/9 7/6/9
f 4/23/10 3/24/10 2/25/10
f 10/9/11 6/3/11 5/5/11
f 9/26/12 12/27/12 11/28/12
f 7/6/13 20/18/13 19/17/13
f 22/20/14 11/10/14 10/9/14
f 21/29/15 24/28/15 23/30/15
f 19/17/16 14/12/16 13/11/16
f 16/14/17 23/21/17 22/20/17
f 15/31/18 18/32/18 17/33/18
f 13/11/19 2/2/19 1/1/19
f 5/5/20 17/15/20 16/14/20
f 19/17/21 1/1/21 7/6/21
f 6/34/22 8/35/22 3/24/22
f 17/33/23 2/36/23 15/31/23
f 10/9/24 16/14/24 22/20/24
f 11/37/25 20/38/25 9/36/25
f 23/30/26 14/39/26 21/29/26
f 26/40/26 27/41/26 25/42/26
f 1/1/9 3/3/9 8/7/9
f 4/23/10 6/34/10 3/24/10
f 10/9/11 12/7/11 6/3/11
f 9/26/12 8/35/12 12/27/12
f 7/6/13 9/8/13 20/18/13
f 22/20/14 24/22/14 11/10/14
f 21/29/15 20/26/15 24/28/15
f 19/17/16 21/19/16 14/12/16
f 16/14/17 18/16/17 23/21/17
f 15/31/18 14/39/18 18/32/18
f 13/11/19 15/13/19 2/2/19
f 5/5/20 4/4/20 17/15/20
f 19/17/21 13/11/21 1/1/21
f 6/34/22 12/27/22 8/35/22
f 17/33/23 4/37/23 2/36/23
f 10/9/24 5/5/24 16/14/24
f 11/37/25 24/43/25 20/38/25
f 23/30/26 18/32/26 14/39/26
f 26/40/26 28/44/26 27/41/26
