# Blender 5.1.2
# www.blender.org
mtllib sky.mtl
o Cube
v -23.206429 -18.033386 23.206429
v -23.206429 28.379471 23.206429
v -23.206429 -18.033386 -23.206429
v -23.206429 28.379471 -23.206429
v 23.206429 -18.033386 23.206429
v 23.206429 28.379471 23.206429
v 23.206429 -18.033386 -23.206429
v 23.206429 28.379471 -23.206429
vn 1.0000 -0.0000 -0.0000
vn -0.0000 -0.0000 1.0000
vn -1.0000 -0.0000 -0.0000
vn -0.0000 -0.0000 -1.0000
vn -0.0000 1.0000 -0.0000
vn -0.0000 -1.0000 -0.0000
vt 0.751258 0.333333
vt 0.999535 0.666667
vt 0.999535 0.333333
vt 0.499563 0.333333
vt 0.751258 0.666667
vt 0.253005 0.333904
vt 0.499563 0.666667
vt 0.001310 0.333904
vt 0.253005 0.666667
vt 0.253005 0.000000
vt 0.499563 0.000000
vt 0.499563 1.000000
vt 0.001310 0.666667
vt 0.253005 1.000000
s 0
usemtl skybox.001
f 3/1/1 2/2/1 1/3/1
f 7/4/2 4/5/2 3/1/2
f 5/6/3 8/7/3 7/4/3
f 1/8/4 6/9/4 5/6/4
f 1/10/5 7/4/5 3/11/5
f 6/9/6 4/12/6 8/7/6
f 3/1/1 4/5/1 2/2/1
f 7/4/2 8/7/2 4/5/2
f 5/6/3 6/9/3 8/7/3
f 1/8/4 2/13/4 6/9/4
f 1/10/5 5/6/5 7/4/5
f 6/9/6 2/14/6 4/12/6
