# Blender 5.1.2
# www.blender.org
mtllib trees.mtl
o trees
v -15.976257 -0.003976 8.088955
v 0.745530 -0.003976 8.088957
v -15.976257 3.093578 8.088955
v 0.745530 3.093578 8.088958
vn -0.0000 -0.0000 -1.0000
vt 3.938223 0.000000
vt -2.938223 1.000000
vt -2.938223 0.000000
vt 3.938223 1.000000
s 0
usemtl trees
f 2/1/1 1/3/1 3/2/1
f 2/1/1 3/2/1 4/4/1
o BgTrees
v -5.753893 -0.046283 -7.775149
v -4.115589 -0.046283 -8.922302
v -5.753894 3.282532 -7.775149
v -4.115590 3.282532 -8.922302
v -2.322043 -0.046283 -9.534938
v -0.352427 -0.046283 -9.882235
v -2.322043 3.282532 -9.534938
v -0.352427 3.282532 -9.882235
v -3.838230 0.157634 -8.522593
v -2.025614 0.157634 -9.367829
v -3.838230 3.486449 -8.522593
v -2.025614 3.486449 -9.367829
v -5.427253 -0.046282 -6.012688
v -5.252942 -0.046282 -8.005076
v -5.427254 3.282533 -6.012687
v -5.252943 3.282532 -8.005076
v -5.552843 -0.067022 -4.440170
v -5.378532 -0.067023 -6.432559
v -5.552844 3.261792 -4.440169
v -5.378532 3.261792 -6.432559
v -5.668590 -0.440614 -4.740028
v -5.427524 -0.440614 -7.495429
v -5.668591 4.163015 -4.740027
v -5.427525 4.163015 -7.495430
v -5.751446 -0.252267 -6.385357
v -5.535069 -0.252267 -8.858557
v -5.751447 3.879869 -6.385356
v -5.535069 3.879869 -8.858557
v -6.670618 -0.800067 -8.023764
v -4.500161 -0.800067 -9.844994
v -6.670619 3.915749 -8.023764
v -4.500162 3.915749 -9.844994
v -5.845215 -0.763019 -8.938192
v -3.674758 -0.763019 -10.759422
v -5.845216 3.952797 -8.938192
v -3.674759 3.952797 -10.759422
v -4.533437 -0.688925 -10.395758
v -2.362980 -0.688925 -12.216988
v -4.533439 4.026891 -10.395758
v -2.362981 4.026891 -12.216988
v -2.076012 -0.128282 -7.981316
v -0.598458 -0.128282 -8.241848
v -2.076012 2.368907 -7.981316
v -0.598458 2.368907 -8.241848
v -3.824767 0.323442 -6.767133
v -2.763861 0.323442 -7.828038
v -3.824767 2.820631 -6.767133
v -2.763861 2.820630 -7.828038
v -4.009695 0.462251 -4.215092
v -3.861319 0.462251 -5.708084
v -4.009695 2.959440 -4.215092
v -3.861319 2.959439 -5.708084
v -4.365232 0.170034 -5.810750
v -3.615058 0.170034 -7.110088
v -4.365232 2.667222 -5.810750
v -3.615058 2.667222 -7.110088
v -3.141390 -0.115701 -8.012866
v -2.120191 -0.115701 -8.102209
v -3.141390 1.590483 -8.012866
v -2.120191 1.590483 -8.102209
v -2.440927 -0.115701 -7.355778
v -1.419728 -0.115701 -7.445121
v -2.440927 1.590483 -7.355778
v -1.419728 1.590483 -7.445121
v -3.592882 -0.160254 -5.369432
v -3.562936 -0.160254 -6.394095
v -3.592882 1.545930 -5.369433
v -3.562936 1.545931 -6.394095
v -3.592882 -0.160254 -4.180101
v -3.562936 -0.160254 -5.204764
v -3.592882 1.545930 -4.180101
v -3.562936 1.545930 -5.204764
v -0.835769 -0.217853 -7.567076
v 0.185430 -0.217853 -7.656419
v -0.835769 1.488331 -7.567076
v 0.185430 1.488331 -7.656419
v -0.617584 -0.178187 -8.193752
v 0.859970 -0.178187 -8.454285
v -0.617584 2.319001 -8.193752
v 0.859969 2.319001 -8.454285
v -0.819894 0.043219 -9.820910
v 1.149722 0.043218 -10.168206
v -0.819894 3.372033 -9.820910
v 1.149721 3.372033 -10.168206
vn 0.5736 -0.0000 0.8192
vn 0.1736 -0.0000 0.9848
vn 0.4226 -0.0000 0.9063
vn 0.9962 -0.0000 0.0872
vn 0.6428 -0.0000 0.7660
vn 0.7071 -0.0000 0.7071
vn 0.9951 -0.0000 0.0989
vn 0.8660 -0.0000 0.5000
vn 0.0872 -0.0000 0.9962
vn 0.9996 -0.0000 0.0292
vt 0.606172 0.417048
vt 0.992204 0.982903
vt 0.606172 0.982903
vt 0.992204 0.417048
vt 0.188315 0.428877
vt 0.802384 0.009953
vt 0.802384 0.428877
vt 0.188315 0.009952
vt 0.530786 0.429591
vt 0.042910 0.998263
vt 0.042910 0.429591
vt 0.530786 0.998263
s 0
usemtl bgtrees
f 5/5/2 8/6/2 7/7/2
f 10/8/3 11/7/3 9/5/3
f 14/8/4 15/7/4 13/5/4
f 18/8/5 19/7/5 17/5/5
f 22/8/5 23/7/5 21/5/5
f 26/8/5 27/7/5 25/5/5
f 30/8/5 31/7/5 29/5/5
f 33/5/6 36/6/6 35/7/6
f 38/8/6 39/7/6 37/5/6
f 42/8/6 43/7/6 41/5/6
f 45/9/3 48/10/3 47/11/3
f 50/12/7 51/11/7 49/9/7
f 54/12/8 55/11/8 53/9/8
f 58/12/9 59/11/9 57/9/9
f 62/13/10 63/14/10 61/15/10
f 66/13/10 67/14/10 65/15/10
f 70/13/11 71/14/11 69/15/11
f 74/13/11 75/14/11 73/15/11
f 78/13/10 79/14/10 77/15/10
f 81/9/3 84/10/3 83/11/3
f 86/8/3 87/7/3 85/5/3
f 5/5/2 6/8/2 8/6/2
f 10/8/3 12/6/3 11/7/3
f 14/8/4 16/6/4 15/7/4
f 18/8/5 20/6/5 19/7/5
f 22/8/5 24/6/5 23/7/5
f 26/8/5 28/6/5 27/7/5
f 30/8/5 32/6/5 31/7/5
f 33/5/6 34/8/6 36/6/6
f 38/8/6 40/6/6 39/7/6
f 42/8/6 44/6/6 43/7/6
f 45/9/3 46/12/3 48/10/3
f 50/12/7 52/10/7 51/11/7
f 54/12/8 56/10/8 55/11/8
f 58/12/9 60/10/9 59/11/9
f 62/13/10 64/16/10 63/14/10
f 66/13/10 68/16/10 67/14/10
f 70/13/11 72/16/11 71/14/11
f 74/13/11 76/16/11 75/14/11
f 78/13/10 80/16/10 79/14/10
f 81/9/3 82/12/3 84/10/3
f 86/8/3 88/6/3 87/7/3
