# Blender 5.1.2
# www.blender.org
mtllib darts.mtl
o Dart_02
v -0.003760 -0.004362 -0.058703
v 0.006770 -0.003489 0.058252
v -0.006792 0.003487 -0.058489
v 0.003739 0.004360 0.058466
v 0.012188 -0.017517 0.057864
v -0.001678 0.018384 0.058844
v 0.016181 -0.017186 0.102210
v 0.002314 0.018715 0.103190
v -0.001369 0.001078 -0.058959
v 0.009161 0.001952 0.057996
v -0.009185 -0.001960 -0.058233
v 0.001345 -0.001087 0.058723
v 0.023129 0.007383 0.056693
v -0.012619 -0.006516 0.060015
v 0.027122 0.007714 0.101039
v -0.008626 -0.006185 0.104361
v -0.256833 -0.251064 -0.053647
v 0.240179 -0.251063 -0.053647
v -0.256833 0.251064 -0.053647
v 0.240179 0.251063 -0.053647
v 0.102059 0.139991 -0.067386
v 0.061161 0.139991 0.042693
v 0.107851 0.145706 -0.065234
v 0.066953 0.145706 0.044845
v 0.050810 0.129776 0.038842
v 0.077303 0.155917 0.048685
v 0.035303 0.129776 0.080581
v 0.061795 0.155917 0.090424
v 0.107631 0.139759 -0.065316
v 0.066732 0.139759 0.044763
v 0.102273 0.145938 -0.067307
v 0.061374 0.145938 0.042772
v 0.076309 0.128716 0.048316
v 0.051804 0.156978 0.039212
v 0.060801 0.128716 0.090055
v 0.036297 0.156978 0.080950
v -0.133218 -0.100760 -0.070653
v -0.100792 -0.072662 0.038660
v -0.140094 -0.095974 -0.069843
v -0.107669 -0.067877 0.039470
v -0.088503 -0.081216 0.037208
v -0.119956 -0.059328 0.040912
v -0.076208 -0.070562 0.078657
v -0.107661 -0.048674 0.082360
v -0.134525 -0.095058 -0.071730
v -0.102099 -0.066961 0.037583
v -0.138786 -0.101683 -0.068764
v -0.106360 -0.073585 0.040549
v -0.094485 -0.055121 0.032276
v -0.113974 -0.085423 0.045845
v -0.082191 -0.044468 0.073724
v -0.101679 -0.074769 0.087293
vn -0.9286 -0.3610 0.0863
vn 0.3602 -0.9325 -0.0255
vn -0.0000 -0.0000 1.0000
vn -0.6365 0.7341 -0.2365
vn -0.6882 -0.6790 -0.2557
vn -0.5062 -0.7871 0.3525
vn 0.8170 -0.5685 -0.0962
vt 0.000000 0.695312
vt 0.273438 0.695312
vt 0.273438 0.714844
vt 0.000000 0.714844
vt 0.375000 0.648438
vt 0.464844 0.648438
vt 0.464844 0.750000
vt 0.375000 0.750000
vt 0.250024 0.320480
vt 0.574326 0.320480
vt 0.574326 0.648120
vt 0.250024 0.648120
vt 0.281250 0.648438
vt 0.371094 0.648438
vt 0.371094 0.750000
vt 0.281250 0.750000
s 1
usemtl Material.009
f 1/1/1 2/2/1 4/3/1 3/4/1
f 6/5/1 5/6/1 7/7/1 8/8/1
f 9/1/2 10/2/2 12/3/2 11/4/2
f 14/5/2 13/6/2 15/7/2 16/8/2
usemtl Material.011
f 17/9/3 18/10/3 20/11/3 19/12/3
f 21/1/4 22/2/4 24/3/4 23/4/4
f 26/13/4 25/14/4 27/15/4 28/16/4
f 29/1/5 30/2/5 32/3/5 31/4/5
f 34/13/5 33/14/5 35/15/5 36/16/5
usemtl Material.004
f 37/1/6 38/2/6 40/3/6 39/4/6
f 42/13/6 41/14/6 43/15/6 44/16/6
f 45/1/7 46/2/7 48/3/7 47/4/7
f 50/13/7 49/14/7 51/15/7 52/16/7
