# Blender 5.1.1
# www.blender.org
mtllib lamp.mtl
o FluorescentLight_03
v -0.565835 -1.540062 -0.000000
v -0.532540 -1.540062 -0.000000
v -0.565835 -1.458280 -0.000000
v -0.532540 -1.458280 -0.000000
v -0.549188 -1.476596 0.016647
v -0.549188 -1.476596 -0.016648
v -0.549188 -1.394814 0.016647
v -0.549188 -1.394814 -0.016648
v -0.565835 -1.413261 -0.000000
v -0.532540 -1.413261 -0.000000
v -0.565835 -1.331479 -0.000000
v -0.532540 -1.331479 -0.000000
v -0.549188 -1.349795 0.016647
v -0.549188 -1.349795 -0.016648
v -0.549188 -1.268013 0.016647
v -0.549188 -1.268013 -0.016648
v -0.565835 -1.286459 -0.000000
v -0.532540 -1.286459 -0.000000
v -0.565835 -1.204677 -0.000000
v -0.532540 -1.204677 -0.000000
v -0.549188 -1.222994 0.016647
v -0.549188 -1.222994 -0.016648
v -0.549188 -1.141212 0.016647
v -0.549188 -1.141212 -0.016648
v -0.565835 -1.159658 -0.000000
v -0.532540 -1.159658 -0.000000
v -0.565835 -1.077876 -0.000000
v -0.532540 -1.077876 -0.000000
v -0.549188 -1.096192 0.016647
v -0.549188 -1.096192 -0.016648
v -0.549188 -1.014410 0.016647
v -0.549188 -1.014410 -0.016648
v -0.565835 -1.032857 -0.000000
v -0.532540 -1.032857 -0.000000
v -0.565835 -0.951075 -0.000000
v -0.532540 -0.951075 -0.000000
v -0.549188 -0.969391 0.016647
v -0.549188 -0.969391 -0.016648
v -0.549188 -0.887609 0.016648
v -0.549188 -0.887609 -0.016648
v -0.565835 -0.906056 -0.000000
v -0.532540 -0.906056 -0.000000
v -0.565835 -0.824274 -0.000000
v -0.532540 -0.824274 -0.000000
v -0.549188 -0.842590 0.016648
v -0.549188 -0.842590 -0.016648
v -0.549188 -0.760808 0.016648
v -0.549188 -0.760808 -0.016648
v -0.565835 -0.779254 -0.000000
v -0.532540 -0.779254 -0.000000
v -0.565835 -0.697472 -0.000000
v -0.532540 -0.697472 -0.000000
v -0.549188 -0.715788 0.016648
v -0.549188 -0.715788 -0.016648
v -0.549188 -0.634006 0.016648
v -0.549188 -0.634006 -0.016648
v -0.565835 -0.652453 -0.000000
v -0.532540 -0.652453 -0.000000
v -0.565835 -0.570671 -0.000000
v -0.532540 -0.570671 -0.000000
v -0.549188 -0.588987 0.016648
v -0.549188 -0.588987 -0.016648
v -0.549188 -0.507205 0.016648
v -0.549188 -0.507205 -0.016648
v -0.565835 -0.525652 -0.000000
v -0.532540 -0.525652 -0.000000
v -0.565835 -0.443870 -0.000000
v -0.532540 -0.443870 -0.000000
v -0.549188 -0.462186 0.016648
v -0.549188 -0.462186 -0.016648
v -0.549188 -0.380404 0.016648
v -0.549188 -0.380404 -0.016648
v -0.565835 -0.398850 -0.000000
v -0.532540 -0.398850 -0.000000
v -0.565835 -0.317068 -0.000000
v -0.532540 -0.317068 -0.000000
v -0.549188 -0.335385 0.016648
v -0.549188 -0.335385 -0.016648
v -0.549188 -0.253602 0.016648
v -0.549188 -0.253602 -0.016648
v -0.565835 -0.272049 -0.000000
v -0.532540 -0.272049 -0.000000
v -0.565835 -0.190267 -0.000000
v -0.532540 -0.190267 -0.000000
v -0.549188 -0.208583 0.016648
v -0.549188 -0.208583 -0.016648
v -0.549188 -0.126801 0.016648
v -0.549188 -0.126801 -0.016648
v -0.565835 -0.145248 -0.000000
v -0.532540 -0.145248 -0.000000
v -0.565835 -0.063466 -0.000000
v -0.532540 -0.063466 -0.000000
v -0.549188 -0.081782 0.016648
v -0.549188 -0.081782 -0.016648
v -0.549188 -0.000000 0.016648
v -0.549188 0.000000 -0.016648
v -0.638812 -1.540062 0.127526
v 0.638812 -1.540062 0.127526
v -0.638812 -1.540062 -0.000000
v 0.638812 -1.540062 -0.000000
v -0.732911 -1.815644 0.221626
v 0.732911 -1.815644 0.221626
v -0.638812 -1.540062 -0.127526
v 0.638812 -1.540062 -0.127526
v -0.732911 -1.815644 -0.221626
v 0.732911 -1.815644 -0.221626
v 0.532540 -1.540062 -0.000000
v 0.565835 -1.540062 -0.000000
v 0.532540 -1.458280 -0.000000
v 0.565835 -1.458280 -0.000000
v 0.549188 -1.476596 0.016647
v 0.549188 -1.476596 -0.016648
v 0.549188 -1.394814 0.016647
v 0.549188 -1.394814 -0.016648
v 0.532540 -1.413261 -0.000000
v 0.565835 -1.413261 -0.000000
v 0.532540 -1.331479 -0.000000
v 0.565835 -1.331479 -0.000000
v 0.549188 -1.349795 0.016647
v 0.549188 -1.349795 -0.016648
v 0.549188 -1.268013 0.016647
v 0.549188 -1.268013 -0.016648
v 0.532540 -1.286459 -0.000000
v 0.565835 -1.286459 -0.000000
v 0.532540 -1.204677 -0.000000
v 0.565835 -1.204677 -0.000000
v 0.549188 -1.222994 0.016647
v 0.549188 -1.222994 -0.016648
v 0.549188 -1.141212 0.016647
v 0.549188 -1.141212 -0.016648
v 0.532540 -1.159658 -0.000000
v 0.565835 -1.159658 -0.000000
v 0.532540 -1.077876 -0.000000
v 0.565835 -1.077876 -0.000000
v 0.549188 -1.096192 0.016647
v 0.549188 -1.096192 -0.016648
v 0.549188 -1.014410 0.016647
v 0.549188 -1.014410 -0.016648
v 0.532540 -1.032857 -0.000000
v 0.565835 -1.032857 -0.000000
v 0.532540 -0.951075 -0.000000
v 0.565835 -0.951075 -0.000000
v 0.549188 -0.969391 0.016647
v 0.549188 -0.969391 -0.016648
v 0.549188 -0.887609 0.016648
v 0.549188 -0.887609 -0.016648
v 0.532540 -0.906056 -0.000000
v 0.565835 -0.906056 -0.000000
v 0.532540 -0.824274 -0.000000
v 0.565835 -0.824274 -0.000000
v 0.549188 -0.842590 0.016648
v 0.549188 -0.842590 -0.016648
v 0.549188 -0.760808 0.016648
v 0.549188 -0.760808 -0.016648
v 0.532540 -0.779254 -0.000000
v 0.565835 -0.779254 -0.000000
v 0.532540 -0.697472 -0.000000
v 0.565835 -0.697472 -0.000000
v 0.549188 -0.715788 0.016648
v 0.549188 -0.715788 -0.016648
v 0.549188 -0.634006 0.016648
v 0.549188 -0.634006 -0.016648
v 0.532540 -0.652453 -0.000000
v 0.565835 -0.652453 -0.000000
v 0.532540 -0.570671 -0.000000
v 0.565835 -0.570671 -0.000000
v 0.549188 -0.588987 0.016648
v 0.549188 -0.588987 -0.016648
v 0.549188 -0.507205 0.016648
v 0.549188 -0.507205 -0.016648
v 0.532540 -0.525652 -0.000000
v 0.565835 -0.525652 -0.000000
v 0.532540 -0.443870 -0.000000
v 0.565835 -0.443870 -0.000000
v 0.549188 -0.462186 0.016648
v 0.549188 -0.462186 -0.016648
v 0.549188 -0.380404 0.016648
v 0.549188 -0.380404 -0.016648
v 0.532540 -0.398850 -0.000000
v 0.565835 -0.398850 -0.000000
v 0.532540 -0.317068 -0.000000
v 0.565835 -0.317068 -0.000000
v 0.549188 -0.335385 0.016648
v 0.549188 -0.335385 -0.016648
v 0.549188 -0.253602 0.016648
v 0.549188 -0.253602 -0.016648
v 0.532540 -0.272049 -0.000000
v 0.565835 -0.272049 -0.000000
v 0.532540 -0.190267 -0.000000
v 0.565835 -0.190267 -0.000000
v 0.549188 -0.208583 0.016648
v 0.549188 -0.208583 -0.016648
v 0.549188 -0.126801 0.016648
v 0.549188 -0.126801 -0.016648
v 0.532540 -0.145248 -0.000000
v 0.565835 -0.145248 -0.000000
v 0.532540 -0.063466 -0.000000
v 0.565835 -0.063466 -0.000000
v 0.549188 -0.081782 0.016648
v 0.549188 -0.081782 -0.016648
v 0.549188 -0.000000 0.016648
v 0.549188 0.000000 -0.016648
v 0.591069 -1.580641 0.062362
v -0.591069 -1.580641 0.062362
v 0.591069 -1.606470 0.062362
v -0.591069 -1.606470 0.062362
v 0.591069 -1.588623 0.037798
v -0.591069 -1.588623 0.037798
v 0.591069 -1.559746 0.047180
v -0.591069 -1.559746 0.047180
v 0.591069 -1.559746 0.077543
v -0.591069 -1.559746 0.077543
v 0.591069 -1.588623 0.086926
v -0.591069 -1.588623 0.086926
v 0.591069 -1.580641 -0.062362
v -0.591069 -1.580641 -0.062362
v 0.591069 -1.606470 -0.062362
v -0.591069 -1.606470 -0.062362
v 0.591069 -1.588623 -0.086926
v -0.591069 -1.588623 -0.086926
v 0.591069 -1.559746 -0.077544
v -0.591069 -1.559746 -0.077544
v 0.591069 -1.559746 -0.047181
v -0.591069 -1.559746 -0.047181
v 0.591069 -1.588623 -0.037798
v -0.591069 -1.588623 -0.037798
v -0.732911 -1.815644 -0.000000
v 0.732911 -1.815644 -0.000000
v 0.000000 -1.540062 0.127526
v 0.000000 -1.540062 -0.000000
v 0.000000 -1.815644 0.221626
v 0.000000 -1.540062 -0.127526
v 0.000000 -1.815644 -0.221626
vn -0.0000 -0.0000 -1.0000
vn 1.0000 -0.0000 -0.0000
vn -1.0000 -0.0000 -0.0000
vn -0.0000 -0.0000 1.0000
vn -0.0000 1.0000 -0.0000
vn -0.0000 0.3231 0.9464
vn -0.0000 0.3231 -0.9464
vn -0.0000 -0.8090 -0.5878
vn -0.0000 0.3090 -0.9511
vn -0.0000 0.3090 0.9511
vn -0.0000 -0.8090 0.5878
vn 0.9464 0.3231 -0.0000
vn -0.9464 0.3231 -0.0000
vt 0.000000 0.765625
vt 0.000000 1.000000
vt 0.093750 1.000000
vt 0.093750 0.765625
vt 0.101562 0.765625
vt 0.195312 0.765625
vt 0.195312 1.000000
vt 0.101562 1.000000
vt 0.460938 0.437500
vt 0.023438 0.437500
vt 0.023438 0.476562
vt 0.460938 0.476562
vt 1.007812 0.445312
vt 0.007812 0.445312
vt 0.007812 0.000000
vt 1.015625 0.000000
vt 0.898438 0.437500
vt 0.898438 0.476562
vt 0.007812 0.570312
vt 0.023438 0.585938
vt 0.007812 0.585938
vt 0.000000 0.648438
vt 1.000000 0.648438
vt 1.000000 0.687500
vt 0.000000 0.687500
vt 0.000000 0.585938
vt 0.000000 0.617188
vt 1.000000 0.617188
vt 0.000000 0.562500
vt 0.000000 0.593750
vt 1.000000 0.593750
vt 0.023438 0.562500
vt 0.000000 0.718750
vt 1.000000 0.718750
vt 1.000000 0.750000
vt 0.000000 0.750000
vt 0.000000 0.554688
vt 1.000000 0.554688
vt 0.000000 0.523438
vt 1.000000 0.523438
vt 0.000000 0.500000
vt 1.000000 0.500000
vt 0.000000 0.625000
vt 1.000000 0.625000
vt 1.000000 0.656250
vt 0.000000 0.656250
vt 0.000000 0.445312
vt 0.390625 0.445312
vt 0.390625 0.000000
vt 0.000000 0.000000
s 1
usemtl Material
f 1/1/1 3/2/1 4/3/1 2/4/1
f 5/5/2 6/6/2 8/7/2 7/8/2
f 9/1/1 11/2/1 12/3/1 10/4/1
f 13/5/2 14/6/2 16/7/2 15/8/2
f 17/1/1 19/2/1 20/3/1 18/4/1
f 21/5/2 22/6/2 24/7/2 23/8/2
f 25/1/1 27/2/1 28/3/1 26/4/1
f 29/5/3 31/8/3 32/7/3 30/6/3
f 33/1/1 35/2/1 36/3/1 34/4/1
f 37/5/2 38/6/2 40/7/2 39/8/2
f 41/1/4 42/4/4 44/3/4 43/2/4
f 45/5/3 47/8/3 48/7/3 46/6/3
f 49/1/1 51/2/1 52/3/1 50/4/1
f 53/5/3 55/8/3 56/7/3 54/6/3
f 57/1/4 58/4/4 60/3/4 59/2/4
f 61/5/3 63/8/3 64/7/3 62/6/3
f 65/1/4 66/4/4 68/3/4 67/2/4
f 69/5/3 71/8/3 72/7/3 70/6/3
f 73/1/4 74/4/4 76/3/4 75/2/4
f 77/5/3 79/8/3 80/7/3 78/6/3
f 81/1/1 83/2/1 84/3/1 82/4/1
f 85/5/3 87/8/3 88/7/3 86/6/3
f 89/1/1 91/2/1 92/3/1 90/4/1
f 93/5/2 94/6/2 96/7/2 95/8/2
f 229/9/5 98/10/5 100/11/5 230/12/5
f 229/13/6 97/14/6 101/15/6 231/16/6
f 232/12/5 230/9/5 100/17/5 104/18/5
f 232/13/7 233/16/7 105/15/7 103/14/7
f 107/1/4 108/4/4 110/3/4 109/2/4
f 111/5/2 112/6/2 114/7/2 113/8/2
f 115/1/1 117/2/1 118/3/1 116/4/1
f 119/5/2 120/6/2 122/7/2 121/8/2
f 123/1/1 125/2/1 126/3/1 124/4/1
f 127/5/3 129/8/3 130/7/3 128/6/3
f 131/1/1 133/2/1 134/3/1 132/4/1
f 135/5/2 136/6/2 138/7/2 137/8/2
f 139/1/4 140/4/4 142/3/4 141/2/4
f 143/5/3 145/8/3 146/7/3 144/6/3
f 147/1/1 149/2/1 150/3/1 148/4/1
f 151/5/2 152/6/2 154/7/2 153/8/2
f 155/1/1 157/2/1 158/3/1 156/4/1
f 159/5/2 160/6/2 162/7/2 161/8/2
f 163/1/1 165/2/1 166/3/1 164/4/1
f 167/5/2 168/6/2 170/7/2 169/8/2
f 171/1/4 172/4/4 174/3/4 173/2/4
f 175/5/2 176/6/2 178/7/2 177/8/2
f 179/1/1 181/2/1 182/3/1 180/4/1
f 183/5/2 184/6/2 186/7/2 185/8/2
f 187/1/1 189/2/1 190/3/1 188/4/1
f 191/5/2 192/6/2 194/7/2 193/8/2
f 195/1/1 197/2/1 198/3/1 196/4/1
f 199/5/2 200/6/2 202/7/2 201/8/2
f 203/19/2 205/20/2 207/21/2
f 204/19/3 208/21/3 206/20/3
f 205/22/8 206/23/8 208/24/8 207/25/8
f 203/19/2 207/21/2 209/26/2
f 204/19/3 210/26/3 208/21/3
f 207/27/9 208/28/9 210/23/9 209/22/9
f 203/19/2 209/26/2 211/29/2
f 204/19/3 212/29/3 210/26/3
f 209/30/5 210/31/5 212/28/5 211/27/5
f 203/19/2 211/29/2 213/32/2
f 204/19/3 214/32/3 212/29/3
f 211/33/10 212/34/10 214/35/10 213/36/10
f 203/19/2 213/32/2 205/20/2
f 204/19/3 206/20/3 214/32/3
f 213/25/11 214/24/11 206/34/11 205/33/11
f 215/19/2 217/20/2 219/21/2
f 216/19/3 220/21/3 218/20/3
f 217/37/8 218/38/8 220/31/8 219/30/8
f 215/19/2 219/21/2 221/26/2
f 216/19/3 222/26/3 220/21/3
f 219/39/9 220/40/9 222/38/9 221/37/9
f 215/19/2 221/26/2 223/29/2
f 216/19/3 224/29/3 222/26/3
f 221/41/5 222/42/5 224/40/5 223/39/5
f 215/19/2 223/29/2 225/32/2
f 216/19/3 226/32/3 224/29/3
f 223/43/10 224/44/10 226/45/10 225/46/10
f 215/19/2 225/32/2 217/20/2
f 216/19/3 218/20/3 226/32/3
f 225/30/11 226/31/11 218/44/11 217/43/11
f 104/47/12 100/48/12 228/49/12 106/50/12
f 227/49/13 99/48/13 103/47/13 105/50/13
f 101/50/13 97/47/13 99/48/13 227/49/13
f 228/49/12 100/48/12 98/47/12 102/50/12
f 104/14/7 106/15/7 233/16/7 232/13/7
f 103/11/5 99/10/5 230/9/5 232/12/5
f 98/14/6 229/13/6 231/16/6 102/15/6
f 97/17/5 229/9/5 230/12/5 99/18/5
