# Blender 5.1.2
# www.blender.org
mtllib laptop.mtl
o Plane
v -0.068474 0.000000 0.162775
v 0.162775 0.000000 0.162775
v -0.068474 0.000000 -0.162775
v 0.162775 0.000000 -0.162775
v -0.068474 0.006776 -0.162775
v -0.068474 0.006776 0.162775
v 0.162775 0.006776 0.162775
v 0.162775 0.006776 -0.162775
v -0.079859 0.000000 -0.162775
v -0.079859 0.000000 0.162775
v -0.079859 0.006776 -0.162775
v -0.079859 0.006776 0.162775
v -0.145094 0.202669 -0.162775
v -0.145094 0.202669 0.162775
v -0.156478 0.202669 -0.162775
v -0.156478 0.202669 0.162775
vn -0.0000 -0.7071 0.7071
vn 0.5774 -0.5774 0.5774
vn -0.0000 -0.7071 -0.7071
vn 0.5774 -0.5774 -0.5774
vn 0.2893 0.4238 -0.8583
vn 0.2893 0.4238 0.8583
vn 0.5774 0.5774 0.5774
vn 0.5774 0.5774 -0.5774
vn -0.5774 -0.5774 -0.5774
vn -0.5774 -0.5774 0.5774
vn -0.6485 -0.1223 -0.7513
vn -0.6485 -0.1223 0.7513
vn 0.4512 0.6610 -0.5995
vn 0.4512 0.6610 0.5995
vn -0.6841 0.4670 -0.5602
vn -0.6841 0.4670 0.5602
vt 0.360711 0.054987
vt 0.360711 0.222003
vt 0.030983 0.278138
vt 0.030983 0.033360
vt 0.493818 0.233634
vt 0.982514 0.233634
vt 0.982514 0.993879
vt 0.493818 0.993879
vt 0.587406 0.436498
vt 0.587406 0.872995
vt 0.578478 0.872995
vt 0.578478 0.436498
vt 0.991806 0.245429
vt 0.984140 0.240552
vt 0.992335 0.227674
vt 1.000000 0.232551
vt 0.810026 0.507024
vt 0.643578 0.245429
vt 0.651243 0.240552
vt 0.817692 0.502146
vt 0.825357 0.507024
vt 0.817692 0.502146
vt 0.439789 0.438683
vt 0.346120 0.612492
vt 0.208650 0.035408
vt 0.167687 0.117526
vt 0.002149 0.685969
vt 0.490323 0.685969
vt 0.490323 0.998793
vt 0.002149 0.998793
vt 0.442907 0.032225
vt 0.442907 0.330054
vt 0.635383 0.232551
vt 0.643048 0.227674
vt 0.563214 0.872995
vt 0.563214 0.436498
vt 0.472919 0.437396
vt 0.111319 0.443228
vt 0.809497 0.000000
vt 0.817692 0.012878
vt 0.817692 0.012878
vt 0.825886 -0.000000
s 1
usemtl Material.003
f 1/1/1 3/2/3 4/3/4 2/4/2
f 6/5/6 7/6/7 8/7/8 5/8/5
f 2/9/2 4/10/4 8/11/8 7/12/7
f 1/13/1 6/14/6 12/15/12 10/16/10
f 4/17/4 3/18/3 5/19/5 8/20/8
f 1/13/1 2/21/2 7/22/7 6/14/6
f 9/23/9 10/24/10 12/25/12 11/26/11
f 6/27/6 5/28/5 13/29/13 14/30/14
f 3/2/3 1/1/1 10/31/10 9/32/9
f 5/19/5 3/18/3 9/33/9 11/34/11
f 14/12/14 13/11/13 15/35/15 16/36/16
f 11/26/11 12/25/12 16/37/16 15/38/15
f 5/19/5 11/34/11 15/39/15 13/40/13
f 12/15/12 6/14/6 14/41/14 16/42/16
