# Blender 5.1.2
# www.blender.org
mtllib pot.mtl
o pot
v -0.278985 0.000000 0.278985
v 0.278985 0.000000 0.278985
v -0.278985 0.000000 -0.278985
v 0.278985 0.000000 -0.278985
v -0.234535 0.000000 -0.234535
v -0.234535 0.000000 0.234535
v 0.234535 0.000000 0.234535
v 0.234535 0.000000 -0.234535
v -0.278985 0.024235 0.278985
v 0.278985 0.024235 0.278985
v -0.278985 0.024235 -0.278985
v 0.278985 0.024235 -0.278985
v -0.264018 0.429130 -0.264018
v -0.264018 0.429130 0.264018
v 0.264018 0.429130 0.264018
v 0.264018 0.429130 -0.264018
v -0.310160 0.484795 -0.310160
v -0.310160 0.484795 0.310160
v 0.310160 0.484795 0.310160
v 0.310160 0.484795 -0.310160
vn -0.0000 -0.1541 -0.9881
vn -0.0000 1.0000 -0.0000
vn -0.0000 -0.0000 1.0000
vn -0.0000 -0.0000 -1.0000
vn -1.0000 -0.0000 -0.0000
vn 1.0000 -0.0000 -0.0000
vn -0.0000 -0.1541 0.9881
vn 0.9881 -0.1541 -0.0000
vn -0.9881 -0.1541 -0.0000
vn 0.7699 0.6382 -0.0000
vn -0.0000 0.6382 -0.7699
vn -0.7699 0.6382 -0.0000
vn -0.0000 0.6382 0.7699
vt 0.945269 0.540380
vt 0.945269 0.886049
vt 0.584772 0.941779
vt 0.584772 0.484649
vt 0.594684 0.304121
vt 0.872480 0.304121
vt 0.898805 0.330446
vt 0.568359 0.330446
vt 0.594684 0.026325
vt 0.568359 0.000000
vt 0.872481 0.026325
vt 0.898805 0.000000
vt 0.977941 0.367371
vt 0.977941 0.697817
vt 0.963631 0.697817
vt 0.963632 0.367371
vt 0.985691 0.000000
vt 0.985690 0.330446
vt 0.971381 0.330446
vt 0.971381 0.000000
vt 0.992250 0.367371
vt 0.992250 0.697817
vt 0.977941 0.367371
vt 1.000000 -0.000000
vt 1.000000 0.330446
vt 0.985691 0.330446
vt 0.985691 -0.000000
vt 0.019735 0.967372
vt 0.019735 0.520343
vt 0.466764 0.520343
vt 0.466764 0.967372
vt 0.946882 0.089321
vt 0.946882 0.434991
vt 0.586385 0.490721
vt 0.586385 0.033591
vt 0.947198 0.546134
vt 0.947198 0.891804
vt 0.586701 0.947534
vt 0.586701 0.490404
vt 0.954267 0.520578
vt 0.954267 0.925121
vt 0.532371 0.990343
vt 0.532371 0.455356
vt 0.683126 0.534802
vt 0.683125 0.847520
vt 0.652370 0.874847
vt 0.652370 0.507476
vt 0.907098 0.413523
vt 0.907098 0.726241
vt 0.876342 0.753568
vt 0.876342 0.386197
vt 0.880888 0.515129
vt 0.880888 0.827847
vt 0.850132 0.855174
vt 0.850132 0.487803
vt 0.937853 0.413523
vt 0.937853 0.726241
vt 0.907098 0.753568
vt 0.907098 0.386197
s 0
usemtl Material.001
f 8/1/1 5/2/1 17/3/1 20/4/1
f 6/5/2 5/6/2 3/7/2 1/8/2
f 7/9/2 6/5/2 1/8/2 2/10/2
f 8/11/2 7/9/2 2/10/2 4/12/2
f 5/6/2 8/11/2 4/12/2 3/7/2
f 3/13/3 4/14/3 12/15/3 11/16/3
f 2/17/4 1/18/4 9/19/4 10/20/4
f 4/21/5 2/22/5 10/14/5 12/23/5
f 1/24/6 3/25/6 11/26/6 9/27/6
f 14/28/2 15/29/2 16/30/2 13/31/2
f 6/32/7 7/33/7 19/34/7 18/35/7
f 7/36/8 8/37/8 20/38/8 19/39/8
f 5/40/9 6/41/9 18/42/9 17/43/9
f 14/44/10 13/45/10 17/46/10 18/47/10
f 15/48/11 14/49/11 18/50/11 19/51/11
f 16/52/12 15/53/12 19/54/12 20/55/12
f 13/56/13 16/57/13 20/58/13 17/59/13
