# Blender 5.1.2
# www.blender.org
mtllib rack.mtl
o PoolCue.004
v -0.013579 0.144324 0.230773
v -0.013579 1.622058 0.230773
v 0.009285 0.144324 0.230773
v -0.006929 1.622058 0.230773
v -0.002147 0.144324 0.250574
v -0.010254 1.622058 0.236532
v -0.025011 0.144324 0.250574
v -0.016904 1.622058 0.236532
v -0.036443 0.144324 0.230773
v -0.020229 1.622058 0.230773
v -0.025011 0.144324 0.210972
v -0.016904 1.622058 0.225014
v -0.002147 0.144324 0.210972
v -0.010254 1.622058 0.225014
v 0.001178 0.883191 0.230773
v -0.006200 0.883191 0.243553
v -0.020958 0.883191 0.243553
v -0.028336 0.883191 0.230773
v -0.020958 0.883191 0.217993
v -0.006200 0.883191 0.217993
v 0.104176 0.136696 -0.305516
v 0.103240 0.154889 -0.305516
v -0.050937 0.128719 -0.305516
v -0.051872 0.146912 -0.305516
v 0.104176 0.136696 0.003597
v 0.103240 0.154889 0.003597
v -0.051872 0.146912 0.003597
v -0.050936 0.128719 0.003597
v 0.111178 0.000536 -0.305516
v -0.043934 -0.007441 -0.305516
v 0.095302 0.309241 -0.305516
v -0.059810 0.301264 -0.305516
v -0.043934 -0.007441 -0.317718
v 0.111178 0.000536 -0.317718
v 0.095302 0.309241 -0.317718
v -0.059810 0.301264 -0.317718
v 0.079427 0.617946 -0.305516
v -0.047256 0.611431 -0.305516
v -0.047256 0.611431 -0.317718
v 0.079427 0.617946 -0.317718
v 0.063551 0.926651 -0.305516
v -0.031828 0.921746 -0.305516
v 0.063551 0.926651 -0.317718
v -0.031828 0.921746 -0.317718
v 0.047675 1.235357 -0.305516
v -0.010480 1.232366 -0.305516
v -0.010480 1.232366 -0.317718
v 0.047675 1.235357 -0.317718
v 0.048611 1.217164 -0.305516
v 0.047675 1.235357 -0.305516
v -0.009544 1.214173 -0.305516
v -0.010480 1.232366 -0.305516
v 0.048611 1.217164 0.003597
v 0.047675 1.235357 0.003597
v -0.010480 1.232366 0.003597
v -0.009544 1.214173 0.003597
v 0.104176 0.136696 0.312710
v 0.103240 0.154889 0.312710
v -0.050936 0.128719 0.312710
v -0.051872 0.146912 0.312710
v 0.111178 0.000536 0.312710
v -0.043934 -0.007441 0.312710
v 0.095302 0.309241 0.312710
v -0.059810 0.301264 0.312710
v -0.043934 -0.007441 0.324913
v 0.111178 0.000536 0.324913
v 0.095302 0.309241 0.324913
v -0.059810 0.301264 0.324913
v 0.079427 0.617946 0.312710
v -0.047256 0.611431 0.312710
v -0.047256 0.611431 0.324913
v 0.079427 0.617946 0.324913
v 0.063551 0.926651 0.312710
v -0.031828 0.921746 0.312710
v 0.063551 0.926651 0.324913
v -0.031828 0.921746 0.324913
v 0.047675 1.235357 0.312710
v -0.010480 1.232366 0.312710
v -0.010480 1.232366 0.324913
v 0.047675 1.235357 0.324913
v 0.048611 1.217164 0.312710
v 0.047675 1.235357 0.312710
v -0.009544 1.214173 0.312710
v -0.010480 1.232366 0.312710
v -0.013579 0.144324 0.003597
v -0.013579 1.622058 0.003597
v 0.009285 0.144324 0.003597
v -0.006929 1.622058 0.003597
v -0.002147 0.144324 0.023398
v -0.010254 1.622058 0.009356
v -0.025011 0.144324 0.023398
v -0.016904 1.622058 0.009356
v -0.036443 0.144324 0.003597
v -0.020229 1.622058 0.003597
v -0.025011 0.144324 -0.016204
v -0.016904 1.622058 -0.002162
v -0.002147 0.144324 -0.016204
v -0.010254 1.622058 -0.002162
v 0.001178 0.883191 0.003597
v -0.006200 0.883191 0.016377
v -0.020958 0.883191 0.016377
v -0.028336 0.883191 0.003597
v -0.020958 0.883191 -0.009183
v -0.006200 0.883191 -0.009183
v -0.013579 0.144324 -0.236745
v -0.013579 1.622058 -0.236745
v 0.009285 0.144324 -0.236745
v -0.006929 1.622058 -0.236745
v -0.002147 0.144324 -0.216944
v -0.010254 1.622058 -0.230986
v -0.025011 0.144324 -0.216944
v -0.016904 1.622058 -0.230986
v -0.036443 0.144324 -0.236745
v -0.020229 1.622058 -0.236745
v -0.025011 0.144324 -0.256546
v -0.016904 1.622058 -0.242504
v -0.002147 0.144324 -0.256546
v -0.010254 1.622058 -0.242504
v 0.001178 0.883191 -0.236745
v -0.006200 0.883191 -0.223965
v -0.020958 0.883191 -0.223965
v -0.028336 0.883191 -0.236745
v -0.020958 0.883191 -0.249525
v -0.006200 0.883191 -0.249525
v -0.013579 0.144324 -0.118156
v -0.013579 1.622058 -0.118156
v 0.009285 0.144324 -0.118156
v -0.006929 1.622058 -0.118156
v -0.002147 0.144324 -0.098355
v -0.010254 1.622058 -0.112397
v -0.025011 0.144324 -0.098355
v -0.016904 1.622058 -0.112397
v -0.036443 0.144324 -0.118156
v -0.020229 1.622058 -0.118156
v -0.025011 0.144324 -0.137957
v -0.016904 1.622058 -0.123915
v -0.002147 0.144324 -0.137957
v -0.010254 1.622058 -0.123915
v 0.001178 0.883191 -0.118156
v -0.006200 0.883191 -0.105376
v -0.020958 0.883191 -0.105376
v -0.028336 0.883191 -0.118156
v -0.020958 0.883191 -0.130936
v -0.006200 0.883191 -0.130936
v -0.013579 0.144324 0.109020
v -0.013579 1.622058 0.109020
v 0.009285 0.144324 0.109020
v -0.006929 1.622058 0.109020
v -0.002147 0.144324 0.128821
v -0.010254 1.622058 0.114779
v -0.025011 0.144324 0.128821
v -0.016904 1.622058 0.114779
v -0.036443 0.144324 0.109020
v -0.020229 1.622058 0.109020
v -0.025011 0.144324 0.089219
v -0.016904 1.622058 0.103261
v -0.002147 0.144324 0.089219
v -0.010254 1.622058 0.103261
v 0.001178 0.883191 0.109020
v -0.006200 0.883191 0.121800
v -0.020958 0.883191 0.121800
v -0.028336 0.883191 0.109020
v -0.020958 0.883191 0.096240
v -0.006200 0.883191 0.096240
vn -0.0000 -1.0000 -0.0000
vn -0.0000 1.0000 -0.0000
vn 0.8660 0.0095 0.5000
vn -0.0000 0.0095 1.0000
vn -0.8660 0.0095 0.5000
vn -0.8660 0.0095 -0.5000
vn -0.0000 0.0095 -1.0000
vn 0.8660 0.0095 -0.5000
vn 0.9987 0.0514 -0.0000
vn -0.0514 0.9987 -0.0000
vn -0.9987 -0.0514 -0.0000
vn 0.0514 -0.9987 -0.0000
vn -0.0000 -0.0000 1.0000
vn -0.0000 -0.0000 -1.0000
vn -0.9992 0.0404 -0.0000
vn -0.9988 0.0497 -0.0000
vn -0.9976 0.0686 -0.0000
vt 0.038191 0.193634
vt 0.053380 0.219943
vt 0.023002 0.219943
vt 0.088682 0.193634
vt 0.093100 0.201286
vt 0.084264 0.201286
vt 0.989018 0.315481
vt 0.007812 0.283173
vt 0.008055 0.274341
vt 0.989556 0.295881
vt 0.007812 0.193634
vt 0.097518 0.193634
vt 0.008200 0.265506
vt 0.989879 0.276277
vt 0.023002 0.167326
vt 0.093100 0.185982
vt 0.008249 0.256670
vt 0.989986 0.256670
vt 0.053380 0.167326
vt 0.084264 0.185982
vt 0.008200 0.247835
vt 0.989879 0.237064
vt 0.068569 0.193634
vt 0.079846 0.193634
vt 0.008055 0.239000
vt 0.989556 0.217459
vt 0.007812 0.230167
vt 0.989018 0.197859
vt 0.989852 0.038179
vt 0.008350 0.059720
vt 0.007812 0.040120
vt 0.989018 0.007812
vt 0.990352 0.068553
vt 0.008673 0.079325
vt 0.990518 0.098931
vt 0.008780 0.098931
vt 0.990352 0.129309
vt 0.008673 0.118538
vt 0.989852 0.159683
vt 0.008350 0.138142
vt 0.989018 0.190050
vt 0.007812 0.157742
vt 0.000000 0.972656
vt 0.464844 0.972656
vt 0.464844 1.000000
vt 0.000000 1.000000
vt 0.000000 0.757812
vt 0.464844 0.757812
vt 0.464844 0.992188
vt 0.000000 0.992188
vt 0.000000 0.750000
vt 0.464844 0.750000
vt 0.464844 0.777344
vt 0.000000 0.777344
vt 0.464844 0.835938
vt 0.000000 0.835938
vt 0.000000 0.816406
vt 0.464844 0.816406
vt 0.464844 0.851562
vt 0.000000 0.851562
vt 0.464844 0.867188
vt 0.234375 0.867188
vt 0.234375 0.851562
vt 0.464844 0.949231
vt 0.000000 0.901930
vt 0.000000 0.901930
vt 0.003906 0.835938
vt 0.463632 0.835938
vt 0.463632 0.851562
vt 0.003906 0.851562
vt 0.464844 0.845685
vt 0.000000 0.901930
vt 0.000000 0.901930
vt 0.002259 0.835938
vt 0.002259 0.851562
vt 0.437536 0.851562
vt 0.437536 0.835938
vt 0.378436 0.867188
vt 0.378436 0.851562
vt 0.464844 0.845685
vt 0.000000 0.845685
vt 0.000000 0.904315
vt 0.464844 0.904315
s 1
usemtl Material.014
f 1/1/1 3/2/1 5/3/1
f 2/4/2 6/5/2 4/6/2
f 15/7/3 4/8/3 6/9/3 16/10/3
f 1/1/1 5/3/1 7/11/1
f 2/4/2 8/12/2 6/5/2
f 16/10/4 6/9/4 8/13/4 17/14/4
f 1/1/1 7/11/1 9/15/1
f 2/4/2 10/16/2 8/12/2
f 17/14/5 8/13/5 10/17/5 18/18/5
f 1/1/1 9/15/1 11/19/1
f 2/4/2 12/20/2 10/16/2
f 18/18/6 10/17/6 12/21/6 19/22/6
f 1/1/1 11/19/1 13/23/1
f 2/4/2 14/24/2 12/20/2
f 19/22/7 12/21/7 14/25/7 20/26/7
f 1/1/1 13/23/1 3/2/1
f 2/4/2 4/6/2 14/24/2
f 20/26/8 14/25/8 4/27/8 15/28/8
f 13/29/8 20/30/8 15/31/8 3/32/8
f 11/33/7 19/34/7 20/30/7 13/29/7
f 9/35/6 18/36/6 19/34/6 11/33/6
f 7/37/5 17/38/5 18/36/5 9/35/5
f 5/39/4 16/40/4 17/38/4 7/37/4
f 3/41/3 15/42/3 16/40/3 5/39/3
usemtl props
f 25/43/9 21/44/9 22/45/9 26/46/9
f 26/47/10 22/48/10 24/49/10 27/50/10
f 27/51/11 24/52/11 23/53/11 28/54/11
f 28/47/12 23/48/12 21/49/12 25/50/12
f 31/47/13 32/50/13 30/49/13 29/48/13
f 35/47/14 34/48/14 33/49/14 36/50/14
f 31/55/9 29/56/9 34/57/9 35/58/9
f 30/56/11 32/55/11 36/59/11 33/60/11
f 29/61/12 30/62/12 33/63/12 34/59/12
f 31/47/13 37/48/13 38/64/13 32/50/13
f 35/47/14 36/50/14 39/64/14 40/48/14
f 31/55/9 35/58/9 40/57/9 37/56/9
f 38/56/15 39/60/15 36/59/15 32/55/15
f 41/47/13 42/65/13 38/64/13 37/48/13
f 43/47/14 40/48/14 39/64/14 44/66/14
f 41/55/9 37/56/9 40/57/9 43/58/9
f 38/67/16 42/68/16 44/69/16 39/70/16
f 41/47/13 45/48/13 46/71/13 42/72/13
f 43/47/14 44/73/14 47/71/14 48/48/14
f 41/55/9 43/58/9 48/57/9 45/56/9
f 46/74/17 47/75/17 44/76/17 42/77/17
f 48/61/10 47/78/10 46/79/10 45/59/10
f 53/43/9 49/44/9 50/45/9 54/46/9
f 54/47/10 50/48/10 52/80/10 55/81/10
f 55/51/11 52/52/11 51/53/11 56/54/11
f 56/82/12 51/83/12 49/49/12 53/50/12
f 25/43/9 26/46/9 58/45/9 57/44/9
f 26/47/10 27/50/10 60/49/10 58/48/10
f 27/51/11 28/54/11 59/53/11 60/52/11
f 28/47/12 25/50/12 57/49/12 59/48/12
f 63/47/14 61/48/14 62/49/14 64/50/14
f 67/47/13 68/50/13 65/49/13 66/48/13
f 63/55/9 67/58/9 66/57/9 61/56/9
f 62/56/11 65/60/11 68/59/11 64/55/11
f 61/61/12 66/59/12 65/63/12 62/62/12
f 63/47/14 64/50/14 70/64/14 69/48/14
f 67/47/13 72/48/13 71/64/13 68/50/13
f 63/55/9 69/56/9 72/57/9 67/58/9
f 70/56/15 64/55/15 68/59/15 71/60/15
f 73/47/14 69/48/14 70/64/14 74/65/14
f 75/47/13 76/66/13 71/64/13 72/48/13
f 73/55/9 75/58/9 72/57/9 69/56/9
f 70/67/16 71/70/16 76/69/16 74/68/16
f 73/47/14 74/72/14 78/71/14 77/48/14
f 75/47/13 80/48/13 79/71/13 76/73/13
f 73/55/9 77/56/9 80/57/9 75/58/9
f 78/74/17 74/77/17 76/76/17 79/75/17
f 80/61/10 77/59/10 78/79/10 79/78/10
f 53/43/9 54/46/9 82/45/9 81/44/9
f 54/47/10 55/81/10 84/80/10 82/48/10
f 55/51/11 56/54/11 83/53/11 84/52/11
f 56/82/12 53/50/12 81/49/12 83/83/12
usemtl Material.010
f 85/1/1 87/2/1 89/3/1
f 86/4/2 90/5/2 88/6/2
f 99/7/3 88/8/3 90/9/3 100/10/3
f 85/1/1 89/3/1 91/11/1
f 86/4/2 92/12/2 90/5/2
f 100/10/4 90/9/4 92/13/4 101/14/4
f 85/1/1 91/11/1 93/15/1
f 86/4/2 94/16/2 92/12/2
f 101/14/5 92/13/5 94/17/5 102/18/5
f 85/1/1 93/15/1 95/19/1
f 86/4/2 96/20/2 94/16/2
f 102/18/6 94/17/6 96/21/6 103/22/6
f 85/1/1 95/19/1 97/23/1
f 86/4/2 98/24/2 96/20/2
f 103/22/7 96/21/7 98/25/7 104/26/7
f 85/1/1 97/23/1 87/2/1
f 86/4/2 88/6/2 98/24/2
f 104/26/8 98/25/8 88/27/8 99/28/8
f 97/29/8 104/30/8 99/31/8 87/32/8
f 95/33/7 103/34/7 104/30/7 97/29/7
f 93/35/6 102/36/6 103/34/6 95/33/6
f 91/37/5 101/38/5 102/36/5 93/35/5
f 89/39/4 100/40/4 101/38/4 91/37/4
f 87/41/3 99/42/3 100/40/3 89/39/3
usemtl Material.011
f 105/1/1 107/2/1 109/3/1
f 106/4/2 110/5/2 108/6/2
f 119/7/3 108/8/3 110/9/3 120/10/3
f 105/1/1 109/3/1 111/11/1
f 106/4/2 112/12/2 110/5/2
f 120/10/4 110/9/4 112/13/4 121/14/4
f 105/1/1 111/11/1 113/15/1
f 106/4/2 114/16/2 112/12/2
f 121/14/5 112/13/5 114/17/5 122/18/5
f 105/1/1 113/15/1 115/19/1
f 106/4/2 116/20/2 114/16/2
f 122/18/6 114/17/6 116/21/6 123/22/6
f 105/1/1 115/19/1 117/23/1
f 106/4/2 118/24/2 116/20/2
f 123/22/7 116/21/7 118/25/7 124/26/7
f 105/1/1 117/23/1 107/2/1
f 106/4/2 108/6/2 118/24/2
f 124/26/8 118/25/8 108/27/8 119/28/8
f 117/29/8 124/30/8 119/31/8 107/32/8
f 115/33/7 123/34/7 124/30/7 117/29/7
f 113/35/6 122/36/6 123/34/6 115/33/6
f 111/37/5 121/38/5 122/36/5 113/35/5
f 109/39/4 120/40/4 121/38/4 111/37/4
f 107/41/3 119/42/3 120/40/3 109/39/3
usemtl Material.012
f 125/1/1 127/2/1 129/3/1
f 126/4/2 130/5/2 128/6/2
f 139/7/3 128/8/3 130/9/3 140/10/3
f 125/1/1 129/3/1 131/11/1
f 126/4/2 132/12/2 130/5/2
f 140/10/4 130/9/4 132/13/4 141/14/4
f 125/1/1 131/11/1 133/15/1
f 126/4/2 134/16/2 132/12/2
f 141/14/5 132/13/5 134/17/5 142/18/5
f 125/1/1 133/15/1 135/19/1
f 126/4/2 136/20/2 134/16/2
f 142/18/6 134/17/6 136/21/6 143/22/6
f 125/1/1 135/19/1 137/23/1
f 126/4/2 138/24/2 136/20/2
f 143/22/7 136/21/7 138/25/7 144/26/7
f 125/1/1 137/23/1 127/2/1
f 126/4/2 128/6/2 138/24/2
f 144/26/8 138/25/8 128/27/8 139/28/8
f 137/29/8 144/30/8 139/31/8 127/32/8
f 135/33/7 143/34/7 144/30/7 137/29/7
f 133/35/6 142/36/6 143/34/6 135/33/6
f 131/37/5 141/38/5 142/36/5 133/35/5
f 129/39/4 140/40/4 141/38/4 131/37/4
f 127/41/3 139/42/3 140/40/3 129/39/3
usemtl Material.013
f 145/1/1 147/2/1 149/3/1
f 146/4/2 150/5/2 148/6/2
f 159/7/3 148/8/3 150/9/3 160/10/3
f 145/1/1 149/3/1 151/11/1
f 146/4/2 152/12/2 150/5/2
f 160/10/4 150/9/4 152/13/4 161/14/4
f 145/1/1 151/11/1 153/15/1
f 146/4/2 154/16/2 152/12/2
f 161/14/5 152/13/5 154/17/5 162/18/5
f 145/1/1 153/15/1 155/19/1
f 146/4/2 156/20/2 154/16/2
f 162/18/6 154/17/6 156/21/6 163/22/6
f 145/1/1 155/19/1 157/23/1
f 146/4/2 158/24/2 156/20/2
f 163/22/7 156/21/7 158/25/7 164/26/7
f 145/1/1 157/23/1 147/2/1
f 146/4/2 148/6/2 158/24/2
f 164/26/8 158/25/8 148/27/8 159/28/8
f 157/29/8 164/30/8 159/31/8 147/32/8
f 155/33/7 163/34/7 164/30/7 157/29/7
f 153/35/6 162/36/6 163/34/6 155/33/6
f 151/37/5 161/38/5 162/36/5 153/35/5
f 149/39/4 160/40/4 161/38/4 151/37/4
f 147/41/3 159/42/3 160/40/3 149/39/3
