# Blender 5.1.2
# www.blender.org
mtllib stool.mtl
o Cylinder.004
v 0.004672 0.398771 -0.223053
v -0.002741 0.391534 -0.218290
v -0.010153 0.398771 -0.223053
v 0.004701 0.422926 -0.223041
v -0.010182 0.422926 -0.223041
v -0.002741 0.426127 -0.218290
v 0.152545 0.391534 -0.153968
v 0.150672 0.398771 -0.162577
v 0.161154 0.398771 -0.152095
v 0.152545 0.426127 -0.153968
v 0.161166 0.422926 -0.152066
v 0.150643 0.422926 -0.162590
v 0.216867 0.391534 0.001317
v 0.221629 0.398771 -0.006095
v 0.221629 0.398771 0.008729
v 0.216867 0.426127 0.001317
v 0.221617 0.422926 0.008759
v 0.221617 0.422926 -0.006124
v 0.152545 0.391534 0.156603
v 0.161154 0.398771 0.154729
v 0.150672 0.398771 0.165212
v 0.152545 0.426127 0.156603
v 0.150643 0.422926 0.165224
v 0.161166 0.422926 0.154700
v -0.002741 0.391534 0.220924
v 0.004672 0.398771 0.225687
v -0.010153 0.398771 0.225687
v -0.002741 0.426127 0.220924
v -0.010182 0.422926 0.225675
v 0.004701 0.422926 0.225675
v -0.158026 0.391534 0.156603
v -0.156153 0.398771 0.165212
v -0.166635 0.398771 0.154729
v -0.158026 0.426127 0.156603
v -0.166647 0.422926 0.154700
v -0.156124 0.422926 0.165224
v -0.222348 0.391534 0.001317
v -0.227110 0.398771 0.008729
v -0.227110 0.398771 -0.006095
v -0.222348 0.426127 0.001317
v -0.227098 0.422926 -0.006124
v -0.227098 0.422926 0.008759
v -0.158026 0.391534 -0.153968
v -0.166635 0.398771 -0.152095
v -0.156153 0.398771 -0.162577
v -0.158026 0.426127 -0.153968
v -0.156124 0.422926 -0.162590
v -0.166647 0.422926 -0.152066
v 0.074902 0.391534 -0.186129
v 0.077672 0.398771 -0.192815
v 0.184706 0.391534 -0.076326
v 0.191392 0.398771 -0.079095
v 0.184706 0.391534 0.078960
v 0.191392 0.398771 0.081729
v 0.074902 0.391534 0.188764
v 0.077672 0.398771 0.195449
v -0.080383 0.391534 0.188764
v -0.083153 0.398771 0.195449
v -0.190187 0.391534 0.078960
v -0.196873 0.398771 0.081729
v -0.190187 0.391534 -0.076326
v -0.196873 0.398771 -0.079095
v -0.080383 0.391534 -0.186129
v -0.083153 0.398771 -0.192815
v 0.005660 -0.425648 0.188948
v -0.006686 -0.418676 0.185608
v 0.006686 -0.418676 0.185608
v 0.006686 0.404087 0.113626
v -0.006686 0.404087 0.113626
v 0.005047 0.411495 0.115264
v 0.012225 -0.418476 0.187894
v 0.021680 -0.417652 0.197313
v 0.011773 -0.425444 0.191283
v 0.011027 0.411727 0.117918
v 0.021680 0.405111 0.125331
v 0.012225 0.404287 0.115911
v 0.023974 -0.417169 0.202831
v 0.023974 -0.416004 0.216152
v 0.018353 -0.424099 0.206660
v 0.018911 0.413386 0.136878
v 0.023974 0.406760 0.144169
v 0.023974 0.405594 0.130848
v 0.021680 -0.415521 0.221669
v 0.012225 -0.414697 0.231089
v 0.012014 -0.422749 0.222090
v 0.011027 0.415045 0.155838
v 0.012225 0.408066 0.159106
v 0.021680 0.407242 0.149687
v 0.006686 -0.414497 0.233374
v -0.006686 -0.414497 0.233374
v -0.003475 -0.422196 0.228405
v 0.005047 0.415277 0.158492
v -0.006686 0.408266 0.161392
v 0.006686 0.408266 0.161392
v -0.012225 -0.414697 0.231089
v -0.021680 -0.415521 0.221669
v -0.018911 -0.422770 0.221850
v -0.010520 0.414731 0.152254
v -0.021680 0.407242 0.149687
v -0.012225 0.408066 0.159106
v -0.021255 -0.423303 0.215761
v -0.023974 -0.416004 0.216152
v -0.023974 -0.417169 0.202831
v -0.016990 0.413386 0.136878
v -0.023974 0.405594 0.130848
v -0.023974 0.406760 0.144169
v -0.021680 -0.417652 0.197313
v -0.012225 -0.418476 0.187894
v -0.013372 -0.424961 0.196801
v -0.010520 0.412041 0.121502
v -0.012225 0.404287 0.115911
v -0.021680 0.405111 0.125331
v 0.005660 -0.421943 -0.231296
v -0.006686 -0.414497 -0.233374
v 0.006686 -0.414497 -0.233374
v 0.006686 0.408266 -0.161392
v -0.006686 0.408266 -0.161392
v 0.005047 0.415277 -0.158492
v 0.012225 -0.414697 -0.231089
v 0.021680 -0.415521 -0.221669
v 0.011773 -0.422148 -0.228961
v 0.011027 0.415045 -0.155838
v 0.021680 0.407242 -0.149687
v 0.012225 0.408066 -0.159106
v 0.023974 -0.416004 -0.216152
v 0.023974 -0.417169 -0.202831
v 0.018353 -0.423493 -0.213584
v 0.018911 0.413386 -0.136878
v 0.023974 0.405594 -0.130848
v 0.023974 0.406760 -0.144169
v 0.021680 -0.417652 -0.197313
v 0.012225 -0.418476 -0.187894
v 0.011054 -0.425045 -0.195845
v 0.011027 0.411727 -0.117918
v 0.012225 0.404287 -0.115911
v 0.021680 0.405111 -0.125331
v 0.006686 -0.418676 -0.185608
v -0.006686 -0.418676 -0.185608
v 0.000000 -0.425444 -0.191283
v 0.005047 0.411495 -0.115264
v -0.006686 0.404087 -0.113626
v 0.006686 0.404087 -0.113626
v -0.012225 -0.418476 -0.187894
v -0.021680 -0.417652 -0.197313
v -0.013372 -0.424961 -0.196801
v -0.010520 0.412041 -0.121502
v -0.021680 0.405111 -0.125331
v -0.012225 0.404287 -0.115911
v -0.023974 -0.417169 -0.202831
v -0.023974 -0.416004 -0.216152
v -0.018911 -0.423796 -0.210122
v -0.016990 0.413386 -0.136878
v -0.023974 0.406760 -0.144169
v -0.023974 0.405594 -0.130848
v -0.021680 -0.415521 -0.221669
v -0.012225 -0.414697 -0.231089
v -0.013372 -0.422630 -0.223443
v -0.010520 0.414731 -0.152254
v -0.012225 0.408066 -0.159106
v -0.021680 0.407242 -0.149687
v -0.228931 -0.422148 -0.003358
v -0.233460 -0.414487 0.003238
v -0.233228 -0.414508 -0.010131
v -0.161245 0.408256 -0.010131
v -0.161478 0.408276 0.003238
v -0.155687 0.415034 -0.003358
v -0.230846 -0.414716 -0.015629
v -0.221264 -0.415554 -0.024918
v -0.223182 -0.422651 -0.016631
v -0.149938 0.414531 -0.016631
v -0.149282 0.407209 -0.024918
v -0.158864 0.408048 -0.015629
v -0.215707 -0.416041 -0.027115
v -0.202389 -0.417206 -0.026882
v -0.209767 -0.423825 -0.021936
v -0.136523 0.413357 -0.021936
v -0.130406 0.405558 -0.026882
v -0.143725 0.406723 -0.027115
v -0.196912 -0.417685 -0.024491
v -0.187658 -0.418495 -0.014872
v -0.198836 -0.424781 -0.017165
v -0.117703 0.411711 -0.013721
v -0.115676 0.404269 -0.014872
v -0.124929 0.405079 -0.024491
v -0.185469 -0.418686 -0.009294
v -0.185702 -0.418666 0.004075
v -0.191876 -0.425390 0.000767
v -0.115153 0.411488 -0.007695
v -0.113719 0.404098 0.004075
v -0.113487 0.404078 -0.009294
v -0.188083 -0.418457 0.009573
v -0.197665 -0.417619 0.018862
v -0.198698 -0.424793 0.016085
v -0.121661 0.412057 0.007760
v -0.125683 0.405145 0.018862
v -0.116101 0.404306 0.009573
v -0.203222 -0.417133 0.021059
v -0.216541 -0.415968 0.020826
v -0.204827 -0.424257 0.018323
v -0.139473 0.413615 0.014879
v -0.144559 0.406796 0.020826
v -0.131240 0.405631 0.021059
v -0.222018 -0.415488 0.018435
v -0.231271 -0.414679 0.008816
v -0.223647 -0.422610 0.010108
v -0.150403 0.414572 0.010108
v -0.159289 0.408085 0.008816
v -0.150036 0.407275 0.018435
v 0.191260 -0.425444 0.002698
v 0.185469 -0.418686 0.009294
v 0.185702 -0.418666 -0.004075
v 0.113719 0.404098 -0.004075
v 0.113487 0.404078 0.009294
v 0.115153 0.411488 0.007695
v 0.188083 -0.418457 -0.009573
v 0.197665 -0.417619 -0.018862
v 0.197009 -0.424941 -0.010575
v 0.121661 0.412057 -0.007760
v 0.125683 0.405145 -0.018862
v 0.116101 0.404306 -0.009573
v 0.210424 -0.423767 -0.015880
v 0.203222 -0.417133 -0.021059
v 0.216541 -0.415968 -0.020826
v 0.137147 0.413412 -0.013960
v 0.144559 0.406796 -0.020826
v 0.131240 0.405631 -0.021059
v 0.222018 -0.415488 -0.018435
v 0.231272 -0.414679 -0.008816
v 0.223647 -0.422610 -0.010108
v 0.152409 0.414747 -0.007221
v 0.159289 0.408085 -0.008816
v 0.150036 0.407275 -0.018435
v 0.233460 -0.414487 -0.003238
v 0.233228 -0.414508 0.010131
v 0.228931 -0.422148 0.003358
v 0.158375 0.415269 0.008453
v 0.161246 0.408256 0.010131
v 0.161478 0.408276 -0.003238
v 0.230846 -0.414716 0.015629
v 0.221264 -0.415554 0.024918
v 0.223182 -0.422651 0.016631
v 0.155617 0.415028 0.014386
v 0.149282 0.407209 0.024918
v 0.158864 0.408048 0.015629
v 0.209767 -0.423825 0.021936
v 0.215708 -0.416041 0.027115
v 0.202389 -0.417206 0.026882
v 0.136523 0.413357 0.021936
v 0.130406 0.405558 0.026882
v 0.143725 0.406723 0.027115
v 0.196912 -0.417685 0.024491
v 0.187658 -0.418495 0.014872
v 0.196544 -0.424981 0.016164
v 0.117703 0.411711 0.013721
v 0.115676 0.404269 0.014872
v 0.124929 0.405079 0.024491
vn 0.2076 -0.3446 -0.9155
vn -0.0000 -0.8725 -0.4887
vn -0.2076 -0.3446 -0.9155
vn 0.1878 0.5036 -0.8433
vn -0.1878 0.5036 -0.8433
vn -0.0000 0.9550 -0.2965
vn 0.3456 -0.8725 -0.3456
vn 0.5006 -0.3446 -0.7942
vn 0.7942 -0.3446 -0.5006
vn 0.2096 0.9550 -0.2096
vn 0.7291 0.5036 -0.4635
vn 0.4635 0.5036 -0.7291
vn 0.4887 -0.8725 -0.0000
vn 0.9155 -0.3446 -0.2076
vn 0.9155 -0.3446 0.2076
vn 0.2965 0.9550 -0.0000
vn 0.8433 0.5036 0.1878
vn 0.8433 0.5036 -0.1878
vn 0.3456 -0.8725 0.3456
vn 0.7942 -0.3446 0.5006
vn 0.5006 -0.3446 0.7942
vn 0.2096 0.9550 0.2096
vn 0.4635 0.5036 0.7291
vn 0.7291 0.5036 0.4635
vn -0.0000 -0.8725 0.4887
vn 0.2076 -0.3446 0.9155
vn -0.2076 -0.3446 0.9155
vn -0.0000 0.9550 0.2965
vn -0.1878 0.5036 0.8433
vn 0.1878 0.5036 0.8433
vn -0.3456 -0.8725 0.3456
vn -0.5006 -0.3446 0.7942
vn -0.7942 -0.3446 0.5006
vn -0.2096 0.9550 0.2096
vn -0.7291 0.5036 0.4635
vn -0.4635 0.5036 0.7291
vn -0.4887 -0.8725 -0.0000
vn -0.9155 -0.3446 0.2076
vn -0.9155 -0.3446 -0.2076
vn -0.2965 0.9550 -0.0000
vn -0.8433 0.5036 -0.1878
vn -0.8433 0.5036 0.1878
vn -0.3456 -0.8725 -0.3456
vn -0.7942 -0.3446 -0.5006
vn -0.5006 -0.3446 -0.7942
vn -0.2096 0.9550 -0.2096
vn -0.4635 0.5036 -0.7291
vn -0.7291 0.5036 -0.4635
vn 0.1464 -0.9239 -0.3536
vn 0.3536 -0.3827 -0.8536
vn 0.3536 -0.9239 -0.1464
vn 0.8536 -0.3827 -0.3536
vn 0.3536 -0.9239 0.1464
vn 0.8536 -0.3827 0.3536
vn 0.1465 -0.9239 0.3536
vn 0.3536 -0.3827 0.8536
vn -0.1464 -0.9239 0.3536
vn -0.3536 -0.3827 0.8536
vn -0.3536 -0.9239 0.1464
vn -0.8536 -0.3827 0.3536
vn -0.3536 -0.9239 -0.1464
vn -0.8536 -0.3827 -0.3536
vn -0.1465 -0.9239 -0.3536
vn -0.3536 -0.3827 -0.8536
vn 0.0676 -0.8464 -0.5282
vn -0.2231 -0.4143 -0.8824
vn 0.1920 -0.2643 -0.9451
vn 0.2036 0.0850 -0.9754
vn -0.2243 0.2288 -0.9473
vn 0.0700 0.7263 -0.6838
vn 0.5379 -0.2410 -0.8079
vn 0.8118 -0.3524 -0.4656
vn 0.3874 -0.8226 -0.4163
vn 0.3765 0.7530 -0.5397
vn 0.8048 0.2919 -0.5168
vn 0.5463 0.1090 -0.8305
vn 0.9222 -0.3499 -0.1645
vn 0.8968 -0.3725 0.2387
vn 0.4628 -0.8855 0.0419
vn 0.4791 0.8744 -0.0765
vn 0.9153 0.3633 0.1738
vn 0.9153 0.3276 -0.2343
vn 0.7719 -0.3542 0.5279
vn 0.4950 -0.3301 0.8038
vn 0.2899 -0.8833 0.3683
vn 0.3764 0.8353 0.4007
vn 0.5463 0.2515 0.7989
vn 0.8048 0.3772 0.4583
vn 0.2053 -0.3123 0.9275
vn -0.1944 -0.2526 0.9478
vn -0.0354 -0.8421 0.5382
vn 0.0700 0.8340 0.5473
vn -0.2243 0.3898 0.8931
vn 0.2036 0.2530 0.9458
vn -0.4946 -0.2386 0.8357
vn -0.8258 -0.1221 0.5506
vn -0.4864 -0.7464 0.4542
vn -0.3022 0.9131 0.2737
vn -0.7793 0.4330 0.4529
vn -0.5147 0.4018 0.7574
vn -0.6000 -0.7883 0.1368
vn -0.9646 -0.1635 0.2071
vn -0.9151 -0.3540 -0.1929
vn -0.4100 0.9086 -0.0795
vn -0.8959 0.3803 -0.2299
vn -0.8959 0.4144 0.1603
vn -0.7920 -0.3893 -0.4703
vn -0.5024 -0.4145 -0.7588
vn -0.3388 -0.9039 -0.2610
vn -0.3022 0.8517 -0.4281
vn -0.5147 0.2642 -0.8157
vn -0.7793 0.3478 -0.5213
vn 0.0676 -0.7419 -0.6671
vn -0.2231 -0.2548 -0.9409
vn 0.1920 -0.0962 -0.9767
vn 0.2036 0.2530 -0.9458
vn -0.2243 0.3898 -0.8931
vn 0.0700 0.8340 -0.5473
vn 0.5379 -0.0970 -0.8374
vn 0.8118 -0.2662 -0.5198
vn 0.3874 -0.7378 -0.5528
vn 0.3764 0.8353 -0.4007
vn 0.8048 0.3772 -0.4583
vn 0.5463 0.2515 -0.7989
vn 0.9222 -0.3160 -0.2228
vn 0.8968 -0.4084 0.1704
vn 0.4628 -0.8793 -0.1124
vn 0.4791 0.8744 0.0765
vn 0.9153 0.3276 0.2343
vn 0.9153 0.3633 -0.1738
vn 0.7778 -0.4347 0.4540
vn 0.5088 -0.4224 0.7501
vn 0.2998 -0.9206 0.2502
vn 0.3764 0.7530 0.5397
vn 0.5463 0.1090 0.8305
vn 0.8048 0.2919 0.5168
vn 0.2048 -0.4252 0.8816
vn -0.2048 -0.4252 0.8816
vn -0.0000 -0.9162 0.4008
vn 0.0700 0.7263 0.6838
vn -0.2243 0.2288 0.9473
vn 0.2036 0.0850 0.9754
vn -0.5024 -0.4145 0.7588
vn -0.7920 -0.3893 0.4703
vn -0.3388 -0.9039 0.2610
vn -0.3022 0.8517 0.4281
vn -0.7793 0.3478 0.5213
vn -0.5147 0.2642 0.8157
vn -0.9153 -0.3633 0.1738
vn -0.9153 -0.3276 -0.2343
vn -0.4791 -0.8744 -0.0765
vn -0.4100 0.9086 0.0795
vn -0.8959 0.4144 -0.1603
vn -0.8959 0.3803 0.2299
vn -0.7920 -0.3017 -0.5307
vn -0.5024 -0.2764 -0.8193
vn -0.3388 -0.8449 -0.4140
vn -0.3022 0.9131 -0.2737
vn -0.5147 0.4018 -0.7574
vn -0.7793 0.4330 -0.4529
vn -0.5537 -0.8327 -0.0084
vn -0.9455 -0.2654 0.1888
vn -0.9383 -0.2660 -0.2208
vn -0.8779 0.4249 -0.2208
vn -0.8850 0.4255 0.1888
vn -0.4007 0.9162 -0.0084
vn -0.8104 -0.2772 -0.5161
vn -0.5169 -0.3029 -0.8007
vn -0.4081 -0.8454 -0.3446
vn -0.2551 0.9034 -0.3446
vn -0.4564 0.3881 -0.8007
vn -0.7499 0.4137 -0.5161
vn -0.2183 -0.3290 -0.9187
vn 0.1897 -0.3647 -0.9116
vn -0.0682 -0.8751 -0.4790
vn 0.0848 0.8737 -0.4790
vn 0.2501 0.3262 -0.9116
vn -0.1579 0.3619 -0.9187
vn 0.4894 -0.3996 -0.7751
vn 0.7489 -0.4606 -0.4765
vn 0.2263 -0.9185 -0.3242
vn 0.5462 0.7524 -0.3682
vn 0.8399 0.1081 -0.5319
vn 0.5307 0.2906 -0.7962
vn 0.8626 -0.4689 -0.1897
vn 0.8861 -0.4130 0.2104
vn 0.3831 -0.9227 0.0434
vn 0.6849 0.7262 -0.0592
vn 0.9432 0.2292 0.2404
vn 0.9788 0.0847 -0.1867
vn 0.7729 -0.3793 0.5087
vn 0.5066 -0.2146 0.8350
vn 0.3092 -0.8132 0.4931
vn 0.4228 0.8522 0.3083
vn 0.5076 0.3491 0.7877
vn 0.8066 0.2649 0.5284
vn 0.1587 -0.1955 0.9678
vn -0.2674 -0.3137 0.9111
vn -0.0126 -0.7991 0.6010
vn 0.0494 0.8944 0.4445
vn -0.1788 0.3725 0.9107
vn 0.2213 0.3757 0.8999
vn -0.5444 -0.3005 0.7832
vn -0.8279 -0.2757 0.4885
vn -0.4198 -0.8444 0.3328
vn -0.2668 0.9045 0.3328
vn -0.7674 0.4153 0.4885
vn -0.4840 0.3905 0.7832
vn -0.4007 -0.9162 -0.0084
vn -0.8850 -0.4255 0.1888
vn -0.8779 -0.4249 -0.2208
vn -0.9432 0.2292 -0.2404
vn -0.9788 0.0847 0.1867
vn -0.6849 0.7262 0.0592
vn -0.7499 -0.4137 -0.5161
vn -0.4564 -0.3881 -0.8007
vn -0.2550 -0.9034 -0.3446
vn -0.4228 0.8522 -0.3083
vn -0.5076 0.3490 -0.7877
vn -0.8066 0.2649 -0.5284
vn 0.0848 -0.8737 -0.4790
vn -0.1579 -0.3619 -0.9187
vn 0.2501 -0.3262 -0.9116
vn -0.0724 0.9092 -0.4100
vn 0.1759 0.4158 -0.8923
vn -0.2143 0.3816 -0.8991
vn 0.5444 -0.3005 -0.7832
vn 0.8279 -0.2757 -0.4885
vn 0.4198 -0.8444 -0.3328
vn 0.2789 0.9136 -0.2960
vn 0.7663 0.4026 -0.5008
vn 0.4664 0.4342 -0.7707
vn 0.9455 -0.2654 -0.1888
vn 0.9383 -0.2660 0.2208
vn 0.5537 -0.8327 0.0084
vn 0.5459 0.8339 0.0808
vn 0.9421 0.2527 0.2204
vn 0.8969 0.3902 -0.2081
vn 0.8104 -0.2772 0.5161
vn 0.5169 -0.3029 0.8007
vn 0.4080 -0.8454 0.3446
vn 0.3941 0.8347 0.3846
vn 0.4442 0.3759 0.8132
vn 0.7893 0.2507 0.5605
vn 0.0682 -0.8751 0.4790
vn 0.2183 -0.3290 0.9187
vn -0.1897 -0.3647 0.9116
vn -0.0848 0.8737 0.4790
vn -0.2501 0.3262 0.9116
vn 0.1579 0.3619 0.9187
vn -0.4840 -0.3905 0.7832
vn -0.7674 -0.4153 0.4885
vn -0.2668 -0.9045 0.3328
vn -0.5462 0.7524 0.3682
vn -0.8399 0.1081 0.5319
vn -0.5307 0.2906 0.7962
vt 0.757822 0.486760
vt 0.750000 0.481734
vt 0.742178 0.486760
vt 0.257852 0.486748
vt 0.246074 0.488374
vt 0.250689 0.482423
vt 0.913861 0.413861
vt 0.911884 0.422945
vt 0.922945 0.411884
vt 0.413861 0.413861
vt 0.422958 0.411853
vt 0.411853 0.422958
vt 0.981734 0.250000
vt 0.986760 0.257822
vt 0.986760 0.242178
vt 0.482325 0.249410
vt 0.486748 0.242148
vt 0.488374 0.253926
vt 0.913861 0.086139
vt 0.922945 0.088116
vt 0.911884 0.077055
vt 0.413861 0.086139
vt 0.411853 0.077042
vt 0.422958 0.088147
vt 0.750000 0.018266
vt 0.757822 0.013240
vt 0.742178 0.013240
vt 0.249311 0.017577
vt 0.242148 0.013253
vt 0.253926 0.011626
vt 0.586139 0.086139
vt 0.588116 0.077055
vt 0.577055 0.088116
vt 0.086139 0.086139
vt 0.077042 0.088147
vt 0.088147 0.077042
vt 0.518266 0.250000
vt 0.513240 0.242178
vt 0.513240 0.257822
vt 0.017675 0.250590
vt 0.013253 0.257852
vt 0.011626 0.246074
vt 0.586139 0.413861
vt 0.577055 0.411884
vt 0.588116 0.422945
vt 0.086139 0.413861
vt 0.088147 0.422958
vt 0.077042 0.411853
vt 0.800796 0.440746
vt 0.690000 0.465147
vt 0.810000 0.465147
vt 0.955806 0.995694
vt 0.999471 0.995733
vt 0.959731 1.000000
vt 0.859705 0.444559
vt 0.932132 0.389706
vt 0.855655 0.419706
vt 0.889921 1.000000
vt 0.830806 0.995694
vt 0.907881 0.995714
vt 0.965147 0.310000
vt 0.977574 0.220000
vt 0.914702 0.281189
vt 0.743898 1.000000
vt 0.705806 0.995694
vt 0.782881 0.995714
vt 0.944558 0.140294
vt 0.880919 0.076655
vt 0.857814 0.142186
vt 0.595159 1.000000
vt 0.580806 0.995694
vt 0.657881 0.995714
vt 0.810000 0.034853
vt 0.711213 0.043640
vt 0.718811 0.085298
vt 0.513423 1.000000
vt 0.455806 0.995694
vt 0.532881 0.995714
vt 0.640294 0.055442
vt 0.567868 0.140294
vt 0.580294 0.144345
vt 0.388072 1.000000
vt 0.330806 0.995694
vt 0.408146 0.995694
vt 0.559254 0.199205
vt 0.534853 0.190000
vt 0.534853 0.310000
vt 0.242402 1.000000
vt 0.205806 0.995694
vt 0.285144 0.995710
vt 0.555441 0.359706
vt 0.610294 0.432132
vt 0.624477 0.370000
vt 0.098855 1.000000
vt 0.080806 0.995694
vt 0.157881 0.995714
vt 0.000000 0.500000
vt 0.044194 0.504306
vt 0.000000 0.504306
vt 0.955806 0.995694
vt 0.998943 0.995771
vt 0.919194 0.504306
vt 0.839856 0.504290
vt 0.901846 0.500000
vt 0.889921 1.000000
vt 0.830806 0.995694
vt 0.908146 0.995694
vt 0.794194 0.504306
vt 0.716854 0.504306
vt 0.776145 0.500000
vt 0.743898 1.000000
vt 0.705806 0.995694
vt 0.785144 0.995710
vt 0.669194 0.504306
vt 0.592119 0.504287
vt 0.618772 0.500000
vt 0.657881 0.995714
vt 0.535355 0.504306
vt 0.464424 0.504326
vt 0.499996 0.500014
vt 0.455806 0.995694
vt 0.533146 0.995694
vt 0.419194 0.504306
vt 0.341854 0.504306
vt 0.381102 0.500000
vt 0.330806 0.995694
vt 0.410144 0.995710
vt 0.285576 0.504326
vt 0.216854 0.504306
vt 0.250004 0.500014
vt 0.242402 1.000000
vt 0.205806 0.995694
vt 0.282881 0.995713
vt 0.169194 0.504306
vt 0.089856 0.504290
vt 0.131102 0.500000
vt 0.080806 0.995694
vt 0.158145 0.995694
vt 0.018306 0.500000
vt 0.044194 0.504306
vt 0.001057 0.504229
vt 0.955806 0.995694
vt 0.999471 0.995733
vt 0.981694 1.000000
vt 0.919194 0.504306
vt 0.842119 0.504286
vt 0.881102 0.500000
vt 0.868898 1.000000
vt 0.830806 0.995694
vt 0.907881 0.995714
vt 0.785355 0.504306
vt 0.705806 0.504306
vt 0.743898 0.500000
vt 0.705806 0.995694
vt 0.782881 0.995714
vt 0.669194 0.504306
vt 0.592119 0.504286
vt 0.644928 0.500000
vt 0.595159 1.000000
vt 0.580806 0.995694
vt 0.544194 0.504306
vt 0.467119 0.504286
vt 0.486927 0.500000
vt 0.513423 1.000000
vt 0.532881 0.995714
vt 0.419194 0.504306
vt 0.342119 0.504286
vt 0.361577 0.500000
vt 0.330806 0.995694
vt 0.407881 0.995714
vt 0.285576 0.504326
vt 0.214645 0.504306
vt 0.264930 0.500035
vt 0.230072 1.000000
vt 0.205806 0.995694
vt 0.283146 0.995694
vt 0.169194 0.504306
vt 0.091854 0.504306
vt 0.131102 0.500000
vt 0.131102 1.000000
vt 0.089856 0.995710
vt 0.169194 0.995694
vt 0.018306 0.500000
vt 0.044194 0.504306
vt 0.001057 0.504229
vt 1.000000 1.000000
vt 0.919194 0.504306
vt 0.839856 0.504290
vt 0.881102 0.500000
vt 0.888072 1.000000
vt 0.830806 0.995694
vt 0.908146 0.995694
vt 0.756102 0.500000
vt 0.794194 0.504306
vt 0.714645 0.504306
vt 0.742402 1.000000
vt 0.785355 0.995694
vt 0.669194 0.504306
vt 0.591854 0.504306
vt 0.631102 0.500000
vt 0.598855 1.000000
vt 0.580806 0.995694
vt 0.660144 0.995710
vt 0.535355 0.504306
vt 0.464424 0.504326
vt 0.499996 0.500014
vt 0.473154 1.000000
vt 0.455806 0.995694
vt 0.533146 0.995694
vt 0.419194 0.504306
vt 0.339645 0.504306
vt 0.381102 0.500000
vt 0.404841 1.000000
vt 0.342119 0.995714
vt 0.419194 0.995694
vt 0.256102 0.500000
vt 0.294194 0.504306
vt 0.216855 0.504306
vt 0.243898 1.000000
vt 0.205806 0.995694
vt 0.285144 0.995710
vt 0.169194 0.504306
vt 0.092119 0.504286
vt 0.131102 0.500000
vt 0.095159 1.000000
vt 0.080806 0.995694
vt 0.157881 0.995713
vt 0.834853 0.454853
vt 0.831931 0.447798
vt 0.005761 0.604600
vt 0.005784 0.953730
vt 0.000000 0.953730
vt 0.000000 0.604600
vt 0.869216 0.953730
vt 0.869239 0.604600
vt 0.880761 0.604600
vt 0.880784 0.953730
vt 0.954853 0.334853
vt 0.947798 0.331931
vt 0.744216 0.953730
vt 0.744239 0.604600
vt 0.755761 0.604600
vt 0.755784 0.953730
vt 0.954853 0.165147
vt 0.947798 0.168070
vt 0.619216 0.953730
vt 0.619239 0.604600
vt 0.630761 0.604600
vt 0.630784 0.953730
vt 0.834853 0.045147
vt 0.831931 0.052202
vt 0.494216 0.953730
vt 0.494239 0.604600
vt 0.505761 0.604600
vt 0.505784 0.953730
vt 0.665147 0.045147
vt 0.668069 0.052202
vt 0.369216 0.953730
vt 0.369239 0.604600
vt 0.380761 0.604600
vt 0.380784 0.953730
vt 0.545147 0.165147
vt 0.552202 0.168070
vt 0.244216 0.953730
vt 0.244239 0.604600
vt 0.255761 0.604600
vt 0.255784 0.953730
vt 0.545147 0.334853
vt 0.552202 0.331930
vt 0.119216 0.953730
vt 0.119239 0.604600
vt 0.130761 0.604600
vt 0.130784 0.953730
vt 0.665147 0.454853
vt 0.668069 0.447798
vt 1.000000 0.504306
vt 0.955806 0.504306
vt 0.830806 0.504306
vt 0.919194 0.504306
vt 0.705806 0.504306
vt 0.794194 0.504306
vt 0.580806 0.504306
vt 0.669194 0.504306
vt 0.455806 0.504306
vt 0.544194 0.504306
vt 0.330806 0.504306
vt 0.419194 0.504306
vt 0.205806 0.504306
vt 0.294194 0.504306
vt 0.080806 0.504306
vt 0.169194 0.504306
vt 0.044194 0.995694
vt 0.000000 1.000000
vt 0.955238 0.500000
vt 0.044194 0.995694
vt 0.000000 0.995694
vt 0.955806 0.504306
vt 0.981694 0.500000
vt 0.044194 0.995694
vt 0.018306 1.000000
vt 0.955806 0.504306
vt 0.044194 0.995694
vt 0.040269 1.000000
vt 0.937500 0.604600
vt 0.994239 0.604600
vt 0.994216 0.953730
vt 0.062500 0.604600
vt 0.812500 0.604600
vt 0.687500 0.604600
vt 0.562500 0.604600
vt 0.437500 0.604600
vt 0.312500 0.604600
vt 0.187500 0.604600
vt 0.044194 0.504306
vt 0.419706 0.250000
vt 0.348960 0.420796
vt 0.295291 0.444709
vt 0.155592 0.388516
vt 0.097527 0.250000
vt 0.155592 0.111484
vt 0.295291 0.055291
vt 0.348960 0.079204
vt 0.630000 0.370000
vt 0.855655 0.419706
vt 0.419706 0.250000
vt 0.348960 0.420796
vt 0.295291 0.444709
vt 0.914702 0.281189
vt 0.849198 0.121383
vt 0.097527 0.250000
vt 0.155592 0.111484
vt 0.295291 0.055291
vt 0.348960 0.079204
vt 0.630000 0.130000
vt 0.750000 0.080294
vt 0.580293 0.250000
vt 0.630000 0.370000
vt 0.750000 0.419706
vt 0.870000 0.370000
vt 0.419706 0.250000
vt 0.370000 0.370000
vt 0.250000 0.419706
vt 0.088911 0.270802
vt 0.130000 0.370000
vt 0.878617 0.150802
vt 0.919706 0.250000
vt 0.155592 0.111484
vt 0.295291 0.055291
vt 0.348960 0.079204
vt 0.718811 0.085298
vt 0.580294 0.144345
vt 0.559254 0.199204
vt 0.630000 0.370000
vt 0.870000 0.370000
vt 0.344408 0.388516
vt 0.204709 0.444709
vt 0.080294 0.250000
vt 0.151040 0.420796
vt 0.870000 0.130000
vt 0.630000 0.130000
vt 0.919706 0.250000
vt 0.402473 0.250000
vt 0.344408 0.111484
vt 0.750000 0.080294
vt 0.204709 0.055291
vt 0.151040 0.079204
vt 0.580294 0.249999
s 1
usemtl drewnociemne
f 1/1/1 2/2/2 3/3/3
f 4/4/4 5/5/5 6/6/6
f 7/7/7 8/8/8 9/9/9
f 10/10/10 11/11/11 12/12/12
f 13/13/13 14/14/14 15/15/15
f 16/16/16 17/17/17 18/18/18
f 19/19/19 20/20/20 21/21/21
f 22/22/22 23/23/23 24/24/24
f 25/25/25 26/26/26 27/27/27
f 28/28/28 29/29/29 30/30/30
f 31/31/31 32/32/32 33/33/33
f 34/34/34 35/35/35 36/36/36
f 37/37/37 38/38/38 39/39/39
f 40/40/40 41/41/41 42/42/42
f 43/43/43 44/44/44 45/45/45
f 46/46/46 47/47/47 48/48/48
f 65/49/65 66/50/66 67/51/67
f 68/52/68 69/53/69 70/54/70
f 71/55/71 72/56/72 73/57/73
f 74/58/74 75/59/75 76/60/76
f 77/61/77 78/62/78 79/63/79
f 80/64/80 81/65/81 82/66/82
f 83/67/83 84/68/84 85/69/85
f 86/70/86 87/71/87 88/72/88
f 89/73/89 90/74/90 91/75/91
f 92/76/92 93/77/93 94/78/94
f 95/79/95 96/80/96 97/81/97
f 98/82/98 99/83/99 100/84/100
f 101/85/101 102/86/102 103/87/103
f 104/88/104 105/89/105 106/90/106
f 107/91/107 108/92/108 109/93/109
f 110/94/110 111/95/111 112/96/112
f 113/97/113 114/98/114 115/99/115
f 116/100/116 117/101/117 118/54/118
f 119/102/119 120/103/120 121/104/121
f 122/105/122 123/106/123 124/107/124
f 125/108/125 126/109/126 127/110/127
f 128/111/128 129/112/129 130/113/130
f 131/114/131 132/115/132 133/116/133
f 134/70/134 135/71/135 136/117/136
f 137/118/137 138/119/138 139/120/139
f 140/76/140 141/121/141 142/122/142
f 143/123/143 144/124/144 145/125/145
f 146/82/146 147/126/147 148/127/148
f 149/128/149 150/129/150 151/130/151
f 152/131/152 153/132/153 154/133/154
f 155/134/155 156/135/156 157/136/157
f 158/94/158 159/137/159 160/138/160
f 161/139/161 162/140/162 163/141/163
f 164/142/164 165/143/165 166/144/166
f 167/145/167 168/146/168 169/147/169
f 170/148/170 171/149/171 172/150/172
f 173/151/173 174/152/174 175/153/175
f 176/64/176 177/154/177 178/155/178
f 179/156/179 180/157/180 181/158/181
f 182/159/182 183/160/183 184/72/184
f 185/161/185 186/162/186 187/163/187
f 188/164/188 189/77/189 190/165/190
f 191/166/191 192/167/192 193/168/193
f 194/82/194 195/169/195 196/170/196
f 197/171/197 198/172/198 199/173/199
f 200/174/200 201/175/201 202/176/202
f 203/177/203 204/178/204 205/179/205
f 206/180/206 207/181/207 208/182/208
f 209/183/209 210/184/210 211/185/211
f 212/52/212 213/143/213 214/186/214
f 215/187/215 216/188/216 217/189/217
f 218/190/218 219/191/219 220/192/220
f 221/193/221 222/194/222 223/195/223
f 224/196/224 225/154/225 226/197/226
f 227/198/227 228/199/228 229/200/229
f 230/201/230 231/202/231 232/203/232
f 233/204/233 234/205/234 235/206/235
f 236/207/236 237/208/237 238/209/238
f 239/210/239 240/211/240 241/212/241
f 242/213/242 243/214/243 244/215/244
f 245/216/245 246/217/246 247/218/247
f 248/219/248 249/220/249 250/221/250
f 251/222/251 252/223/252 253/224/253
f 254/225/254 255/226/255 256/227/256
f 50/228/50 8/8/8 7/7/7 49/229/49
f 12/12/12 4/4/4 6/6/6 10/10/10
f 3/230/3 5/231/5 4/232/4 1/233/1
f 11/234/11 9/235/9 8/236/8 12/237/12
f 52/238/52 14/14/14 13/13/13 51/239/51
f 18/18/18 11/11/11 10/10/10 16/16/16
f 17/240/17 15/241/15 14/242/14 18/243/18
f 54/244/54 20/20/20 19/19/19 53/245/53
f 24/24/24 17/17/17 16/16/16 22/22/22
f 23/246/23 21/247/21 20/248/20 24/249/24
f 56/250/56 26/26/26 25/25/25 55/251/55
f 30/30/30 23/23/23 22/22/22 28/28/28
f 29/252/29 27/253/27 26/254/26 30/255/30
f 58/256/58 32/32/32 31/31/31 57/257/57
f 36/36/36 29/29/29 28/28/28 34/34/34
f 35/258/35 33/259/33 32/260/32 36/261/36
f 60/262/60 38/38/38 37/37/37 59/263/59
f 42/42/42 35/35/35 34/34/34 40/40/40
f 41/264/41 39/265/39 38/266/38 42/267/42
f 62/268/62 44/44/44 43/43/43 61/269/61
f 48/48/48 41/41/41 40/40/40 46/46/46
f 47/270/47 45/271/45 44/272/44 48/273/48
f 64/274/64 3/3/3 2/2/2 63/275/63
f 5/5/5 47/47/47 46/46/46 6/6/6
f 1/1/1 50/228/50 49/229/49 2/2/2
f 9/9/9 52/238/52 51/239/51 7/7/7
f 15/15/15 54/244/54 53/245/53 13/13/13
f 21/21/21 56/250/56 55/251/55 19/19/19
f 27/27/27 58/256/58 57/257/57 25/25/25
f 33/33/33 60/262/60 59/263/59 31/31/31
f 39/39/39 62/268/62 61/269/61 37/37/37
f 45/45/45 64/274/64 63/275/63 43/43/43
f 67/51/67 71/55/71 73/57/73 65/49/65
f 76/60/76 68/52/68 70/54/70 74/58/74
f 66/276/66 69/53/69 68/52/68 67/277/67
f 75/59/75 72/278/72 71/279/71 76/60/76
f 72/56/72 77/61/77 79/63/79 73/57/73
f 82/66/82 75/59/75 74/58/74 80/64/80
f 81/65/81 78/280/78 77/281/77 82/66/82
f 78/62/78 83/67/83 85/69/85 79/63/79
f 88/72/88 81/65/81 80/64/80 86/70/86
f 87/71/87 84/282/84 83/283/83 88/72/88
f 84/68/84 89/73/89 91/75/91 85/69/85
f 94/78/94 87/71/87 86/70/86 92/76/92
f 93/77/93 90/284/90 89/285/89 94/78/94
f 90/74/90 95/79/95 97/81/97 91/75/91
f 100/84/100 93/77/93 92/76/92 98/82/98
f 99/83/99 96/286/96 95/287/95 100/84/100
f 96/80/96 102/86/102 101/85/101 97/81/97
f 106/90/106 99/83/99 98/82/98 104/88/104
f 105/89/105 103/288/103 102/289/102 106/90/106
f 103/87/103 107/91/107 109/93/109 101/85/101
f 112/96/112 105/89/105 104/88/104 110/94/110
f 111/95/111 108/290/108 107/291/107 112/96/112
f 108/92/108 66/50/66 65/49/65 109/93/109
f 69/292/69 111/95/111 110/94/110 70/293/70
f 115/277/115 119/102/119 121/104/121 113/294/113
f 124/107/124 116/100/116 118/54/118 122/105/122
f 114/98/114 117/295/117 116/296/116 115/99/115
f 123/106/123 120/103/120 119/102/119 124/107/124
f 120/103/120 125/108/125 127/110/127 121/104/121
f 130/113/130 123/106/123 122/105/122 128/111/128
f 129/112/129 126/109/126 125/108/125 130/113/130
f 126/109/126 131/114/131 133/116/133 127/110/127
f 136/117/136 129/112/129 128/111/128 134/70/134
f 135/71/135 132/115/132 131/114/131 136/117/136
f 132/115/132 137/118/137 139/120/139 133/116/133
f 142/122/142 135/71/135 134/70/134 140/76/140
f 141/121/141 138/119/138 137/118/137 142/122/142
f 138/119/138 143/123/143 145/125/145 139/120/139
f 148/127/148 141/121/141 140/76/140 146/82/146
f 147/126/147 144/124/144 143/123/143 148/127/148
f 144/124/144 149/128/149 151/130/151 145/125/145
f 154/133/154 147/126/147 146/82/146 152/131/152
f 153/132/153 150/129/150 149/128/149 154/133/154
f 150/129/150 155/134/155 157/136/157 151/130/151
f 160/138/160 153/132/153 152/131/152 158/94/158
f 159/137/159 156/135/156 155/134/155 160/138/160
f 156/135/156 114/98/114 113/97/113 157/136/157
f 117/295/117 159/137/159 158/94/158 118/293/118
f 163/297/163 167/145/167 169/147/169 161/298/161
f 172/150/172 164/142/164 166/144/166 170/148/170
f 162/276/162 165/143/165 164/142/164 163/297/163
f 171/149/171 168/146/168 167/145/167 172/150/172
f 168/146/168 173/151/173 175/153/175 169/147/169
f 178/155/178 171/149/171 170/148/170 176/64/176
f 177/154/177 174/152/174 173/151/173 178/155/178
f 174/152/174 179/156/179 181/158/181 175/153/175
f 184/72/184 177/154/177 176/64/176 182/159/182
f 183/160/183 180/157/180 179/156/179 184/72/184
f 180/157/180 185/161/185 187/163/187 181/158/181
f 190/165/190 183/160/183 182/159/182 188/164/188
f 189/77/189 186/162/186 185/161/185 190/165/190
f 186/162/186 191/166/191 193/168/193 187/163/187
f 196/170/196 189/77/189 188/164/188 194/82/194
f 195/169/195 192/167/192 191/166/191 196/170/196
f 192/167/192 197/171/197 199/173/199 193/168/193
f 202/176/202 195/169/195 194/82/194 200/174/200
f 201/175/201 198/172/198 197/171/197 202/176/202
f 198/172/198 203/177/203 205/179/205 199/173/199
f 208/182/208 201/175/201 200/174/200 206/180/206
f 207/181/207 204/178/204 203/177/203 208/182/208
f 204/178/204 162/140/162 161/139/161 205/179/205
f 165/299/165 207/181/207 206/180/206 166/300/166
f 211/301/211 215/187/215 217/189/217 209/298/209
f 220/192/220 212/52/212 214/186/214 218/190/218
f 210/276/210 213/143/213 212/52/212 211/301/211
f 219/191/219 216/188/216 215/187/215 220/192/220
f 216/188/216 222/194/222 221/193/221 217/189/217
f 226/197/226 219/191/219 218/190/218 224/196/224
f 225/154/225 223/195/223 222/194/222 226/197/226
f 223/195/223 227/198/227 229/200/229 221/193/221
f 232/203/232 225/154/225 224/196/224 230/201/230
f 231/202/231 228/199/228 227/198/227 232/203/232
f 228/199/228 233/204/233 235/206/235 229/200/229
f 238/209/238 231/202/231 230/201/230 236/207/236
f 237/208/237 234/205/234 233/204/233 238/209/238
f 234/205/234 239/210/239 241/212/241 235/206/235
f 244/215/244 237/208/237 236/207/236 242/213/242
f 243/214/243 240/211/240 239/210/239 244/215/244
f 240/211/240 246/217/246 245/216/245 241/212/241
f 250/221/250 243/214/243 242/213/242 248/219/248
f 249/220/249 247/218/247 246/217/246 250/221/250
f 247/218/247 251/222/251 253/224/253 245/216/245
f 256/227/256 249/220/249 248/219/248 254/225/254
f 255/226/255 252/223/252 251/222/251 256/227/256
f 252/223/252 210/184/210 209/183/209 253/224/253
f 213/302/213 255/226/255 254/225/254 214/303/214
f 50/304/50 1/305/1 4/306/4
f 5/231/5 3/230/3 64/307/64
f 63/275/63 2/2/2 49/229/49
f 16/16/16 10/10/10 6/6/6
f 16/16/16 6/6/6 40/40/40
f 47/270/47 5/231/5 64/307/64
f 4/306/4 12/237/12 50/304/50
f 6/6/6 46/46/46 40/40/40
f 49/229/49 7/7/7 51/239/51
f 12/237/12 8/236/8 50/304/50
f 52/308/52 9/235/9 11/234/11
f 11/234/11 18/243/18 52/308/52
f 51/239/51 13/13/13 53/245/53
f 18/243/18 14/242/14 52/308/52
f 54/309/54 15/241/15 17/240/17
f 17/240/17 24/249/24 54/309/54
f 28/28/28 22/22/22 16/16/16
f 40/40/40 28/28/28 16/16/16
f 53/245/53 19/19/19 55/251/55
f 24/249/24 20/248/20 54/309/54
f 56/310/56 21/247/21 23/246/23
f 23/246/23 30/255/30 56/310/56
f 55/251/55 25/25/25 57/257/57
f 30/255/30 26/254/26 56/310/56
f 58/311/58 27/253/27 29/252/29
f 29/252/29 36/261/36 58/311/58
f 40/40/40 34/34/34 28/28/28
f 57/257/57 31/31/31 59/263/59
f 36/261/36 32/260/32 58/311/58
f 60/312/60 33/259/33 35/258/35
f 35/258/35 42/267/42 60/312/60
f 59/263/59 37/37/37 61/269/61
f 42/267/42 38/266/38 60/312/60
f 62/313/62 39/265/39 41/264/41
f 41/264/41 48/273/48 62/313/62
f 61/269/61 43/43/43 63/275/63
f 48/273/48 44/272/44 62/313/62
f 64/307/64 45/271/45 47/270/47
f 49/229/49 51/239/51 55/251/55
f 63/275/63 49/229/49 55/251/55
f 51/239/51 53/245/53 55/251/55
f 55/251/55 57/257/57 63/275/63
f 57/257/57 59/263/59 63/275/63
f 59/263/59 61/269/61 63/275/63
f 109/93/109 65/49/65 73/57/73
f 68/52/68 71/279/71 67/277/67
f 111/95/111 66/314/66 108/290/108
f 111/95/111 69/292/69 66/314/66
f 80/315/80 74/316/74 70/317/70
f 68/52/68 76/60/76 71/279/71
f 70/317/70 110/318/110 80/315/80
f 75/59/75 77/281/77 72/278/72
f 73/57/73 79/63/79 109/93/109
f 75/59/75 82/66/82 77/281/77
f 81/65/81 83/283/83 78/280/78
f 79/63/79 85/69/85 109/93/109
f 81/65/81 88/72/88 83/283/83
f 110/318/110 104/319/104 80/315/80
f 104/319/104 98/320/98 80/315/80
f 98/320/98 92/321/92 80/315/80
f 92/321/92 86/322/86 80/315/80
f 87/71/87 89/285/89 84/282/84
f 85/69/85 91/75/91 109/93/109
f 87/71/87 94/78/94 89/285/89
f 93/77/93 95/287/95 90/284/90
f 91/75/91 97/81/97 109/93/109
f 93/77/93 100/84/100 95/287/95
f 96/286/96 99/83/99 106/90/106
f 97/81/97 101/85/101 109/93/109
f 96/286/96 106/90/106 102/289/102
f 105/89/105 107/291/107 103/288/103
f 105/89/105 112/96/112 107/291/107
f 157/323/157 113/49/113 121/324/121
f 116/100/116 119/102/119 115/277/115
f 156/135/156 117/295/117 114/98/114
f 128/325/128 122/326/122 118/327/118
f 156/135/156 159/137/159 117/295/117
f 116/100/116 124/107/124 119/102/119
f 118/327/118 158/318/158 128/325/128
f 120/103/120 123/106/123 130/113/130
f 121/324/121 127/328/127 157/323/157
f 120/103/120 130/113/130 125/108/125
f 129/112/129 131/114/131 126/109/126
f 127/328/127 133/329/133 157/323/157
f 129/112/129 136/117/136 131/114/131
f 158/318/158 152/330/152 128/325/128
f 152/330/152 146/331/146 128/325/128
f 146/331/146 140/332/140 128/325/128
f 140/332/140 134/333/134 128/325/128
f 133/329/133 145/334/145 157/323/157
f 135/71/135 137/118/137 132/115/132
f 133/329/133 139/335/139 145/334/145
f 135/71/135 142/122/142 137/118/137
f 138/119/138 148/127/148 143/123/143
f 138/119/138 141/121/141 148/127/148
f 147/126/147 149/128/149 144/124/144
f 145/334/145 151/336/151 157/323/157
f 147/126/147 154/133/154 149/128/149
f 153/132/153 155/134/155 150/129/150
f 153/132/153 160/138/160 155/134/155
f 205/337/205 161/338/161 169/339/169
f 164/142/164 167/145/167 163/297/163
f 207/181/207 162/140/162 204/178/204
f 207/181/207 165/299/165 162/140/162
f 176/340/176 170/341/170 166/342/166
f 176/340/176 166/342/166 200/343/200
f 164/142/164 172/150/172 167/145/167
f 166/342/166 206/344/206 200/343/200
f 205/337/205 169/339/169 181/345/181
f 171/149/171 173/151/173 168/146/168
f 169/339/169 175/346/175 181/345/181
f 171/149/171 178/155/178 173/151/173
f 177/154/177 179/156/179 174/152/174
f 177/154/177 184/72/184 179/156/179
f 200/343/200 194/347/194 176/340/176
f 194/347/194 188/348/188 176/340/176
f 188/348/188 182/349/182 176/340/176
f 183/160/183 185/161/185 180/157/180
f 181/345/181 187/350/187 205/337/205
f 183/160/183 190/165/190 185/161/185
f 189/77/189 191/166/191 186/162/186
f 187/350/187 193/351/193 205/337/205
f 189/77/189 196/170/196 191/166/191
f 195/169/195 197/171/197 192/167/192
f 193/351/193 199/352/199 205/337/205
f 195/169/195 202/176/202 197/171/197
f 198/172/198 208/182/208 203/177/203
f 198/172/198 201/175/201 208/182/208
f 253/353/253 209/338/209 217/354/217
f 212/52/212 215/187/215 211/301/211
f 255/226/255 210/184/210 252/223/252
f 255/226/255 213/302/213 210/184/210
f 218/355/218 214/356/214 248/357/248
f 212/52/212 220/192/220 215/187/215
f 214/356/214 254/358/254 248/357/248
f 217/354/217 229/359/229 241/360/241
f 253/353/253 217/354/217 241/360/241
f 216/188/216 219/191/219 226/197/226
f 217/354/217 221/361/221 229/359/229
f 216/188/216 226/197/226 222/194/222
f 224/362/224 218/355/218 248/357/248
f 223/195/223 232/203/232 227/198/227
f 223/195/223 225/154/225 232/203/232
f 230/363/230 224/362/224 248/357/248
f 231/202/231 233/204/233 228/199/228
f 229/359/229 235/364/235 241/360/241
f 236/365/236 230/363/230 248/357/248
f 231/202/231 238/209/238 233/204/233
f 234/205/234 244/215/244 239/210/239
f 234/205/234 237/208/237 244/215/244
f 248/357/248 242/366/242 236/365/236
f 240/211/240 243/214/243 250/221/250
f 241/360/241 245/367/245 253/353/253
f 240/211/240 250/221/250 246/217/246
f 249/220/249 251/222/251 247/218/247
f 249/220/249 256/227/256 251/222/251
