# Blender 5.1.1
# www.blender.org
mtllib walls.mtl
o walls
v -1.767181 2.507732 3.226854
v -1.767181 -0.028284 3.226854
v -0.417797 2.507732 3.226854
v -0.417797 -0.028285 3.226854
v 2.285160 3.018402 3.361499
v 2.285160 -0.028285 3.361499
v 2.285160 3.018402 -3.361500
v 2.285160 -0.028285 -3.361500
v -2.274759 3.018402 -3.361499
v -2.274759 -0.028285 -3.361499
v -2.274758 3.018402 3.361498
v -2.274758 -0.028285 3.361498
v -3.357270 3.018402 3.229348
v -3.357270 -0.028285 3.229348
v 3.365728 3.018402 3.229347
v 3.365728 -0.028285 3.229347
v 3.365728 3.018402 -3.234163
v 3.365728 -0.028285 -3.234163
v -3.357270 3.018402 -3.234164
v -3.357270 -0.028285 -3.234164
vn -0.0000 -0.0000 -1.0000
vn -1.0000 -0.0000 -0.0000
vn 1.0000 -0.0000 -0.0000
vn -0.0000 -0.0000 1.0000
vt 0.003321 1.000000
vt 0.003321 -0.000000
vt 0.532083 0.000000
vt 0.532083 1.000000
vt -1.267303 1.000000
vt -1.267303 -0.000000
vt 2.267303 0.000000
vt 2.267303 1.000000
vt -0.619623 1.000000
vt -0.619623 -0.000000
vt 1.619623 0.000000
vt 1.619623 1.000000
s 0
usemtl door
f 1/1/1 3/4/1 4/3/1 2/2/1
usemtl walls
f 5/5/2 7/8/2 8/7/2 6/6/2
f 9/9/3 11/12/3 12/11/3 10/10/3
usemtl walls
f 13/5/1 15/8/1 16/7/1 14/6/1
usemtl walls
f 17/5/4 19/8/4 20/7/4 18/6/4
