# Blender 5.1.2
# www.blender.org
mtllib chair.mtl
o Cube.016
v 0.251182 0.588010 0.140013
v 0.251152 -0.230367 0.112147
v -0.250527 0.588010 0.140558
v -0.250557 -0.230367 0.112692
v 0.251231 0.588979 0.185002
v 0.251200 -0.230367 0.157152
v -0.250478 0.588979 0.185547
v -0.250508 -0.230367 0.157697
v -0.247320 -0.214050 0.112689
v 0.247915 -0.214050 0.112151
v 0.247915 -0.231006 0.112151
v -0.247320 -0.231006 0.112689
v -0.247812 -0.214050 -0.339798
v 0.247423 -0.214050 -0.340336
v 0.247423 -0.231006 -0.340336
v -0.247812 -0.231006 -0.339798
v 0.000324 0.585649 0.137160
v 0.000297 -0.230367 0.112420
v 0.000373 0.586489 0.182151
v 0.000346 -0.230367 0.157424
v 0.000297 -0.214050 0.112420
v 0.000297 -0.231006 0.112420
v -0.000194 -0.214050 -0.340067
v -0.000194 -0.231006 -0.340067
v -0.125130 -0.230367 0.112556
v -0.125051 0.588674 0.185027
v -0.123512 -0.231006 0.112554
v -0.124003 -0.231006 -0.339932
v -0.125100 0.587720 0.140039
v -0.125081 -0.230367 0.157561
v -0.123512 -0.214050 0.112554
v -0.124003 -0.214050 -0.339932
v 0.125754 0.587720 0.139766
v 0.125773 -0.230367 0.157288
v 0.124106 -0.214050 0.112285
v 0.123614 -0.214050 -0.340201
v 0.125724 -0.230367 0.112284
v 0.125803 0.588674 0.184755
v 0.124106 -0.231006 0.112285
v 0.123614 -0.231006 -0.340201
v 0.188468 0.588010 0.140082
v 0.188487 -0.230367 0.157220
v 0.186010 -0.214050 0.112218
v 0.185519 -0.214050 -0.340269
v 0.188438 -0.230367 0.112216
v 0.188517 0.588979 0.185070
v 0.186010 -0.231006 0.112218
v 0.185519 -0.231006 -0.340269
v -0.187844 -0.230367 0.112624
v -0.187765 0.588979 0.185478
v -0.185416 -0.231006 0.112621
v -0.185907 -0.231006 -0.339865
v -0.187813 0.588010 0.140490
v -0.187795 -0.230367 0.157629
v -0.185416 -0.214050 0.112621
v -0.185907 -0.214050 -0.339865
v 0.247669 -0.214050 -0.114092
v -0.247566 -0.214050 -0.113555
v -0.247566 -0.231006 -0.113555
v 0.247669 -0.231006 -0.114092
v 0.247546 -0.214050 -0.227214
v 0.247546 -0.231006 -0.227214
v -0.247689 -0.214050 -0.226676
v -0.247689 -0.231006 -0.226676
v 0.247485 -0.214050 -0.283775
v 0.247485 -0.231006 -0.283775
v 0.185580 -0.231006 -0.283708
v -0.185846 -0.231006 -0.283304
v -0.247750 -0.214050 -0.283237
v -0.247750 -0.231006 -0.283237
v -0.187844 -0.679812 0.112624
v -0.250557 -0.679812 0.112692
v -0.250508 -0.679812 0.157697
v 0.188487 -0.679812 0.157220
v 0.251200 -0.679812 0.157152
v 0.251152 -0.679812 0.112147
v -0.185907 -0.680451 -0.339865
v -0.247812 -0.680451 -0.339798
v 0.247485 -0.680451 -0.283775
v 0.247423 -0.680451 -0.340336
v 0.188438 -0.679812 0.112216
v 0.185519 -0.680451 -0.340269
v 0.185580 -0.680451 -0.283708
v -0.187795 -0.679812 0.157629
v -0.185846 -0.680451 -0.283304
v -0.247750 -0.680451 -0.283237
v 0.191126 -0.028390 0.159314
v 0.188518 0.560595 0.185759
v 0.188489 -0.028390 0.159318
v 0.191155 0.560595 0.185755
v 0.191106 0.559636 0.140767
v 0.191077 -0.028382 0.114338
v 0.188381 0.559636 0.140771
v 0.186585 -0.028382 0.114343
v 0.000325 0.557306 0.137769
v 0.000299 -0.028786 0.113844
v -0.119128 0.559299 0.140640
v -0.037878 0.558112 0.138919
v -0.037905 -0.028646 0.114121
v -0.125041 0.559354 0.140722
v -0.119157 -0.028439 0.114572
v -0.123891 -0.028432 0.114590
v -0.037857 -0.028659 0.159099
v -0.125050 0.560297 0.185711
v -0.125079 -0.028439 0.159572
v -0.119108 -0.028449 0.159548
v 0.000348 -0.028799 0.158824
v -0.119080 0.560239 0.185629
v -0.037830 0.558987 0.183909
v 0.000374 0.558137 0.182761
v -0.187764 0.560595 0.186168
v -0.187792 -0.028390 0.159726
v -0.187725 0.559636 0.141179
v -0.185986 -0.028382 0.114748
v 0.125696 0.559354 0.140450
v 0.117240 0.559274 0.140349
v 0.035987 0.558063 0.138771
v 0.117212 -0.028444 0.114307
v 0.124490 -0.028432 0.114321
v 0.035960 -0.028655 0.114026
v 0.036009 -0.028667 0.159005
v 0.125804 0.560297 0.185439
v 0.117289 0.560213 0.185338
v 0.125775 -0.028439 0.159299
v 0.036036 0.558935 0.183762
v 0.117261 -0.028453 0.159284
v -0.192993 0.559634 0.141182
v -0.193022 -0.028382 0.114755
v -0.192944 0.560593 0.186171
v -0.192973 -0.028390 0.159731
v -0.250527 0.602525 0.140104
v -0.244622 0.617778 0.144336
v -0.244583 0.618544 0.179829
v -0.250479 0.603496 0.185092
v 0.245324 0.618544 0.179297
v 0.251230 0.603496 0.184548
v 0.188517 0.603496 0.184616
v 0.194412 0.618544 0.179352
v 0.245285 0.617778 0.143804
v 0.251181 0.602525 0.139559
v 0.188468 0.602525 0.139628
v 0.194373 0.617778 0.143860
v -0.187765 0.603496 0.185024
v -0.193671 0.618544 0.179774
v -0.193710 0.617778 0.144281
v -0.187814 0.602525 0.140036
vn 0.7109 -0.0023 -0.7033
vn 0.7063 0.0015 -0.7079
vn -0.7123 -0.0025 -0.7019
vn -0.7078 0.0015 -0.7064
vn 0.7036 0.0023 0.7106
vn 0.7091 -0.0052 0.7051
vn -0.7022 0.0026 0.7120
vn -0.7076 -0.0051 0.7066
vn -0.3891 0.3146 -0.8658
vn 0.3872 0.3146 -0.8667
vn 0.5780 -0.5774 0.5767
vn -0.5767 -0.5773 0.5780
vn -0.5780 0.5774 -0.5767
vn 0.5767 0.5774 -0.5780
vn 0.7063 -0.0000 -0.7079
vn -0.7079 -0.0000 -0.7063
vn -0.0008 0.6825 -0.7309
vn 0.0008 -0.7071 0.7071
vn 0.0008 0.7239 0.6899
vn 0.0008 -0.7099 0.7043
vn -0.0008 0.7102 -0.7040
vn -0.0008 0.7071 -0.7071
vn -0.0008 -0.7071 -0.7071
vn 0.0175 0.7229 0.6907
vn -0.0024 0.6937 -0.7202
vn 0.0012 -0.7104 0.7038
vn -0.0012 0.7107 -0.7035
vn 0.0008 0.6937 -0.7203
vn 0.0004 -0.7104 0.7038
vn -0.0003 0.7107 -0.7035
vn 0.0008 -0.7070 0.7072
vn -0.0160 0.7230 0.6907
vn 0.0008 -0.7071 0.7072
vn -0.3043 0.2790 -0.9108
vn -0.3001 -0.3071 0.9031
vn -0.0007 0.7111 -0.7031
vn -0.5767 -0.5774 0.5779
vn -0.3018 0.3241 0.8966
vn -0.3025 -0.3015 -0.9042
vn 0.3037 0.3241 0.8960
vn 0.3005 -0.3015 -0.9049
vn 0.3024 0.2790 -0.9114
vn 0.3020 -0.3071 0.9025
vn -0.0009 0.7111 -0.7031
vn 0.7071 0.7071 -0.0008
vn -0.7071 0.7071 0.0008
vn -0.7071 -0.7071 0.0008
vn 0.7071 -0.7071 -0.0008
vn 0.9049 -0.3015 0.3005
vn -0.3012 -0.9045 0.3018
vn 0.3018 -0.9045 0.3012
vn -0.9042 -0.3015 0.3025
vn 0.5767 -0.5773 -0.5780
vn -0.5780 -0.5774 -0.5767
vn 0.5767 -0.5774 -0.5780
vn -0.5767 -0.5774 0.5780
vn -0.3476 0.2769 0.8958
vn 0.0002 -0.6895 0.7243
vn 0.0001 0.7033 0.7109
vn -0.2755 -0.3065 0.9111
vn -0.3280 -0.2967 -0.8969
vn -0.2571 0.3271 -0.9093
vn 0.0029 -0.7232 -0.6906
vn -0.0006 0.7115 -0.7027
vn -0.0007 -0.7192 -0.6948
vn -0.0008 0.7077 -0.7065
vn -0.3333 -0.3003 -0.8937
vn 0.2871 -0.3121 -0.9056
vn 0.2892 0.3203 -0.9021
vn -0.0123 -0.7230 -0.6907
vn -0.2962 0.3190 -0.9003
vn -0.0013 0.7114 -0.7028
vn 0.3163 0.2833 0.9054
vn 0.0027 -0.6897 0.7241
vn 0.0030 0.7034 0.7108
vn -0.3058 0.2844 0.9086
vn 0.0008 0.7051 0.7091
vn -0.2758 -0.3032 0.9121
vn 0.3022 -0.2901 0.9080
vn 0.0008 -0.7044 0.7098
vn 0.0013 -0.6895 0.7243
vn 0.0015 0.7033 0.7109
vn -0.0042 -0.7232 -0.6906
vn -0.0010 0.7115 -0.7027
vn 0.0110 -0.7230 -0.6907
vn 0.3318 -0.3005 -0.8942
vn -0.2888 -0.3120 -0.9051
vn 0.2943 0.3190 -0.9009
vn -0.0002 0.7114 -0.7028
vn -0.2911 0.3203 -0.9015
vn -0.3144 0.2833 0.9060
vn -0.0012 -0.6896 0.7242
vn 0.2775 -0.3030 0.9117
vn -0.0015 0.7034 0.7108
vn -0.3004 -0.2902 0.9086
vn 0.3077 0.2844 0.9080
vn 0.3268 -0.2964 -0.8974
vn 0.2532 0.3274 -0.9103
vn 0.2768 -0.3069 0.9106
vn 0.3514 0.2768 0.8944
vn -0.6978 0.1878 -0.6912
vn -0.4570 0.7318 -0.5056
vn -0.4566 0.7580 0.4658
vn -0.6952 0.2294 0.6812
vn 0.4577 0.7580 0.4648
vn 0.6967 0.2294 0.6797
vn 0.4559 0.7318 -0.5066
vn 0.6963 0.1878 -0.6928
vn 0.4576 0.7580 0.4648
vn 0.4559 0.7318 -0.5065
vt 2.478092 0.829707
vt 2.436616 0.829214
vt 2.479784 0.829214
vt 0.380434 1.459714
vt 0.368483 0.829707
vt 0.349062 1.460460
vt 2.757689 0.985194
vt 2.798899 0.829707
vt 2.807981 1.460460
vt 0.532090 0.829707
vt 0.544042 1.459714
vt 0.512669 1.460460
vt 2.755166 0.829707
vt 2.798899 0.483712
vt 2.743022 0.985200
vt 2.751641 1.437871
vt 2.793310 1.459714
vt 2.434359 0.829707
vt 2.436616 0.842268
vt 2.784223 0.829707
vt 2.781966 0.842268
vt 0.543023 0.829707
vt 0.511639 0.483712
vt 0.511639 0.829707
vt 2.591277 1.436698
vt 2.583190 0.984996
vt 2.526648 0.985156
vt 2.605948 1.437372
vt 2.549820 1.438335
vt 2.541315 0.985149
vt 2.609291 0.829707
vt 2.695628 0.829214
vt 2.696757 0.829707
vt 2.502074 1.438610
vt 2.545458 1.460225
vt 2.501849 1.460460
vt 2.537157 0.985156
vt 2.492768 0.829707
vt 2.536501 0.829707
vt 2.487464 1.437871
vt 2.530787 1.459491
vt 2.531050 1.437654
vt 2.479784 0.842268
vt 2.523351 0.985161
vt 2.522953 0.842268
vt 2.522953 0.829214
vt 2.609291 0.829214
vt 2.738797 0.829214
vt 2.740490 0.829707
vt 2.642765 1.436660
vt 2.699968 1.437593
vt 2.691476 0.985152
vt 2.657436 1.437332
vt 2.649363 0.984980
vt 2.706143 0.985145
vt 2.332229 0.829214
vt 2.289060 0.483220
vt 2.289060 0.829214
vt 0.637577 0.829214
vt 0.558692 0.829214
vt 0.558692 0.842268
vt 2.781966 0.829214
vt 2.749741 1.437871
vt 2.705719 1.459491
vt 2.749577 1.459714
vt 2.696558 0.985161
vt 2.738797 0.842268
vt 2.695628 0.842268
vt 2.708188 0.720188
vt 2.609291 0.481670
vt 2.461735 0.797210
vt 2.720390 1.460225
vt 2.764472 1.438610
vt 2.764248 1.460460
vt 2.712089 0.985156
vt 2.711433 0.829707
vt 2.475172 0.985200
vt 2.443446 1.459714
vt 0.716462 0.829214
vt 0.677019 0.483220
vt 0.677019 0.829214
vt 2.489839 0.985194
vt 2.498461 1.438608
vt 2.458117 1.460460
vt 2.521825 0.829707
vt 2.530787 0.421604
vt 2.487179 0.400885
vt 2.545458 0.390231
vt 2.536501 0.409385
vt 2.492768 0.388934
vt 2.478092 0.420318
vt 0.799073 0.842268
vt 0.720188 0.842268
vt 0.720188 0.829214
vt 2.740490 0.543023
vt 2.798899 0.532090
vt 2.755166 0.511639
vt 2.350673 0.697206
vt 2.289060 0.716462
vt 2.332229 0.736649
vt 2.609686 0.818328
vt 2.634410 0.877958
vt 2.652854 0.838516
vt 2.434359 0.399867
vt 2.449035 0.368483
vt 2.449035 0.829707
vt 2.492768 0.483712
vt 0.697206 0.829214
vt 0.736649 0.483220
vt 0.736649 0.829214
vt 2.634410 0.829214
vt 2.591241 0.483220
vt 2.591241 0.829214
vt 2.434359 0.483712
vt 0.857771 0.829214
vt 0.818328 0.483220
vt 0.818328 0.829214
vt 2.307504 0.829214
vt 2.350673 0.483220
vt 2.350673 0.829214
vt 2.609686 0.829214
vt 2.652854 0.483220
vt 2.652854 0.829214
vt 0.563474 0.483712
vt 0.563474 0.829707
vt 0.838516 0.829214
vt 0.877958 0.483220
vt 0.877958 0.829214
vt 0.399867 0.829707
vt 0.368483 0.483712
vt 0.388934 0.829707
vt 0.420318 0.483712
vt 0.420318 0.829707
vt 2.740490 0.483712
vt 0.511037 0.985194
vt 0.523971 1.437871
vt 0.542401 0.985200
vt 0.487027 0.985145
vt 0.500231 1.437593
vt 0.468858 1.438315
vt 2.755850 0.510177
vt 2.743022 0.542401
vt 2.739890 0.540936
vt 2.720613 0.471558
vt 2.705901 0.502912
vt 2.749741 0.523082
vt 0.460787 0.984980
vt 0.474896 1.436660
vt 0.492152 0.984990
vt 0.436689 0.984987
vt 0.450762 1.436698
vt 0.419388 1.437372
vt 2.609755 0.480677
vt 2.583190 0.468055
vt 2.624423 0.449310
vt 2.632229 0.432618
vt 2.591277 0.450762
vt 2.617557 0.463993
vt 0.409941 0.985149
vt 0.423127 1.437612
vt 0.441306 0.985156
vt 0.385782 0.985194
vt 0.398717 1.437870
vt 0.367345 1.438608
vt 2.523351 0.439752
vt 2.480078 0.419440
vt 2.537157 0.407982
vt 2.502074 0.369032
vt 2.483790 0.398717
vt 2.487464 0.400433
vt 0.380751 1.470889
vt 0.354969 1.483220
vt 0.379720 1.482631
vt 2.802003 1.483220
vt 2.764100 1.471636
vt 2.807833 1.471636
vt 0.544358 1.470889
vt 0.514728 1.483220
vt 0.512986 1.471636
vt 0.523907 1.470889
vt 0.498125 1.483220
vt 0.522876 1.482631
vt 2.793162 1.470889
vt 2.754926 1.482631
vt 2.790429 1.482631
vt 0.371571 1.483220
vt 0.401202 1.470889
vt 0.396322 1.482631
vt 2.443298 1.470889
vt 2.484298 1.482631
vt 2.487031 1.470889
vt 2.460369 1.483220
vt 2.501701 1.471636
vt 2.495872 1.483220
vt 2.460369 0.354969
vt 2.484298 0.396322
vt 2.448795 0.379720
vt 2.487179 1.459714
vt 0.349379 1.471636
vt 2.457968 1.471636
vt 2.766500 0.498125
vt 2.790429 0.539478
vt 2.754926 0.522876
vt 0.492535 1.471636
vt 0.523591 1.459714
vt 0.492218 1.460460
vt 2.749429 1.470889
vt 0.400885 1.459714
vt 0.369830 1.471636
vt 0.369513 1.460460
vt 2.695628 0.522044
vt 2.548072 0.842268
vt 2.591241 0.842268
vt 2.766311 1.438609
vt 2.755850 0.985194
vt 2.755166 0.483712
vt 2.739890 0.985200
vt 0.543023 0.483712
vt 2.617358 1.457896
vt 2.617557 1.436078
vt 2.609755 0.984889
vt 2.609291 0.842268
vt 2.535149 1.437612
vt 2.545681 1.438380
vt 2.632030 1.458543
vt 2.597858 0.984987
vt 2.623967 0.829707
vt 2.632229 1.436717
vt 2.624423 0.984878
vt 2.493452 0.985194
vt 2.480078 0.985200
vt 2.705901 1.437654
vt 2.634695 0.984990
vt 2.714639 1.438315
vt 2.720613 1.438380
vt 2.332229 0.483220
vt 0.677019 0.842268
vt 0.716462 0.842268
vt 0.637577 0.842268
vt 0.400922 0.829214
vt 0.400922 0.842268
vt 2.548072 0.837584
vt 2.591241 0.857771
vt 2.671299 0.799073
vt 2.375397 0.756836
vt 2.325949 0.637577
vt 2.307504 0.677019
vt 2.781966 0.562418
vt 2.738797 0.542231
vt 2.362838 0.558692
vt 2.479784 0.421109
vt 2.436616 0.400922
vt 2.522953 0.441296
vt 2.483790 1.437870
vt 0.716462 0.483220
vt 2.501849 0.369513
vt 2.632030 0.433043
vt 2.720390 0.472035
vt 2.705719 0.503407
vt 2.764248 0.492218
vt 2.749577 0.523591
vt 2.617358 0.464418
vt 2.521825 0.440768
vt 2.623967 0.450287
vt 2.696757 0.522572
vt 2.711433 0.491188
vt 0.877958 0.842268
vt 0.838516 0.842268
vt 0.799073 0.829214
vt 0.562418 0.842268
vt 0.562418 0.829214
vt 2.784223 0.563474
vt 2.449035 0.483712
vt 0.697206 0.483220
vt 2.634410 0.483220
vt 2.478092 0.483712
vt 0.857771 0.483220
vt 2.307504 0.483220
vt 2.609686 0.483220
vt 0.532090 0.483712
vt 0.838516 0.483220
vt 0.399867 0.483712
vt 0.388934 0.483712
vt 2.784223 0.483712
vt 0.492598 1.438609
vt 0.518391 0.985152
vt 2.696558 0.520749
vt 2.691476 0.518391
vt 2.706143 0.487027
vt 2.712089 0.489786
vt 2.757689 0.511037
vt 2.766311 0.492598
vt 2.764472 0.491738
vt 2.751641 0.523971
vt 2.714639 0.468858
vt 2.699968 0.500231
vt 0.443522 1.437332
vt 0.468055 0.984996
vt 2.597858 0.436689
vt 2.649363 0.460787
vt 2.634695 0.492152
vt 2.642765 0.474896
vt 2.657436 0.443522
vt 2.605948 0.419388
vt 0.391754 1.438335
vt 0.417146 0.985200
vt 2.475172 0.417146
vt 2.493452 0.387471
vt 2.489839 0.385782
vt 2.541315 0.409941
vt 2.526648 0.441306
vt 2.531050 0.421146
vt 2.535149 0.423127
vt 2.549820 0.391754
vt 2.545681 0.389754
vt 2.498461 0.367345
vt 2.766500 1.483220
vt 0.539478 1.482631
vt 2.448795 1.482631
vt 2.495872 0.371571
vt 2.802003 0.514728
vt 2.289060 0.842268
vt 2.332229 0.842268
vt 2.375397 0.829214
vt 2.375397 0.842268
vt 2.461735 0.829214
vt 2.461735 0.842268
vt 2.548072 0.829214
vt 2.634410 0.842268
s 1
usemtl drewno.008
f 49/1/11 12/2/12 51/3/18
f 3/4/3 8/5/8 7/6/7
f 87/7/57 6/8/6 5/9/5
f 6/10/6 1/11/1 5/12/5
f 42/13/35 75/14/11 6/8/6
f 92/15/62 91/16/61 1/17/1
f 4/18/4 9/19/9 12/2/12
f 2/20/2 10/21/10 1/17/1
f 45/22/37 74/23/12 42/24/35
f 98/25/68 99/26/69 101/27/71
f 109/28/79 108/29/78 106/30/76
f 18/31/18 39/32/33 37/33/31
f 111/34/81 26/35/24 50/36/40
f 105/37/75 54/38/43 30/39/26
f 113/40/83 29/41/25 100/42/70
f 55/43/44 102/44/72 31/45/27
f 18/31/18 27/46/18 22/47/18
f 37/33/31 47/48/18 45/49/37
f 117/50/87 116/51/86 118/52/88
f 125/53/95 121/54/91 126/55/96
f 52/56/41 78/57/54 16/58/16
f 64/59/47 59/60/47 58/61/46
f 45/49/37 11/62/11 2/20/2
f 93/63/63 33/64/28 41/65/34
f 119/66/89 43/67/36 35/68/30
f 60/69/48 22/70/18 24/71/23
f 38/72/32 88/73/58 46/74/38
f 42/13/35 124/75/94 34/76/29
f 128/77/98 9/19/9 3/78/3
f 16/79/16 86/80/12 70/81/52
f 130/82/100 129/83/99 7/84/7
f 25/85/18 51/3/18 27/46/18
f 29/86/25 53/87/42 26/88/24
f 30/89/26 54/90/43 49/91/11
f 61/92/45 57/93/45 60/94/48
f 81/95/54 75/96/11 74/97/12
f 85/98/11 78/99/54 77/100/53
f 83/101/56 80/102/55 79/103/11
f 72/104/54 84/90/11 73/105/12
f 8/106/8 84/107/11 54/38/43
f 68/108/51 77/109/53 52/110/41
f 15/111/15 82/112/54 48/113/39
f 49/1/11 72/114/54 4/18/4
f 48/115/39 83/116/56 67/117/50
f 70/118/52 85/119/11 68/120/51
f 67/121/50 79/122/11 66/123/49
f 6/10/6 76/124/53 2/125/2
f 66/126/49 80/127/55 15/128/15
f 4/129/4 73/130/12 8/5/8
f 54/131/43 71/132/53 49/133/11
f 2/20/2 81/134/54 45/49/37
f 87/135/57 91/136/61 92/137/62
f 126/138/96 116/139/86 123/140/93
f 89/141/59 92/142/62 94/143/64
f 122/144/92 115/145/85 93/146/63
f 121/147/91 117/148/87 120/149/90
f 103/150/73 98/151/68 109/152/79
f 96/153/66 99/154/69 107/155/77
f 110/156/80 98/157/68 95/158/65
f 106/159/76 97/160/67 101/161/71
f 130/162/100 127/163/97 129/164/99
f 102/165/72 114/166/84 105/167/75
f 111/168/81 127/169/97 113/170/83
f 131/171/101 133/172/103 132/173/102
f 135/174/105 137/175/104 136/176/106
f 140/177/108 135/178/105 136/179/106
f 141/180/101 138/181/103 142/182/102
f 140/183/108 142/184/102 139/185/107
f 144/186/109 146/187/108 145/188/110
f 131/189/101 145/190/110 146/191/108
f 133/192/103 143/193/106 144/194/109
f 133/195/103 145/196/110 132/197/102
f 3/78/3 146/191/108 53/198/42
f 134/199/104 3/4/3 7/6/7
f 50/36/40 134/200/104 7/84/7
f 5/9/5 137/175/104 46/74/38
f 138/201/103 139/202/107 142/203/102
f 1/11/1 136/179/106 5/12/5
f 137/204/104 41/205/34 46/206/38
f 141/207/101 1/17/1 41/65/34
f 53/208/42 143/209/106 50/210/40
f 21/70/21 35/211/30 57/69/45
f 36/212/22 44/213/22 48/113/39
f 49/1/11 4/18/4 12/2/12
f 3/4/3 4/129/4 8/5/8
f 46/74/38 88/73/58 90/214/60
f 87/7/57 89/215/59 42/13/35
f 5/9/5 46/74/38 90/214/60
f 87/7/57 42/13/35 6/8/6
f 5/9/5 90/214/60 87/7/57
f 6/10/6 2/125/2 1/11/1
f 42/13/35 74/216/12 75/14/11
f 43/67/36 94/217/64 92/15/62
f 91/16/61 93/63/63 41/65/34
f 10/21/10 43/67/36 92/15/62
f 91/16/61 41/65/34 1/17/1
f 10/21/10 92/15/62 1/17/1
f 4/18/4 3/78/3 9/19/9
f 2/20/2 11/62/11 10/21/10
f 45/22/37 81/218/54 74/23/12
f 17/219/17 95/220/65 98/25/68
f 99/26/69 96/221/66 21/222/21
f 29/41/25 17/219/17 98/25/68
f 99/26/69 21/222/21 31/45/27
f 97/223/67 100/42/70 29/41/25
f 31/45/27 102/44/72 101/27/71
f 97/223/67 29/41/25 98/25/68
f 99/26/69 31/45/27 101/27/71
f 101/27/71 97/223/67 98/25/68
f 26/35/24 104/224/74 108/29/78
f 106/30/76 105/37/75 30/39/26
f 19/225/19 26/35/24 109/28/79
f 26/35/24 108/29/78 109/28/79
f 106/30/76 30/39/26 103/226/73
f 30/39/26 20/227/20 103/226/73
f 109/28/79 110/228/80 19/225/19
f 20/227/20 107/229/77 103/226/73
f 103/226/73 109/28/79 106/30/76
f 18/31/18 22/47/18 39/32/33
f 111/34/81 104/224/74 26/35/24
f 105/37/75 112/230/82 54/38/43
f 113/40/83 53/198/42 29/41/25
f 55/43/44 114/231/84 102/44/72
f 18/31/18 25/85/18 27/46/18
f 37/33/31 39/32/33 47/48/18
f 33/64/28 115/232/85 116/51/86
f 118/52/88 119/66/89 35/68/30
f 17/219/17 33/64/28 117/50/87
f 33/64/28 116/51/86 117/50/87
f 118/52/88 35/68/30 120/233/90
f 35/68/30 21/222/21 120/233/90
f 117/50/87 95/220/65 17/219/17
f 21/222/21 96/221/66 120/233/90
f 120/233/90 117/50/87 118/52/88
f 19/225/19 110/228/80 125/53/95
f 121/54/91 107/229/77 20/227/20
f 38/72/32 19/225/19 125/53/95
f 121/54/91 20/227/20 34/76/29
f 123/234/93 122/235/92 38/72/32
f 34/76/29 124/75/94 126/55/96
f 123/234/93 38/72/32 125/53/95
f 121/54/91 34/76/29 126/55/96
f 126/55/96 123/234/93 125/53/95
f 52/56/41 77/236/53 78/57/54
f 69/237/46 13/238/13 16/79/16
f 69/237/46 16/79/16 70/81/52
f 63/239/46 69/237/46 70/81/52
f 63/239/46 70/81/52 64/59/47
f 12/240/12 9/241/9 58/61/46
f 58/61/46 63/239/46 64/59/47
f 59/60/47 12/240/12 58/61/46
f 45/49/37 47/48/18 11/62/11
f 93/63/63 115/232/85 33/64/28
f 119/66/89 94/217/64 43/67/36
f 24/71/23 40/242/23 67/101/50
f 40/242/23 48/243/39 67/101/50
f 67/101/50 66/103/49 62/244/48
f 52/100/41 28/245/23 68/98/51
f 28/245/23 24/71/23 68/98/51
f 64/246/47 70/247/52 68/98/51
f 24/71/23 67/101/50 60/69/48
f 67/101/50 62/244/48 60/69/48
f 60/69/48 11/248/11 47/249/18
f 47/249/18 39/211/33 60/69/48
f 39/211/33 22/70/18 60/69/48
f 68/98/51 24/71/23 59/250/47
f 59/250/47 24/71/23 22/70/18
f 59/250/47 64/246/47 68/98/51
f 51/251/18 12/252/12 59/250/47
f 22/70/18 27/253/18 59/250/47
f 27/253/18 51/251/18 59/250/47
f 38/72/32 122/235/92 88/73/58
f 42/13/35 89/215/59 124/75/94
f 53/198/42 113/40/83 127/254/97
f 128/77/98 114/231/84 55/43/44
f 3/78/3 53/198/42 127/254/97
f 128/77/98 55/43/44 9/19/9
f 3/78/3 127/254/97 128/77/98
f 16/79/16 78/255/54 86/80/12
f 8/106/8 54/38/43 130/82/100
f 54/38/43 112/230/82 130/82/100
f 111/34/81 50/36/40 129/83/99
f 50/36/40 7/84/7 129/83/99
f 8/106/8 130/82/100 7/84/7
f 25/85/18 49/1/11 51/3/18
f 50/256/40 26/88/24 53/87/42
f 26/88/24 19/257/19 29/86/25
f 19/257/19 38/258/32 33/259/28
f 38/258/32 46/260/38 41/261/34
f 33/259/28 38/258/32 41/261/34
f 33/259/28 17/262/17 19/257/19
f 17/262/17 29/86/25 19/257/19
f 49/91/11 25/263/18 30/89/26
f 25/263/18 18/70/18 20/264/20
f 18/70/18 37/265/31 20/264/20
f 37/265/31 45/95/37 34/266/29
f 20/264/20 37/265/31 34/266/29
f 45/95/37 42/97/35 34/266/29
f 20/264/20 30/89/26 25/263/18
f 66/126/49 15/128/15 14/267/14
f 66/126/49 14/267/14 65/268/45
f 62/269/48 66/126/49 65/268/45
f 62/269/48 65/268/45 61/92/45
f 10/270/10 11/271/11 60/94/48
f 60/94/48 62/269/48 61/92/45
f 57/93/45 10/270/10 60/94/48
f 81/95/54 76/272/53 75/96/11
f 85/98/11 86/247/12 78/99/54
f 83/101/56 82/243/54 80/102/55
f 72/104/54 71/91/53 84/90/11
f 8/106/8 73/273/12 84/107/11
f 68/108/51 85/274/11 77/109/53
f 15/111/15 80/275/55 82/112/54
f 49/1/11 71/276/53 72/114/54
f 48/115/39 82/277/54 83/116/56
f 70/118/52 86/278/12 85/119/11
f 67/121/50 83/279/56 79/122/11
f 6/10/6 75/280/11 76/124/53
f 66/126/49 79/281/11 80/127/55
f 4/129/4 72/282/54 73/130/12
f 54/131/43 84/283/11 71/132/53
f 2/20/2 76/284/53 81/134/54
f 87/135/57 90/285/60 91/136/61
f 126/138/96 118/286/88 116/139/86
f 119/287/89 118/288/88 126/289/96
f 126/289/96 124/290/94 119/287/89
f 124/290/94 89/141/59 94/143/64
f 89/141/59 87/291/57 92/142/62
f 94/143/64 119/287/89 124/290/94
f 90/292/60 88/293/58 91/294/61
f 88/293/58 122/144/92 93/146/63
f 91/294/61 88/293/58 93/146/63
f 122/144/92 123/295/93 115/145/85
f 123/295/93 116/296/86 115/145/85
f 121/147/91 125/297/95 117/148/87
f 103/150/73 99/298/69 98/151/68
f 99/154/69 103/299/73 107/155/77
f 107/155/77 121/300/91 120/301/90
f 120/301/90 96/153/66 107/155/77
f 95/158/65 117/302/87 110/156/80
f 117/302/87 125/303/95 110/156/80
f 110/156/80 109/304/79 98/157/68
f 106/159/76 108/305/78 97/160/67
f 130/162/100 128/306/98 127/163/97
f 114/166/84 128/307/98 112/308/82
f 128/307/98 130/309/100 112/308/82
f 112/308/82 105/167/75 114/166/84
f 105/167/75 106/310/76 102/165/72
f 106/310/76 101/311/71 102/165/72
f 100/312/70 97/313/67 108/314/78
f 108/314/78 104/315/74 100/312/70
f 104/315/74 111/168/81 113/170/83
f 111/168/81 129/316/99 127/169/97
f 113/170/83 100/312/70 104/315/74
f 131/171/101 134/199/104 133/172/103
f 135/174/105 138/317/103 137/175/104
f 140/177/108 139/318/107 135/178/105
f 141/180/101 137/204/104 138/181/103
f 140/183/108 141/207/101 142/184/102
f 144/186/109 143/209/106 146/187/108
f 131/189/101 132/319/102 145/190/110
f 133/192/103 134/200/104 143/193/106
f 133/195/103 144/320/109 145/196/110
f 3/78/3 131/189/101 146/191/108
f 134/199/104 131/171/101 3/4/3
f 50/36/40 143/193/106 134/200/104
f 5/9/5 136/176/106 137/175/104
f 138/201/103 135/321/105 139/202/107
f 1/11/1 140/177/108 136/179/106
f 137/204/104 141/180/101 41/205/34
f 141/207/101 140/183/108 1/17/1
f 53/208/42 146/187/108 143/209/106
f 61/244/45 65/103/45 44/243/22
f 65/103/45 14/102/14 44/243/22
f 44/243/22 36/242/22 61/244/45
f 23/71/22 32/245/22 58/250/46
f 32/245/22 56/100/22 63/246/46
f 36/242/22 23/71/22 57/69/45
f 61/244/45 36/242/22 57/69/45
f 10/248/10 57/69/45 43/249/36
f 32/245/22 63/246/46 58/250/46
f 56/100/22 13/99/13 69/247/46
f 63/246/46 56/100/22 69/247/46
f 58/250/46 9/252/9 55/251/44
f 55/251/44 31/253/27 58/250/46
f 31/253/27 21/70/21 58/250/46
f 23/71/22 58/250/46 21/70/21
f 57/69/45 23/71/22 21/70/21
f 43/249/36 57/69/45 35/211/30
f 52/56/41 16/58/16 13/322/13
f 52/56/41 13/322/13 56/323/22
f 28/324/23 52/56/41 56/323/22
f 28/324/23 56/323/22 32/325/22
f 24/326/23 28/324/23 32/325/22
f 24/326/23 32/325/22 23/327/22
f 40/328/23 24/326/23 23/327/22
f 40/328/23 23/327/22 36/212/22
f 14/329/14 15/111/15 48/113/39
f 48/113/39 40/328/23 36/212/22
f 44/213/22 14/329/14 48/113/39
