# Blender 5.1.2
# www.blender.org
mtllib costume.mtl
o Sphere.003
v -0.000486 0.304179 -0.121188
v -0.050935 0.265284 -0.137323
v -0.070250 0.230764 -0.133734
v -0.059571 0.155668 -0.110614
v -0.038776 0.227386 -0.146594
v -0.003174 0.156567 -0.125439
v 0.000166 0.221246 -0.145133
v 0.035227 0.329347 -0.099546
v 0.027557 0.284085 -0.134191
v 0.039323 0.257336 -0.138968
v 0.062655 0.184157 -0.111402
v 0.115612 0.230458 -0.070979
v 0.070637 0.335764 -0.085653
v 0.083539 0.291217 -0.103577
v 0.101248 0.335914 -0.056077
v 0.139779 0.308890 0.015209
v 0.021165 0.377881 -0.039763
v 0.061969 0.374364 -0.044854
v 0.097146 0.368505 -0.015739
v 0.060229 0.398286 0.000996
v 0.081805 0.387224 0.029617
v 0.097546 0.361336 0.090150
v 0.012973 0.404776 0.005330
v 0.044422 0.405719 0.045559
v 0.023431 0.372656 0.124641
v 0.007807 0.407555 0.053830
v -0.048499 0.378815 -0.015472
v -0.041781 0.395443 0.018899
v -0.017958 0.395516 0.068350
v -0.063022 0.383832 0.041757
v -0.075879 0.338241 -0.058533
v -0.081057 0.327245 0.100947
v -0.094542 0.349491 -0.021525
v -0.105469 0.342642 0.012480
v -0.132545 0.251081 0.025362
v -0.123361 0.298699 -0.035650
v -0.094249 0.298457 -0.090688
v -0.119210 0.265914 -0.075820
v -0.118538 0.181170 -0.062814
v -0.098581 0.240991 -0.111269
v -0.059195 0.073085 -0.175588
v 0.070396 0.101495 -0.179316
v 0.198595 0.213102 -0.083430
v 0.218262 0.343563 0.067224
v 0.129122 0.414471 0.178106
v 0.027583 0.416781 0.209800
v -0.098296 0.369874 0.190126
v -0.203771 0.246544 0.072786
v -0.202138 0.151331 -0.041026
v -0.151839 0.093424 -0.124763
v -0.090116 0.065590 -0.195610
v -0.045538 0.065700 -0.208359
v 0.000932 0.073134 -0.212902
v 0.047509 0.087608 -0.209064
v 0.092401 0.108564 -0.196992
v 0.133885 0.135199 -0.177151
v 0.170365 0.166487 -0.150303
v 0.200440 0.201227 -0.117480
v 0.222955 0.238084 -0.079942
v 0.237043 0.275642 -0.039133
v 0.242163 0.312456 0.003379
v 0.238120 0.347113 0.045960
v 0.225067 0.378280 0.086974
v 0.203507 0.404760 0.124846
v 0.174269 0.425534 0.158118
v 0.138475 0.439806 0.185514
v 0.097502 0.447026 0.205980
v 0.052923 0.446916 0.218729
v 0.006453 0.439482 0.223272
v -0.040123 0.425009 0.219434
v -0.085016 0.404052 0.207363
v -0.126499 0.377418 0.187521
v -0.162979 0.346129 0.160673
v -0.193055 0.311389 0.127850
v -0.215569 0.274532 0.090312
v -0.229657 0.236974 0.049504
v -0.234778 0.200160 0.006992
v -0.230734 0.165504 -0.035590
v -0.217681 0.134336 -0.076604
v -0.196122 0.107857 -0.114475
v -0.166883 0.087082 -0.147748
v -0.131089 0.072810 -0.175144
v -0.101411 -0.902421 0.072383
v 0.022279 -1.029015 -0.012422
v -0.020772 -0.822028 0.164174
v -0.092934 -0.873488 -0.117342
v -0.008881 -0.427363 -0.040360
v -0.074346 -0.422787 -0.019293
v -0.154944 -0.590052 0.135450
v -0.033046 -0.698524 0.033766
v 0.057648 -0.595802 -0.013862
v 0.051623 -0.629205 0.071937
v 0.310748 0.094498 0.011281
v -0.047910 -0.360140 0.323553
v 0.000703 -0.840393 -0.107437
v -0.075385 -0.440593 0.085389
v -0.021806 -0.545278 0.073239
v 0.175729 -0.519817 -0.015263
v -0.001157 -0.536770 -0.066541
v -0.029639 -0.428959 -0.165032
v -0.182219 -0.775127 0.099834
v 0.022688 -0.822000 0.037596
v 0.030881 -0.243319 0.039591
v 0.290070 -0.153485 0.034659
v 0.253149 -0.397312 0.032267
v -0.170345 -0.123351 0.233629
v 0.020503 -0.514214 0.316187
v -0.233851 -0.503336 0.173011
v -0.065368 -0.450010 -0.043305
v -0.070962 -0.191433 -0.000742
v 0.159594 -0.463208 -0.131522
v 0.064367 0.143779 -0.063464
v -0.100792 -0.375398 0.195605
v 0.255737 0.082427 0.047399
v 0.190752 -0.383798 0.076943
v 0.013007 -0.997676 0.021458
v -0.012644 -0.421182 0.066465
v -0.040693 -0.466930 0.080144
v 0.108907 -0.450395 -0.082389
v 0.132326 0.322009 0.050759
v -0.141956 -0.531309 0.061556
v -0.161133 -0.663345 0.076002
v 0.016598 -0.742497 0.047592
v -0.017006 0.109579 -0.004343
v 0.179677 -0.389860 0.156513
v -0.013598 -0.137132 0.307552
v -0.129441 -0.605109 0.118682
v -0.028861 -0.050465 -0.100407
v 0.016308 -0.651233 -0.006736
v 0.029486 -0.590493 0.135342
v 0.139742 -0.589907 0.065178
v -0.037019 -0.353659 0.043726
v 0.116107 0.099271 0.091282
v 0.004814 -0.481320 -0.093716
v -0.064223 -0.370383 -0.145045
v -0.128426 -0.059598 0.164201
v -0.237434 -0.454469 0.096024
v 0.154052 -0.490055 -0.085084
v 0.022257 -0.017396 -0.137391
v -0.112520 0.174717 0.002264
v -0.035220 -0.311651 0.141752
v -0.165656 -0.207088 0.211796
v 0.147813 -0.594370 0.126868
v 0.127846 -0.753273 0.059353
v 0.085923 -0.346169 -0.024160
v 0.101882 -0.402059 0.115342
v 0.202680 -0.056454 0.127039
v 0.205943 -0.238424 0.057253
v -0.092017 0.150085 0.218722
v -0.010292 -0.533507 -0.243819
v -0.080211 -0.153627 0.104526
v 0.116345 0.007553 0.099977
v -0.116647 -0.534657 0.191124
v 0.021366 -0.418215 0.080042
v -0.094720 -0.766565 0.076429
v -0.077291 -0.129085 0.170589
v -0.003512 0.031335 -0.096913
v 0.054268 -0.226378 -0.108387
v 0.091420 -0.167492 -0.100363
v -0.021456 -0.596857 -0.038268
v 0.150052 -0.328557 -0.044454
v -0.012810 0.227265 0.202782
v -0.003730 -0.787955 -0.170611
v -0.141485 -0.884664 0.074621
v -0.053384 -0.871895 -0.111420
v -0.011676 -0.831581 0.123139
v 0.021788 -0.392973 0.008597
v -0.018604 -0.420326 -0.082401
v -0.004107 -0.636963 0.012810
v 0.038301 -0.550289 -0.054892
v 0.066977 -0.693986 0.236205
v 0.022990 -0.686591 0.054811
v -0.028116 -0.613322 -0.126631
v 0.031455 -0.100728 0.065951
v -0.026789 -0.601916 0.024052
v -0.197854 -0.171903 -0.017532
v 0.215942 -0.229702 -0.143216
v -0.242751 -0.757633 0.126055
v 0.018383 -0.918221 0.051990
v 0.046970 -0.722206 -0.027987
v 0.015297 -0.754547 -0.009836
v -0.093875 -0.477358 0.122386
v 0.006699 -0.566449 0.093695
v -0.078661 -0.520828 -0.200375
v -0.028085 -0.168491 0.123552
v 0.323454 0.206271 -0.002090
v -0.034204 -0.454040 0.126117
v -0.188164 -0.460727 0.102310
v -0.150608 -0.785154 0.129737
v -0.007587 -0.844683 0.224589
v 0.049391 -0.916635 0.029809
v -0.102517 -0.833806 -0.195683
v -0.030118 0.300152 -0.031217
v 0.203268 -0.213705 0.147616
v -0.196643 -0.344905 0.247944
v 0.016540 -0.293781 -0.238270
v 0.017831 -0.140139 -0.197079
v 0.023945 0.204304 -0.034742
v -0.065509 -0.496119 -0.158270
v -0.080712 -0.295453 -0.151581
v -0.140334 0.223727 0.001949
v -0.188681 -0.033980 0.110779
v -0.151613 0.157930 -0.013310
v -0.145553 -0.294585 0.175290
v 0.020259 -0.251755 0.213416
v 0.047335 -0.459700 0.282496
v 0.054248 -0.397973 0.102744
v 0.123526 -0.525720 0.151577
v 0.137754 -0.216835 0.100829
v -0.059068 -0.755293 -0.211386
v 0.005331 -0.704333 -0.194671
v -0.217245 -0.811898 0.098824
v -0.003016 -0.807858 0.029759
v -0.012875 -0.446788 -0.124096
v -0.082971 -0.496093 0.176563
v 0.021934 -0.612634 -0.010366
v 0.002052 -0.488214 -0.140066
v -0.191948 -0.492179 0.077953
v -0.022513 -0.717090 -0.143061
v -0.128038 0.058607 0.226006
v -0.235996 -0.230830 0.063989
v 0.061639 -0.672089 -0.008122
v -0.103426 -0.551860 0.151033
v 0.050713 -0.620124 0.171507
v -0.029019 -0.378838 -0.119017
v -0.057625 -0.813893 0.171797
v -0.070814 -0.903420 0.110655
v 0.040331 -1.014408 -0.001893
v -0.109826 -0.865900 -0.151314
v 0.062814 -0.397800 0.038862
v -0.029669 0.345109 0.121860
v -0.140007 -0.341521 -0.015508
v 0.172425 -0.203767 -0.113769
v -0.111855 0.273934 0.129230
v -0.189286 0.072869 0.026572
v -0.097233 -0.354627 0.166909
v -0.221180 -0.256923 0.120154
v -0.083456 -0.653673 0.021134
v -0.187298 -0.737428 0.074274
v -0.036368 -0.507653 0.077899
v -0.114182 -0.588488 0.238946
v 0.079079 -0.412471 -0.029004
v 0.054490 0.062717 0.138892
v -0.014179 -0.666272 -0.126423
v -0.074011 -0.361530 -0.024650
v -0.081392 -0.287726 -0.043789
v 0.024880 -0.056498 0.241295
v -0.155287 -0.124134 0.259605
v -0.089834 0.139464 0.161788
v 0.131294 -0.562231 0.088978
v 0.201990 -0.061644 0.009196
v 0.155406 0.265087 0.064187
v 0.176857 0.097302 0.054183
v 0.065508 -0.555538 0.109539
v 0.053373 -0.201494 0.028195
v 0.068007 -0.822738 0.078673
v 0.044795 -0.609724 0.110973
v -0.208472 -0.407637 0.194122
v -0.055046 -0.310741 0.183407
v -0.022916 -0.635280 0.292765
v 0.046114 -0.786672 0.269126
v 0.058131 -0.600207 0.285896
v -0.130052 -0.767870 0.165088
v -0.016986 -0.477859 0.123744
v 0.039292 -0.358757 0.272637
v 0.004868 -0.278066 0.316406
v -0.210534 -0.605092 0.086694
v -0.149723 -0.443410 0.158484
v -0.113159 0.303988 0.038419
v -0.059559 0.346416 0.001049
v -0.121483 0.154505 0.127906
v -0.163294 -0.051293 -0.035009
v -0.198967 -0.027281 -0.013581
v -0.018541 -0.363505 -0.196248
v -0.048210 -0.148612 -0.184168
v -0.056581 -0.346883 -0.069386
v -0.032518 -0.331038 -0.001980
v -0.095927 -0.377599 -0.138071
v 0.272570 -0.025709 -0.087140
v 0.295396 0.059720 -0.055648
v 0.049173 0.333771 -0.023605
v 0.179258 -0.067739 -0.049591
v 0.133612 -0.447783 -0.085454
v 0.240224 -0.136865 -0.125425
v -0.010908 -0.497071 -0.182550
v -0.077714 -0.007027 0.065736
v 0.046529 -0.183582 0.143748
v -0.045639 -0.012475 0.150967
v -0.058064 -0.143367 0.184524
v 0.189813 -0.611983 0.060442
v 0.134909 -0.379536 0.157477
v 0.019985 0.176649 0.195032
v -0.132695 -0.446432 0.056810
v -0.176953 -0.424033 0.071772
v -0.076047 -0.321134 0.104332
v -0.225001 -0.612798 0.182785
v 0.166604 -0.351244 -0.088653
v 0.098039 -1.139090 0.048641
v 0.098547 -0.225633 0.038773
v 0.114494 -1.139090 0.056564
v 0.106809 -0.225633 0.042196
v 0.110232 -0.225633 0.050458
v 0.097866 -1.139090 0.072307
v 0.106809 -0.225633 0.058721
v 0.098547 -0.225633 0.062144
v 0.090284 -0.225633 0.058721
v 0.086861 -0.225633 0.050458
v 0.090284 -0.225633 0.042196
v 0.073998 -0.000159 0.048221
v 0.011622 -0.000096 0.026082
v 0.045280 -0.000098 0.108147
v -0.008803 -0.000001 0.082856
v 0.195549 -0.085094 0.045244
v 0.199729 -0.084497 0.057161
v 0.196051 -0.085136 0.068051
v 0.178534 -0.085850 0.056539
vn -0.2952 0.3702 -0.8808
vn -0.1794 -0.0739 -0.9810
vn -0.5346 -0.0854 -0.8408
vn -0.1128 0.6268 -0.7709
vn 0.1534 0.3932 -0.9066
vn 0.3607 0.0659 -0.9303
vn 0.1448 -0.1374 -0.9799
vn 0.2411 0.3035 -0.9218
vn -0.0820 0.2226 -0.9715
vn 0.4171 0.4630 -0.7821
vn 0.0441 0.6875 -0.7248
vn 0.3913 0.6053 -0.6932
vn 0.6464 0.2353 -0.7258
vn 0.7459 0.4554 -0.4861
vn 0.4745 0.7154 -0.5129
vn -0.0894 0.8109 -0.5783
vn 0.2614 0.7967 -0.5449
vn 0.6968 0.6707 -0.2543
vn 0.3255 0.9120 -0.2494
vn 0.6322 0.7732 0.0492
vn 0.2680 0.9355 -0.2305
vn -0.0631 0.9531 -0.2961
vn -0.0810 0.9751 0.2066
vn 0.2611 0.9512 0.1642
vn -0.1424 0.9873 -0.0707
vn -0.3739 0.9183 -0.1304
vn -0.5834 0.7854 0.2066
vn -0.3461 0.8423 0.4132
vn -0.5794 0.8092 -0.0978
vn -0.3830 0.7254 -0.5720
vn -0.3300 0.8291 -0.4513
vn -0.6586 0.6925 -0.2945
vn -0.8444 0.5280 0.0901
vn -0.7666 0.5469 -0.3365
vn -0.9241 0.3287 -0.1949
vn -0.5752 0.5246 -0.6276
vn -0.9057 0.1530 -0.3953
vn -0.6686 0.3520 -0.6551
vn -0.7268 0.0062 -0.6868
vn -0.4053 0.2146 -0.8886
vn -0.1731 0.6548 -0.7357
vn -0.2707 0.6411 -0.7181
vn -0.0464 0.6538 -0.7553
vn -0.3649 0.7638 -0.5325
vn -0.2745 0.8388 -0.4702
vn -0.1521 0.8412 -0.5190
vn -0.0574 0.8293 -0.5559
vn 0.0187 0.7306 -0.6826
vn -0.3783 0.6816 -0.6263
vn 0.2023 0.4571 -0.8661
vn 0.0659 0.4288 -0.9010
vn -0.6379 0.6740 -0.3726
vn -0.5860 0.7547 -0.2950
vn 0.1327 0.6088 -0.7822
vn 0.1315 0.6283 -0.7668
vn -0.5198 0.6824 -0.5139
vn 0.3111 0.5951 -0.7410
vn -0.0322 0.7906 -0.6115
vn 0.2232 0.7486 -0.6243
vn -0.4500 0.5486 -0.7046
vn -0.1459 0.9503 -0.2750
vn -0.0259 0.9487 -0.3151
vn -0.2131 0.9242 -0.3169
vn 0.2020 0.8449 -0.4953
vn -0.2971 0.9322 -0.2066
vn -0.2256 0.4503 -0.8639
vn -0.2642 0.4663 -0.8443
vn -0.4346 0.8806 -0.1888
vn -0.0978 0.4390 -0.8931
vn -0.4272 0.8281 -0.3629
vn 0.0152 0.9301 -0.3671
vn -0.0501 0.4991 -0.8651
vn -0.4332 0.8153 -0.3843
vn -0.5338 0.6642 -0.5234
vn -0.6625 0.5290 -0.5304
vn 0.3369 0.6780 -0.6533
vn -0.5907 0.4833 -0.6461
vn 0.2754 0.7742 -0.5698
vn -0.4500 0.5019 -0.7386
vn -0.4032 0.3908 -0.8275
vn 0.1693 0.8611 -0.4795
vn 0.1539 0.9220 -0.3552
vn 0.7315 -0.5033 -0.4600
vn 0.2554 -0.6247 -0.7379
vn 0.6817 -0.4338 -0.5891
vn 0.5490 0.0738 -0.8325
vn 0.4756 -0.1330 -0.8695
vn 0.7409 0.0009 -0.6716
vn 0.8873 -0.2165 -0.4072
vn 0.6005 -0.3657 -0.7111
vn 0.9222 -0.1408 0.3601
vn -0.4486 0.1133 0.8865
vn 0.4912 -0.0907 0.8663
vn 0.2130 0.0541 0.9755
vn 0.1135 0.1142 -0.9870
vn 0.1587 0.0929 -0.9829
vn 0.5930 -0.3978 -0.7000
vn -0.9599 0.1587 0.2310
vn -0.8652 -0.1553 0.4767
vn -0.6711 0.0016 -0.7414
vn -0.9960 0.0511 -0.0736
vn -0.6510 -0.0582 -0.7569
vn -0.9749 -0.1858 0.1224
vn -0.2029 0.1902 -0.9605
vn -0.8163 0.0256 -0.5771
vn 0.2488 -0.2826 -0.9264
vn -0.6445 -0.2155 -0.7336
vn -0.1189 -0.3477 -0.9300
vn -0.6637 0.0639 -0.7452
vn 0.8024 -0.4788 0.3562
vn 0.2716 -0.0159 0.9623
vn 0.8669 -0.3855 0.3161
vn 0.4789 -0.5651 0.6718
vn -0.2990 -0.0712 0.9516
vn -0.7296 -0.3605 0.5811
vn -0.2718 -0.5510 0.7890
vn -0.8699 -0.1647 0.4649
vn -0.9162 0.1227 -0.3815
vn -0.9927 -0.0475 0.1105
vn -0.9357 0.2656 -0.2322
vn -0.7479 0.4545 0.4838
vn -0.7541 0.2512 -0.6068
vn -0.9739 0.2271 0.0020
vn -0.3646 0.8264 -0.4291
vn 0.1765 -0.1567 -0.9717
vn -0.1552 -0.1818 0.9710
vn -0.4167 -0.2771 0.8658
vn -0.3084 0.1115 0.9447
vn -0.8568 0.1753 0.4850
vn -0.8071 0.0613 0.5872
vn -0.4759 -0.2415 -0.8457
vn 0.3973 0.1216 -0.9096
vn -0.5790 -0.5527 -0.5993
vn -0.9234 -0.3662 0.1151
vn -0.2056 -0.5164 -0.8313
vn 0.9804 -0.0187 0.1959
vn 0.6049 0.1122 0.7883
vn 0.9864 0.1000 0.1307
vn 0.9169 -0.1059 -0.3847
vn 0.8842 0.2860 -0.3694
vn 0.8828 -0.4393 0.1665
vn 0.9406 -0.0051 0.3396
vn 0.8960 -0.3086 0.3192
vn -0.6271 0.2423 -0.7403
vn -0.3012 0.0981 -0.9485
vn 0.0504 0.2887 -0.9561
vn -0.6135 0.1710 0.7710
vn -0.9361 0.2161 -0.2775
vn -0.8417 0.0672 0.5357
vn -0.1047 0.0259 0.9942
vn -0.6734 0.2590 0.6924
vn 0.0548 -0.2480 0.9672
vn -0.8225 0.2615 0.5050
vn -0.1137 -0.1041 0.9880
vn -0.8980 0.2201 0.3809
vn 0.4916 0.2460 0.8353
vn 0.8669 0.4971 -0.0358
vn 0.4650 0.8237 0.3244
vn 0.6702 -0.2379 -0.7030
vn 0.3100 -0.0180 -0.9506
vn 0.3260 -0.0613 -0.9434
vn 0.6541 -0.4354 0.6185
vn -0.6663 0.3220 0.6726
vn -0.9520 0.0472 0.3024
vn 0.9331 0.0620 0.3541
vn 0.7301 0.0468 0.6817
vn 0.4536 0.2525 0.8547
vn -0.8586 0.2957 -0.4187
vn -0.3614 0.1477 -0.9206
vn 0.9187 -0.3894 -0.0667
vn 0.8175 -0.2035 0.5388
vn 0.6055 -0.2504 -0.7554
vn 0.8546 -0.2911 -0.4300
vn -0.4322 -0.1126 -0.8947
vn 0.9824 -0.0052 -0.1865
vn -0.9847 0.1168 0.1296
vn -0.6001 -0.2729 -0.7520
vn 0.9622 0.0116 -0.2721
vn 0.9096 -0.3145 -0.2714
vn 0.4544 -0.0072 -0.8908
vn 0.1205 0.0075 -0.9927
vn -0.5106 -0.1434 -0.8478
vn -0.0475 0.0674 -0.9966
vn 0.8463 0.3996 0.3522
vn 0.8521 -0.1303 0.5069
vn 0.6540 0.1468 0.7421
vn 0.8950 0.0596 0.4420
vn 0.1547 0.4432 0.8830
vn 0.2687 0.1802 0.9462
vn 0.9973 -0.0138 0.0727
vn 0.7980 -0.2407 0.5525
vn 0.5702 -0.0615 0.8192
vn -0.2058 -0.0298 0.9781
vn 0.2430 0.2034 0.9485
vn 0.3241 0.3030 0.8962
vn -0.2210 0.1464 0.9642
vn -0.8910 0.4093 0.1964
vn 0.2324 -0.8980 0.3736
vn -0.6782 -0.2615 0.6868
vn -0.6720 0.0293 0.7400
vn -0.8755 0.2441 0.4171
vn 0.1696 -0.3301 0.9286
vn 0.6720 -0.4338 0.6002
vn 0.8674 -0.4239 -0.2607
vn 0.3693 -0.3526 0.8598
vn 0.4513 -0.4038 0.7958
vn 0.3074 -0.5658 0.7651
vn -0.6703 0.0916 0.7365
vn -0.6953 0.0542 0.7167
vn 0.5415 -0.2760 0.7941
vn -0.8278 0.2047 -0.5223
vn -0.6849 0.1227 -0.7182
vn -0.5635 0.0469 -0.8248
vn -0.9083 -0.0242 -0.4175
vn -0.5288 -0.2242 0.8186
vn -0.1485 -0.5752 0.8044
vn -0.1127 -0.2845 0.9520
vn -0.2718 -0.2089 0.9394
vn -0.5431 -0.3826 0.7474
vn -0.3762 -0.8840 0.2777
vn -0.5351 -0.5853 0.6092
vn -0.4231 -0.6118 0.6684
vn -0.4631 -0.4101 0.7858
vn -0.9721 -0.1284 0.1965
vn -0.2896 0.3295 -0.8986
vn -0.4795 -0.3916 0.7853
vn 0.6922 -0.5803 -0.4290
vn 0.8340 0.2665 -0.4831
vn 0.9391 0.1101 0.3254
vn 0.3129 -0.0499 0.9485
vn 0.8011 -0.0516 0.5964
vn 0.9647 0.1748 -0.1972
vn 0.9805 -0.0113 0.1960
vn 0.7035 0.3490 -0.6191
vn 0.8154 0.5446 -0.1963
vn 0.2496 -0.8413 -0.4795
vn 0.3620 -0.7731 -0.5209
vn 0.0768 -0.9643 -0.2536
vn -0.0368 -0.2105 0.9769
vn -0.3563 -0.6859 -0.6345
vn -0.4653 -0.8715 -0.1549
vn 0.5519 -0.4157 -0.7229
vn -0.0650 -0.8382 -0.5415
vn 0.3235 0.0215 0.9460
vn -0.2115 -0.0181 0.9772
vn 0.6742 -0.1311 0.7268
vn 0.6953 -0.3043 0.6512
vn 0.7257 -0.3205 0.6088
vn 0.3743 -0.1762 0.9104
vn 0.7033 -0.0101 0.7108
vn -0.3193 0.1613 -0.9338
vn -0.7848 0.1067 0.6105
vn -0.8541 0.1256 -0.5047
vn 0.0440 0.3378 -0.9402
vn -0.7307 0.3042 -0.6112
vn -0.2050 0.4349 -0.8768
vn -0.9615 -0.2610 0.0859
vn -0.9977 -0.0526 0.0427
vn -0.6095 0.6881 -0.3938
vn 0.7311 -0.6687 0.1357
vn 0.9238 -0.2502 -0.2899
vn 0.7526 -0.1852 -0.6319
vn 0.0044 0.3116 -0.9502
vn -0.3747 0.0824 -0.9235
vn 0.1369 0.7412 -0.6572
vn -0.6738 0.3667 -0.6415
vn 0.9951 -0.0676 -0.0719
vn -0.1255 0.1131 0.9856
vn 0.4031 0.0304 0.9146
vn 0.3836 -0.0932 -0.9188
vn 0.7828 0.2025 -0.5884
vn -0.5772 -0.2733 -0.7695
vn -0.4809 -0.2286 0.8464
vn 0.8128 -0.1978 -0.5479
vn 0.9833 -0.1250 -0.1321
vn -0.0777 0.8596 0.5050
vn -0.4638 0.3498 -0.8140
vn 0.8568 -0.4584 -0.2362
vn -0.5430 0.0660 -0.8371
vn 0.2353 0.1341 -0.9626
vn 0.4018 0.0719 -0.9129
vn -0.2252 0.5967 0.7702
vn 0.3598 0.2729 0.8922
vn -0.1254 0.0543 -0.9906
vn -0.4477 0.3395 0.8272
vn 0.3255 0.2020 0.9237
vn -0.6021 0.0996 -0.7922
vn -0.8982 0.0901 0.4302
vn 0.8802 -0.2870 0.3780
vn -0.8107 0.5649 0.1540
vn 0.1631 -0.7016 0.6936
vn -0.5660 0.0474 -0.8231
vn -0.3081 -0.5539 0.7735
vn -0.3432 -0.9214 -0.1823
vn -0.1749 -0.9668 0.1863
vn -0.2688 -0.1798 0.9463
vn -0.8059 0.5868 -0.0788
vn 0.4338 -0.0105 -0.9009
vn 0.5453 -0.6091 0.5759
vn 0.3880 0.0099 0.9216
vn -0.3286 -0.5510 0.7671
vn -0.3753 -0.1956 -0.9060
vn -0.9261 -0.0106 -0.3771
vn -0.8084 -0.5886 -0.0078
vn 0.2421 0.6926 -0.6795
vn -0.4479 0.5112 -0.7335
vn -0.8382 0.4319 0.3331
vn 0.3815 0.0801 -0.9209
vn 0.9102 0.1504 0.3858
vn 0.8923 0.1497 0.4260
vn 0.8917 0.1497 0.4272
vn -0.8721 -0.3300 -0.3613
vn 0.9143 0.1432 -0.3788
vn -0.3737 -0.2691 0.8877
vn -0.3376 0.5593 0.7572
vn 0.3793 -0.2527 -0.8901
vn 0.5327 -0.3369 -0.7764
vn 0.5273 -0.3331 -0.7817
vn -0.3714 0.3232 -0.8704
vn -0.5168 0.3924 -0.7608
vn -0.5204 0.3941 -0.7576
vn -0.3737 0.2164 0.9020
vn -0.7890 0.5224 -0.3232
vn -0.8082 0.5258 -0.2652
vn -0.8137 0.5276 -0.2439
vn 0.7843 -0.5285 0.3249
vn -0.8009 0.4985 0.3318
vn 0.3827 -0.0102 -0.9238
vn 0.9238 0.0018 -0.3828
vn 0.9238 0.0069 0.3827
vn 0.0002 0.0111 0.9999
vn -0.7099 0.0046 0.7043
vn -0.9239 -0.0020 0.3827
vn -0.9238 -0.0105 -0.3827
vn -0.3827 -0.0098 -0.9238
vn 0.3336 0.0757 -0.9397
vn 0.9133 0.1505 0.3784
vn -0.8728 -0.4084 0.2672
vn -0.8435 -0.4078 0.3494
vn 0.0584 -0.1862 0.9808
vn 0.3809 -0.0976 0.9194
vn 0.6834 -0.4405 -0.5821
vn -0.3627 0.3189 -0.8756
vn -0.5769 0.4132 -0.7046
vn 0.7960 -0.5077 -0.3297
vn -0.3662 0.2913 -0.8838
vn -0.8205 0.5078 0.2624
vt 1.257022 1.836949
vt 1.277605 1.740540
vt 1.224326 1.749135
vt 1.342424 1.935893
vt 1.389896 1.884775
vt 1.409813 1.816731
vt 1.343527 1.724921
vt 1.449311 1.630572
vt 1.337873 1.560385
vt 1.538958 1.748356
vt 1.402880 1.999916
vt 1.462823 2.016241
vt 1.484664 1.902918
vt 1.514641 2.016623
vt 1.733374 0.981536
vt 1.911893 1.019447
vt 1.866146 1.200788
vt 1.402880 0.908866
vt 1.379075 1.060947
vt 1.448149 1.047997
vt 1.514641 1.019447
vt 1.507698 1.122062
vt 1.445205 1.164632
vt 1.481728 1.237440
vt 1.998752 1.237440
vt 1.954928 1.391428
vt 1.365208 1.175659
vt 1.356462 1.299035
vt 1.418445 1.277994
vt 1.382911 1.479169
vt 1.272517 1.210175
vt 1.236561 1.268323
vt 1.312847 1.335974
vt 1.206031 1.418896
vt 1.342424 0.853812
vt 1.214796 1.013199
vt 1.261146 1.122741
vt 1.183203 1.107343
vt 1.164704 1.193847
vt 1.923282 1.193847
vt 1.768285 1.226618
vt 1.897218 1.418896
vt 1.934876 1.107343
vt 1.848894 1.071411
vt 1.183698 0.931399
vt 1.793394 0.969222
vt 1.649938 1.002309
vt 1.848484 0.931399
vt 1.751204 0.879045
vt 1.176366 1.775149
vt 1.733892 0.821897
vt 1.606767 0.880710
vt 1.242402 1.558100
vt 1.183698 1.921336
vt 1.389940 1.695803
vt 1.561828 1.615178
vt 1.176847 1.645755
vt 1.579870 1.200788
vt 1.679435 0.949863
vt 1.538958 0.981536
vt 1.462415 1.420289
vt 1.243040 1.348019
vt 1.086208 1.399758
vt 1.142582 1.622974
vt 0.998297 1.347257
vt 1.508375 1.391428
vt 1.712728 1.333107
vt 1.679435 1.704204
vt 1.142582 1.002309
vt 1.118870 1.226618
vt 1.176847 2.103011
vt 1.129105 2.122203
vt 1.199328 2.189957
vt 1.720672 0.958736
vt 1.682558 0.863245
vt 1.067350 2.042608
vt 1.016437 1.954234
vt 1.744521 1.062549
vt 0.998297 1.789276
vt 0.978324 1.860474
vt 1.001060 1.057734
vt 0.945807 1.179886
vt 1.561828 2.216461
vt 1.687750 2.191757
vt 1.712728 2.036081
vt 1.243040 0.715426
vt 1.266158 0.632060
vt 1.190695 0.664492
vt 1.344824 0.620503
vt 1.086208 0.844717
vt 0.974749 0.967228
vt 1.462415 0.705942
vt 1.423671 0.630266
vt 1.432836 2.298997
vt 1.508301 2.299277
vt 1.499666 0.660976
vt 1.389940 2.222336
vt 1.354170 2.280086
vt 1.569891 0.711449
vt 1.121335 0.716555
vt 1.275325 2.243268
vt 1.631646 0.779747
vt 1.836228 0.898613
vt 1.462823 0.944207
vt 1.967063 1.122062
vt 1.993010 1.268323
vt 1.214796 2.022542
vt 1.001060 1.547065
vt 1.753188 1.170695
vt 1.924841 1.333107
vt 1.930851 1.279015
vt 1.872182 1.170695
vt 0.954476 1.764931
vt 1.983611 1.383350
vt 0.954476 1.288031
vt 1.724247 2.124396
vt 0.952652 1.071562
vt 1.638255 2.244604
vt 1.577661 2.280910
vt 1.011245 0.870889
vt 1.060741 0.786246
vt 1.344436 0.888793
vt 1.169702 0.664306
vt 1.336932 0.728086
vt 1.527608 0.016351
vt 1.294122 0.198382
vt 1.597259 0.326291
vt 1.834286 0.771653
vt 1.685182 1.005284
vt 1.869291 1.402490
vt 1.571625 0.196607
vt 1.647409 0.170344
vt 1.687345 0.618460
vt 1.381653 -0.928966
vt 1.430636 -0.438520
vt 1.565505 -0.268146
vt 1.442458 1.737030
vt 1.322128 1.546140
vt 1.100550 1.631505
vt 0.952490 1.324879
vt 1.052243 1.117500
vt 0.573906 1.406372
vt 1.292262 1.925648
vt 1.314458 1.440854
vt 1.207462 0.771291
vt 1.324781 -0.102387
vt 1.210087 -0.162822
vt 1.311859 0.237388
vt 1.435113 0.586222
vt 1.635133 0.643741
vt 1.498005 0.736020
vt 1.234528 0.219891
vt 1.293073 0.070881
vt 1.232351 -0.099966
vt 1.321451 0.025526
vt 1.247464 0.279672
vt 0.843094 0.776496
vt 0.704034 0.810863
vt 1.257818 0.906676
vt 1.806971 1.490844
vt 1.721979 1.167057
vt 1.466601 1.229695
vt 1.242423 2.043338
vt 1.105684 1.731232
vt 1.152769 1.606557
vt 1.089790 0.034119
vt 0.941310 0.005987
vt 1.124124 -0.377222
vt 1.125843 1.010489
vt 1.023841 1.075658
vt 0.968826 0.508519
vt 1.201969 -0.500763
vt 1.306925 -0.356231
vt 1.338141 -0.892990
vt 0.986848 -0.377179
vt 1.026182 -0.713826
vt 0.917067 1.705002
vt 0.872527 1.966996
vt 0.735931 1.855653
vt 0.534311 1.476888
vt 0.343641 1.506392
vt 0.669837 1.260959
vt 0.931348 1.262814
vt 0.669545 1.423467
vt 0.990338 0.125121
vt 1.172622 0.207133
vt 1.145782 -0.198001
vt 1.133108 1.822501
vt 1.134434 1.756422
vt 0.759380 1.792837
vt 1.488700 0.281488
vt 1.576441 0.610498
vt 1.433598 0.649523
vt 1.454141 -0.251120
vt 1.552355 -0.175267
vt 0.402813 1.440752
vt 0.700755 1.562701
vt 0.662628 1.455514
vt 1.606323 1.836447
vt 1.890800 1.686826
vt 1.567252 1.981249
vt 1.771785 0.151388
vt 1.666158 0.185765
vt 1.691874 0.555578
vt 0.391483 1.388448
vt 0.344632 1.327904
vt 0.693541 1.357833
vt 1.597315 1.718500
vt 1.579336 1.573667
vt 1.217958 0.242412
vt 1.018311 -0.089943
vt 1.102939 -0.189485
vt 0.744561 1.273332
vt 0.799620 1.427507
vt 1.083182 1.428000
vt 0.120672 1.090903
vt 0.009370 0.728086
vt 0.513665 0.945656
vt 0.150928 0.666880
vt 0.559113 0.827523
vt 1.613412 -0.016244
vt 1.325824 -0.195076
vt 1.708801 0.577765
vt 0.215359 0.840495
vt 0.304995 0.839966
vt 0.501788 0.697715
vt 1.019182 1.160211
vt 0.625429 1.344678
vt 0.856174 1.050705
vt 0.731237 1.099392
vt 0.581455 1.051936
vt 1.008313 0.724799
vt 1.205463 0.430160
vt 1.106238 0.293312
vt 1.066817 1.031616
vt 1.223120 0.675117
vt 0.332867 1.064750
vt 0.324303 1.223284
vt 1.043694 0.083412
vt 1.449416 1.515423
vt 1.642284 1.658236
vt 1.247605 1.775923
vt 1.377078 1.611472
vt 1.321561 1.740233
vt 1.320227 0.813252
vt 1.032473 1.527776
vt 1.172731 1.329870
vt 1.511296 1.394309
vt 1.126499 1.311188
vt 1.080371 0.846318
vt 1.262143 0.245948
vt 1.111105 1.944474
vt 0.683279 1.560248
vt 0.670664 1.244183
vt 1.083422 1.250267
vt 1.686350 1.018487
vt 1.776166 1.371783
vt 1.396494 0.905859
vt 1.540199 1.181313
vt 1.539796 1.414632
vt 0.306159 1.135729
vt 0.757240 1.100639
vt 1.328212 1.059428
vt 1.477114 1.088316
vt 1.449580 1.260959
vt 0.528452 0.923697
vt 0.434585 0.992827
vt 0.645002 1.088316
vt 1.395523 0.543126
vt 0.976181 1.418595
vt -0.049511 1.362233
vt -0.208463 1.237929
vt 0.068081 1.313085
vt 1.374366 -1.173740
vt 1.426857 -1.169706
vt 1.458371 -0.930843
vt 1.365265 -1.375864
vt 1.411520 -1.418428
vt 1.419077 -0.388962
vt 1.287305 -0.614859
vt 1.593469 -0.349904
vt 0.653185 1.655921
vt 0.491183 1.602218
vt 0.707760 1.659693
vt 0.574633 1.482924
vt 0.503444 1.611253
vt 0.635278 1.365716
vt 1.058019 1.476400
vt 0.678009 1.183969
vt 1.421310 -0.839096
vt 1.304453 -0.453974
vt 1.330403 -0.986669
vt 1.171575 1.346232
vt 1.223370 1.443591
vt 1.103736 1.351925
vt -0.086661 1.733425
vt 0.043371 1.582062
vt -0.186093 1.443591
vt 0.962357 -0.396782
vt 1.080952 -0.338919
vt 0.932310 -0.765224
vt 0.552812 1.365975
vt 0.483875 1.360264
vt 0.565051 1.880733
vt 0.472768 1.966439
vt 0.327196 1.889382
vt 0.293480 1.598391
vt 0.168444 1.762975
vt 0.420182 1.348410
vt 0.384343 1.400447
vt 1.409761 0.249466
vt 1.377954 -0.145997
vt 1.423377 -0.007320
vt 1.157329 0.777175
vt 1.252876 0.878660
vt 1.185925 0.863596
vt 1.070475 -0.525367
vt 1.182901 1.356525
vt 1.338141 1.237802
vt 1.323481 1.475349
vt 1.034780 -0.809727
vt 1.088292 -0.835234
vt 1.182901 -0.787946
vt 1.212406 0.833723
vt 1.096850 0.412712
vt 1.124727 1.596056
vt 0.815673 1.522698
vt 1.265987 1.130364
vt 1.321842 0.090665
vt 1.283625 0.369298
vt 1.215632 0.041286
vt 0.597396 1.379318
vt 0.742922 1.586694
vt 0.535159 1.473433
vt 1.178647 0.259972
vt 1.086591 1.563853
vt 1.604798 1.487476
vt 1.285724 1.443907
vt 1.191172 1.516878
vt 1.137596 1.555140
vt 1.006429 1.092700
vt 1.610596 1.128240
vt 1.297064 1.127551
vt 1.373431 0.805603
vt 1.261635 0.784049
vt 1.380924 1.117846
vt 0.756032 0.985590
vt 0.631705 0.952481
vt 0.782854 1.157062
vt 1.311753 0.952481
vt 1.217391 1.113020
vt 1.280579 1.273332
vt 1.646700 0.989779
vt 1.804662 1.096698
vt 1.843302 1.314019
vt 1.452209 1.527855
vt 1.383781 1.681823
vt 1.426488 2.011170
vt 1.567252 1.291223
vt 1.890800 1.156783
vt 1.426488 1.102051
vt 1.337301 1.241811
vt 1.749906 0.813932
vt 1.238894 1.185492
vt 1.228576 1.035946
vt 1.503216 1.190795
vt 1.059710 0.906788
vt 1.569429 0.022995
vt 1.604031 -0.084540
vt 1.625279 0.268578
vt 1.206615 0.410503
vt 1.331351 1.329323
vt 0.908319 1.467756
vt 1.370853 -0.494556
vt 1.369142 -0.757374
vt 0.305882 1.627081
vt 1.149955 -0.334941
vt 1.664568 -0.394709
vt 1.559668 -0.754133
vt 0.787054 1.049013
vt 0.939634 1.307743
vt 1.640726 -0.160250
vt 1.293022 2.040013
vt 1.153895 1.858953
vt 1.187477 1.543896
vt 1.435489 1.321643
vt 1.118616 0.026432
vt 1.024716 -0.009933
vt 1.214512 0.345174
vt 1.336932 -0.842360
vt 1.243253 -0.759271
vt 1.352271 -0.629636
vt 1.280579 0.262435
vt 0.627539 1.113020
vt 0.587512 1.306616
vt 1.371344 -0.726720
vt 1.382165 -0.584503
vt 1.211690 1.144223
vt 1.408084 -0.237767
vt 1.440835 -0.353547
vt 1.295651 -0.398115
vt 1.371246 0.414757
vt 1.346720 -0.079856
vt 0.748649 0.936577
vt 0.954399 0.797775
vt 0.503400 0.759480
vt 1.091671 0.693599
vt 0.845924 0.555970
vt 0.440108 0.541854
vt 0.727893 0.662869
vt 1.441652 -0.364752
vt 1.232589 0.017330
vt 1.123090 -0.791266
vt 1.642636 1.409623
vt 1.062818 0.635293
vt 0.463283 1.123272
vt 0.510070 1.360402
vt 0.563313 1.422363
vt 0.064662 0.624360
vt -0.068248 0.664306
vt 0.129333 0.798170
vt -0.079398 0.888793
vt 1.447591 -0.547611
vt 0.205512 1.141438
vt 0.311086 1.444400
vt 0.264975 1.194686
vt 0.160762 1.247995
vt 1.528745 1.151051
vt 1.297897 -0.369100
vt 1.579806 -0.338551
vt 0.981480 1.537615
vt 0.992681 1.700881
vt 1.328212 0.074941
vt 1.351396 -0.062319
vt 1.477114 0.112824
vt 1.365265 1.216685
vt 1.380961 1.130499
vt 1.411520 1.157283
vt 0.337077 1.484835
vt 0.307262 1.315856
vt 0.947376 -0.118324
vt 1.010363 0.284704
vt 1.202790 -0.099900
vt 1.250063 0.371613
vt 1.285345 0.007078
vt 1.379416 0.098212
vt 0.817214 1.628663
vt 0.011542 1.846722
vt 1.103736 -1.088375
vt 0.975487 -0.903268
vt 1.314492 -0.053514
vt 1.435079 0.149706
vt 1.377542 0.521666
vt 1.274360 1.365975
vt 1.314492 1.476888
vt 1.351487 0.454734
vt 1.245697 1.599129
vt 1.308083 1.579737
vt 1.088292 1.492133
vt 1.026182 1.351043
vt 1.184332 -0.052240
vt 1.295703 0.733479
vt 0.630256 1.331178
vt 1.168163 -0.241764
vt 1.151687 1.259832
vt 1.293022 1.472095
vt 1.242423 1.164768
vt 1.857847 1.259832
vt 1.929671 1.164768
vt 1.313798 0.812593
vt 0.586909 0.846414
vt 0.461572 0.652370
vt 1.444342 1.020537
vt 1.692429 1.156783
vt 1.396291 0.915564
vt 1.689099 1.073720
vt 1.646700 1.035946
vt 1.498005 0.906788
vt 1.804662 0.940426
vt 1.244954 0.797391
vt 1.054881 0.848309
vt 1.791994 1.325383
vt 1.169702 -0.958999
vt 0.240818 1.144963
vt 1.223370 -1.136088
vt 0.765108 1.122648
vt 0.318927 1.382638
vt 1.153895 1.490844
vt 1.294390 1.033722
vt 1.592644 -1.735603
vt 1.614955 0.588117
vt 1.634504 -1.735603
vt 1.592206 -1.735603
vt 1.572918 0.588117
vt 1.372811 1.161855
vt 1.593938 0.588117
vt 0.769264 1.290458
vt -1.554455 1.285834
vt -1.554455 1.346040
vt 1.531487 1.284766
vt 1.372811 1.228450
vt 1.320853 1.372874
vt 1.531487 1.161695
vt 0.769264 1.311478
vt 1.342842 1.284766
vt 1.342996 1.437210
vt 1.343003 1.228450
vt 0.769264 1.269440
vt 1.458434 1.161849
vt 1.320853 1.162097
vt 1.797414 0.943708
vt 1.841974 0.945524
vt 1.840699 0.945632
vt 1.126671 1.335212
vt 1.128297 1.307509
vt 1.124855 1.305928
vt 1.126779 1.277194
vt -1.554455 1.305991
vt 1.592644 1.285834
vt 1.634504 1.305991
vt 1.592206 1.346040
vt 1.458434 1.437210
vt 1.343245 1.372874
s 1
usemtl fabric.001
f 2/1/1 5/2/2 3/3/3
f 1/4/4 9/5/5 2/1/1
f 2/1/1 10/6/6 5/2/2
f 7/7/7 11/8/8 6/9/9
f 10/6/6 12/10/10 11/8/8
f 8/11/11 13/12/12 9/5/5
f 9/5/5 14/13/13 10/6/6
f 14/13/13 13/12/12 15/14/14
f 12/15/10 15/16/14 16/17/15
f 8/18/11 17/19/16 18/20/17
f 15/21/14 18/20/17 19/22/18
f 19/22/18 20/23/19 21/24/20
f 16/17/15 21/25/20 22/26/21
f 18/20/17 17/19/16 23/27/22
f 23/27/22 26/28/23 24/29/24
f 24/29/24 26/28/23 25/30/25
f 28/31/26 30/32/27 26/28/23
f 29/33/28 32/34/29 25/30/25
f 17/19/16 1/35/4 31/36/30
f 27/37/31 33/38/32 28/31/26
f 33/38/32 34/39/33 30/32/27
f 34/40/33 35/41/34 32/42/29
f 34/40/33 33/43/32 36/44/35
f 33/38/32 31/36/30 37/45/36
f 35/41/34 38/46/37 39/47/38
f 36/44/35 37/48/36 38/46/37
f 38/46/37 37/48/36 40/49/39
f 40/50/39 2/1/1 3/3/3
f 39/47/38 3/51/3 4/52/40
f 3/3/3 5/2/2 4/53/40
f 37/54/36 1/4/4 2/1/1
f 25/30/25 46/55/41 45/56/42
f 25/30/25 47/57/43 46/55/41
f 16/58/15 43/59/44 12/60/10
f 6/9/9 42/61/45 41/62/46
f 4/53/40 50/63/47 39/64/38
f 32/34/29 48/65/48 47/57/43
f 25/30/25 45/56/42 22/66/21
f 22/66/21 44/67/49 16/58/15
f 11/8/8 43/68/44 42/61/45
f 39/69/38 48/65/48 35/70/34
f 47/71/43 72/72/50 71/73/51
f 43/59/44 59/74/52 58/75/53
f 47/71/43 73/76/54 72/72/50
f 47/71/43 74/77/55 73/76/54
f 44/67/49 60/78/56 43/59/44
f 48/79/48 75/80/57 74/77/55
f 49/81/58 77/82/59 48/65/48
f 45/83/42 64/84/60 44/85/49
f 41/86/46 52/87/61 51/88/62
f 41/86/46 53/89/63 52/87/61
f 50/90/47 79/91/64 49/81/58
f 42/92/45 54/93/65 53/89/63
f 45/83/42 68/94/66 67/95/67
f 42/92/45 55/96/68 54/93/65
f 46/97/41 69/98/69 68/94/66
f 42/92/45 56/99/70 55/96/68
f 41/86/46 82/100/71 50/90/47
f 46/97/41 70/101/72 69/98/69
f 42/92/45 57/102/73 56/99/70
f 47/71/43 71/73/51 70/101/72
f 43/59/44 58/75/53 57/102/73
f 4/53/40 5/2/2 6/9/9
f 5/2/2 7/7/7 6/9/9
f 2/1/1 9/5/5 10/6/6
f 5/2/2 10/6/6 7/7/7
f 7/7/7 10/6/6 11/8/8
f 10/6/6 14/13/13 12/10/10
f 1/4/4 8/11/11 9/5/5
f 9/5/5 13/12/12 14/13/13
f 12/15/10 14/103/13 15/16/14
f 8/18/11 1/35/4 17/19/16
f 13/104/12 8/18/11 18/20/17
f 15/21/14 13/104/12 18/20/17
f 16/17/15 15/16/14 19/105/18
f 19/22/18 18/20/17 20/23/19
f 16/17/15 19/105/18 21/25/20
f 20/23/19 18/20/17 23/27/22
f 21/24/20 20/23/19 24/29/24
f 22/66/21 21/24/20 24/29/24
f 22/66/21 24/29/24 25/30/25
f 24/29/24 20/23/19 23/27/22
f 17/19/16 27/37/31 23/27/22
f 23/27/22 28/31/26 26/28/23
f 26/28/23 29/33/28 25/30/25
f 26/28/23 30/32/27 29/33/28
f 23/27/22 27/37/31 28/31/26
f 17/19/16 31/36/30 27/37/31
f 29/33/28 30/32/27 32/34/29
f 28/31/26 33/38/32 30/32/27
f 30/106/27 34/40/33 32/42/29
f 27/37/31 31/36/30 33/38/32
f 35/41/34 34/40/33 36/44/35
f 36/44/35 33/43/32 37/48/36
f 35/41/34 36/44/35 38/46/37
f 39/47/38 38/46/37 40/49/39
f 40/50/39 37/54/36 2/1/1
f 37/54/36 31/107/30 1/4/4
f 39/64/38 40/50/39 3/3/3
f 32/34/29 35/70/34 48/65/48
f 25/30/25 32/34/29 47/57/43
f 16/58/15 44/67/49 43/59/44
f 39/64/38 50/63/47 49/108/58
f 4/53/40 6/9/9 41/62/46
f 22/66/21 45/56/42 44/67/49
f 6/9/9 11/8/8 42/61/45
f 4/53/40 41/62/46 50/63/47
f 11/8/8 12/10/10 43/68/44
f 39/69/38 49/81/58 48/65/48
f 43/59/44 60/78/56 59/74/52
f 47/71/43 48/79/48 74/77/55
f 44/67/49 61/109/74 60/78/56
f 44/110/49 62/111/75 61/112/74
f 48/79/48 76/113/76 75/80/57
f 44/110/49 63/114/77 62/111/75
f 48/65/48 77/82/59 76/115/76
f 44/85/49 64/84/60 63/116/77
f 49/81/58 78/117/78 77/82/59
f 45/83/42 65/118/79 64/84/60
f 49/81/58 79/91/64 78/117/78
f 45/83/42 66/119/80 65/118/79
f 41/86/46 42/92/45 53/89/63
f 50/90/47 80/120/81 79/91/64
f 45/83/42 67/95/67 66/119/80
f 50/90/47 81/121/82 80/120/81
f 45/83/42 46/97/41 68/94/66
f 50/90/47 82/100/71 81/121/82
f 41/86/46 51/88/62 82/100/71
f 46/97/41 47/71/43 70/101/72
f 42/92/45 43/59/44 57/102/73
f 95/122/83 192/123/84 163/124/85
f 119/125/86 225/126/87 161/127/88
f 104/128/89 251/129/90 93/130/91
f 291/131/92 125/132/93 194/133/94
f 102/134/95 92/135/96 250/136/97
f 220/137/98 288/138/99 289/139/100
f 221/140/101 176/141/102 137/142/103
f 193/143/104 124/144/105 151/145/106
f 285/146/107 184/147/108 274/148/109
f 158/149/110 233/150/111 159/151/112
f 135/152/113 100/153/114 158/149/110
f 199/154/115 214/155/116 276/156/117
f 200/157/118 278/158/119 128/159/120
f 234/160/121 201/161/122 235/162/123
f 270/163/124 193/143/104 201/164/122
f 201/164/122 193/143/104 140/165/125
f 268/166/126 137/167/103 127/168/127
f 136/169/128 202/170/129 237/171/130
f 238/172/131 160/173/132 213/174/133
f 267/175/134 238/172/131 239/176/135
f 205/177/136 266/178/137 265/179/138
f 264/180/139 265/179/138 130/181/140
f 230/182/141 103/183/142 207/184/143
f 258/185/144 113/186/145 153/187/146
f 248/188/147 106/189/148 195/190/149
f 145/191/150 209/192/151 255/193/152
f 254/194/153 208/195/154 291/131/92
f 254/196/153 291/197/92 146/198/155
f 252/199/156 186/200/157 120/201/158
f 105/202/159 115/203/160 148/204/161
f 250/205/97 131/206/162 115/207/160
f 149/208/163 249/209/164 220/137/98
f 245/210/165 218/211/166 121/212/167
f 132/213/168 295/214/169 151/215/106
f 180/216/170 163/217/85 138/218/171
f 138/218/171 211/219/172 111/220/173
f 111/221/173 150/222/174 177/223/175
f 244/224/176 173/225/177 285/226/107
f 110/227/178 151/215/106 294/228/179
f 246/229/180 245/230/165 109/231/181
f 176/232/102 246/233/180 232/234/182
f 272/235/183 110/236/178 246/233/180
f 160/237/132 245/230/165 175/238/184
f 109/231/181 245/230/165 160/237/132
f 110/236/178 294/239/179 218/211/166
f 243/240/185 292/241/186 247/242/187
f 292/243/186 162/244/188 126/245/189
f 287/246/190 174/247/191 243/240/185
f 174/247/191 133/248/192 243/240/185
f 126/245/189 220/249/98 248/250/147
f 126/245/189 248/250/147 94/251/193
f 247/242/187 126/252/189 266/178/137
f 125/253/93 105/254/159 104/255/89
f 147/256/194 93/130/91 114/257/195
f 174/258/191 152/259/196 133/260/192
f 194/133/94 147/256/194 152/259/196
f 216/261/197 254/196/153 146/198/155
f 230/182/141 145/262/150 103/183/142
f 87/263/198 242/264/199 230/265/141
f 134/266/200 99/267/201 242/268/199
f 103/269/142 255/193/152 174/258/191
f 242/268/199 146/198/155 209/270/151
f 256/271/202 191/272/203 144/273/204
f 179/274/205 191/275/203 256/276/202
f 116/277/206 228/278/207 191/275/203
f 257/279/208 256/276/202 208/195/154
f 90/280/209 256/276/202 257/279/208
f 208/195/154 143/281/210 125/132/93
f 195/190/149 258/282/144 108/283/211
f 113/284/145 187/285/212 215/286/213
f 154/287/214 185/288/215 167/289/216
f 261/290/217 260/291/218 190/292/219
f 83/293/220 227/294/221 164/295/222
f 190/296/219 263/297/223 227/298/221
f 296/299/224 89/300/225 178/301/226
f 118/302/227 264/180/139 240/303/228
f 230/182/141 207/184/143 264/180/139
f 206/304/229 107/305/230 262/306/231
f 224/307/232 262/306/231 171/308/233
f 130/181/140 206/304/229 224/307/232
f 97/309/234 240/303/228 183/310/235
f 265/311/138 107/312/230 206/313/229
f 265/179/138 266/178/137 107/305/230
f 267/175/134 232/234/182 238/172/131
f 229/314/236 165/315/237 86/316/238
f 127/168/127 267/175/134 122/317/239
f 155/318/240 213/319/133 166/320/241
f 101/321/242 239/176/135 189/322/243
f 239/176/135 238/172/131 155/323/240
f 156/324/244 136/169/128 204/325/245
f 185/288/215 156/326/244 141/327/246
f 288/328/99 136/169/128 156/324/244
f 117/329/247 141/330/246 96/331/248
f 96/332/248 236/333/249 182/334/250
f 236/335/249 204/325/245 268/166/126
f 201/164/122 140/165/125 203/336/251
f 271/337/252 235/162/123 202/338/129
f 249/339/164 271/340/252 136/169/128
f 249/209/164 234/160/121 271/337/252
f 273/341/253 272/235/183 176/232/102
f 235/162/123 203/342/251 273/343/253
f 273/341/253 203/336/251 272/235/183
f 197/344/254 275/345/255 139/346/256
f 276/347/117 168/348/257 277/349/258
f 168/350/257 88/351/259 132/352/168
f 282/353/260 279/354/261 280/355/262
f 112/356/263 198/357/264 281/358/265
f 281/358/265 198/357/264 193/143/104
f 120/359/158 186/360/157 281/361/265
f 112/356/263 157/362/266 198/357/264
f 139/346/256 157/362/266 112/356/263
f 225/126/87 158/149/110 159/151/112
f 159/151/112 284/363/267 279/354/261
f 251/364/90 282/365/260 93/366/91
f 159/367/112 282/365/260 251/364/90
f 283/368/268 138/369/171 297/370/269
f 100/153/114 283/368/268 158/149/110
f 284/363/267 139/346/256 112/356/263
f 284/363/267 197/344/254 139/346/256
f 274/148/109 184/147/108 200/371/118
f 203/342/251 286/372/270 110/227/178
f 237/373/130 221/140/101 137/142/103
f 160/173/132 129/374/271 181/375/272
f 287/246/190 247/242/187 205/177/136
f 103/183/142 287/246/190 207/184/143
f 195/190/149 108/283/211 296/376/224
f 260/291/218 94/251/193 241/377/273
f 290/378/274 250/136/97 105/202/159
f 144/379/204 102/134/95 290/378/274
f 291/131/92 194/133/94 209/192/151
f 115/207/160 161/380/88 148/381/161
f 98/382/275 119/125/86 161/127/88
f 231/383/276 234/384/121 149/385/163
f 243/386/185 133/260/192 292/243/186
f 292/243/186 252/199/156 162/244/188
f 294/239/179 293/387/277 188/388/278
f 151/145/106 295/389/169 294/239/179
f 163/390/85 210/391/279 211/392/172
f 95/122/83 165/315/237 192/123/84
f 231/383/276 252/199/156 120/201/158
f 295/389/169 132/393/168 293/387/277
f 132/213/168 88/394/259 293/395/277
f 92/135/96 123/396/280 172/397/281
f 103/183/142 174/247/191 287/246/190
f 286/398/270 193/143/104 151/145/106
f 138/369/171 170/399/282 91/400/283
f 285/146/107 173/401/177 184/147/108
f 284/363/267 177/223/175 197/344/254
f 177/223/175 196/402/284 197/344/254
f 283/368/268 217/403/285 170/399/282
f 297/404/269 138/218/171 177/405/175
f 110/236/178 272/235/183 203/336/251
f 158/149/110 297/370/269 233/150/111
f 278/158/119 199/406/115 276/347/117
f 275/407/255 200/157/118 128/159/120
f 128/159/120 278/158/119 276/347/117
f 196/408/284 150/409/174 274/410/109
f 260/291/218 262/411/231 107/312/230
f 271/337/252 234/160/121 235/162/123
f 235/162/123 201/161/122 203/342/251
f 270/163/124 281/358/265 193/143/104
f 268/166/126 204/325/245 137/167/103
f 204/325/245 237/171/130 137/167/103
f 155/323/240 238/172/131 213/174/133
f 213/174/133 160/173/132 181/375/272
f 232/234/182 246/233/180 109/412/181
f 205/177/136 247/242/187 266/178/137
f 264/180/139 205/177/136 265/179/138
f 260/291/218 241/377/273 263/413/223
f 253/414/286 147/256/194 114/257/195
f 154/287/214 289/139/100 185/288/215
f 289/139/100 288/138/99 185/288/215
f 258/185/144 142/415/287 113/186/145
f 255/193/152 209/192/151 194/133/94
f 254/194/153 257/279/208 208/195/154
f 253/414/286 186/200/157 252/199/156
f 253/414/286 114/257/195 186/200/157
f 149/385/163 126/245/189 162/244/188
f 148/381/161 161/380/88 159/367/112
f 251/364/90 148/381/161 159/367/112
f 115/207/160 131/206/162 98/416/275
f 149/208/163 234/160/121 249/209/164
f 126/245/189 149/385/163 220/249/98
f 218/417/166 294/228/179 188/418/278
f 210/419/279 192/420/84 219/421/288
f 210/419/279 219/421/288 244/224/176
f 111/221/173 211/392/172 150/222/174
f 180/216/170 95/422/83 163/217/85
f 138/218/171 163/217/85 211/219/172
f 91/400/283 222/423/289 138/369/171
f 222/424/289 180/216/170 138/218/171
f 177/223/175 150/222/174 196/402/284
f 150/409/174 210/419/279 244/224/176
f 150/409/174 244/224/176 285/226/107
f 257/425/208 169/426/290 90/427/209
f 110/227/178 286/372/270 151/215/106
f 151/215/106 124/428/105 132/213/168
f 176/232/102 272/235/183 246/233/180
f 175/429/184 245/210/165 121/212/167
f 245/230/165 110/227/178 218/417/166
f 247/242/187 292/241/186 126/252/189
f 287/246/190 243/240/185 247/242/187
f 248/188/147 220/137/98 106/189/148
f 220/137/98 249/209/164 288/138/99
f 105/202/159 250/136/97 115/203/160
f 250/136/97 92/135/96 131/430/162
f 104/128/89 105/202/159 148/204/161
f 104/128/89 148/204/161 251/129/90
f 147/256/194 194/133/94 93/130/91
f 194/431/94 104/255/89 93/366/91
f 194/431/94 125/253/93 104/255/89
f 133/260/192 152/259/196 253/414/286
f 174/258/191 255/193/152 152/259/196
f 255/193/152 194/133/94 152/259/196
f 133/260/192 253/414/286 252/199/156
f 99/267/201 216/261/197 146/198/155
f 216/261/197 169/426/290 254/196/153
f 142/432/287 195/190/149 106/189/148
f 230/182/141 242/268/199 145/262/150
f 87/433/198 134/434/200 242/435/199
f 242/268/199 99/267/201 146/198/155
f 103/269/142 145/191/150 255/193/152
f 145/262/150 242/268/199 209/270/151
f 209/270/151 146/198/155 291/197/92
f 179/274/205 116/277/206 191/275/203
f 116/436/206 84/437/291 228/438/207
f 208/195/154 256/276/202 143/281/210
f 90/280/209 179/274/205 256/276/202
f 125/253/93 143/439/210 290/440/274
f 125/253/93 290/440/274 105/254/159
f 143/281/210 256/276/202 144/379/204
f 143/439/210 144/273/204 290/440/274
f 153/187/146 108/441/211 258/185/144
f 94/251/193 248/250/147 195/442/149
f 153/187/146 113/186/145 215/443/213
f 178/301/226 263/413/223 296/299/224
f 113/186/145 259/444/292 187/445/212
f 187/445/212 259/444/292 154/446/214
f 259/447/292 289/139/100 154/287/214
f 171/308/233 262/306/231 261/448/217
f 263/413/223 241/377/273 296/299/224
f 164/449/222 263/413/223 212/450/293
f 232/234/182 137/167/103 176/232/102
f 190/292/219 260/291/218 263/413/223
f 296/299/224 108/441/211 89/300/225
f 264/451/139 207/452/143 205/453/136
f 118/454/227 230/265/141 264/455/139
f 118/454/227 87/263/198 230/265/141
f 130/181/140 265/179/138 206/304/229
f 224/307/232 206/304/229 262/306/231
f 130/181/140 183/310/235 240/303/228
f 130/181/140 240/303/228 264/180/139
f 266/456/137 126/245/189 94/251/193
f 107/312/230 266/456/137 94/251/193
f 238/172/131 232/234/182 109/412/181
f 226/457/294 166/320/241 85/458/295
f 122/317/239 267/175/134 239/176/135
f 127/168/127 137/167/103 267/175/134
f 155/318/240 189/459/243 239/460/135
f 204/325/245 141/330/246 156/324/244
f 268/166/126 182/461/250 236/335/249
f 204/325/245 136/169/128 237/171/130
f 185/462/215 288/328/99 156/324/244
f 288/328/99 249/339/164 136/169/128
f 96/331/248 141/330/246 236/335/249
f 167/289/216 185/288/215 141/327/246
f 167/289/216 141/327/246 117/463/247
f 223/464/296 268/166/126 127/168/127
f 269/465/297 231/466/276 270/467/124
f 234/160/121 269/468/297 201/161/122
f 269/468/297 270/469/124 201/161/122
f 281/361/265 231/466/276 120/359/158
f 273/343/253 202/338/129 235/162/123
f 136/169/128 271/340/252 202/170/129
f 221/140/101 273/343/253 176/141/102
f 200/371/118 196/402/284 274/148/109
f 132/213/168 128/159/120 277/349/258
f 197/344/254 196/402/284 275/345/255
f 128/159/120 276/347/117 277/349/258
f 128/159/120 139/470/256 275/407/255
f 112/356/263 279/354/261 284/363/267
f 277/349/258 168/348/257 132/213/168
f 276/347/117 214/471/116 168/348/257
f 280/355/262 279/354/261 186/200/157
f 278/158/119 184/472/108 199/406/115
f 93/366/91 280/473/262 186/474/157
f 93/366/91 282/365/260 280/473/262
f 281/358/265 186/200/157 112/356/263
f 157/475/266 128/159/120 124/428/105
f 198/476/264 157/475/266 124/428/105
f 161/127/88 225/126/87 159/151/112
f 225/126/87 135/152/113 158/149/110
f 159/151/112 233/150/111 284/363/267
f 282/477/260 159/478/112 279/479/261
f 233/150/111 177/223/175 284/363/267
f 233/150/111 297/370/269 177/223/175
f 158/149/110 283/368/268 297/370/269
f 100/153/114 217/403/285 283/368/268
f 259/444/292 142/415/287 289/480/100
f 150/409/174 285/226/107 274/410/109
f 203/336/251 140/165/125 286/398/270
f 193/143/104 198/357/264 124/144/105
f 237/373/130 202/338/129 221/140/101
f 238/172/131 109/412/181 160/173/132
f 207/184/143 287/246/190 205/177/136
f 94/251/193 195/442/149 296/299/224
f 241/377/273 94/251/193 296/299/224
f 107/312/230 94/251/193 260/291/218
f 289/480/100 106/481/148 220/249/98
f 186/200/157 114/257/195 93/130/91
f 290/378/274 102/134/95 250/136/97
f 144/379/204 191/275/203 102/134/95
f 291/131/92 208/195/154 125/132/93
f 115/207/160 98/416/275 161/380/88
f 162/244/188 231/383/276 149/385/163
f 292/241/186 133/248/192 252/482/156
f 294/239/179 295/389/169 293/387/277
f 163/390/85 192/483/84 210/391/279
f 229/314/236 192/123/84 165/315/237
f 231/383/276 162/244/188 252/199/156
f 92/135/96 102/134/95 123/396/280
f 175/238/184 129/484/271 160/237/132
f 286/398/270 140/165/125 193/143/104
f 138/369/171 283/368/268 170/399/282
f 177/405/175 138/218/171 111/220/173
f 260/291/218 261/290/217 262/411/231
f 253/414/286 152/259/196 147/256/194
f 110/227/178 245/230/165 246/229/180
f 150/222/174 211/392/172 210/391/279
f 257/425/208 254/196/153 169/426/290
f 142/432/287 258/282/144 195/190/149
f 153/187/146 89/300/225 108/441/211
f 178/301/226 212/450/293 263/413/223
f 164/449/222 227/485/221 263/413/223
f 232/486/182 267/487/134 137/142/103
f 226/457/294 155/318/240 166/320/241
f 155/318/240 226/457/294 189/459/243
f 204/325/245 236/335/249 141/330/246
f 268/166/126 223/464/296 182/461/250
f 269/465/297 234/488/121 231/466/276
f 281/361/265 270/467/124 231/466/276
f 273/343/253 221/140/101 202/338/129
f 200/371/118 275/345/255 196/402/284
f 132/213/168 124/428/105 128/159/120
f 128/489/120 157/362/266 139/346/256
f 112/356/263 186/200/157 279/354/261
f 278/158/119 200/157/118 184/472/108
f 259/444/292 113/186/145 142/415/287
f 289/480/100 142/415/287 106/481/148
usemtl drewno
f 298/490/298 301/491/298 300/492/298
f 300/492/299 304/491/300 303/493/301
f 308/494/302 310/495/302 299/496/302
f 307/497/303 298/498/304 303/499/301
f 309/500/305 310/501/306 312/502/307
f 299/496/308 309/503/308 301/491/308
f 304/504/309 309/505/310 311/506/311
f 307/497/312 310/507/312 308/508/312
f 301/508/313 309/505/313 302/497/313
f 306/494/314 311/509/315 312/510/307
f 305/496/316 316/511/317 315/512/318
f 299/496/319 316/511/320 313/513/321
f 301/491/322 313/513/322 299/496/322
f 302/497/323 315/514/324 314/515/325
f 308/508/326 316/516/326 307/497/326
f 302/497/327 313/517/327 301/508/327
f 298/490/328 299/496/328 301/491/328
f 300/518/329 301/508/329 302/497/329
f 300/518/330 302/497/330 304/504/330
f 304/491/300 305/496/331 303/493/301
f 305/496/331 306/494/332 303/493/301
f 306/504/332 307/497/333 303/499/301
f 307/497/303 308/508/334 298/498/304
f 298/490/335 308/494/335 299/496/335
f 298/519/304 300/520/299 303/521/301
f 311/522/315 309/500/305 312/502/307
f 299/496/336 310/495/306 309/503/305
f 304/504/309 302/497/337 309/505/310
f 307/497/338 306/504/339 312/523/307
f 305/496/340 304/491/341 311/509/315
f 307/497/338 312/523/307 310/507/306
f 306/494/314 305/496/340 311/509/315
f 305/496/316 306/494/342 316/511/317
f 299/496/319 308/494/343 316/511/320
f 302/497/323 304/504/344 315/514/324
f 306/504/342 307/497/345 316/516/317
f 304/491/344 305/496/346 315/512/324
f 302/497/347 314/515/347 313/517/347
