# Blender 5.1.2
# www.blender.org
mtllib couch2.mtl
o Cube.002
v 0.790860 -0.306719 -0.449437
v 0.790860 -0.306719 1.450563
v 0.790860 0.493281 1.450563
v -1.409141 -0.306719 -0.449437
v -1.409141 0.493281 -0.449437
v -1.409141 1.235614 -1.240100
v 1.590860 -0.306719 -1.249436
v 0.790860 -0.306719 -0.449437
v 0.790860 -0.306719 1.450563
v -1.409141 -0.306719 -0.449437
v 1.510860 0.340031 -1.176036
v 1.510860 1.176670 -1.176036
v 0.790860 0.299022 1.450563
v 0.790860 0.381040 1.450563
v -1.409141 0.299022 -0.449437
v -1.409141 0.381040 -0.449437
v 0.790860 0.093281 1.450563
v 1.590860 -0.306719 1.450564
v 0.790860 -0.306719 0.500564
v -1.409141 0.093281 -0.449437
v -0.309140 -0.306719 -0.449437
v -1.409141 -0.306719 -0.449437
v 0.790860 -0.306719 0.500564
v -0.309140 -0.306719 -0.449437
v 0.790860 -0.306719 1.450563
v 0.790860 -0.306719 -0.449437
v -1.453611 -0.306719 -0.449437
v 0.790860 0.340031 1.450563
v -1.409141 0.340031 -0.449437
v 0.790860 0.299022 -0.449437
v -1.409141 -0.003848 -0.449437
v 0.790860 -0.003848 1.450563
v 0.790860 0.437161 1.450563
v -1.409141 0.437161 -0.449437
v -0.309140 -0.306719 -0.449437
v 0.790860 -0.306719 0.500564
v 0.790860 0.293281 1.450563
v 0.790860 -0.306719 0.975564
v -1.409141 0.293281 -0.449437
v -0.859140 -0.306719 -0.449437
v -1.409141 -0.306719 -0.449437
v 0.790860 -0.306719 0.975564
v -0.859140 -0.306719 -0.449437
v 0.790860 -0.306719 1.450563
v 0.790860 -0.306719 -0.449437
v 0.790860 0.360536 1.450563
v -1.409141 0.319527 -0.449437
v 0.790860 0.299022 0.975564
v -1.409141 -0.155284 -0.449437
v 0.790860 0.147587 1.450563
v 0.790860 0.465221 1.450563
v -1.409141 0.409100 -0.449437
v 0.790860 -0.106719 1.450563
v 0.790860 -0.306719 0.025563
v -1.409141 -0.106719 -0.449437
v -1.409141 -0.306719 -1.249436
v 0.240860 -0.306719 -0.449437
v -1.409141 -0.306719 -0.449437
v -1.409141 0.493281 -1.176036
v 1.510860 0.340031 1.450564
v 1.577065 1.237456 1.450564
v 0.790860 -0.306719 0.025563
v 0.240860 -0.306719 -0.449437
v 0.790860 -0.306719 1.450563
v 0.790860 -0.306719 -0.449437
v -1.409141 1.176670 -1.176036
v 1.510860 1.176670 1.450564
v 1.583549 1.235196 -1.241924
v 0.811472 0.335252 1.450609
v 0.790860 0.319527 1.450563
v -1.409141 0.360536 -0.449437
v -1.409151 0.336716 -0.474145
v 0.815084 0.336780 -0.471813
v -0.859140 0.299022 -0.449437
v -1.409141 0.147587 -0.449437
v -1.409141 0.340031 -1.176036
v 0.790860 -0.155284 1.450563
v 0.790860 0.409100 1.450563
v -1.409141 0.465221 -0.449437
v -0.309140 -0.306719 -0.449437
v -0.309140 -0.306719 -0.449437
v -0.859140 -0.306719 -0.449437
v 0.240860 -0.306719 -0.449437
v 0.790860 -0.306719 0.500564
v 0.790860 -0.306719 0.500564
v 0.790860 -0.306719 0.025563
v 0.790860 -0.306719 0.975564
v -1.409141 -0.306719 -1.176036
v 0.790860 -0.306719 0.975564
v 0.790860 -0.306719 0.025563
v 0.790860 -0.306719 0.025563
v 0.240860 -0.306719 -0.449437
v -0.859140 -0.306719 -0.449437
v -0.859140 -0.306719 -0.449437
v -1.453611 0.493281 -0.449437
v -1.453611 -0.306719 -1.176036
v -1.453611 0.493281 -1.176036
v 0.240860 -0.306719 -0.449437
v 0.790860 -0.306719 0.975564
v 0.790860 0.393281 1.450563
v 1.590860 -0.306719 0.100564
v 0.790860 -0.306719 1.213063
v -1.409141 -0.306719 -0.812736
v -1.409141 0.393281 -0.449437
v -1.409141 0.864448 -1.208068
v -1.134140 -0.306719 -0.449437
v -1.409141 -0.306719 -0.449437
v 0.790860 -0.306719 1.213063
v -1.134140 -0.306719 -0.449437
v 0.790860 -0.306719 1.450563
v 0.790860 -0.306719 -0.449437
v 0.050859 1.176670 -1.176036
v -1.431376 -0.306719 -0.449437
v 0.801166 0.317137 1.450586
v 0.790860 0.370788 1.450563
v -1.409141 0.309274 -0.449437
v 0.790860 0.299022 1.213063
v -1.409141 -0.231001 -0.449437
v 0.790860 0.223305 1.450563
v 0.790860 0.479251 1.450563
v -1.409141 0.395070 -0.449437
v 0.790860 -0.006719 1.450563
v 0.790860 -0.306719 0.263063
v -1.409141 -0.006719 -0.449437
v -0.034140 -0.306719 -0.449437
v -1.409141 -0.306719 -0.449437
v 1.587204 0.464238 -1.245680
v 0.790860 -0.306719 0.263063
v -0.034140 -0.306719 -0.449437
v 1.510860 0.340031 0.137264
v 0.790860 -0.306719 1.450563
v 0.790860 -0.306719 -0.449437
v 0.790860 0.329779 1.450563
v -1.409141 0.350284 -0.449437
v -0.034140 0.299022 -0.449437
v -1.409141 0.071869 -0.449437
v -1.409145 0.338373 -0.825090
v 0.790860 -0.079566 1.450563
v 0.790860 0.423131 1.450563
v -1.409141 0.451191 -0.449437
v -1.431376 -0.306719 -0.812736
v -0.309140 -0.306719 -0.449437
v -0.309140 -0.306719 -0.449437
v -1.134140 -0.306719 -0.449437
v -0.034140 -0.306719 -0.449437
v 0.790860 -0.306719 0.500564
v 0.790860 -0.306719 0.500564
v 0.790860 -0.306719 -0.211936
v 0.790860 -0.306719 0.738064
v 0.790860 0.193281 1.450563
v 0.790860 -0.306719 0.738064
v -1.409141 0.193281 -0.449437
v -0.584140 -0.306719 -0.449437
v -1.409141 -0.306719 -0.449437
v 0.790860 -0.306719 0.738064
v -0.584140 -0.306719 -0.449437
v 0.790860 -0.306719 1.450563
v 0.790860 -0.306719 -0.449437
v -1.409141 0.834976 -1.176036
v 0.790860 0.350284 1.450563
v -1.409141 0.329779 -0.449437
v 0.790860 0.299022 0.263064
v -0.297033 0.336748 -0.472979
v -1.409141 -0.079566 -0.449437
v 0.790860 0.071869 1.450563
v 1.161166 0.337642 1.450586
v 0.790860 0.451191 1.450563
v -1.409141 0.423131 -0.449437
v 0.790860 -0.206719 1.450563
v 0.790860 -0.306719 -0.211936
v -1.409141 -0.206719 -0.449437
v -1.409141 0.464448 -1.244768
v 0.515860 -0.306719 -0.449437
v -1.409141 -0.306719 -0.449437
v -1.409141 0.493281 -0.812736
v 1.190860 -0.306719 -0.849437
v 1.190860 -0.306719 1.450564
v 1.543962 0.788744 1.450564
v 0.790860 -0.306719 -0.211936
v 0.515860 -0.306719 -0.449437
v 0.790860 -0.306719 1.450563
v 0.790860 -0.306719 -0.449437
v 1.510860 1.176670 0.137264
v 0.790860 0.309274 1.450563
v -1.409141 0.370788 -0.449437
v -1.409145 0.317869 -0.461791
v -1.409145 0.358878 -0.461791
v 0.813278 0.336016 0.489398
v -1.134140 0.299022 -0.449437
v 0.790860 -0.003848 -0.449437
v -1.409141 0.223305 -0.449437
v 0.790860 -0.231001 1.450563
v 0.790860 0.395070 1.450563
v -1.409141 0.479251 -0.449437
v -1.409145 0.338373 -0.461791
v -1.431376 0.493281 -1.176036
v 1.580307 1.236326 0.104320
v -1.431376 0.293281 -0.449437
v -0.309140 -0.306719 -0.449437
v -0.309140 -0.306719 -0.449437
v -0.584140 -0.306719 -0.449437
v 0.515860 -0.306719 -0.449437
v 0.790860 -0.306719 0.500564
v 0.790860 -0.306719 0.500564
v 0.790860 -0.306719 0.263063
v 0.790860 -0.306719 1.213063
v -0.859140 -0.306719 -0.812736
v -1.409141 0.093281 -1.176036
v 0.090859 -0.306719 -1.212736
v -0.584140 -0.306719 -0.812736
v 1.190860 -0.306719 0.738064
v 0.790860 -0.306719 0.975564
v 0.790860 -0.306719 0.975564
v 0.790860 -0.306719 0.738064
v 0.790860 -0.306719 1.213063
v 0.790860 -0.306719 0.025563
v 0.790860 -0.306719 0.025563
v 0.790860 -0.306719 -0.211936
v 0.790860 -0.306719 0.263063
v 0.790860 -0.306719 0.025563
v 0.790860 -0.306719 0.025563
v 0.790860 -0.306719 -0.211936
v 0.790860 -0.306719 0.263063
v 0.240860 -0.306719 -0.449437
v 0.240860 -0.306719 -0.449437
v -0.034140 -0.306719 -0.449437
v 0.515860 -0.306719 -0.449437
v -0.859140 -0.306719 -0.449437
v -0.859140 -0.306719 -0.449437
v -1.134140 -0.306719 -0.449437
v -0.584140 -0.306719 -0.449437
v -0.859140 -0.306719 -0.449437
v -0.859140 -0.306719 -0.449437
v -1.134140 -0.306719 -0.449437
v -0.584140 -0.306719 -0.449437
v -1.431376 0.393281 -0.449437
v -1.453611 0.093281 -0.449437
v 0.087204 1.205933 -1.208980
v 1.543962 1.207063 0.137264
v -1.453611 -0.306719 -0.812736
v -1.431376 0.493281 -0.812736
v -1.453611 0.493281 -0.812736
v -1.409145 0.348626 -0.461791
v -1.409145 0.328121 -0.461791
v -1.453611 0.093281 -0.812736
v 0.240860 -0.306719 -0.449437
v 0.240860 -0.306719 -0.449437
v -0.034140 -0.306719 -0.449437
v 0.515860 -0.306719 -0.449437
v 0.790860 -0.306719 0.975564
v 0.790860 -0.306719 0.975564
v 0.790860 -0.306719 0.738064
v 0.790860 -0.306719 1.213063
v -1.409141 0.093281 -1.212736
v -1.134140 -0.306719 -0.812736
v 0.790860 -0.306719 1.213063
v 0.515860 -0.306719 -0.449437
v 0.087204 1.235405 -1.241012
v -1.409141 1.206142 -1.208068
v 1.543962 1.207063 1.450564
v 0.050859 0.340031 -1.176036
v -1.409141 0.416656 -1.176036
v 0.802972 0.317901 -0.460625
v -1.453611 0.093281 -1.176036
v 1.510860 0.758351 1.450564
v 1.547204 1.205933 -1.208980
v 1.162971 0.338406 -0.823925
v -0.584140 -0.306719 -0.449437
v -0.584140 -0.306719 -0.449437
v 0.515860 -0.306719 -0.449437
v 0.790860 -0.306719 0.263063
v 0.790860 -0.306719 0.263063
v 0.790860 -0.306719 1.213063
v 1.510860 0.758351 -1.176036
v 0.090859 -0.306719 -1.249436
v -1.409141 -0.306719 -1.212736
v 1.190860 -0.306719 0.975564
v 1.190860 -0.306719 1.213064
v 1.583962 0.465369 1.450564
v 0.790860 -0.306719 0.738064
v 0.790860 -0.306719 0.738064
v 0.790860 -0.306719 1.213063
v 0.790860 -0.306719 -0.211936
v 0.790860 -0.306719 -0.211936
v 0.790860 -0.306719 0.263063
v 0.790860 -0.306719 -0.211936
v 0.790860 -0.306719 -0.211936
v 0.790860 -0.306719 0.263063
v -0.034140 -0.306719 -0.449437
v -0.034140 -0.306719 -0.449437
v 0.515860 -0.306719 -0.449437
v -1.134140 -0.306719 -0.449437
v -1.134140 -0.306719 -0.449437
v -0.584140 -0.306719 -0.449437
v -1.134140 -0.306719 -0.449437
v -1.134140 -0.306719 -0.449437
v -0.584140 -0.306719 -0.449437
v -1.431376 0.493281 -0.449437
v -1.431376 -0.206719 -0.449437
v -1.431376 -0.306719 -1.176036
v -1.431376 0.093281 -1.176036
v -0.034140 -0.306719 -0.449437
v -0.034140 -0.306719 -0.449437
v 0.515860 -0.306719 -0.449437
v 0.790860 -0.306719 0.738064
v 0.790860 -0.306719 0.738064
v 0.790860 -0.306719 1.213063
v 0.089032 0.464343 -1.245224
v -1.431376 0.043281 -0.449437
v 1.585584 0.464804 0.102442
v 1.190860 -0.306719 -0.055686
v 0.303360 -0.306719 -0.831086
v 1.162069 0.338024 0.313331
v 1.510860 0.758351 0.137264
v -0.123087 0.338390 -0.824507
vn -0.0000 1.0000 -0.0000
vn 1.0000 -0.0000 -0.0004
vn -0.0000 -0.0000 -1.0000
vn 0.0005 0.7359 0.6771
vn -0.0000 -1.0000 -0.0000
vn -0.0000 -0.0000 1.0000
vn -0.6763 0.7366 -0.0000
vn -0.0000 1.0000 0.0047
vn -1.0000 -0.0000 -0.0000
vn 1.0000 -0.0000 -0.0000
vn -0.8692 0.4945 -0.0000
vn -0.0056 1.0000 0.0003
vn -0.6283 0.7779 -0.0022
vn -0.0000 0.5294 0.8484
vn 1.0000 0.0068 0.0012
vn -0.0003 0.0049 -1.0000
vn -0.0000 0.7476 0.6641
vn -0.0000 0.0049 -1.0000
vn -0.0000 0.0055 -1.0000
vn -0.0003 0.0055 -1.0000
vn 1.0000 0.0068 0.0024
vn 1.0000 0.0089 0.0024
vn 1.0000 0.0089 0.0012
vn -0.6283 0.7780 -0.0022
vn -0.0058 1.0000 -0.0000
vn -0.0047 1.0000 -0.0000
vn -0.0043 1.0000 0.0003
vn 1.0000 -0.0000 -0.0005
vn -0.0000 1.0000 0.0046
vn 1.0000 -0.0001 -0.0000
vn -0.8520 0.5236 -0.0012
vn -0.8417 0.5400 -0.0000
vn -0.8552 0.5183 -0.0000
vn -0.8622 0.5065 -0.0012
vn -0.0068 1.0000 0.0008
vn -0.0000 0.5098 0.8603
vn -0.0009 0.5249 0.8512
vn -0.0009 0.5390 0.8423
vn -0.0000 0.5482 0.8363
vn 1.0000 0.0047 -0.0000
vn -0.0006 0.0055 -1.0000
vn 0.0001 -0.0003 1.0000
vn -0.0022 -0.0000 1.0000
vn 0.0001 -0.0000 1.0000
vn -0.0001 -0.0000 1.0000
vn -0.0003 0.0061 -1.0000
vn -0.0006 0.0061 -1.0000
vn 1.0000 0.0047 0.0012
vn 1.0000 0.0068 -0.0000
vn -0.0068 1.0000 0.0003
vn -0.0054 1.0000 0.0008
vt 0.316550 0.405136
vt 0.316550 0.501826
vt 0.319058 0.500182
vt 0.317915 0.501826
vt 0.815289 0.858428
vt 0.815289 0.932773
vt 0.815289 0.942847
vt 0.316550 0.511594
vt 0.316550 0.424165
vt 0.322008 0.501826
vt 0.321787 0.500182
vt 0.323372 0.501826
vt 0.717596 0.398245
vt 0.713328 0.398253
vt 0.717596 0.199122
vt -0.000000 0.405136
vt 0.063210 0.351907
vt 0.094814 0.351907
vt -0.000000 0.351907
vt 0.031605 0.351907
vt 0.316550 0.528434
vt 0.319509 0.515130
vt 0.316550 0.541738
vt 0.316550 0.501826
vt 0.319509 0.501826
vt 0.316550 0.515130
vt 0.316550 0.581650
vt 0.319509 0.594954
vt 0.316550 0.594954
vt 0.359296 0.009902
vt 0.359298 0.005491
vt 0.534060 0.009795
vt 0.120186 0.000002
vt 0.240772 0.380857
vt 0.120386 0.440427
vt 0.358086 0.511594
vt 0.355128 0.458365
vt 0.358086 0.458365
vt 0.322468 0.501826
vt 0.325427 0.550171
vt 0.322468 0.550171
vt 0.324736 0.501826
vt 0.323151 0.500182
vt 0.326101 0.501826
vt 0.319279 0.501826
vt 0.320423 0.500182
vt 0.320643 0.501826
vt 0.342401 0.503900
vt 0.346664 0.454518
vt 0.347285 0.557119
vt 0.252838 0.079108
vt 0.252838 0.042513
vt 0.301183 0.042513
vt 0.342401 0.412978
vt 0.346664 0.409057
vt 0.342401 0.458439
vt 0.719477 0.765644
vt 0.719477 0.821297
vt 0.715072 0.761600
vt 0.342401 0.453481
vt 0.334933 0.501826
vt 0.333066 0.501826
vt 0.849056 0.295984
vt 0.838982 0.295984
vt 0.828909 0.259389
vt 0.916953 0.654080
vt 0.914516 0.654082
vt 0.919393 0.622472
vt 0.605430 0.936239
vt 0.489321 1.300756
vt 0.489321 0.936239
vt 0.349528 0.005918
vt 0.301183 0.002959
vt 0.349528 0.002959
vt 0.455987 0.893272
vt 0.407641 0.840053
vt 0.455987 0.840053
vt 0.570349 0.761098
vt 0.899517 0.880241
vt 0.510051 0.880546
vt 0.708824 0.009689
vt 0.534063 0.005385
vt 0.713210 0.004845
vt 0.605430 0.166487
vt 0.489322 0.571722
vt 0.373213 0.166487
vt 0.252838 0.225488
vt 0.252838 0.188893
vt 0.301183 0.115703
vt 0.919402 0.496053
vt 0.959704 0.401242
vt 0.999996 0.464454
vt 0.909496 0.222793
vt 0.909496 0.113008
vt 0.914584 0.147992
vt 0.303625 0.233805
vt 0.252838 0.298678
vt 0.252838 0.262083
vt 0.342401 0.610337
vt 0.342401 0.557119
vt 0.347285 0.610337
vt 0.306067 0.351907
vt 0.179648 0.405136
vt 0.200441 0.351907
vt 0.359296 0.405136
vt 0.354412 0.205527
vt 0.359296 0.205527
vt 0.914321 0.577909
vt 0.811727 0.757057
vt 0.811651 0.577659
vt 0.319509 0.561694
vt 0.316550 0.555042
vt 0.319509 0.528434
vt 0.102636 0.604988
vt 0.000056 0.406109
vt 0.102650 0.405622
vt 0.717596 -0.000000
vt 0.713328 0.199130
vt 0.355128 0.511594
vt 0.325427 0.501826
vt 0.252838 0.005918
vt 0.252838 0.002959
vt 0.301183 0.005918
vt 0.359296 0.893272
vt 0.359296 0.840053
vt 0.407641 0.893272
vt 0.252838 0.152298
vt 0.252838 0.115703
vt 0.301183 0.079108
vt 0.815289 0.869628
vt 0.815289 0.865895
vt 0.815289 0.881042
vt 0.359296 0.786835
vt 0.252838 -0.000000
vt 0.328386 0.550171
vt 0.328386 0.598517
vt 0.328386 0.501826
vt 0.352169 0.458365
vt 0.352169 0.405136
vt 0.352169 0.511594
vt 0.708943 0.203975
vt 0.709061 0.398261
vt 0.205244 0.604745
vt 0.205244 0.405136
vt 0.205244 0.804354
vt 0.102622 0.804354
vt 0.000028 0.605231
vt 0.322468 0.555042
vt 0.322468 0.501826
vt 0.322468 0.608258
vt 0.709133 0.756557
vt 0.708982 0.577409
vt 0.811576 0.398261
vt 0.708831 0.398261
vt 0.914321 0.398261
vt 0.354412 0.005918
vt 0.359296 0.005918
vt 0.189629 0.298678
vt 0.221233 0.298678
vt 0.352169 0.610337
vt 0.538448 0.000540
vt 0.359301 0.001080
vt 0.899508 1.000000
vt 0.449754 0.999995
vt 0.120586 0.880852
vt -0.000000 0.999990
vt 0.241171 0.761714
vt 0.407641 0.786835
vt 0.455987 0.786835
vt 0.301183 -0.000000
vt 0.349528 0.000000
vt 0.373213 1.300756
vt 0.373213 0.936239
vt 0.373213 0.571722
vt 0.605430 0.571722
vt 0.715072 0.817253
vt 0.710667 0.757557
vt 0.719477 0.876950
vt 0.350926 0.405136
vt 0.351547 0.507736
vt 0.321566 0.498538
vt 0.324516 0.500182
vt 0.327465 0.501826
vt 0.325427 0.598517
vt 0.322468 0.598517
vt 0.355128 0.405136
vt 0.358086 0.405136
vt -0.000000 0.499997
vt 0.000000 0.000004
vt 0.319509 0.608258
vt 0.316550 0.608258
vt 0.094814 0.298678
vt 0.126419 0.298678
vt 0.063210 0.298678
vt 0.031605 0.298678
vt 0.000000 0.298678
vt 0.158024 0.298678
vt 0.815289 0.869866
vt 0.815289 0.856562
vt 0.815289 0.860295
vt 0.815289 0.862161
vt 0.815289 0.864028
vt 0.815289 0.883170
vt 0.815289 0.896474
vt 0.815289 0.867761
vt 0.815289 0.909778
vt 0.815289 0.923082
vt 0.815289 0.871494
vt 0.815289 0.936386
vt 0.815289 0.872858
vt 0.815289 0.949690
vt 0.815289 0.874222
vt 0.815289 0.962994
vt 0.815289 0.875586
vt 0.815289 0.876950
vt 0.815289 0.878314
vt 0.815289 0.879678
vt 0.815289 0.882406
vt 0.815289 0.892479
vt 0.815289 0.902553
vt 0.815289 0.912626
vt 0.815289 0.952920
vt 0.815289 0.922700
vt 0.316550 0.498286
vt 0.316550 0.484979
vt 0.316550 0.471672
vt 0.316550 0.458365
vt 0.316550 0.445057
vt 0.316550 0.431750
vt 0.316550 0.501518
vt 0.316550 0.418443
vt 0.316550 0.491442
vt 0.316550 0.405136
vt 0.316550 0.481366
vt 0.316550 0.407003
vt 0.316550 0.471290
vt 0.316550 0.408870
vt 0.316550 0.461214
vt 0.316550 0.410737
vt 0.316550 0.451138
vt 0.316550 0.412604
vt 0.316550 0.441062
vt 0.316550 0.414471
vt 0.316550 0.430986
vt 0.316550 0.416338
vt 0.316550 0.429622
vt 0.316550 0.418205
vt 0.316550 0.428258
vt 0.316550 0.420072
vt 0.316550 0.426893
vt 0.316550 0.421436
vt 0.316550 0.425529
vt 0.316550 0.422800
vt 0.240373 -0.000000
vt 0.321787 0.451837
vt 0.322008 0.405136
vt 0.332204 0.405136
vt 0.342401 0.405136
vt 0.342401 0.501826
vt 0.340534 0.501826
vt 0.338667 0.501826
vt 0.329332 0.501826
vt 0.331199 0.501826
vt 0.336800 0.501826
vt 0.869201 0.003224
vt 0.909495 0.003223
vt 0.828908 0.076414
vt 0.828908 0.149604
vt 0.828908 0.113009
vt 0.828908 0.039819
vt 0.828907 0.003224
vt 0.909497 0.259388
vt 0.828909 0.222794
vt 0.909497 0.295983
vt 0.899423 0.295983
vt 0.889350 0.295983
vt 0.828908 0.186199
vt 0.879276 0.295983
vt 0.869203 0.295983
vt 0.859129 0.295984
vt 0.828909 0.295984
vt 0.914418 0.526172
vt 0.914321 0.398261
vt 0.916865 0.399750
vt 0.919409 0.401239
vt 0.919395 0.590867
vt 0.919391 0.654077
vt 0.605430 1.300756
vt 0.899526 0.760481
vt 0.373213 -0.238749
vt 0.468054 -0.238749
vt 0.562894 -0.238749
vt 0.584162 -0.238748
vt 0.605430 -0.238749
vt 0.999984 0.622478
vt 0.999982 0.654082
vt 0.989908 0.654082
vt 0.979834 0.654081
vt 0.999987 0.590873
vt 0.969760 0.654080
vt 0.959687 0.654080
vt 0.999989 0.559268
vt 0.999991 0.527663
vt 0.949613 0.654079
vt 0.999993 0.496059
vt 0.939539 0.654078
vt 0.929465 0.654078
vt 1.000000 0.401244
vt 0.999998 0.432849
vt 0.912040 0.001612
vt 0.914584 -0.000000
vt 0.914584 0.295985
vt 0.912041 0.295984
vt 0.914320 0.757557
vt 0.316550 0.568346
vt 0.762060 0.962994
vt 0.708831 0.962994
vt 0.709749 0.860275
vt 0.766011 0.877268
vt 0.812546 0.877586
vt 0.813918 0.879996
vt -0.000000 0.804354
s 0
usemtl kanapa.003
f 99/1/1 256/1/1 250/1/1
f 98/1/1 257/1/1 246/1/1
f 15/2/2 186/3/2 116/4/2
f 120/5/3 138/6/3 77/7/3
f 174/8/1 58/8/1 134/9/1
f 29/10/2 195/11/2 134/12/2
f 6/13/4 259/14/4 258/15/4
f 94/1/1 268/1/1 232/1/1
f 93/1/1 269/1/1 228/1/1
f 92/1/1 270/1/1 224/1/1
f 91/1/1 271/1/1 220/1/1
f 90/1/1 272/1/1 216/1/1
f 89/1/1 273/1/1 212/1/1
f 18/16/5 277/17/5 211/18/5
f 18/16/5 177/19/5 278/20/5
f 18/16/5 278/20/5 277/17/5
f 85/1/1 280/1/1 147/1/1
f 19/1/1 281/1/1 204/1/1
f 38/1/1 282/1/1 213/1/1
f 45/1/1 283/1/1 158/1/1
f 1/1/1 284/1/1 111/1/1
f 54/1/1 285/1/1 217/1/1
f 65/1/1 286/1/1 182/1/1
f 26/1/1 287/1/1 132/1/1
f 86/1/1 288/1/1 221/1/1
f 81/1/1 289/1/1 143/1/1
f 21/1/1 290/1/1 200/1/1
f 57/1/1 291/1/1 225/1/1
f 58/1/1 292/1/1 126/1/1
f 4/1/1 293/1/1 174/1/1
f 40/1/1 294/1/1 229/1/1
f 41/1/1 295/1/1 107/1/1
f 22/1/1 296/1/1 154/1/1
f 82/1/1 297/1/1 233/1/1
f 39/21/6 236/22/6 152/23/6
f 5/24/6 298/25/6 104/26/6
f 55/27/6 299/28/6 171/29/6
f 67/30/7 260/31/7 183/32/7
f 137/33/8 163/34/8 315/35/8
f 59/39/1 241/40/1 175/41/1
f 71/42/2 243/43/2 185/44/2
f 47/45/2 244/46/2 161/47/2
f 80/1/1 302/1/1 142/1/1
f 35/1/1 303/1/1 199/1/1
f 83/1/1 304/1/1 247/1/1
f 84/1/1 305/1/1 146/1/1
f 36/1/1 306/1/1 203/1/1
f 87/1/1 307/1/1 251/1/1
f 40/51/5 106/52/5 255/53/5
f 99/1/1 253/1/1 256/1/1
f 98/1/1 249/1/1 257/1/1
f 67/57/6 265/58/6 260/59/6
f 175/60/10 34/61/10 168/62/10
f 49/63/6 118/64/6 109/65/6
f 114/66/11 69/67/11 117/68/11
f 130/69/9 265/70/9 314/71/9
f 88/72/5 141/73/5 300/74/5
f 188/78/12 166/79/12 313/80/12
f 12/81/13 239/82/13 266/83/13
f 94/1/1 235/1/1 268/1/1
f 93/1/1 231/1/1 269/1/1
f 92/1/1 227/1/1 270/1/1
f 91/1/1 223/1/1 271/1/1
f 90/1/1 219/1/1 272/1/1
f 89/1/1 215/1/1 273/1/1
f 261/84/6 274/85/6 112/86/6
f 57/87/5 125/88/5 210/89/5
f 162/90/9 190/91/9 62/92/9
f 74/93/14 135/94/14 163/95/14
f 312/96/5 1/97/5 173/98/5
f 176/102/5 101/103/5 311/104/5
f 7/105/5 209/106/5 275/107/5
f 101/108/15 127/109/15 310/110/15
f 309/111/6 20/112/6 198/113/6
f 85/1/1 214/1/1 280/1/1
f 19/1/1 151/1/1 281/1/1
f 38/1/1 102/1/1 282/1/1
f 45/1/1 218/1/1 283/1/1
f 1/1/1 170/1/1 284/1/1
f 54/1/1 123/1/1 285/1/1
f 65/1/1 222/1/1 286/1/1
f 26/1/1 148/1/1 287/1/1
f 86/1/1 205/1/1 288/1/1
f 81/1/1 226/1/1 289/1/1
f 21/1/1 125/1/1 290/1/1
f 57/1/1 173/1/1 291/1/1
f 58/1/1 230/1/1 292/1/1
f 4/1/1 106/1/1 293/1/1
f 40/1/1 153/1/1 294/1/1
f 41/1/1 234/1/1 295/1/1
f 22/1/1 144/1/1 296/1/1
f 82/1/1 201/1/1 297/1/1
f 308/114/16 68/115/16 127/116/16
f 68/117/17 238/118/17 266/83/17
f 59/39/1 196/120/1 241/40/1
f 4/121/5 113/122/5 103/123/5
f 80/1/1 248/1/1 302/1/1
f 35/1/1 145/1/1 303/1/1
f 83/1/1 202/1/1 304/1/1
f 84/1/1 252/1/1 305/1/1
f 36/1/1 149/1/1 306/1/1
f 87/1/1 206/1/1 307/1/1
f 21/127/5 153/128/5 207/129/5
f 207/129/5 255/53/5 88/72/5
f 207/129/5 153/128/5 255/53/5
f 153/128/5 40/51/5 255/53/5
f 307/1/1 131/1/1 64/1/1
f 307/1/1 206/1/1 131/1/1
f 206/1/1 25/1/1 131/1/1
f 306/1/1 251/1/1 99/1/1
f 306/1/1 149/1/1 251/1/1
f 149/1/1 87/1/1 251/1/1
f 305/1/1 250/1/1 42/1/1
f 305/1/1 252/1/1 250/1/1
f 252/1/1 99/1/1 250/1/1
f 304/1/1 132/1/1 65/1/1
f 304/1/1 202/1/1 132/1/1
f 202/1/1 26/1/1 132/1/1
f 303/1/1 247/1/1 98/1/1
f 303/1/1 145/1/1 247/1/1
f 145/1/1 83/1/1 247/1/1
f 302/1/1 246/1/1 63/1/1
f 302/1/1 248/1/1 246/1/1
f 248/1/1 98/1/1 246/1/1
f 103/123/5 141/73/5 88/72/5
f 103/123/5 113/122/5 141/73/5
f 113/122/5 27/134/5 141/73/5
f 241/40/1 242/135/1 95/136/1
f 241/40/1 196/120/1 242/135/1
f 196/120/1 97/137/1 242/135/1
f 266/83/17 112/141/17 12/81/17
f 266/83/17 238/118/17 112/141/17
f 238/118/17 66/142/17 112/141/17
f 275/143/18 127/116/18 7/144/18
f 56/145/19 308/114/19 275/143/19
f 172/146/20 258/147/20 308/114/20
f 297/1/1 199/1/1 80/1/1
f 297/1/1 201/1/1 199/1/1
f 201/1/1 35/1/1 199/1/1
f 296/1/1 233/1/1 94/1/1
f 296/1/1 144/1/1 233/1/1
f 144/1/1 82/1/1 233/1/1
f 295/1/1 232/1/1 43/1/1
f 295/1/1 234/1/1 232/1/1
f 234/1/1 94/1/1 232/1/1
f 294/1/1 200/1/1 81/1/1
f 294/1/1 153/1/1 200/1/1
f 153/1/1 21/1/1 200/1/1
f 293/1/1 229/1/1 93/1/1
f 293/1/1 106/1/1 229/1/1
f 106/1/1 40/1/1 229/1/1
f 292/1/1 228/1/1 82/1/1
f 292/1/1 230/1/1 228/1/1
f 230/1/1 93/1/1 228/1/1
f 291/1/1 111/1/1 45/1/1
f 291/1/1 173/1/1 111/1/1
f 173/1/1 1/1/1 111/1/1
f 290/1/1 225/1/1 92/1/1
f 290/1/1 125/1/1 225/1/1
f 125/1/1 57/1/1 225/1/1
f 289/1/1 224/1/1 83/1/1
f 289/1/1 226/1/1 224/1/1
f 226/1/1 92/1/1 224/1/1
f 288/1/1 203/1/1 84/1/1
f 288/1/1 205/1/1 203/1/1
f 205/1/1 36/1/1 203/1/1
f 287/1/1 221/1/1 91/1/1
f 287/1/1 148/1/1 221/1/1
f 148/1/1 86/1/1 221/1/1
f 286/1/1 220/1/1 62/1/1
f 286/1/1 222/1/1 220/1/1
f 222/1/1 91/1/1 220/1/1
f 285/1/1 204/1/1 85/1/1
f 285/1/1 123/1/1 204/1/1
f 123/1/1 19/1/1 204/1/1
f 284/1/1 217/1/1 90/1/1
f 284/1/1 170/1/1 217/1/1
f 170/1/1 54/1/1 217/1/1
f 283/1/1 216/1/1 86/1/1
f 283/1/1 218/1/1 216/1/1
f 218/1/1 90/1/1 216/1/1
f 282/1/1 110/1/1 44/1/1
f 282/1/1 102/1/1 110/1/1
f 102/1/1 2/1/1 110/1/1
f 281/1/1 213/1/1 89/1/1
f 281/1/1 151/1/1 213/1/1
f 151/1/1 38/1/1 213/1/1
f 280/1/1 212/1/1 87/1/1
f 280/1/1 214/1/1 212/1/1
f 214/1/1 89/1/1 212/1/1
f 237/148/6 198/113/6 95/149/6
f 299/28/6 237/148/6 27/150/6
f 55/27/6 309/111/6 299/28/6
f 310/110/21 68/151/21 197/152/21
f 279/153/22 197/152/22 61/154/22
f 18/155/23 310/110/23 279/153/23
f 275/107/5 276/156/5 56/157/5
f 275/107/5 209/106/5 276/156/5
f 209/106/5 88/72/5 276/156/5
f 211/18/5 101/103/5 18/16/5
f 54/158/5 311/104/5 211/18/5
f 1/97/5 311/104/5 170/159/5
f 312/96/5 57/87/5 210/89/5
f 209/106/5 210/89/5 88/72/5
f 209/106/5 176/102/5 312/96/5
f 210/89/5 207/129/5 88/72/5
f 210/89/5 125/88/5 207/129/5
f 125/88/5 21/127/5 207/129/5
f 273/1/1 157/1/1 25/1/1
f 273/1/1 215/1/1 157/1/1
f 215/1/1 44/1/1 157/1/1
f 272/1/1 147/1/1 36/1/1
f 272/1/1 219/1/1 147/1/1
f 219/1/1 85/1/1 147/1/1
f 271/1/1 146/1/1 23/1/1
f 271/1/1 223/1/1 146/1/1
f 223/1/1 84/1/1 146/1/1
f 270/1/1 158/1/1 26/1/1
f 270/1/1 227/1/1 158/1/1
f 227/1/1 45/1/1 158/1/1
f 269/1/1 143/1/1 35/1/1
f 269/1/1 231/1/1 143/1/1
f 231/1/1 81/1/1 143/1/1
f 268/1/1 142/1/1 24/1/1
f 268/1/1 235/1/1 142/1/1
f 235/1/1 80/1/1 142/1/1
f 266/83/24 197/161/24 68/117/24
f 266/83/13 239/82/13 197/161/13
f 239/82/13 61/162/13 197/161/13
f 313/80/25 60/163/25 130/164/25
f 267/165/26 130/164/26 11/166/26
f 73/167/27 313/80/27 267/165/27
f 300/74/5 240/170/5 96/171/5
f 300/74/5 141/73/5 240/170/5
f 141/73/5 27/134/5 240/170/5
f 314/71/9 67/172/9 183/173/9
f 274/85/9 183/173/9 12/174/9
f 11/175/9 314/71/9 274/85/9
f 260/59/6 178/176/6 61/177/6
f 260/59/6 265/58/6 178/176/6
f 265/58/6 60/178/6 178/176/6
f 257/1/1 182/1/1 8/1/1
f 257/1/1 249/1/1 182/1/1
f 249/1/1 65/1/1 182/1/1
f 256/1/1 181/1/1 9/1/1
f 256/1/1 253/1/1 181/1/1
f 253/1/1 64/1/1 181/1/1
f 255/53/5 103/123/5 88/72/5
f 255/53/5 106/52/5 103/123/5
f 106/52/5 4/121/5 103/123/5
f 251/1/1 253/1/1 99/1/1
f 251/1/1 307/1/1 253/1/1
f 307/1/1 64/1/1 253/1/1
f 203/1/1 252/1/1 84/1/1
f 203/1/1 306/1/1 252/1/1
f 306/1/1 99/1/1 252/1/1
f 146/1/1 155/1/1 23/1/1
f 146/1/1 305/1/1 155/1/1
f 305/1/1 42/1/1 155/1/1
f 247/1/1 249/1/1 98/1/1
f 247/1/1 304/1/1 249/1/1
f 304/1/1 65/1/1 249/1/1
f 199/1/1 248/1/1 80/1/1
f 199/1/1 303/1/1 248/1/1
f 303/1/1 98/1/1 248/1/1
f 142/1/1 129/1/1 24/1/1
f 142/1/1 302/1/1 129/1/1
f 302/1/1 63/1/1 129/1/1
f 161/47/2 195/11/2 29/10/2
f 161/47/2 244/46/2 195/11/2
f 244/46/28 72/181/28 195/11/28
f 185/44/2 187/182/2 16/183/2
f 185/44/2 243/43/2 187/182/2
f 243/43/2 72/181/2 187/182/2
f 175/41/1 298/184/1 5/185/1
f 175/41/1 241/40/1 298/184/1
f 241/40/1 95/136/1 298/184/1
f 315/35/29 73/167/29 267/165/29
f 261/188/29 267/165/29 11/166/29
f 76/189/8 315/35/8 261/188/8
f 183/32/7 239/82/7 12/81/7
f 183/32/7 260/31/7 239/82/7
f 260/31/7 61/162/7 239/82/7
f 171/29/6 113/190/6 4/191/6
f 171/29/6 299/28/6 113/190/6
f 299/28/6 27/150/6 113/190/6
f 104/26/6 236/22/6 39/21/6
f 104/26/6 298/25/6 236/22/6
f 298/25/6 95/149/6 236/22/6
f 152/23/6 198/113/6 20/112/6
f 152/23/6 236/22/6 198/113/6
f 236/22/6 95/149/6 198/113/6
f 233/1/1 235/1/1 94/1/1
f 233/1/1 297/1/1 235/1/1
f 297/1/1 80/1/1 235/1/1
f 154/1/1 234/1/1 41/1/1
f 154/1/1 296/1/1 234/1/1
f 296/1/1 94/1/1 234/1/1
f 107/1/1 109/1/1 10/1/1
f 107/1/1 295/1/1 109/1/1
f 295/1/1 43/1/1 109/1/1
f 229/1/1 231/1/1 93/1/1
f 229/1/1 294/1/1 231/1/1
f 294/1/1 81/1/1 231/1/1
f 174/1/1 230/1/1 58/1/1
f 174/1/1 293/1/1 230/1/1
f 293/1/1 93/1/1 230/1/1
f 126/1/1 144/1/1 22/1/1
f 126/1/1 292/1/1 144/1/1
f 292/1/1 82/1/1 144/1/1
f 225/1/1 227/1/1 92/1/1
f 225/1/1 291/1/1 227/1/1
f 291/1/1 45/1/1 227/1/1
f 200/1/1 226/1/1 81/1/1
f 200/1/1 290/1/1 226/1/1
f 290/1/1 92/1/1 226/1/1
f 143/1/1 145/1/1 35/1/1
f 143/1/1 289/1/1 145/1/1
f 289/1/1 83/1/1 145/1/1
f 221/1/1 223/1/1 91/1/1
f 221/1/1 288/1/1 223/1/1
f 288/1/1 84/1/1 223/1/1
f 132/1/1 222/1/1 65/1/1
f 132/1/1 287/1/1 222/1/1
f 287/1/1 91/1/1 222/1/1
f 182/1/1 179/1/1 8/1/1
f 182/1/1 286/1/1 179/1/1
f 286/1/1 62/1/1 179/1/1
f 217/1/1 219/1/1 90/1/1
f 217/1/1 285/1/1 219/1/1
f 285/1/1 85/1/1 219/1/1
f 111/1/1 218/1/1 45/1/1
f 111/1/1 284/1/1 218/1/1
f 284/1/1 90/1/1 218/1/1
f 158/1/1 148/1/1 26/1/1
f 158/1/1 283/1/1 148/1/1
f 283/1/1 86/1/1 148/1/1
f 213/1/1 215/1/1 89/1/1
f 213/1/1 282/1/1 215/1/1
f 282/1/1 44/1/1 215/1/1
f 204/1/1 214/1/1 85/1/1
f 204/1/1 281/1/1 214/1/1
f 281/1/1 89/1/1 214/1/1
f 147/1/1 149/1/1 36/1/1
f 147/1/1 280/1/1 149/1/1
f 280/1/1 87/1/1 149/1/1
f 277/17/5 151/192/5 19/193/5
f 277/17/5 278/20/5 151/192/5
f 278/20/5 38/194/5 151/192/5
f 278/20/5 102/195/5 38/194/5
f 278/20/5 177/19/5 102/195/5
f 177/19/5 2/196/5 102/195/5
f 211/18/5 123/197/5 54/158/5
f 211/18/5 277/17/5 123/197/5
f 277/17/5 19/193/5 123/197/5
f 212/1/1 206/1/1 87/1/1
f 212/1/1 273/1/1 206/1/1
f 273/1/1 25/1/1 206/1/1
f 216/1/1 205/1/1 86/1/1
f 216/1/1 272/1/1 205/1/1
f 272/1/1 36/1/1 205/1/1
f 220/1/1 128/1/1 62/1/1
f 220/1/1 271/1/1 128/1/1
f 271/1/1 23/1/1 128/1/1
f 224/1/1 202/1/1 83/1/1
f 224/1/1 270/1/1 202/1/1
f 270/1/1 26/1/1 202/1/1
f 228/1/1 201/1/1 82/1/1
f 228/1/1 269/1/1 201/1/1
f 269/1/1 35/1/1 201/1/1
f 232/1/1 156/1/1 43/1/1
f 232/1/1 268/1/1 156/1/1
f 268/1/1 24/1/1 156/1/1
f 258/15/4 238/118/4 68/117/4
f 258/15/4 259/14/4 238/118/4
f 259/14/4 66/142/4 238/118/4
f 134/12/2 243/43/2 71/42/2
f 134/12/2 195/11/2 243/43/2
f 195/11/28 72/181/28 243/43/28
f 116/4/2 244/46/2 47/45/2
f 116/4/2 186/3/2 244/46/2
f 186/3/28 72/181/28 244/46/28
f 246/1/1 180/1/1 63/1/1
f 246/1/1 257/1/1 180/1/1
f 257/1/1 8/1/1 180/1/1
f 250/1/1 108/1/1 42/1/1
f 250/1/1 256/1/1 108/1/1
f 256/1/1 9/1/1 108/1/1
f 100/198/6 3/199/6 120/5/6
f 51/200/1 167/201/1 33/202/1
f 37/203/1 100/198/1 120/5/1
f 51/200/6 33/202/6 139/131/6
f 150/204/3 37/203/3 120/5/3
f 51/200/6 139/131/6 78/205/6
f 17/206/6 150/204/6 120/5/6
f 51/200/3 78/205/3 193/130/3
f 122/207/1 17/206/1 120/5/1
f 51/200/6 193/130/6 14/208/6
f 53/209/6 122/207/6 120/5/6
f 51/200/3 14/208/3 115/210/3
f 169/211/1 53/209/1 120/5/1
f 51/200/6 115/210/6 46/212/6
f 2/213/1 169/211/1 120/5/1
f 51/200/3 46/212/3 160/214/3
f 110/213/1 2/213/1 120/5/1
f 51/200/3 160/214/3 28/215/3
f 44/213/1 110/213/1 120/5/1
f 51/200/6 28/215/6 133/216/6
f 157/213/1 44/213/1 120/5/1
f 51/200/3 133/216/3 70/217/3
f 25/213/1 157/213/1 120/5/1
f 51/200/6 70/217/6 184/132/6
f 131/213/1 25/213/1 120/5/1
f 51/200/6 184/132/6 13/218/6
f 64/213/1 131/213/1 120/5/1
f 51/200/3 13/218/3 119/219/3
f 181/213/1 64/213/1 120/5/1
f 51/200/3 119/219/3 50/220/3
f 9/213/1 181/213/1 120/5/1
f 51/200/1 50/220/1 165/221/1
f 192/222/3 9/213/3 120/5/3
f 51/200/1 165/221/1 32/223/1
f 77/7/6 192/222/6 120/5/6
f 51/200/3 32/223/3 138/6/3
f 120/5/1 51/200/1 138/6/1
f 171/224/1 4/8/1 174/8/1
f 58/8/1 126/8/1 22/8/1
f 55/225/1 171/224/1 174/8/1
f 58/8/1 22/8/1 154/8/1
f 124/226/1 55/225/1 174/8/1
f 58/8/1 154/8/1 41/8/1
f 20/227/1 124/226/1 174/8/1
f 58/8/1 41/8/1 107/8/1
f 152/228/1 20/227/1 174/8/1
f 58/8/1 107/8/1 10/8/1
f 39/229/3 152/228/3 174/8/3
f 58/8/1 10/8/1 118/230/1
f 104/231/1 39/229/1 174/8/1
f 58/8/1 118/230/1 49/232/1
f 5/233/1 104/231/1 174/8/1
f 58/8/3 49/232/3 164/234/3
f 194/235/1 5/233/1 174/8/1
f 58/8/1 164/234/1 31/236/1
f 79/237/1 194/235/1 174/8/1
f 58/8/6 31/236/6 136/238/6
f 140/239/1 79/237/1 174/8/1
f 58/8/3 136/238/3 75/240/3
f 34/241/6 140/239/6 174/8/6
f 58/8/6 75/240/6 191/242/6
f 168/243/1 34/241/1 174/8/1
f 58/8/1 191/242/1 15/244/1
f 52/245/1 168/243/1 174/8/1
f 58/8/3 15/244/3 116/246/3
f 121/247/1 52/245/1 174/8/1
f 58/8/6 116/246/6 47/248/6
f 16/249/1 121/247/1 174/8/1
f 58/8/6 47/248/6 161/250/6
f 185/251/1 16/249/1 174/8/1
f 58/8/3 161/250/3 29/252/3
f 71/253/1 185/251/1 174/8/1
f 58/8/3 29/252/3 134/9/3
f 134/9/1 71/253/1 174/8/1
f 137/33/8 72/254/8 163/34/8
f 137/255/10 76/256/10 262/257/10
f 262/257/10 59/258/10 175/60/10
f 175/60/10 5/259/10 194/260/10
f 175/60/10 194/260/10 79/261/10
f 137/255/10 262/257/10 175/60/10
f 187/182/28 72/181/28 168/62/28
f 72/181/10 137/255/10 175/60/10
f 121/262/2 16/183/2 187/182/2
f 52/263/2 121/262/2 187/182/2
f 72/181/30 175/60/30 168/62/30
f 187/182/2 168/62/2 52/263/2
f 175/60/10 79/261/10 140/264/10
f 175/60/10 140/264/10 34/61/10
f 190/265/6 30/266/6 135/94/6
f 190/265/6 135/94/6 63/267/6
f 135/94/6 74/93/6 24/268/6
f 63/267/6 135/94/6 129/269/6
f 180/270/6 8/271/6 190/265/6
f 63/267/6 180/270/6 190/265/6
f 74/93/6 189/272/6 43/273/6
f 189/272/6 15/274/6 191/275/6
f 189/272/6 191/275/6 75/276/6
f 129/269/6 135/94/6 24/268/6
f 24/268/6 74/93/6 156/277/6
f 189/272/6 75/276/6 136/278/6
f 189/272/6 136/278/6 31/279/6
f 156/277/6 74/93/6 43/273/6
f 189/272/6 31/279/6 109/65/6
f 31/279/6 164/280/6 109/65/6
f 164/280/6 49/63/6 109/65/6
f 118/64/6 10/281/6 109/65/6
f 109/65/6 43/273/6 189/272/6
f 188/282/31 73/283/31 162/90/31
f 73/283/32 263/284/32 162/90/32
f 263/284/32 30/285/32 162/90/32
f 162/90/33 48/286/33 188/282/33
f 48/286/11 117/68/11 69/67/11
f 188/282/34 48/286/34 69/67/34
f 117/68/11 13/287/11 114/66/11
f 130/69/9 60/288/9 265/70/9
f 188/78/35 69/289/35 166/79/35
f 112/86/6 66/290/6 159/291/6
f 112/86/6 159/291/6 261/84/6
f 159/291/6 59/292/6 261/84/6
f 274/85/6 12/174/6 112/86/6
f 261/84/6 11/175/6 274/85/6
f 262/293/6 76/294/6 261/84/6
f 59/292/6 262/293/6 261/84/6
f 108/295/9 9/296/9 192/297/9
f 108/295/9 192/297/9 77/298/9
f 42/299/9 108/295/9 48/286/9
f 108/295/9 77/298/9 138/300/9
f 108/295/9 138/300/9 32/301/9
f 155/302/9 42/299/9 48/286/9
f 108/295/9 32/301/9 117/68/9
f 48/286/9 108/295/9 117/68/9
f 23/303/9 155/302/9 48/286/9
f 32/301/9 165/304/9 117/68/9
f 128/305/9 23/303/9 162/90/9
f 23/303/9 48/286/9 162/90/9
f 165/304/9 50/306/9 117/68/9
f 62/92/9 128/305/9 162/90/9
f 119/307/9 13/287/9 117/68/9
f 50/306/9 119/307/9 117/68/9
f 190/91/9 8/308/9 179/309/9
f 179/309/9 62/92/9 190/91/9
f 162/90/9 30/285/9 190/91/9
f 135/94/36 30/266/36 263/310/36
f 263/310/36 73/311/36 135/94/36
f 73/311/37 163/95/37 135/94/37
f 163/95/38 72/312/38 74/93/38
f 72/312/39 186/313/39 189/272/39
f 74/93/39 72/312/39 189/272/39
f 186/313/39 15/274/39 189/272/39
f 312/96/5 176/102/5 1/97/5
f 176/102/5 7/105/5 101/103/5
f 101/108/40 7/314/40 127/109/40
f 309/111/6 124/315/6 20/112/6
f 308/114/41 258/147/41 68/115/41
f 275/143/20 308/114/20 127/116/20
f 56/145/46 172/146/46 308/114/46
f 172/146/47 6/322/47 258/147/47
f 237/148/6 309/111/6 198/113/6
f 299/28/6 309/111/6 237/148/6
f 55/27/6 124/315/6 309/111/6
f 310/110/48 127/109/48 68/151/48
f 279/153/15 310/110/15 197/152/15
f 18/155/49 101/108/49 310/110/49
f 211/18/5 311/104/5 101/103/5
f 54/158/5 170/159/5 311/104/5
f 1/97/5 176/102/5 311/104/5
f 312/96/5 173/98/5 57/87/5
f 209/106/5 312/96/5 210/89/5
f 209/106/5 7/105/5 176/102/5
f 313/80/50 166/79/50 60/163/50
f 267/165/12 313/80/12 130/164/12
f 73/167/51 188/78/51 313/80/51
f 314/71/9 265/70/9 67/172/9
f 274/85/9 314/71/9 183/173/9
f 11/175/9 130/69/9 314/71/9
f 315/35/8 163/34/8 73/167/8
f 261/188/8 315/35/8 267/165/8
f 76/189/8 137/33/8 315/35/8
usemtl drewnociemne.003
f 88/36/3 301/37/3 208/38/3
f 59/48/9 105/49/9 254/50/9
f 66/54/9 259/55/9 159/56/9
f 96/75/9 245/76/9 264/77/9
f 88/99/9 208/100/9 276/101/9
f 88/36/3 300/119/3 301/37/3
f 27/124/9 237/125/9 240/126/9
f 193/130/1 139/131/1 184/132/1
f 240/126/9 245/76/9 96/75/9
f 240/126/9 237/125/9 245/76/9
f 237/125/9 95/133/9 245/76/9
f 301/37/3 264/138/3 97/139/3
f 301/37/3 300/119/3 264/138/3
f 300/119/3 96/140/3 264/138/3
f 276/101/9 254/50/9 56/160/9
f 276/101/9 208/100/9 254/50/9
f 208/100/9 59/48/9 254/50/9
f 264/77/9 242/168/9 97/169/9
f 264/77/9 245/76/9 242/168/9
f 245/76/9 95/133/9 242/168/9
f 159/56/9 105/49/9 59/48/9
f 159/56/9 259/55/9 105/49/9
f 259/55/9 6/179/9 105/49/9
f 254/50/9 172/180/9 56/160/9
f 254/50/9 105/49/9 172/180/9
f 105/49/9 6/179/9 172/180/9
f 208/38/3 196/186/3 59/187/3
f 208/38/3 301/37/3 196/186/3
f 301/37/3 97/139/3 196/186/3
f 169/211/6 2/213/6 177/316/6
f 177/316/6 18/317/6 60/178/6
f 18/317/6 279/318/6 60/178/6
f 279/318/6 61/177/6 178/176/6
f 279/318/6 178/176/6 60/178/6
f 53/209/6 169/211/6 177/316/6
f 122/207/6 53/209/6 177/316/6
f 166/319/42 69/320/42 150/204/42
f 69/320/43 114/321/43 150/204/43
f 177/316/44 60/178/44 166/319/44
f 17/206/45 122/207/45 166/319/45
f 122/207/6 177/316/6 166/319/6
f 150/204/45 17/206/45 166/319/45
f 37/203/43 114/321/43 13/218/43
f 114/321/43 37/203/43 150/204/43
f 184/132/1 70/217/1 133/216/1
f 100/198/6 37/203/6 13/218/6
f 184/132/6 133/216/6 28/215/6
f 3/199/1 100/198/1 13/218/1
f 184/132/6 28/215/6 160/214/6
f 120/5/1 3/199/1 13/218/1
f 184/132/3 160/214/3 46/212/3
f 51/200/1 120/5/1 13/218/1
f 184/132/6 46/212/6 115/210/6
f 167/201/1 51/200/1 13/218/1
f 184/132/3 115/210/3 14/208/3
f 33/202/1 167/201/1 13/218/1
f 184/132/6 14/208/6 193/130/6
f 139/131/3 33/202/3 13/218/3
f 193/130/1 78/205/1 139/131/1
f 139/131/6 13/218/6 184/132/6
