# Blender 5.1.2
# www.blender.org
mtllib couch.mtl
o Cube.001
v -1.001676 -0.910878 0.361989
v -1.001676 -0.910878 -0.361990
v 1.242660 -0.910878 0.361989
v 1.242660 -0.910878 -0.361990
v -1.001676 -0.856009 0.361989
v -1.001676 -0.150106 0.361989
v -1.001676 -0.150106 -0.361990
v -1.001676 -0.856009 -0.361990
v 1.242660 -0.856009 -0.361990
v 1.242660 -0.150106 -0.361990
v 1.242660 -0.150106 0.361989
v 1.242660 -0.856009 0.361989
v -1.001676 -0.856009 0.909088
v -1.001676 -0.856009 -0.909089
v 1.242660 -0.856009 -0.909089
v 1.242660 -0.856009 0.909088
v -1.001676 0.583485 0.361989
v -1.001676 0.692385 0.312814
v -1.001676 0.583485 0.361989
v -1.001676 0.660489 0.347586
v -1.001676 0.692385 -0.312814
v -1.001676 0.583485 -0.361990
v -1.001676 0.583485 -0.361990
v -1.001676 0.660489 -0.347586
v 1.242660 0.692385 0.312814
v 1.242660 0.583485 0.361989
v 1.242660 0.583485 0.361989
v 1.242660 0.660489 0.347586
v 1.242660 0.583485 -0.361990
v 1.242660 0.692385 -0.312814
v 1.242660 0.583485 -0.361990
v 1.242660 0.660489 -0.347586
v -1.001676 -0.240888 1.181009
v -1.001676 -0.150106 1.140015
v -1.001676 -0.176695 1.169002
v -1.001676 -0.150106 -1.140015
v -1.001676 -0.240888 -1.181009
v -1.001676 -0.176695 -1.169002
v 1.242660 -0.240888 -1.181009
v 1.242660 -0.150106 -1.140015
v 1.242660 -0.176695 -1.169002
v 1.242660 -0.150106 1.140015
v 1.242660 -0.240888 1.181009
v 1.242660 -0.176695 1.169002
v -0.963924 -0.883910 -0.349812
v -0.963924 -0.883910 0.349812
v -0.963924 0.634594 0.335893
v -0.963924 0.665417 0.302290
v -0.963924 0.560181 0.349812
v -0.963924 0.665417 -0.302291
v -0.963924 0.634594 -0.335893
v -0.963924 0.560181 -0.349812
v 1.204908 0.665417 -0.302291
v 1.204908 0.665417 0.302290
vn -0.7931 -0.3742 0.4806
vn -0.7931 -0.3742 -0.4806
vn 0.5773 -0.5774 0.5774
vn 0.5774 -0.5773 -0.5774
vn -0.3015 -0.3015 0.9045
vn -0.3015 0.3015 0.9045
vn -0.3015 0.3015 -0.9045
vn -0.5773 0.5774 -0.5773
vn 0.5774 -0.5774 0.5773
vn 0.3015 0.3015 -0.9045
vn 0.5774 0.5773 -0.5774
vn 0.3015 -0.3015 0.9045
vn -0.6025 -0.6688 0.4356
vn -0.6025 -0.6688 -0.4356
vn 0.6025 -0.6688 -0.4356
vn 0.6025 -0.6688 0.4356
vn -0.0000 0.7403 0.6722
vn -0.7679 0.5745 -0.2833
vn -0.2720 0.6767 -0.6841
vn -0.8951 0.1324 0.4258
vn -0.7679 0.5745 0.2833
vn -0.0000 0.7403 -0.6722
vn -0.2720 0.6767 0.6841
vn -0.8951 0.1324 -0.4258
vn 0.5378 0.8295 0.1506
vn 0.6853 0.7282 -0.0000
vn 0.6424 0.3719 0.6701
vn 0.5379 0.8295 -0.1506
vn 0.6424 0.3719 -0.6701
vn -0.6461 -0.0881 0.7581
vn -0.6339 0.7208 0.2805
vn -0.6424 0.3719 0.6701
vn -0.6339 0.7208 -0.2805
vn -0.6461 -0.0881 -0.7581
vn -0.6424 0.3719 -0.6701
vn 0.6461 -0.0881 -0.7581
vn 0.6339 0.7208 -0.2805
vn 0.6339 0.7208 0.2805
vn 0.6461 -0.0881 0.7581
vn -0.7919 0.3570 0.4953
vn -0.7919 0.3570 -0.4953
vn -0.8186 -0.2342 -0.5244
vn -0.6923 0.2816 -0.6644
vn -0.8024 -0.0371 -0.5956
vn -0.6923 0.2816 0.6644
vn -0.8186 -0.2342 0.5244
vn -0.8024 -0.0371 0.5956
vn -0.2226 0.8401 0.4947
vn -0.2226 0.8400 -0.4947
vt 0.513657 0.836463
vt 0.505008 0.578770
vt 0.513657 0.578770
vt 0.773079 0.257693
vt 0.515386 0.000000
vt 0.773079 0.000000
vt 0.257693 0.000000
vt 0.000000 0.194735
vt 0.000000 0.000000
vt 0.906142 0.549215
vt 0.897493 0.291522
vt 0.906142 0.291522
vt 0.257693 0.291522
vt 0.515386 0.096787
vt 0.515386 0.291522
vt 0.515386 0.291522
vt 0.000000 0.033962
vt 0.009947 0.009947
vt 0.033962 0.000000
vt 0.009947 0.490053
vt 0.000000 0.466038
vt 0.900000 0.845661
vt 0.465441 0.534325
vt 0.492631 1.132896
vt 0.465441 1.132896
vt -0.093245 0.534325
vt -0.064063 1.132896
vt -0.093245 1.132896
vt 0.519822 1.132896
vt 0.492631 0.534325
vt 0.519822 0.534325
vt 0.186098 0.534325
vt 0.215280 1.132896
vt 0.186098 1.132896
vt 0.215280 0.534325
vt 0.465441 1.132896
vt -0.064063 0.534325
vt 0.186098 1.132896
vt 0.100000 0.845661
vt 0.100000 0.100000
vt 0.515386 0.291522
vt 0.515386 0.291522
vt 0.472882 0.509791
vt -0.093245 0.509791
vt 0.519822 0.534325
vt 0.544149 1.132896
vt 0.519822 1.132896
vt 0.472882 -0.108362
vt 1.039010 -0.132896
vt 1.039010 -0.108362
vt 0.544149 0.534325
vt 0.568476 1.132896
vt 0.544149 1.132896
vt 0.257693 -0.000000
vt 0.257693 0.096787
vt 1.000000 0.136277
vt 0.500000 0.401049
vt 0.500000 0.136277
vt 0.787671 0.291522
vt 0.777353 0.287248
vt 0.773079 0.276930
vt 0.787671 0.583044
vt 0.886540 0.679831
vt 0.773079 0.874566
vt 0.257693 0.291522
vt 0.257693 0.194735
vt 0.000000 0.401049
vt 0.500000 0.136277
vt 0.500000 0.401049
vt 0.787671 0.583044
vt 0.777353 0.578770
vt 0.773079 0.568452
vt 0.901131 -0.000000
vt 1.000000 0.096787
vt 0.886540 0.291522
vt 0.932076 0.500000
vt 0.500000 0.000000
vt 0.932076 0.000000
vt 0.845661 0.900000
vt 0.154339 0.900000
vt 0.900000 0.845661
vt 0.845661 0.900000
vt 0.154339 0.900000
vt 0.492631 1.132896
vt 0.505008 0.836463
vt 0.515386 0.257693
vt 0.897493 0.549215
vt 0.492631 0.534325
vt 0.465441 0.534325
vt 0.186098 0.534325
vt 0.900000 0.100000
vt 0.472882 0.534325
vt 0.472882 -0.132896
vt 0.568476 0.534325
vt 0.515386 -0.000000
vt 1.000000 0.401049
vt 0.773080 0.000000
vt 0.886540 0.000000
vt 0.886540 0.194735
vt 0.886540 0.874566
vt 0.773079 0.597635
vt 0.777353 0.587317
vt 0.000000 0.291522
vt 0.000000 0.136277
vt 0.773079 0.291522
vt 0.886540 0.291522
vt 0.886540 0.486256
vt 1.000000 0.291522
vt 0.886540 0.014591
vt 0.890813 0.004274
vt 0.500000 0.500000
vt 0.115916 0.884084
vt 0.100000 0.845661
vt 0.100000 0.100000
vt 0.900000 0.100000
vt 0.884084 0.884084
s 1
usemtl kanapa.001
f 2/1/2 9/2/9 4/3/4
f 4/4/4 1/5/1 2/6/2
f 8/7/8 15/8/15 9/9/9
f 3/10/3 5/11/5 1/12/1
f 12/13/12 13/14/13 5/15/5
f 17/16/17 20/16/20 19/16/19
f 24/16/24 22/16/22 23/16/23
f 25/17/25 28/18/27 27/19/26
f 28/16/27 26/16/17 27/16/26
f 29/16/22 32/16/29 31/16/26
f 32/20/29 30/21/28 31/22/26
f 30/23/28 24/24/24 21/25/21
f 32/26/29 22/27/22 24/28/24
f 18/29/18 28/30/27 25/31/25
f 20/32/20 26/33/17 28/34/27
f 19/16/19 1/16/1 6/16/6
f 23/16/23 45/16/40 52/16/47
f 17/35/17 11/36/11 26/33/17
f 29/37/22 7/38/7 22/27/22
f 23/16/23 22/16/22 8/15/8
f 27/41/26 26/41/17 12/42/12
f 31/16/26 4/16/4 10/16/10
f 40/43/37 38/26/35 36/44/33
f 41/45/29 37/46/34 38/47/35
f 34/48/31 44/49/27 42/50/38
f 35/51/32 43/52/39 44/53/27
f 43/54/39 13/14/13 16/55/16
f 6/56/6 42/57/38 11/58/11
f 33/59/30 35/60/32 34/61/31
f 37/62/34 14/63/14 7/64/7
f 37/65/34 15/8/15 14/66/14
f 10/67/10 36/68/33 7/69/7
f 39/70/36 41/71/29 40/72/37
f 43/73/39 16/74/16 11/75/11
f 19/16/19 47/16/42 49/16/44
f 23/16/23 51/16/46 24/16/24
f 24/24/24 50/25/45 21/25/21
f 25/31/25 48/29/43 18/29/18
f 21/25/21 53/23/48 30/23/28
f 19/16/19 46/16/41 1/16/1
f 1/5/1 45/6/40 2/6/2
f 20/84/20 48/29/43 47/84/42
f 2/1/2 8/85/8 9/2/9
f 4/4/4 3/86/3 1/5/1
f 8/7/8 14/66/14 15/8/15
f 3/10/3 12/87/12 5/11/5
f 12/13/12 16/55/16 13/14/13
f 30/23/28 32/88/29 24/24/24
f 32/26/29 29/37/22 22/27/22
f 18/29/18 20/84/20 28/30/27
f 20/32/20 17/35/17 26/33/17
f 6/16/6 17/16/17 19/16/19
f 1/16/1 5/16/5 6/16/6
f 23/16/23 2/16/2 45/16/40
f 17/35/17 6/89/6 11/36/11
f 29/37/22 10/90/10 7/38/7
f 8/15/8 2/16/2 23/16/23
f 22/16/22 7/15/7 8/15/8
f 12/42/12 3/41/3 27/41/26
f 26/41/17 11/42/11 12/42/12
f 10/16/10 29/16/22 31/16/26
f 4/16/4 9/16/9 10/16/10
f 40/43/37 41/92/29 38/26/35
f 41/45/29 39/51/36 37/46/34
f 34/48/31 35/93/32 44/49/27
f 35/51/32 33/94/30 43/52/39
f 43/54/39 33/95/30 13/14/13
f 6/56/6 34/96/31 42/57/38
f 34/61/31 6/97/6 33/59/30
f 6/97/6 5/98/5 13/99/13
f 33/59/30 6/97/6 13/99/13
f 14/63/14 8/100/8 7/64/7
f 7/64/7 36/101/33 37/62/34
f 36/101/33 38/102/35 37/62/34
f 37/65/34 39/103/36 15/8/15
f 10/67/10 40/104/37 36/68/33
f 40/72/37 10/105/10 39/70/36
f 10/105/10 9/106/9 15/107/15
f 39/70/36 10/105/10 15/107/15
f 16/74/16 12/108/12 11/75/11
f 11/75/11 42/109/38 43/73/39
f 42/109/38 44/110/27 43/73/39
f 19/16/19 20/16/20 47/16/42
f 23/16/23 52/16/47 51/16/46
f 24/24/24 51/24/46 50/25/45
f 25/31/25 54/31/49 48/29/43
f 21/25/21 50/25/45 53/23/48
f 19/16/19 49/16/44 46/16/41
f 1/5/1 46/5/41 45/6/40
f 20/84/20 18/29/18 48/29/43
usemtl drewnociemne.001
f 27/39/26 3/40/3 31/22/26
f 50/76/45 54/77/49 53/78/48
f 48/79/43 50/80/45 49/81/44
f 30/82/28 54/83/49 25/83/25
f 3/40/3 4/91/4 31/22/26
f 31/22/26 30/82/28 25/83/25
f 25/83/25 27/39/26 31/22/26
f 50/76/45 48/111/43 54/77/49
f 50/80/45 51/112/46 52/113/47
f 52/113/47 45/114/40 46/115/41
f 46/115/41 49/81/44 52/113/47
f 49/81/44 47/116/42 48/79/43
f 52/113/47 49/81/44 50/80/45
f 30/82/28 53/82/48 54/83/49
