# Blender 5.1.2
# www.blender.org
mtllib firanki.mtl
o Plane
v 1.543492 0.450768 -3.456747
v 3.623465 0.450768 -3.456747
v 1.543492 2.530740 -3.456747
v 3.623465 2.530740 -3.456747
vn -0.0000 -0.0000 1.0000
vt 0.000000 0.000000
vt 1.000000 0.000000
vt 1.000000 1.000000
vt 0.000000 1.000000
s 0
usemtl firanki
f 1/1/1 2/2/1 4/3/1 3/4/1
o Plane.002
v 3.318794 0.450768 -3.456747
v 5.398767 0.450768 -3.456747
v 3.318794 2.530740 -3.456747
v 5.398767 2.530740 -3.456747
vn -0.0000 -0.0000 1.0000
vt 0.000000 0.000000
vt 1.000000 0.000000
vt 1.000000 1.000000
vt 0.000000 1.000000
s 0
usemtl firanki
f 5/5/2 6/6/2 8/7/2 7/8/2
