# Blender 5.1.2
# www.blender.org
mtllib floor.mtl
o Floor
v -2.446884 0.000000 10.684237
v 8.781700 0.000000 10.684237
v -2.446884 0.000000 -3.594027
v 8.781700 0.000000 -3.594027
v -2.446884 -0.056083 10.684237
v 8.781700 -0.056083 10.684237
v -2.446884 -0.056083 -3.594027
v 8.781700 -0.056083 -3.594027
v -2.446884 0.000000 3.545105
v 3.167408 0.000000 10.684237
v 8.781700 0.000000 3.545105
v 3.167408 0.000000 -3.594027
v -2.446884 -0.056083 3.545105
v 3.167408 -0.056083 10.684237
v 8.781700 -0.056083 3.545105
v 3.167408 -0.056083 -3.594027
v -2.446884 -0.028042 -3.594027
v 8.781700 -0.028042 -3.594027
v 8.781700 -0.028042 10.684237
v -2.446884 -0.028042 10.684237
v -2.446884 -0.028042 3.545105
v 8.781700 -0.028042 3.545105
v 3.167408 -0.028042 10.684237
v 3.167408 -0.028042 -3.594027
v 3.167408 -0.056083 3.545105
v 3.167408 0.000000 3.545105
vn -0.5774 0.5774 0.5774
vn 0.5774 0.5774 0.5774
vn -0.5774 0.5774 -0.5774
vn 0.5774 0.5774 -0.5774
vn -0.5774 -0.5774 0.5774
vn 0.5774 -0.5774 0.5774
vn -0.5774 -0.5774 -0.5774
vn 0.5774 -0.5774 -0.5774
vn -0.7071 0.7071 -0.0000
vn -0.0000 0.7071 0.7071
vn 0.7071 0.7071 -0.0000
vn -0.0000 0.7071 -0.7071
vn -0.7071 -0.7071 -0.0000
vn -0.0000 -0.7071 0.7071
vn 0.7071 -0.7071 -0.0000
vn -0.0000 -0.7071 -0.7071
vn -0.7071 -0.0000 -0.7071
vn 0.7071 -0.0000 -0.7071
vn 0.7071 -0.0000 0.7071
vn -0.7071 -0.0000 0.7071
vn -1.0000 -0.0000 -0.0000
vn 1.0000 -0.0000 -0.0000
vn -0.0000 -0.0000 1.0000
vn -0.0000 -0.0000 -1.0000
vn -0.0000 -1.0000 -0.0000
vn -0.0000 1.0000 -0.0000
vt 0.500000 0.500000
vt 1.900841 0.500000
vt 1.900841 2.448009
vt 0.500000 2.448009
vt -0.900841 2.448009
vt 0.500000 -1.448009
vt 1.900841 -1.448009
vt -0.900841 0.500000
vt -0.900841 -1.448009
s 1
usemtl podloga
f 26/1/26 11/2/11 4/3/4 12/4/12
f 25/1/25 16/4/16 8/3/8 15/2/15
f 24/4/24 16/4/16 7/5/7 17/5/17
f 23/6/23 14/6/14 6/7/6 19/7/19
f 22/2/22 15/2/15 8/3/8 18/3/18
f 21/8/21 13/8/13 5/9/5 20/9/20
f 9/8/9 21/8/21 20/9/20 1/9/1
f 3/5/3 17/5/17 21/8/21 9/8/9
f 17/5/17 7/5/7 13/8/13 21/8/21
f 11/2/11 22/2/22 18/3/18 4/3/4
f 2/7/2 19/7/19 22/2/22 11/2/11
f 19/7/19 6/7/6 15/2/15 22/2/22
f 10/6/10 23/6/23 19/7/19 2/7/2
f 1/9/1 20/9/20 23/6/23 10/6/10
f 20/9/20 5/9/5 14/6/14 23/6/23
f 12/4/12 24/4/24 17/5/17 3/5/3
f 4/3/4 18/3/18 24/4/24 12/4/12
f 18/3/18 8/3/8 16/4/16 24/4/24
f 14/6/14 25/1/25 15/2/15 6/7/6
f 5/9/5 13/8/13 25/1/25 14/6/14
f 13/8/13 7/5/7 16/4/16 25/1/25
f 9/8/9 26/1/26 12/4/12 3/5/3
f 1/9/1 10/6/10 26/1/26 9/8/9
f 10/6/10 2/7/2 11/2/11 26/1/26
