# Blender 5.1.2
# www.blender.org
mtllib lamp.mtl
o Cylinder.025
v 0.000001 0.022890 -0.035098
v 0.000001 0.109127 -0.035098
v 0.024819 0.022890 -0.024818
v 0.024819 0.109127 -0.024818
v 0.035100 0.022890 0.000000
v 0.035100 0.109127 0.000000
v 0.024819 0.022890 0.024819
v 0.024819 0.109127 0.024819
v 0.000001 0.022890 0.035099
v 0.000001 0.109127 0.035099
v -0.024817 0.022890 0.024819
v -0.024817 0.109127 0.024819
v -0.035098 0.022890 0.000000
v -0.035098 0.109127 0.000000
v -0.024817 0.022890 -0.024818
v -0.024817 0.109127 -0.024818
v 0.000001 0.022890 -0.009949
v 0.007036 0.022890 -0.007035
v 0.009950 0.022890 0.000000
v 0.007036 0.022890 0.007035
v 0.000001 0.022890 0.009950
v -0.007034 0.022890 0.007035
v -0.009948 0.022890 0.000000
v -0.007034 0.022890 -0.007035
v 0.000001 -0.000225 -0.022079
v 0.015613 -0.000225 -0.015612
v 0.022080 -0.000225 0.000000
v 0.015613 -0.000225 0.015613
v 0.000001 -0.000225 0.022079
v -0.015611 -0.000225 0.015613
v -0.022078 -0.000225 0.000000
v -0.015611 -0.000225 -0.015612
v 0.000001 -0.049089 -0.028923
v 0.020452 -0.049089 -0.020451
v 0.028924 -0.049089 0.000000
v 0.020452 -0.049089 0.020452
v 0.000001 -0.049089 0.028923
v -0.020451 -0.049089 0.020452
v -0.028922 -0.049089 0.000000
v -0.020451 -0.049089 -0.020451
v 0.000001 -0.092739 -0.014435
v 0.010208 -0.092739 -0.010207
v 0.014436 -0.092739 0.000000
v 0.010208 -0.092739 0.010207
v 0.000001 -0.092739 0.014435
v -0.010206 -0.092739 0.010207
v -0.014434 -0.092739 0.000000
v -0.010206 -0.092739 -0.010207
v 0.000001 -0.102821 0.000000
vn -0.0000 -0.6303 -0.7764
vn -0.0000 0.6303 -0.7764
vn 0.5490 -0.6303 -0.5490
vn 0.5490 0.6303 -0.5490
vn 0.7764 -0.6303 -0.0000
vn 0.7764 0.6302 -0.0000
vn 0.5490 -0.6303 0.5490
vn 0.5490 0.6303 0.5490
vn -0.0000 -0.6303 0.7764
vn -0.0000 0.6303 0.7764
vn -0.5490 -0.6303 0.5490
vn -0.5490 0.6303 0.5490
vn -0.7764 -0.6303 -0.0000
vn -0.7764 0.6302 -0.0000
vn -0.5490 -0.6303 -0.5490
vn -0.5490 0.6303 -0.5490
vn -0.0000 -0.6365 -0.7713
vn 0.5454 -0.6365 -0.5454
vn 0.7713 -0.6365 -0.0000
vn 0.5454 -0.6365 0.5454
vn -0.0000 -0.6365 0.7713
vn -0.5454 -0.6365 0.5454
vn -0.7713 -0.6365 -0.0000
vn -0.5454 -0.6365 -0.5454
vn -0.0000 0.2947 -0.9556
vn 0.6757 0.2947 -0.6757
vn 0.9556 0.2947 -0.0000
vn 0.6757 0.2947 0.6757
vn -0.0000 0.2947 0.9556
vn -0.6757 0.2947 0.6757
vn -0.9556 0.2947 -0.0000
vn -0.6757 0.2947 -0.6757
vn -0.0000 -0.0859 -0.9963
vn 0.7045 -0.0859 -0.7045
vn 0.9963 -0.0859 -0.0000
vn 0.7045 -0.0859 0.7045
vn -0.0000 -0.0859 0.9963
vn -0.7045 -0.0859 0.7045
vn -0.9963 -0.0859 -0.0000
vn -0.7045 -0.0859 -0.7045
vn -0.0000 -0.5634 -0.8262
vn 0.5842 -0.5634 -0.5842
vn 0.8262 -0.5634 -0.0000
vn 0.5842 -0.5634 0.5842
vn -0.0000 -0.5634 0.8262
vn -0.5842 -0.5634 0.5842
vn -0.8262 -0.5634 -0.0000
vn -0.5842 -0.5634 -0.5842
vn -0.0000 -1.0000 -0.0000
vt 1.000000 1.000000
vt 0.875000 0.500000
vt 1.000000 0.500000
vt 0.875000 1.000000
vt 0.750000 0.500000
vt 0.750000 1.000000
vt 0.625000 0.500000
vt 0.625000 1.000000
vt 0.500000 0.500000
vt 0.500000 1.000000
vt 0.375000 0.500000
vt 0.375000 1.000000
vt 0.250000 0.500000
vt 0.419706 0.080294
vt 0.490000 0.250000
vt 0.010000 0.250000
vt 0.250000 1.000000
vt 0.125000 0.500000
vt 0.125000 1.000000
vt 0.000000 0.500000
vt 0.423632 0.500000
vt 0.449088 0.500000
vt 0.576367 0.500000
vt 0.474544 0.500000
vt 0.601823 0.500000
vt 0.525456 0.500000
vt 0.550912 0.500000
vt 0.398177 0.500000
vt 0.419706 0.419706
vt 0.250000 0.490000
vt 0.080294 0.419706
vt 0.080294 0.080294
vt 0.250000 0.010000
vt 0.000000 1.000000
s 1
usemtl fabric
f 2/1/2 3/2/3 1/3/1
f 4/4/4 5/5/5 3/2/3
f 6/6/6 7/7/7 5/5/5
f 8/8/8 9/9/9 7/7/7
f 10/10/10 11/11/11 9/9/9
f 12/12/12 13/13/13 11/11/11
f 8/14/8 6/15/6 14/16/14
f 14/17/14 15/18/15 13/13/13
f 16/19/16 1/20/1 15/18/15
f 13/13/13 24/21/24 23/22/23
f 5/5/5 18/23/18 3/2/3
f 9/9/9 22/24/22 21/9/21
f 1/20/1 24/21/24 15/18/15
f 1/3/1 18/23/18 17/25/17
f 5/5/5 20/26/20 19/27/19
f 13/13/13 22/24/22 11/11/11
f 9/9/9 20/26/20 7/7/7
f 2/1/2 4/4/4 3/2/3
f 4/4/4 6/6/6 5/5/5
f 6/6/6 8/8/8 7/7/7
f 8/8/8 10/10/10 9/9/9
f 10/10/10 12/12/12 11/11/11
f 12/12/12 14/17/14 13/13/13
f 6/15/6 4/29/4 2/30/2
f 2/30/2 16/31/16 6/15/6
f 16/31/16 14/16/14 6/15/6
f 14/16/14 12/32/12 10/33/10
f 10/33/10 8/14/8 14/16/14
f 14/17/14 16/19/16 15/18/15
f 16/19/16 2/34/2 1/20/1
f 13/13/13 15/18/15 24/21/24
f 5/5/5 19/27/19 18/23/18
f 9/9/9 11/11/11 22/24/22
f 1/20/1 17/28/17 24/21/24
f 1/3/1 3/2/3 18/23/18
f 5/5/5 7/7/7 20/26/20
f 13/13/13 23/22/23 22/24/22
f 9/9/9 21/9/21 20/26/20
usemtl mocnyful
f 24/21/24 31/22/31 23/22/23
f 27/27/27 34/23/34 26/23/26
f 21/9/21 30/24/30 29/9/29
f 20/26/20 27/27/27 19/27/19
f 17/25/17 26/23/26 25/25/25
f 17/28/17 32/21/32 24/21/24
f 22/24/22 31/22/31 30/24/30
f 21/9/21 28/26/28 20/26/20
f 18/23/18 27/27/27 26/23/26
f 33/28/33 48/21/48 40/21/40
f 31/22/31 40/21/40 39/22/39
f 30/24/30 37/9/37 29/9/29
f 27/27/27 36/26/36 35/27/35
f 26/23/26 33/25/33 25/25/25
f 25/28/25 40/21/40 32/21/32
f 30/24/30 39/22/39 38/24/38
f 28/26/28 37/9/37 36/26/36
f 43/27/43 44/26/44 49/27/49
f 38/24/38 47/22/47 46/24/46
f 37/9/37 44/26/44 36/26/36
f 35/27/35 42/23/42 34/23/34
f 40/21/40 47/22/47 39/22/39
f 37/9/37 46/24/46 45/9/45
f 36/26/36 43/27/43 35/27/35
f 33/25/33 42/23/42 41/25/41
f 41/25/41 42/23/42 49/25/49
f 48/21/48 41/28/41 49/21/49
f 46/24/46 47/22/47 49/24/49
f 44/26/44 45/9/45 49/26/49
f 42/23/42 43/27/43 49/23/49
f 47/22/47 48/21/48 49/22/49
f 45/9/45 46/24/46 49/9/49
f 24/21/24 32/21/32 31/22/31
f 27/27/27 35/27/35 34/23/34
f 21/9/21 22/24/22 30/24/30
f 20/26/20 28/26/28 27/27/27
f 17/25/17 18/23/18 26/23/26
f 17/28/17 25/28/25 32/21/32
f 22/24/22 23/22/23 31/22/31
f 21/9/21 29/9/29 28/26/28
f 18/23/18 19/27/19 27/27/27
f 33/28/33 41/28/41 48/21/48
f 31/22/31 32/21/32 40/21/40
f 30/24/30 38/24/38 37/9/37
f 27/27/27 28/26/28 36/26/36
f 26/23/26 34/23/34 33/25/33
f 25/28/25 33/28/33 40/21/40
f 30/24/30 31/22/31 39/22/39
f 28/26/28 29/9/29 37/9/37
f 38/24/38 39/22/39 47/22/47
f 37/9/37 45/9/45 44/26/44
f 35/27/35 43/27/43 42/23/42
f 40/21/40 48/21/48 47/22/47
f 37/9/37 38/24/38 46/24/46
f 36/26/36 44/26/44 43/27/43
f 33/25/33 34/23/34 42/23/42
