# Blender 5.1.2
# www.blender.org
mtllib machine.mtl
o Cube.029
v 2.779329 0.894558 -3.230515
v 2.779329 0.894558 -3.142183
v 2.779329 0.894558 -3.318848
v 2.690997 0.894558 -3.230515
v 2.867661 0.894558 -3.230515
v 2.955993 1.398051 -3.389513
v 2.955993 0.921058 -3.389513
v 2.955993 0.921058 -3.310014
v 2.955993 1.398051 -3.071518
v 2.955993 0.921058 -3.151017
v 2.955993 0.921058 -3.230515
v 2.620331 1.398051 -3.407180
v 2.620331 0.921058 -3.407180
v 2.699830 0.921058 -3.407180
v 2.938327 1.398051 -3.407180
v 2.938327 0.921058 -3.407180
v 2.858828 0.921058 -3.407180
v 2.779329 0.921058 -3.407180
v 2.620331 0.921058 -3.053851
v 2.620331 1.398051 -3.053851
v 2.938327 1.398051 -3.053851
v 2.938327 0.921058 -3.053851
v 2.858828 0.921058 -3.053851
v 2.699830 0.921058 -3.053851
v 2.779329 0.921058 -3.053851
v 2.602665 0.921058 -3.151017
v 2.602665 0.921058 -3.071518
v 2.602665 1.398051 -3.071518
v 2.602665 1.398051 -3.389513
v 2.602665 0.921058 -3.310014
v 2.602665 0.921058 -3.230515
v 2.634307 1.424550 -3.085494
v 2.634307 1.424550 -3.375537
v 2.924351 1.424550 -3.375537
v 2.924351 1.424550 -3.085494
v 2.809055 0.978786 -3.060566
v 2.775260 0.944991 -3.060566
v 2.634307 0.909461 -3.085494
v 2.634307 0.909461 -3.375537
v 2.924351 0.909461 -3.375537
v 2.924351 0.909461 -3.085494
v 2.602665 0.894558 -3.053851
v 2.602665 0.894558 -3.053851
v 2.602665 0.894558 -3.053851
v 2.602665 0.894558 -3.053851
v 2.602665 1.424550 -3.053851
v 2.602665 1.424550 -3.053851
v 2.602665 1.424550 -3.053851
v 2.602665 0.894558 -3.407180
v 2.602665 0.894558 -3.407180
v 2.602665 0.894558 -3.407180
v 2.602665 0.894558 -3.407180
v 2.602665 0.894558 -3.407180
v 2.602665 1.424550 -3.407180
v 2.602665 1.424550 -3.407180
v 2.602665 1.424550 -3.407180
v 2.955993 0.894558 -3.053851
v 2.955993 0.894558 -3.053851
v 2.955993 0.894558 -3.053851
v 2.955993 0.894558 -3.053851
v 2.955993 0.894558 -3.053851
v 2.955993 1.424550 -3.053851
v 2.955993 1.424550 -3.053851
v 2.955993 1.424550 -3.053851
v 2.955993 0.894558 -3.407180
v 2.955993 0.894558 -3.407180
v 2.955993 0.894558 -3.407180
v 2.955993 0.894558 -3.407180
v 2.955993 1.424550 -3.407180
v 2.955993 1.424550 -3.407180
v 2.955993 1.424550 -3.407180
v 2.602665 0.894558 -3.230515
v 2.602665 0.894558 -3.230515
v 2.779329 0.894558 -3.407180
v 2.779329 0.894558 -3.407180
v 2.955993 0.894558 -3.230515
v 2.955993 0.894558 -3.230515
v 2.779329 0.894558 -3.053851
v 2.779329 0.894558 -3.053851
v 2.602665 0.894558 -3.142183
v 2.602665 0.894558 -3.142183
v 2.602665 0.894558 -3.142183
v 2.602665 0.894558 -3.142183
v 2.690997 0.894558 -3.407180
v 2.690997 0.894558 -3.407180
v 2.690997 0.894558 -3.407180
v 2.955993 0.894558 -3.318848
v 2.955993 0.894558 -3.318848
v 2.955993 0.894558 -3.318848
v 2.955993 0.894558 -3.318848
v 2.867661 0.894558 -3.053851
v 2.867661 0.894558 -3.053851
v 2.867661 0.894558 -3.053851
v 2.602665 0.894558 -3.318848
v 2.602665 0.894558 -3.318848
v 2.602665 0.894558 -3.318848
v 2.602665 0.894558 -3.318848
v 2.602665 0.894558 -3.318848
v 2.867661 0.894558 -3.407180
v 2.867661 0.894558 -3.407180
v 2.867661 0.894558 -3.407180
v 2.955993 0.894558 -3.142183
v 2.955993 0.894558 -3.142183
v 2.955993 0.894558 -3.142183
v 2.955993 0.894558 -3.142183
v 2.955993 0.894558 -3.142183
v 2.690997 0.894558 -3.053851
v 2.690997 0.894558 -3.053851
v 2.690997 0.894558 -3.053851
v 2.867661 0.894558 -3.318848
v 2.867661 0.894558 -3.318848
v 2.690997 0.894558 -3.318848
v 2.690997 0.894558 -3.318848
v 2.690997 0.894558 -3.142183
v 2.690997 0.894558 -3.142183
v 2.867661 0.894558 -3.142183
v 2.867661 0.894558 -3.142183
v 2.612965 0.894558 -3.131884
v 2.612965 0.894558 -3.131884
v 2.612965 0.894558 -3.131884
v 2.612965 0.894558 -3.131884
v 2.612965 0.894558 -3.131884
v 2.612965 0.894558 -3.064151
v 2.612965 0.894558 -3.064151
v 2.612965 0.894558 -3.064151
v 2.612965 0.894558 -3.064151
v 2.680697 0.894558 -3.396880
v 2.680697 0.894558 -3.396880
v 2.680697 0.894558 -3.396880
v 2.680697 0.894558 -3.396880
v 2.612965 0.894558 -3.396880
v 2.612965 0.894558 -3.396880
v 2.612965 0.894558 -3.396880
v 2.612965 0.894558 -3.396880
v 2.612965 0.894558 -3.396880
v 2.945693 0.894558 -3.329147
v 2.945693 0.894558 -3.329147
v 2.945693 0.894558 -3.329147
v 2.945693 0.894558 -3.329147
v 2.945693 0.894558 -3.329147
v 2.945693 0.894558 -3.396880
v 2.945693 0.894558 -3.396880
v 2.945693 0.894558 -3.396880
v 2.945693 0.894558 -3.396880
v 2.877961 0.894558 -3.064151
v 2.877961 0.894558 -3.064151
v 2.877961 0.894558 -3.064151
v 2.877961 0.894558 -3.064151
v 2.945693 0.894558 -3.064151
v 2.945693 0.894558 -3.064151
v 2.945693 0.894558 -3.064151
v 2.945693 0.894558 -3.064151
v 2.945693 0.894558 -3.064151
v 2.612965 0.894558 -3.329147
v 2.612965 0.894558 -3.329147
v 2.612965 0.894558 -3.329147
v 2.612965 0.894558 -3.329147
v 2.877961 0.894558 -3.396880
v 2.877961 0.894558 -3.396880
v 2.877961 0.894558 -3.396880
v 2.877961 0.894558 -3.396880
v 2.877961 0.894558 -3.396880
v 2.945693 0.894558 -3.131884
v 2.945693 0.894558 -3.131884
v 2.945693 0.894558 -3.131884
v 2.945693 0.894558 -3.131884
v 2.680697 0.894558 -3.064151
v 2.680697 0.894558 -3.064151
v 2.680697 0.894558 -3.064151
v 2.680697 0.894558 -3.064151
v 2.680697 0.894558 -3.064151
v 2.877961 0.894558 -3.329147
v 2.877961 0.894558 -3.329147
v 2.877961 0.894558 -3.329147
v 2.877961 0.894558 -3.329147
v 2.680697 0.894558 -3.329147
v 2.680697 0.894558 -3.329147
v 2.680697 0.894558 -3.329147
v 2.680697 0.894558 -3.329147
v 2.680697 0.894558 -3.329147
v 2.680697 0.894558 -3.131884
v 2.680697 0.894558 -3.131884
v 2.680697 0.894558 -3.131884
v 2.680697 0.894558 -3.131884
v 2.877961 0.894558 -3.131884
v 2.877961 0.894558 -3.131884
v 2.877961 0.894558 -3.131884
v 2.877961 0.894558 -3.131884
v 2.877961 0.894558 -3.131884
v 2.612965 -0.005442 -3.131884
v 2.612965 -0.005442 -3.131884
v 2.612965 -0.005442 -3.131884
v 2.612965 -0.005442 -3.131884
v 2.612965 -0.005442 -3.064151
v 2.612965 -0.005442 -3.064151
v 2.612965 -0.005442 -3.064151
v 2.680697 -0.005442 -3.396880
v 2.680697 -0.005442 -3.396880
v 2.680697 -0.005442 -3.396880
v 2.612965 -0.005442 -3.396880
v 2.612965 -0.005442 -3.396880
v 2.612965 -0.005442 -3.396880
v 2.612965 -0.005442 -3.396880
v 2.945693 -0.005442 -3.329147
v 2.945693 -0.005442 -3.329147
v 2.945693 -0.005442 -3.329147
v 2.945693 -0.005442 -3.329147
v 2.945693 -0.005442 -3.396880
v 2.945693 -0.005442 -3.396880
v 2.945693 -0.005442 -3.396880
v 2.877961 -0.005442 -3.064151
v 2.877961 -0.005442 -3.064151
v 2.877961 -0.005442 -3.064151
v 2.945693 -0.005442 -3.064151
v 2.945693 -0.005442 -3.064151
v 2.945693 -0.005442 -3.064151
v 2.945693 -0.005442 -3.064151
v 2.612965 -0.005442 -3.329147
v 2.612965 -0.005442 -3.329147
v 2.612965 -0.005442 -3.329147
v 2.877961 -0.005442 -3.396880
v 2.877961 -0.005442 -3.396880
v 2.877961 -0.005442 -3.396880
v 2.877961 -0.005442 -3.396880
v 2.945693 -0.005442 -3.131884
v 2.945693 -0.005442 -3.131884
v 2.945693 -0.005442 -3.131884
v 2.680697 -0.005442 -3.064151
v 2.680697 -0.005442 -3.064151
v 2.680697 -0.005442 -3.064151
v 2.680697 -0.005442 -3.064151
v 2.877961 -0.005442 -3.329147
v 2.877961 -0.005442 -3.329147
v 2.877961 -0.005442 -3.329147
v 2.680697 -0.005442 -3.329147
v 2.680697 -0.005442 -3.329147
v 2.680697 -0.005442 -3.329147
v 2.680697 -0.005442 -3.329147
v 2.680697 -0.005442 -3.131884
v 2.680697 -0.005442 -3.131884
v 2.680697 -0.005442 -3.131884
v 2.877961 -0.005442 -3.131884
v 2.877961 -0.005442 -3.131884
v 2.877961 -0.005442 -3.131884
v 2.877961 -0.005442 -3.131884
v 2.955993 0.921058 -3.071518
v 2.955993 0.921058 -3.071518
v 2.602665 0.921058 -3.389513
v 2.602665 0.921058 -3.389513
v 2.634307 0.909461 -3.085494
v 2.634307 0.909461 -3.085494
v 2.634307 0.909461 -3.375537
v 2.634307 0.909461 -3.375537
v 2.924351 0.909461 -3.375537
v 2.924351 0.909461 -3.375537
v 2.924351 0.909461 -3.085494
v 2.924351 0.909461 -3.085494
v 2.634307 0.909461 -3.085494
v 2.634307 0.909461 -3.085494
v 2.634307 0.909461 -3.375537
v 2.634307 0.909461 -3.375537
v 2.924351 0.909461 -3.375537
v 2.924351 0.909461 -3.375537
v 2.924351 0.909461 -3.085494
v 2.924351 0.909461 -3.085494
v 2.775260 1.031239 -3.074043
v 2.775260 1.031239 -3.074043
v 2.775260 1.031239 -3.074043
v 2.775260 1.031239 -3.074043
v 2.775260 1.031239 -3.060566
v 2.775260 1.031239 -3.060566
v 2.775260 1.031239 -3.060566
v 2.775260 1.031239 -3.060566
v 2.775260 1.031239 -3.060566
v 2.812350 1.015875 -3.074043
v 2.812350 1.015875 -3.074043
v 2.812350 1.015875 -3.074043
v 2.812350 1.015875 -3.074043
v 2.812350 1.015875 -3.074043
v 2.812350 1.015875 -3.060566
v 2.812350 1.015875 -3.060566
v 2.812350 1.015875 -3.060566
v 2.812350 1.015875 -3.060566
v 2.827713 0.978786 -3.074043
v 2.827713 0.978786 -3.074043
v 2.827713 0.978786 -3.074043
v 2.827713 0.978786 -3.074043
v 2.827713 0.978786 -3.074043
v 2.827713 0.978786 -3.060566
v 2.827713 0.978786 -3.060566
v 2.827713 0.978786 -3.060566
v 2.827713 0.978786 -3.060566
v 2.812350 0.941696 -3.074043
v 2.812350 0.941696 -3.074043
v 2.812350 0.941696 -3.074043
v 2.812350 0.941696 -3.074043
v 2.812350 0.941696 -3.074043
v 2.812350 0.941696 -3.074043
v 2.812350 0.941696 -3.060566
v 2.812350 0.941696 -3.060566
v 2.812350 0.941696 -3.060566
v 2.812350 0.941696 -3.060566
v 2.775260 0.926333 -3.074043
v 2.775260 0.926333 -3.074043
v 2.775260 0.926333 -3.074043
v 2.775260 0.926333 -3.074043
v 2.775260 0.926333 -3.060566
v 2.775260 0.926333 -3.060566
v 2.775260 0.926333 -3.060566
v 2.775260 0.926333 -3.060566
v 2.738170 0.941696 -3.074043
v 2.738170 0.941696 -3.074043
v 2.738170 0.941696 -3.074043
v 2.738170 0.941696 -3.074043
v 2.738170 0.941696 -3.074043
v 2.738170 0.941696 -3.060566
v 2.738170 0.941696 -3.060566
v 2.738170 0.941696 -3.060566
v 2.738170 0.941696 -3.060566
v 2.722807 0.978786 -3.074043
v 2.722807 0.978786 -3.074043
v 2.722807 0.978786 -3.074043
v 2.722807 0.978786 -3.074043
v 2.722807 0.978786 -3.074043
v 2.722807 0.978786 -3.060566
v 2.722807 0.978786 -3.060566
v 2.722807 0.978786 -3.060566
v 2.722807 0.978786 -3.060566
v 2.722807 0.978786 -3.060566
v 2.722807 0.978786 -3.060566
v 2.722807 0.978786 -3.060566
v 2.738170 1.015875 -3.074043
v 2.738170 1.015875 -3.074043
v 2.738170 1.015875 -3.074043
v 2.738170 1.015875 -3.074043
v 2.738170 1.015875 -3.074043
v 2.738170 1.015875 -3.074043
v 2.738170 1.015875 -3.060566
v 2.738170 1.015875 -3.060566
v 2.738170 1.015875 -3.060566
v 2.738170 1.015875 -3.060566
v 2.738170 1.015875 -3.060566
v 2.738170 1.015875 -3.060566
v 2.799156 0.954889 -3.060566
v 2.799156 0.954889 -3.060566
v 2.751364 0.954889 -3.060566
v 2.751364 0.954889 -3.060566
v 2.751364 0.954889 -3.060566
v 2.751364 0.954889 -3.060566
v 2.741465 0.978786 -3.060566
v 2.741465 0.978786 -3.060566
v 2.741465 0.978786 -3.060566
v 2.803484 1.009240 -3.060566
v 2.803484 1.009240 -3.060566
v 2.803484 1.009240 -3.060566
v 2.803484 1.009240 -3.060566
v 2.775260 1.020930 -3.060566
v 2.775260 1.020930 -3.060566
v 2.775260 1.020930 -3.060566
v 2.815175 0.981016 -3.060566
v 2.815175 0.981016 -3.060566
v 2.815175 0.981016 -3.060566
v 2.747036 1.009240 -3.060566
v 2.747036 1.009240 -3.060566
v 2.747036 1.009240 -3.060566
v 2.747036 1.009240 -3.060566
v 2.747036 1.009240 -3.060566
v 2.735345 0.981016 -3.060566
v 2.735345 0.981016 -3.060566
v 2.735345 0.981016 -3.060566
v 2.735345 0.981016 -3.060566
v 2.735345 0.981016 -3.060566
v 2.793444 0.962831 -3.060566
v 2.793444 0.962831 -3.060566
v 2.793444 0.962831 -3.060566
v 2.793444 0.962831 -3.060566
v 2.800977 0.981016 -3.060566
v 2.800977 0.981016 -3.060566
v 2.800977 0.981016 -3.060566
v 2.775260 0.955299 -3.060566
v 2.775260 0.955299 -3.060566
v 2.775260 0.955299 -3.060566
v 2.775260 0.955299 -3.060566
v 2.775260 0.955299 -3.060566
v 2.775260 0.955299 -3.060566
v 2.757076 0.962831 -3.060566
v 2.757076 0.962831 -3.060566
v 2.757076 0.962831 -3.060566
v 2.757076 0.962831 -3.060566
v 2.757076 0.962831 -3.060566
v 2.749543 0.981016 -3.060566
v 2.749543 0.981016 -3.060566
v 2.749543 0.981016 -3.060566
v 2.803484 1.009240 -3.067894
v 2.803484 1.009240 -3.067894
v 2.803484 1.009240 -3.067894
v 2.775260 1.020930 -3.067894
v 2.775260 1.020930 -3.067894
v 2.775260 1.020930 -3.067894
v 2.815175 0.981016 -3.067894
v 2.815175 0.981016 -3.067894
v 2.747036 1.009240 -3.067894
v 2.747036 1.009240 -3.067894
v 2.747036 1.009240 -3.067894
v 2.735345 0.981016 -3.067894
v 2.735345 0.981016 -3.067894
v 2.735345 0.981016 -3.067894
v 2.793444 0.962831 -3.067894
v 2.793444 0.962831 -3.067894
v 2.793444 0.962831 -3.067894
v 2.800977 0.981016 -3.067894
v 2.800977 0.981016 -3.067894
v 2.800977 0.981016 -3.067894
v 2.775260 0.955299 -3.067894
v 2.775260 0.955299 -3.067894
v 2.775260 0.955299 -3.067894
v 2.757076 0.962831 -3.067894
v 2.757076 0.962831 -3.067894
v 2.749543 0.981016 -3.067894
v 2.749543 0.981016 -3.067894
v 2.749543 0.981016 -3.067894
v 2.624400 0.913801 -3.075587
v 2.624400 0.913801 -3.075587
v 2.624400 0.913801 -3.075587
v 2.624400 0.913801 -3.385444
v 2.624400 0.913801 -3.385444
v 2.624400 0.913801 -3.385444
v 2.624400 0.913801 -3.385444
v 2.624400 0.913801 -3.385444
v 2.934258 0.913801 -3.385444
v 2.934258 0.913801 -3.385444
v 2.934258 0.913801 -3.385444
v 2.934258 0.913801 -3.075587
v 2.934258 0.913801 -3.075587
v 2.934258 0.913801 -3.075587
v 2.624400 1.144848 -3.075587
v 2.624400 1.144848 -3.075587
v 2.624400 1.144848 -3.075587
v 2.624400 1.123350 -3.385444
v 2.624400 1.123350 -3.385444
v 2.624400 1.123350 -3.385444
v 2.934258 1.133513 -3.385444
v 2.934258 1.133513 -3.385444
v 2.934258 1.133513 -3.385444
v 2.934258 1.131246 -3.075587
v 2.934258 1.131246 -3.075587
v 2.934258 1.131246 -3.075587
v 2.624400 1.158394 -3.230515
v 2.624400 1.158394 -3.230515
v 2.624400 1.158394 -3.230515
v 2.624400 1.158394 -3.230515
v 2.779329 1.120236 -3.385444
v 2.779329 1.120236 -3.385444
v 2.779329 1.120236 -3.385444
v 2.934258 1.118537 -3.230515
v 2.934258 1.118537 -3.230515
v 2.934258 1.118537 -3.230515
v 2.779329 1.135266 -3.075587
v 2.779329 1.135266 -3.075587
v 2.779329 1.135266 -3.075587
v 2.779329 1.135266 -3.075587
v 2.779329 1.144848 -3.230515
v 2.779329 1.144848 -3.230515
v 2.779329 1.144848 -3.230515
v 2.779329 1.144848 -3.230515
v 2.779329 1.144848 -3.230515
v 2.779329 1.144848 -3.230515
v 2.779329 1.144848 -3.230515
v 2.624400 1.144848 -3.307980
v 2.624400 1.144848 -3.307980
v 2.624400 1.144848 -3.307980
v 2.624400 1.144848 -3.307980
v 2.856793 1.133513 -3.385444
v 2.856793 1.133513 -3.385444
v 2.856793 1.133513 -3.385444
v 2.856793 1.133513 -3.385444
v 2.856793 1.133513 -3.385444
v 2.934258 1.131246 -3.153051
v 2.934258 1.131246 -3.153051
v 2.934258 1.131246 -3.153051
v 2.934258 1.131246 -3.153051
v 2.701865 1.144848 -3.075587
v 2.701865 1.144848 -3.075587
v 2.701865 1.144848 -3.075587
v 2.701865 1.144848 -3.075587
v 2.701865 1.144848 -3.075587
v 2.624400 1.158394 -3.153051
v 2.624400 1.158394 -3.153051
v 2.624400 1.158394 -3.153051
v 2.624400 1.158394 -3.153051
v 2.701865 1.123350 -3.385444
v 2.701865 1.123350 -3.385444
v 2.701865 1.123350 -3.385444
v 2.701865 1.123350 -3.385444
v 2.934258 1.133513 -3.307980
v 2.934258 1.133513 -3.307980
v 2.934258 1.133513 -3.307980
v 2.934258 1.133513 -3.307980
v 2.934258 1.133513 -3.307980
v 2.856793 1.132945 -3.075587
v 2.856793 1.132945 -3.075587
v 2.856793 1.132945 -3.075587
v 2.856793 1.132945 -3.075587
v 2.779329 1.144848 -3.153051
v 2.779329 1.144848 -3.153051
v 2.779329 1.144848 -3.153051
v 2.779329 1.144848 -3.153051
v 2.779329 1.144848 -3.153051
v 2.779329 1.135266 -3.307980
v 2.779329 1.135266 -3.307980
v 2.779329 1.135266 -3.307980
v 2.779329 1.135266 -3.307980
v 2.779329 1.135266 -3.307980
v 2.779329 1.135266 -3.307980
v 2.856793 1.123350 -3.230515
v 2.856793 1.123350 -3.230515
v 2.856793 1.123350 -3.230515
v 2.856793 1.123350 -3.230515
v 2.856793 1.123350 -3.230515
v 2.701865 1.158394 -3.230515
v 2.701865 1.158394 -3.230515
v 2.701865 1.158394 -3.230515
v 2.701865 1.158394 -3.230515
v 2.701865 1.144848 -3.307980
v 2.701865 1.144848 -3.307980
v 2.701865 1.144848 -3.307980
v 2.701865 1.144848 -3.307980
v 2.701865 1.144848 -3.307980
v 2.856793 1.135212 -3.307980
v 2.856793 1.135212 -3.307980
v 2.856793 1.135212 -3.307980
v 2.856793 1.135212 -3.307980
v 2.856793 1.135212 -3.307980
v 2.856793 1.136058 -3.153051
v 2.856793 1.136058 -3.153051
v 2.856793 1.136058 -3.153051
v 2.856793 1.136058 -3.153051
v 2.856793 1.136058 -3.153051
v 2.856793 1.136058 -3.153051
v 2.701865 1.158394 -3.153051
v 2.701865 1.158394 -3.153051
v 2.701865 1.158394 -3.153051
v 2.701865 1.158394 -3.153051
v 2.602562 1.421477 -3.053748
v 2.602562 1.421477 -3.053748
v 2.602562 1.421477 -3.053748
v 2.602562 1.421477 -3.407283
v 2.602562 1.421477 -3.407283
v 2.602562 1.421477 -3.407283
v 2.956096 1.421477 -3.407283
v 2.956096 1.421477 -3.407283
v 2.956096 1.421477 -3.407283
v 2.956096 1.421477 -3.053748
v 2.956096 1.421477 -3.053748
v 2.956096 1.421477 -3.053748
v 2.602562 1.433477 -3.053748
v 2.602562 1.433477 -3.053748
v 2.602562 1.433477 -3.053748
v 2.602562 1.433477 -3.407283
v 2.602562 1.433477 -3.407283
v 2.602562 1.433477 -3.407283
v 2.956096 1.433477 -3.407283
v 2.956096 1.433477 -3.407283
v 2.956096 1.433477 -3.407283
v 2.956096 1.433477 -3.053748
v 2.956096 1.433477 -3.053748
v 2.956096 1.433477 -3.053748
vn -0.0000 -1.0000 -0.0000
vn -0.0000 1.0000 -0.0000
vn -0.0000 0.8944 -0.4472
vn -0.0247 0.9997 -0.0000
vn -0.0811 0.9967 -0.0000
vn 0.0971 0.9953 -0.0000
vn 0.0247 0.9997 -0.0000
vn 0.0811 0.9967 -0.0000
vn -0.0971 0.9953 -0.0000
vn -0.0000 0.9984 0.0571
vn -0.0000 0.9144 0.4049
vn -0.0000 0.9965 -0.0830
vn 0.2635 0.9647 -0.0000
vn -0.0000 0.9231 -0.3846
vn -0.0000 0.8944 0.4472
vn 0.0617 0.9981 -0.0000
vn 0.2167 0.9762 -0.0000
vn -0.0000 0.9864 -0.1644
vn 0.3329 0.9430 -0.0000
vn -0.0000 0.9487 -0.3162
vn 0.0651 0.9979 -0.0000
vn 0.2625 0.9649 -0.0000
vn 0.1813 0.9834 -0.0000
vn 0.0281 0.9996 -0.0000
vn 0.1328 0.9911 -0.0000
vn -0.1813 0.9834 -0.0000
vn -0.0281 0.9996 -0.0000
vn -0.1328 0.9911 -0.0000
vn -0.3329 0.9430 -0.0000
vn -0.0651 0.9979 -0.0000
vn -0.2625 0.9649 -0.0000
vn -0.2635 0.9647 -0.0000
vn -0.0000 0.9948 0.1016
vn -0.0000 0.9892 0.1463
vn -0.0000 0.9993 0.0373
vn -0.0000 0.9781 0.2080
vn -0.0617 0.9981 -0.0000
vn -0.2167 0.9762 -0.0000
vn -0.0000 0.9978 0.0660
vn -0.0000 0.9778 0.2094
vn -0.0000 0.9767 0.2146
vn -0.0000 0.7740 0.6332
vn -0.0000 0.9811 0.1936
vn -0.0000 0.9775 0.2108
vn -0.0000 0.9967 0.0808
vn -0.0000 0.7674 0.6412
vn -0.0000 0.9231 0.3846
vn -0.2818 0.9595 -0.0000
vn -0.0470 0.9989 -0.0000
vn -0.0000 0.7682 0.6402
vn -0.0000 0.6783 0.7348
vn -0.0000 0.9317 0.3632
vn -0.0000 0.9328 0.3604
vn -0.0000 0.9323 0.3616
vn -0.0000 0.8464 0.5326
vn 0.3328 0.9430 -0.0000
vn -0.0000 0.9341 0.3571
vn -0.0000 0.9116 0.4111
vn -0.0000 0.9962 0.0866
vn 0.0794 0.9968 -0.0000
vn 0.0270 0.9996 -0.0000
vn -0.0000 0.8348 0.5505
vn -0.0000 0.9967 0.0807
vn -0.0000 0.9379 0.3470
vn -0.4960 0.8683 -0.0000
vn -0.9251 0.3798 -0.0000
vn -0.9808 0.1951 -0.0000
vn -0.3351 0.9422 -0.0000
vn 0.9251 0.3798 -0.0000
vn 0.9808 0.1951 -0.0000
vn 0.3351 0.9422 -0.0000
vn 0.7977 0.6030 -0.0000
vn 0.8315 0.5556 -0.0000
vn 0.4960 0.8683 -0.0000
vn -0.1298 0.9915 -0.0000
vn -0.5217 0.8531 -0.0000
vn -0.5556 0.8315 -0.0000
vn -0.3615 0.9324 -0.0000
vn 0.1298 0.9915 -0.0000
vn -0.1833 0.9830 -0.0000
vn -0.1951 0.9808 -0.0000
vn 0.5217 0.8531 -0.0000
vn 0.5556 0.8315 -0.0000
vn 1.0000 -0.0000 -0.0000
vn -0.0000 -0.0000 1.0000
vn -1.0000 -0.0000 -0.0000
vn -0.0000 -0.0000 -1.0000
vn -0.0000 0.5062 0.8624
vn -0.0000 0.9589 0.2839
vn 0.3633 0.9317 -0.0000
vn 0.1084 0.9941 -0.0000
vn -0.4246 0.9054 -0.0000
vn -0.0000 0.0001 1.0000
vn -0.0000 0.9851 0.1723
vn -0.0000 0.9636 -0.2674
vn 0.0219 0.9998 -0.0000
vn -0.0000 0.9851 -0.1723
vn 0.0394 0.9809 -0.1903
vn -0.1659 0.9681 -0.1878
vn 0.0609 0.9800 0.1895
vn 0.0612 0.9850 -0.1616
vn 0.0299 0.9987 0.0401
vn 0.1218 0.9850 0.1218
vn 0.1119 0.9862 0.1220
vn 0.0007 0.9924 -0.1228
vn 0.1698 0.9708 -0.1698
vn 0.2641 0.9518 -0.1561
vn 0.1218 0.9850 -0.1218
vn 0.1723 0.9851 -0.0000
vn 0.1127 0.9936 -0.0000
vn 0.2646 0.9533 0.1460
vn 0.0219 0.9995 -0.0219
vn 0.0007 0.9998 -0.0219
vn 0.0620 0.9973 0.0401
vn 0.1698 0.9708 0.1698
vn 0.1184 0.9568 -0.2655
vn 0.0217 0.9882 0.1513
vt 0.526156 0.635068
vt 0.523781 0.632693
vt 0.523781 0.635068
vt 0.523781 0.637443
vt 0.521406 0.635068
vt 0.875000 0.500000
vt 0.625000 0.750000
vt 0.625000 0.500000
vt 0.875000 0.750000
vt 0.519031 0.630318
vt 0.519031 0.639818
vt 0.528531 0.630318
vt 0.528531 0.639818
vt 0.519031 0.632693
vt 0.521406 0.639818
vt 0.528531 0.637443
vt 0.526156 0.630318
vt 0.526156 0.630318
vt 0.519031 0.637443
vt 0.526156 0.639818
vt 0.526156 0.639818
vt 0.528531 0.632693
vt 0.521406 0.630318
vt 0.519308 0.632416
vt 0.519308 0.630595
vt 0.521129 0.639541
vt 0.521129 0.639541
vt 0.519308 0.639541
vt 0.528254 0.637720
vt 0.528254 0.637720
vt 0.528254 0.639541
vt 0.528254 0.639541
vt 0.526433 0.630595
vt 0.528254 0.630595
vt 0.528254 0.630595
vt 0.519308 0.637720
vt 0.526433 0.639541
vt 0.528254 0.632416
vt 0.528254 0.632416
vt 0.521129 0.630595
vt 0.526433 0.637720
vt 0.521129 0.637720
vt 0.521129 0.632416
vt 0.526433 0.632416
vt 0.528254 0.639541
vt 0.000000 0.500000
vt 1.000000 1.000000
vt 0.875000 1.000000
vt 0.750000 0.500000
vt 0.750000 1.000000
vt 0.625000 1.000000
vt 0.500000 0.500000
vt 0.500000 1.000000
vt 0.375000 0.500000
vt 0.375000 1.000000
vt 0.250000 0.500000
vt 0.250000 1.000000
vt 0.125000 0.500000
vt 0.125000 1.000000
vt 0.375000 1.000000
vt 0.750000 1.000000
vt 0.000000 1.000000
vt 1.224991 -0.754923
vt -0.134941 0.373468
vt -0.134941 0.373468
vt 2.020179 0.366522
vt 2.020179 -0.754923
vt 2.020179 -0.754923
vt 0.103342 -0.750882
vt -1.020178 -0.747674
vt -1.018041 0.369096
vt 0.102380 0.371409
vt -0.455249 -0.754923
vt -0.455249 -0.754923
vt -1.020178 -0.187385
vt -1.020178 -0.187385
vt -0.459636 0.373468
vt -0.459636 0.373468
vt 0.102498 -0.189090
vt -0.456610 -0.192210
vt -0.971152 0.653830
vt -0.971152 0.653830
vt -1.018244 0.089313
vt -0.177800 0.370961
vt 0.103545 -0.471099
vt -0.175071 -0.754477
vt -1.019975 -0.467891
vt -0.737862 0.369543
vt 0.102399 0.091230
vt -0.176432 -0.191764
vt -0.738039 -0.190429
vt -0.459211 0.092567
vt -0.459211 0.092567
vt -0.455046 -0.475140
vt -0.455046 -0.475140
vt -0.736992 -0.472439
vt -0.736992 -0.472439
vt -0.737843 0.089365
vt -0.177375 0.090060
vt -0.174868 -0.474694
vt 0.519028 0.630315
vt 0.519028 0.630315
vt 0.519028 0.639821
vt 0.519028 0.639821
vt 0.528534 0.639821
vt 0.528534 0.630315
vt 0.519031 0.635068
vt 0.523781 0.639818
vt 0.528531 0.635068
vt 0.523781 0.630318
vt 0.526156 0.637443
vt 0.526156 0.637443
vt 0.521406 0.637443
vt 0.521406 0.637443
vt 0.521406 0.632693
vt 0.521406 0.632693
vt 0.526156 0.632693
vt 0.526156 0.632693
vt 0.528531 0.630793
vt 0.519031 0.639343
vt 1.000000 0.500000
vt 0.919706 0.419706
vt 0.580294 0.419706
vt 0.990000 0.250000
vt 0.580294 0.080294
vt 0.919706 0.080294
vt 0.510000 0.250000
vt 1.224991 0.366523
vt 0.103545 0.366523
vt 0.103545 0.366523
vt 0.103545 -0.754923
vt -0.737195 -0.752222
vt 1.224991 0.366522
vt 1.233198 -0.754923
vt -0.134941 1.494914
vt -0.971152 1.494914
vt 1.261775 1.487967
vt 2.020179 1.487967
vt -1.020179 0.934191
vt -1.020179 0.934191
vt 0.519031 0.630793
vt 0.519506 0.630318
vt 0.519882 0.631169
vt 0.519882 0.638968
vt 0.528056 0.630318
vt 0.519506 0.639818
vt 0.527680 0.638968
vt 0.527680 0.631169
vt 0.528531 0.639343
vt 0.528056 0.639818
vt 0.519031 0.637206
vt 0.519031 0.632931
vt 0.519031 0.635068
vt 0.525918 0.639818
vt 0.521643 0.639818
vt 0.528531 0.637206
vt 0.528531 0.635068
vt 0.528531 0.632931
vt 0.525918 0.630318
vt 0.521643 0.630318
vt 0.750000 0.490000
vt 0.750000 0.010000
vt -1.020179 1.214552
vt -0.134940 0.373468
vt 0.701272 0.373468
vt -0.134940 0.653830
vt -0.100260 0.934191
vt 0.701272 1.494914
vt 1.261775 1.207605
vt -0.893344 0.373468
vt 1.273043 0.927245
vt 1.224991 0.086160
vt 1.279193 -0.194201
vt 1.224991 0.646884
vt -0.085709 1.494914
vt -0.091859 1.214552
vt 1.233198 -0.474561
s 1
usemtl Metalnew
f 266/46/3 267/46/4 268/46/5 269/46/6
f 270/47/7 271/47/8 272/47/9 273/47/10 274/47/11
f 275/6/12 276/6/7 277/6/8 278/6/13 279/6/14
f 280/48/15 281/48/16 282/48/17 283/48/6
f 284/49/18 285/49/16 286/49/17 287/49/19 288/49/20
f 289/50/15 290/50/21 291/50/22 292/50/13
f 293/8/21 294/8/22 295/8/23 296/8/12 297/8/12 298/8/20
f 299/51/15 300/51/24 301/51/25 302/51/19
f 303/52/24 304/52/25 305/52/26 306/52/3
f 307/53/15 308/53/27 309/53/28 310/53/23
f 311/54/12 312/54/27 313/54/28 314/54/29 315/54/14
f 316/55/15 317/55/30 318/55/31 319/55/26
f 320/56/18 321/56/30 322/56/31 323/56/32 324/56/20
f 325/57/33 326/57/34 327/57/35 328/57/36 329/57/37 330/57/38 331/57/29
f 332/58/37 333/58/38 334/58/9 335/58/12 336/58/12 337/58/20
f 338/59/39 339/59/40 340/59/41 341/59/4 342/59/5 343/59/32
f 346/55/33 347/60/42 348/55/43 349/55/44
f 350/57/45 351/57/46 352/57/47
f 353/48/26 354/48/48 355/48/49 356/48/50
f 357/47/50 358/47/23 359/47/26
f 360/50/29 361/50/2 362/61/51
f 363/59/19 364/59/23 365/59/10 366/59/52 367/59/53
f 368/57/39 369/57/54 370/57/55 371/57/2 372/57/56
f 373/51/32 374/51/9 375/51/57 376/51/58
f 377/50/47 378/50/2 379/50/32
f 380/53/59 381/53/9 382/53/60 383/53/61 384/53/59 385/53/62
f 386/55/6 387/55/13 388/55/63 389/55/64 390/55/57
f 391/57/13 392/57/2 393/57/47
f 394/48/65 395/48/66 396/48/67
f 397/62/68 398/62/69 399/62/70
f 402/59/71 403/59/72 404/59/73
f 405/57/74 406/57/2 407/57/2
f 408/51/75 409/51/76 410/51/77
f 411/50/78 412/50/2 413/50/2
f 414/53/79 415/53/80 416/53/81
f 419/57/2 420/57/82 421/57/83
s 0
f 256/7/2 265/7/2 264/7/2 257/7/2
f 258/9/2 251/9/2 250/9/2 259/9/2
f 252/6/2 261/6/2 260/6/2 253/6/2
f 262/8/2 255/8/2 254/8/2 263/8/2
f 265/7/2 250/9/2 251/9/2 264/7/2
f 261/6/2 254/8/2 255/8/2 260/6/2
f 263/8/2 256/7/2 257/7/2 262/8/2
f 259/9/2 252/6/2 253/6/2 258/9/2
s 1
f 269/121/6 276/6/7 275/6/12 266/121/3
f 283/48/6 270/47/7 274/47/11 280/48/15
f 268/46/5 272/62/9 271/62/8 269/46/6
f 282/48/17 278/6/13 277/6/8 283/48/6
f 278/6/13 285/49/16 284/49/18 279/6/14
f 292/50/13 281/48/16 280/48/15 289/50/15
f 291/50/22 287/49/19 286/49/17 292/50/13
f 287/49/19 293/8/21 298/8/20 288/49/20
f 302/51/19 290/50/21 289/50/15 299/51/15
f 301/51/25 295/8/23 294/8/22 302/51/19
f 295/8/23 303/52/24 306/52/3 296/8/12
f 310/53/23 300/51/24 299/51/15 307/53/15
f 309/53/28 305/52/26 304/52/25 310/53/23
f 305/52/26 312/54/27 311/54/12 306/52/3
f 319/55/26 308/53/27 307/53/15 316/55/15
f 318/55/31 314/54/29 313/54/28 319/55/26
f 314/54/29 321/56/30 320/56/18 315/54/14
f 331/57/29 317/55/30 316/55/15 325/57/33
f 330/57/38 323/56/32 322/56/31 331/57/29
f 323/56/32 332/58/37 337/58/20 324/56/20
f 343/59/32 329/57/37 328/57/36 338/59/39
f 342/59/5 334/58/9 333/58/38 343/59/32
f 334/58/9 267/46/4 266/46/3 335/58/12
f 272/62/9 341/59/4 340/59/41 273/62/10
f 352/57/47 346/55/33 349/55/44 350/57/45
f 351/57/46 327/57/35 326/57/34 352/57/47
f 356/48/50 357/47/50 359/47/26 353/48/26
f 362/61/51 356/48/50 355/48/49 360/50/29
f 367/59/53 368/57/39 372/57/56 363/59/19
f 357/62/50 365/59/10 364/59/23 358/62/23
f 376/51/58 377/50/47 379/50/32 373/51/32
f 380/53/59 375/51/57 374/51/9 381/53/9
f 390/55/57 384/53/59 383/53/61 386/55/6
f 393/57/47 388/55/63 387/55/13 391/57/13
f 361/50/2 378/50/2 377/50/47 362/61/51
f 392/57/2 371/57/2 370/57/55 393/57/47
f 369/57/54 328/57/36 327/57/35 370/57/55
f 345/51/88 376/51/58 375/51/57 344/51/89
f 389/55/64 349/55/44 348/55/43 390/55/57
f 339/59/40 367/59/53 366/59/52 340/59/41
f 373/51/32 409/51/76 408/51/75 374/51/9
f 414/53/79 382/53/60 381/53/9 415/53/80
f 371/57/2 406/57/2 405/57/74 372/57/56
f 402/59/71 364/59/23 363/59/19 403/59/72
f 391/57/13 420/57/82 419/57/2 392/57/2
f 418/55/90 387/55/13 386/55/6 417/55/91
f 397/62/68 359/62/26 358/62/23 398/62/69
f 394/48/65 354/48/48 353/48/26 395/48/66
f 378/50/2 412/50/2 411/50/78 379/50/32
f 401/50/49 361/50/2 360/50/29 400/50/92
f 276/6/7 271/47/8 270/47/7 277/6/8
f 285/49/16 282/48/17 281/48/16 286/49/17
f 293/8/21 291/50/22 290/50/21 294/8/22
f 303/52/24 301/51/25 300/51/24 304/52/25
f 312/54/27 309/53/28 308/53/27 313/54/28
f 321/56/30 318/55/31 317/55/30 322/56/31
f 332/58/37 330/57/38 329/57/37 333/58/38
f 267/46/4 342/59/5 341/59/4 268/46/5
f 279/122/14 336/123/12 335/123/12 275/122/12
f 288/124/20 337/123/20 336/123/12 284/124/18
f 315/125/14 297/126/12 296/126/12 311/125/12
f 324/127/20 298/126/20 297/126/12 320/127/18
f 346/55/33 326/57/34 325/57/33 347/60/42
f 385/53/62 345/51/88 344/51/89 380/53/59
f 384/53/59 348/55/43 347/60/42 385/53/62
f 365/59/10 274/62/11 273/62/10 366/59/52
f 368/57/39 339/59/40 338/59/39 369/57/54
f 388/55/63 351/57/46 350/57/45 389/55/64
f 417/55/91 383/53/61 382/53/60 418/55/90
f 400/50/92 355/48/49 354/48/48 401/50/49
s 0
f 253/6/2 251/9/2 258/9/2
f 250/9/2 265/7/2 259/9/2
f 251/9/2 257/7/2 264/7/2
f 255/8/2 253/6/2 260/6/2
f 252/6/2 259/9/2 261/6/2
f 257/7/2 255/8/2 262/8/2
f 254/8/2 261/6/2 263/8/2
f 256/7/2 263/8/2 265/7/2
s 1
f 335/123/12 266/161/3 275/122/12
f 271/47/8 276/6/7 269/121/6
f 342/59/5 267/46/4 334/58/9
f 341/59/4 272/62/9 268/46/5
f 270/47/7 283/48/6 277/6/8
f 273/62/10 340/59/41 366/59/52
f 274/47/11 357/47/50 356/48/50
f 274/47/11 356/48/50 280/48/15
f 274/62/11 365/59/10 357/62/50
f 282/48/17 285/49/16 278/6/13
f 279/122/14 284/124/18 336/123/12
f 281/48/16 292/50/13 286/49/17
f 280/48/15 356/48/50 362/61/51
f 280/48/15 362/61/51 289/50/15
f 291/50/22 293/8/21 287/49/19
f 288/124/20 298/126/20 337/123/20
f 290/50/21 302/51/19 294/8/22
f 299/51/15 289/50/15 36/50/93
f 36/50/93 289/50/15 362/61/51
f 315/125/14 320/127/18 297/126/12
f 324/127/20 337/123/20 298/126/20
f 301/51/25 303/52/24 295/8/23
f 296/126/12 306/162/3 311/125/12
f 300/51/24 310/53/23 304/52/25
f 307/53/15 299/51/15 345/51/88
f 299/51/15 36/50/93 345/51/88
f 309/53/28 312/54/27 305/52/26
f 308/53/27 319/55/26 313/54/28
f 307/53/15 37/53/85 347/60/42
f 307/53/15 345/51/88 37/53/85
f 307/53/15 347/60/42 316/55/15
f 318/55/31 321/56/30 314/54/29
f 317/55/30 331/57/29 322/56/31
f 325/57/33 316/55/15 347/60/42
f 330/57/38 332/58/37 323/56/32
f 329/57/37 343/59/32 333/58/38
f 351/57/46 370/57/55 327/57/35
f 338/59/39 328/57/36 369/57/54
f 326/57/34 346/55/33 352/57/47
f 339/59/40 368/57/39 367/59/53
f 36/50/93 376/51/58 345/51/88
f 344/51/89 375/51/57 380/53/59
f 345/51/88 385/53/62 37/53/85
f 347/60/42 37/53/85 385/53/62
f 350/57/45 349/55/44 389/55/64
f 348/55/43 384/53/59 390/55/57
f 351/57/46 393/57/47 370/57/55
f 351/57/46 388/55/63 393/57/47
f 355/48/49 400/50/92 360/50/29
f 359/47/26 395/48/66 353/48/26
f 354/48/48 394/48/65 401/50/49
f 364/59/23 398/62/69 358/62/23
f 359/47/26 397/47/68 396/48/67 395/48/66
f 361/50/2 412/50/2 378/50/2
f 36/50/93 362/61/51 377/50/47
f 361/50/2 401/50/49 413/50/2 412/50/2
f 372/57/56 403/59/72 363/59/19
f 364/59/23 402/59/71 399/62/70 398/62/69
f 392/57/2 406/57/2 371/57/2
f 372/57/56 405/57/74 404/59/73 403/59/72
f 36/50/93 377/50/47 376/51/58
f 379/50/32 409/51/76 373/51/32
f 374/51/9 408/51/75 416/53/81 415/53/80
f 374/51/9 415/53/80 381/53/9
f 379/50/32 411/50/78 410/51/77 409/51/76
f 383/53/61 417/55/91 386/55/6
f 382/53/60 414/53/79 418/55/90
f 387/55/13 418/55/90 421/57/83 420/57/82
f 387/55/13 420/57/82 391/57/13
f 392/57/2 419/57/2 407/57/2 406/57/2
s 0
usemtl Material.102
f 5/1/1 2/2/1 1/3/1
f 3/4/1 1/3/1 4/5/1
f 39/6/2 41/7/2 40/8/2
f 39/6/2 38/9/2 41/7/2
f 42/10/2 43/10/2 44/10/2 45/10/2
f 46/10/2 47/10/2 48/10/2
f 49/11/2 50/11/2 51/11/2 52/11/2 53/11/2
f 54/11/2 55/11/2 56/11/2
f 57/12/2 58/12/2 59/12/2 60/12/2 61/12/2
f 62/12/2 63/12/2 64/12/2
f 65/13/2 66/13/2 67/13/2 68/13/2
f 69/13/2 70/13/2 71/13/2
f 80/14/2 81/14/2 82/14/2 83/14/2
f 84/15/2 85/15/2 86/15/2
f 87/16/2 88/16/2 89/16/2 90/16/2
f 91/17/2 92/17/2 93/18/2
f 94/19/2 95/19/2 96/19/2 97/19/2 98/19/2
f 99/20/2 100/21/2 101/20/2
f 102/22/2 103/22/2 104/22/2 105/22/2 106/22/2
f 107/23/2 108/23/2 109/23/2
f 118/24/2 119/24/2 120/24/2 121/24/2 122/24/2
f 123/25/2 124/25/2 125/25/2 126/25/2
f 127/26/2 128/27/2 129/26/2 130/26/2
f 131/28/2 132/28/2 133/28/2 134/28/2 135/28/2
f 136/29/2 137/29/2 138/29/2 139/29/2 140/30/2
f 141/31/2 142/31/2 143/31/2 144/32/2
f 145/33/2 146/33/2 147/33/2 148/33/2
f 149/34/2 150/34/2 151/35/2 152/34/2 153/34/2
f 154/36/2 155/36/2 156/36/2 157/36/2
f 158/37/2 159/37/2 160/37/2 161/37/2 162/37/2
f 163/38/2 164/38/2 165/38/2 166/39/2
f 167/40/2 168/40/2 169/40/2 170/40/2 171/40/2
f 172/41/2 173/41/2 174/41/2 175/41/2
f 176/42/2 177/42/2 178/42/2 179/42/2 180/42/2
f 181/43/2 182/43/2 183/43/2 184/43/2
f 185/44/2 186/44/2 187/44/2 188/44/2 189/44/2
f 190/24/2 191/24/2 192/24/2 193/24/2
f 194/25/2 195/25/2 196/25/2
f 197/26/2 198/26/2 199/26/2
f 200/28/2 201/28/2 202/28/2 203/28/2
f 204/29/2 205/29/2 206/29/2 207/29/2
f 208/45/2 209/31/2 210/45/2
f 211/33/2 212/33/2 213/33/2
f 214/34/2 215/34/2 216/34/2 217/34/2
f 218/36/2 219/36/2 220/36/2
f 221/37/2 222/37/2 223/37/2 224/37/2
f 225/39/2 226/38/2 227/39/2
f 228/40/2 229/40/2 230/40/2 231/40/2
f 232/41/2 233/41/2 234/41/2
f 235/42/2 236/42/2 237/42/2 238/42/2
f 239/43/2 240/43/2 241/43/2
f 242/44/2 243/44/2 244/44/2 245/44/2
f 422/63/2 423/63/2 424/63/2
f 425/64/2 426/65/2 427/64/2 428/65/2 429/65/2
f 430/66/2 431/66/2 432/66/2
f 433/67/2 434/68/2 435/68/2
f 436/69/2 437/69/2 438/69/2
f 439/70/2 440/70/2 441/70/2
f 442/71/2 443/71/2 444/71/2
f 445/72/2 446/72/2 447/72/2
f 448/73/2 449/74/2 450/74/2 451/74/2
f 452/75/2 453/75/2 454/76/2
f 455/77/2 456/77/2 457/78/2
f 458/79/2 459/79/2 460/79/2 461/79/2
f 462/80/2 463/80/2 464/80/2 465/80/2 466/80/2 467/80/2 468/80/2
f 469/81/2 470/81/2 471/82/2 472/82/2
f 473/83/2 474/83/2 475/83/2 476/83/2 477/83/2
f 478/84/2 479/84/2 480/84/2 481/84/2
f 482/85/2 483/85/2 484/85/2 485/85/2 486/85/2
f 487/86/2 488/86/2 489/86/2 490/86/2
f 491/87/2 492/87/2 493/87/2 494/87/2
f 495/88/2 496/88/2 497/88/2 498/88/2 499/88/2
f 500/89/2 501/89/2 502/89/2 503/89/2
f 504/90/2 505/90/2 506/90/2 507/90/2 508/90/2
f 509/91/2 510/91/2 511/91/2 512/91/2 513/91/2 514/91/2
f 515/92/2 516/92/2 517/92/2 518/92/2 519/93/2
f 520/94/2 521/95/2 522/94/2 523/95/2
f 524/96/2 525/96/2 526/96/2 527/97/2 528/96/2
f 529/98/2 530/98/2 531/98/2 532/98/2 533/98/2
f 534/99/2 535/99/2 536/99/2 537/99/2 538/99/2 539/99/2
f 540/100/2 541/100/2 542/100/2 543/100/2
f 544/101/2 545/101/2 546/102/2
f 547/103/2 548/104/2 549/104/2
f 550/105/2 551/105/2 552/105/2
f 553/106/2 554/106/2 555/106/2
f 556/101/2 557/102/2 558/101/2
f 559/104/2 560/103/2 561/104/2
f 562/105/2 563/105/2 564/105/2
f 565/106/2 566/106/2 567/106/2
f 83/14/2 42/10/2 45/10/2 80/14/2
f 44/10/2 46/10/2 48/10/2 45/10/2
f 47/10/2 54/11/2 56/11/2 48/10/2
f 55/11/2 49/11/2 53/11/2 56/11/2
f 86/15/2 50/11/2 49/11/2 84/15/2
f 54/11/2 69/13/2 71/13/2 55/11/2
f 70/13/2 65/13/2 68/13/2 71/13/2
f 90/16/2 66/13/2 65/13/2 87/16/2
f 69/13/2 62/12/2 64/12/2 70/13/2
f 63/12/2 57/12/2 61/12/2 64/12/2
f 93/18/2 58/12/2 57/12/2 91/17/2
f 62/12/2 47/10/2 46/10/2 63/12/2
f 98/19/2 72/107/2 73/107/2 94/19/2
f 101/20/2 74/108/2 75/108/2 99/20/2
f 106/22/2 76/109/2 77/109/2 102/22/2
f 109/23/2 78/110/2 79/110/2 107/23/2
f 72/107/2 81/14/2 80/14/2 73/107/2
f 74/108/2 85/15/2 84/15/2 75/108/2
f 76/109/2 88/16/2 87/16/2 77/109/2
f 78/110/2 92/17/2 91/17/2 79/110/2
f 51/11/2 96/19/2 95/19/2 52/11/2
f 67/13/2 100/21/2 99/20/2 68/13/2
f 59/12/2 104/22/2 103/22/2 60/12/2
f 43/10/2 108/23/2 107/23/2 44/10/2
f 88/16/2 111/111/2 110/112/2 89/16/2
f 113/113/2 98/19/2 97/19/2 112/114/2
f 114/115/2 82/14/2 81/14/2 115/116/2
f 105/22/2 116/117/2 117/118/2 106/22/2
f 122/24/2 123/25/2 126/25/2 118/24/2
f 127/26/2 132/28/2 131/28/2 128/27/2
f 140/30/2 141/31/2 144/32/2 136/29/2
f 145/33/2 150/34/2 149/34/2 146/33/2
f 133/28/2 154/36/2 157/36/2 134/28/2
f 143/31/2 159/37/2 158/37/2 144/32/2
f 151/35/2 163/38/2 166/39/2 152/34/2
f 125/25/2 168/40/2 167/40/2 126/25/2
f 160/37/2 172/41/2 175/41/2 161/37/2
f 138/29/2 175/41/2 174/41/2 139/29/2
f 128/27/2 176/42/2 180/42/2 129/26/2
f 178/42/2 157/36/2 156/36/2 179/42/2
f 184/43/2 170/40/2 169/40/2 181/43/2
f 183/43/2 121/24/2 120/24/2 184/43/2
f 189/44/2 147/33/2 146/33/2 185/44/2
f 165/38/2 188/44/2 187/44/2 166/39/2
f 136/29/2 90/16/2 89/16/2 137/29/2
f 116/117/2 186/44/2 185/44/2 117/118/2
f 82/14/2 119/24/2 118/24/2 83/14/2
f 112/114/2 177/42/2 176/42/2 113/113/2
f 50/11/2 135/28/2 134/28/2 51/11/2
f 152/34/2 59/12/2 58/12/2 153/34/2
f 161/37/2 101/20/2 100/21/2 162/37/2
f 108/23/2 171/40/2 170/40/2 109/23/2
f 193/24/84 194/25/84 196/25/84 190/24/84
f 199/26/85 201/28/85 200/28/85 197/26/85
f 207/29/86 208/45/86 210/45/86 204/29/86
f 213/33/87 215/34/87 214/34/87 211/33/87
f 201/28/84 218/36/84 220/36/84 202/28/84
f 208/45/85 222/37/85 221/37/85 209/31/85
f 215/34/86 225/39/86 227/39/86 216/34/86
f 194/25/87 229/40/87 228/40/87 195/25/87
f 222/37/84 232/41/84 234/41/84 223/37/84
f 206/29/87 233/41/87 232/41/87 207/29/87
f 198/26/86 235/42/86 238/42/86 199/26/86
f 237/42/87 219/36/87 218/36/87 238/42/87
f 241/43/86 230/40/86 229/40/86 239/43/86
f 239/43/85 193/24/85 192/24/85 240/43/85
f 245/44/84 213/33/84 212/33/84 242/44/84
f 225/39/85 245/44/85 244/44/85 226/38/85
f 172/41/2 234/41/2 233/41/2 173/41/2
f 204/29/2 140/30/2 139/29/2 205/29/2
f 209/31/2 142/31/2 141/31/2 210/45/2
f 179/42/2 236/42/2 235/42/2 180/42/2
f 197/26/2 130/26/2 129/26/2 198/26/2
f 147/33/2 212/33/2 211/33/2 148/33/2
f 216/34/2 151/35/2 150/34/2 217/34/2
f 154/36/2 220/36/2 219/36/2 155/36/2
f 132/28/2 203/28/2 202/28/2 133/28/2
f 168/40/2 231/40/2 230/40/2 169/40/2
f 240/43/2 182/43/2 181/43/2 241/43/2
f 223/37/2 160/37/2 159/37/2 224/37/2
f 190/24/2 122/24/2 121/24/2 191/24/2
f 226/38/2 164/38/2 163/38/2 227/39/2
f 188/44/2 243/44/2 242/44/2 189/44/2
f 123/25/2 196/25/2 195/25/2 124/25/2
f 60/12/2 246/119/2 247/119/2 61/12/2
f 52/11/2 248/120/2 249/120/2 53/11/2
f 137/29/2 110/112/2 111/111/2 138/29/2
f 217/34/2 145/33/2 148/33/2 214/34/2
f 205/29/2 174/41/2 173/41/2 206/29/2
f 177/42/2 97/19/2 96/19/2 178/42/2
f 186/44/2 105/22/2 104/22/2 187/44/2
f 153/34/2 93/18/2 92/17/2 149/34/2
f 162/37/2 67/13/2 66/13/2 158/37/2
f 135/28/2 86/15/2 85/15/2 131/28/2
f 171/40/2 43/10/2 42/10/2 167/40/2
f 119/24/2 114/115/2 115/116/2 120/24/2
f 236/42/2 156/36/2 155/36/2 237/42/2
f 224/37/2 143/31/2 142/31/2 221/37/2
f 191/24/2 183/43/2 182/43/2 192/24/2
f 231/40/2 125/25/2 124/25/2 228/40/2
f 243/44/2 165/38/2 164/38/2 244/44/2
f 203/28/2 127/26/2 130/26/2 200/28/2
f 246/119/2 103/22/2 102/22/2 247/119/2
f 248/120/2 95/19/2 94/19/2 249/120/2
f 424/63/2 425/128/2 429/128/2 422/63/2
f 428/128/2 430/129/2 432/130/2 429/128/2
f 431/129/2 433/131/2 435/131/2 432/130/2
f 434/131/2 423/63/2 422/63/2 435/131/2
f 472/132/2 439/70/2 441/70/2 469/132/2
f 473/83/2 442/71/2 444/71/2 474/83/2
f 478/84/2 445/72/2 447/72/2 479/84/2
f 486/85/2 436/69/2 438/69/2 482/85/2
f 430/66/2 444/133/2 443/133/2 431/66/2
f 446/134/2 434/68/2 433/67/2 447/134/2
f 423/135/2 438/136/2 437/136/2 424/135/2
f 440/137/2 428/138/2 427/138/2 441/137/2
f 490/86/2 448/73/2 451/74/2 487/86/2
f 491/87/2 452/75/2 454/76/2 492/87/2
f 495/88/2 455/77/2 457/78/2 496/88/2
f 503/89/2 458/79/2 461/79/2 500/89/2
f 504/90/2 460/79/2 459/79/2 505/90/2
f 514/91/2 462/80/2 468/80/2 509/91/2
f 519/93/2 456/77/2 455/77/2 515/92/2
f 523/95/2 464/80/2 463/80/2 520/94/2
f 449/74/2 471/132/2 470/132/2 450/74/2
f 453/75/2 475/83/2 474/83/2 454/76/2
f 456/77/2 480/84/2 479/84/2 457/78/2
f 460/79/2 483/85/2 482/85/2 461/79/2
f 436/69/2 488/86/2 487/86/2 437/69/2
f 439/70/2 493/87/2 492/87/2 440/70/2
f 442/71/2 497/88/2 496/88/2 443/71/2
f 445/72/2 501/89/2 500/89/2 446/72/2
f 464/80/2 507/90/2 506/90/2 465/80/2
f 452/75/2 512/91/2 511/91/2 453/75/2
f 466/80/2 518/92/2 517/92/2 467/80/2
f 448/73/2 522/94/2 521/95/2 449/74/2
f 528/96/2 521/95/2 520/94/2 524/96/2
f 493/87/2 527/97/2 526/96/2 494/87/2
f 525/96/2 514/91/2 513/91/2 526/96/2
f 471/132/2 528/96/2 527/97/2 472/132/2
f 529/98/2 517/92/2 516/92/2 530/98/2
f 476/83/2 532/98/2 531/98/2 477/83/2
f 530/98/2 499/88/2 498/88/2 531/98/2
f 509/91/2 533/98/2 532/98/2 510/91/2
f 534/99/2 503/89/2 502/89/2 535/99/2
f 518/92/2 537/99/2 536/99/2 519/93/2
f 535/99/2 481/84/2 480/84/2 536/99/2
f 505/90/2 539/99/2 538/99/2 506/90/2
f 540/100/2 485/85/2 484/85/2 541/100/2
f 522/94/2 543/100/2 542/100/2 523/95/2
f 541/100/2 508/90/2 507/90/2 542/100/2
f 489/86/2 540/100/2 543/100/2 490/86/2
f 485/85/2 489/86/2 488/86/2 486/85/2
f 426/65/2 470/81/2 469/81/2 427/64/2
f 450/139/2 426/65/2 425/64/2 451/140/2
f 458/79/2 534/99/2 539/99/2 459/79/2
f 467/80/2 529/98/2 533/98/2 468/80/2
f 462/80/2 525/96/2 524/96/2 463/80/2
f 512/91/2 491/87/2 494/87/2 513/91/2
f 515/92/2 495/88/2 499/88/2 516/92/2
f 497/88/2 473/83/2 477/83/2 498/88/2
f 510/91/2 476/83/2 475/83/2 511/91/2
f 501/89/2 478/84/2 481/84/2 502/89/2
f 537/99/2 466/80/2 465/80/2 538/99/2
f 483/85/2 504/90/2 508/90/2 484/85/2
f 546/102/2 547/103/2 549/104/2 544/101/2
f 548/104/2 550/105/2 552/105/2 549/104/2
f 551/105/2 553/106/2 555/106/2 552/105/2
f 554/106/2 545/101/2 544/101/2 555/106/2
f 558/101/2 559/104/2 561/104/2 556/101/2
f 559/104/2 562/105/2 564/105/2 560/103/2
f 562/105/2 565/106/2 567/106/2 563/105/2
f 565/106/2 558/101/2 557/102/2 566/106/2
f 550/105/2 564/105/2 563/105/2 551/105/2
f 566/106/2 554/106/2 553/106/2 567/106/2
f 545/101/2 557/102/2 556/101/2 546/102/2
f 560/103/2 548/104/2 547/103/2 561/104/2
f 80/14/86 45/10/86 27/141/86
f 43/10/1 171/40/1 108/23/1
f 44/10/85 20/142/85 46/10/85
f 45/10/86 28/141/86 27/141/86
f 83/14/1 126/25/1 42/10/1
f 45/10/86 48/10/86 28/141/86
f 107/23/85 19/142/85 44/10/85
f 42/10/1 126/25/1 167/40/1
f 44/10/85 19/142/85 20/142/85
f 47/10/2 32/143/2 33/144/2
f 46/10/85 21/145/85 63/12/85
f 47/10/2 33/144/2 54/11/2
f 56/11/86 28/141/86 48/10/86
f 62/12/2 32/143/2 47/10/2
f 46/10/85 20/142/85 21/145/85
f 49/11/87 55/11/87 12/146/87
f 86/15/1 135/28/1 50/11/1
f 95/19/86 248/120/86 52/11/86
f 51/11/1 134/28/1 157/36/1
f 84/15/87 49/11/87 13/146/87
f 53/11/86 249/120/86 29/120/86
f 51/11/1 157/36/1 96/19/1
f 49/11/87 12/146/87 13/146/87
f 53/11/86 29/120/86 56/11/86
f 71/13/87 12/146/87 55/11/87
f 56/11/86 29/120/86 28/141/86
f 54/11/2 33/144/2 34/147/2
f 54/11/2 34/147/2 69/13/2
f 57/12/85 63/12/85 21/145/85
f 93/18/1 153/34/1 58/12/1
f 103/22/84 246/119/84 60/12/84
f 59/12/1 152/34/1 166/39/1
f 61/12/84 247/119/84 9/119/84
f 91/17/85 57/12/85 22/145/85
f 59/12/1 166/39/1 104/22/1
f 61/12/84 9/119/84 64/12/84
f 57/12/85 21/145/85 22/145/85
f 69/13/2 35/148/2 62/12/2
f 64/12/84 9/119/84 6/149/84
f 62/12/2 35/148/2 32/143/2
f 64/12/84 6/149/84 70/13/84
f 65/13/84 70/13/84 6/149/84
f 90/16/1 144/32/1 66/13/1
f 99/20/87 16/150/87 68/13/87
f 66/13/1 144/32/1 158/37/1
f 87/16/84 65/13/84 7/149/84
f 68/13/87 16/150/87 15/150/87
f 67/13/1 162/37/1 100/21/1
f 65/13/84 6/149/84 7/149/84
f 68/13/87 15/150/87 71/13/87
f 71/13/87 15/150/87 12/146/87
f 69/13/2 34/147/2 35/148/2
f 73/107/86 30/151/86 94/19/86
f 113/113/1 72/107/1 98/19/1
f 4/5/1 81/14/1 72/107/1
f 73/107/86 80/14/86 26/152/86
f 73/107/86 31/153/86 30/151/86
f 113/113/1 4/5/1 72/107/1
f 73/107/86 26/152/86 31/153/86
f 75/108/87 17/154/87 99/20/87
f 101/20/1 3/4/1 74/108/1
f 75/108/87 84/15/87 14/155/87
f 74/108/1 3/4/1 113/113/1
f 75/108/87 18/108/87 17/154/87
f 74/108/1 113/113/1 85/15/1
f 75/108/87 14/155/87 18/108/87
f 76/109/1 106/22/1 117/118/1
f 77/109/84 87/16/84 8/156/84
f 88/16/1 76/109/1 5/1/1
f 77/109/84 11/157/84 10/158/84
f 77/109/84 8/156/84 11/157/84
f 76/109/1 117/118/1 5/1/1
f 77/109/84 10/158/84 102/22/84
f 2/2/1 78/110/1 109/23/1
f 117/118/1 78/110/1 2/2/1
f 79/110/85 91/17/85 23/159/85
f 79/110/85 25/110/85 24/160/85
f 117/118/1 92/17/1 78/110/1
f 79/110/85 23/159/85 25/110/85
f 79/110/85 24/160/85 107/23/85
f 114/115/1 119/24/1 82/14/1
f 83/14/1 118/24/1 126/25/1
f 80/14/86 27/141/86 26/152/86
f 4/5/1 115/116/1 81/14/1
f 113/113/1 128/27/1 85/15/1
f 85/15/1 128/27/1 131/28/1
f 84/15/87 13/146/87 14/155/87
f 110/112/1 137/29/1 89/16/1
f 90/16/1 136/29/1 144/32/1
f 88/16/1 5/1/1 111/111/1
f 87/16/84 7/149/84 8/156/84
f 117/118/1 146/33/1 92/17/1
f 92/17/1 146/33/1 149/34/1
f 91/17/85 22/145/85 23/159/85
f 96/19/1 157/36/1 178/42/1
f 94/19/86 30/151/86 249/120/86
f 97/19/1 177/42/1 112/114/1
f 101/20/1 111/111/1 3/4/1
f 101/20/1 161/37/1 175/41/1
f 99/20/87 17/154/87 16/150/87
f 101/20/1 175/41/1 111/111/1
f 104/22/1 166/39/1 187/44/1
f 102/22/84 10/158/84 247/119/84
f 105/22/1 186/44/1 116/117/1
f 109/23/1 184/43/1 115/116/1
f 2/2/1 109/23/1 115/116/1
f 109/23/1 170/40/1 184/43/1
f 107/23/85 24/160/85 19/142/85
f 111/111/1 5/1/1 1/3/1
f 111/111/1 175/41/1 138/29/1
f 111/111/1 1/3/1 3/4/1
f 3/4/1 4/5/1 113/113/1
f 113/113/1 176/42/1 128/27/1
f 1/3/1 115/116/1 4/5/1
f 115/116/1 184/43/1 120/24/1
f 1/3/1 2/2/1 115/116/1
f 5/1/1 117/118/1 2/2/1
f 117/118/1 185/44/1 146/33/1
f 183/43/87 191/24/87 121/24/87
f 122/24/86 190/24/86 196/25/86
f 122/24/86 196/25/86 123/25/86
f 125/25/85 231/40/85 168/40/85
f 124/25/85 195/25/85 228/40/85
f 180/42/84 198/26/84 129/26/84
f 130/26/87 197/26/87 200/28/87
f 127/26/87 203/28/87 132/28/87
f 133/28/86 220/36/86 154/36/86
f 133/28/86 202/28/86 220/36/86
f 174/41/85 205/29/85 139/29/85
f 140/30/84 204/29/84 210/45/84
f 140/30/84 210/45/84 141/31/84
f 143/31/87 224/37/87 159/37/87
f 142/31/87 209/31/87 221/37/87
f 189/44/86 212/33/86 147/33/86
f 148/33/85 211/33/85 214/34/85
f 145/33/85 217/34/85 150/34/85
f 151/35/84 227/39/84 163/38/84
f 151/35/84 216/34/84 227/39/84
f 156/36/85 236/42/85 179/42/85
f 155/36/85 219/36/85 237/42/85
f 160/37/86 234/41/86 172/41/86
f 160/37/86 223/37/86 234/41/86
f 165/38/87 243/44/87 188/44/87
f 164/38/87 226/38/87 244/44/87
f 169/40/84 241/43/84 181/43/84
f 169/40/84 230/40/84 241/43/84
f 173/41/85 233/41/85 206/29/85
f 180/42/84 235/42/84 198/26/84
f 182/43/87 240/43/87 192/24/87
f 189/44/86 242/44/86 212/33/86
f 239/43/1 194/25/1 193/24/1
f 239/43/1 229/40/1 194/25/1
f 199/26/1 238/42/1 218/36/1
f 199/26/1 218/36/1 201/28/1
f 208/45/1 207/29/1 232/41/1
f 208/45/1 232/41/1 222/37/1
f 225/39/1 215/34/1 213/33/1
f 225/39/1 213/33/1 245/44/1
f 425/64/86 424/135/86 451/140/86
f 487/163/86 451/140/86 424/135/86
f 438/164/85 423/165/85 482/166/85
f 461/167/85 482/166/85 423/165/85
f 435/131/1 422/63/1 429/128/1
f 423/165/85 434/168/85 461/167/85
f 424/135/86 437/136/86 487/163/86
f 435/131/1 429/128/1 432/130/1
f 428/138/87 440/137/87 492/169/87
f 441/170/86 427/64/86 469/81/86
f 470/81/86 426/65/86 450/139/86
f 430/66/87 428/138/87 454/171/87
f 428/138/87 492/169/87 454/171/87
f 431/66/84 443/133/84 496/172/84
f 433/67/84 431/66/84 457/173/84
f 431/66/84 496/172/84 457/173/84
f 444/133/87 430/66/87 474/174/87
f 454/171/87 474/174/87 430/66/87
f 434/168/85 446/175/85 500/176/85
f 447/134/84 433/67/84 479/177/84
f 457/173/84 479/177/84 433/67/84
f 434/168/85 500/176/85 461/167/85
f 488/86/94 436/69/94 486/85/94
f 439/70/95 472/132/95 527/97/95
f 439/70/95 527/97/95 493/87/95
f 473/83/2 497/88/2 442/71/2
f 478/84/96 501/89/96 445/72/96
f 448/73/2 490/86/2 543/100/2
f 471/132/97 449/74/97 521/95/97
f 448/73/2 543/100/2 522/94/2
f 491/87/98 512/91/98 452/75/98
f 475/83/99 453/75/99 511/91/99
f 495/88/100 515/92/100 455/77/100
f 519/93/101 480/84/101 456/77/101
f 534/99/102 458/79/102 503/89/102
f 504/90/103 483/85/103 460/79/103
f 539/99/104 505/90/104 459/79/104
f 533/98/105 509/91/105 468/80/105
f 524/96/106 520/94/106 463/80/106
f 466/80/107 537/99/107 518/92/107
f 525/96/108 462/80/108 514/91/108
f 523/95/109 507/90/109 464/80/109
f 465/80/110 506/90/110 538/99/110
f 529/98/111 467/80/111 517/92/111
f 471/132/97 521/95/97 528/96/97
f 477/83/112 531/98/112 498/88/112
f 476/83/113 510/91/113 532/98/113
f 481/84/114 535/99/114 502/89/114
f 519/93/101 536/99/101 480/84/101
f 489/86/94 485/85/94 540/100/94
f 508/90/115 541/100/115 484/85/115
f 494/87/116 526/96/116 513/91/116
f 499/88/117 530/98/117 516/92/117
f 523/95/109 542/100/109 507/90/109
f 555/106/1 544/101/1 549/104/1
f 554/106/85 557/102/85 545/101/85
f 546/102/86 556/101/86 561/104/86
f 546/102/86 561/104/86 547/103/86
f 548/104/87 564/105/87 550/105/87
f 555/106/1 549/104/1 552/105/1
f 548/104/87 560/103/87 564/105/87
f 551/105/84 563/105/84 567/106/84
f 551/105/84 567/106/84 553/106/84
f 554/106/85 566/106/85 557/102/85
f 559/104/2 558/101/2 565/106/2
f 559/104/2 565/106/2 562/105/2
