# Blender 5.1.2
# www.blender.org
mtllib piszki2.mtl
o Cube.048
v 0.239665 0.589663 -0.098062
v 0.228783 0.579010 -0.098035
v 0.229260 0.624063 -0.098155
v 0.239914 0.613181 -0.098124
v -0.224842 0.583819 -0.098145
v -0.235496 0.594701 -0.098176
v -0.235246 0.618219 -0.098238
v -0.224364 0.628872 -0.098265
v 0.228902 0.589720 -0.119601
v 0.239667 0.589635 -0.108830
v 0.228785 0.578981 -0.108804
v 0.229263 0.624034 -0.108924
v 0.239916 0.613152 -0.108892
v 0.229151 0.613237 -0.119664
v -0.224840 0.583791 -0.108913
v -0.235494 0.594673 -0.108944
v -0.224723 0.594530 -0.119710
v -0.224362 0.628844 -0.109033
v -0.224474 0.618047 -0.119773
v -0.235244 0.618190 -0.109007
v -0.187982 0.594226 -0.087396
v -0.198859 0.583515 -0.108907
v -0.177212 0.594083 -0.098162
v -0.176962 0.617601 -0.098225
v -0.198382 0.628568 -0.109027
v -0.187733 0.617743 -0.087459
v -0.187975 0.594140 -0.119701
v -0.188091 0.583401 -0.108904
v -0.187614 0.628454 -0.109025
v -0.187726 0.617657 -0.119764
v 0.207556 0.579206 -0.108809
v 0.196898 0.590145 -0.087304
v 0.186132 0.590231 -0.098074
v 0.197154 0.613577 -0.119671
v 0.197266 0.624373 -0.108932
v 0.186382 0.613748 -0.098137
v 0.197147 0.613663 -0.087366
v 0.208034 0.624259 -0.108929
v 0.196905 0.590059 -0.119609
v 0.196788 0.579320 -0.108811
v 0.207543 0.579373 -0.046291
v 0.207655 0.590169 -0.035552
v 0.196889 0.590255 -0.046322
v 0.228772 0.579148 -0.046286
v 0.239653 0.589801 -0.046312
v 0.228884 0.589944 -0.035546
v 0.239903 0.613318 -0.046375
v 0.229250 0.624200 -0.046406
v 0.229133 0.613461 -0.035609
v -0.198395 0.628735 -0.046509
v -0.198511 0.617996 -0.035712
v -0.187741 0.617853 -0.046478
v -0.224375 0.629010 -0.046515
v -0.235258 0.618356 -0.046489
v -0.224492 0.618271 -0.035718
v -0.235507 0.594839 -0.046427
v -0.224853 0.583957 -0.046395
v -0.224741 0.594754 -0.035655
v -0.198873 0.583682 -0.046389
v -0.187991 0.594335 -0.046415
v -0.198761 0.594478 -0.035649
v 0.208021 0.624426 -0.046411
v 0.197138 0.613772 -0.046385
v 0.207904 0.613686 -0.035614
v 0.229106 -0.406121 -0.095410
v 0.218224 -0.416775 -0.095384
v 0.218702 -0.371722 -0.095504
v 0.229356 -0.382604 -0.095473
v -0.235400 -0.411965 -0.095493
v -0.246054 -0.401083 -0.095525
v -0.245805 -0.377566 -0.095587
v -0.234923 -0.366912 -0.095613
v 0.218343 -0.406064 -0.116950
v 0.229109 -0.406150 -0.106179
v 0.218226 -0.416804 -0.106153
v 0.218704 -0.371751 -0.106273
v 0.229358 -0.382633 -0.106241
v 0.218592 -0.382547 -0.117013
v -0.235398 -0.411994 -0.106262
v -0.246052 -0.401112 -0.106293
v -0.235282 -0.401255 -0.117059
v -0.234920 -0.366941 -0.106382
v -0.235032 -0.377738 -0.117122
v -0.245802 -0.377595 -0.106356
v -0.198540 -0.401558 -0.084745
v -0.209418 -0.412269 -0.106256
v -0.187770 -0.401701 -0.095511
v -0.187521 -0.378184 -0.095573
v -0.208940 -0.367216 -0.106376
v -0.198291 -0.378041 -0.084808
v -0.198534 -0.401644 -0.117050
v -0.198650 -0.412384 -0.106253
v -0.198172 -0.367331 -0.106373
v -0.198284 -0.378127 -0.117113
v 0.196998 -0.416579 -0.106158
v 0.186339 -0.405639 -0.084652
v 0.175574 -0.405554 -0.095423
v 0.186596 -0.382208 -0.117020
v 0.186707 -0.371411 -0.106280
v 0.175823 -0.382036 -0.095486
v 0.186589 -0.382122 -0.084715
v 0.197475 -0.371526 -0.106278
v 0.186346 -0.405725 -0.116958
v 0.186230 -0.416464 -0.106160
v 0.196984 -0.416412 -0.043640
v 0.197096 -0.405615 -0.032900
v 0.186331 -0.405530 -0.043671
v 0.218213 -0.416637 -0.043635
v 0.229095 -0.405983 -0.043661
v 0.218325 -0.405841 -0.032895
v 0.229345 -0.382466 -0.043724
v 0.218691 -0.371584 -0.043755
v 0.218574 -0.382323 -0.032958
v -0.208954 -0.367050 -0.043858
v -0.209070 -0.377789 -0.033061
v -0.198300 -0.377932 -0.043827
v -0.234934 -0.366774 -0.043864
v -0.245816 -0.377428 -0.043838
v -0.235050 -0.377514 -0.033067
v -0.246065 -0.400945 -0.043776
v -0.235412 -0.411827 -0.043744
v -0.235300 -0.401031 -0.033004
v -0.209431 -0.412103 -0.043738
v -0.198549 -0.401449 -0.043764
v -0.209319 -0.401306 -0.032998
v 0.197462 -0.371359 -0.043760
v 0.186580 -0.382013 -0.043734
v 0.197346 -0.382098 -0.032963
v 0.234559 0.108157 -0.096779
v 0.223677 0.097503 -0.096753
v 0.224155 0.142556 -0.096873
v 0.234809 0.131674 -0.096841
v -0.229947 0.102313 -0.096862
v -0.240601 0.113195 -0.096893
v -0.240352 0.136712 -0.096956
v -0.229470 0.147366 -0.096982
v 0.223796 0.108214 -0.118319
v 0.234562 0.108128 -0.107547
v 0.223679 0.097474 -0.107521
v 0.224157 0.142527 -0.107641
v 0.234811 0.131645 -0.107610
v 0.224045 0.131731 -0.118381
v -0.229945 0.102284 -0.107631
v -0.240599 0.113166 -0.107662
v -0.229829 0.113023 -0.118428
v -0.229467 0.147337 -0.107750
v -0.229579 0.136541 -0.118490
v -0.240349 0.136683 -0.107725
v -0.193087 0.112720 -0.086113
v -0.203965 0.102009 -0.107625
v -0.182317 0.112577 -0.096879
v -0.182068 0.136094 -0.096942
v -0.203487 0.147061 -0.107744
v -0.192838 0.136237 -0.086176
v -0.193081 0.112634 -0.118419
v -0.193197 0.101894 -0.107622
v -0.192719 0.146947 -0.107742
v -0.192831 0.136151 -0.118481
v 0.202451 0.097700 -0.107526
v 0.191792 0.108639 -0.086021
v 0.181027 0.108724 -0.096792
v 0.192049 0.132070 -0.118389
v 0.192160 0.142867 -0.107649
v 0.181276 0.132242 -0.096854
v 0.192042 0.132156 -0.086083
v 0.202928 0.142752 -0.107646
v 0.191799 0.108553 -0.118326
v 0.191683 0.097814 -0.107529
v 0.202437 0.097866 -0.045009
v 0.202549 0.108663 -0.034269
v 0.191784 0.108748 -0.045040
v 0.223666 0.097641 -0.045003
v 0.234548 0.108295 -0.045029
v 0.223778 0.108437 -0.034264
v 0.234798 0.131812 -0.045092
v 0.224144 0.142694 -0.045123
v 0.224027 0.131955 -0.034326
v -0.203501 0.147228 -0.045227
v -0.203617 0.136489 -0.034429
v -0.192847 0.136346 -0.045195
v -0.229481 0.147503 -0.045233
v -0.240363 0.136850 -0.045207
v -0.229597 0.136764 -0.034435
v -0.240612 0.113333 -0.045144
v -0.229958 0.102451 -0.045113
v -0.229847 0.113247 -0.034373
v -0.203978 0.102175 -0.045106
v -0.193096 0.112829 -0.045133
v -0.203866 0.112972 -0.034367
v 0.202915 0.142919 -0.045128
v 0.192033 0.132265 -0.045103
v 0.202799 0.132180 -0.034331
v -0.008051 -0.870989 -0.066269
v -0.322342 -0.867656 -0.066346
v 0.306241 -0.874321 -0.066194
v 0.149095 -0.872655 -0.066232
v 0.463387 -0.875987 -0.066156
v -0.479488 -0.865990 -0.066383
v -0.165197 -0.869322 -0.066308
v 0.582115 -1.121500 0.606912
v 0.618373 -1.066041 0.606772
v 0.582702 -1.065611 0.626396
v 0.638057 0.790414 0.601830
v 0.602983 0.846628 0.601673
v 0.602387 0.790844 0.621454
v -0.603719 -1.108927 0.606626
v -0.603132 -1.053038 0.626110
v -0.638794 -1.052712 0.606469
v -0.582851 0.859201 0.601387
v -0.619109 0.803743 0.601527
v -0.583447 0.803417 0.621168
v 0.582850 -1.067455 -0.065620
v 0.618512 -1.067781 -0.045979
v 0.582253 -1.123239 -0.045839
v 0.602534 0.789000 -0.070562
v 0.603122 0.844889 -0.051078
v 0.638196 0.788674 -0.050921
v -0.603581 -1.110666 -0.046125
v -0.638654 -1.054451 -0.046282
v -0.602984 -1.054882 -0.065907
v -0.582712 0.857462 -0.051364
v -0.583299 0.801573 -0.070848
v -0.618970 0.802004 -0.051224
v -0.629525 -0.193395 -0.048574
v -0.593262 -0.137989 -0.068347
v -0.593854 -0.193826 -0.068199
v -0.594446 -0.249662 -0.068050
v -0.010663 -1.116952 -0.045982
v -0.010068 -1.061168 -0.065763
v 0.010205 0.851176 -0.051221
v 0.009617 0.795287 -0.070705
v 0.592572 -0.150563 -0.068061
v 0.627642 -0.206725 -0.048272
v 0.591388 -0.262235 -0.067764
v 0.591980 -0.206399 -0.067913
v -0.000937 -0.200112 -0.068056
v 0.034729 -0.200491 -0.068047
v -0.001530 -0.255949 -0.067907
v -0.598479 -0.630021 -0.067037
v -0.599071 -0.685858 -0.066889
v -0.599664 -0.741694 -0.066740
v -0.634742 -0.685427 -0.047265
v -0.324955 -1.113620 -0.046058
v -0.324359 -1.057836 -0.065839
v 0.324497 0.847843 -0.051146
v 0.323909 0.791955 -0.070630
v 0.587355 -0.642594 -0.066751
v 0.622424 -0.698757 -0.046961
v 0.586171 -0.754267 -0.066454
v 0.586763 -0.698431 -0.066603
v -0.588045 0.354043 -0.069657
v -0.588637 0.298206 -0.069509
v -0.589229 0.242370 -0.069360
v -0.624308 0.298637 -0.049884
v 0.303628 -1.120285 -0.045907
v 0.304224 -1.064501 -0.065688
v -0.304086 0.854508 -0.051297
v -0.304674 0.798619 -0.070781
v 0.597789 0.341469 -0.069371
v 0.632859 0.285307 -0.049581
v 0.596605 0.229797 -0.069074
v 0.597197 0.285633 -0.069222
v 0.277688 -0.203067 -0.067988
v 0.313355 -0.203445 -0.067980
v 0.312762 -0.259281 -0.067832
v -0.315229 -0.196780 -0.068131
v -0.279563 -0.197158 -0.068123
v -0.315821 -0.252616 -0.067983
v -0.006154 -0.692144 -0.066746
v 0.029512 -0.692522 -0.066737
v -0.006746 -0.747981 -0.066597
v 0.004280 0.291920 -0.069366
v 0.039946 0.291541 -0.069357
v 0.003688 0.236083 -0.069217
v -0.310012 0.295252 -0.069441
v -0.274346 0.294874 -0.069433
v -0.310604 0.239416 -0.069293
v -0.320446 -0.688812 -0.066822
v -0.284780 -0.689190 -0.066813
v -0.321038 -0.744648 -0.066673
v 0.272471 -0.695098 -0.066679
v 0.308137 -0.695477 -0.066670
v 0.307545 -0.751313 -0.066522
v 0.282906 0.288965 -0.069298
v 0.318572 0.288587 -0.069290
v 0.317979 0.232751 -0.069141
v -0.636638 -0.864272 -0.046789
v -0.600968 -0.864702 -0.066412
v -0.481505 -1.056170 -0.065877
v -0.482101 -1.111954 -0.046096
v 0.481055 0.790288 -0.070592
v 0.481643 0.846177 -0.051108
v 0.584866 -0.877275 -0.066127
v 0.620528 -0.877601 -0.046485
v -0.625492 0.186964 -0.049587
v -0.589229 0.242370 -0.069360
v -0.589821 0.186534 -0.069211
v -0.590413 0.130697 -0.069063
v 0.147078 -1.062834 -0.065725
v 0.146482 -1.118618 -0.045944
v -0.147528 0.796953 -0.070744
v -0.146941 0.852842 -0.051259
v 0.595421 0.118124 -0.068777
v 0.596013 0.173960 -0.068925
v 0.596605 0.229797 -0.069074
v 0.631675 0.173635 -0.049284
v 0.470500 -0.205111 -0.067942
v 0.469908 -0.260947 -0.067793
v 0.434834 -0.204733 -0.067951
v -0.122417 -0.198824 -0.068085
v -0.158675 -0.254283 -0.067945
v -0.158083 -0.198446 -0.068093
v 0.003065 0.180247 -0.069068
v 0.003096 0.180247 -0.069068
v 0.003688 0.236083 -0.069217
v -0.595630 -0.361335 -0.067752
v -0.630709 -0.305068 -0.048277
v -0.594446 -0.249662 -0.068050
v -0.595038 -0.305499 -0.067901
v -0.167213 -1.059502 -0.065801
v -0.167809 -1.115286 -0.046020
v 0.166763 0.793621 -0.070667
v 0.167351 0.849509 -0.051184
v 0.626458 -0.318397 -0.047974
v 0.590204 -0.373908 -0.067467
v 0.590796 -0.318072 -0.067616
v 0.591388 -0.262235 -0.067764
v -0.585196 0.622729 -0.070372
v -0.620274 0.678996 -0.050897
v -0.584012 0.734402 -0.070670
v -0.584604 0.678565 -0.070521
v 0.461370 -1.066167 -0.065650
v 0.460774 -1.121951 -0.045868
v -0.461820 0.800285 -0.070819
v -0.461232 0.856174 -0.051335
v 0.600638 0.610156 -0.070086
v 0.601230 0.665992 -0.070235
v 0.601822 0.721829 -0.070384
v 0.636892 0.665666 -0.050594
v 0.156209 -0.201779 -0.068017
v 0.155616 -0.257615 -0.067869
v 0.125245 -0.201450 -0.068025
v -0.436709 -0.195492 -0.068161
v -0.472967 -0.250950 -0.068021
v -0.472375 -0.195114 -0.068169
v -0.002153 -0.311785 -0.067759
v -0.002121 -0.311785 -0.067759
v -0.001530 -0.255949 -0.067907
v 0.008282 0.672279 -0.070378
v 0.008313 0.672279 -0.070378
v 0.008905 0.728115 -0.070527
v -0.117200 0.293208 -0.069395
v -0.153458 0.237749 -0.069254
v -0.152866 0.293586 -0.069403
v -0.431491 0.296540 -0.069470
v -0.467749 0.241082 -0.069330
v -0.467158 0.296918 -0.069479
v -0.311196 0.183579 -0.069144
v -0.310604 0.239416 -0.069293
v -0.275530 0.183201 -0.069135
v -0.305979 0.675611 -0.070454
v -0.305386 0.731448 -0.070602
v -0.270312 0.675233 -0.070445
v -0.163892 -0.746314 -0.066635
v -0.163300 -0.690478 -0.066784
v -0.127634 -0.690856 -0.066775
v -0.478184 -0.742982 -0.066711
v -0.477592 -0.687146 -0.066860
v -0.441926 -0.687524 -0.066851
v -0.316413 -0.308453 -0.067834
v -0.315821 -0.252616 -0.067983
v -0.280747 -0.308831 -0.067825
v 0.429617 -0.696765 -0.066641
v 0.465283 -0.697143 -0.066632
v 0.464691 -0.752979 -0.066483
v 0.150991 -0.693810 -0.066708
v 0.150399 -0.749647 -0.066559
v 0.120028 -0.693482 -0.066715
v 0.276504 -0.314739 -0.067691
v 0.312762 -0.259281 -0.067832
v 0.312170 -0.315117 -0.067683
v 0.475717 0.286921 -0.069252
v 0.475125 0.231085 -0.069103
v 0.440051 0.287299 -0.069261
v 0.161426 0.290254 -0.069328
v 0.160834 0.234417 -0.069179
v 0.130462 0.290582 -0.069335
v 0.317388 0.176915 -0.068992
v 0.281722 0.177293 -0.069001
v 0.317979 0.232751 -0.069141
v 0.286938 0.669325 -0.070311
v 0.323197 0.724783 -0.070451
v 0.322604 0.668947 -0.070302
v 0.165459 0.670613 -0.070340
v 0.129793 0.670991 -0.070349
v 0.166051 0.726449 -0.070489
v 0.124576 0.178959 -0.069039
v 0.160834 0.234417 -0.069179
v 0.160242 0.178581 -0.069030
v 0.474533 0.175249 -0.068954
v 0.438867 0.175627 -0.068963
v 0.475125 0.231085 -0.069103
v 0.155025 -0.313451 -0.067720
v 0.119358 -0.313073 -0.067729
v 0.155616 -0.257615 -0.067869
v -0.437893 -0.307165 -0.067863
v -0.473559 -0.306787 -0.067872
v -0.472967 -0.250950 -0.068021
v -0.427458 0.676899 -0.070483
v -0.463124 0.677277 -0.070492
v -0.462532 0.733114 -0.070641
v -0.432676 0.184867 -0.069173
v -0.468342 0.185246 -0.069182
v -0.467749 0.241082 -0.069330
v -0.123087 0.181585 -0.069098
v -0.154050 0.181913 -0.069106
v -0.153458 0.237749 -0.069254
v -0.117869 0.673617 -0.070408
v -0.148833 0.673945 -0.070416
v -0.148241 0.729781 -0.070565
v -0.159267 -0.310119 -0.067796
v -0.158675 -0.254283 -0.067945
v -0.128303 -0.310447 -0.067789
v 0.433650 -0.316405 -0.067653
v 0.469908 -0.260947 -0.067793
v 0.469316 -0.316784 -0.067645
v 0.479750 0.667280 -0.070264
v 0.444084 0.667658 -0.070273
v 0.480343 0.723117 -0.070413
v -0.501508 0.185597 -0.069190
v -0.465846 0.185271 -0.049549
v -0.502104 0.129813 -0.049408
v -0.537766 0.130139 -0.069050
v -0.505541 -0.194762 -0.068177
v -0.540615 -0.138548 -0.068335
v -0.504953 -0.138874 -0.048693
v -0.469879 -0.195088 -0.048536
v 0.507103 0.119113 -0.049165
v 0.472029 0.175327 -0.049323
v 0.507700 0.174897 -0.068946
v 0.542774 0.118682 -0.068789
v 0.504254 -0.149574 -0.048450
v 0.539925 -0.150004 -0.068074
v 0.503667 -0.205463 -0.067934
v 0.467996 -0.205032 -0.048310
v 0.413182 -0.204503 -0.067956
v 0.377516 -0.204125 -0.067964
v 0.377512 -0.204073 -0.048332
v -0.127088 -0.198775 -0.068086
v -0.162754 -0.198397 -0.068095
v -0.127092 -0.198722 -0.048453
v -0.000941 -0.200060 -0.048423
v -0.000937 -0.200112 -0.068056
v -0.036603 -0.199734 -0.068064
v 0.003096 0.180247 -0.069068
v 0.003092 0.180299 -0.049436
v 0.003127 0.180247 -0.069068
v -0.506725 -0.306435 -0.067880
v -0.471063 -0.306761 -0.048239
v -0.507322 -0.362219 -0.048099
v -0.542983 -0.361893 -0.067740
v -0.510171 -0.630905 -0.047384
v -0.475096 -0.687120 -0.047226
v -0.510758 -0.686794 -0.066867
v -0.545833 -0.630580 -0.067025
v 0.502482 -0.317135 -0.067636
v 0.537557 -0.373350 -0.067480
v 0.501886 -0.372919 -0.047855
v 0.466812 -0.316705 -0.048013
v 0.499037 -0.641606 -0.047140
v 0.534707 -0.642036 -0.066764
v 0.498449 -0.697494 -0.066624
v 0.462779 -0.697064 -0.047000
v -0.496887 0.621845 -0.050718
v -0.532549 0.622171 -0.070360
v -0.496291 0.677629 -0.070500
v -0.460628 0.677303 -0.050858
v -0.499736 0.353158 -0.050003
v -0.464662 0.296944 -0.049846
v -0.500324 0.297270 -0.069487
v -0.535398 0.353484 -0.069644
v 0.512321 0.611145 -0.050475
v 0.477247 0.667359 -0.050632
v 0.512917 0.666929 -0.070256
v 0.547991 0.610714 -0.070099
v 0.509472 0.342458 -0.049760
v 0.545142 0.342028 -0.069384
v 0.508884 0.286569 -0.069244
v 0.473214 0.287000 -0.049620
v 0.156177 -0.201778 -0.068018
v 0.125214 -0.201450 -0.068025
v 0.125210 -0.201398 -0.048392
v 0.251360 -0.202735 -0.048362
v 0.287031 -0.203166 -0.067986
v 0.251364 -0.202787 -0.067995
v -0.379390 -0.196100 -0.068147
v -0.415056 -0.195722 -0.068155
v -0.379394 -0.196047 -0.048514
v -0.253243 -0.197385 -0.048484
v -0.253239 -0.197437 -0.068117
v -0.288906 -0.197059 -0.068125
v -0.002090 -0.311785 -0.067758
v -0.002121 -0.311785 -0.067759
v -0.002125 -0.311733 -0.048126
v -0.006154 -0.692144 -0.066746
v -0.041821 -0.691766 -0.066754
v -0.006159 -0.692092 -0.047113
v 0.008344 0.672279 -0.070378
v 0.008313 0.672279 -0.070378
v 0.008309 0.672331 -0.050745
v -0.031386 0.292298 -0.069374
v 0.004276 0.291972 -0.049733
v 0.004280 0.291920 -0.069366
v -0.121871 0.293257 -0.069396
v -0.157537 0.293635 -0.069405
v -0.121875 0.293310 -0.049763
v -0.409839 0.296310 -0.069465
v -0.374177 0.295985 -0.049824
v -0.374173 0.295932 -0.069457
v -0.248022 0.294595 -0.069426
v -0.283688 0.294973 -0.069435
v -0.248026 0.294647 -0.049794
v -0.284872 0.183300 -0.069138
v -0.249206 0.182922 -0.069129
v -0.249210 0.182974 -0.049496
v -0.279655 0.675332 -0.070447
v -0.243989 0.674954 -0.070439
v -0.243993 0.675006 -0.050806
v -0.167971 -0.690428 -0.066785
v -0.132309 -0.690754 -0.047143
v -0.132305 -0.690807 -0.066776
v -0.420274 -0.687753 -0.066846
v -0.384612 -0.688079 -0.047204
v -0.384607 -0.688132 -0.066837
v -0.258456 -0.689469 -0.066807
v -0.294122 -0.689091 -0.066815
v -0.258461 -0.689417 -0.047174
v -0.254424 -0.309110 -0.067819
v -0.254428 -0.309058 -0.048187
v -0.290090 -0.308732 -0.067828
v 0.372299 -0.696157 -0.066655
v 0.372294 -0.696105 -0.047022
v 0.407965 -0.696535 -0.066646
v 0.150960 -0.693810 -0.066708
v 0.119996 -0.693482 -0.066715
v 0.119992 -0.693429 -0.047082
v 0.246143 -0.694767 -0.047052
v 0.281814 -0.695197 -0.066676
v 0.246148 -0.694819 -0.066685
v 0.250181 -0.314460 -0.067698
v 0.285847 -0.314838 -0.067689
v 0.250176 -0.314408 -0.048065
v 0.418399 0.287529 -0.069266
v 0.382733 0.287907 -0.069274
v 0.382728 0.287959 -0.049642
v 0.161395 0.290254 -0.069328
v 0.130431 0.290582 -0.069335
v 0.130427 0.290634 -0.049703
v 0.256578 0.289297 -0.049672
v 0.292248 0.288866 -0.069296
v 0.256582 0.289245 -0.069305
v 0.291064 0.177194 -0.068999
v 0.255393 0.177624 -0.049375
v 0.255398 0.177572 -0.069007
v 0.296281 0.669226 -0.070309
v 0.260611 0.669656 -0.050684
v 0.260615 0.669604 -0.070317
v 0.134464 0.670941 -0.070348
v 0.170130 0.670563 -0.070339
v 0.134460 0.670994 -0.050715
v 0.129247 0.178909 -0.069038
v 0.164913 0.178531 -0.069029
v 0.129243 0.178962 -0.049405
v 0.381545 0.176287 -0.049345
v 0.381549 0.176234 -0.068977
v 0.417215 0.175856 -0.068968
v 0.124025 -0.313070 -0.048095
v 0.124030 -0.313123 -0.067728
v 0.159696 -0.313501 -0.067719
v -0.416241 -0.307394 -0.067858
v -0.380574 -0.307772 -0.067850
v -0.380578 -0.307720 -0.048217
v -0.370144 0.676344 -0.050837
v -0.405806 0.676670 -0.070478
v -0.370140 0.676291 -0.070469
v -0.375361 0.184312 -0.049527
v -0.411023 0.184638 -0.069168
v -0.375357 0.184260 -0.069160
v -0.123059 0.181637 -0.049466
v -0.154019 0.181913 -0.069106
v -0.123055 0.181584 -0.069098
v -0.117842 0.673669 -0.050776
v -0.148801 0.673945 -0.070416
v -0.117838 0.673616 -0.070408
v -0.159236 -0.310119 -0.067796
v -0.128272 -0.310448 -0.067789
v -0.128276 -0.310395 -0.048156
v 0.376332 -0.315798 -0.067667
v 0.411998 -0.316176 -0.067658
v 0.376328 -0.315745 -0.048034
v 0.386762 0.668319 -0.050654
v 0.386766 0.668266 -0.070287
v 0.422432 0.667888 -0.070278
v -0.502172 0.130661 0.268779
v -0.465914 0.186119 0.268639
v -0.466510 0.130335 0.288420
v -0.505021 -0.138026 0.269494
v -0.469359 -0.138352 0.289135
v -0.469947 -0.194240 0.269651
v 0.507036 0.119961 0.269022
v 0.471365 0.120391 0.288646
v 0.471962 0.176175 0.268865
v 0.504187 -0.148726 0.269737
v 0.467928 -0.204184 0.269877
v 0.468516 -0.148296 0.289361
v 0.377444 -0.203225 0.269855
v 0.378032 -0.147336 0.289340
v -0.127160 -0.197875 0.269734
v -0.126572 -0.141986 0.289218
v -0.000421 -0.143324 0.289248
v -0.001009 -0.199212 0.269764
v 0.002428 0.125363 0.288533
v 0.003024 0.181147 0.268752
v -0.507389 -0.361371 0.270089
v -0.471131 -0.305913 0.269948
v -0.471727 -0.361697 0.289730
v -0.510238 -0.630058 0.270804
v -0.474576 -0.630383 0.290445
v -0.475164 -0.686272 0.270961
v 0.466744 -0.315857 0.270175
v 0.501819 -0.372072 0.270332
v 0.466148 -0.371641 0.289956
v 0.498970 -0.640758 0.271047
v 0.462711 -0.696216 0.271187
v 0.463299 -0.640328 0.290671
v -0.496955 0.622693 0.267469
v -0.460696 0.678151 0.267329
v -0.461293 0.622367 0.287110
v -0.499804 0.354006 0.268184
v -0.464142 0.353680 0.287826
v -0.464729 0.297792 0.268342
v 0.512253 0.611992 0.267712
v 0.476582 0.612423 0.287336
v 0.477179 0.668207 0.267555
v 0.509404 0.343306 0.268427
v 0.473146 0.287848 0.268568
v 0.473733 0.343736 0.288052
v 0.125142 -0.200550 0.269794
v 0.125730 -0.144661 0.289279
v 0.251881 -0.145999 0.289309
v 0.251293 -0.201887 0.269825
v -0.379462 -0.195200 0.269673
v -0.378874 -0.139311 0.289157
v -0.252723 -0.140649 0.289187
v -0.253311 -0.196537 0.269703
v -0.002789 -0.366669 0.289843
v -0.002193 -0.310885 0.270061
v -0.005639 -0.635355 0.290558
v -0.006226 -0.691244 0.271074
v 0.007645 0.617395 0.287223
v 0.008241 0.673179 0.267442
v 0.004796 0.348708 0.287939
v 0.004208 0.292820 0.268455
v -0.121943 0.294157 0.268424
v -0.121355 0.350046 0.287908
v -0.374245 0.296832 0.268363
v -0.373657 0.352721 0.287847
v -0.247506 0.351383 0.287878
v -0.248094 0.295495 0.268394
v -0.249278 0.183822 0.268691
v -0.249874 0.128038 0.288472
v -0.244061 0.675854 0.267381
v -0.244657 0.620070 0.287162
v -0.132377 -0.689907 0.271044
v -0.131789 -0.634018 0.290528
v -0.384679 -0.687231 0.270983
v -0.384091 -0.631343 0.290467
v -0.257940 -0.632680 0.290497
v -0.258528 -0.688569 0.271013
v -0.254495 -0.308210 0.270001
v -0.255091 -0.363994 0.289782
v 0.372227 -0.695257 0.271165
v 0.372814 -0.639368 0.290649
v 0.119924 -0.692582 0.271104
v 0.120513 -0.636693 0.290588
v 0.246664 -0.638031 0.290619
v 0.246076 -0.693919 0.271135
v 0.250109 -0.313560 0.270122
v 0.249512 -0.369344 0.289904
v 0.382661 0.288807 0.268546
v 0.383249 0.344696 0.288030
v 0.130359 0.291482 0.268485
v 0.130947 0.347371 0.287969
v 0.257098 0.346033 0.288000
v 0.256510 0.290145 0.268515
v 0.255326 0.178472 0.268813
v 0.254730 0.122688 0.288594
v 0.260543 0.670504 0.267503
v 0.259947 0.614720 0.287284
v 0.133796 0.616057 0.287254
v 0.134392 0.671841 0.267472
v 0.128579 0.124025 0.288563
v 0.129175 0.179809 0.268782
v 0.380881 0.121350 0.288624
v 0.381477 0.177134 0.268843
v 0.123362 -0.368007 0.289873
v 0.123958 -0.312223 0.270092
v -0.381242 -0.362656 0.289752
v -0.380646 -0.306872 0.269970
v -0.370808 0.621407 0.287132
v -0.370212 0.677192 0.267351
v -0.376025 0.129376 0.288442
v -0.375429 0.185160 0.268661
v -0.123723 0.126701 0.288503
v -0.123127 0.182485 0.268722
v -0.118506 0.618732 0.287193
v -0.117910 0.674516 0.267412
v -0.128940 -0.365332 0.289813
v -0.128344 -0.309547 0.270031
v 0.375663 -0.370682 0.289934
v 0.376260 -0.314898 0.270153
v 0.386098 0.613382 0.287314
v 0.386694 0.669166 0.267533
v 0.548341 -0.886844 0.032213
v -0.569729 -0.886844 0.032214
v 0.548341 0.681181 0.032214
v -0.569729 0.681181 0.032214
vn 0.5713 -0.5850 -0.5757
vn 0.5835 0.5697 -0.5787
vn -0.5833 -0.5727 -0.5760
vn -0.5711 0.5819 -0.5790
vn 0.2918 -0.9069 0.3040
vn 0.3110 0.9021 0.2992
vn -0.3111 -0.9005 0.3038
vn -0.2919 0.9085 0.2990
vn -0.5835 -0.5697 0.5787
vn 0.5711 -0.5819 0.5790
vn 0.5833 0.5727 0.5760
vn 0.5833 0.5727 0.5759
vn -0.5713 0.5850 0.5756
vn -0.5836 -0.5697 0.5787
vn -0.5713 0.5850 0.5757
vn -0.7145 -0.6996 0.0017
vn -0.6996 0.7146 -0.0021
vn -0.7069 0.0056 -0.7073
vn -0.0073 -0.7089 -0.7052
vn 0.0076 0.7052 -0.7090
vn 0.7072 -0.0094 -0.7069
vn 0.6996 -0.7145 0.0020
vn 0.7145 0.6996 -0.0017
vn 0.0073 0.7090 0.7052
vn -0.0073 -0.7090 -0.7052
vn 0.7069 -0.0056 0.7073
vn -0.0076 -0.7052 0.7090
vn -0.0074 -0.7089 -0.7052
vn -0.7072 0.0094 0.7069
vn -0.0077 -0.7052 0.7090
vn 0.0074 0.7090 0.7052
vn 0.0073 0.7089 0.7052
vn 0.6996 -0.7146 0.0021
vn -0.7146 -0.6996 0.0017
vn 0.7146 0.6996 -0.0017
vn 0.6996 -0.7145 0.0021
vn -0.6996 0.7146 -0.0020
vn -0.0106 -0.9999 0.0027
vn 0.9999 -0.0106 0.0002
vn 0.0106 0.9999 -0.0027
vn -0.9999 0.0106 -0.0002
vn 0.0065 -0.9507 0.3101
vn 0.0002 -0.0026 -1.0000
vn 0.0002 -0.0027 -1.0000
vn 0.0769 -0.0000 0.9970
vn -0.0002 0.0027 1.0000
vn -0.0036 -0.9987 0.0502
vn -0.6996 0.7145 -0.0021
vn 0.7146 0.6995 -0.0017
vn 0.0077 0.7052 -0.7090
vn 0.0021 -0.9984 0.0565
vn 0.9999 -0.0106 0.0003
vn -0.9999 0.0106 -0.0003
vn 0.0042 0.9875 0.1576
vn -0.0002 0.0026 1.0000
vn 0.0268 -0.0000 0.9996
vn 0.5836 0.5697 -0.5787
vn -0.3112 -0.9005 0.3038
vn -0.2920 0.9085 0.2990
vn 0.0397 -0.0000 -0.9992
vn 0.0060 -0.9964 -0.0846
vn -0.0025 -0.9996 -0.0288
vn 0.0731 -0.0000 -0.9973
vn 0.0022 0.9998 -0.0205
vn 0.0019 0.9995 -0.0322
vn 0.5833 0.5728 0.5759
vn -0.0073 -0.7089 -0.7053
vn 0.0201 -0.0000 0.9998
vn 0.0806 -0.0000 0.9968
vn -0.0020 -0.9996 0.0285
vn -0.0077 -0.7052 0.7089
vn 0.0366 -0.0000 0.9993
vn 0.0021 0.9969 0.0791
vn 0.0036 0.9908 0.1355
vn 0.4575 -0.2970 0.8381
vn 0.4638 0.2917 0.8366
vn -0.4641 -0.2872 0.8379
vn -0.4579 0.3015 0.8363
vn 0.4579 -0.3015 -0.8363
vn 0.4641 0.2872 -0.8379
vn -0.4638 -0.2917 -0.8366
vn -0.4575 0.2970 -0.8381
vn -0.4820 0.0028 -0.8762
vn 0.4824 -0.0074 -0.8759
vn 0.4824 -0.0075 -0.8759
vn 0.0154 0.0024 0.9999
vn -0.0000 0.0029 1.0000
vn -0.0000 0.0026 1.0000
vn 0.0120 0.9999 -0.0027
vn -0.0000 1.0000 -0.0027
vn -0.0037 -0.3292 0.9443
vn 0.4820 -0.0028 0.8762
vn 0.0033 0.3342 0.9425
vn -0.4824 0.0074 0.8759
vn -0.8484 -0.5293 0.0012
vn -0.8370 0.5472 -0.0016
vn -0.0033 -0.3342 -0.9425
vn 0.0037 0.3291 -0.9443
vn 0.8370 -0.5472 0.0016
vn 0.8484 0.5293 -0.0012
vn -0.0002 -0.9997 -0.0225
vn 0.0084 -0.9706 0.2407
vn 0.0344 -0.0000 0.9994
vn 0.0061 -0.0000 -1.0000
vn -0.0011 -0.9994 0.0338
vn -0.0046 -0.9996 -0.0273
vn 0.0037 0.3292 -0.9443
vn -0.0000 1.0000 -0.0000
vn 0.0035 -0.9999 -0.0141
vn -0.0116 0.9495 -0.3134
vn 0.2492 -0.0000 -0.9684
vn 0.0010 -0.9365 0.3506
vn -0.0002 0.9996 -0.0273
vn 0.0003 0.9997 0.0234
vn 0.2137 -0.0000 -0.9769
vn 0.0001 -0.9990 -0.0439
vn -0.0968 -0.0000 -0.9953
vn 0.0005 0.9815 0.1913
vn 0.6618 -0.0000 -0.7497
vn 0.0002 0.9984 0.0561
vn -0.0002 0.9995 0.0317
vn 0.0001 -0.9998 -0.0186
vn 0.0002 -0.9998 0.0220
vn -0.0104 -0.9999 -0.0130
vn 0.0002 0.9996 0.0273
vn -0.0082 -0.0000 -1.0000
vn 0.0002 -0.9542 0.2993
vn 0.0001 0.9999 0.0166
vn 0.1197 -0.0000 0.9928
vn -0.0002 0.9965 0.0837
vn -0.0103 -0.9868 0.1619
vn 0.0058 0.9997 -0.0234
vn 0.0968 -0.0000 0.9953
vn -0.0002 -0.9997 -0.0234
vn 0.0005 -0.9827 -0.1854
vn -0.0027 -0.9983 -0.0575
vn -0.2892 -0.0000 0.9573
vn 0.0002 -0.9989 -0.0472
vn -0.0882 -0.0000 -0.9961
vn 0.0005 -0.0000 -1.0000
vn 0.0007 0.9995 0.0312
vn -0.0004 -0.9999 0.0164
vn -0.0000 -0.0000 -1.0000
vn 0.0025 -0.0000 1.0000
vn 0.3073 -0.0000 -0.9516
vn 0.0888 -0.0000 0.9960
vn -0.0010 -0.9862 0.1656
vn 0.0007 -1.0000 0.0068
vn 0.0909 -0.0000 -0.9959
vn 0.0068 1.0000 0.0073
vn -0.0312 -0.0000 -0.9995
vn -0.9252 -0.0000 -0.3796
vn 0.0286 -0.0000 -0.9996
vn 0.0036 -0.0000 -1.0000
vn 0.0011 0.9986 0.0527
vn 0.0004 -0.0000 -1.0000
vn -0.0000 -0.0000 1.0000
vn 0.0046 0.9983 -0.0585
vn -0.0026 -0.9991 0.0420
vn -0.0225 -0.0000 0.9997
vn 0.5919 -0.0000 -0.8060
vn 0.0044 0.9987 -0.0507
vn -0.3346 -0.0000 0.9423
vn -0.0060 -0.9966 0.0822
vn -0.0038 -0.9999 0.0117
vn 0.0037 1.0000 0.0039
vn -0.0663 -0.0000 -0.9978
vn 0.0045 0.9997 -0.0226
vn 0.0024 -0.0000 -1.0000
vn 0.0035 0.9991 0.0429
vn -0.0268 -0.0000 0.9996
vn 0.0035 -0.9973 0.0740
vn -0.1118 -0.0000 -0.9937
vn 0.0039 -0.0000 -1.0000
vn 0.0018 -0.0000 1.0000
vn 0.0008 -0.0000 -1.0000
vn 0.0008 0.9847 -0.1744
vn 0.0016 -0.9946 -0.1036
vn 0.0004 1.0000 0.0039
vn 0.0442 -0.0000 0.9990
vn 0.0512 -0.0000 0.9987
vn 0.0385 -0.0000 -0.9993
vn -0.0488 -0.0000 0.9988
vn -0.0029 -0.9993 0.0381
vn 0.4397 -0.0000 -0.8981
vn 0.0365 -0.0000 0.9993
vn 0.0341 -0.0000 0.9994
vn -0.0050 0.9953 -0.0972
vn 0.0048 0.9986 -0.0527
vn -0.4637 -0.2917 -0.8366
vn -0.0037 -0.3291 0.9443
vn -0.0004 0.9990 -0.0439
vn 0.0351 -0.0000 -0.9994
vn 0.0043 0.9923 0.1240
vn 0.0005 0.9976 -0.0692
vn -0.0017 0.9985 0.0546
vn -0.0031 -0.9998 -0.0202
vn 0.2166 -0.0000 -0.9763
vn 0.0022 0.9966 -0.0818
vn 0.2526 -0.0000 -0.9676
vn 0.0016 -0.0000 1.0000
vn -0.0004 -0.9985 -0.0546
vn 0.0017 1.0000 -0.0098
vn 0.0043 0.9998 -0.0176
vn 0.0001 0.9988 0.0493
vn -0.8682 -0.0000 0.4961
vn 0.0033 -0.0000 -1.0000
vn 0.0985 -0.0000 0.9951
vn -0.1350 -0.0000 0.9908
vn -0.0021 -0.9996 0.0298
vn 0.0001 0.9999 -0.0166
vn 0.0002 0.9999 0.0150
vn -0.3664 -0.0000 -0.9305
vn 0.0002 -0.9997 0.0264
vn -0.0002 0.9997 -0.0225
vn 0.0006 -0.0000 1.0000
vn 0.0018 0.9998 0.0176
vn 0.0018 0.9999 0.0117
vn -0.0004 -0.9846 0.1750
vn 0.0013 0.9983 -0.0585
vn 0.4798 -0.0000 -0.8774
vn 0.0821 -0.0000 -0.9966
vn -0.0004 0.9989 -0.0468
vn 0.0045 -0.0000 -1.0000
vn -0.0750 -0.0000 -0.9972
vn -0.0034 0.9998 -0.0195
vn -0.0008 -0.9995 -0.0312
vn 0.0011 -1.0000 0.0068
vn -0.0048 1.0000 -0.0000
vn 0.0010 -0.9976 -0.0692
vn 0.0067 0.9994 -0.0351
vn 0.0011 0.9999 0.0156
vn -0.0050 -0.0000 1.0000
vn 0.0701 -0.0000 0.9975
vn -0.0070 0.9987 0.0507
vn -0.0021 -0.9999 -0.0168
vn 0.0023 0.9999 0.0156
vn -0.0178 0.9879 0.1544
vn 0.0210 -0.9988 -0.0442
vn 0.0009 -0.9981 0.0614
vn 0.0078 -0.9656 -0.2598
vn 0.0021 0.9339 -0.3575
vn 0.0024 -0.9988 -0.0488
vn 0.0232 0.9915 -0.1278
vn 0.1880 -0.0000 0.9822
vn -0.0030 0.9987 0.0507
vn 0.0015 -0.7924 0.6100
vn 0.0015 0.9984 0.0565
vn 0.0008 -0.0000 1.0000
vn 0.0023 0.9965 0.0832
vn -0.4871 -0.0000 -0.8734
vn 0.0019 -0.9977 -0.0682
vn -0.0041 -0.9968 0.0794
vn 0.0010 -0.9999 0.0156
vn -0.0018 -0.9992 0.0390
vn 0.0830 -0.0000 0.9965
vn -0.0018 -0.9995 -0.0307
vn 0.0208 0.9995 0.0254
vn -0.0125 0.9958 0.0911
vn 0.0020 -0.9975 -0.0706
vn 0.0543 -0.0000 0.9985
vn 0.0001 0.9989 -0.0468
vn 0.0044 -0.9970 0.0779
vn 0.0046 0.3010 -0.9536
vn 0.0029 0.9985 0.0546
vn 0.0001 0.9984 0.0560
vn -0.0867 -0.0000 0.9962
vn -0.1675 -0.0000 0.9859
vn -0.0023 0.9983 -0.0585
vn 0.0023 0.9977 0.0672
vn 0.0353 -0.0000 0.9994
vn 0.0058 0.9964 -0.0851
vn 0.0021 0.9991 -0.0420
vt 0.419813 0.744335
vt 0.342375 0.812500
vt 0.250000 0.744335
vt 0.687500 0.809667
vt 0.565249 0.875000
vt 0.565249 0.745751
vt 0.250000 0.505665
vt 0.342375 0.437500
vt 0.419813 0.505665
vt 0.687500 0.440333
vt 0.565249 0.504249
vt 0.565249 0.375000
vt 0.125000 0.525000
vt 0.187500 0.519335
vt 0.125000 0.527833
vt 0.565249 0.220751
vt 0.625000 0.225000
vt 0.565249 0.225000
vt 0.187500 0.733165
vt 0.125000 0.727500
vt 0.125000 0.724667
vt 0.565249 0.026749
vt 0.565249 0.022500
vt 0.625000 0.022500
vt 0.375000 0.016835
vt 0.434751 0.016835
vt 0.434751 0.022500
vt 0.375000 0.005665
vt 0.434751 0.000000
vt 0.434751 0.005665
vt 0.565249 0.000000
vt 0.625000 0.005665
vt 0.565249 0.005665
vt 0.625000 0.228777
vt 0.565249 0.230665
vt 0.565249 0.225000
vt 0.625000 0.246223
vt 0.565249 0.250000
vt 0.565249 0.244335
vt 0.434751 0.250000
vt 0.375000 0.244335
vt 0.434751 0.244335
vt 0.375000 0.230665
vt 0.434751 0.225000
vt 0.434751 0.230665
vt 0.625000 0.018723
vt 0.565249 0.022500
vt 0.565249 0.016835
vt 0.125000 0.500000
vt 0.625000 0.250000
vt 0.565249 0.250000
vt 0.250000 0.525000
vt 0.434751 0.525000
vt 0.565249 0.727500
vt 0.750000 0.727500
vt 0.125000 0.750000
vt 0.125000 0.744335
vt 0.625000 1.000000
vt 0.434751 0.727500
vt 0.250000 0.727500
vt 0.750000 0.525000
vt 0.434751 0.225000
vt 0.565249 0.525000
vt 0.434751 0.028165
vt 0.125000 0.519335
vt 0.125000 0.505665
vt 0.565249 1.000000
vt 0.565249 1.000000
vt 0.125000 0.744335
vt 0.125000 0.733165
vt 0.434751 1.000000
vt 0.434751 1.000000
vt 0.875000 0.744335
vt 0.875000 0.733165
vt 0.875000 0.744335
vt 0.125000 0.505665
vt 0.875000 0.505665
vt 0.875000 0.519335
vt 0.791667 0.519335
vt 0.434751 0.219335
vt 0.791667 0.733165
vt 0.434751 0.022500
vt 0.125000 0.727500
vt 0.303727 0.625192
vt 0.303727 0.616323
vt 0.312596 0.616323
vt 0.303727 0.321464
vt 0.303727 0.312596
vt 0.312596 0.321464
vt 0.321464 0.312596
vt 0.312596 0.303727
vt 0.321464 0.303727
vt 0.321464 0.000000
vt 0.321464 0.008868
vt 0.312596 0.008868
vt 0.000000 0.616323
vt 0.008868 0.616323
vt 0.008868 0.625192
vt 0.312596 0.008868
vt 0.303727 0.008868
vt 0.303727 0.000000
vt 0.616323 0.312596
vt 0.616323 0.303727
vt 0.625192 0.303727
vt 0.303727 0.303727
vt 0.312596 0.303727
vt 0.616323 0.166967
vt 0.625192 0.166967
vt 0.625192 0.175835
vt 0.008868 0.479563
vt 0.000000 0.479563
vt 0.000000 0.470694
vt 0.973065 0.754884
vt 0.973065 0.746016
vt 0.981933 0.754884
vt 0.625192 0.245116
vt 0.616323 0.245116
vt 0.625192 0.236247
vt 0.008868 0.557712
vt 0.000000 0.557712
vt 0.000000 0.548843
vt 0.625192 0.088818
vt 0.616323 0.088818
vt 0.625192 0.079949
vt 0.008868 0.401414
vt 0.000000 0.401414
vt 0.000000 0.392545
vt 0.973065 0.685604
vt 0.973065 0.676735
vt 0.981933 0.676735
vt 0.973065 0.833033
vt 0.973065 0.824165
vt 0.981933 0.833033
vt 0.474063 0.763753
vt 0.474063 0.754884
vt 0.482932 0.763753
vt 0.982263 0.442288
vt 0.982263 0.433420
vt 0.991132 0.442288
vt 0.982263 0.520437
vt 0.982263 0.511569
vt 0.991132 0.520437
vt 0.474063 0.841902
vt 0.474063 0.833033
vt 0.482932 0.841902
vt 0.474063 0.694472
vt 0.474063 0.685604
vt 0.482932 0.685604
vt 0.982263 0.373008
vt 0.982263 0.364139
vt 0.991132 0.364139
vt 0.616323 0.106555
vt 0.625192 0.106555
vt 0.625192 0.115423
vt 0.000000 0.419151
vt 0.008868 0.419151
vt 0.000000 0.428019
vt 0.973065 0.637661
vt 0.981933 0.637661
vt 0.973065 0.646529
vt 0.973065 0.785090
vt 0.981933 0.793959
vt 0.973065 0.793959
vt 0.601963 0.625192
vt 0.601956 0.625192
vt 0.601963 0.616323
vt 0.616323 0.184704
vt 0.625192 0.184704
vt 0.625192 0.193572
vt 0.008868 0.497299
vt 0.000000 0.497299
vt 0.000000 0.488431
vt 0.616323 0.028406
vt 0.625192 0.028406
vt 0.625192 0.037274
vt 0.000000 0.341002
vt 0.008868 0.341002
vt 0.000000 0.349870
vt 0.973065 0.715810
vt 0.981933 0.715810
vt 0.973065 0.723509
vt 0.973065 0.863239
vt 0.981933 0.872108
vt 0.973065 0.872108
vt 0.607447 0.625192
vt 0.607439 0.625192
vt 0.607439 0.616323
vt 0.607455 0.625192
vt 0.607447 0.625192
vt 0.607447 0.616323
vt 0.982263 0.472495
vt 0.991132 0.481363
vt 0.982263 0.481363
vt 0.982263 0.550644
vt 0.991132 0.559512
vt 0.982263 0.559512
vt 1.000000 0.520437
vt 1.000000 0.511569
vt 0.930719 0.529306
vt 0.921851 0.529306
vt 0.930719 0.520437
vt 0.482932 0.802827
vt 0.474063 0.802827
vt 0.474063 0.793959
vt 0.482932 0.880976
vt 0.474063 0.880976
vt 0.474063 0.872108
vt 0.990802 0.833033
vt 0.990802 0.824165
vt 0.474063 0.655398
vt 0.474063 0.646529
vt 0.482932 0.646529
vt 0.474063 0.724678
vt 0.482932 0.724678
vt 0.474063 0.732377
vt 0.990802 0.685604
vt 0.990802 0.676735
vt 0.982263 0.325065
vt 0.991132 0.325065
vt 0.982263 0.333933
vt 0.982263 0.403214
vt 0.991132 0.403214
vt 0.982263 0.410913
vt 1.000000 0.364139
vt 1.000000 0.373008
vt 0.930719 0.381876
vt 0.921851 0.373008
vt 0.930719 0.373008
vt 0.930719 0.412082
vt 0.930719 0.420951
vt 0.921851 0.412082
vt 1.000000 0.412082
vt 1.000000 0.403214
vt 1.000000 0.325065
vt 1.000000 0.333933
vt 0.990802 0.715810
vt 0.990802 0.724678
vt 0.990802 0.863239
vt 0.990802 0.872108
vt 0.930719 0.559512
vt 0.930719 0.568380
vt 0.921851 0.568380
vt 1.000000 0.550644
vt 1.000000 0.559512
vt 1.000000 0.473664
vt 1.000000 0.481363
vt 0.930719 0.482532
vt 0.930719 0.490231
vt 0.921851 0.490231
vt 0.990802 0.793959
vt 0.990802 0.786260
vt 0.990802 0.646529
vt 0.990802 0.637661
vt 0.930719 0.333933
vt 0.930719 0.342802
vt 0.921851 0.333933
vt 0.625192 0.259809
vt 0.634060 0.259809
vt 0.625192 0.268678
vt 0.768922 0.867264
vt 0.760054 0.867264
vt 0.760054 0.858396
vt 0.634060 0.008868
vt 0.625192 0.008868
vt 0.625192 0.000000
vt 0.760054 0.616323
vt 0.768922 0.616323
vt 0.760054 0.625192
vt 0.768922 0.638822
vt 0.768922 0.647691
vt 0.760054 0.647691
vt 0.768922 0.773161
vt 0.768922 0.782030
vt 0.760054 0.773161
vt 0.760054 0.741794
vt 0.768922 0.741794
vt 0.768922 0.750662
vt 0.607431 0.625192
vt 0.607431 0.616323
vt 0.607439 0.625192
vt 0.312596 0.876132
vt 0.321464 0.876132
vt 0.312596 0.885001
vt 0.964197 0.903785
vt 0.973065 0.912653
vt 0.964197 0.912653
vt 0.312596 0.625192
vt 0.321464 0.625192
vt 0.321464 0.634060
vt 0.973395 0.303727
vt 0.982263 0.294859
vt 0.982263 0.303727
vt 0.939588 0.591189
vt 0.930720 0.600057
vt 0.930720 0.591189
vt 0.152599 0.885001
vt 0.161467 0.885001
vt 0.161467 0.893869
vt 0.930390 0.616323
vt 0.921521 0.607455
vt 0.930390 0.607455
vt 0.152599 0.634060
vt 0.161467 0.634060
vt 0.152599 0.642929
vt 0.768922 0.702727
vt 0.768922 0.710426
vt 0.760054 0.710426
vt 0.760054 0.679058
vt 0.768922 0.670190
vt 0.768922 0.679058
vt 0.768922 0.835896
vt 0.768922 0.844765
vt 0.760054 0.835896
vt 0.760054 0.804529
vt 0.768922 0.804529
vt 0.768922 0.813397
vt 0.607424 0.625192
vt 0.607424 0.616323
vt 0.921521 0.732925
vt 0.921521 0.741794
vt 0.912653 0.732925
vt 0.607416 0.625192
vt 0.607416 0.616323
vt 0.161467 0.768399
vt 0.152599 0.759530
vt 0.161467 0.759530
vt 0.161467 0.790898
vt 0.161467 0.799766
vt 0.152599 0.790898
vt 0.161467 0.862502
vt 0.152599 0.853633
vt 0.161467 0.853633
vt 0.161467 0.822266
vt 0.161467 0.831134
vt 0.152599 0.822266
vt 0.625192 0.205942
vt 0.625192 0.197074
vt 0.634060 0.197074
vt 0.786659 0.197074
vt 0.786659 0.188206
vt 0.795528 0.188206
vt 0.921521 0.773161
vt 0.912653 0.764293
vt 0.921521 0.764293
vt 0.921521 0.835896
vt 0.912653 0.827028
vt 0.921521 0.827028
vt 0.921521 0.795660
vt 0.921521 0.804529
vt 0.912653 0.795660
vt 0.312596 0.813397
vt 0.321464 0.813397
vt 0.312596 0.822266
vt 0.921521 0.638822
vt 0.912653 0.638822
vt 0.921521 0.629954
vt 0.921521 0.693859
vt 0.921521 0.701558
vt 0.912653 0.701558
vt 0.912653 0.670190
vt 0.921521 0.661322
vt 0.921521 0.670190
vt 0.312596 0.687927
vt 0.312596 0.679058
vt 0.321464 0.687927
vt 0.161467 0.656559
vt 0.161467 0.665428
vt 0.152599 0.665428
vt 0.161467 0.720464
vt 0.161467 0.728163
vt 0.152599 0.728163
vt 0.152599 0.696795
vt 0.161467 0.687927
vt 0.161467 0.696795
vt 0.625192 0.062735
vt 0.634060 0.071604
vt 0.625192 0.071604
vt 0.786659 0.053867
vt 0.795528 0.062735
vt 0.786659 0.062735
vt 0.786659 0.094103
vt 0.786659 0.085234
vt 0.795528 0.094103
vt 0.625192 0.102971
vt 0.625192 0.094103
vt 0.634060 0.102971
vt 0.634060 0.040236
vt 0.625192 0.040236
vt 0.625192 0.031368
vt 0.321464 0.719294
vt 0.312596 0.719294
vt 0.312596 0.710426
vt 0.312596 0.853633
vt 0.312596 0.844765
vt 0.321464 0.844765
vt 0.795528 0.219573
vt 0.786659 0.228442
vt 0.786659 0.219573
vt 0.634060 0.228442
vt 0.625192 0.237310
vt 0.625192 0.228442
vt 0.634060 0.165706
vt 0.625192 0.173405
vt 0.625192 0.165706
vt 0.795528 0.156838
vt 0.786659 0.164537
vt 0.786659 0.156838
vt 0.312596 0.789729
vt 0.312596 0.782030
vt 0.321464 0.782030
vt 0.312596 0.656559
vt 0.312596 0.647691
vt 0.321464 0.656559
vt 0.795528 0.031368
vt 0.786659 0.031368
vt 0.786659 0.022499
vt 0.777791 0.259809
vt 0.777791 0.250941
vt 0.786659 0.250941
vt 0.616323 0.867264
vt 0.607455 0.858396
vt 0.616323 0.858396
vt 0.777791 0.008868
vt 0.786659 0.017737
vt 0.777791 0.017737
vt 0.204143 0.625192
vt 0.213011 0.634060
vt 0.204143 0.634060
vt 0.465195 0.876132
vt 0.465195 0.867264
vt 0.474063 0.867264
vt 0.593087 0.867264
vt 0.593087 0.858396
vt 0.601956 0.858396
vt 0.465195 0.634060
vt 0.465195 0.625192
vt 0.474063 0.634060
vt 0.593087 0.616323
vt 0.601956 0.625192
vt 0.593087 0.625192
vt 0.221880 0.876132
vt 0.213011 0.867264
vt 0.221880 0.867264
vt 0.008868 0.885001
vt -0.000000 0.876132
vt 0.008868 0.876132
vt 0.221880 0.625192
vt 0.221880 0.634060
vt 0.008868 0.634060
vt 0.008868 0.642929
vt -0.000000 0.642929
vt 0.607455 0.321464
vt 0.312596 0.312596
vt 0.607455 0.312596
vt 0.008868 0.303727
vt 0.000000 0.008868
vt 0.008868 0.008868
vt 0.008868 0.312596
vt 0.625192 0.273521
vt 0.616323 0.273521
vt 0.541543 0.911182
vt 0.532675 0.880976
vt 0.541543 0.880976
vt 0.902314 0.333933
vt 0.911182 0.303727
vt 0.911182 0.333933
vt 0.000000 0.586117
vt 0.008868 0.586117
vt 0.008868 0.000000
vt 0.625192 0.158098
vt 0.541543 0.763753
vt 0.532675 0.724678
vt 0.541543 0.724678
vt 0.902314 0.451157
vt 0.911182 0.490231
vt 0.902314 0.490231
vt 0.973065 0.607455
vt 0.607455 0.312596
vt 0.541543 0.802827
vt 0.532675 0.841902
vt 0.532675 0.802827
vt 0.902314 0.373008
vt 0.911182 0.412082
vt 0.902314 0.412082
vt 0.000000 0.506168
vt 0.541543 0.646529
vt 0.532675 0.685604
vt 0.532675 0.646529
vt 0.902314 0.568380
vt 0.911182 0.529306
vt 0.911182 0.568380
vt 0.839446 0.259809
vt 0.852537 0.250941
vt 0.852537 0.259809
vt 0.786659 0.311353
vt 0.799750 0.302484
vt 0.808618 0.311353
vt 0.482932 0.616323
vt 0.786659 0.250941
vt 0.799750 0.259809
vt 0.786659 0.259809
vt 0.982263 0.294859
vt 0.625192 0.253984
vt 0.541543 0.841902
vt 0.911182 0.373008
vt 0.000000 0.566580
vt 0.625192 0.097686
vt 0.541543 0.685604
vt 0.902314 0.529306
vt 0.000000 0.410282
vt 0.532675 0.763753
vt 0.911182 0.451157
vt 0.921851 0.598586
vt 0.911182 0.607455
vt 0.911182 0.598586
vt 0.541543 0.616323
vt 0.532675 0.616323
vt 0.902314 0.598586
vt 0.911182 0.294859
vt 0.921851 0.303727
vt 0.973065 0.902314
vt 0.981933 0.902314
vt 0.991132 0.589718
vt 0.982263 0.589718
vt 0.482932 0.911182
vt 0.474063 0.911182
vt 0.921851 0.451157
vt 0.930719 0.451165
vt 0.607455 0.312596
vt 1.000000 0.442296
vt 0.991132 0.294859
vt 0.990802 0.754892
vt 0.990802 0.902314
vt 0.930719 0.598586
vt 1.000000 0.589718
vt 0.865628 0.259809
vt 0.874496 0.250941
vt 0.981933 0.607455
vt 0.930719 0.303727
vt 0.264555 0.768922
vt 0.307230 0.777791
vt 0.264555 0.777791
vt 0.307230 0.777791
vt 0.264555 0.786659
vt 0.264555 0.777791
vt 0.921521 0.912653
vt 0.921521 0.903785
vt 0.973395 0.294859
vt 0.930720 0.303727
vt 0.930720 0.294859
vt 0.982263 0.600057
vt 0.939588 0.600057
vt 0.973065 0.616323
vt 0.912653 0.616323
vt 0.152599 0.876132
vt 0.912653 0.849527
vt 0.921521 0.858396
vt 0.795528 0.125470
vt 0.786659 0.125470
vt 0.634060 0.134339
vt 0.625192 0.134339
vt 0.634060 0.017737
vt 0.312596 0.750662
vt 0.321464 0.750662
vt 0.321464 0.867264
vt 0.795528 0.242072
vt 0.786659 0.250941
vt 0.634060 0.250941
vt 0.795528 0.008868
vt 0.839446 0.302484
vt 0.852537 0.311353
vt 0.830578 0.311353
vt 0.830578 0.311353
vt 0.817487 0.302484
vt 0.830578 0.302484
vt 0.830578 0.250941
vt 0.817487 0.259809
vt 0.808618 0.250941
vt 0.883364 0.259809
vt 0.896455 0.250941
vt 0.896455 0.259809
vt 0.883364 0.302484
vt 0.896455 0.311353
vt 0.874496 0.311353
vt 0.865628 0.302484
vt 0.782013 0.867264
vt 0.768922 0.858396
vt 0.790881 0.858396
vt 0.782013 0.909939
vt 0.768922 0.918808
vt 0.768922 0.909939
vt 0.161467 0.867264
vt 0.204143 0.876132
vt 0.161467 0.876132
vt 0.161468 0.625192
vt 0.161468 0.634060
vt 0.204143 0.656559
vt 0.213011 0.656559
vt 0.204143 0.782030
vt 0.213011 0.750662
vt 0.213011 0.782030
vt 0.550412 0.867264
vt 0.550412 0.858396
vt 0.550412 0.616323
vt 0.550412 0.625192
vt 0.264555 0.867264
vt 0.264555 0.625192
vt 0.204143 0.687927
vt 0.213011 0.719294
vt 0.204143 0.719294
vt 0.607455 0.835896
vt 0.616323 0.804529
vt 0.616323 0.835896
vt -0.000000 0.790898
vt 0.008868 0.759530
vt 0.008868 0.790898
vt -0.000000 0.822266
vt 0.008868 0.853633
vt -0.000000 0.853633
vt 0.593087 0.773161
vt 0.601956 0.741794
vt 0.601956 0.773161
vt 0.593087 0.804529
vt 0.601956 0.835896
vt 0.593087 0.835896
vt 0.601956 0.647691
vt 0.593087 0.647691
vt 0.593087 0.710426
vt 0.601956 0.679058
vt 0.601956 0.710426
vt 0.008868 0.665428
vt -0.000000 0.665428
vt -0.000000 0.728163
vt 0.008868 0.696795
vt 0.008868 0.728163
vt 0.607455 0.647691
vt 0.616323 0.679058
vt 0.607455 0.679058
vt 0.607455 0.773161
vt 0.607455 0.804529
vt 0.607455 0.710426
vt 0.616323 0.741794
vt 0.607455 0.741794
vt 0.008868 0.822266
vt 0.601956 0.804529
vt 0.593087 0.679058
vt 0.593087 0.741794
vt -0.000000 0.696795
vt -0.000000 0.759530
vt 0.221880 0.687927
vt 0.221880 0.719294
vt 0.221880 0.750662
vt 0.777791 0.071604
vt 0.786659 0.102971
vt 0.777791 0.102971
vt 0.786659 0.134339
vt 0.777791 0.134339
vt 0.777791 0.040236
vt 0.786659 0.040236
vt 0.786659 0.071604
vt 0.541544 0.710426
vt 0.550412 0.679058
vt 0.550412 0.710426
vt 0.541544 0.741794
vt 0.550412 0.741794
vt 0.541544 0.835896
vt 0.550412 0.804529
vt 0.550412 0.835896
vt 0.474063 0.844765
vt 0.213011 0.844765
vt 0.221880 0.813397
vt 0.221880 0.844765
vt 0.777791 0.228442
vt 0.786659 0.197074
vt 0.786659 0.228442
vt 0.786659 0.165706
vt 0.777791 0.165706
vt 0.777791 0.197074
vt 0.221880 0.782030
vt 0.213011 0.813397
vt 0.550412 0.773161
vt 0.541544 0.773161
vt 0.541544 0.804529
vt 0.465195 0.656559
vt 0.474063 0.656559
vt 0.541544 0.679058
vt 0.550412 0.647691
vt 0.221880 0.656559
vt 0.213011 0.687927
vt 0.921521 0.760054
vt 0.921521 0.616323
vt 0.973395 0.447458
vt 0.982263 0.447458
vt 0.616323 0.625192
vt 0.930720 0.447458
vt 0.939588 0.447458
vt 0.973065 0.903785
vt 0.964197 0.760054
vt 0.973065 0.760054
vt 0.460025 0.616323
vt 0.420951 0.616323
vt 0.312596 0.321464
vt 0.607455 0.607455
vt 0.902314 0.312596
vt 0.902314 0.607455
vt 0.303727 0.156298
vt 0.303727 0.195372
vt 0.502469 0.646529
vt 0.502469 0.911182
vt 0.532675 0.911182
vt 0.786659 0.302484
vt 0.502469 0.763753
vt 0.502469 0.802827
vt 0.830578 0.259809
vt 0.852537 0.302484
vt 0.502469 0.880976
vt 0.502469 0.616323
vt 0.768922 0.867264
vt 0.502469 0.724678
vt 0.896455 0.302484
vt 0.502469 0.841902
vt 0.502469 0.685604
vt 0.307230 0.768922
vt 0.264555 0.625192
vt 0.307230 0.625192
vt 0.307230 0.930390
vt 0.264555 0.930390
vt 0.616323 0.647691
vt 0.616323 0.773161
vt 0.616323 0.710426
vt 0.921521 0.760054
vt 0.768922 0.849527
vt 0.768922 0.827028
vt 0.930719 0.447458
vt 0.768922 0.638822
vt 0.768922 0.616323
vt 0.982263 0.447458
vt 0.982263 0.591189
vt 0.939258 0.219573
vt 0.939258 0.242072
vt 0.973065 0.760054
vt 0.930390 0.760054
vt 0.939258 0.008868
vt 0.939258 0.031368
vt 0.465195 0.750662
vt 0.465195 0.782030
vt 0.768922 0.732925
vt 0.768922 0.701558
vt 0.939258 0.094103
vt 0.939258 0.125470
vt 0.939258 0.156838
vt 0.939258 0.188206
vt 0.768922 0.764293
vt 0.768922 0.795660
vt 0.465195 0.813397
vt 0.465195 0.844765
vt 0.768922 0.670190
vt 0.465195 0.687927
vt 0.465195 0.719294
vt 0.939258 0.062735
vt 0.204143 0.867264
vt 0.161467 0.844765
vt 0.204143 0.844765
vt 0.161468 0.656559
vt 0.161467 0.813397
vt 0.204143 0.813397
vt 0.161467 0.782030
vt 0.204143 0.750662
vt 0.161467 0.750662
vt 0.264555 0.844765
vt 0.264555 0.634060
vt 0.264555 0.656559
vt 0.161467 0.719294
vt 0.264555 0.750662
vt 0.264555 0.782030
vt 0.264555 0.719294
vt 0.264555 0.813397
vt 0.264555 0.687927
vt 0.625192 0.019537
vt 0.000000 0.332133
vt 0.768922 0.876132
vt 0.768922 0.607455
vt 0.312596 0.616323
vt 0.161467 0.625192
vt 0.000000 0.303727
vt 0.902314 0.303727
vt 0.830578 0.250941
vt 0.474063 0.616323
vt 0.930719 0.607455
vt 0.930719 0.294859
vt 1.000000 0.294859
vt 1.000000 0.442288
vt 0.930719 0.451157
vt 0.990802 0.754884
vt 0.990802 0.607455
vt 0.307230 0.786659
vt 0.973065 0.607455
vt 0.921521 0.607455
vt 0.625192 0.134331
vt 0.786659 0.125463
vt 0.312596 0.750654
vt 0.786659 0.000000
vt 0.874496 0.250941
vt 0.790881 0.918808
vt 0.264555 0.876132
vt 0.541544 0.647691
vt 0.616323 0.616323
vt 0.607455 0.616323
vt 0.577249 0.616323
vt 0.538174 0.616323
vt 0.499100 0.616323
vt 0.342802 0.616323
vt 0.381876 0.616323
vt 0.008868 0.321464
vt 0.303727 0.273521
vt 0.303727 0.039074
vt 0.303727 0.117223
vt 0.303727 0.078149
vt 0.303727 0.234447
vt 0.616323 0.008868
vt 0.767265 0.213869
vt 0.232735 0.861131
vt 0.232735 0.213869
vt 0.767265 0.861131
s 0
usemtl METAL
f 9/1/1 10/2/1 11/3/1
f 12/4/2 13/5/2 14/6/2
f 15/7/3 16/8/3 17/9/3
f 18/10/4 19/11/4 20/12/4
f 21/13/5 22/14/5 23/15/5
f 24/16/6 25/17/6 26/18/6
f 31/19/7 32/20/7 33/21/7
f 36/22/8 37/23/8 38/24/8
f 41/25/9 42/26/9 43/27/9
f 44/28/10 45/29/10 46/30/10
f 47/31/11 48/32/11 49/33/11
f 50/34/12 51/35/12 52/36/12
f 53/37/13 54/38/13 55/39/13
f 56/40/14 57/41/14 58/42/14
f 59/43/10 60/44/10 61/45/10
f 62/46/15 63/47/15 64/48/15
f 15/7/16 6/49/16 16/8/16
f 8/50/17 20/12/17 7/51/17
f 17/9/18 20/12/18 19/11/18
f 28/52/19 17/9/19 27/53/19
f 12/4/20 34/54/20 35/55/20
f 10/2/21 14/6/21 13/5/21
f 11/3/22 1/56/22 2/57/22
f 3/58/23 13/5/23 12/4/23
f 38/24/24 24/16/24 36/22/24
f 28/52/25 39/59/25 40/60/25
f 29/61/20 19/11/20 18/10/20
f 21/62/26 24/16/26 26/18/26
f 31/19/27 23/15/27 22/14/27
f 35/55/20 30/63/20 29/61/20
f 11/3/28 39/59/28 9/1/28
f 33/64/29 37/23/29 36/22/29
f 44/28/30 42/26/30 41/25/30
f 45/29/26 49/33/26 46/30/26
f 53/37/31 51/35/31 50/34/31
f 56/40/29 55/39/29 54/38/29
f 57/41/27 61/45/27 58/42/27
f 51/35/26 60/44/26 52/36/26
f 62/46/32 49/33/32 48/32/32
f 43/27/29 64/48/29 63/47/29
f 21/13/33 59/65/33 22/14/33
f 6/49/34 57/66/34 56/49/34
f 3/58/35 47/67/35 4/68/35
f 44/69/36 1/56/36 45/56/36
f 50/34/35 26/18/35 25/17/35
f 41/70/34 32/20/34 31/19/34
f 62/46/17 37/23/17 63/47/17
f 7/51/37 53/37/37 8/50/37
f 2/57/38 41/70/38 31/19/38
f 31/19/38 11/3/38 2/57/38
f 1/71/39 47/67/39 45/72/39
f 13/5/39 1/71/39 10/2/39
f 35/55/40 3/73/40 12/4/40
f 3/73/40 62/74/40 48/75/40
f 7/51/41 56/40/41 54/38/41
f 6/40/41 20/12/41 16/8/41
f 5/76/40 28/52/40 22/14/40
f 5/76/38 59/65/38 57/66/38
f 8/77/40 50/78/40 25/79/40
f 18/10/42 25/79/42 29/61/42
f 39/59/43 14/6/43 9/1/43
f 17/9/44 30/63/44 27/53/44
f 28/52/45 31/19/45 22/14/45
f 21/62/39 52/36/39 60/44/39
f 36/22/46 23/80/46 33/64/46
f 29/61/47 38/81/47 35/55/47
f 27/53/44 34/54/44 39/59/44
f 32/82/41 63/47/41 37/23/41
f 49/33/46 42/26/46 46/30/46
f 51/35/46 58/42/46 61/45/46
f 15/7/34 5/76/34 6/49/34
f 8/50/48 18/10/48 20/12/48
f 17/9/18 16/8/18 20/12/18
f 28/52/19 15/7/19 17/9/19
f 12/4/20 14/6/20 34/54/20
f 10/2/21 9/1/21 14/6/21
f 11/3/33 10/2/33 1/56/33
f 3/58/49 4/68/49 13/5/49
f 38/24/32 25/17/32 24/16/32
f 28/52/19 27/53/19 39/59/19
f 29/61/50 30/63/50 19/11/50
f 21/62/26 23/80/26 24/16/26
f 31/19/27 33/21/27 23/15/27
f 35/55/20 34/54/20 30/63/20
f 11/3/25 40/60/25 39/59/25
f 33/64/29 32/82/29 37/23/29
f 44/28/30 46/30/30 42/26/30
f 45/29/26 47/31/26 49/33/26
f 53/37/24 55/39/24 51/35/24
f 56/40/29 58/42/29 55/39/29
f 57/41/30 59/43/30 61/45/30
f 51/35/26 61/45/26 60/44/26
f 62/46/32 64/48/32 49/33/32
f 43/27/29 42/26/29 64/48/29
f 21/13/36 60/13/36 59/65/36
f 6/49/34 5/76/34 57/66/34
f 3/58/35 48/58/35 47/67/35
f 44/69/33 2/57/33 1/56/33
f 50/34/35 52/36/35 26/18/35
f 41/70/34 43/83/34 32/20/34
f 62/46/17 38/24/17 37/23/17
f 7/51/17 54/38/17 53/37/17
f 2/57/38 44/69/38 41/70/38
f 31/19/51 40/60/51 11/3/51
f 1/71/39 4/68/39 47/67/39
f 13/5/52 4/68/52 1/71/52
f 35/55/38 38/81/38 3/73/38
f 3/73/40 38/81/40 62/74/40
f 7/51/41 6/40/41 56/40/41
f 6/40/53 7/51/53 20/12/53
f 5/76/38 15/7/38 28/52/38
f 5/76/38 22/14/38 59/65/38
f 8/77/40 53/77/40 50/78/40
f 18/10/40 8/77/40 25/79/40
f 39/59/44 34/54/44 14/6/44
f 17/9/44 19/11/44 30/63/44
f 28/52/54 40/60/54 31/19/54
f 21/62/39 26/18/39 52/36/39
f 36/22/55 24/16/55 23/80/55
f 29/61/56 25/79/56 38/81/56
f 27/53/43 30/63/43 34/54/43
f 32/82/41 43/27/41 63/47/41
f 49/33/46 64/48/46 42/26/46
f 51/35/55 55/39/55 58/42/55
f 73/1/1 74/2/1 75/3/1
f 76/4/57 77/5/57 78/6/57
f 79/7/3 80/8/3 81/9/3
f 82/10/4 83/11/4 84/12/4
f 85/13/5 86/14/5 87/15/5
f 88/16/6 89/17/6 90/18/6
f 95/19/58 96/20/58 97/21/58
f 100/22/59 101/23/59 102/24/59
f 105/25/9 106/26/9 107/27/9
f 108/28/10 109/29/10 110/30/10
f 111/31/11 112/32/11 113/33/11
f 114/34/12 115/35/12 116/36/12
f 117/37/13 118/38/13 119/39/13
f 120/40/14 121/41/14 122/42/14
f 123/43/10 124/44/10 125/45/10
f 126/46/15 127/47/15 128/48/15
f 79/7/34 70/49/34 80/8/34
f 72/50/17 84/12/17 71/51/17
f 81/9/18 84/12/18 83/11/18
f 79/7/19 91/53/19 92/52/19
f 99/55/20 78/6/20 98/54/20
f 77/5/21 73/1/21 78/6/21
f 75/3/22 65/56/22 66/57/22
f 67/58/35 77/5/35 76/4/35
f 89/17/24 100/22/24 102/24/24
f 92/52/25 103/59/25 104/60/25
f 93/61/20 83/11/20 82/10/20
f 85/62/26 88/16/26 90/18/26
f 95/19/27 87/15/27 86/14/27
f 93/61/20 98/54/20 94/63/20
f 75/3/25 103/59/25 73/1/25
f 100/22/29 96/82/29 101/23/29
f 108/28/30 106/26/30 105/25/30
f 109/29/26 113/33/26 110/30/26
f 117/37/24 115/35/24 114/34/24
f 118/38/29 122/42/29 119/39/29
f 121/41/27 125/45/27 122/42/27
f 115/35/26 124/44/26 116/36/26
f 126/46/32 113/33/32 112/32/32
f 107/27/29 128/48/29 127/47/29
f 85/13/33 123/65/33 86/14/33
f 70/49/34 121/66/34 120/49/34
f 67/58/35 111/67/35 68/68/35
f 108/69/33 65/56/33 109/56/33
f 114/34/35 90/18/35 89/17/35
f 105/70/34 96/20/34 95/19/34
f 126/46/17 101/23/17 127/47/17
f 118/38/17 72/50/17 71/51/17
f 66/57/38 105/70/38 95/19/38
f 95/19/38 75/3/38 66/57/38
f 65/71/39 111/67/39 109/72/39
f 77/5/39 65/71/39 74/2/39
f 99/55/40 67/73/40 76/4/40
f 67/73/40 126/74/40 112/75/40
f 71/51/41 120/40/41 118/38/41
f 71/51/41 80/8/41 70/40/41
f 69/76/40 92/52/40 86/14/40
f 69/76/38 123/65/38 121/66/38
f 72/77/40 114/78/40 89/79/40
f 82/10/60 89/79/60 93/61/60
f 103/59/44 78/6/44 73/1/44
f 83/11/44 91/53/44 81/9/44
f 86/14/61 104/60/61 95/19/61
f 85/62/39 116/36/39 124/44/39
f 100/22/46 87/80/46 97/64/46
f 93/61/62 102/81/62 99/55/62
f 91/53/44 98/54/44 103/59/44
f 96/82/41 127/47/41 101/23/41
f 113/33/46 106/26/46 110/30/46
f 115/35/46 122/42/46 125/45/46
f 79/7/34 69/76/34 70/49/34
f 72/50/48 82/10/48 84/12/48
f 81/9/18 80/8/18 84/12/18
f 79/7/19 81/9/19 91/53/19
f 99/55/20 76/4/20 78/6/20
f 77/5/21 74/2/21 73/1/21
f 75/3/36 74/2/36 65/56/36
f 67/58/35 68/68/35 77/5/35
f 89/17/24 88/16/24 100/22/24
f 92/52/25 91/53/25 103/59/25
f 93/61/50 94/63/50 83/11/50
f 85/62/26 87/80/26 88/16/26
f 95/19/27 97/21/27 87/15/27
f 93/61/20 99/55/20 98/54/20
f 75/3/19 104/60/19 103/59/19
f 100/22/29 97/64/29 96/82/29
f 108/28/30 110/30/30 106/26/30
f 109/29/26 111/31/26 113/33/26
f 117/37/24 119/39/24 115/35/24
f 118/38/29 120/40/29 122/42/29
f 121/41/27 123/43/27 125/45/27
f 115/35/26 125/45/26 124/44/26
f 126/46/32 128/48/32 113/33/32
f 107/27/29 106/26/29 128/48/29
f 85/13/33 124/13/33 123/65/33
f 70/49/34 69/76/34 121/66/34
f 67/58/35 112/58/35 111/67/35
f 108/69/33 66/57/33 65/56/33
f 114/34/35 116/36/35 90/18/35
f 105/70/34 107/83/34 96/20/34
f 126/46/17 102/24/17 101/23/17
f 118/38/37 117/37/37 72/50/37
f 66/57/38 108/69/38 105/70/38
f 95/19/63 104/60/63 75/3/63
f 65/71/39 68/68/39 111/67/39
f 77/5/52 68/68/52 65/71/52
f 99/55/38 102/81/38 67/73/38
f 67/73/40 102/81/40 126/74/40
f 71/51/41 70/40/41 120/40/41
f 71/51/53 84/12/53 80/8/53
f 69/76/38 79/7/38 92/52/38
f 69/76/38 86/14/38 123/65/38
f 72/77/40 117/77/40 114/78/40
f 82/10/40 72/77/40 89/79/40
f 103/59/44 98/54/44 78/6/44
f 83/11/44 94/63/44 91/53/44
f 86/14/64 92/52/64 104/60/64
f 85/62/39 90/18/39 116/36/39
f 100/22/55 88/16/55 87/80/55
f 93/61/65 89/79/65 102/81/65
f 91/53/43 94/63/43 98/54/43
f 96/82/41 107/27/41 127/47/41
f 113/33/46 128/48/46 106/26/46
f 115/35/55 119/39/55 122/42/55
f 137/1/1 138/2/1 139/3/1
f 140/4/57 141/5/57 142/6/57
f 143/7/3 144/8/3 145/9/3
f 146/10/4 147/11/4 148/12/4
f 149/13/5 150/14/5 151/15/5
f 152/16/6 153/17/6 154/18/6
f 159/19/7 160/20/7 161/21/7
f 164/22/8 165/23/8 166/24/8
f 169/25/14 170/26/14 171/27/14
f 172/28/10 173/29/10 174/30/10
f 175/31/11 176/32/11 177/33/11
f 178/34/66 179/35/66 180/36/66
f 181/37/13 182/38/13 183/39/13
f 184/40/14 185/41/14 186/42/14
f 187/43/10 188/44/10 189/45/10
f 190/46/15 191/47/15 192/48/15
f 143/7/16 134/49/16 144/8/16
f 146/10/48 135/51/48 136/50/48
f 145/9/18 148/12/18 147/11/18
f 143/7/67 155/53/67 156/52/67
f 163/55/20 142/6/20 162/54/20
f 138/2/21 142/6/21 141/5/21
f 139/3/22 129/56/22 130/57/22
f 140/4/23 132/68/23 141/5/23
f 166/24/24 152/16/24 164/22/24
f 156/52/25 167/59/25 168/60/25
f 146/10/50 158/63/50 147/11/50
f 154/18/26 151/80/26 152/16/26
f 159/19/27 151/15/27 150/14/27
f 163/55/20 158/63/20 157/61/20
f 139/3/25 167/59/25 137/1/25
f 164/22/29 160/82/29 165/23/29
f 172/28/30 170/26/30 169/25/30
f 173/29/26 177/33/26 174/30/26
f 181/37/31 179/35/31 178/34/31
f 182/38/29 186/42/29 183/39/29
f 185/41/27 189/45/27 186/42/27
f 179/35/26 188/44/26 180/36/26
f 190/46/32 177/33/32 176/32/32
f 171/27/29 192/48/29 191/47/29
f 149/13/33 187/65/33 150/14/33
f 134/49/34 185/66/34 184/49/34
f 176/58/35 132/68/35 131/58/35
f 130/57/33 173/56/33 172/69/33
f 178/34/35 154/18/35 153/17/35
f 169/70/34 160/20/34 159/19/34
f 190/46/17 165/23/17 191/47/17
f 135/51/17 181/37/17 136/50/17
f 130/57/38 169/70/38 159/19/38
f 159/19/38 139/3/38 130/57/38
f 129/71/39 175/67/39 173/72/39
f 141/5/39 129/71/39 138/2/39
f 163/55/40 131/73/40 140/4/40
f 131/73/40 190/74/40 176/75/40
f 135/51/41 184/40/41 182/38/41
f 134/40/41 148/12/41 144/8/41
f 133/76/40 156/52/40 150/14/40
f 133/76/38 187/65/38 185/66/38
f 136/77/40 178/78/40 153/79/40
f 146/10/68 153/79/68 157/61/68
f 167/59/43 142/6/43 137/1/43
f 145/9/44 158/63/44 155/53/44
f 156/52/69 159/19/69 150/14/69
f 149/62/39 180/36/39 188/44/39
f 164/22/46 151/80/46 161/64/46
f 157/61/70 166/81/70 163/55/70
f 155/53/44 162/54/44 167/59/44
f 160/82/41 191/47/41 165/23/41
f 177/33/46 170/26/46 174/30/46
f 179/35/46 186/42/46 189/45/46
f 143/7/34 133/76/34 134/49/34
f 146/10/17 148/12/17 135/51/17
f 145/9/18 144/8/18 148/12/18
f 143/7/25 145/9/25 155/53/25
f 163/55/20 140/4/20 142/6/20
f 138/2/21 137/1/21 142/6/21
f 139/3/36 138/2/36 129/56/36
f 140/4/35 131/58/35 132/68/35
f 166/24/32 153/17/32 152/16/32
f 156/52/25 155/53/25 167/59/25
f 146/10/20 157/61/20 158/63/20
f 154/18/26 149/62/26 151/80/26
f 159/19/27 161/21/27 151/15/27
f 163/55/20 162/54/20 158/63/20
f 139/3/25 168/60/25 167/59/25
f 164/22/29 161/64/29 160/82/29
f 172/28/71 174/30/71 170/26/71
f 173/29/26 175/31/26 177/33/26
f 181/37/24 183/39/24 179/35/24
f 182/38/29 184/40/29 186/42/29
f 185/41/27 187/43/27 189/45/27
f 179/35/26 189/45/26 188/44/26
f 190/46/32 192/48/32 177/33/32
f 171/27/29 170/26/29 192/48/29
f 149/13/33 188/13/33 187/65/33
f 134/49/34 133/76/34 185/66/34
f 176/58/35 175/67/35 132/68/35
f 130/57/33 129/56/33 173/56/33
f 178/34/35 180/36/35 154/18/35
f 169/70/34 171/83/34 160/20/34
f 190/46/17 166/24/17 165/23/17
f 135/51/17 182/38/17 181/37/17
f 130/57/38 172/69/38 169/70/38
f 159/19/72 168/60/72 139/3/72
f 129/71/39 132/68/39 175/67/39
f 141/5/52 132/68/52 129/71/52
f 163/55/38 166/81/38 131/73/38
f 131/73/40 166/81/40 190/74/40
f 135/51/41 134/40/41 184/40/41
f 134/40/53 135/51/53 148/12/53
f 133/76/38 143/7/38 156/52/38
f 133/76/38 150/14/38 187/65/38
f 136/77/40 181/77/40 178/78/40
f 146/10/40 136/77/40 153/79/40
f 167/59/44 162/54/44 142/6/44
f 145/9/44 147/11/44 158/63/44
f 156/52/73 168/60/73 159/19/73
f 149/62/39 154/18/39 180/36/39
f 164/22/55 152/16/55 151/80/55
f 157/61/74 153/79/74 166/81/74
f 155/53/43 158/63/43 162/54/43
f 160/82/41 171/27/41 191/47/41
f 177/33/46 192/48/46 170/26/46
f 179/35/55 183/39/55 186/42/55
usemtl Metalnew
f 200/84/75 201/85/75 202/86/75
f 203/87/76 204/88/76 205/89/76
f 206/90/77 207/91/77 208/92/77
f 209/93/78 210/94/78 211/95/78
f 212/96/79 213/97/79 214/98/79
f 215/99/80 216/100/80 217/101/80
f 218/102/81 219/103/81 220/104/81
f 221/105/82 222/106/82 223/88/82
f 224/107/83 226/108/83 227/109/83
f 233/110/84 235/111/84 232/112/84
f 236/113/44 237/114/44 238/115/44
f 240/116/83 242/117/83 239/118/83
f 248/119/84 250/120/84 247/121/84
f 252/122/83 254/123/83 251/124/83
f 260/125/85 262/126/85 259/127/85
f 263/128/44 264/129/44 265/130/44
f 266/131/44 267/132/44 268/133/44
f 269/134/44 270/135/44 271/136/44
f 272/137/44 273/138/44 274/139/44
f 275/140/44 276/141/44 277/142/44
f 278/143/44 279/144/44 280/145/44
f 281/146/43 282/147/43 283/148/43
f 284/149/44 285/150/44 286/151/44
f 295/152/83 297/153/83 298/154/83
f 304/155/85 306/156/85 303/157/85
f 307/158/44 308/159/44 309/160/44
f 310/161/44 311/162/44 312/163/44
f 313/164/86 314/165/86 315/166/86
f 317/167/83 319/168/83 316/169/83
f 324/170/84 326/171/84 327/172/84
f 329/173/83 331/174/83 328/175/83
f 337/176/84 339/177/84 336/178/84
f 340/179/44 341/180/44 342/181/44
f 343/182/44 344/183/44 345/184/44
f 346/185/87 347/186/87 348/187/87
f 349/188/88 350/189/88 351/190/88
f 352/191/44 353/192/44 354/193/44
f 355/194/44 356/195/44 357/196/44
f 358/197/44 359/142/44 360/198/44
f 361/199/44 362/200/44 363/201/44
f 364/202/44 365/203/44 366/204/44
f 367/205/44 368/206/44 369/207/44
f 370/208/44 371/133/44 372/209/44
f 373/210/44 374/211/44 375/212/44
f 376/213/44 377/214/44 378/215/44
f 379/216/44 380/130/44 381/217/44
f 382/218/44 383/219/44 384/220/44
f 385/221/44 386/222/44 387/223/44
f 388/224/44 389/225/44 390/151/44
f 391/226/44 392/227/44 393/228/44
f 394/229/44 395/230/44 396/231/44
f 397/232/44 398/222/44 399/233/44
f 400/234/44 401/235/44 402/219/44
f 403/236/44 404/237/44 405/180/44
f 406/238/44 407/239/44 408/183/44
f 409/240/44 410/241/44 411/242/44
f 412/243/43 413/244/43 414/195/43
f 415/245/43 416/246/43 417/192/43
f 418/247/44 419/248/44 420/249/44
f 421/250/44 422/162/44 423/251/44
f 424/252/44 425/159/44 426/253/44
f 427/254/44 428/255/44 429/256/44
f 430/257/79 432/258/79 433/259/79
f 434/260/80 436/261/80 437/262/80
f 438/263/81 440/264/81 441/265/81
f 442/266/82 444/267/82 445/268/82
f 446/269/40 447/270/40 448/271/40
f 449/272/40 450/273/40 451/274/40
f 452/275/40 453/276/40 454/277/40
f 455/278/89 456/279/89 457/280/89
f 458/281/79 460/282/79 461/283/79
f 462/284/80 464/285/80 465/286/80
f 466/287/81 468/288/81 469/289/81
f 470/290/82 472/291/82 473/292/82
f 474/293/79 476/294/79 477/295/79
f 478/296/80 480/297/80 481/298/80
f 482/299/81 484/300/81 485/301/81
f 486/302/82 488/303/82 489/304/82
f 490/305/40 491/306/40 492/307/40
f 493/308/40 494/309/40 495/310/40
f 496/311/40 497/312/40 498/313/40
f 499/314/40 500/315/40 501/316/40
f 502/278/89 503/317/89 504/318/89
f 505/319/40 506/320/40 507/321/40
f 508/317/90 509/322/90 510/323/90
f 511/324/40 512/325/40 513/326/40
f 514/327/40 515/328/40 516/329/40
f 517/330/40 518/331/40 519/332/40
f 520/333/40 521/334/40 522/335/40
f 523/336/38 524/337/38 525/338/38
f 526/339/38 527/340/38 528/341/38
f 529/342/40 530/343/40 531/344/40
f 532/345/40 533/346/40 534/347/40
f 535/348/40 536/349/40 537/350/40
f 538/351/38 539/352/38 540/353/38
f 541/354/40 542/355/40 543/356/40
f 544/357/40 545/358/40 546/359/40
f 547/360/40 548/361/40 549/362/40
f 550/363/38 551/364/38 552/365/38
f 553/366/40 554/367/40 555/368/40
f 556/369/40 557/370/40 558/371/40
f 559/372/40 560/373/40 561/374/40
f 562/375/38 563/376/38 564/377/38
f 565/378/38 566/379/38 567/380/38
f 568/381/38 569/382/38 570/383/38
f 571/384/38 572/385/38 573/386/38
f 574/387/38 575/388/38 576/389/38
f 577/390/38 578/391/38 579/392/38
f 580/393/38 581/394/38 582/395/38
f 583/396/38 584/397/38 585/398/38
f 586/399/38 587/400/38 588/401/38
f 589/402/38 590/403/38 591/404/38
f 592/405/38 593/406/38 594/407/38
f 595/408/38 596/409/38 597/410/38
f 598/411/38 599/412/38 600/413/38
f 601/414/38 602/415/38 603/416/38
f 604/417/79 605/418/79 606/419/79
f 607/420/80 608/421/80 609/422/80
f 610/423/81 611/424/81 612/425/81
f 613/426/82 614/427/82 615/428/82
f 624/429/79 625/430/79 626/431/79
f 627/432/80 628/433/80 629/434/80
f 630/435/81 631/436/81 632/437/81
f 633/438/82 634/439/82 635/440/82
f 636/441/79 637/442/79 638/443/79
f 639/444/80 640/445/80 641/446/80
f 642/447/81 643/448/81 644/427/81
f 645/449/82 646/450/82 647/451/82
f 206/452/91 202/453/91 207/454/91
f 203/87/92 202/86/92 201/85/92
f 209/455/93 205/456/93 204/457/93
f 208/92/94 211/95/94 210/94/94
f 206/90/95 219/103/95 218/102/95
f 209/455/96 223/88/96 210/458/96
f 288/459/83 219/103/83 287/460/83
f 218/461/97 289/462/97 290/463/97
f 292/464/98 215/465/98 291/466/98
f 213/97/84 293/467/84 294/468/84
f 214/98/99 201/85/99 200/84/99
f 216/100/100 203/469/100 217/101/100
f 225/470/83 295/152/83 298/154/83
f 228/471/97 299/472/97 300/473/97
f 230/474/98 301/475/98 302/476/98
f 233/110/84 303/157/84 306/156/84
f 235/477/44 308/159/44 307/158/44
f 310/161/43 238/115/43 311/162/43
f 373/478/101 543/478/101 374/478/101
f 239/118/83 317/167/83 316/169/83
f 321/479/97 244/480/97 320/481/97
f 245/482/98 322/483/98 323/484/98
f 324/170/84 247/121/84 325/485/84
f 328/175/83 254/123/83 329/173/83
f 333/486/97 256/487/97 332/488/97
f 335/489/98 258/490/98 334/491/98
f 339/177/84 259/127/84 336/178/84
f 263/128/44 341/180/44 340/179/44
f 343/182/44 268/133/44 344/183/44
f 571/478/102 399/478/102 572/478/102
f 388/478/103 564/478/103 389/478/103
f 352/191/44 274/139/44 353/192/44
f 355/194/43 277/142/43 356/195/43
f 598/478/104 426/478/104 599/478/104
f 467/492/44 326/493/44 325/494/44
f 366/204/43 271/136/43 364/202/43
f 369/207/43 280/145/43 367/205/43
f 226/495/44 435/496/44 434/497/44
f 374/211/44 249/498/44 375/212/44
f 281/146/44 377/214/44 376/213/44
f 297/499/44 433/500/44 298/501/44
f 262/502/44 383/219/44 382/218/44
f 284/149/44 386/222/44 385/221/44
f 535/478/105 278/478/105 536/478/105
f 368/478/106 534/478/106 369/478/106
f 241/503/83 287/460/83 242/117/83
f 290/463/97 244/480/97 243/504/97
f 292/464/98 246/505/98 245/482/98
f 294/468/84 249/506/84 248/119/84
f 253/507/83 295/152/83 254/123/83
f 255/508/97 299/472/97 256/487/97
f 302/476/107 258/490/107 257/509/107
f 260/125/108 305/510/108 261/510/108
f 309/160/43 265/130/43 264/129/43
f 267/132/43 311/162/43 268/133/43
f 227/109/83 317/167/83 224/107/83
f 321/479/97 229/511/97 228/471/97
f 230/474/107 322/483/107 231/512/107
f 233/110/108 327/172/108 234/172/108
f 330/513/83 223/514/83 222/515/83
f 214/516/97 332/488/97 212/517/97
f 221/518/98 334/491/98 222/515/98
f 217/519/84 338/520/84 215/465/84
f 237/114/44 341/180/44 238/115/44
f 226/521/44 344/183/44 227/522/44
f 276/141/44 353/192/44 277/142/44
f 357/196/44 253/523/44 252/524/44
f 279/144/44 364/202/44 280/145/44
f 368/206/44 241/525/44 240/526/44
f 373/210/44 283/148/44 282/147/44
f 270/135/44 377/214/44 271/136/44
f 384/220/44 286/151/44 285/150/44
f 273/138/43 386/222/43 274/139/43
f 396/231/44 391/226/44 394/229/44
f 351/527/44 395/230/44 349/528/44
f 350/529/108 509/529/108 508/529/108
f 398/222/44 389/225/44 399/233/44
f 315/139/44 397/232/44 313/530/44
f 505/478/108 269/478/108 506/478/108
f 305/531/44 400/234/44 402/219/44
f 390/151/44 401/235/44 388/224/44
f 365/478/109 531/478/109 366/478/109
f 405/180/44 379/216/44 403/236/44
f 348/115/44 404/237/44 346/532/44
f 568/478/110 394/478/110 569/478/110
f 371/133/44 406/238/44 408/183/44
f 318/522/44 407/239/44 319/533/44
f 565/529/111 391/529/111 393/529/111
f 362/200/44 409/240/44 411/242/44
f 330/513/44 410/241/44 331/534/44
f 595/478/112 423/478/112 596/478/112
f 359/142/44 412/243/44 414/195/44
f 414/195/44 297/535/44 296/523/44
f 503/478/108 347/478/108 346/478/108
f 315/139/43 415/245/43 417/192/43
f 417/192/44 360/198/44 359/142/44
f 461/536/44 319/493/44 458/537/44
f 351/527/44 418/247/44 420/249/44
f 420/249/44 363/201/44 362/200/44
f 580/478/113 406/478/113 581/478/113
f 348/115/44 423/251/44 422/162/44
f 422/162/44 372/209/44 371/133/44
f 372/478/114 540/478/114 370/478/114
f 327/538/44 426/253/44 425/159/44
f 380/130/44 424/252/44 381/217/44
f 520/478/115 275/478/115 521/478/115
f 429/256/44 337/539/44 427/254/44
f 392/227/44 428/255/44 393/228/44
f 357/478/116 519/478/116 355/478/116
f 432/540/84 435/541/84 433/542/84
f 443/543/83 438/544/83 441/545/83
f 445/268/40 446/269/40 448/271/40
f 451/274/40 454/277/40 449/272/40
f 462/284/84 461/546/84 460/547/84
f 471/548/83 468/549/83 467/550/83
f 474/293/84 481/551/84 475/552/84
f 485/301/83 486/553/83 482/299/83
f 493/308/40 490/305/40 492/307/40
f 498/313/40 501/316/40 496/311/40
f 516/329/40 511/324/40 514/327/40
f 518/331/40 521/334/40 519/332/40
f 530/343/40 506/320/40 531/344/40
f 533/346/40 536/349/40 534/347/40
f 473/554/40 543/356/40 542/355/40
f 547/360/40 544/357/40 546/359/40
f 489/304/40 553/366/40 555/368/40
f 559/372/40 556/369/40 558/371/40
f 468/288/95 630/435/95 469/289/95
f 448/271/40 494/309/40 493/308/40
f 499/314/40 450/273/40 500/315/40
f 452/275/40 491/306/40 453/276/40
f 437/262/40 497/312/40 434/260/40
f 522/335/40 515/328/40 520/333/40
f 479/555/40 517/330/40 480/297/40
f 537/350/40 529/342/40 535/348/40
f 463/556/40 532/345/40 464/557/40
f 542/355/40 548/361/40 547/360/40
f 546/359/40 505/319/40 507/321/40
f 555/368/40 560/373/40 559/372/40
f 558/371/40 513/326/40 512/325/40
f 569/382/38 566/379/38 570/383/38
f 568/381/38 510/558/38 509/559/38
f 572/385/38 563/376/38 573/386/38
f 571/384/38 456/560/38 455/561/38
f 576/389/38 439/562/38 574/387/38
f 562/375/38 574/387/38 563/376/38
f 579/392/38 552/365/38 577/390/38
f 503/563/38 577/390/38 504/564/38
f 540/353/38 582/395/38 581/394/38
f 580/393/38 459/565/38 458/281/38
f 526/339/38 583/396/38 585/398/38
f 584/397/38 477/566/38 476/567/38
f 523/336/38 586/399/38 588/401/38
f 587/400/38 431/568/38 430/257/38
f 591/404/38 456/560/38 589/402/38
f 590/403/38 525/338/38 524/337/38
f 594/407/38 510/558/38 592/405/38
f 593/406/38 528/341/38 527/340/38
f 596/409/38 504/564/38 597/410/38
f 595/408/38 539/352/38 538/351/38
f 599/412/38 469/289/38 600/413/38
f 551/364/38 600/413/38 552/365/38
f 603/416/38 483/569/38 601/414/38
f 565/378/38 601/414/38 566/379/38
f 471/570/44 250/571/44 472/572/44
f 379/478/117 551/478/117 550/478/117
f 314/478/108 455/478/108 457/478/108
f 378/478/118 544/478/118 376/478/118
f 548/478/119 281/478/119 549/478/119
f 235/573/44 443/574/44 232/575/44
f 304/576/44 441/577/44 440/578/44
f 236/478/108 453/478/108 237/478/108
f 490/478/120 342/478/120 491/478/120
f 309/478/121 446/478/121 307/478/121
f 496/478/122 345/478/122 497/478/122
f 485/579/44 337/580/44 336/581/44
f 602/529/123 427/529/123 603/529/123
f 312/478/124 449/478/124 310/478/124
f 575/478/125 400/478/125 576/478/125
f 384/478/126 553/478/126 382/478/126
f 487/582/43 262/583/43 488/584/43
f 387/478/127 556/478/127 385/478/127
f 560/478/128 284/478/128 561/478/128
f 363/478/129 526/478/129 361/478/129
f 584/478/130 409/478/130 585/478/130
f 514/478/131 354/478/131 515/478/131
f 240/571/44 465/585/44 464/584/44
f 475/586/44 331/587/44 476/588/44
f 481/589/44 252/590/44 251/591/44
f 578/478/132 403/478/132 579/478/132
f 360/478/133 523/478/133 358/478/133
f 587/478/134 412/478/134 588/478/134
f 590/478/135 415/478/135 591/478/135
f 494/478/136 263/478/136 495/478/136
f 267/478/137 501/478/137 500/478/137
f 593/478/138 418/478/138 594/478/138
f 513/478/108 272/478/108 511/478/108
f 606/592/84 607/593/84 604/594/84
f 610/595/83 615/428/83 611/596/83
f 617/597/107 614/427/107 616/598/107
f 619/599/98 621/600/98 618/601/98
f 628/433/84 624/602/84 626/603/84
f 631/604/83 635/440/83 632/605/83
f 640/606/84 636/441/84 638/443/84
f 645/607/83 643/448/83 642/447/83
f 650/608/98 648/609/98 649/610/98
f 653/611/98 655/612/98 652/613/98
f 665/614/107 663/615/107 664/616/107
f 668/617/107 666/618/107 667/619/107
f 675/620/107 659/621/107 674/622/107
f 678/623/107 676/624/107 677/625/107
f 635/440/107 682/626/107 683/627/107
f 685/628/98 687/629/98 684/630/98
f 647/451/98 690/631/98 691/632/98
f 693/633/98 695/634/98 692/635/98
f 617/636/98 651/637/98 650/638/98
f 619/639/107 655/612/107 654/640/107
f 649/641/107 621/642/107 620/643/107
f 608/421/107 652/613/107 609/422/107
f 668/617/107 664/616/107 669/644/107
f 667/619/107 641/446/107 640/445/107
f 678/623/107 674/622/107 679/645/107
f 677/625/98 629/434/98 628/433/98
f 683/627/107 687/629/107 686/646/107
f 685/628/107 659/621/107 658/647/107
f 691/632/107 695/634/107 694/648/107
f 693/633/107 663/615/107 662/649/107
f 701/609/97 699/650/97 700/651/97
f 661/600/97 700/651/97 660/652/97
f 696/653/97 702/654/97 703/655/97
f 703/655/97 622/656/97 623/657/97
f 705/658/97 611/424/97 704/659/97
f 696/653/97 704/659/97 697/660/97
f 707/661/97 689/662/97 706/663/97
f 657/664/97 706/663/97 656/665/97
f 709/666/97 681/667/97 708/668/97
f 625/430/97 708/669/97 626/431/97
f 711/670/97 673/671/97 710/672/97
f 637/442/97 710/672/97 638/443/97
f 713/673/97 671/674/97 712/675/97
f 713/673/97 606/419/97 605/418/97
f 623/657/97 714/676/97 715/677/97
f 670/678/97 714/676/97 671/674/97
f 661/600/97 716/679/97 717/601/97
f 717/601/97 673/671/97 672/680/97
f 657/664/97 718/681/97 719/682/97
f 719/682/97 681/667/97 680/683/97
f 721/684/97 632/437/97 720/685/97
f 688/686/97 720/687/97 689/662/97
f 723/598/97 643/448/97 722/688/97
f 698/689/97 722/688/97 699/650/97
f 438/263/95 612/425/95 439/562/95
f 482/299/95 644/690/95 483/691/95
f 633/692/96 473/292/96 634/693/96
f 645/449/96 489/304/96 646/450/96
f 460/282/99 625/430/99 624/429/99
f 605/418/99 432/258/99 431/568/99
f 609/422/100 436/261/100 607/420/100
f 614/694/96 442/266/96 445/268/96
f 474/293/99 637/695/99 636/696/99
f 463/697/100 627/698/100 629/699/100
f 639/444/100 479/555/100 478/296/100
f 228/700/38 300/701/38 200/702/38
f 205/703/46 207/704/46 202/705/46
f 324/170/39 233/110/39 201/85/39
f 230/706/40 302/707/40 209/455/40
f 317/167/41 208/92/41 224/107/41
f 197/708/44 212/517/44 332/488/44
f 429/256/43 215/465/43 338/520/43
f 288/709/44 289/462/44 220/710/44
f 222/515/44 411/242/44 330/513/44
f 298/501/44 435/496/44 225/711/44
f 345/478/139 434/478/139 497/478/139
f 318/522/140 344/183/140 408/183/140
f 193/712/44 299/472/44 229/511/44
f 199/713/44 229/511/44 320/481/44
f 301/475/44 351/527/44 420/249/44
f 231/512/44 396/231/44 351/527/44
f 232/575/44 441/577/44 303/714/44
f 307/478/141 444/478/141 235/478/141
f 425/159/108 234/538/108 327/538/108
f 310/478/142 454/478/142 236/478/142
f 348/115/143 341/180/143 405/180/143
f 422/162/108 238/115/108 348/115/108
f 342/478/144 453/478/144 491/478/144
f 316/494/44 465/585/44 239/715/44
f 288/709/44 367/205/44 198/716/44
f 368/478/145 464/478/145 532/478/145
f 244/480/44 199/713/44 320/481/44
f 198/716/44 244/480/44 289/462/44
f 322/483/44 392/227/44 396/231/44
f 392/227/44 291/466/44 429/256/44
f 247/715/44 467/492/44 325/494/44
f 374/478/146 472/478/146 250/478/146
f 375/212/44 293/717/44 197/708/44
f 328/718/44 481/589/44 251/591/44
f 296/523/108 356/195/108 414/195/108
f 357/478/147 480/478/147 517/478/147
f 256/487/44 197/708/44 332/488/44
f 196/719/44 256/487/44 299/472/44
f 334/491/44 362/200/44 411/242/44
f 258/490/44 420/249/44 362/200/44
f 259/720/44 485/579/44 336/581/44
f 382/478/148 488/478/148 262/478/148
f 402/219/108 261/531/108 305/531/108
f 263/478/149 490/478/149 495/478/149
f 380/130/108 308/159/108 425/159/108
f 405/180/108 265/130/108 380/130/108
f 309/478/150 494/478/150 447/478/150
f 266/478/151 496/478/151 501/478/151
f 371/133/108 311/162/108 422/162/108
f 408/183/108 268/133/108 371/133/108
f 312/478/152 500/478/152 450/478/152
f 269/478/153 531/478/153 506/478/153
f 199/713/44 271/136/44 193/712/44
f 271/136/44 196/719/44 193/712/44
f 378/478/154 505/478/154 545/478/154
f 272/478/155 514/478/155 511/478/155
f 417/192/108 274/139/108 315/139/108
f 315/139/156 386/222/156 398/222/156
f 387/478/157 513/478/157 557/478/157
f 275/478/158 519/478/158 521/478/158
f 359/142/108 353/192/108 417/192/108
f 414/195/143 277/142/143 359/142/143
f 354/478/159 520/478/159 515/478/159
f 278/478/160 534/478/160 536/478/160
f 365/478/161 535/478/161 529/478/161
f 280/145/44 199/713/44 194/721/44
f 367/205/44 194/721/44 198/716/44
f 281/478/162 544/478/162 549/478/162
f 195/722/44 375/212/44 197/708/44
f 377/214/44 195/722/44 196/719/44
f 373/478/163 548/478/163 541/478/163
f 385/478/164 561/478/164 284/478/164
f 390/151/108 383/219/108 402/219/108
f 398/222/108 286/151/108 390/151/108
f 384/478/165 560/478/165 554/478/165
f 413/478/166 430/478/166 297/478/166
f 400/478/167 440/478/167 576/478/167
f 397/478/168 455/478/168 313/478/168
f 415/478/169 457/478/169 591/478/169
f 407/478/170 458/478/170 319/478/170
f 426/478/171 466/478/171 599/478/171
f 410/478/172 476/478/172 331/478/172
f 427/529/173 484/529/173 603/529/173
f 346/478/174 578/478/174 503/478/174
f 423/478/175 502/478/175 596/478/175
f 349/529/176 568/529/176 509/529/176
f 350/529/177 594/529/177 418/529/177
f 416/478/178 524/478/178 360/478/178
f 412/478/179 523/478/179 588/478/179
f 363/529/180 593/529/180 527/529/180
f 361/529/181 585/529/181 409/529/181
f 372/478/182 595/478/182 538/478/182
f 370/478/183 581/478/183 406/478/183
f 381/478/184 598/478/184 551/478/184
f 403/478/185 550/478/185 579/478/185
f 388/478/186 575/478/186 562/478/186
f 399/478/187 564/478/187 572/478/187
f 394/529/188 567/529/188 569/529/188
f 393/529/189 602/529/189 565/529/189
f 586/399/38 605/418/38 431/568/38
f 436/723/39 604/724/39 607/725/39
f 437/262/40 652/613/40 498/313/40
f 438/544/41 613/726/41 610/727/41
f 439/562/38 705/658/38 574/387/38
f 445/268/40 616/728/40 614/694/40
f 448/271/40 651/637/40 616/728/40
f 451/274/40 621/642/40 452/275/40
f 451/274/40 655/612/40 618/729/40
f 492/307/40 621/642/40 648/730/40
f 589/402/38 623/657/38 715/677/38
f 573/386/38 623/657/38 456/560/38
f 582/395/38 625/430/38 459/565/38
f 462/284/39 624/731/39 627/698/39
f 533/346/40 629/732/40 676/733/40
f 468/549/41 633/692/41 631/734/41
f 600/413/38 630/435/38 721/684/38
f 473/554/40 682/735/40 634/736/40
f 474/293/39 639/737/39 478/738/39
f 477/566/38 711/739/38 637/740/38
f 479/555/40 666/618/40 518/331/40
f 482/299/41 645/741/41 642/742/41
f 601/414/38 644/743/38 723/744/38
f 489/304/40 690/631/40 646/450/40
f 492/307/40 651/637/40 493/308/40
f 498/313/40 655/612/40 499/314/40
f 577/390/38 657/745/38 504/564/38
f 504/564/38 719/746/38 597/410/38
f 546/359/40 659/747/40 684/748/40
f 530/343/40 659/747/40 507/321/40
f 510/558/38 701/749/38 661/750/38
f 592/405/38 661/750/38 717/751/38
f 512/325/40 664/616/40 663/615/40
f 512/325/40 692/635/40 558/371/40
f 522/335/40 664/616/40 516/329/40
f 518/331/40 669/644/40 522/335/40
f 525/338/38 713/673/38 586/399/38
f 589/402/38 670/678/38 525/338/38
f 528/341/38 711/739/38 583/396/38
f 592/405/38 672/752/38 528/341/38
f 537/350/40 674/753/40 530/343/40
f 537/350/40 676/733/40 679/754/40
f 597/410/38 680/755/38 539/352/38
f 582/395/38 680/755/38 709/756/38
f 542/355/40 687/757/40 682/735/40
f 546/359/40 687/757/40 547/360/40
f 552/365/38 721/684/38 688/758/38
f 577/390/38 688/758/38 707/759/38
f 555/368/40 695/634/40 690/631/40
f 559/372/40 692/635/40 695/634/40
f 563/376/38 703/655/38 573/386/38
f 563/376/38 705/658/38 696/653/38
f 566/379/38 701/749/38 570/383/38
f 601/414/38 698/760/38 566/379/38
f 608/761/44 712/762/44 653/763/44
f 704/764/44 615/428/44 617/597/44
f 697/373/44 617/597/44 650/608/44
f 671/765/44 619/599/44 654/766/44
f 714/767/44 620/768/44 619/599/44
f 622/769/44 649/610/44 620/768/44
f 628/433/44 708/668/44 677/625/44
f 720/687/44 635/440/44 683/627/44
f 638/443/44 667/770/44 640/606/44
f 722/688/44 647/771/44 691/772/44
f 702/773/44 650/608/44 649/610/44
f 653/763/44 671/765/44 654/766/44
f 718/681/44 658/647/44 675/620/44
f 656/665/44 685/628/44 658/647/44
f 716/679/44 662/774/44 665/775/44
f 660/652/44 693/776/44 662/774/44
f 668/777/44 716/679/44 665/775/44
f 667/770/44 673/671/44 668/777/44
f 681/667/44 675/620/44 678/623/44
f 677/625/44 681/667/44 678/623/44
f 686/646/44 720/687/44 683/627/44
f 685/628/44 689/662/44 686/646/44
f 694/778/44 722/688/44 691/772/44
f 693/776/44 699/650/44 694/778/44
f 224/107/83 225/470/83 226/108/83
f 233/110/84 234/172/84 235/111/84
f 240/116/83 241/503/83 242/117/83
f 248/119/84 249/506/84 250/120/84
f 252/122/83 253/507/83 254/123/83
f 260/125/84 261/510/84 262/126/84
f 295/152/83 296/507/83 297/153/83
f 304/155/84 305/510/84 306/156/84
f 317/167/83 318/109/83 319/168/83
f 324/170/85 325/485/85 326/171/85
f 329/173/83 330/779/83 331/174/83
f 337/176/84 338/780/84 339/177/84
f 430/257/79 431/568/79 432/258/79
f 434/260/80 435/781/80 436/261/80
f 438/263/190 439/562/190 440/264/190
f 442/266/82 443/782/82 444/267/82
f 458/281/79 459/565/79 460/282/79
f 462/284/80 463/697/80 464/285/80
f 466/287/81 467/783/81 468/288/81
f 470/290/82 471/548/82 472/291/82
f 474/293/79 475/552/79 476/294/79
f 478/296/80 479/555/80 480/297/80
f 482/299/190 483/691/190 484/300/190
f 486/302/82 487/784/82 488/303/82
f 206/452/191 200/702/191 202/453/191
f 203/87/92 205/89/92 202/86/92
f 209/455/93 211/785/93 205/456/93
f 208/92/94 207/91/94 211/95/94
f 206/90/95 208/92/95 219/103/95
f 209/455/96 221/105/96 223/88/96
f 288/459/83 220/104/83 219/103/83
f 218/461/97 220/710/97 289/462/97
f 292/464/107 216/786/107 215/465/107
f 213/97/84 212/96/84 293/467/84
f 214/98/99 213/97/99 201/85/99
f 216/100/100 204/457/100 203/469/100
f 225/470/83 224/107/83 295/152/83
f 228/471/97 229/511/97 299/472/97
f 230/474/107 231/512/107 301/475/107
f 233/110/84 232/112/84 303/157/84
f 235/477/44 234/538/44 308/159/44
f 310/161/44 236/113/44 238/115/44
f 373/478/192 541/478/192 543/478/192
f 239/118/83 242/117/83 317/167/83
f 321/479/97 243/504/97 244/480/97
f 245/482/107 246/505/107 322/483/107
f 324/170/84 248/119/84 247/121/84
f 328/175/83 251/124/83 254/123/83
f 333/486/97 255/508/97 256/487/97
f 335/489/107 257/509/107 258/490/107
f 339/177/84 260/125/84 259/127/84
f 263/128/43 265/130/43 341/180/43
f 343/182/44 266/131/44 268/133/44
f 571/478/193 397/478/193 399/478/193
f 388/478/194 562/478/194 564/478/194
f 352/191/44 272/137/44 274/139/44
f 355/194/44 275/140/44 277/142/44
f 598/478/195 424/478/195 426/478/195
f 467/492/44 466/787/44 326/493/44
f 366/204/44 269/134/44 271/136/44
f 369/207/44 278/143/44 280/145/44
f 226/495/44 225/711/44 435/496/44
f 374/211/44 250/788/44 249/498/44
f 281/146/44 283/148/44 377/214/44
f 297/499/44 430/578/44 433/500/44
f 262/502/44 261/531/44 383/219/44
f 284/149/44 286/151/44 386/222/44
f 535/478/196 279/478/196 278/478/196
f 368/478/197 532/478/197 534/478/197
f 241/503/83 288/459/83 287/460/83
f 290/463/97 289/462/97 244/480/97
f 292/464/107 291/466/107 246/505/107
f 294/468/84 293/467/84 249/506/84
f 253/507/108 296/507/108 295/152/108
f 255/508/97 300/473/97 299/472/97
f 302/476/98 301/475/98 258/490/98
f 260/125/85 306/156/85 305/510/85
f 309/160/43 308/159/43 265/130/43
f 267/132/44 312/163/44 311/162/44
f 227/109/108 318/109/108 317/167/108
f 321/479/97 320/481/97 229/511/97
f 230/474/98 323/484/98 322/483/98
f 233/110/84 324/170/84 327/172/84
f 330/513/83 329/789/83 223/514/83
f 214/516/97 333/486/97 332/488/97
f 221/518/107 335/489/107 334/491/107
f 217/519/84 339/790/84 338/520/84
f 237/114/43 342/181/43 341/180/43
f 226/521/44 345/184/44 344/183/44
f 276/141/44 354/193/44 353/192/44
f 357/196/44 356/195/44 253/523/44
f 279/144/44 365/203/44 364/202/44
f 368/206/44 367/205/44 241/525/44
f 373/210/44 375/212/44 283/148/44
f 270/135/44 378/215/44 377/214/44
f 384/220/44 383/219/44 286/151/44
f 273/138/44 387/223/44 386/222/44
f 396/231/44 392/227/44 391/226/44
f 351/527/44 396/231/44 395/230/44
f 350/529/108 349/529/108 509/529/108
f 398/222/44 390/151/44 389/225/44
f 315/139/44 398/222/44 397/232/44
f 505/478/108 270/478/108 269/478/108
f 305/531/44 304/791/44 400/234/44
f 390/151/43 402/219/43 401/235/43
f 365/478/198 529/478/198 531/478/198
f 405/180/44 380/130/44 379/216/44
f 348/115/43 405/180/43 404/237/43
f 568/478/199 395/478/199 394/478/199
f 371/133/44 370/208/44 406/238/44
f 318/522/44 408/183/44 407/239/44
f 565/529/200 567/529/200 391/529/200
f 362/200/44 361/199/44 409/240/44
f 330/513/44 411/242/44 410/241/44
f 595/478/201 421/478/201 423/478/201
f 359/142/44 358/197/44 412/243/44
f 414/195/44 413/244/44 297/535/44
f 503/478/108 502/478/108 347/478/108
f 315/139/44 314/792/44 415/245/44
f 417/192/43 416/246/43 360/198/43
f 461/536/44 316/494/44 319/493/44
f 351/527/44 350/793/44 418/247/44
f 420/249/44 419/248/44 363/201/44
f 580/478/202 407/478/202 406/478/202
f 348/115/44 347/794/44 423/251/44
f 422/162/44 421/250/44 372/209/44
f 372/478/203 538/478/203 540/478/203
f 327/538/44 326/795/44 426/253/44
f 380/130/44 425/159/44 424/252/44
f 520/478/204 276/478/204 275/478/204
f 429/256/44 338/520/44 337/539/44
f 392/227/44 429/256/44 428/255/44
f 357/478/205 517/478/205 519/478/205
f 432/540/84 436/723/84 435/541/84
f 443/543/83 442/796/83 438/544/83
f 445/268/40 444/267/40 446/269/40
f 451/274/40 452/275/40 454/277/40
f 462/284/84 465/286/84 461/546/84
f 471/548/83 470/290/83 468/549/83
f 474/293/84 478/738/84 481/551/84
f 485/301/83 487/797/83 486/553/83
f 493/308/40 495/310/40 490/305/40
f 498/313/40 499/314/40 501/316/40
f 516/329/40 512/325/40 511/324/40
f 518/331/40 522/335/40 521/334/40
f 530/343/40 507/321/40 506/320/40
f 533/346/40 537/350/40 536/349/40
f 473/554/40 472/798/40 543/356/40
f 547/360/40 549/362/40 544/357/40
f 489/304/40 488/303/40 553/366/40
f 559/372/40 561/374/40 556/369/40
f 468/288/95 631/436/95 630/435/95
f 448/271/40 447/270/40 494/309/40
f 499/314/40 451/274/40 450/273/40
f 452/275/40 492/307/40 491/306/40
f 437/262/40 498/313/40 497/312/40
f 522/335/40 516/329/40 515/328/40
f 479/555/40 518/331/40 517/330/40
f 537/350/40 530/343/40 529/342/40
f 463/556/40 533/346/40 532/345/40
f 542/355/40 541/354/40 548/361/40
f 546/359/40 545/358/40 505/319/40
f 555/368/40 554/367/40 560/373/40
f 558/371/40 557/370/40 513/326/40
f 569/382/38 567/380/38 566/379/38
f 568/381/38 570/383/38 510/558/38
f 572/385/38 564/377/38 563/376/38
f 571/384/38 573/386/38 456/560/38
f 576/389/38 440/264/38 439/562/38
f 562/375/38 575/388/38 574/387/38
f 579/392/38 550/363/38 552/365/38
f 503/563/38 578/391/38 577/390/38
f 540/353/38 539/352/38 582/395/38
f 580/393/38 582/395/38 459/565/38
f 526/339/38 528/341/38 583/396/38
f 584/397/38 583/396/38 477/566/38
f 523/336/38 525/338/38 586/399/38
f 587/400/38 586/399/38 431/568/38
f 591/404/38 457/799/38 456/560/38
f 590/403/38 589/402/38 525/338/38
f 594/407/38 508/800/38 510/558/38
f 593/406/38 592/405/38 528/341/38
f 596/409/38 502/801/38 504/564/38
f 595/408/38 597/410/38 539/352/38
f 599/412/38 466/287/38 469/289/38
f 551/364/38 598/411/38 600/413/38
f 603/416/38 484/802/38 483/569/38
f 565/378/38 602/415/38 601/414/38
f 471/570/44 247/715/44 250/571/44
f 379/478/206 381/478/206 551/478/206
f 314/478/108 313/478/108 455/478/108
f 378/478/207 545/478/207 544/478/207
f 548/478/208 282/478/208 281/478/208
f 235/573/44 444/497/44 443/574/44
f 304/576/44 303/714/44 441/577/44
f 236/478/108 454/478/108 453/478/108
f 490/478/209 340/478/209 342/478/209
f 309/478/210 447/478/210 446/478/210
f 496/478/211 343/478/211 345/478/211
f 485/579/44 484/803/44 337/580/44
f 602/529/212 428/529/212 427/529/212
f 312/478/213 450/478/213 449/478/213
f 575/478/214 401/478/214 400/478/214
f 384/478/215 554/478/215 553/478/215
f 487/582/44 259/720/44 262/583/44
f 387/478/216 557/478/216 556/478/216
f 560/478/217 285/478/217 284/478/217
f 363/478/218 527/478/218 526/478/218
f 584/478/219 410/478/219 409/478/219
f 514/478/220 352/478/220 354/478/220
f 240/571/44 239/715/44 465/585/44
f 475/586/44 328/718/44 331/587/44
f 481/589/44 480/804/44 252/590/44
f 578/478/221 404/478/221 403/478/221
f 360/478/222 524/478/222 523/478/222
f 587/478/223 413/478/223 412/478/223
f 590/478/224 416/478/224 415/478/224
f 494/478/225 264/478/225 263/478/225
f 267/478/226 266/478/226 501/478/226
f 593/478/169 419/478/169 418/478/169
f 513/478/108 273/478/108 272/478/108
f 606/592/84 608/761/84 607/593/84
f 610/595/83 613/426/83 615/428/83
f 617/597/107 615/428/107 614/427/107
f 619/599/107 620/768/107 621/600/107
f 628/433/84 627/432/84 624/602/84
f 631/604/83 633/438/83 635/440/83
f 640/606/84 639/805/84 636/441/84
f 645/607/83 647/771/83 643/448/83
f 650/608/107 651/689/107 648/609/107
f 653/611/107 654/640/107 655/612/107
f 665/614/98 662/649/98 663/615/98
f 668/617/98 669/644/98 666/618/98
f 675/620/107 658/647/107 659/621/107
f 678/623/107 679/645/107 676/624/107
f 635/440/107 634/439/107 682/626/107
f 685/628/107 686/646/107 687/629/107
f 647/451/107 646/450/107 690/631/107
f 693/633/107 694/648/107 695/634/107
f 617/636/98 616/728/98 651/637/98
f 619/639/98 618/729/98 655/612/98
f 649/641/107 648/730/107 621/642/107
f 608/421/98 653/611/98 652/613/98
f 668/617/98 665/614/98 664/616/98
f 667/619/107 666/618/107 641/446/107
f 678/623/107 675/620/107 674/622/107
f 677/625/107 676/624/107 629/434/107
f 683/627/98 682/626/98 687/629/98
f 685/628/98 684/630/98 659/621/98
f 691/632/98 690/631/98 695/634/98
f 693/633/107 692/635/107 663/615/107
f 701/609/97 698/689/97 699/650/97
f 661/600/97 701/609/97 700/651/97
f 696/653/97 697/660/97 702/654/97
f 703/655/97 702/654/97 622/656/97
f 705/658/97 612/425/97 611/424/97
f 696/653/97 705/658/97 704/659/97
f 707/661/97 688/686/97 689/662/97
f 657/664/97 707/661/97 706/663/97
f 709/666/97 680/683/97 681/667/97
f 625/430/97 709/756/97 708/669/97
f 711/670/97 672/680/97 673/671/97
f 637/442/97 711/670/97 710/672/97
f 713/673/97 670/678/97 671/674/97
f 713/673/97 712/675/97 606/419/97
f 623/657/97 622/656/97 714/676/97
f 670/678/97 715/677/97 714/676/97
f 661/600/97 660/652/97 716/679/97
f 717/601/97 716/679/97 673/671/97
f 657/664/97 656/665/97 718/681/97
f 719/682/97 718/681/97 681/667/97
f 721/684/97 630/435/97 632/437/97
f 688/686/97 721/806/97 720/687/97
f 723/598/97 644/427/97 643/448/97
f 698/689/97 723/598/97 722/688/97
f 438/263/95 610/423/95 612/425/95
f 482/299/95 642/742/95 644/690/95
f 633/692/96 470/290/96 473/292/96
f 645/449/96 486/302/96 489/304/96
f 460/282/99 459/565/99 625/430/99
f 605/418/99 604/417/99 432/258/99
f 609/422/100 437/262/100 436/261/100
f 614/694/96 613/807/96 442/266/96
f 474/293/99 477/295/99 637/695/99
f 463/697/100 462/284/100 627/698/100
f 639/444/100 641/446/100 479/555/100
f 200/702/38 206/452/38 228/700/38
f 206/452/38 218/808/38 290/809/38
f 290/809/38 243/810/38 206/452/38
f 243/810/38 321/811/38 206/452/38
f 333/812/38 214/86/38 200/702/38
f 300/701/38 255/813/38 200/702/38
f 255/813/38 333/812/38 200/702/38
f 321/811/38 228/700/38 206/452/38
f 205/703/46 211/478/46 207/704/46
f 201/85/39 213/97/39 294/468/39
f 201/85/39 294/468/39 248/119/39
f 217/814/39 203/87/39 339/177/39
f 203/87/39 201/85/39 233/110/39
f 260/125/39 203/87/39 306/156/39
f 260/125/39 339/177/39 203/87/39
f 233/110/39 306/156/39 203/87/39
f 201/85/39 248/119/39 324/170/39
f 335/815/40 221/105/40 209/455/40
f 209/455/40 204/457/40 230/706/40
f 204/457/40 216/100/40 292/816/40
f 230/706/40 204/457/40 323/817/40
f 292/816/40 245/818/40 204/457/40
f 245/818/40 323/817/40 204/457/40
f 302/707/40 257/819/40 209/455/40
f 257/819/40 335/815/40 209/455/40
f 219/103/41 208/92/41 287/460/41
f 208/92/41 210/94/41 224/107/41
f 287/460/41 208/92/41 242/117/41
f 210/94/41 223/820/41 329/173/41
f 254/123/41 295/152/41 210/94/41
f 295/152/41 224/107/41 210/94/41
f 210/94/41 329/173/41 254/123/41
f 242/117/41 208/92/41 317/167/41
f 197/708/44 293/717/44 212/517/44
f 429/256/44 291/466/44 215/465/44
f 288/709/44 198/716/44 289/462/44
f 222/515/43 334/491/43 411/242/43
f 298/501/44 433/500/44 435/496/44
f 345/478/227 226/478/227 434/478/227
f 318/522/108 227/522/108 344/183/108
f 193/712/44 196/719/44 299/472/44
f 199/713/44 193/712/44 229/511/44
f 301/475/44 231/512/44 351/527/44
f 231/512/44 322/483/44 396/231/44
f 232/575/44 443/574/44 441/577/44
f 307/478/228 446/478/228 444/478/228
f 425/159/108 308/159/108 234/538/108
f 310/478/229 449/478/229 454/478/229
f 348/115/108 238/115/108 341/180/108
f 422/162/108 311/162/108 238/115/108
f 342/478/230 237/478/230 453/478/230
f 316/494/44 461/536/44 465/585/44
f 288/709/44 241/525/44 367/205/44
f 368/478/231 240/478/231 464/478/231
f 244/480/44 194/721/44 199/713/44
f 198/716/44 194/721/44 244/480/44
f 322/483/44 246/505/44 392/227/44
f 392/227/44 246/505/44 291/466/44
f 247/715/44 471/570/44 467/492/44
f 374/478/232 543/478/232 472/478/232
f 375/212/44 249/498/44 293/717/44
f 328/718/44 475/586/44 481/589/44
f 296/523/108 253/523/108 356/195/108
f 357/478/233 252/478/233 480/478/233
f 256/487/44 195/722/44 197/708/44
f 196/719/44 195/722/44 256/487/44
f 334/491/44 258/490/44 362/200/44
f 258/490/44 301/475/44 420/249/44
f 259/720/44 487/582/44 485/579/44
f 382/478/234 553/478/234 488/478/234
f 402/219/108 383/219/108 261/531/108
f 263/478/235 340/478/235 490/478/235
f 380/130/108 265/130/108 308/159/108
f 405/180/176 341/180/176 265/130/176
f 309/478/236 264/478/236 494/478/236
f 266/478/237 343/478/237 496/478/237
f 371/133/108 268/133/108 311/162/108
f 408/183/143 344/183/143 268/133/143
f 312/478/238 267/478/238 500/478/238
f 269/478/239 366/478/239 531/478/239
f 199/713/44 364/202/44 271/136/44
f 271/136/44 377/214/44 196/719/44
f 378/478/240 270/478/240 505/478/240
f 272/478/241 352/478/241 514/478/241
f 417/192/108 353/192/108 274/139/108
f 315/139/108 274/139/108 386/222/108
f 387/478/242 273/478/242 513/478/242
f 275/478/243 355/478/243 519/478/243
f 359/142/156 277/142/156 353/192/156
f 414/195/108 356/195/108 277/142/108
f 354/478/244 276/478/244 520/478/244
f 278/478/245 369/478/245 534/478/245
f 365/478/246 279/478/246 535/478/246
f 280/145/44 364/202/44 199/713/44
f 367/205/44 280/145/44 194/721/44
f 281/478/247 376/478/247 544/478/247
f 195/722/44 283/148/44 375/212/44
f 377/214/44 283/148/44 195/722/44
f 373/478/248 282/478/248 548/478/248
f 385/478/249 556/478/249 561/478/249
f 390/151/108 286/151/108 383/219/108
f 398/222/143 386/222/143 286/151/143
f 384/478/250 285/478/250 560/478/250
f 413/478/234 587/478/234 430/478/234
f 400/478/251 304/478/251 440/478/251
f 397/478/252 571/478/252 455/478/252
f 415/478/253 314/478/253 457/478/253
f 407/478/254 580/478/254 458/478/254
f 426/478/255 326/478/255 466/478/255
f 410/478/256 584/478/256 476/478/256
f 427/529/257 337/529/257 484/529/257
f 346/478/258 404/478/258 578/478/258
f 423/478/259 347/478/259 502/478/259
f 349/529/260 395/529/260 568/529/260
f 350/529/261 508/529/261 594/529/261
f 416/478/262 590/478/262 524/478/262
f 412/478/263 358/478/263 523/478/263
f 363/529/264 419/529/264 593/529/264
f 361/529/265 526/529/265 585/529/265
f 372/478/266 421/478/266 595/478/266
f 370/478/267 540/478/267 581/478/267
f 381/478/268 424/478/268 598/478/268
f 403/478/269 379/478/269 550/478/269
f 388/478/270 401/478/270 575/478/270
f 399/478/271 389/478/271 564/478/271
f 394/529/272 391/529/272 567/529/272
f 393/529/273 428/529/273 602/529/273
f 586/399/38 713/673/38 605/418/38
f 436/723/39 432/540/39 604/724/39
f 437/262/40 609/422/40 652/613/40
f 438/544/41 442/796/41 613/726/41
f 439/562/38 612/425/38 705/658/38
f 445/268/40 448/271/40 616/728/40
f 448/271/40 493/308/40 651/637/40
f 451/274/40 618/729/40 621/642/40
f 451/274/40 499/314/40 655/612/40
f 492/307/40 452/275/40 621/642/40
f 589/402/38 456/560/38 623/657/38
f 573/386/38 703/655/38 623/657/38
f 582/395/38 709/756/38 625/430/38
f 462/284/39 460/547/39 624/731/39
f 533/346/40 463/556/40 629/732/40
f 468/549/41 470/290/41 633/692/41
f 600/413/38 469/289/38 630/435/38
f 473/554/40 542/355/40 682/735/40
f 474/293/39 636/696/39 639/737/39
f 477/566/38 583/396/38 711/739/38
f 479/555/40 641/446/40 666/618/40
f 482/299/41 486/553/41 645/741/41
f 601/414/38 483/569/38 644/743/38
f 489/304/40 555/368/40 690/631/40
f 492/307/40 648/730/40 651/637/40
f 498/313/40 652/613/40 655/612/40
f 577/390/38 707/759/38 657/745/38
f 504/564/38 657/745/38 719/746/38
f 546/359/40 507/321/40 659/747/40
f 530/343/40 674/753/40 659/747/40
f 510/558/38 570/383/38 701/749/38
f 592/405/38 510/558/38 661/750/38
f 512/325/40 516/329/40 664/616/40
f 512/325/40 663/615/40 692/635/40
f 522/335/40 669/644/40 664/616/40
f 518/331/40 666/618/40 669/644/40
f 525/338/38 670/678/38 713/673/38
f 589/402/38 715/677/38 670/678/38
f 528/341/38 672/752/38 711/739/38
f 592/405/38 717/751/38 672/752/38
f 537/350/40 679/754/40 674/753/40
f 537/350/40 533/346/40 676/733/40
f 597/410/38 719/746/38 680/755/38
f 582/395/38 539/352/38 680/755/38
f 542/355/40 547/360/40 687/757/40
f 546/359/40 684/748/40 687/757/40
f 552/365/38 600/413/38 721/684/38
f 577/390/38 552/365/38 688/758/38
f 555/368/40 559/372/40 695/634/40
f 559/372/40 558/371/40 692/635/40
f 563/376/38 696/653/38 703/655/38
f 563/376/38 574/387/38 705/658/38
f 566/379/38 698/760/38 701/749/38
f 601/414/38 723/744/38 698/760/38
f 608/761/44 606/592/44 712/762/44
f 704/764/44 611/596/44 615/428/44
f 697/373/44 704/764/44 617/597/44
f 671/765/44 714/767/44 619/599/44
f 714/767/44 622/769/44 620/768/44
f 622/769/44 702/773/44 649/610/44
f 628/433/44 626/603/44 708/668/44
f 720/687/44 632/605/44 635/440/44
f 638/443/44 710/672/44 667/770/44
f 722/688/44 643/448/44 647/771/44
f 702/773/44 697/373/44 650/608/44
f 653/763/44 712/762/44 671/765/44
f 718/681/44 656/665/44 658/647/44
f 656/665/44 706/663/44 685/628/44
f 716/679/44 660/652/44 662/774/44
f 660/652/44 700/651/44 693/776/44
f 668/777/44 673/671/44 716/679/44
f 667/770/44 710/672/44 673/671/44
f 681/667/44 718/681/44 675/620/44
f 677/625/44 708/668/44 681/667/44
f 686/646/44 689/662/44 720/687/44
f 685/628/44 706/663/44 689/662/44
f 694/778/44 699/650/44 722/688/44
f 693/776/44 700/651/44 699/650/44
usemtl piszki
f 725/821/143 726/822/143 724/823/143
f 725/821/143 727/824/143 726/822/143
