# Blender 5.1.2
# www.blender.org
mtllib piszki1.mtl
o Cube.046
v 0.228854 -0.406121 -0.095410
v 0.217972 -0.416774 -0.095384
v 0.218449 -0.371721 -0.095504
v 0.229103 -0.382603 -0.095472
v -0.235653 -0.411965 -0.095493
v -0.246306 -0.401083 -0.095524
v -0.246057 -0.377565 -0.095587
v -0.235175 -0.366912 -0.095613
v 0.218091 -0.406064 -0.116950
v 0.228856 -0.406149 -0.106178
v 0.217974 -0.416803 -0.106152
v 0.218452 -0.371750 -0.106272
v 0.229105 -0.382632 -0.106241
v 0.218340 -0.382547 -0.117012
v -0.235651 -0.411993 -0.106262
v -0.246305 -0.401111 -0.106293
v -0.235534 -0.401254 -0.117059
v -0.235173 -0.366940 -0.106381
v -0.235285 -0.377737 -0.117121
v -0.246055 -0.377594 -0.106356
v -0.198793 -0.401558 -0.084744
v -0.209670 -0.412269 -0.106256
v -0.188023 -0.401701 -0.095510
v -0.187773 -0.378183 -0.095573
v -0.209193 -0.367216 -0.106375
v -0.198544 -0.378040 -0.084807
v -0.198786 -0.401644 -0.117050
v -0.198902 -0.412383 -0.106253
v -0.198425 -0.367330 -0.106373
v -0.198537 -0.378127 -0.117112
v 0.196745 -0.416578 -0.106157
v 0.186087 -0.405639 -0.084652
v 0.175321 -0.405553 -0.095423
v 0.186343 -0.382207 -0.117020
v 0.186455 -0.371411 -0.106280
v 0.175571 -0.382036 -0.095485
v 0.186336 -0.382121 -0.084714
v 0.197223 -0.371525 -0.106277
v 0.186094 -0.405725 -0.116957
v 0.185977 -0.416464 -0.106160
v 0.196732 -0.416411 -0.043640
v 0.196844 -0.405615 -0.032900
v 0.186078 -0.405529 -0.043671
v 0.217961 -0.416636 -0.043634
v 0.228842 -0.405983 -0.043660
v 0.218073 -0.405840 -0.032895
v 0.229092 -0.382465 -0.043723
v 0.218439 -0.371584 -0.043754
v 0.218322 -0.382323 -0.032957
v -0.209206 -0.367049 -0.043858
v -0.209322 -0.377788 -0.033060
v -0.198552 -0.377931 -0.043826
v -0.235186 -0.366774 -0.043864
v -0.246068 -0.377428 -0.043838
v -0.235303 -0.377513 -0.033066
v -0.246318 -0.400945 -0.043775
v -0.235664 -0.411827 -0.043744
v -0.235552 -0.401030 -0.033004
v -0.209684 -0.412102 -0.043737
v -0.198802 -0.401449 -0.043764
v -0.209572 -0.401306 -0.032998
v 0.197210 -0.371358 -0.043759
v 0.186327 -0.382012 -0.043734
v 0.197093 -0.382098 -0.032962
v -0.008303 -0.870988 -0.066269
v -0.322595 -0.867656 -0.066345
v 0.305988 -0.874320 -0.066194
v 0.148842 -0.872654 -0.066232
v 0.463134 -0.875987 -0.066155
v -0.479740 -0.865990 -0.066383
v -0.165449 -0.869322 -0.066307
v 0.581862 -1.121499 0.606913
v 0.618120 -1.066041 0.606772
v 0.582450 -1.065610 0.626397
v 0.637805 0.790414 0.601830
v 0.602731 0.846629 0.601673
v 0.602134 0.790845 0.621455
v -0.603972 -1.108926 0.606627
v -0.603384 -1.053037 0.626111
v -0.639046 -1.052711 0.606470
v -0.583103 0.859202 0.601387
v -0.619361 0.803744 0.601528
v -0.583699 0.803418 0.621169
v 0.582597 -1.067454 -0.065620
v 0.618259 -1.067780 -0.045979
v 0.582001 -1.123238 -0.045838
v 0.602282 0.789001 -0.070562
v 0.602870 0.844890 -0.051078
v 0.637944 0.788675 -0.050921
v -0.603833 -1.110665 -0.046124
v -0.638907 -1.054451 -0.046282
v -0.603237 -1.054881 -0.065906
v -0.582964 0.857463 -0.051364
v -0.583552 0.801574 -0.070848
v -0.619223 0.802004 -0.051224
v -0.629777 -0.193395 -0.048574
v -0.593515 -0.137989 -0.068347
v -0.594107 -0.193825 -0.068198
v -0.594699 -0.249662 -0.068049
v -0.010916 -1.116952 -0.045982
v -0.010320 -1.061168 -0.065763
v 0.009953 0.851176 -0.051221
v 0.009365 0.795287 -0.070705
v 0.592319 -0.150562 -0.068061
v 0.627389 -0.206724 -0.048271
v 0.591135 -0.262235 -0.067764
v 0.591727 -0.206398 -0.067912
v -0.001190 -0.200112 -0.068055
v 0.034476 -0.200490 -0.068047
v -0.001782 -0.255948 -0.067906
v -0.598732 -0.630021 -0.067037
v -0.599324 -0.685857 -0.066888
v -0.599916 -0.741693 -0.066740
v -0.634995 -0.685427 -0.047264
v -0.325208 -1.113619 -0.046058
v -0.324611 -1.057835 -0.065839
v 0.324244 0.847844 -0.051145
v 0.323657 0.791955 -0.070629
v 0.587102 -0.642594 -0.066751
v 0.622172 -0.698756 -0.046961
v 0.585918 -0.754267 -0.066454
v 0.586510 -0.698430 -0.066603
v -0.588297 0.354043 -0.069656
v -0.588890 0.298207 -0.069508
v -0.589482 0.242370 -0.069359
v -0.624560 0.298637 -0.049884
v 0.303375 -1.120284 -0.045906
v 0.303972 -1.064500 -0.065687
v -0.304339 0.854509 -0.051297
v -0.304927 0.798620 -0.070781
v 0.597537 0.341470 -0.069371
v 0.632606 0.285308 -0.049581
v 0.596353 0.229797 -0.069073
v 0.596944 0.285634 -0.069222
v 0.277436 -0.203066 -0.067988
v 0.313102 -0.203444 -0.067979
v 0.312510 -0.259280 -0.067831
v -0.315481 -0.196779 -0.068131
v -0.279815 -0.197158 -0.068122
v -0.316073 -0.252616 -0.067982
v -0.006407 -0.692144 -0.066745
v 0.029259 -0.692522 -0.066737
v -0.006999 -0.747980 -0.066597
v 0.004028 0.291920 -0.069365
v 0.039694 0.291542 -0.069356
v 0.003435 0.236084 -0.069216
v -0.310264 0.295253 -0.069441
v -0.274598 0.294874 -0.069432
v -0.310856 0.239416 -0.069292
v -0.320699 -0.688811 -0.066821
v -0.285033 -0.689189 -0.066813
v -0.321290 -0.744648 -0.066672
v 0.272219 -0.695098 -0.066678
v 0.307885 -0.695476 -0.066669
v 0.307292 -0.751312 -0.066521
v 0.282653 0.288966 -0.069298
v 0.318319 0.288588 -0.069289
v 0.317727 0.232752 -0.069140
v -0.636890 -0.864271 -0.046788
v -0.601220 -0.864702 -0.066412
v -0.481757 -1.056169 -0.065876
v -0.482353 -1.111953 -0.046095
v 0.480802 0.790289 -0.070591
v 0.481390 0.846178 -0.051107
v 0.584614 -0.877275 -0.066126
v 0.620275 -0.877600 -0.046485
v -0.625744 0.186965 -0.049587
v -0.589482 0.242370 -0.069359
v -0.590074 0.186534 -0.069211
v -0.590666 0.130698 -0.069062
v 0.146826 -1.062834 -0.065725
v 0.146230 -1.118618 -0.045944
v -0.147781 0.796954 -0.070743
v -0.147193 0.852842 -0.051259
v 0.595168 0.118125 -0.068776
v 0.595760 0.173961 -0.068925
v 0.596353 0.229797 -0.069073
v 0.631422 0.173635 -0.049284
v 0.470247 -0.205110 -0.067942
v 0.469656 -0.260947 -0.067793
v 0.434581 -0.204732 -0.067950
v -0.122669 -0.198824 -0.068084
v -0.158928 -0.254282 -0.067945
v -0.158336 -0.198446 -0.068093
v 0.002812 0.180248 -0.069067
v 0.002843 0.180248 -0.069068
v 0.003435 0.236084 -0.069216
v -0.595883 -0.361334 -0.067752
v -0.630961 -0.305067 -0.048276
v -0.594699 -0.249662 -0.068049
v -0.595291 -0.305498 -0.067901
v -0.167466 -1.059501 -0.065801
v -0.168062 -1.115286 -0.046020
v 0.166511 0.793621 -0.070667
v 0.167098 0.849510 -0.051183
v 0.626205 -0.318397 -0.047974
v 0.589951 -0.373907 -0.067466
v 0.590543 -0.318071 -0.067615
v 0.591135 -0.262235 -0.067764
v -0.585448 0.622730 -0.070372
v -0.620527 0.678996 -0.050896
v -0.584264 0.734402 -0.070669
v -0.584857 0.678566 -0.070520
v 0.461118 -1.066166 -0.065649
v 0.460521 -1.121950 -0.045868
v -0.462073 0.800286 -0.070818
v -0.461484 0.856175 -0.051334
v 0.600386 0.610157 -0.070086
v 0.600977 0.665993 -0.070235
v 0.601570 0.721829 -0.070383
v 0.636640 0.665667 -0.050593
v 0.155956 -0.201778 -0.068017
v 0.155364 -0.257614 -0.067869
v 0.124992 -0.201450 -0.068025
v -0.436961 -0.195491 -0.068160
v -0.473219 -0.250950 -0.068020
v -0.472627 -0.195113 -0.068169
v -0.002405 -0.311784 -0.067758
v -0.002374 -0.311785 -0.067758
v -0.001782 -0.255948 -0.067906
v 0.008029 0.672280 -0.070377
v 0.008061 0.672279 -0.070377
v 0.008652 0.728116 -0.070526
v -0.117452 0.293208 -0.069395
v -0.153711 0.237750 -0.069254
v -0.153118 0.293586 -0.069403
v -0.431744 0.296541 -0.069470
v -0.468002 0.241082 -0.069330
v -0.467410 0.296919 -0.069479
v -0.311448 0.183580 -0.069143
v -0.310856 0.239416 -0.069292
v -0.275782 0.183202 -0.069135
v -0.306231 0.675612 -0.070453
v -0.305639 0.731448 -0.070602
v -0.270565 0.675234 -0.070445
v -0.164145 -0.746314 -0.066635
v -0.163553 -0.690477 -0.066783
v -0.127887 -0.690856 -0.066775
v -0.478436 -0.742981 -0.066710
v -0.477845 -0.687145 -0.066859
v -0.442178 -0.687523 -0.066850
v -0.316666 -0.308452 -0.067834
v -0.316073 -0.252616 -0.067982
v -0.280999 -0.308830 -0.067825
v 0.429364 -0.696764 -0.066640
v 0.465030 -0.697142 -0.066632
v 0.464438 -0.752979 -0.066483
v 0.150739 -0.693810 -0.066708
v 0.150147 -0.749646 -0.066559
v 0.119775 -0.693482 -0.066715
v 0.276252 -0.314739 -0.067691
v 0.312510 -0.259280 -0.067831
v 0.311918 -0.315117 -0.067682
v 0.475465 0.286922 -0.069252
v 0.474873 0.231085 -0.069103
v 0.439799 0.287300 -0.069260
v 0.161173 0.290254 -0.069327
v 0.160581 0.234418 -0.069179
v 0.130210 0.290582 -0.069335
v 0.317135 0.176915 -0.068992
v 0.281469 0.177293 -0.069000
v 0.317727 0.232752 -0.069140
v 0.286686 0.669325 -0.070310
v 0.322944 0.724783 -0.070450
v 0.322352 0.668947 -0.070302
v 0.165207 0.670613 -0.070340
v 0.129540 0.670991 -0.070348
v 0.165798 0.726450 -0.070488
v 0.124323 0.178960 -0.069038
v 0.160581 0.234418 -0.069179
v 0.159989 0.178581 -0.069030
v 0.474281 0.175249 -0.068954
v 0.438614 0.175627 -0.068963
v 0.474873 0.231085 -0.069103
v 0.154772 -0.313451 -0.067720
v 0.119106 -0.313073 -0.067729
v 0.155364 -0.257614 -0.067869
v -0.438145 -0.307164 -0.067863
v -0.473812 -0.306786 -0.067872
v -0.473219 -0.250950 -0.068020
v -0.427711 0.676900 -0.070483
v -0.463377 0.677278 -0.070491
v -0.462785 0.733114 -0.070640
v -0.432928 0.184868 -0.069173
v -0.468594 0.185246 -0.069181
v -0.468002 0.241082 -0.069330
v -0.123339 0.181585 -0.069098
v -0.154302 0.181914 -0.069106
v -0.153711 0.237750 -0.069254
v -0.118122 0.673617 -0.070408
v -0.149085 0.673946 -0.070415
v -0.148493 0.729782 -0.070564
v -0.159520 -0.310118 -0.067796
v -0.158928 -0.254282 -0.067945
v -0.128556 -0.310447 -0.067788
v 0.433398 -0.316405 -0.067653
v 0.469656 -0.260947 -0.067793
v 0.469064 -0.316783 -0.067644
v 0.479498 0.667281 -0.070264
v 0.443832 0.667659 -0.070272
v 0.480090 0.723117 -0.070413
v -0.501760 0.185598 -0.069190
v -0.466098 0.185272 -0.049548
v -0.502357 0.129814 -0.049408
v -0.538019 0.130140 -0.069049
v -0.505794 -0.194762 -0.068177
v -0.540868 -0.138547 -0.068334
v -0.505206 -0.138873 -0.048693
v -0.470131 -0.195087 -0.048535
v 0.506851 0.119113 -0.049165
v 0.471777 0.175328 -0.049322
v 0.507447 0.174897 -0.068946
v 0.542521 0.118683 -0.068789
v 0.504002 -0.149573 -0.048450
v 0.539672 -0.150004 -0.068073
v 0.503414 -0.205462 -0.067934
v 0.467744 -0.205032 -0.048309
v 0.412930 -0.204503 -0.067955
v 0.377263 -0.204124 -0.067964
v 0.377259 -0.204072 -0.048331
v -0.127341 -0.198774 -0.068086
v -0.163007 -0.198396 -0.068094
v -0.127345 -0.198722 -0.048453
v -0.001194 -0.200059 -0.048422
v -0.001190 -0.200112 -0.068055
v -0.036856 -0.199734 -0.068064
v 0.002843 0.180248 -0.069068
v 0.002839 0.180300 -0.049435
v 0.002875 0.180247 -0.069067
v -0.506978 -0.306434 -0.067880
v -0.471316 -0.306760 -0.048238
v -0.507574 -0.362218 -0.048098
v -0.543236 -0.361892 -0.067739
v -0.510423 -0.630905 -0.047383
v -0.475349 -0.687119 -0.047226
v -0.511011 -0.686793 -0.066867
v -0.546085 -0.630579 -0.067024
v 0.502230 -0.317135 -0.067636
v 0.537304 -0.373349 -0.067479
v 0.501634 -0.372919 -0.047855
v 0.466560 -0.316704 -0.048012
v 0.498785 -0.641605 -0.047140
v 0.534455 -0.642036 -0.066764
v 0.498197 -0.697494 -0.066624
v 0.462527 -0.697063 -0.046999
v -0.497140 0.621845 -0.050718
v -0.532802 0.622171 -0.070359
v -0.496543 0.677630 -0.070499
v -0.460881 0.677304 -0.050858
v -0.499989 0.353159 -0.050003
v -0.464915 0.296945 -0.049845
v -0.500576 0.297270 -0.069487
v -0.535651 0.353485 -0.069644
v 0.512068 0.611145 -0.050475
v 0.476994 0.667360 -0.050632
v 0.512665 0.666929 -0.070256
v 0.547738 0.610715 -0.070099
v 0.509219 0.342459 -0.049759
v 0.544889 0.342028 -0.069383
v 0.508631 0.286570 -0.069243
v 0.472961 0.287001 -0.049619
v 0.155924 -0.201778 -0.068017
v 0.124961 -0.201449 -0.068025
v 0.124957 -0.201397 -0.048392
v 0.251108 -0.202735 -0.048362
v 0.286778 -0.203165 -0.067986
v 0.251112 -0.202787 -0.067994
v -0.379643 -0.196099 -0.068146
v -0.415309 -0.195721 -0.068155
v -0.379647 -0.196047 -0.048514
v -0.253496 -0.197384 -0.048483
v -0.253492 -0.197437 -0.068116
v -0.289158 -0.197058 -0.068125
v -0.002342 -0.311785 -0.067758
v -0.002374 -0.311785 -0.067758
v -0.002378 -0.311732 -0.048125
v -0.006407 -0.692144 -0.066745
v -0.042073 -0.691765 -0.066754
v -0.006411 -0.692091 -0.047112
v 0.008092 0.672279 -0.070378
v 0.008061 0.672279 -0.070377
v 0.008057 0.672332 -0.050745
v -0.031639 0.292298 -0.069374
v 0.004023 0.291973 -0.049732
v 0.004028 0.291920 -0.069365
v -0.122124 0.293258 -0.069396
v -0.157789 0.293636 -0.069404
v -0.122128 0.293310 -0.049763
v -0.410092 0.296311 -0.069465
v -0.374430 0.295985 -0.049824
v -0.374425 0.295933 -0.069456
v -0.248275 0.294595 -0.069426
v -0.283941 0.294973 -0.069434
v -0.248279 0.294648 -0.049793
v -0.285125 0.183301 -0.069137
v -0.249459 0.182923 -0.069129
v -0.249463 0.182975 -0.049496
v -0.279908 0.675333 -0.070447
v -0.244241 0.674955 -0.070438
v -0.244246 0.675007 -0.050806
v -0.168224 -0.690428 -0.066784
v -0.132562 -0.690754 -0.047143
v -0.132558 -0.690806 -0.066776
v -0.420526 -0.687753 -0.066845
v -0.384864 -0.688079 -0.047204
v -0.384860 -0.688131 -0.066836
v -0.258709 -0.689469 -0.066806
v -0.294375 -0.689090 -0.066815
v -0.258713 -0.689416 -0.047174
v -0.254676 -0.309109 -0.067819
v -0.254680 -0.309057 -0.048186
v -0.290342 -0.308731 -0.067827
v 0.372046 -0.696156 -0.066654
v 0.372041 -0.696104 -0.047021
v 0.407712 -0.696534 -0.066646
v 0.150708 -0.693809 -0.066708
v 0.119744 -0.693481 -0.066715
v 0.119740 -0.693429 -0.047082
v 0.245891 -0.694766 -0.047052
v 0.281561 -0.695197 -0.066676
v 0.245895 -0.694819 -0.066684
v 0.249928 -0.314460 -0.067697
v 0.285594 -0.314838 -0.067688
v 0.249924 -0.314407 -0.048064
v 0.418146 0.287529 -0.069265
v 0.382481 0.287908 -0.069274
v 0.382476 0.287960 -0.049641
v 0.161142 0.290254 -0.069327
v 0.130178 0.290583 -0.069335
v 0.130174 0.290635 -0.049702
v 0.256325 0.289297 -0.049671
v 0.291995 0.288867 -0.069295
v 0.256329 0.289245 -0.069304
v 0.290811 0.177194 -0.068998
v 0.255141 0.177625 -0.049374
v 0.255145 0.177572 -0.069007
v 0.296028 0.669226 -0.070308
v 0.260358 0.669657 -0.050684
v 0.260362 0.669604 -0.070317
v 0.134211 0.670942 -0.070347
v 0.169878 0.670564 -0.070338
v 0.134207 0.670994 -0.050714
v 0.128994 0.178910 -0.069037
v 0.164660 0.178532 -0.069029
v 0.128990 0.178962 -0.049405
v 0.381292 0.176287 -0.049344
v 0.381296 0.176235 -0.068976
v 0.416963 0.175857 -0.068968
v 0.123773 -0.313070 -0.048095
v 0.123777 -0.313122 -0.067728
v 0.159443 -0.313500 -0.067719
v -0.416493 -0.307394 -0.067858
v -0.380827 -0.307772 -0.067849
v -0.380831 -0.307720 -0.048216
v -0.370396 0.676344 -0.050836
v -0.406059 0.676670 -0.070477
v -0.370392 0.676292 -0.070469
v -0.375614 0.184313 -0.049526
v -0.411276 0.184638 -0.069168
v -0.375610 0.184260 -0.069159
v -0.123312 0.181637 -0.049465
v -0.154271 0.181913 -0.069106
v -0.123308 0.181585 -0.069098
v -0.118095 0.673669 -0.050775
v -0.149054 0.673945 -0.070415
v -0.118091 0.673617 -0.070408
v -0.159488 -0.310119 -0.067796
v -0.128525 -0.310447 -0.067788
v -0.128529 -0.310395 -0.048156
v 0.376079 -0.315797 -0.067667
v 0.411745 -0.316175 -0.067658
v 0.376075 -0.315745 -0.048034
v 0.386509 0.668319 -0.050653
v 0.386513 0.668267 -0.070286
v 0.422179 0.667889 -0.070278
v -0.502425 0.130661 0.268779
v -0.466166 0.186120 0.268639
v -0.466763 0.130336 0.288420
v -0.505274 -0.138025 0.269495
v -0.469611 -0.138351 0.289136
v -0.470199 -0.194240 0.269652
v 0.506783 0.119961 0.269022
v 0.471113 0.120392 0.288647
v 0.471709 0.176176 0.268865
v 0.503934 -0.148726 0.269738
v 0.467676 -0.204184 0.269878
v 0.468264 -0.148295 0.289362
v 0.377191 -0.203224 0.269856
v 0.377779 -0.147336 0.289340
v -0.127412 -0.197874 0.269734
v -0.126825 -0.141986 0.289218
v -0.000674 -0.143323 0.289249
v -0.001262 -0.199212 0.269764
v 0.002175 0.125364 0.288534
v 0.002771 0.181148 0.268752
v -0.507642 -0.361371 0.270089
v -0.471383 -0.305912 0.269949
v -0.471980 -0.361696 0.289731
v -0.510491 -0.630057 0.270804
v -0.474829 -0.630383 0.290445
v -0.475416 -0.686271 0.270962
v 0.466492 -0.315856 0.270175
v 0.501566 -0.372071 0.270332
v 0.465895 -0.371640 0.289957
v 0.498717 -0.640757 0.271048
v 0.462459 -0.696216 0.271188
v 0.463047 -0.640327 0.290671
v -0.497207 0.622693 0.267469
v -0.460949 0.678152 0.267329
v -0.461545 0.622367 0.287111
v -0.500056 0.354007 0.268185
v -0.464394 0.353681 0.287826
v -0.464982 0.297792 0.268342
v 0.512000 0.611993 0.267713
v 0.476330 0.612423 0.287337
v 0.476926 0.668207 0.267555
v 0.509151 0.343307 0.268428
v 0.472893 0.287848 0.268568
v 0.473481 0.343737 0.288052
v 0.124889 -0.200549 0.269795
v 0.125477 -0.144661 0.289279
v 0.251628 -0.145998 0.289310
v 0.251040 -0.201887 0.269825
v -0.379715 -0.195199 0.269673
v -0.379127 -0.139310 0.289157
v -0.252976 -0.140648 0.289188
v -0.253564 -0.196537 0.269704
v -0.003042 -0.366668 0.289843
v -0.002446 -0.310884 0.270062
v -0.005891 -0.635355 0.290559
v -0.006479 -0.691244 0.271074
v 0.007392 0.617395 0.287224
v 0.007989 0.673180 0.267442
v 0.004543 0.348709 0.287939
v 0.003956 0.292820 0.268455
v -0.122195 0.294158 0.268425
v -0.121607 0.350047 0.287909
v -0.374497 0.296833 0.268364
v -0.373910 0.352722 0.287848
v -0.247758 0.351384 0.287878
v -0.248347 0.295495 0.268394
v -0.249531 0.183823 0.268692
v -0.250127 0.128039 0.288473
v -0.244313 0.675855 0.267382
v -0.244909 0.620070 0.287163
v -0.132630 -0.689906 0.271044
v -0.132042 -0.634017 0.290528
v -0.384932 -0.687231 0.270983
v -0.384344 -0.631342 0.290467
v -0.258193 -0.632680 0.290498
v -0.258781 -0.688568 0.271014
v -0.254748 -0.308209 0.270001
v -0.255344 -0.363993 0.289783
v 0.371974 -0.695256 0.271166
v 0.372562 -0.639368 0.290650
v 0.119672 -0.692581 0.271105
v 0.120260 -0.636692 0.290589
v 0.246411 -0.638030 0.290619
v 0.245823 -0.693919 0.271135
v 0.249856 -0.313559 0.270123
v 0.249260 -0.369344 0.289904
v 0.382409 0.288808 0.268546
v 0.382996 0.344696 0.288030
v 0.130106 0.291483 0.268485
v 0.130694 0.347371 0.287969
v 0.256845 0.346034 0.288000
v 0.256257 0.290145 0.268516
v 0.255073 0.178473 0.268813
v 0.254477 0.122689 0.288594
v 0.260290 0.670504 0.267503
v 0.259694 0.614720 0.287284
v 0.133543 0.616058 0.287254
v 0.134140 0.671842 0.267473
v 0.128326 0.124026 0.288564
v 0.128922 0.179810 0.268783
v 0.380628 0.121351 0.288625
v 0.381225 0.177135 0.268844
v 0.123109 -0.368006 0.289874
v 0.123705 -0.312222 0.270092
v -0.381495 -0.362656 0.289752
v -0.380899 -0.306872 0.269971
v -0.371061 0.621408 0.287132
v -0.370464 0.677192 0.267351
v -0.376278 0.129376 0.288443
v -0.375681 0.185160 0.268661
v -0.123976 0.126701 0.288503
v -0.123379 0.182485 0.268722
v -0.118758 0.618733 0.287193
v -0.118163 0.674517 0.267412
v -0.129193 -0.365331 0.289813
v -0.128597 -0.309547 0.270031
v 0.375411 -0.370681 0.289935
v 0.376007 -0.314897 0.270153
v 0.385845 0.613383 0.287315
v 0.386441 0.669167 0.267534
v 0.234307 0.108157 -0.096778
v 0.223425 0.097504 -0.096752
v 0.223902 0.142557 -0.096872
v 0.234556 0.131675 -0.096841
v -0.230200 0.102313 -0.096861
v -0.240853 0.113195 -0.096893
v -0.240604 0.136713 -0.096955
v -0.229722 0.147366 -0.096982
v 0.223544 0.108214 -0.118318
v 0.234309 0.108129 -0.107547
v 0.223427 0.097475 -0.107521
v 0.223905 0.142528 -0.107641
v 0.234558 0.131646 -0.107609
v 0.223793 0.131731 -0.118381
v -0.230198 0.102285 -0.107630
v -0.240852 0.113167 -0.107661
v -0.230081 0.113024 -0.118427
v -0.229720 0.147338 -0.107750
v -0.229832 0.136541 -0.118490
v -0.240602 0.136684 -0.107724
v -0.193340 0.112720 -0.086113
v -0.204217 0.102009 -0.107624
v -0.182570 0.112577 -0.096879
v -0.182320 0.136095 -0.096941
v -0.203740 0.147062 -0.107744
v -0.193091 0.136238 -0.086176
v -0.193333 0.112634 -0.118418
v -0.193449 0.101895 -0.107621
v -0.192972 0.146948 -0.107741
v -0.193084 0.136151 -0.118481
v 0.202198 0.097700 -0.107526
v 0.191540 0.108639 -0.086020
v 0.180774 0.108725 -0.096791
v 0.191796 0.132071 -0.118388
v 0.191908 0.142867 -0.107648
v 0.181024 0.132242 -0.096854
v 0.191789 0.132157 -0.086083
v 0.202676 0.142753 -0.107646
v 0.191547 0.108553 -0.118326
v 0.191430 0.097814 -0.107528
v 0.202185 0.097867 -0.045008
v 0.202297 0.108663 -0.034268
v 0.191531 0.108749 -0.045039
v 0.223414 0.097642 -0.045003
v 0.234295 0.108295 -0.045029
v 0.223526 0.108438 -0.034263
v 0.234545 0.131812 -0.045092
v 0.223892 0.142694 -0.045123
v 0.223775 0.131955 -0.034326
v -0.203753 0.147229 -0.045226
v -0.203869 0.136490 -0.034429
v -0.193099 0.136347 -0.045195
v -0.229733 0.147504 -0.045232
v -0.240615 0.136850 -0.045206
v -0.229850 0.136765 -0.034435
v -0.240865 0.113333 -0.045144
v -0.230211 0.102451 -0.045112
v -0.230099 0.113248 -0.034372
v -0.204231 0.102176 -0.045106
v -0.193349 0.112829 -0.045132
v -0.204119 0.112972 -0.034366
v 0.202663 0.142920 -0.045128
v 0.191780 0.132266 -0.045102
v 0.202546 0.132180 -0.034331
v 0.239412 0.589664 -0.098061
v 0.228530 0.579010 -0.098035
v 0.229008 0.624063 -0.098155
v 0.239661 0.613181 -0.098124
v -0.225094 0.583820 -0.098144
v -0.235748 0.594702 -0.098176
v -0.235499 0.618219 -0.098238
v -0.224617 0.628873 -0.098264
v 0.228649 0.589721 -0.119601
v 0.239415 0.589635 -0.108829
v 0.228532 0.578982 -0.108803
v 0.229010 0.624035 -0.108923
v 0.239664 0.613153 -0.108892
v 0.228898 0.613238 -0.119663
v -0.225093 0.583791 -0.108913
v -0.235746 0.594673 -0.108944
v -0.224976 0.594530 -0.119710
v -0.224615 0.628844 -0.109033
v -0.224726 0.618048 -0.119772
v -0.235496 0.618191 -0.109007
v -0.188235 0.594227 -0.087396
v -0.199112 0.583516 -0.108907
v -0.177464 0.594084 -0.098162
v -0.177215 0.617601 -0.098224
v -0.198634 0.628569 -0.109026
v -0.187985 0.617744 -0.087459
v -0.188228 0.594141 -0.119701
v -0.188344 0.583402 -0.108904
v -0.187867 0.628455 -0.109024
v -0.187979 0.617658 -0.119763
v 0.207304 0.579207 -0.108809
v 0.196645 0.590146 -0.087303
v 0.185880 0.590232 -0.098074
v 0.196901 0.613577 -0.119671
v 0.197013 0.624374 -0.108931
v 0.186129 0.613749 -0.098136
v 0.196895 0.613663 -0.087366
v 0.207781 0.624260 -0.108929
v 0.196652 0.590060 -0.119608
v 0.196536 0.579321 -0.108811
v 0.207290 0.579373 -0.046291
v 0.207402 0.590170 -0.035551
v 0.196637 0.590255 -0.046322
v 0.228519 0.579148 -0.046286
v 0.239401 0.589802 -0.046311
v 0.228631 0.589945 -0.035546
v 0.239651 0.613319 -0.046374
v 0.228997 0.624201 -0.046405
v 0.228880 0.613462 -0.035608
v -0.198648 0.628735 -0.046509
v -0.198764 0.617996 -0.035711
v -0.187994 0.617853 -0.046477
v -0.224628 0.629011 -0.046515
v -0.235510 0.618357 -0.046489
v -0.224744 0.618272 -0.035717
v -0.235759 0.594840 -0.046426
v -0.225106 0.583958 -0.046395
v -0.224994 0.594754 -0.035655
v -0.199125 0.583682 -0.046389
v -0.188243 0.594336 -0.046415
v -0.199013 0.594479 -0.035649
v 0.207768 0.624426 -0.046411
v 0.196886 0.613773 -0.046385
v 0.207651 0.613687 -0.035614
v 0.593953 -0.886844 0.032214
v -0.524117 -0.886844 0.032214
v 0.593953 0.681182 0.032214
v -0.524117 0.681182 0.032215
vn 0.5713 -0.5850 -0.5757
vn 0.5836 0.5697 -0.5787
vn -0.5833 -0.5727 -0.5760
vn -0.5711 0.5819 -0.5790
vn 0.2918 -0.9069 0.3040
vn 0.3110 0.9021 0.2992
vn -0.3112 -0.9005 0.3039
vn -0.2920 0.9085 0.2990
vn -0.5835 -0.5697 0.5787
vn 0.5711 -0.5819 0.5790
vn 0.5833 0.5727 0.5760
vn 0.5833 0.5728 0.5759
vn -0.5713 0.5850 0.5757
vn -0.5836 -0.5697 0.5787
vn -0.7145 -0.6996 0.0017
vn -0.6996 0.7145 -0.0021
vn -0.7069 0.0056 -0.7073
vn -0.0073 -0.7089 -0.7052
vn 0.0076 0.7052 -0.7090
vn 0.7072 -0.0094 -0.7069
vn 0.6996 -0.7145 0.0020
vn 0.7145 0.6996 -0.0017
vn 0.0073 0.7090 0.7052
vn -0.0073 -0.7090 -0.7052
vn 0.0077 0.7052 -0.7090
vn 0.7069 -0.0056 0.7073
vn -0.0076 -0.7052 0.7090
vn -0.7072 0.0094 0.7069
vn -0.0077 -0.7052 0.7090
vn 0.0073 0.7089 0.7052
vn 0.6996 -0.7146 0.0021
vn -0.7146 -0.6996 0.0017
vn 0.7146 0.6996 -0.0017
vn -0.6996 0.7146 -0.0021
vn -0.6996 0.7146 -0.0020
vn -0.0106 -0.9999 0.0027
vn 0.9999 -0.0106 0.0002
vn 0.9999 -0.0106 0.0003
vn 0.0106 0.9999 -0.0027
vn -0.9999 0.0106 -0.0002
vn 0.0386 -0.0000 -0.9993
vn 0.0002 -0.0027 -1.0000
vn 0.0060 -0.9964 -0.0846
vn -0.0002 0.0027 1.0000
vn -0.0075 -0.9962 -0.0862
vn -0.0002 0.0026 1.0000
vn 0.6996 -0.7145 0.0021
vn 0.7146 0.6995 -0.0017
vn 0.0074 0.7089 0.7052
vn 0.0707 -0.0000 -0.9975
vn -0.9999 0.0106 -0.0003
vn 0.0022 0.9998 -0.0205
vn 0.0037 0.9979 -0.0643
vn 0.0002 -0.0026 -1.0000
vn 0.4575 -0.2970 0.8381
vn 0.4638 0.2917 0.8366
vn -0.4641 -0.2872 0.8379
vn -0.4579 0.3015 0.8363
vn 0.4579 -0.3015 -0.8363
vn 0.4641 0.2872 -0.8379
vn -0.4638 -0.2917 -0.8366
vn -0.4575 0.2970 -0.8381
vn -0.4820 0.0028 -0.8762
vn 0.4824 -0.0074 -0.8759
vn 0.4824 -0.0075 -0.8759
vn 0.0154 0.0024 0.9999
vn -0.0000 0.0029 1.0000
vn -0.0000 0.0026 1.0000
vn 0.0120 0.9999 -0.0027
vn -0.0000 1.0000 -0.0027
vn -0.0037 -0.3292 0.9443
vn 0.4820 -0.0028 0.8762
vn 0.0033 0.3342 0.9425
vn -0.4824 0.0074 0.8759
vn -0.8484 -0.5293 0.0012
vn -0.8370 0.5472 -0.0016
vn -0.0033 -0.3342 -0.9425
vn 0.0037 0.3292 -0.9443
vn 0.8370 -0.5472 0.0016
vn 0.8484 0.5293 -0.0012
vn 0.0037 0.3291 -0.9443
vn -0.0002 -0.9998 -0.0215
vn 0.0084 -0.9706 0.2407
vn 0.0043 0.9920 0.1259
vn 0.0002 -0.9993 -0.0371
vn -0.0327 -0.0000 0.9995
vn -0.0023 -0.9999 -0.0151
vn -0.0000 1.0000 -0.0000
vn 0.0035 -0.9999 -0.0141
vn -0.0116 0.9495 -0.3134
vn 0.2394 -0.0000 -0.9709
vn 0.0010 -0.9365 0.3506
vn -0.0002 0.9996 -0.0273
vn 0.0002 0.9999 0.0137
vn 0.0043 0.9998 -0.0176
vn 0.0002 -0.9961 -0.0880
vn -0.0009 -0.9996 0.0273
vn 0.0005 0.9815 0.1913
vn 0.6618 -0.0000 -0.7497
vn 0.0002 0.9984 0.0561
vn -0.0002 0.9995 0.0312
vn 0.0004 0.9975 -0.0706
vn 0.0002 -0.9997 0.0234
vn -0.0104 -0.9999 -0.0133
vn 0.0002 0.9997 0.0254
vn -0.0085 -0.0000 -1.0000
vn 0.0002 -0.9542 0.2993
vn 0.0001 0.9998 0.0176
vn 0.1287 -0.0000 0.9917
vn -0.0002 0.9963 0.0861
vn -0.0103 -0.9868 0.1619
vn 0.0058 0.9998 -0.0208
vn 0.0034 0.9994 0.0342
vn -0.0002 -0.9997 -0.0229
vn 0.0005 -0.9840 -0.1783
vn -0.0027 -0.9983 -0.0585
vn -0.0018 -1.0000 0.0059
vn 0.0002 -0.9990 -0.0440
vn -0.1007 -0.0000 -0.9949
vn 0.0005 -0.0000 -1.0000
vn 0.0007 0.9995 0.0312
vn -0.0004 -0.9999 0.0164
vn -0.0000 -0.0000 -1.0000
vn 0.0025 -0.0000 1.0000
vn 0.2425 -0.0000 -0.9701
vn 0.1010 -0.0000 0.9949
vn -0.0010 -0.9865 0.1638
vn 0.0007 1.0000 -0.0000
vn 0.0909 -0.0000 -0.9959
vn 0.0135 0.9998 0.0117
vn -0.0007 0.9998 -0.0205
vn -0.0048 1.0000 -0.0059
vn 0.0041 0.9972 -0.0740
vn 0.0036 -0.0000 -1.0000
vn 0.1544 -0.0000 0.9880
vn 0.0004 -0.0000 -1.0000
vn -0.0000 -0.0000 1.0000
vn 0.0830 -0.0000 -0.9965
vn -0.0052 -0.9962 0.0866
vn -0.0205 -0.0000 0.9998
vn 0.0029 1.0000 -0.0068
vn 0.0090 0.9971 -0.0759
vn -0.0038 -1.0000 0.0059
vn -0.0060 -0.9966 0.0818
vn -0.3118 -0.0000 0.9502
vn 0.0018 1.0000 0.0032
vn -0.0882 -0.0000 -0.9961
vn 0.0045 0.9997 -0.0226
vn 0.0024 -0.0000 -1.0000
vn 0.0035 -0.9993 0.0385
vn -0.0256 -0.0000 0.9997
vn 0.0540 -0.0000 0.9985
vn -0.0011 -0.9999 -0.0117
vn 0.0039 -0.0000 -1.0000
vn 0.0018 -0.0000 1.0000
vn 0.0008 -0.1922 -0.9814
vn 0.0022 -0.0000 -1.0000
vn 0.0024 -0.9878 -0.1560
vn 0.0025 -0.9992 0.0410
vn 0.0461 -0.0000 0.9989
vn 0.0005 -1.0000 0.0083
vn 0.0361 -0.0000 -0.9993
vn -0.0509 -0.0000 0.9987
vn -0.0029 -0.9992 0.0390
vn 0.4397 -0.0000 -0.8981
vn 0.0383 -0.0000 0.9993
vn 0.0341 -0.0000 0.9994
vn -0.0050 0.9953 -0.0972
vn 0.0048 0.9987 -0.0507
vn -0.0037 -0.3291 0.9443
vn -0.0004 0.9992 -0.0410
vn 0.0351 -0.0000 -0.9994
vn 0.0346 -0.0000 0.9994
vn 0.0005 0.9978 -0.0663
vn -0.0023 -0.9999 -0.0154
vn 0.2166 -0.0000 -0.9763
vn 0.0022 0.9966 -0.0818
vn 0.2362 -0.0000 -0.9717
vn 0.0017 -0.0000 1.0000
vn -0.0002 -0.9996 -0.0273
vn 0.0017 1.0000 -0.0078
vn 0.0043 0.9998 -0.0171
vn 0.0002 0.9951 0.0984
vn -0.0009 0.9994 -0.0351
vn 0.0985 -0.0000 0.9951
vn -0.1317 -0.0000 0.9913
vn -0.0042 -0.9983 0.0585
vn 0.0002 -0.9994 -0.0351
vn -0.3664 -0.0000 -0.9305
vn 0.0001 -0.9998 0.0189
vn -0.0005 0.9991 -0.0429
vn 0.0006 -0.0000 1.0000
vn 0.0018 0.9998 0.0176
vn 0.1428 -0.0000 0.9898
vn -0.0021 -0.0000 1.0000
vn 0.0013 0.9982 -0.0595
vn 0.3425 -0.0000 -0.9395
vn 0.0018 -0.9998 -0.0195
vn -0.0002 0.9998 -0.0222
vn 0.0045 -0.0000 -1.0000
vn -0.0714 -0.0000 -0.9974
vn -0.1311 -0.0000 -0.9914
vn 0.0025 -0.0000 -1.0000
vn -0.0280 -0.0000 -0.9996
vn 0.2707 -0.0000 0.9627
vn -0.0048 1.0000 -0.0000
vn 0.0010 -0.9976 -0.0692
vn 0.0067 0.9992 -0.0385
vn 0.0682 -0.0000 0.9977
vn -0.0004 0.9964 0.0851
vn 0.0701 -0.0000 0.9975
vn -0.0070 0.9987 0.0507
vn 0.0008 -0.0000 -1.0000
vn -0.0046 -0.9995 -0.0323
vn 0.0011 1.0000 0.0085
vn -0.1292 -0.0000 0.9916
vn 0.0009 -0.9981 0.0614
vn 0.0306 -0.0000 -0.9995
vn 0.0021 0.9339 -0.3575
vn 0.0024 -0.9990 -0.0454
vn 0.0047 0.9997 -0.0256
vn 0.2044 -0.0000 0.9789
vn -0.0023 0.9993 0.0361
vn 0.0024 -0.0000 1.0000
vn 0.0015 0.9985 0.0553
vn 0.0008 -0.0000 1.0000
vn 0.0023 0.9966 0.0827
vn 0.0011 -0.9999 0.0151
vn -0.0035 1.0000 -0.0000
vn 0.0019 -0.9977 -0.0682
vn -0.0041 -0.9968 0.0794
vn 0.0684 -0.0000 0.9977
vn -0.0018 -0.9993 0.0371
vn 0.0010 -1.0000 0.0083
vn -0.0585 -0.0000 -0.9983
vn 0.0208 0.9995 0.0254
vn -0.0125 0.9955 0.0934
vn 0.0018 -0.9977 -0.0682
vn 0.0321 -0.8126 0.5820
vn 0.0028 -0.0000 -1.0000
vn 0.0030 0.9986 0.0527
vn 0.0049 0.3234 -0.9462
vn 0.0086 0.9858 0.1675
vn 0.0001 0.9983 0.0574
vn -0.0048 -0.9984 0.0556
vn -0.1675 -0.0000 0.9859
vn -0.0023 0.9982 -0.0604
vn 0.0023 0.9975 0.0701
vn 0.0352 -0.0000 0.9994
vn 0.0058 0.9964 -0.0847
vn 0.0021 0.9992 -0.0410
vn -0.3111 -0.9005 0.3038
vn -0.2919 0.9085 0.2990
vn -0.0073 -0.7089 -0.7053
vn 0.0074 0.7090 0.7052
vn 0.0064 0.9512 0.3084
vn 0.0806 -0.0000 0.9968
vn -0.0043 -0.9981 0.0610
vn -0.0077 -0.7052 0.7089
vn 0.0379 -0.0000 0.9993
vn 0.0021 0.9969 0.0791
vn 0.0036 0.9908 0.1355
vn 0.5835 0.5697 -0.5787
vn -0.0074 -0.7089 -0.7052
vn 0.0065 0.9520 0.3059
vn 0.0202 -0.6566 0.7540
vn -0.0036 -0.9987 0.0502
vn 0.0021 -0.9984 0.0565
vn 0.0044 0.9985 0.0546
vn 0.0268 -0.0000 0.9996
vt 0.419813 0.744335
vt 0.342375 0.812500
vt 0.250000 0.744335
vt 0.687500 0.809667
vt 0.565249 0.875000
vt 0.565249 0.745751
vt 0.250000 0.505665
vt 0.342375 0.437500
vt 0.419813 0.505665
vt 0.687500 0.440333
vt 0.565249 0.504249
vt 0.565249 0.375000
vt 0.125000 0.525000
vt 0.187500 0.519335
vt 0.125000 0.527833
vt 0.565249 0.220751
vt 0.625000 0.225000
vt 0.565249 0.225000
vt 0.187500 0.733165
vt 0.125000 0.727500
vt 0.125000 0.724667
vt 0.565249 0.026749
vt 0.565249 0.022500
vt 0.625000 0.022500
vt 0.375000 0.016835
vt 0.434751 0.016835
vt 0.434751 0.022500
vt 0.375000 0.005665
vt 0.434751 0.000000
vt 0.434751 0.005665
vt 0.565249 0.000000
vt 0.625000 0.005665
vt 0.565249 0.005665
vt 0.625000 0.228777
vt 0.565249 0.230665
vt 0.565249 0.225000
vt 0.625000 0.246223
vt 0.565249 0.250000
vt 0.565249 0.244335
vt 0.434751 0.250000
vt 0.375000 0.244335
vt 0.434751 0.244335
vt 0.375000 0.230665
vt 0.434751 0.225000
vt 0.434751 0.230665
vt 0.625000 0.018723
vt 0.565249 0.022500
vt 0.565249 0.016835
vt 0.125000 0.500000
vt 0.565249 0.250000
vt 0.625000 0.250000
vt 0.434751 0.525000
vt 0.250000 0.525000
vt 0.750000 0.727500
vt 0.565249 0.727500
vt 0.125000 0.750000
vt 0.125000 0.744335
vt 0.565249 1.000000
vt 0.434751 0.727500
vt 0.250000 0.727500
vt 0.565249 0.525000
vt 0.434751 0.219335
vt 0.750000 0.525000
vt 0.434751 0.022500
vt 0.125000 0.519335
vt 0.125000 0.505665
vt 0.625000 1.000000
vt 0.125000 0.744335
vt 0.125000 0.733165
vt 0.434751 1.000000
vt 0.565249 1.000000
vt 0.434751 1.000000
vt 0.875000 0.744335
vt 0.875000 0.733165
vt 0.875000 0.744335
vt 0.125000 0.505665
vt 0.875000 0.505665
vt 0.875000 0.519335
vt 0.791667 0.519335
vt 0.434751 0.225000
vt 0.434751 0.028165
vt 0.791667 0.733165
vt 0.125000 0.727500
vt 0.303727 0.625192
vt 0.303727 0.616323
vt 0.312596 0.616323
vt 0.303727 0.321464
vt 0.303727 0.312596
vt 0.312596 0.321464
vt 0.321464 0.312596
vt 0.312596 0.303727
vt 0.321464 0.303727
vt 0.321464 0.000000
vt 0.321464 0.008868
vt 0.312596 0.008868
vt 0.000000 0.616323
vt 0.008868 0.616323
vt 0.008868 0.625192
vt 0.312596 0.008868
vt 0.303727 0.008868
vt 0.303727 0.000000
vt 0.616323 0.312596
vt 0.616323 0.303727
vt 0.625192 0.303727
vt 0.303727 0.303727
vt 0.312596 0.303727
vt 0.616323 0.166967
vt 0.625192 0.166967
vt 0.625192 0.175835
vt 0.008868 0.479563
vt 0.000000 0.479563
vt 0.000000 0.470694
vt 0.973065 0.754884
vt 0.973065 0.746016
vt 0.981933 0.754884
vt 0.625192 0.245116
vt 0.616323 0.245116
vt 0.625192 0.236247
vt 0.008868 0.557712
vt 0.000000 0.557712
vt 0.000000 0.548843
vt 0.625192 0.088818
vt 0.616323 0.088818
vt 0.625192 0.079949
vt 0.008868 0.401414
vt 0.000000 0.401414
vt 0.000000 0.392545
vt 0.973065 0.685604
vt 0.973065 0.676735
vt 0.981933 0.676735
vt 0.973065 0.833033
vt 0.973065 0.824165
vt 0.981933 0.833033
vt 0.474063 0.763753
vt 0.474063 0.754884
vt 0.482932 0.763753
vt 0.982263 0.442288
vt 0.982263 0.433420
vt 0.991132 0.442288
vt 0.982263 0.520437
vt 0.982263 0.511569
vt 0.991132 0.520437
vt 0.474063 0.841902
vt 0.474063 0.833033
vt 0.482932 0.841902
vt 0.474063 0.694472
vt 0.474063 0.685604
vt 0.482932 0.685604
vt 0.982263 0.373008
vt 0.982263 0.364139
vt 0.991132 0.364139
vt 0.616323 0.106555
vt 0.625192 0.106555
vt 0.625192 0.115423
vt 0.000000 0.419151
vt 0.008868 0.419151
vt 0.000000 0.428019
vt 0.973065 0.637661
vt 0.981933 0.637661
vt 0.973065 0.646529
vt 0.973065 0.785090
vt 0.981933 0.793959
vt 0.973065 0.793959
vt 0.601963 0.625192
vt 0.601956 0.625192
vt 0.601963 0.616323
vt 0.616323 0.184704
vt 0.625192 0.184704
vt 0.625192 0.193572
vt 0.008868 0.497299
vt 0.000000 0.497299
vt 0.000000 0.488431
vt 0.616323 0.028406
vt 0.625192 0.028406
vt 0.625192 0.037274
vt 0.000000 0.341002
vt 0.008868 0.341002
vt 0.000000 0.349870
vt 0.973065 0.715810
vt 0.981933 0.715810
vt 0.973065 0.723509
vt 0.973065 0.863239
vt 0.981933 0.872108
vt 0.973065 0.872108
vt 0.607447 0.625192
vt 0.607439 0.625192
vt 0.607439 0.616323
vt 0.607455 0.625192
vt 0.607447 0.625192
vt 0.607447 0.616323
vt 0.982263 0.472495
vt 0.991132 0.481363
vt 0.982263 0.481363
vt 0.982263 0.550644
vt 0.991132 0.559512
vt 0.982263 0.559512
vt 1.000000 0.520437
vt 1.000000 0.511569
vt 0.930719 0.529306
vt 0.921851 0.529306
vt 0.930719 0.520437
vt 0.482932 0.802827
vt 0.474063 0.802827
vt 0.474063 0.793959
vt 0.482932 0.880976
vt 0.474063 0.880976
vt 0.474063 0.872108
vt 0.990802 0.833033
vt 0.990802 0.824165
vt 0.474063 0.655398
vt 0.474063 0.646529
vt 0.482932 0.646529
vt 0.474063 0.724678
vt 0.482932 0.724678
vt 0.474063 0.732377
vt 0.990802 0.685604
vt 0.990802 0.676735
vt 0.982263 0.325065
vt 0.991132 0.325065
vt 0.982263 0.333933
vt 0.982263 0.403214
vt 0.991132 0.403214
vt 0.982263 0.410913
vt 1.000000 0.364139
vt 1.000000 0.373008
vt 0.930719 0.381876
vt 0.921851 0.373008
vt 0.930719 0.373008
vt 0.930719 0.412082
vt 0.930719 0.420951
vt 0.921851 0.412082
vt 1.000000 0.412082
vt 1.000000 0.403214
vt 1.000000 0.325065
vt 1.000000 0.333933
vt 0.990802 0.715810
vt 0.990802 0.724678
vt 0.990802 0.863239
vt 0.990802 0.872108
vt 0.930719 0.559512
vt 0.930719 0.568380
vt 0.921851 0.568380
vt 1.000000 0.550644
vt 1.000000 0.559512
vt 1.000000 0.473664
vt 1.000000 0.481363
vt 0.930719 0.482532
vt 0.930719 0.490231
vt 0.921851 0.490231
vt 0.990802 0.793959
vt 0.990802 0.786260
vt 0.990802 0.646529
vt 0.990802 0.637661
vt 0.930719 0.333933
vt 0.930719 0.342802
vt 0.921851 0.333933
vt 0.625192 0.259809
vt 0.634060 0.259809
vt 0.625192 0.268678
vt 0.768922 0.867264
vt 0.760054 0.867264
vt 0.760054 0.858396
vt 0.634060 0.008868
vt 0.625192 0.008868
vt 0.625192 0.000000
vt 0.760054 0.616323
vt 0.768922 0.616323
vt 0.760054 0.625192
vt 0.768922 0.638822
vt 0.768922 0.647691
vt 0.760054 0.647691
vt 0.768922 0.773161
vt 0.768922 0.782030
vt 0.760054 0.773161
vt 0.760054 0.741794
vt 0.768922 0.741794
vt 0.768922 0.750662
vt 0.607431 0.625192
vt 0.607431 0.616323
vt 0.607439 0.625192
vt 0.312596 0.876132
vt 0.321464 0.876132
vt 0.312596 0.885001
vt 0.964197 0.903785
vt 0.973065 0.912653
vt 0.964197 0.912653
vt 0.312596 0.625192
vt 0.321464 0.625192
vt 0.321464 0.634060
vt 0.973395 0.303727
vt 0.982263 0.294859
vt 0.982263 0.303727
vt 0.939588 0.591189
vt 0.930720 0.600057
vt 0.930720 0.591189
vt 0.152599 0.885001
vt 0.161467 0.885001
vt 0.161467 0.893869
vt 0.930390 0.616323
vt 0.921521 0.607455
vt 0.930390 0.607455
vt 0.152599 0.634060
vt 0.161467 0.634060
vt 0.152599 0.642929
vt 0.768922 0.702727
vt 0.768922 0.710426
vt 0.760054 0.710426
vt 0.760054 0.679058
vt 0.768922 0.670190
vt 0.768922 0.679058
vt 0.768922 0.835896
vt 0.768922 0.844765
vt 0.760054 0.835896
vt 0.760054 0.804529
vt 0.768922 0.804529
vt 0.768922 0.813397
vt 0.607424 0.625192
vt 0.607424 0.616323
vt 0.921521 0.732925
vt 0.921521 0.741794
vt 0.912653 0.732925
vt 0.607416 0.625192
vt 0.607416 0.616323
vt 0.161467 0.768399
vt 0.152599 0.759530
vt 0.161467 0.759530
vt 0.161467 0.790898
vt 0.161467 0.799766
vt 0.152599 0.790898
vt 0.161467 0.862502
vt 0.152599 0.853633
vt 0.161467 0.853633
vt 0.161467 0.822266
vt 0.161467 0.831134
vt 0.152599 0.822266
vt 0.625192 0.205942
vt 0.625192 0.197074
vt 0.634060 0.197074
vt 0.786659 0.197074
vt 0.786659 0.188206
vt 0.795528 0.188206
vt 0.921521 0.773161
vt 0.912653 0.764293
vt 0.921521 0.764293
vt 0.921521 0.835896
vt 0.912653 0.827028
vt 0.921521 0.827028
vt 0.921521 0.795660
vt 0.921521 0.804529
vt 0.912653 0.795660
vt 0.312596 0.813397
vt 0.321464 0.813397
vt 0.312596 0.822266
vt 0.921521 0.638822
vt 0.912653 0.638822
vt 0.921521 0.629954
vt 0.921521 0.693859
vt 0.921521 0.701558
vt 0.912653 0.701558
vt 0.912653 0.670190
vt 0.921521 0.661322
vt 0.921521 0.670190
vt 0.312596 0.687927
vt 0.312596 0.679058
vt 0.321464 0.687927
vt 0.161467 0.656559
vt 0.161467 0.665428
vt 0.152599 0.665428
vt 0.161467 0.720464
vt 0.161467 0.728163
vt 0.152599 0.728163
vt 0.152599 0.696795
vt 0.161467 0.687927
vt 0.161467 0.696795
vt 0.625192 0.062735
vt 0.634060 0.071604
vt 0.625192 0.071604
vt 0.786659 0.053867
vt 0.795528 0.062735
vt 0.786659 0.062735
vt 0.786659 0.094103
vt 0.786659 0.085234
vt 0.795528 0.094103
vt 0.625192 0.102971
vt 0.625192 0.094103
vt 0.634060 0.102971
vt 0.634060 0.040236
vt 0.625192 0.040236
vt 0.625192 0.031368
vt 0.321464 0.719294
vt 0.312596 0.719294
vt 0.312596 0.710426
vt 0.312596 0.853633
vt 0.312596 0.844765
vt 0.321464 0.844765
vt 0.795528 0.219573
vt 0.786659 0.228442
vt 0.786659 0.219573
vt 0.634060 0.228442
vt 0.625192 0.237310
vt 0.625192 0.228442
vt 0.634060 0.165706
vt 0.625192 0.173405
vt 0.625192 0.165706
vt 0.795528 0.156838
vt 0.786659 0.164537
vt 0.786659 0.156838
vt 0.312596 0.789729
vt 0.312596 0.782030
vt 0.321464 0.782030
vt 0.312596 0.656559
vt 0.312596 0.647691
vt 0.321464 0.656559
vt 0.795528 0.031368
vt 0.786659 0.031368
vt 0.786659 0.022499
vt 0.777791 0.259809
vt 0.777791 0.250941
vt 0.786659 0.250941
vt 0.616323 0.867264
vt 0.607455 0.858396
vt 0.616323 0.858396
vt 0.777791 0.008868
vt 0.786659 0.017737
vt 0.777791 0.017737
vt 0.204143 0.625192
vt 0.213011 0.634060
vt 0.204143 0.634060
vt 0.465195 0.876132
vt 0.465195 0.867264
vt 0.474063 0.867264
vt 0.593087 0.867264
vt 0.593087 0.858396
vt 0.601956 0.858396
vt 0.465195 0.634060
vt 0.465195 0.625192
vt 0.474063 0.634060
vt 0.593087 0.616323
vt 0.601956 0.625192
vt 0.593087 0.625192
vt 0.221880 0.876132
vt 0.213011 0.867264
vt 0.221880 0.867264
vt 0.008868 0.885001
vt -0.000000 0.876132
vt 0.008868 0.876132
vt 0.221880 0.625192
vt 0.221880 0.634060
vt 0.008868 0.634060
vt 0.008868 0.642929
vt -0.000000 0.642929
vt 0.607455 0.321464
vt 0.312596 0.312596
vt 0.607455 0.312596
vt 0.008868 0.303727
vt 0.000000 0.008868
vt 0.008868 0.008868
vt 0.008868 0.312596
vt 0.616323 0.273521
vt 0.625192 0.273521
vt 0.541543 0.911182
vt 0.532675 0.880976
vt 0.541543 0.880976
vt 0.902314 0.333933
vt 0.911182 0.303727
vt 0.911182 0.333933
vt 0.008868 0.586117
vt 0.000000 0.586117
vt 0.008868 0.000000
vt 0.625192 0.158098
vt 0.541543 0.763753
vt 0.532675 0.724678
vt 0.541543 0.724678
vt 0.902314 0.451157
vt 0.911182 0.490231
vt 0.902314 0.490231
vt 0.973065 0.607455
vt 0.607455 0.312596
vt 0.541543 0.802827
vt 0.532675 0.841902
vt 0.532675 0.802827
vt 0.902314 0.373008
vt 0.911182 0.412082
vt 0.902314 0.412082
vt 0.000000 0.506168
vt 0.541543 0.646529
vt 0.532675 0.685604
vt 0.532675 0.646529
vt 0.902314 0.568380
vt 0.911182 0.529306
vt 0.911182 0.568380
vt 0.839446 0.259809
vt 0.852537 0.250941
vt 0.852537 0.259809
vt 0.786659 0.311353
vt 0.799750 0.302484
vt 0.808618 0.311353
vt 0.474063 0.616323
vt 0.786659 0.250941
vt 0.799750 0.259809
vt 0.786659 0.259809
vt 0.982263 0.294859
vt 0.625192 0.253984
vt 0.541543 0.841902
vt 0.911182 0.373008
vt 0.000000 0.566580
vt 0.625192 0.097686
vt 0.541543 0.685604
vt 0.902314 0.529306
vt 0.000000 0.410282
vt 0.532675 0.763753
vt 0.911182 0.451157
vt 0.921851 0.598586
vt 0.911182 0.607455
vt 0.911182 0.598586
vt 0.541543 0.616323
vt 0.532675 0.616323
vt 0.902314 0.598586
vt 0.911182 0.294859
vt 0.921851 0.303727
vt 0.973065 0.902314
vt 0.981933 0.902314
vt 0.991132 0.589718
vt 0.982263 0.589718
vt 0.482932 0.911182
vt 0.474063 0.911182
vt 0.921851 0.451157
vt 0.930719 0.451165
vt 0.607455 0.312596
vt 1.000000 0.442296
vt 0.991132 0.294859
vt 0.990802 0.754892
vt 0.990802 0.902314
vt 0.930719 0.598586
vt 1.000000 0.589718
vt 0.865628 0.259809
vt 0.874496 0.250941
vt 0.981933 0.607455
vt 0.930719 0.303727
vt 0.307230 0.768922
vt 0.264555 0.777791
vt 0.264555 0.768922
vt 0.264555 0.777791
vt 0.307230 0.786659
vt 0.264555 0.786659
vt 0.921521 0.903785
vt 0.921521 0.912653
vt 0.930720 0.294859
vt 0.930720 0.303727
vt 0.982263 0.591189
vt 0.939588 0.600057
vt 0.973065 0.616323
vt 0.912653 0.616323
vt 0.152599 0.876132
vt 0.912653 0.849527
vt 0.921521 0.858396
vt 0.795528 0.125470
vt 0.786659 0.125470
vt 0.634060 0.134339
vt 0.625192 0.134339
vt 0.634060 0.017737
vt 0.312596 0.750662
vt 0.321464 0.750662
vt 0.321464 0.867264
vt 0.795528 0.242072
vt 0.786659 0.250941
vt 0.634060 0.250941
vt 0.795528 0.008868
vt 0.839446 0.302484
vt 0.852537 0.311353
vt 0.830578 0.311353
vt 0.830578 0.311353
vt 0.817487 0.302484
vt 0.830578 0.302484
vt 0.830578 0.250941
vt 0.817487 0.259809
vt 0.808618 0.250941
vt 0.883364 0.259809
vt 0.896455 0.250941
vt 0.896455 0.259809
vt 0.883364 0.302484
vt 0.896455 0.311353
vt 0.874496 0.311353
vt 0.865628 0.302484
vt 0.782013 0.867264
vt 0.768922 0.858396
vt 0.790881 0.858396
vt 0.782013 0.909939
vt 0.768922 0.918808
vt 0.768922 0.909939
vt 0.161467 0.867264
vt 0.204143 0.876132
vt 0.161467 0.876132
vt 0.161468 0.625192
vt 0.161468 0.634060
vt 0.204143 0.656559
vt 0.213011 0.656559
vt 0.204143 0.750662
vt 0.213011 0.782030
vt 0.204143 0.782030
vt 0.550412 0.867264
vt 0.550412 0.858396
vt 0.550412 0.625192
vt 0.550412 0.616323
vt 0.264555 0.867264
vt 0.264555 0.625192
vt 0.204143 0.687927
vt 0.213011 0.719294
vt 0.204143 0.719294
vt 0.607455 0.835896
vt 0.616323 0.804529
vt 0.616323 0.835896
vt -0.000000 0.790898
vt 0.008868 0.759530
vt 0.008868 0.790898
vt -0.000000 0.853633
vt 0.008868 0.822266
vt 0.008868 0.853633
vt 0.593087 0.741794
vt 0.601956 0.773161
vt 0.593087 0.773161
vt 0.593087 0.804529
vt 0.601956 0.835896
vt 0.593087 0.835896
vt 0.601956 0.647691
vt 0.593087 0.647691
vt 0.593087 0.710426
vt 0.601956 0.679058
vt 0.601956 0.710426
vt 0.008868 0.665428
vt -0.000000 0.665428
vt -0.000000 0.728163
vt 0.008868 0.696795
vt 0.008868 0.728163
vt 0.607455 0.647691
vt 0.616323 0.679058
vt 0.607455 0.679058
vt 0.607455 0.773161
vt 0.607455 0.804529
vt 0.607455 0.710426
vt 0.616323 0.741794
vt 0.607455 0.741794
vt -0.000000 0.822266
vt 0.601956 0.804529
vt 0.593087 0.679058
vt 0.601956 0.741794
vt -0.000000 0.696795
vt -0.000000 0.759530
vt 0.221880 0.687927
vt 0.221880 0.719294
vt 0.213011 0.750662
vt 0.221880 0.750662
vt 0.777791 0.102971
vt 0.786659 0.071604
vt 0.786659 0.102971
vt 0.786659 0.134339
vt 0.777791 0.134339
vt 0.777791 0.040236
vt 0.786659 0.040236
vt 0.777791 0.071604
vt 0.541544 0.710426
vt 0.550412 0.679058
vt 0.550412 0.710426
vt 0.541544 0.741794
vt 0.550412 0.741794
vt 0.541544 0.835896
vt 0.550412 0.804529
vt 0.550412 0.835896
vt 0.474063 0.844765
vt 0.213011 0.844765
vt 0.221880 0.813397
vt 0.221880 0.844765
vt 0.777791 0.228442
vt 0.786659 0.197074
vt 0.786659 0.228442
vt 0.786659 0.165706
vt 0.777791 0.165706
vt 0.777791 0.197074
vt 0.221880 0.782030
vt 0.213011 0.813397
vt 0.550412 0.773161
vt 0.541544 0.773161
vt 0.541544 0.804529
vt 0.465195 0.656559
vt 0.474063 0.656559
vt 0.541544 0.679058
vt 0.550412 0.647691
vt 0.221880 0.656559
vt 0.213011 0.687927
vt 0.930390 0.760054
vt 0.921521 0.616323
vt 0.973395 0.447458
vt 0.982263 0.447458
vt 0.616323 0.616323
vt 0.930720 0.447458
vt 0.939588 0.447458
vt 0.973065 0.903785
vt 0.964197 0.760054
vt 0.973065 0.760054
vt 0.538174 0.616323
vt 0.499100 0.616323
vt 0.902314 0.607455
vt 0.902314 0.312596
vt 0.303727 0.156298
vt 0.303727 0.195372
vt 0.502469 0.646529
vt 0.502469 0.911182
vt 0.532675 0.911182
vt 0.786659 0.302484
vt 0.502469 0.763753
vt 0.502469 0.802827
vt 0.830578 0.259809
vt 0.852537 0.302484
vt 0.502469 0.880976
vt 0.502469 0.616323
vt 0.502469 0.685604
vt 0.896455 0.302484
vt 0.502469 0.724678
vt 0.502469 0.841902
vt 0.307230 0.625192
vt 0.307230 0.930390
vt 0.264555 0.930390
vt 0.616323 0.647691
vt 0.616323 0.625192
vt 0.616323 0.773161
vt 0.616323 0.710426
vt 0.768922 0.849527
vt 0.768922 0.827028
vt 0.930719 0.447458
vt 0.768922 0.638822
vt 0.768922 0.616323
vt 0.982263 0.447458
vt 0.939258 0.242072
vt 0.973065 0.760054
vt 0.939258 0.031368
vt 0.465195 0.750662
vt 0.465195 0.782030
vt 0.768922 0.732925
vt 0.768922 0.701558
vt 0.939258 0.094103
vt 0.939258 0.125470
vt 0.939258 0.156838
vt 0.939258 0.219573
vt 0.939258 0.188206
vt 0.768922 0.795660
vt 0.768922 0.764293
vt 0.465195 0.813397
vt 0.465195 0.844765
vt 0.768922 0.670190
vt 0.465195 0.687927
vt 0.465195 0.719294
vt 0.939258 0.062735
vt 0.204143 0.867264
vt 0.161467 0.844765
vt 0.204143 0.844765
vt 0.161468 0.656559
vt 0.161467 0.813397
vt 0.204143 0.813397
vt 0.161467 0.782030
vt 0.161467 0.750662
vt 0.264555 0.844765
vt 0.264555 0.634060
vt 0.264555 0.656559
vt 0.161467 0.719294
vt 0.264555 0.782030
vt 0.264555 0.750662
vt 0.264555 0.719294
vt 0.264555 0.813397
vt 0.264555 0.687927
vt 0.625192 0.019537
vt 0.000000 0.332133
vt 0.768922 0.876132
vt 0.768922 0.607455
vt 0.312596 0.616323
vt 0.973395 0.294859
vt 0.161467 0.625192
vt 0.312596 0.321464
vt 0.000000 0.303727
vt 0.902314 0.303727
vt 0.830578 0.250941
vt 0.482932 0.616323
vt 0.930719 0.607455
vt 0.930719 0.294859
vt 1.000000 0.294859
vt 1.000000 0.442288
vt 0.930719 0.451157
vt 0.990802 0.754884
vt 0.990802 0.607455
vt 0.307230 0.777791
vt 0.307230 0.777791
vt 0.982263 0.600057
vt 0.973065 0.607455
vt 0.921521 0.607455
vt 0.625192 0.134331
vt 0.786659 0.125463
vt 0.312596 0.750654
vt 0.786659 0.000000
vt 0.874496 0.250941
vt 0.768922 0.867264
vt 0.790881 0.918808
vt 0.264555 0.876132
vt 0.541544 0.647691
vt 0.921521 0.760054
vt 0.460025 0.616323
vt 0.607455 0.616323
vt 0.577249 0.616323
vt 0.420951 0.616323
vt 0.381876 0.616323
vt 0.342802 0.616323
vt 0.607455 0.607455
vt 0.008868 0.321464
vt 0.303727 0.273521
vt 0.303727 0.039074
vt 0.303727 0.078149
vt 0.303727 0.117223
vt 0.303727 0.234447
vt 0.616323 0.008868
vt 0.264555 0.625192
vt 0.921521 0.760054
vt 0.939258 0.008868
vt 0.497509 0.199100
vt 0.094161 0.753946
vt 0.094161 0.199100
vt 0.497509 0.753946
s 0
usemtl METAL
f 9/1/1 10/2/1 11/3/1
f 12/4/2 13/5/2 14/6/2
f 15/7/3 16/8/3 17/9/3
f 18/10/4 19/11/4 20/12/4
f 21/13/5 22/14/5 23/15/5
f 24/16/6 25/17/6 26/18/6
f 31/19/7 32/20/7 33/21/7
f 36/22/8 37/23/8 38/24/8
f 41/25/9 42/26/9 43/27/9
f 44/28/10 45/29/10 46/30/10
f 47/31/11 48/32/11 49/33/11
f 50/34/12 51/35/12 52/36/12
f 53/37/13 54/38/13 55/39/13
f 56/40/14 57/41/14 58/42/14
f 59/43/10 60/44/10 61/45/10
f 62/46/13 63/47/13 64/48/13
f 15/7/15 6/49/15 16/8/15
f 18/10/16 7/50/16 8/51/16
f 17/9/17 20/12/17 19/11/17
f 15/7/18 27/52/18 28/53/18
f 35/54/19 14/6/19 34/55/19
f 10/2/20 14/6/20 13/5/20
f 11/3/21 1/56/21 2/57/21
f 12/4/22 4/58/22 13/5/22
f 25/17/23 36/22/23 38/24/23
f 28/53/24 39/59/24 40/60/24
f 18/10/25 30/61/25 19/11/25
f 26/18/26 23/62/26 24/16/26
f 22/14/27 33/21/27 23/15/27
f 35/54/19 30/61/19 29/63/19
f 11/3/24 39/59/24 9/1/24
f 36/22/28 32/64/28 37/23/28
f 44/28/29 42/26/29 41/25/29
f 45/29/26 49/33/26 46/30/26
f 53/37/23 51/35/23 50/34/23
f 56/40/28 55/39/28 54/38/28
f 59/43/27 58/42/27 57/41/27
f 61/45/26 52/36/26 51/35/26
f 62/46/30 49/33/30 48/32/30
f 43/27/28 64/48/28 63/47/28
f 21/13/31 59/65/31 22/14/31
f 6/49/32 57/66/32 56/49/32
f 48/67/33 4/58/33 3/67/33
f 2/57/31 45/56/31 44/68/31
f 50/34/33 26/18/33 25/17/33
f 41/69/32 32/20/32 31/19/32
f 62/46/34 37/23/34 63/47/34
f 7/50/35 53/37/35 8/51/35
f 2/57/36 41/69/36 31/19/36
f 31/19/36 11/3/36 2/57/36
f 1/70/37 47/71/37 45/72/37
f 13/5/38 1/70/38 10/2/38
f 35/54/39 3/73/39 12/4/39
f 3/73/39 62/74/39 48/75/39
f 7/50/40 56/40/40 54/38/40
f 7/50/40 16/8/40 6/40/40
f 5/76/39 28/53/39 22/14/39
f 5/76/36 59/65/36 57/66/36
f 8/77/39 50/78/39 25/79/39
f 18/10/41 25/79/41 29/63/41
f 39/59/42 14/6/42 9/1/42
f 17/9/42 30/61/42 27/52/42
f 22/14/43 40/60/43 31/19/43
f 21/80/37 52/36/37 60/44/37
f 36/22/44 23/62/44 33/81/44
f 29/63/45 38/82/45 35/54/45
f 27/52/42 34/55/42 39/59/42
f 32/64/40 63/47/40 37/23/40
f 49/33/44 42/26/44 46/30/44
f 51/35/46 58/42/46 61/45/46
f 15/7/32 5/76/32 6/49/32
f 18/10/34 20/12/34 7/50/34
f 17/9/17 16/8/17 20/12/17
f 15/7/18 17/9/18 27/52/18
f 35/54/19 12/4/19 14/6/19
f 10/2/20 9/1/20 14/6/20
f 11/3/47 10/2/47 1/56/47
f 12/4/48 3/67/48 4/58/48
f 25/17/23 24/16/23 36/22/23
f 28/53/24 27/52/24 39/59/24
f 18/10/19 29/63/19 30/61/19
f 26/18/26 21/80/26 23/62/26
f 22/14/27 31/19/27 33/21/27
f 35/54/19 34/55/19 30/61/19
f 11/3/18 40/60/18 39/59/18
f 36/22/28 33/81/28 32/64/28
f 44/28/29 46/30/29 42/26/29
f 45/29/26 47/31/26 49/33/26
f 53/37/49 55/39/49 51/35/49
f 56/40/28 58/42/28 55/39/28
f 59/43/27 61/45/27 58/42/27
f 61/45/26 60/44/26 52/36/26
f 62/46/30 64/48/30 49/33/30
f 43/27/28 42/26/28 64/48/28
f 21/13/31 60/13/31 59/65/31
f 6/49/32 5/76/32 57/66/32
f 48/67/33 47/71/33 4/58/33
f 2/57/31 1/56/31 45/56/31
f 50/34/33 52/36/33 26/18/33
f 41/69/32 43/83/32 32/20/32
f 62/46/34 38/24/34 37/23/34
f 7/50/34 54/38/34 53/37/34
f 2/57/36 44/68/36 41/69/36
f 31/19/50 40/60/50 11/3/50
f 1/70/37 4/58/37 47/71/37
f 13/5/38 4/58/38 1/70/38
f 35/54/36 38/82/36 3/73/36
f 3/73/39 38/82/39 62/74/39
f 7/50/40 6/40/40 56/40/40
f 7/50/51 20/12/51 16/8/51
f 5/76/36 15/7/36 28/53/36
f 5/76/36 22/14/36 59/65/36
f 8/77/39 53/77/39 50/78/39
f 18/10/39 8/77/39 25/79/39
f 39/59/42 34/55/42 14/6/42
f 17/9/42 19/11/42 30/61/42
f 22/14/52 28/53/52 40/60/52
f 21/80/37 26/18/37 52/36/37
f 36/22/46 24/16/46 23/62/46
f 29/63/53 25/79/53 38/82/53
f 27/52/54 30/61/54 34/55/54
f 32/64/40 43/27/40 63/47/40
f 49/33/44 64/48/44 42/26/44
f 51/35/46 55/39/46 58/42/46
f 604/1/1 605/2/1 606/3/1
f 607/4/2 608/5/2 609/6/2
f 610/7/3 611/8/3 612/9/3
f 613/10/4 614/11/4 615/12/4
f 616/13/5 617/14/5 618/15/5
f 619/16/6 620/17/6 621/18/6
f 626/19/252 627/20/252 628/21/252
f 631/22/253 632/23/253 633/24/253
f 636/25/14 637/26/14 638/27/14
f 639/28/10 640/29/10 641/30/10
f 642/31/11 643/32/11 644/33/11
f 645/34/12 646/35/12 647/36/12
f 648/37/13 649/38/13 650/39/13
f 651/40/14 652/41/14 653/42/14
f 654/43/10 655/44/10 656/45/10
f 657/46/13 658/47/13 659/48/13
f 610/7/32 601/49/32 611/8/32
f 613/10/16 602/50/16 603/51/16
f 612/9/17 615/12/17 614/11/17
f 610/7/254 622/52/254 623/53/254
f 630/54/19 609/6/19 629/55/19
f 605/2/20 609/6/20 608/5/20
f 606/3/21 596/56/21 597/57/21
f 598/67/22 608/5/22 607/4/22
f 633/24/23 619/16/23 631/22/23
f 623/53/24 634/59/24 635/60/24
f 624/63/19 614/11/19 613/10/19
f 621/18/26 618/62/26 619/16/26
f 617/14/27 628/21/27 618/15/27
f 630/54/19 625/61/19 624/63/19
f 606/3/24 634/59/24 604/1/24
f 628/81/28 632/23/28 631/22/28
f 639/28/29 637/26/29 636/25/29
f 640/29/26 644/33/26 641/30/26
f 648/37/255 646/35/255 645/34/255
f 649/38/28 653/42/28 650/39/28
f 654/43/27 653/42/27 652/41/27
f 656/45/26 647/36/26 646/35/26
f 657/46/30 644/33/30 643/32/30
f 638/27/28 659/48/28 658/47/28
f 616/13/31 654/65/31 617/14/31
f 601/49/32 652/66/32 651/49/32
f 598/67/33 642/71/33 599/58/33
f 639/68/47 596/56/47 640/56/47
f 645/34/33 621/18/33 620/17/33
f 636/69/32 627/20/32 626/19/32
f 657/46/34 632/23/34 658/47/34
f 602/50/35 648/37/35 603/51/35
f 597/57/36 636/69/36 626/19/36
f 626/19/36 606/3/36 597/57/36
f 596/70/37 642/71/37 640/72/37
f 605/2/38 599/58/38 596/70/38
f 630/54/39 598/73/39 607/4/39
f 598/73/39 657/74/39 643/75/39
f 602/50/40 651/40/40 649/38/40
f 601/40/40 615/12/40 611/8/40
f 600/76/39 623/53/39 617/14/39
f 600/76/36 654/65/36 652/66/36
f 603/77/39 645/78/39 620/79/39
f 613/10/256 620/79/256 624/63/256
f 634/59/54 609/6/54 604/1/54
f 612/9/42 625/61/42 622/52/42
f 623/53/257 626/19/257 617/14/257
f 616/80/37 647/36/37 655/44/37
f 631/22/44 618/62/44 628/81/44
f 624/63/258 633/82/258 630/54/258
f 622/52/42 629/55/42 634/59/42
f 627/64/40 658/47/40 632/23/40
f 644/33/44 637/26/44 641/30/44
f 646/35/46 653/42/46 656/45/46
f 610/7/32 600/76/32 601/49/32
f 613/10/16 615/12/16 602/50/16
f 612/9/17 611/8/17 615/12/17
f 610/7/24 612/9/24 622/52/24
f 630/54/19 607/4/19 609/6/19
f 605/2/20 604/1/20 609/6/20
f 606/3/47 605/2/47 596/56/47
f 598/67/48 599/58/48 608/5/48
f 633/24/30 620/17/30 619/16/30
f 623/53/24 622/52/24 634/59/24
f 624/63/25 625/61/25 614/11/25
f 621/18/26 616/80/26 618/62/26
f 617/14/27 626/19/27 628/21/27
f 630/54/19 629/55/19 625/61/19
f 606/3/24 635/60/24 634/59/24
f 628/81/28 627/64/28 632/23/28
f 639/28/259 641/30/259 637/26/259
f 640/29/26 642/31/26 644/33/26
f 648/37/23 650/39/23 646/35/23
f 649/38/28 651/40/28 653/42/28
f 654/43/27 656/45/27 653/42/27
f 656/45/26 655/44/26 647/36/26
f 657/46/30 659/48/30 644/33/30
f 638/27/28 637/26/28 659/48/28
f 616/13/31 655/13/31 654/65/31
f 601/49/32 600/76/32 652/66/32
f 598/67/33 643/67/33 642/71/33
f 639/68/31 597/57/31 596/56/31
f 645/34/33 647/36/33 621/18/33
f 636/69/32 638/83/32 627/20/32
f 657/46/34 633/24/34 632/23/34
f 602/50/34 649/38/34 648/37/34
f 597/57/36 639/68/36 636/69/36
f 626/19/260 635/60/260 606/3/260
f 596/70/37 599/58/37 642/71/37
f 605/2/38 608/5/38 599/58/38
f 630/54/36 633/82/36 598/73/36
f 598/73/39 633/82/39 657/74/39
f 602/50/40 601/40/40 651/40/40
f 601/40/51 602/50/51 615/12/51
f 600/76/36 610/7/36 623/53/36
f 600/76/36 617/14/36 654/65/36
f 603/77/39 648/77/39 645/78/39
f 613/10/39 603/77/39 620/79/39
f 634/59/42 629/55/42 609/6/42
f 612/9/42 614/11/42 625/61/42
f 623/53/261 635/60/261 626/19/261
f 616/80/37 621/18/37 647/36/37
f 631/22/46 619/16/46 618/62/46
f 624/63/262 620/79/262 633/82/262
f 622/52/54 625/61/54 629/55/54
f 627/64/40 638/27/40 658/47/40
f 644/33/44 659/48/44 637/26/44
f 646/35/46 650/39/46 653/42/46
f 668/1/1 669/2/1 670/3/1
f 671/4/263 672/5/263 673/6/263
f 674/7/3 675/8/3 676/9/3
f 677/10/4 678/11/4 679/12/4
f 680/13/5 681/14/5 682/15/5
f 683/16/6 684/17/6 685/18/6
f 690/19/252 691/20/252 692/21/252
f 695/22/253 696/23/253 697/24/253
f 700/25/9 701/26/9 702/27/9
f 703/28/10 704/29/10 705/30/10
f 706/31/11 707/32/11 708/33/11
f 709/34/12 710/35/12 711/36/12
f 712/37/13 713/38/13 714/39/13
f 715/40/14 716/41/14 717/42/14
f 718/43/10 719/44/10 720/45/10
f 721/46/13 722/47/13 723/48/13
f 674/7/32 665/49/32 675/8/32
f 677/10/16 666/50/16 667/51/16
f 676/9/17 679/12/17 678/11/17
f 674/7/18 686/52/18 687/53/18
f 694/54/19 673/6/19 693/55/19
f 669/2/20 673/6/20 672/5/20
f 670/3/21 660/56/21 661/57/21
f 662/67/22 672/5/22 671/4/22
f 697/24/23 683/16/23 695/22/23
f 687/53/24 698/59/24 699/60/24
f 688/63/19 678/11/19 677/10/19
f 680/80/26 683/16/26 685/18/26
f 690/19/27 682/15/27 681/14/27
f 694/54/19 689/61/19 688/63/19
f 670/3/264 698/59/264 668/1/264
f 692/81/28 696/23/28 695/22/28
f 703/28/29 701/26/29 700/25/29
f 706/31/26 705/30/26 704/29/26
f 709/34/30 714/39/30 710/35/30
f 713/38/28 717/42/28 714/39/28
f 716/41/27 720/45/27 717/42/27
f 720/45/26 711/36/26 710/35/26
f 721/46/30 708/33/30 707/32/30
f 702/27/28 723/48/28 722/47/28
f 680/13/31 718/65/31 681/14/31
f 715/49/32 664/76/32 716/66/32
f 707/67/33 663/58/33 662/67/33
f 703/68/47 660/56/47 704/56/47
f 709/34/33 685/18/33 684/17/33
f 700/69/32 691/20/32 690/19/32
f 721/46/34 696/23/34 722/47/34
f 713/38/34 667/51/34 666/50/34
f 661/57/36 700/69/36 690/19/36
f 690/19/36 670/3/36 661/57/36
f 660/70/37 706/71/37 704/72/37
f 672/5/38 660/70/38 669/2/38
f 694/54/39 662/73/39 671/4/39
f 662/73/39 721/74/39 707/75/39
f 665/40/40 713/38/40 666/50/40
f 666/50/40 675/8/40 665/40/40
f 664/76/39 687/53/39 681/14/39
f 664/76/36 718/65/36 716/66/36
f 667/77/39 709/78/39 684/79/39
f 677/10/265 684/79/265 688/63/265
f 698/59/54 673/6/54 668/1/54
f 676/9/42 689/61/42 686/52/42
f 681/14/266 699/60/266 690/19/266
f 680/80/37 711/36/37 719/44/37
f 695/22/44 682/62/44 692/81/44
f 688/63/267 697/82/267 694/54/267
f 686/52/42 693/55/42 698/59/42
f 691/64/40 722/47/40 696/23/40
f 708/33/44 701/26/44 705/30/44
f 710/35/44 717/42/44 720/45/44
f 674/7/32 664/76/32 665/49/32
f 677/10/34 679/12/34 666/50/34
f 676/9/17 675/8/17 679/12/17
f 674/7/18 676/9/18 686/52/18
f 694/54/25 671/4/25 673/6/25
f 669/2/20 668/1/20 673/6/20
f 670/3/31 669/2/31 660/56/31
f 662/67/48 663/58/48 672/5/48
f 697/24/30 684/17/30 683/16/30
f 687/53/18 686/52/18 698/59/18
f 688/63/25 689/61/25 678/11/25
f 680/80/26 682/62/26 683/16/26
f 690/19/27 692/21/27 682/15/27
f 694/54/19 693/55/19 689/61/19
f 670/3/24 699/60/24 698/59/24
f 692/81/28 691/64/28 696/23/28
f 703/28/29 705/30/29 701/26/29
f 706/31/26 708/33/26 705/30/26
f 709/34/255 712/37/255 714/39/255
f 713/38/28 715/40/28 717/42/28
f 716/41/29 718/43/29 720/45/29
f 720/45/26 719/44/26 711/36/26
f 721/46/30 723/48/30 708/33/30
f 702/27/28 701/26/28 723/48/28
f 680/13/47 719/13/47 718/65/47
f 715/49/32 665/49/32 664/76/32
f 707/67/33 706/71/33 663/58/33
f 703/68/31 661/57/31 660/56/31
f 709/34/33 711/36/33 685/18/33
f 700/69/32 702/83/32 691/20/32
f 721/46/34 697/24/34 696/23/34
f 713/38/35 712/37/35 667/51/35
f 661/57/36 703/68/36 700/69/36
f 690/19/268 699/60/268 670/3/268
f 660/70/37 663/58/37 706/71/37
f 672/5/38 663/58/38 660/70/38
f 694/54/36 697/82/36 662/73/36
f 662/73/39 697/82/39 721/74/39
f 665/40/40 715/40/40 713/38/40
f 666/50/51 679/12/51 675/8/51
f 664/76/36 674/7/36 687/53/36
f 664/76/36 681/14/36 718/65/36
f 667/77/39 712/77/39 709/78/39
f 677/10/39 667/77/39 684/79/39
f 698/59/42 693/55/42 673/6/42
f 676/9/42 678/11/42 689/61/42
f 681/14/269 687/53/269 699/60/269
f 680/80/37 685/18/37 711/36/37
f 695/22/46 683/16/46 682/62/46
f 688/63/270 684/79/270 697/82/270
f 686/52/54 689/61/54 693/55/54
f 691/64/40 702/27/40 722/47/40
f 708/33/44 723/48/44 701/26/44
f 710/35/46 714/39/46 717/42/46
usemtl Metalnew
f 72/84/55 73/85/55 74/86/55
f 75/87/56 76/88/56 77/89/56
f 78/90/57 79/91/57 80/92/57
f 81/93/58 82/94/58 83/95/58
f 84/96/59 85/97/59 86/98/59
f 87/99/60 88/100/60 89/101/60
f 90/102/61 91/103/61 92/104/61
f 93/105/62 94/106/62 95/88/62
f 96/107/63 98/108/63 99/109/63
f 105/110/64 107/111/64 104/112/64
f 108/113/42 109/114/42 110/115/42
f 112/116/63 114/117/63 111/118/63
f 120/119/64 122/120/64 119/121/64
f 124/122/63 126/123/63 123/124/63
f 132/125/65 134/126/65 131/127/65
f 135/128/42 136/129/42 137/130/42
f 138/131/42 139/132/42 140/133/42
f 141/134/42 142/135/42 143/136/42
f 144/137/42 145/138/42 146/139/42
f 147/140/42 148/141/42 149/142/42
f 150/143/42 151/144/42 152/145/42
f 153/146/54 154/147/54 155/148/54
f 156/149/42 157/150/42 158/151/42
f 167/152/63 169/153/63 170/154/63
f 176/155/65 178/156/65 175/157/65
f 179/158/42 180/159/42 181/160/42
f 182/161/42 183/162/42 184/163/42
f 185/164/66 186/165/66 187/166/66
f 189/167/63 191/168/63 188/169/63
f 196/170/64 198/171/64 199/172/64
f 201/173/63 203/174/63 200/175/63
f 209/176/64 211/177/64 208/178/64
f 212/179/42 213/180/42 214/181/42
f 215/182/54 216/183/54 217/184/54
f 218/185/67 219/186/67 220/187/67
f 221/188/68 222/189/68 223/190/68
f 224/191/42 225/192/42 226/193/42
f 227/194/42 228/195/42 229/196/42
f 230/197/42 231/142/42 232/198/42
f 233/199/42 234/200/42 235/201/42
f 236/202/42 237/203/42 238/204/42
f 239/205/42 240/206/42 241/207/42
f 242/208/42 243/133/42 244/209/42
f 245/210/42 246/211/42 247/212/42
f 248/213/42 249/214/42 250/215/42
f 251/216/42 252/130/42 253/217/42
f 254/218/54 255/219/54 256/220/54
f 257/221/42 258/222/42 259/223/42
f 260/224/42 261/225/42 262/151/42
f 263/226/42 264/227/42 265/228/42
f 266/229/42 267/230/42 268/231/42
f 269/232/42 270/222/42 271/233/42
f 272/234/42 273/235/42 274/219/42
f 275/236/42 276/237/42 277/180/42
f 278/238/42 279/239/42 280/183/42
f 281/240/42 282/241/42 283/242/42
f 284/243/54 285/244/54 286/195/54
f 287/245/54 288/246/54 289/192/54
f 290/247/42 291/248/42 292/249/42
f 293/250/42 294/162/42 295/251/42
f 296/252/42 297/159/42 298/253/42
f 299/254/42 300/255/42 301/256/42
f 302/257/59 304/258/59 305/259/59
f 306/260/60 308/261/60 309/262/60
f 310/263/61 312/264/61 313/265/61
f 314/266/62 316/267/62 317/268/62
f 318/269/39 319/270/39 320/271/39
f 321/272/39 322/273/39 323/274/39
f 324/275/39 325/276/39 326/277/39
f 327/278/69 328/279/69 329/280/69
f 330/281/59 332/282/59 333/283/59
f 334/284/60 336/285/60 337/286/60
f 338/287/61 340/288/61 341/289/61
f 342/290/62 344/291/62 345/292/62
f 346/293/59 348/294/59 349/295/59
f 350/296/60 352/297/60 353/298/60
f 354/299/61 356/300/61 357/301/61
f 358/302/62 360/303/62 361/304/62
f 362/305/39 363/306/39 364/307/39
f 365/308/39 366/309/39 367/310/39
f 368/311/39 369/312/39 370/313/39
f 371/314/39 372/315/39 373/316/39
f 374/278/69 375/317/69 376/318/69
f 377/319/39 378/320/39 379/321/39
f 380/317/70 381/322/70 382/323/70
f 383/324/39 384/325/39 385/326/39
f 386/327/39 387/328/39 388/329/39
f 389/330/39 390/331/39 391/332/39
f 392/333/39 393/334/39 394/335/39
f 395/336/36 396/337/36 397/338/36
f 398/339/36 399/340/36 400/341/36
f 401/342/39 402/343/39 403/344/39
f 404/345/39 405/346/39 406/347/39
f 407/348/39 408/349/39 409/350/39
f 410/351/36 411/352/36 412/353/36
f 413/354/39 414/355/39 415/356/39
f 416/357/39 417/358/39 418/359/39
f 419/360/39 420/361/39 421/362/39
f 422/363/36 423/364/36 424/365/36
f 425/366/39 426/367/39 427/368/39
f 428/369/39 429/370/39 430/371/39
f 431/372/39 432/373/39 433/374/39
f 434/375/36 435/376/36 436/377/36
f 437/378/36 438/379/36 439/380/36
f 440/381/36 441/382/36 442/383/36
f 443/384/36 444/385/36 445/386/36
f 446/387/36 447/388/36 448/389/36
f 449/390/36 450/391/36 451/392/36
f 452/393/36 453/394/36 454/395/36
f 455/396/36 456/397/36 457/398/36
f 458/399/36 459/400/36 460/401/36
f 461/402/36 462/403/36 463/404/36
f 464/405/36 465/406/36 466/407/36
f 467/408/36 468/409/36 469/410/36
f 470/411/36 471/412/36 472/413/36
f 473/414/36 474/415/36 475/416/36
f 476/417/59 477/418/59 478/419/59
f 479/420/60 480/421/60 481/422/60
f 482/423/61 483/424/61 484/425/61
f 485/426/62 486/427/62 487/428/62
f 496/429/59 497/430/59 498/431/59
f 499/432/60 500/433/60 501/434/60
f 502/435/61 503/436/61 504/437/61
f 505/438/62 506/439/62 507/440/62
f 508/441/59 509/442/59 510/443/59
f 511/444/60 512/445/60 513/446/60
f 514/447/61 515/448/61 516/427/61
f 517/449/62 518/450/62 519/451/62
f 78/452/71 74/453/71 79/454/71
f 75/87/72 74/86/72 73/85/72
f 81/455/73 77/456/73 76/457/73
f 80/92/74 83/95/74 82/94/74
f 78/90/75 91/103/75 90/102/75
f 81/455/76 95/88/76 82/458/76
f 92/104/63 159/459/63 160/460/63
f 90/461/77 161/462/77 162/463/77
f 164/464/78 87/465/78 163/466/78
f 166/467/65 84/96/65 165/468/65
f 86/98/79 73/85/79 72/84/79
f 88/100/80 75/469/80 89/101/80
f 97/470/63 167/152/63 170/154/63
f 100/471/77 171/472/77 172/473/77
f 102/474/81 173/475/81 174/476/81
f 178/156/64 104/112/64 175/157/64
f 107/477/42 180/159/42 179/158/42
f 182/161/54 110/115/54 183/162/54
f 245/478/82 415/478/82 246/478/82
f 111/118/63 189/167/63 188/169/63
f 193/479/77 116/480/77 192/481/77
f 117/482/81 194/483/81 195/484/81
f 196/170/64 119/121/64 197/485/64
f 200/175/63 126/123/63 201/173/63
f 205/486/77 128/487/77 204/488/77
f 207/489/78 130/490/78 206/491/78
f 132/125/64 208/178/64 211/177/64
f 135/128/42 213/180/42 212/179/42
f 215/182/42 140/133/42 216/183/42
f 443/478/83 271/478/83 444/478/83
f 434/478/84 261/478/84 260/478/84
f 224/191/42 146/139/42 225/192/42
f 227/194/54 149/142/54 228/195/54
f 470/478/85 298/478/85 471/478/85
f 339/492/42 198/493/42 197/494/42
f 238/204/54 143/136/54 236/202/54
f 241/207/54 152/145/54 239/205/54
f 98/495/42 307/496/42 306/497/42
f 122/498/42 247/212/42 246/211/42
f 153/146/42 249/214/42 248/213/42
f 169/499/42 305/500/42 170/501/42
f 134/502/42 255/219/42 254/218/42
f 156/149/42 258/222/42 257/221/42
f 151/478/86 408/478/86 407/478/86
f 404/478/87 241/478/87 240/478/87
f 113/503/63 159/459/63 114/117/63
f 162/463/77 116/480/77 115/504/77
f 117/482/78 163/466/78 118/505/78
f 166/467/64 121/506/64 120/119/64
f 125/507/63 167/152/63 126/123/63
f 127/508/77 171/472/77 128/487/77
f 174/476/78 130/490/78 129/509/78
f 132/125/88 177/510/88 133/510/88
f 181/160/54 137/130/54 136/129/54
f 139/132/54 183/162/54 140/133/54
f 99/109/63 189/167/63 96/107/63
f 193/479/77 101/511/77 100/471/77
f 102/474/78 194/483/78 103/512/78
f 105/110/88 199/172/88 106/172/88
f 202/513/63 95/514/63 94/515/63
f 86/516/77 204/488/77 84/517/77
f 93/518/78 206/491/78 94/515/78
f 89/519/64 210/520/64 87/465/64
f 109/114/42 213/180/42 110/115/42
f 98/521/42 216/183/42 99/522/42
f 148/141/42 225/192/42 149/142/42
f 229/196/42 125/523/42 124/524/42
f 151/144/42 236/202/42 152/145/42
f 240/206/42 113/525/42 112/526/42
f 245/210/42 155/148/42 154/147/42
f 142/135/42 249/214/42 143/136/42
f 256/220/42 158/151/42 157/150/42
f 145/138/54 258/222/54 146/139/54
f 268/231/42 263/226/42 266/229/42
f 223/527/42 267/230/42 221/528/42
f 222/529/88 381/529/88 380/529/88
f 270/222/42 261/225/42 271/233/42
f 187/139/42 269/232/42 185/530/42
f 377/478/88 141/478/88 378/478/88
f 177/531/42 272/234/42 274/219/42
f 262/151/42 273/235/42 260/224/42
f 237/478/89 403/478/89 238/478/89
f 277/180/42 251/216/42 275/236/42
f 220/115/42 276/237/42 218/532/42
f 440/478/90 266/478/90 441/478/90
f 243/133/42 278/238/42 280/183/42
f 190/522/42 279/239/42 191/533/42
f 265/529/91 439/529/91 263/529/91
f 234/200/42 281/240/42 283/242/42
f 283/242/42 203/534/42 202/513/42
f 467/478/92 295/478/92 468/478/92
f 231/142/42 284/243/42 286/195/42
f 286/195/42 169/535/42 168/523/42
f 375/478/88 219/478/88 218/478/88
f 187/139/54 287/245/54 289/192/54
f 289/192/42 232/198/42 231/142/42
f 333/536/42 191/493/42 330/537/42
f 223/527/42 290/247/42 292/249/42
f 292/249/42 235/201/42 234/200/42
f 452/478/93 278/478/93 453/478/93
f 220/115/42 295/251/42 294/162/42
f 294/162/42 244/209/42 243/133/42
f 244/478/94 412/478/94 242/478/94
f 199/538/42 298/253/42 297/159/42
f 252/130/42 296/252/42 253/217/42
f 148/478/95 393/478/95 392/478/95
f 301/256/42 209/539/42 299/254/42
f 264/227/42 300/255/42 265/228/42
f 229/478/96 391/478/96 227/478/96
f 308/540/64 305/541/64 304/542/64
f 313/543/63 314/544/63 310/545/63
f 317/268/39 318/269/39 320/271/39
f 323/274/39 326/277/39 321/272/39
f 332/546/64 337/286/64 333/547/64
f 339/548/63 342/290/63 340/549/63
f 350/550/64 347/551/64 346/293/64
f 357/301/63 358/552/63 354/299/63
f 365/308/39 362/305/39 364/307/39
f 370/313/39 373/316/39 368/311/39
f 388/329/39 383/324/39 386/327/39
f 390/331/39 393/334/39 391/332/39
f 402/343/39 378/320/39 403/344/39
f 405/346/39 408/349/39 406/347/39
f 345/553/39 415/356/39 414/355/39
f 419/360/39 416/357/39 418/359/39
f 361/304/39 425/366/39 427/368/39
f 431/372/39 428/369/39 430/371/39
f 503/436/75 341/289/75 340/288/75
f 320/271/39 366/309/39 365/308/39
f 371/314/39 322/273/39 372/315/39
f 364/307/39 325/276/39 324/275/39
f 309/262/39 369/312/39 306/260/39
f 394/335/39 387/328/39 392/333/39
f 351/554/39 389/330/39 352/297/39
f 409/350/39 401/342/39 407/348/39
f 335/555/39 404/345/39 336/556/39
f 414/355/39 420/361/39 419/360/39
f 418/359/39 377/319/39 379/321/39
f 427/368/39 432/373/39 431/372/39
f 430/371/39 385/326/39 384/325/39
f 441/382/36 438/379/36 442/383/36
f 440/381/36 382/557/36 381/558/36
f 444/385/36 435/376/36 445/386/36
f 443/384/36 328/559/36 327/560/36
f 448/389/36 311/561/36 446/387/36
f 434/375/36 446/387/36 435/376/36
f 451/392/36 424/365/36 449/390/36
f 375/562/36 449/390/36 376/563/36
f 412/353/36 454/395/36 453/394/36
f 452/393/36 331/564/36 330/281/36
f 398/339/36 455/396/36 457/398/36
f 456/397/36 349/565/36 348/566/36
f 395/336/36 458/399/36 460/401/36
f 459/400/36 303/567/36 302/257/36
f 463/404/36 328/559/36 461/402/36
f 462/403/36 397/338/36 396/337/36
f 466/407/36 382/557/36 464/405/36
f 465/406/36 400/341/36 399/340/36
f 468/409/36 376/563/36 469/410/36
f 467/408/36 411/352/36 410/351/36
f 471/412/36 341/289/36 472/413/36
f 423/364/36 472/413/36 424/365/36
f 475/416/36 355/568/36 473/414/36
f 437/378/36 473/414/36 438/379/36
f 343/569/42 122/570/42 344/571/42
f 422/478/97 253/478/97 423/478/97
f 186/478/88 327/478/88 329/478/88
f 250/478/98 416/478/98 248/478/98
f 420/478/99 153/478/99 421/478/99
f 107/572/42 315/573/42 104/574/42
f 176/575/54 313/576/54 312/577/54
f 108/478/88 325/478/88 109/478/88
f 362/478/100 214/478/100 363/478/100
f 181/478/101 318/478/101 179/478/101
f 215/478/102 369/478/102 368/478/102
f 357/578/42 209/579/42 208/580/42
f 474/529/103 299/529/103 475/529/103
f 184/478/104 321/478/104 182/478/104
f 447/478/105 272/478/105 448/478/105
f 256/478/106 425/478/106 254/478/106
f 359/581/54 134/582/54 360/583/54
f 259/478/107 428/478/107 257/478/107
f 432/478/108 156/478/108 433/478/108
f 235/478/109 398/478/109 233/478/109
f 456/478/110 281/478/110 457/478/110
f 386/478/111 226/478/111 387/478/111
f 112/570/42 337/584/42 336/583/42
f 347/585/42 203/586/42 348/587/42
f 353/588/54 124/589/54 123/590/54
f 450/478/112 275/478/112 451/478/112
f 232/478/113 395/478/113 230/478/113
f 459/478/114 284/478/114 460/478/114
f 462/478/115 287/478/115 463/478/115
f 366/478/116 135/478/116 367/478/116
f 139/478/117 373/478/117 372/478/117
f 465/478/118 290/478/118 466/478/118
f 385/478/88 144/478/88 383/478/88
f 478/591/64 479/592/64 476/593/64
f 482/594/63 487/428/63 483/595/63
f 489/596/81 486/427/81 488/597/81
f 492/598/78 490/599/78 491/600/78
f 500/433/64 496/601/64 498/602/64
f 505/438/63 504/603/63 503/604/63
f 512/605/64 508/441/64 510/443/64
f 517/606/63 515/448/63 514/447/63
f 522/607/81 520/608/81 521/609/81
f 525/610/81 527/611/81 524/612/81
f 537/613/78 535/614/78 536/615/78
f 539/616/81 541/617/81 538/618/81
f 530/619/78 546/620/78 547/621/78
f 550/622/81 548/623/81 549/624/81
f 507/440/78 554/625/78 555/626/78
f 557/627/81 559/628/81 556/629/81
f 519/451/81 562/630/81 563/631/81
f 565/632/81 567/633/81 564/634/81
f 489/635/81 523/636/81 522/637/81
f 491/638/78 527/611/78 526/639/78
f 521/640/78 493/641/78 492/642/78
f 480/421/81 524/612/81 481/422/81
f 540/643/78 536/615/78 541/617/78
f 539/616/78 513/446/78 512/445/78
f 550/622/78 546/620/78 551/644/78
f 549/624/81 501/434/81 500/433/81
f 558/645/81 554/625/81 559/628/81
f 557/627/78 531/646/78 530/619/78
f 563/631/78 567/633/78 566/647/78
f 534/648/78 564/634/78 535/614/78
f 573/608/77 571/649/77 572/650/77
f 533/651/77 572/650/77 532/652/77
f 575/653/77 569/654/77 574/655/77
f 575/653/77 494/656/77 495/657/77
f 577/658/77 483/424/77 576/659/77
f 568/660/77 576/659/77 569/654/77
f 579/661/77 561/662/77 578/663/77
f 529/664/77 578/663/77 528/665/77
f 581/666/77 553/667/77 580/668/77
f 497/430/77 580/669/77 498/431/77
f 583/670/77 545/671/77 582/672/77
f 583/670/77 510/443/77 509/442/77
f 585/673/77 543/674/77 584/675/77
f 585/673/77 478/419/77 477/418/77
f 495/657/77 586/676/77 587/677/77
f 542/678/77 586/676/77 543/674/77
f 533/651/77 588/679/77 589/599/77
f 589/599/77 545/671/77 544/680/77
f 529/664/77 590/681/77 591/682/77
f 591/682/77 553/667/77 552/683/77
f 593/684/77 504/437/77 592/685/77
f 560/686/77 592/687/77 561/662/77
f 516/427/77 594/688/77 595/597/77
f 570/689/77 594/688/77 571/649/77
f 310/263/75 484/425/75 311/561/75
f 514/690/75 355/691/75 354/299/75
f 505/692/76 345/292/76 506/693/76
f 517/449/76 361/304/76 518/450/76
f 332/282/79 497/430/79 496/429/79
f 477/418/79 304/258/79 303/567/79
f 481/422/80 308/261/80 479/420/80
f 317/268/76 485/694/76 314/266/76
f 346/293/79 509/695/79 508/696/79
f 335/697/80 499/698/80 501/699/80
f 511/444/80 351/554/80 350/296/80
f 115/700/36 193/701/36 78/452/36
f 74/702/44 83/478/44 79/703/44
f 105/110/37 178/156/37 75/87/37
f 102/704/39 174/705/39 81/455/39
f 189/167/40 80/92/40 96/107/40
f 69/706/42 84/517/42 204/488/42
f 301/256/42 87/465/42 210/520/42
f 160/707/42 161/462/42 92/708/42
f 94/515/42 283/242/42 202/513/42
f 170/501/42 307/496/42 97/709/42
f 217/478/119 306/478/119 369/478/119
f 190/522/120 216/183/120 280/183/120
f 65/710/42 171/472/42 101/511/42
f 71/711/42 101/511/42 192/481/42
f 173/475/42 223/527/42 292/249/42
f 103/512/42 268/231/42 223/527/42
f 104/574/42 313/576/42 175/712/42
f 179/478/121 316/478/121 107/478/121
f 297/159/88 106/538/88 199/538/88
f 182/478/122 326/478/122 108/478/122
f 220/115/123 213/180/123 277/180/123
f 294/162/88 110/115/88 220/115/88
f 214/478/124 325/478/124 363/478/124
f 188/494/42 337/584/42 111/713/42
f 160/707/42 239/205/42 70/714/42
f 240/478/125 336/478/125 404/478/125
f 116/480/42 71/711/42 192/481/42
f 70/714/42 116/480/42 161/462/42
f 194/483/42 264/227/42 268/231/42
f 264/227/42 163/466/42 301/256/42
f 119/713/42 339/492/42 197/494/42
f 246/478/126 344/478/126 122/478/126
f 247/212/42 165/715/42 69/706/42
f 123/590/42 347/585/42 353/588/42
f 168/523/88 228/195/88 286/195/88
f 229/478/127 352/478/127 389/478/127
f 128/487/42 69/706/42 204/488/42
f 171/472/42 67/716/42 128/487/42
f 206/491/42 234/200/42 283/242/42
f 130/490/42 292/249/42 234/200/42
f 131/717/42 357/578/42 208/580/42
f 254/478/128 360/478/128 134/478/128
f 274/219/88 133/531/88 177/531/88
f 135/478/129 362/478/129 367/478/129
f 252/130/88 180/159/88 297/159/88
f 277/180/88 137/130/88 252/130/88
f 181/478/130 366/478/130 319/478/130
f 138/478/131 368/478/131 373/478/131
f 243/133/88 183/162/88 294/162/88
f 280/183/88 140/133/88 243/133/88
f 184/478/132 372/478/132 322/478/132
f 238/478/133 378/478/133 141/478/133
f 71/711/42 143/136/42 65/710/42
f 143/136/42 68/718/42 65/710/42
f 250/478/134 377/478/134 417/478/134
f 224/478/135 383/478/135 144/478/135
f 289/192/88 146/139/88 187/139/88
f 187/139/136 258/222/136 270/222/136
f 259/478/137 385/478/137 429/478/137
f 147/478/138 391/478/138 393/478/138
f 231/142/88 225/192/88 289/192/88
f 286/195/123 149/142/123 231/142/123
f 226/478/139 392/478/139 387/478/139
f 150/478/140 406/478/140 408/478/140
f 237/478/141 407/478/141 401/478/141
f 66/719/42 236/202/42 71/711/42
f 239/205/42 66/719/42 70/714/42
f 248/478/142 421/478/142 153/478/142
f 67/716/42 247/212/42 69/706/42
f 249/214/42 67/716/42 68/718/42
f 245/478/143 420/478/143 413/478/143
f 257/478/144 433/478/144 156/478/144
f 262/151/88 255/219/88 274/219/88
f 270/222/88 158/151/88 262/151/88
f 256/478/145 432/478/145 426/478/145
f 285/478/146 302/478/146 169/478/146
f 272/478/147 312/478/147 448/478/147
f 269/478/148 327/478/148 185/478/148
f 287/478/149 329/478/149 463/478/149
f 279/478/150 330/478/150 191/478/150
f 298/478/151 338/478/151 471/478/151
f 282/478/152 348/478/152 203/478/152
f 299/529/153 356/529/153 475/529/153
f 218/478/154 450/478/154 375/478/154
f 295/478/155 374/478/155 468/478/155
f 267/529/156 381/529/156 221/529/156
f 290/529/157 380/529/157 466/529/157
f 288/478/158 396/478/158 232/478/158
f 230/478/159 460/478/159 284/478/159
f 235/529/160 465/529/160 399/529/160
f 281/529/161 398/529/161 457/529/161
f 244/478/162 467/478/162 410/478/162
f 242/478/163 453/478/163 278/478/163
f 253/478/164 470/478/164 423/478/164
f 275/478/165 422/478/165 451/478/165
f 260/478/166 447/478/166 434/478/166
f 271/478/167 436/478/167 444/478/167
f 266/529/168 439/529/168 441/529/168
f 265/529/169 474/529/169 437/529/169
f 303/567/36 585/673/36 477/418/36
f 304/542/37 479/720/37 308/540/37
f 309/262/39 524/612/39 370/313/39
f 310/545/40 485/721/40 482/722/40
f 311/561/36 577/658/36 446/387/36
f 317/268/39 488/723/39 486/724/39
f 320/271/39 523/636/39 488/723/39
f 323/274/39 493/641/39 324/275/39
f 323/274/39 527/611/39 490/725/39
f 324/275/39 520/726/39 364/307/39
f 461/402/36 495/657/36 587/677/36
f 445/386/36 495/657/36 328/559/36
f 454/395/36 497/430/36 331/564/36
f 332/546/37 499/698/37 334/284/37
f 405/346/39 501/727/39 548/728/39
f 342/290/40 503/729/40 340/549/40
f 472/413/36 502/435/36 593/684/36
f 345/553/39 554/730/39 506/731/39
f 346/293/37 511/732/37 350/550/37
f 455/396/36 509/733/36 349/565/36
f 351/554/39 538/618/39 390/331/39
f 354/299/40 517/734/40 514/690/40
f 355/568/36 595/735/36 473/414/36
f 361/304/39 562/630/39 518/450/39
f 364/307/39 523/636/39 365/308/39
f 371/314/39 524/612/39 527/611/39
f 449/390/36 529/736/36 376/563/36
f 376/563/36 591/737/36 469/410/36
f 418/359/39 531/738/39 556/739/39
f 402/343/39 531/738/39 379/321/39
f 382/557/36 573/740/36 533/741/36
f 464/405/36 533/741/36 589/742/36
f 384/325/39 536/615/39 535/614/39
f 384/325/39 564/634/39 430/371/39
f 388/329/39 541/617/39 536/615/39
f 390/331/39 541/617/39 394/335/39
f 397/338/36 585/673/36 458/399/36
f 461/402/36 542/678/36 397/338/36
f 400/341/36 583/743/36 455/396/36
f 464/405/36 544/744/36 400/341/36
f 402/343/39 551/745/39 546/746/39
f 409/350/39 548/728/39 551/745/39
f 469/410/36 552/747/36 411/352/36
f 454/395/36 552/747/36 581/748/36
f 414/355/39 559/749/39 554/730/39
f 418/359/39 559/749/39 419/360/39
f 472/413/36 560/750/36 424/365/36
f 449/390/36 560/750/36 579/751/36
f 431/372/39 562/630/39 427/368/39
f 431/372/39 564/634/39 567/633/39
f 435/376/36 575/653/36 445/386/36
f 446/387/36 568/660/36 435/376/36
f 438/379/36 573/740/36 442/383/36
f 473/414/36 570/752/36 438/379/36
f 480/753/42 584/754/42 525/755/42
f 576/756/42 487/428/42 489/596/42
f 569/373/42 489/596/42 522/607/42
f 543/757/42 491/600/42 526/758/42
f 586/759/42 492/598/42 491/600/42
f 494/760/42 521/609/42 492/598/42
f 498/602/42 549/624/42 500/433/42
f 555/626/42 504/603/42 507/440/42
f 510/443/42 539/761/42 512/605/42
f 594/688/42 519/762/42 563/763/42
f 574/764/42 522/607/42 521/609/42
f 525/755/42 543/757/42 526/758/42
f 590/681/42 530/619/42 547/621/42
f 528/665/42 557/627/42 530/619/42
f 537/765/42 532/652/42 534/766/42
f 532/652/42 565/767/42 534/766/42
f 540/768/42 588/679/42 537/765/42
f 582/672/42 540/768/42 539/761/42
f 553/667/42 547/621/42 550/622/42
f 580/668/42 550/622/42 549/624/42
f 558/645/42 592/687/42 555/626/42
f 557/627/42 561/662/42 558/645/42
f 571/649/42 563/763/42 566/769/42
f 565/767/42 571/649/42 566/769/42
f 96/107/63 97/470/63 98/108/63
f 105/110/64 106/172/64 107/111/64
f 112/116/63 113/503/63 114/117/63
f 120/119/64 121/506/64 122/120/64
f 124/122/63 125/507/63 126/123/63
f 132/125/64 133/510/64 134/126/64
f 167/152/63 168/507/63 169/153/63
f 176/155/64 177/510/64 178/156/64
f 189/167/63 190/109/63 191/168/63
f 196/170/65 197/485/65 198/171/65
f 201/173/63 202/770/63 203/174/63
f 209/176/64 210/771/64 211/177/64
f 302/257/59 303/567/59 304/258/59
f 306/260/60 307/772/60 308/261/60
f 310/263/61 311/561/61 312/264/61
f 314/266/62 315/773/62 316/267/62
f 330/281/59 331/564/59 332/282/59
f 334/284/60 335/697/60 336/285/60
f 338/287/61 339/774/61 340/288/61
f 342/290/62 343/775/62 344/291/62
f 346/293/59 347/551/59 348/294/59
f 350/296/60 351/554/60 352/297/60
f 354/299/61 355/691/61 356/300/61
f 358/302/62 359/776/62 360/303/62
f 78/452/170 72/777/170 74/453/170
f 75/87/72 77/89/72 74/86/72
f 81/455/73 83/778/73 77/456/73
f 80/92/74 79/91/74 83/95/74
f 78/90/75 80/92/75 91/103/75
f 81/455/76 93/105/76 95/88/76
f 92/104/63 91/103/63 159/459/63
f 90/461/77 92/708/77 161/462/77
f 164/464/78 88/779/78 87/465/78
f 166/467/64 85/97/64 84/96/64
f 86/98/79 85/97/79 73/85/79
f 88/100/80 76/457/80 75/469/80
f 97/470/63 96/107/63 167/152/63
f 100/471/77 101/511/77 171/472/77
f 102/474/78 103/512/78 173/475/78
f 178/156/64 105/110/64 104/112/64
f 107/477/42 106/538/42 180/159/42
f 182/161/42 108/113/42 110/115/42
f 245/478/171 413/478/171 415/478/171
f 111/118/63 114/117/63 189/167/63
f 193/479/77 115/504/77 116/480/77
f 117/482/78 118/505/78 194/483/78
f 196/170/64 120/119/64 119/121/64
f 200/175/63 123/124/63 126/123/63
f 205/486/77 127/508/77 128/487/77
f 207/489/78 129/509/78 130/490/78
f 132/125/64 131/127/64 208/178/64
f 135/128/54 137/130/54 213/180/54
f 215/182/42 138/131/42 140/133/42
f 443/478/172 269/478/172 271/478/172
f 434/478/173 436/478/173 261/478/173
f 224/191/42 144/137/42 146/139/42
f 227/194/42 147/140/42 149/142/42
f 470/478/174 296/478/174 298/478/174
f 339/492/42 338/780/42 198/493/42
f 238/204/42 141/134/42 143/136/42
f 241/207/42 150/143/42 152/145/42
f 98/495/42 97/709/42 307/496/42
f 122/498/42 121/781/42 247/212/42
f 153/146/42 155/148/42 249/214/42
f 169/499/42 302/577/42 305/500/42
f 134/502/42 133/531/42 255/219/42
f 156/149/42 158/151/42 258/222/42
f 151/478/86 150/478/86 408/478/86
f 404/478/175 406/478/175 241/478/175
f 113/503/63 160/460/63 159/459/63
f 162/463/77 161/462/77 116/480/77
f 117/482/81 164/464/81 163/466/81
f 166/467/64 165/468/64 121/506/64
f 125/507/88 168/507/88 167/152/88
f 127/508/77 172/473/77 171/472/77
f 174/476/81 173/475/81 130/490/81
f 132/125/65 178/156/65 177/510/65
f 181/160/42 180/159/42 137/130/42
f 139/132/42 184/163/42 183/162/42
f 99/109/88 190/109/88 189/167/88
f 193/479/77 192/481/77 101/511/77
f 102/474/81 195/484/81 194/483/81
f 105/110/64 196/170/64 199/172/64
f 202/513/63 201/782/63 95/514/63
f 86/516/77 205/486/77 204/488/77
f 93/518/78 207/489/78 206/491/78
f 89/519/64 211/783/64 210/520/64
f 109/114/54 214/181/54 213/180/54
f 98/521/54 217/184/54 216/183/54
f 148/141/42 226/193/42 225/192/42
f 229/196/42 228/195/42 125/523/42
f 151/144/42 237/203/42 236/202/42
f 240/206/42 239/205/42 113/525/42
f 245/210/42 247/212/42 155/148/42
f 142/135/42 250/215/42 249/214/42
f 256/220/42 255/219/42 158/151/42
f 145/138/42 259/223/42 258/222/42
f 268/231/42 264/227/42 263/226/42
f 223/527/42 268/231/42 267/230/42
f 222/529/88 221/529/88 381/529/88
f 270/222/42 262/151/42 261/225/42
f 187/139/42 270/222/42 269/232/42
f 377/478/88 142/478/88 141/478/88
f 177/531/42 176/784/42 272/234/42
f 262/151/54 274/219/54 273/235/54
f 237/478/176 401/478/176 403/478/176
f 277/180/42 252/130/42 251/216/42
f 220/115/54 277/180/54 276/237/54
f 440/478/177 267/478/177 266/478/177
f 243/133/42 242/208/42 278/238/42
f 190/522/42 280/183/42 279/239/42
f 265/529/178 437/529/178 439/529/178
f 234/200/42 233/199/42 281/240/42
f 283/242/42 282/241/42 203/534/42
f 467/478/179 293/478/179 295/478/179
f 231/142/42 230/197/42 284/243/42
f 286/195/42 285/244/42 169/535/42
f 375/478/88 374/478/88 219/478/88
f 187/139/42 186/785/42 287/245/42
f 289/192/54 288/246/54 232/198/54
f 333/536/42 188/494/42 191/493/42
f 223/527/42 222/786/42 290/247/42
f 292/249/42 291/248/42 235/201/42
f 452/478/180 279/478/180 278/478/180
f 220/115/42 219/787/42 295/251/42
f 294/162/42 293/250/42 244/209/42
f 244/478/181 410/478/181 412/478/181
f 199/538/42 198/788/42 298/253/42
f 252/130/42 297/159/42 296/252/42
f 148/478/182 147/478/182 393/478/182
f 301/256/42 210/520/42 209/539/42
f 264/227/42 301/256/42 300/255/42
f 229/478/183 389/478/183 391/478/183
f 308/540/64 307/789/64 305/541/64
f 313/543/63 315/790/63 314/544/63
f 317/268/39 316/267/39 318/269/39
f 323/274/39 324/275/39 326/277/39
f 332/546/64 334/284/64 337/286/64
f 339/548/63 343/775/63 342/290/63
f 350/550/64 353/791/64 347/551/64
f 357/301/63 359/792/63 358/552/63
f 365/308/39 367/310/39 362/305/39
f 370/313/39 371/314/39 373/316/39
f 388/329/39 384/325/39 383/324/39
f 390/331/39 394/335/39 393/334/39
f 402/343/39 379/321/39 378/320/39
f 405/346/39 409/350/39 408/349/39
f 345/553/39 344/793/39 415/356/39
f 419/360/39 421/362/39 416/357/39
f 361/304/39 360/303/39 425/366/39
f 431/372/39 433/374/39 428/369/39
f 503/436/75 502/435/75 341/289/75
f 320/271/39 319/270/39 366/309/39
f 371/314/39 323/274/39 322/273/39
f 364/307/39 363/306/39 325/276/39
f 309/262/39 370/313/39 369/312/39
f 394/335/39 388/329/39 387/328/39
f 351/554/39 390/331/39 389/330/39
f 409/350/39 402/343/39 401/342/39
f 335/555/39 405/346/39 404/345/39
f 414/355/39 413/354/39 420/361/39
f 418/359/39 417/358/39 377/319/39
f 427/368/39 426/367/39 432/373/39
f 430/371/39 429/370/39 385/326/39
f 441/382/36 439/380/36 438/379/36
f 440/381/36 442/383/36 382/557/36
f 444/385/36 436/377/36 435/376/36
f 443/384/36 445/386/36 328/559/36
f 448/389/36 312/264/36 311/561/36
f 434/375/36 447/388/36 446/387/36
f 451/392/36 422/363/36 424/365/36
f 375/562/36 450/391/36 449/390/36
f 412/353/36 411/352/36 454/395/36
f 452/393/36 454/395/36 331/564/36
f 398/339/36 400/341/36 455/396/36
f 456/397/36 455/396/36 349/565/36
f 395/336/36 397/338/36 458/399/36
f 459/400/36 458/399/36 303/567/36
f 463/404/36 329/794/36 328/559/36
f 462/403/36 461/402/36 397/338/36
f 466/407/36 380/795/36 382/557/36
f 465/406/36 464/405/36 400/341/36
f 468/409/36 374/796/36 376/563/36
f 467/408/36 469/410/36 411/352/36
f 471/412/36 338/287/36 341/289/36
f 423/364/36 470/411/36 472/413/36
f 475/416/36 356/797/36 355/568/36
f 437/378/36 474/415/36 473/414/36
f 343/569/42 119/713/42 122/570/42
f 422/478/184 251/478/184 253/478/184
f 186/478/88 185/478/88 327/478/88
f 250/478/134 417/478/134 416/478/134
f 420/478/185 154/478/185 153/478/185
f 107/572/42 316/497/42 315/573/42
f 176/575/42 175/712/42 313/576/42
f 108/478/88 326/478/88 325/478/88
f 362/478/186 212/478/186 214/478/186
f 181/478/187 319/478/187 318/478/187
f 215/478/188 217/478/188 369/478/188
f 357/578/42 356/798/42 209/579/42
f 474/529/94 300/529/94 299/529/94
f 184/478/189 322/478/189 321/478/189
f 447/478/190 273/478/190 272/478/190
f 256/478/191 426/478/191 425/478/191
f 359/581/42 131/717/42 134/582/42
f 259/478/192 429/478/192 428/478/192
f 432/478/193 157/478/193 156/478/193
f 235/478/194 399/478/194 398/478/194
f 456/478/195 282/478/195 281/478/195
f 386/478/196 224/478/196 226/478/196
f 112/570/54 111/713/54 337/584/54
f 347/585/42 200/799/42 203/586/42
f 353/588/42 352/800/42 124/589/42
f 450/478/197 276/478/197 275/478/197
f 232/478/198 396/478/198 395/478/198
f 459/478/199 285/478/199 284/478/199
f 462/478/200 288/478/200 287/478/200
f 366/478/201 136/478/201 135/478/201
f 139/478/202 138/478/202 373/478/202
f 465/478/203 291/478/203 290/478/203
f 385/478/88 145/478/88 144/478/88
f 478/591/64 480/753/64 479/592/64
f 482/594/63 485/426/63 487/428/63
f 489/596/78 487/428/78 486/427/78
f 492/598/81 493/651/81 490/599/81
f 500/433/64 499/432/64 496/601/64
f 505/438/63 507/440/63 504/603/63
f 512/605/64 511/801/64 508/441/64
f 517/606/63 519/762/63 515/448/63
f 522/607/78 523/689/78 520/608/78
f 525/610/78 526/639/78 527/611/78
f 537/613/81 534/648/81 535/614/81
f 539/616/81 540/643/81 541/617/81
f 530/619/78 531/646/78 546/620/78
f 550/622/78 551/644/78 548/623/78
f 507/440/78 506/439/78 554/625/78
f 557/627/78 558/645/78 559/628/78
f 519/451/78 518/450/78 562/630/78
f 565/632/78 566/647/78 567/633/78
f 489/635/78 488/723/78 523/636/78
f 491/638/81 490/725/81 527/611/81
f 521/640/78 520/726/78 493/641/78
f 480/421/81 525/610/81 524/612/81
f 540/643/81 537/613/81 536/615/81
f 539/616/78 538/618/78 513/446/78
f 550/622/78 547/621/78 546/620/78
f 549/624/78 548/623/78 501/434/78
f 558/645/78 555/626/78 554/625/78
f 557/627/81 556/629/81 531/646/81
f 563/631/78 562/630/78 567/633/78
f 534/648/78 565/632/78 564/634/78
f 573/608/77 570/689/77 571/649/77
f 533/651/77 573/608/77 572/650/77
f 575/653/77 568/660/77 569/654/77
f 575/653/77 574/655/77 494/656/77
f 577/658/77 484/425/77 483/424/77
f 568/660/77 577/658/77 576/659/77
f 579/661/77 560/686/77 561/662/77
f 529/664/77 579/661/77 578/663/77
f 581/666/77 552/683/77 553/667/77
f 497/430/77 581/748/77 580/669/77
f 583/670/77 544/680/77 545/671/77
f 583/670/77 582/672/77 510/443/77
f 585/673/77 542/678/77 543/674/77
f 585/673/77 584/675/77 478/419/77
f 495/657/77 494/656/77 586/676/77
f 542/678/77 587/677/77 586/676/77
f 533/651/77 532/652/77 588/679/77
f 589/599/77 588/679/77 545/671/77
f 529/664/77 528/665/77 590/681/77
f 591/682/77 590/681/77 553/667/77
f 593/684/77 502/435/77 504/437/77
f 560/686/77 593/802/77 592/687/77
f 516/427/77 515/448/77 594/688/77
f 570/689/77 595/597/77 594/688/77
f 310/263/75 482/423/75 484/425/75
f 514/690/75 516/803/75 355/691/75
f 505/692/76 342/290/76 345/292/76
f 517/449/76 358/302/76 361/304/76
f 332/282/79 331/564/79 497/430/79
f 477/418/79 476/417/79 304/258/79
f 481/422/80 309/262/80 308/261/80
f 317/268/76 486/724/76 485/694/76
f 346/293/79 349/295/79 509/695/79
f 335/697/80 334/284/80 499/698/80
f 511/444/80 513/446/80 351/554/80
f 72/777/36 78/452/36 100/804/36
f 78/452/36 90/805/36 162/806/36
f 193/701/36 100/804/36 78/452/36
f 100/804/36 172/807/36 72/777/36
f 172/807/36 127/808/36 72/777/36
f 127/808/36 205/809/36 72/777/36
f 205/809/36 86/86/36 72/777/36
f 78/452/36 162/806/36 115/700/36
f 74/702/44 77/810/44 83/478/44
f 73/85/37 85/97/37 166/467/37
f 73/85/37 166/467/37 120/119/37
f 89/811/37 75/87/37 211/177/37
f 75/87/37 73/85/37 105/110/37
f 211/177/37 75/87/37 132/125/37
f 132/125/37 75/87/37 178/156/37
f 73/85/37 120/119/37 196/170/37
f 196/170/37 105/110/37 73/85/37
f 207/812/39 93/105/39 81/455/39
f 81/455/39 76/457/39 102/704/39
f 76/457/39 88/100/39 164/813/39
f 117/814/39 76/457/39 164/813/39
f 117/814/39 195/815/39 76/457/39
f 195/815/39 102/704/39 76/457/39
f 174/705/39 129/816/39 81/455/39
f 129/816/39 207/812/39 81/455/39
f 91/103/40 80/92/40 159/459/40
f 80/92/40 82/94/40 96/107/40
f 159/459/40 80/92/40 114/117/40
f 82/94/40 95/817/40 201/173/40
f 126/123/40 167/152/40 82/94/40
f 167/152/40 96/107/40 82/94/40
f 82/94/40 201/173/40 126/123/40
f 114/117/40 80/92/40 189/167/40
f 69/706/42 165/715/42 84/517/42
f 301/256/42 163/466/42 87/465/42
f 160/707/42 70/714/42 161/462/42
f 94/515/42 206/491/42 283/242/42
f 170/501/42 305/500/42 307/496/42
f 217/478/204 98/478/204 306/478/204
f 190/522/88 99/522/88 216/183/88
f 65/710/42 68/718/42 171/472/42
f 71/711/42 65/710/42 101/511/42
f 173/475/42 103/512/42 223/527/42
f 103/512/42 194/483/42 268/231/42
f 104/574/42 315/573/42 313/576/42
f 179/478/205 318/478/205 316/478/205
f 297/159/88 180/159/88 106/538/88
f 182/478/206 321/478/206 326/478/206
f 220/115/88 110/115/88 213/180/88
f 294/162/88 183/162/88 110/115/88
f 214/478/207 109/478/207 325/478/207
f 188/494/42 333/536/42 337/584/42
f 160/707/42 113/525/42 239/205/42
f 240/478/208 112/478/208 336/478/208
f 116/480/42 66/719/42 71/711/42
f 70/714/42 66/719/42 116/480/42
f 194/483/42 118/505/42 264/227/42
f 264/227/42 118/505/42 163/466/42
f 119/713/42 343/569/42 339/492/42
f 246/478/209 415/478/209 344/478/209
f 247/212/42 121/781/42 165/715/42
f 123/590/42 200/799/42 347/585/42
f 168/523/88 125/523/88 228/195/88
f 229/478/210 124/478/210 352/478/210
f 128/487/42 67/716/42 69/706/42
f 171/472/42 68/718/42 67/716/42
f 206/491/42 130/490/42 234/200/42
f 130/490/42 173/475/42 292/249/42
f 131/717/42 359/581/42 357/578/42
f 254/478/211 425/478/211 360/478/211
f 274/219/88 255/219/88 133/531/88
f 135/478/212 212/478/212 362/478/212
f 252/130/88 137/130/88 180/159/88
f 277/180/213 213/180/213 137/130/213
f 181/478/214 136/478/214 366/478/214
f 138/478/215 215/478/215 368/478/215
f 243/133/88 140/133/88 183/162/88
f 280/183/123 216/183/123 140/133/123
f 184/478/216 139/478/216 372/478/216
f 238/478/165 403/478/165 378/478/165
f 71/711/42 236/202/42 143/136/42
f 143/136/42 249/214/42 68/718/42
f 250/478/217 142/478/217 377/478/217
f 224/478/218 386/478/218 383/478/218
f 289/192/88 225/192/88 146/139/88
f 187/139/88 146/139/88 258/222/88
f 259/478/219 145/478/219 385/478/219
f 147/478/220 227/478/220 391/478/220
f 231/142/136 149/142/136 225/192/136
f 286/195/88 228/195/88 149/142/88
f 226/478/221 148/478/221 392/478/221
f 150/478/222 241/478/222 406/478/222
f 237/478/223 151/478/223 407/478/223
f 66/719/42 152/145/42 236/202/42
f 239/205/42 152/145/42 66/719/42
f 248/478/224 416/478/224 421/478/224
f 67/716/42 155/148/42 247/212/42
f 249/214/42 155/148/42 67/716/42
f 245/478/225 154/478/225 420/478/225
f 257/478/226 428/478/226 433/478/226
f 262/151/88 158/151/88 255/219/88
f 270/222/123 258/222/123 158/151/123
f 256/478/227 157/478/227 432/478/227
f 285/478/228 459/478/228 302/478/228
f 272/478/229 176/478/229 312/478/229
f 269/478/230 443/478/230 327/478/230
f 287/478/231 186/478/231 329/478/231
f 279/478/232 452/478/232 330/478/232
f 298/478/233 198/478/233 338/478/233
f 282/478/234 456/478/234 348/478/234
f 299/529/235 209/529/235 356/529/235
f 218/478/236 276/478/236 450/478/236
f 295/478/237 219/478/237 374/478/237
f 267/529/238 440/529/238 381/529/238
f 290/529/239 222/529/239 380/529/239
f 288/478/240 462/478/240 396/478/240
f 230/478/241 395/478/241 460/478/241
f 235/529/242 291/529/242 465/529/242
f 281/529/243 233/529/243 398/529/243
f 244/478/244 293/478/244 467/478/244
f 242/478/245 412/478/245 453/478/245
f 253/478/246 296/478/246 470/478/246
f 275/478/247 251/478/247 422/478/247
f 260/478/248 273/478/248 447/478/248
f 271/478/249 261/478/249 436/478/249
f 266/529/250 263/529/250 439/529/250
f 265/529/251 300/529/251 474/529/251
f 303/567/36 458/399/36 585/673/36
f 304/542/37 476/818/37 479/720/37
f 309/262/39 481/422/39 524/612/39
f 310/545/40 314/544/40 485/721/40
f 311/561/36 484/425/36 577/658/36
f 317/268/39 320/271/39 488/723/39
f 320/271/39 365/308/39 523/636/39
f 323/274/39 490/725/39 493/641/39
f 323/274/39 371/314/39 527/611/39
f 324/275/39 493/641/39 520/726/39
f 461/402/36 328/559/36 495/657/36
f 445/386/36 575/653/36 495/657/36
f 454/395/36 581/748/36 497/430/36
f 332/546/37 496/819/37 499/698/37
f 405/346/39 335/555/39 501/727/39
f 342/290/40 505/692/40 503/729/40
f 472/413/36 341/289/36 502/435/36
f 345/553/39 414/355/39 554/730/39
f 346/293/37 508/696/37 511/732/37
f 455/396/36 583/743/36 509/733/36
f 351/554/39 513/446/39 538/618/39
f 354/299/40 358/552/40 517/734/40
f 355/568/36 516/820/36 595/735/36
f 361/304/39 427/368/39 562/630/39
f 364/307/39 520/726/39 523/636/39
f 371/314/39 370/313/39 524/612/39
f 449/390/36 579/751/36 529/736/36
f 376/563/36 529/736/36 591/737/36
f 418/359/39 379/321/39 531/738/39
f 402/343/39 546/746/39 531/738/39
f 382/557/36 442/383/36 573/740/36
f 464/405/36 382/557/36 533/741/36
f 384/325/39 388/329/39 536/615/39
f 384/325/39 535/614/39 564/634/39
f 388/329/39 394/335/39 541/617/39
f 390/331/39 538/618/39 541/617/39
f 397/338/36 542/678/36 585/673/36
f 461/402/36 587/677/36 542/678/36
f 400/341/36 544/744/36 583/743/36
f 464/405/36 589/742/36 544/744/36
f 402/343/39 409/350/39 551/745/39
f 409/350/39 405/346/39 548/728/39
f 469/410/36 591/737/36 552/747/36
f 454/395/36 411/352/36 552/747/36
f 414/355/39 419/360/39 559/749/39
f 418/359/39 556/739/39 559/749/39
f 472/413/36 593/684/36 560/750/36
f 449/390/36 424/365/36 560/750/36
f 431/372/39 567/633/39 562/630/39
f 431/372/39 430/371/39 564/634/39
f 435/376/36 568/660/36 575/653/36
f 446/387/36 577/658/36 568/660/36
f 438/379/36 570/752/36 573/740/36
f 473/414/36 595/735/36 570/752/36
f 480/753/42 478/591/42 584/754/42
f 576/756/42 483/595/42 487/428/42
f 569/373/42 576/756/42 489/596/42
f 543/757/42 586/759/42 491/600/42
f 586/759/42 494/760/42 492/598/42
f 494/760/42 574/764/42 521/609/42
f 498/602/42 580/668/42 549/624/42
f 555/626/42 592/687/42 504/603/42
f 510/443/42 582/672/42 539/761/42
f 594/688/42 515/448/42 519/762/42
f 574/764/42 569/373/42 522/607/42
f 525/755/42 584/754/42 543/757/42
f 590/681/42 528/665/42 530/619/42
f 528/665/42 578/663/42 557/627/42
f 537/765/42 588/679/42 532/652/42
f 532/652/42 572/650/42 565/767/42
f 540/768/42 545/671/42 588/679/42
f 582/672/42 545/671/42 540/768/42
f 553/667/42 590/681/42 547/621/42
f 580/668/42 553/667/42 550/622/42
f 558/645/42 561/662/42 592/687/42
f 557/627/42 578/663/42 561/662/42
f 571/649/42 594/688/42 563/763/42
f 565/767/42 572/650/42 571/649/42
usemtl puszki2
f 725/821/123 726/822/123 724/823/123
f 725/821/123 727/824/123 726/822/123
