# Blender 5.1.2
# www.blender.org
mtllib pizza.mtl
o Cylinder.005
v 0.010844 -0.013554 -0.261796
v -0.007469 -0.005711 -0.281033
v -0.006765 0.012079 -0.276089
v 0.137417 0.013730 -0.216923
v 0.130776 0.008978 -0.241300
v 0.230379 -0.012170 -0.138361
v 0.226804 0.013463 -0.115965
v 0.234308 0.005621 -0.141443
v 0.250301 0.013807 -0.001852
v 0.269022 0.008978 -0.001853
v 0.230378 -0.012170 0.134656
v 0.219864 0.013457 0.129398
v 0.234308 0.005621 0.137738
v 0.106345 0.013730 0.231157
v 0.130776 0.008978 0.237595
v -0.008173 0.012079 0.272383
v -0.136353 0.013807 0.221382
v -0.145714 0.008978 0.237595
v -0.244612 0.012079 0.135875
v -0.281704 -0.012170 -0.001149
v -0.286649 0.005621 -0.001853
v -0.246175 -0.011581 -0.137837
v -0.238001 0.014112 -0.116502
v -0.249246 0.005621 -0.141443
v -0.147058 -0.005711 -0.243630
v 0.064077 -0.009069 -0.268866
v 0.137417 -0.013821 -0.216923
v 0.064077 0.008978 -0.268866
v 0.187999 -0.009069 -0.197320
v 0.187999 0.008978 -0.197320
v 0.259544 -0.009069 -0.073399
v 0.250301 -0.013897 -0.001853
v 0.259544 0.008978 -0.073399
v 0.259544 -0.009069 0.069693
v 0.259544 0.008978 0.069693
v 0.187999 -0.009069 0.193614
v 0.121340 -0.014112 0.223711
v 0.187999 0.008978 0.193614
v 0.064077 -0.009069 0.265160
v -0.068932 -0.011567 0.265310
v 0.064077 0.008978 0.265160
v -0.079015 0.008978 0.265160
v -0.202936 -0.009069 0.193614
v -0.194811 -0.013799 0.185329
v -0.202936 0.008978 0.193614
v -0.274482 -0.009069 0.069693
v -0.274631 0.011476 0.059611
v -0.274482 -0.009069 -0.073399
v -0.274482 0.008978 -0.073399
v -0.202936 -0.009069 -0.197320
v -0.139258 -0.013935 -0.226736
v -0.144643 0.011917 -0.239446
v -0.202936 0.008978 -0.197320
v -0.079015 -0.009069 -0.268866
v -0.079015 0.008978 -0.268866
v 0.132121 -0.005711 -0.243630
v 0.271712 -0.005711 -0.001853
v 0.132122 -0.005712 0.239924
v -0.007469 -0.005711 0.277327
v -0.147059 -0.005711 0.239924
v -0.249246 -0.005711 0.137737
v 0.065019 -0.000045 -0.272382
v -0.079957 -0.000045 -0.272382
v 0.190573 -0.000045 -0.199894
v 0.263060 -0.000045 -0.074341
v 0.263061 -0.000045 0.070635
v 0.190573 -0.000045 0.196188
v 0.065019 -0.000045 0.268676
v -0.079957 -0.000045 0.268676
v -0.205510 -0.000045 0.196188
v -0.277998 -0.000045 0.070635
v -0.277998 -0.000045 -0.074341
v -0.205510 -0.000045 -0.199894
v -0.045381 -0.007210 -0.321212
v 0.231514 -0.006850 -0.213567
v 0.021777 -0.007210 0.321212
v -0.273190 -0.007210 0.189686
v -0.306769 -0.007210 -0.131526
v 0.177622 -0.008894 -0.189423
v 0.214973 -0.007327 0.237966
v 0.306769 -0.006897 0.005014
v -0.252592 -0.009114 0.139020
v -0.252592 -0.005306 0.139020
v -0.127038 -0.009458 -0.199596
v -0.127039 -0.004962 -0.199596
vn 0.0094 -0.9781 -0.2080
vn -0.0061 -0.4235 -0.9059
vn 0.0009 0.7729 -0.6345
vn 0.0864 0.9884 -0.1245
vn 0.3654 0.6675 -0.6488
vn 0.5569 -0.7671 -0.3185
vn 0.1855 0.9779 -0.0966
vn 0.7815 0.4235 -0.4582
vn 0.1361 0.9907 0.0003
vn 0.7462 0.6657 -0.0000
vn 0.5566 -0.7673 0.3186
vn 0.1991 0.9732 0.1154
vn 0.7933 0.3995 0.4595
vn 0.0649 0.9884 0.1371
vn 0.3792 0.6675 0.6408
vn -0.0026 0.7671 0.6415
vn -0.0682 0.9907 0.1175
vn -0.3731 0.6657 0.6463
vn -0.5508 0.7716 0.3183
vn -0.6331 -0.7741 0.0021
vn -0.9064 0.4222 -0.0106
vn -0.5643 -0.7616 -0.3188
vn -0.1667 0.9821 -0.0872
vn -0.7753 0.4381 -0.4550
vn -0.4554 -0.4099 -0.7903
vn 0.1746 -0.7536 -0.6337
vn 0.1056 -0.9802 -0.1675
vn 0.1747 0.7479 -0.6404
vn 0.4810 -0.7366 -0.4755
vn 0.4671 0.7518 -0.4653
vn 0.6438 -0.7452 -0.1737
vn 0.1867 -0.9824 -0.0001
vn 0.6421 0.7486 -0.1652
vn 0.6438 -0.7452 0.1737
vn 0.6377 0.7523 0.1651
vn 0.4774 -0.7409 0.4724
vn 0.1023 -0.9779 0.1822
vn 0.4578 0.7561 0.4678
vn 0.1592 -0.7658 0.6230
vn -0.1166 -0.8224 0.5569
vn 0.1749 0.7347 0.6555
vn -0.1752 0.7433 0.6456
vn -0.5047 -0.7002 0.5050
vn -0.1531 -0.9765 0.1516
vn -0.4715 0.7433 0.4745
vn -0.6265 -0.7607 0.1698
vn -0.5584 0.8213 0.1167
vn -0.6634 -0.7271 -0.1766
vn -0.6282 0.7614 -0.1601
vn -0.4762 -0.7442 -0.4683
vn -0.1086 -0.9767 -0.1850
vn -0.3179 0.7699 -0.5533
vn -0.4664 0.7503 -0.4685
vn -0.1656 -0.7583 -0.6305
vn -0.1785 0.7232 -0.6671
vn 0.4392 -0.4648 -0.7688
vn 0.8841 -0.4673 -0.0000
vn 0.4468 -0.4503 0.7730
vn 0.0106 -0.4222 0.9064
vn -0.4387 -0.4776 0.7612
vn -0.7765 -0.4487 0.4425
vn 0.2557 0.0070 -0.9667
vn -0.2584 0.0092 -0.9660
vn 0.7097 -0.0021 -0.7045
vn 0.9651 -0.0018 -0.2619
vn 0.9651 -0.0018 0.2619
vn 0.7097 -0.0021 0.7045
vn 0.2552 0.0073 0.9669
vn -0.2712 -0.0516 0.9611
vn -0.7093 0.0070 0.7048
vn -0.9606 0.0586 0.2716
vn -0.9663 -0.0085 -0.2572
vn -0.7071 -0.0000 -0.7072
vn -0.0357 0.0018 -0.9994
vn 0.7747 0.0113 -0.6322
vn 0.1820 0.0005 0.9833
vn -0.7316 -0.0000 0.6817
vn -0.9212 -0.0000 -0.3890
vn 0.0153 -0.9997 -0.0180
vn 0.7133 -0.0009 0.7008
vn 0.9881 0.0056 0.1536
vn -0.0333 -0.9994 0.0106
vn -0.0332 0.9994 0.0106
vn -0.0112 -0.9998 -0.0169
vn -0.0105 0.9998 -0.0168
vt 0.803071 0.829774
vt 0.802243 0.831223
vt 0.801398 0.827790
vt 0.804082 0.831536
vt 0.804419 0.815055
vt 0.813982 0.809421
vt 0.809476 0.816189
vt 0.805533 0.830681
vt 0.805076 0.828127
vt 0.806417 0.831685
vt 0.814060 0.818608
vt 0.825173 0.818536
vt 0.814640 0.824809
vt 0.807211 0.832698
vt 0.806183 0.834206
vt 0.820633 0.826506
vt 0.830301 0.830055
vt 0.822178 0.831453
vt 0.807656 0.835284
vt 0.809640 0.833611
vt 0.822376 0.836632
vt 0.828482 0.844336
vt 0.817296 0.840235
vt 0.818822 0.846273
vt 0.818919 0.857371
vt 0.815311 0.850085
vt 0.804732 0.839424
vt 0.804869 0.837517
vt 0.807173 0.840306
vt 0.802303 0.839595
vt 0.800576 0.837708
vt 0.800798 0.854588
vt 0.792891 0.861187
vt 0.795741 0.853453
vt 0.799685 0.838961
vt 0.800141 0.841516
vt 0.791157 0.851035
vt 0.786851 0.848188
vt 0.798006 0.836945
vt 0.797124 0.839385
vt 0.035759 0.390434
vt 0.153368 0.174383
vt 0.054547 0.635567
vt 0.782842 0.833011
vt 0.775891 0.827058
vt 0.787922 0.829408
vt 0.782874 0.842817
vt 0.786395 0.823370
vt 0.788898 0.818352
vt 0.800485 0.830219
vt 0.800306 0.832085
vt 0.798045 0.829337
vt 0.807247 0.836504
vt 0.797751 0.835683
vt 0.803526 0.824809
vt 0.799296 0.814425
vt 0.798397 0.825692
vt 0.697777 0.930177
vt 0.456340 0.973576
vt 0.331151 0.054602
vt 0.773656 0.113632
vt 0.543661 0.026424
vt 0.970151 0.576471
vt 0.941180 0.333135
vt 0.888298 0.774600
vt 0.808409 0.826609
vt 0.811738 0.830610
vt 0.812621 0.835738
vt 0.810821 0.840622
vt 0.806749 0.837745
vt 0.806821 0.843950
vt 0.805921 0.855218
vt 0.803819 0.841853
vt 0.801692 0.844833
vt 0.796809 0.843033
vt 0.793480 0.839033
vt 0.792597 0.833904
vt 0.797561 0.834359
vt 0.797980 0.833145
vt 0.794397 0.829021
vt 0.798469 0.831897
vt 0.810924 0.852845
vt 0.787183 0.837477
vt 0.794293 0.816797
vt 0.200719 0.865906
vt 0.862026 0.800898
vt 0.738082 0.723913
vt 0.812331 0.500000
vt 0.510313 0.732739
vt 0.437671 1.000000
vt 0.343646 0.732738
vt 0.271004 1.000000
vt 0.176980 0.732739
vt 0.151349 0.420869
vt 0.442932 0.381498
vt 0.250000 0.490000
vt 0.082058 0.153038
vt 0.042154 0.370000
vt 0.418554 0.099708
vt 0.250000 0.010000
vt 0.104338 1.000000
vt 0.018708 0.732740
vt 0.905066 0.410491
vt 0.651349 0.420868
vt 0.750000 0.490000
vt 0.905066 0.089509
vt 0.990000 0.250000
vt 0.582058 0.153038
vt 0.750000 0.010000
vt 0.542154 0.370000
vt 0.988603 0.726567
vt 0.886829 0.500000
vt 0.395665 0.500000
vt 0.228998 0.500000
vt 0.473923 0.250000
vt 0.062331 0.500000
s 1
usemtl piza.001
f 26/1/26 1/2/1 2/3/2
f 26/1/26 27/4/27 1/2/1
f 28/5/28 4/6/4 5/7/5
f 29/8/29 27/4/27 56/9/56
f 29/8/29 6/10/6 27/4/27
f 30/11/30 7/12/7 8/13/8
f 31/14/31 32/15/32 6/10/6
f 33/16/33 9/17/9 10/18/10
f 34/19/34 32/15/32 57/20/57
f 35/21/35 12/22/12 13/23/13
f 35/21/35 9/17/9 12/22/12
f 38/24/38 14/25/14 15/26/15
f 39/27/39 37/28/37 58/29/58
f 39/27/39 40/30/40 37/28/37
f 40/30/40 44/31/44 37/28/37
f 42/32/42 17/33/17 18/34/18
f 43/35/43 44/31/44 60/36/60
f 45/37/45 17/33/17 19/38/19
f 46/39/46 44/31/44 61/40/61
f 47/41/47 19/42/19 23/43/23
f 49/44/49 23/45/23 24/46/24
f 49/44/49 47/47/47 23/45/23
f 53/48/53 23/45/23 52/49/52
f 54/50/54 51/51/51 25/52/25
f 54/50/54 1/2/1 51/51/51
f 27/4/27 51/51/51 1/2/1
f 32/15/32 27/4/27 6/10/6
f 37/28/37 32/15/32 11/53/11
f 51/51/51 44/31/44 20/54/20
f 2/3/2 62/55/62 26/1/26
f 3/56/3 62/55/62 2/3/2
f 62/55/62 5/7/5 56/9/56
f 62/55/62 56/9/56 26/1/26
f 25/52/25 63/57/63 54/50/54
f 52/49/52 63/57/63 25/52/25
f 63/57/63 3/56/3 2/3/2
f 63/57/63 2/3/2 54/50/54
f 23/43/23 4/58/4 3/59/3
f 17/60/17 23/43/23 19/42/19
f 14/61/14 17/60/17 16/62/16
f 9/63/9 14/61/14 12/64/12
f 4/58/4 9/63/9 7/65/7
f 56/9/56 64/66/64 29/8/29
f 5/7/5 64/66/64 56/9/56
f 64/66/64 6/10/6 29/8/29
f 6/10/6 65/67/65 31/14/31
f 65/67/65 10/18/10 57/20/57
f 65/67/65 57/20/57 31/14/31
f 57/20/57 66/68/66 34/19/34
f 10/18/10 66/68/66 57/20/57
f 66/68/66 11/53/11 34/19/34
f 11/53/11 67/69/67 36/70/36
f 67/69/67 15/26/15 58/29/58
f 67/69/67 58/29/58 36/70/36
f 58/29/58 68/71/68 39/27/39
f 15/26/15 68/71/68 58/29/58
f 68/71/68 16/72/16 59/73/59
f 68/71/68 59/73/59 39/27/39
f 59/73/59 69/74/69 40/30/40
f 16/72/16 69/74/69 59/73/59
f 69/74/69 18/34/18 60/36/60
f 69/74/69 60/36/60 40/30/40
f 60/36/60 70/75/70 43/35/43
f 18/34/18 70/75/70 60/36/60
f 70/75/70 19/38/19 61/40/61
f 70/75/70 61/40/61 43/35/43
f 61/40/61 71/76/71 46/39/46
f 19/38/19 71/76/71 61/40/61
f 71/76/71 20/54/20 46/39/46
f 20/54/20 72/77/72 48/78/48
f 72/77/72 22/79/22 48/78/48
f 22/79/22 73/80/73 50/81/50
f 73/80/73 52/49/52 25/52/25
f 73/80/73 25/52/25 50/81/50
f 26/1/26 56/9/56 27/4/27
f 28/5/28 3/56/3 4/6/4
f 30/11/30 4/6/4 7/12/7
f 30/11/30 5/7/5 4/6/4
f 31/14/31 57/20/57 32/15/32
f 33/16/33 7/12/7 9/17/9
f 33/16/33 8/13/8 7/12/7
f 34/19/34 11/53/11 32/15/32
f 35/21/35 10/18/10 9/17/9
f 36/70/36 37/28/37 11/53/11
f 36/70/36 58/29/58 37/28/37
f 38/24/38 12/22/12 14/25/14
f 38/24/38 13/23/13 12/22/12
f 39/27/39 59/73/59 40/30/40
f 41/82/41 14/25/14 16/72/16
f 41/82/41 15/26/15 14/25/14
f 40/30/40 60/36/60 44/31/44
f 42/32/42 16/72/16 17/33/17
f 43/35/43 61/40/61 44/31/44
f 45/37/45 18/34/18 17/33/17
f 46/39/46 20/54/20 44/31/44
f 48/78/48 22/79/22 20/54/20
f 22/79/22 51/51/51 20/54/20
f 49/44/49 21/83/21 47/47/47
f 50/81/50 51/51/51 22/79/22
f 50/81/50 25/52/25 51/51/51
f 53/48/53 24/46/24 23/45/23
f 54/50/54 2/3/2 1/2/1
f 55/84/55 52/49/52 3/56/3
f 52/85/52 23/43/23 3/59/3
f 27/4/27 37/28/37 51/51/51
f 32/15/32 37/28/37 27/4/27
f 51/51/51 37/28/37 44/31/44
f 3/56/3 28/5/28 62/55/62
f 62/55/62 28/5/28 5/7/5
f 52/49/52 55/84/55 63/57/63
f 63/57/63 55/84/55 3/56/3
f 14/61/14 23/43/23 17/60/17
f 9/63/9 23/43/23 14/61/14
f 4/58/4 23/43/23 9/63/9
f 5/7/5 30/11/30 64/66/64
f 64/66/64 30/11/30 8/13/8
f 64/66/64 8/13/8 6/10/6
f 6/10/6 8/13/8 65/67/65
f 8/13/8 33/16/33 65/67/65
f 65/67/65 33/16/33 10/18/10
f 10/18/10 35/21/35 66/68/66
f 66/68/66 35/21/35 13/23/13
f 66/68/66 13/23/13 11/53/11
f 11/53/11 13/23/13 67/69/67
f 13/23/13 38/24/38 67/69/67
f 67/69/67 38/24/38 15/26/15
f 15/26/15 41/82/41 68/71/68
f 68/71/68 41/82/41 16/72/16
f 16/72/16 42/32/42 69/74/69
f 69/74/69 42/32/42 18/34/18
f 18/34/18 45/37/45 70/75/70
f 70/75/70 45/37/45 19/38/19
f 19/38/19 47/47/47 71/76/71
f 71/76/71 47/47/47 21/83/21
f 71/76/71 21/83/21 20/54/20
f 20/54/20 21/83/21 72/77/72
f 21/83/21 49/44/49 72/77/72
f 72/77/72 49/44/49 24/46/24
f 72/77/72 24/46/24 22/79/22
f 22/79/22 24/46/24 73/80/73
f 24/46/24 53/48/53 73/80/73
f 73/80/73 53/48/53 52/49/52
usemtl sciana
f 75/86/75 81/87/81 79/88/79
f 76/89/76 83/90/83 77/91/77
f 77/91/77 83/92/83 78/93/78
f 85/94/85 75/95/75 74/96/74
f 83/97/83 85/94/85 78/98/78
f 80/99/80 83/97/83 76/100/76
f 78/93/78 85/101/85 74/102/74
f 79/103/79 84/104/84 74/105/74
f 80/106/80 79/103/79 81/107/81
f 82/108/82 80/106/80 76/109/76
f 84/104/84 82/108/82 78/110/78
f 74/111/74 75/86/75 79/112/79
f 76/89/76 77/91/77 82/113/82
f 77/91/77 78/93/78 82/114/82
f 80/99/80 85/94/85 83/97/83
f 81/115/81 85/94/85 80/99/80
f 75/95/75 85/94/85 81/115/81
f 78/93/78 74/102/74 84/116/84
f 80/106/80 84/104/84 79/103/79
f 82/108/82 84/104/84 80/106/80
