# Blender 5.1.2
# www.blender.org
mtllib rack.mtl
o Cube.001
v -0.503993 0.062341 -0.052830
v -0.503993 0.098535 -0.052830
v -0.503993 0.062341 -0.122272
v -0.503993 0.098535 -0.122272
v 0.503993 0.062341 -0.052830
v 0.503993 0.098535 -0.052830
v 0.503993 0.062341 -0.122272
v 0.503993 0.098535 -0.122272
v -0.503993 -0.781268 -0.122272
v -0.503993 -0.777989 0.122272
v -0.503993 0.938866 -0.027933
v -0.503993 0.942144 -0.122272
v 0.503993 0.942144 -0.122272
v 0.503993 -0.781268 -0.122272
v 0.503993 -0.777989 0.122272
v 0.503993 0.938866 -0.027933
v -0.549410 -0.781268 -0.122272
v -0.549410 -0.777989 0.122272
v -0.549410 0.938866 -0.027933
v -0.549410 0.942144 -0.122272
v 0.549410 0.942144 -0.122272
v 0.549410 -0.781268 -0.122272
v 0.549410 -0.777989 0.122272
v 0.549410 0.938866 -0.027933
v -0.227003 -0.942144 -0.072546
v -0.227002 0.687450 -0.072546
v -0.227003 -0.942144 -0.095410
v -0.227002 0.687450 -0.079196
v -0.207202 -0.942144 -0.083978
v -0.221243 0.687450 -0.075871
v -0.207202 -0.942144 -0.061114
v -0.221243 0.687450 -0.069221
v -0.227003 -0.942144 -0.049682
v -0.227002 0.687450 -0.065896
v -0.246804 -0.942144 -0.061114
v -0.232761 0.687450 -0.069221
v -0.246804 -0.942144 -0.083978
v -0.232761 0.687450 -0.075871
v -0.227002 -0.127347 -0.087303
v -0.214222 -0.127347 -0.079925
v -0.214222 -0.127347 -0.065167
v -0.227002 -0.127347 -0.057789
v -0.239782 -0.127347 -0.065167
v -0.239782 -0.127347 -0.079925
v -0.167003 -0.942144 -0.072546
v -0.167002 0.687450 -0.072546
v -0.167003 -0.942144 -0.095410
v -0.167002 0.687450 -0.079196
v -0.147202 -0.942144 -0.083978
v -0.161243 0.687450 -0.075871
v -0.147202 -0.942144 -0.061114
v -0.161243 0.687450 -0.069221
v -0.167003 -0.942144 -0.049682
v -0.167002 0.687450 -0.065896
v -0.186804 -0.942144 -0.061114
v -0.172761 0.687450 -0.069221
v -0.186804 -0.942144 -0.083978
v -0.172761 0.687450 -0.075871
v -0.167002 -0.127347 -0.087303
v -0.154222 -0.127347 -0.079925
v -0.154222 -0.127347 -0.065167
v -0.167002 -0.127347 -0.057789
v -0.179782 -0.127347 -0.065167
v -0.179782 -0.127347 -0.079925
v -0.107003 -0.942144 -0.072546
v -0.107002 0.687450 -0.072546
v -0.107003 -0.942144 -0.095410
v -0.107002 0.687450 -0.079196
v -0.087202 -0.942144 -0.083978
v -0.101243 0.687450 -0.075871
v -0.087202 -0.942144 -0.061114
v -0.101243 0.687450 -0.069221
v -0.107003 -0.942144 -0.049682
v -0.107002 0.687450 -0.065896
v -0.126804 -0.942144 -0.061114
v -0.112761 0.687450 -0.069221
v -0.126804 -0.942144 -0.083978
v -0.112761 0.687450 -0.075871
v -0.107002 -0.127347 -0.087303
v -0.094223 -0.127347 -0.079925
v -0.094223 -0.127347 -0.065167
v -0.107002 -0.127347 -0.057789
v -0.119782 -0.127347 -0.065167
v -0.119782 -0.127347 -0.079925
v 0.112997 -0.942144 -0.072546
v 0.112998 0.687450 -0.072546
v 0.112997 -0.942144 -0.095410
v 0.112998 0.687450 -0.079196
v 0.132798 -0.942144 -0.083978
v 0.118757 0.687450 -0.075871
v 0.132798 -0.942144 -0.061114
v 0.118757 0.687450 -0.069221
v 0.112997 -0.942144 -0.049682
v 0.112998 0.687450 -0.065896
v 0.093196 -0.942144 -0.061114
v 0.107239 0.687450 -0.069221
v 0.093196 -0.942144 -0.083978
v 0.107239 0.687450 -0.075871
v 0.112998 -0.127347 -0.087303
v 0.125777 -0.127347 -0.079925
v 0.125777 -0.127347 -0.065167
v 0.112998 -0.127347 -0.057789
v 0.100218 -0.127347 -0.065167
v 0.100218 -0.127347 -0.079925
v 0.162997 -0.942144 -0.072546
v 0.162998 0.687450 -0.072546
v 0.162997 -0.942144 -0.095410
v 0.162998 0.687450 -0.079196
v 0.182798 -0.942144 -0.083978
v 0.168757 0.687450 -0.075871
v 0.182798 -0.942144 -0.061114
v 0.168757 0.687450 -0.069221
v 0.162997 -0.942144 -0.049682
v 0.162998 0.687450 -0.065896
v 0.143196 -0.942144 -0.061114
v 0.157239 0.687450 -0.069221
v 0.143196 -0.942144 -0.083978
v 0.157239 0.687450 -0.075871
v 0.162997 -0.127347 -0.087303
v 0.175777 -0.127347 -0.079925
v 0.175777 -0.127347 -0.065167
v 0.162997 -0.127347 -0.057789
v 0.150218 -0.127347 -0.065167
v 0.150218 -0.127347 -0.079925
vn -1.0000 -0.0000 -0.0000
vn -0.0000 -0.0000 -1.0000
vn 1.0000 -0.0000 -0.0000
vn -0.0000 -0.0000 1.0000
vn -0.0000 -1.0000 -0.0000
vn -0.0000 1.0000 -0.0000
vn -0.0000 0.0872 0.9962
vn -0.0000 -0.9999 0.0134
vn -0.0000 -0.0000 -0.0000
vn -0.0000 0.9994 0.0347
vn 0.5000 0.0086 -0.8660
vn 0.4999 0.0086 -0.8660
vn 1.0000 0.0086 -0.0000
vn 0.5000 0.0086 0.8660
vn 0.4999 0.0086 0.8660
vn -0.5000 0.0086 0.8660
vn -0.4999 0.0086 0.8660
vn -1.0000 0.0086 -0.0000
vn -0.5000 0.0086 -0.8660
vn -0.4999 0.0086 -0.8660
vt 0.625000 0.750000
vt 0.375000 0.750000
vt 0.625000 0.250000
vt 0.375000 0.500000
vt 0.375000 0.250000
vt 0.125000 0.750000
vt 0.125000 0.500000
vt 0.375000 1.000000
vt 0.875000 0.500000
vt 0.625000 0.500000
vt 0.625000 1.000000
vt 0.875000 0.750000
vt 0.625000 0.000000
vt 0.375000 0.000000
vt 0.038191 0.193634
vt 0.053380 0.219943
vt 0.023002 0.219943
vt 0.088682 0.193634
vt 0.093100 0.201286
vt 0.084264 0.201286
vt 0.007812 0.283173
vt 0.989556 0.295881
vt 0.989018 0.315481
vt 0.007812 0.193634
vt 0.097518 0.193634
vt 0.008055 0.274341
vt 0.989879 0.276277
vt 0.023002 0.167326
vt 0.093100 0.185982
vt 0.008200 0.265506
vt 0.989986 0.256670
vt 0.053380 0.167326
vt 0.084264 0.185982
vt 0.008249 0.256670
vt 0.989879 0.237064
vt 0.068569 0.193634
vt 0.079846 0.193634
vt 0.008200 0.247835
vt 0.989556 0.217459
vt 0.008055 0.239000
vt 0.989018 0.197859
vt 0.008350 0.059720
vt 0.989018 0.007812
vt 0.989852 0.038179
vt 0.008673 0.079325
vt 0.990352 0.068553
vt 0.990518 0.098931
vt 0.008673 0.118538
vt 0.990352 0.129309
vt 0.008350 0.138142
vt 0.989852 0.159683
vt 0.007812 0.157742
vt 0.989018 0.190050
vt 0.007812 0.230167
vt 0.007812 0.040120
vt 0.008780 0.098931
s 0
usemtl drewno.009
f 6/1/1 15/2/1 16/1/1
f 4/3/2 7/4/2 3/5/2
f 1/6/3 9/7/3 3/7/3
f 6/1/4 1/8/4 5/2/4
f 7/4/5 1/6/5 3/7/5
f 4/9/6 6/1/6 8/10/6
f 15/2/7 24/1/7 16/1/7
f 10/6/8 17/7/8 9/7/8
f 5/2/1 14/4/1 15/2/1
f 4/3/9 9/5/9 12/3/9
f 2/11/3 10/8/3 1/8/3
f 8/10/1 16/1/1 13/10/1
f 7/4/9 13/10/9 14/4/9
f 4/9/3 11/12/3 2/12/3
f 19/13/1 17/5/1 18/14/1
f 22/4/3 24/1/3 23/2/3
f 14/4/8 23/2/8 15/2/8
f 9/5/2 20/3/2 12/3/2
f 11/11/7 18/8/7 10/8/7
f 16/1/10 21/10/10 13/10/10
f 13/10/2 22/4/2 14/4/2
f 12/9/10 19/12/10 11/12/10
f 6/1/1 5/2/1 15/2/1
f 4/3/2 8/10/2 7/4/2
f 1/6/3 10/6/3 9/7/3
f 6/1/4 2/11/4 1/8/4
f 7/4/5 5/2/5 1/6/5
f 4/9/6 2/12/6 6/1/6
f 15/2/7 23/2/7 24/1/7
f 10/6/8 18/6/8 17/7/8
f 5/2/1 7/4/1 14/4/1
f 4/3/2 3/5/2 9/5/2
f 2/11/3 11/11/3 10/8/3
f 8/10/1 6/1/1 16/1/1
f 7/4/2 8/10/2 13/10/2
f 4/9/3 12/9/3 11/12/3
f 19/13/1 20/3/1 17/5/1
f 22/4/3 21/10/3 24/1/3
f 14/4/8 22/4/8 23/2/8
f 9/5/2 17/5/2 20/3/2
f 11/11/7 19/11/7 18/8/7
f 16/1/10 24/1/10 21/10/10
f 13/10/2 21/10/2 22/4/2
f 12/9/10 20/9/10 19/12/10
s 1
usemtl kijek.001
f 25/15/5 27/16/5 29/17/5
f 26/18/6 30/19/6 28/20/6
f 28/21/11 40/22/12 39/23/12
f 25/15/5 29/17/5 31/24/5
f 26/18/6 32/25/6 30/19/6
f 30/26/13 41/27/13 40/22/13
f 25/15/5 31/24/5 33/28/5
f 26/18/6 34/29/6 32/25/6
f 32/30/14 42/31/15 41/27/15
f 25/15/5 33/28/5 35/32/5
f 26/18/6 36/33/6 34/29/6
f 34/34/16 43/35/17 42/31/17
f 25/15/5 35/32/5 37/36/5
f 26/18/6 38/37/6 36/33/6
f 36/38/18 44/39/18 43/35/18
f 25/15/5 37/36/5 27/16/5
f 26/18/6 28/20/6 38/37/6
f 38/40/19 39/41/20 44/39/20
f 44/42/20 27/43/19 37/44/19
f 43/45/18 37/44/18 35/46/18
f 33/47/16 43/45/17 35/46/16
f 41/48/15 33/47/14 31/49/14
f 40/50/13 31/49/13 29/51/13
f 39/52/12 29/51/11 27/53/11
f 28/21/11 30/26/11 40/22/12
f 30/26/13 32/30/13 41/27/13
f 32/30/14 34/34/14 42/31/15
f 34/34/16 36/38/16 43/35/17
f 36/38/18 38/40/18 44/39/18
f 38/40/19 28/54/19 39/41/20
f 44/42/20 39/55/20 27/43/19
f 43/45/18 44/42/18 37/44/18
f 33/47/16 42/56/17 43/45/17
f 41/48/15 42/56/15 33/47/14
f 40/50/13 41/48/13 31/49/13
f 39/52/12 40/50/12 29/51/11
f 45/15/5 47/16/5 49/17/5
f 46/18/6 50/19/6 48/20/6
f 48/21/11 60/22/12 59/23/12
f 45/15/5 49/17/5 51/24/5
f 46/18/6 52/25/6 50/19/6
f 50/26/13 61/27/13 60/22/13
f 45/15/5 51/24/5 53/28/5
f 46/18/6 54/29/6 52/25/6
f 52/30/14 62/31/15 61/27/15
f 45/15/5 53/28/5 55/32/5
f 46/18/6 56/33/6 54/29/6
f 54/34/16 63/35/17 62/31/17
f 45/15/5 55/32/5 57/36/5
f 46/18/6 58/37/6 56/33/6
f 56/38/18 64/39/18 63/35/18
f 45/15/5 57/36/5 47/16/5
f 46/18/6 48/20/6 58/37/6
f 58/40/19 59/41/20 64/39/20
f 64/42/20 47/43/19 57/44/19
f 63/45/18 57/44/18 55/46/18
f 62/56/17 55/46/16 53/47/16
f 61/48/15 53/47/14 51/49/14
f 60/50/13 51/49/13 49/51/13
f 59/52/12 49/51/11 47/53/11
f 48/21/11 50/26/11 60/22/12
f 50/26/13 52/30/13 61/27/13
f 52/30/14 54/34/14 62/31/15
f 54/34/16 56/38/16 63/35/17
f 56/38/18 58/40/18 64/39/18
f 58/40/19 48/54/19 59/41/20
f 64/42/20 59/55/20 47/43/19
f 63/45/18 64/42/18 57/44/18
f 62/56/17 63/45/17 55/46/16
f 61/48/15 62/56/15 53/47/14
f 60/50/13 61/48/13 51/49/13
f 59/52/12 60/50/12 49/51/11
f 65/15/5 67/16/5 69/17/5
f 66/18/6 70/19/6 68/20/6
f 68/21/11 80/22/12 79/23/12
f 65/15/5 69/17/5 71/24/5
f 66/18/6 72/25/6 70/19/6
f 70/26/13 81/27/13 80/22/13
f 65/15/5 71/24/5 73/28/5
f 66/18/6 74/29/6 72/25/6
f 72/30/14 82/31/15 81/27/15
f 65/15/5 73/28/5 75/32/5
f 66/18/6 76/33/6 74/29/6
f 74/34/16 83/35/17 82/31/17
f 65/15/5 75/32/5 77/36/5
f 66/18/6 78/37/6 76/33/6
f 76/38/18 84/39/18 83/35/18
f 65/15/5 77/36/5 67/16/5
f 66/18/6 68/20/6 78/37/6
f 78/40/19 79/41/20 84/39/20
f 84/42/20 67/43/19 77/44/19
f 83/45/18 77/44/18 75/46/18
f 73/47/16 83/45/17 75/46/16
f 81/48/15 73/47/14 71/49/14
f 80/50/13 71/49/13 69/51/13
f 79/52/12 69/51/11 67/53/11
f 68/21/11 70/26/11 80/22/12
f 70/26/13 72/30/13 81/27/13
f 72/30/14 74/34/14 82/31/15
f 74/34/16 76/38/16 83/35/17
f 76/38/18 78/40/18 84/39/18
f 78/40/19 68/54/19 79/41/20
f 84/42/20 79/55/20 67/43/19
f 83/45/18 84/42/18 77/44/18
f 73/47/16 82/56/17 83/45/17
f 81/48/15 82/56/15 73/47/14
f 80/50/13 81/48/13 71/49/13
f 79/52/12 80/50/12 69/51/11
f 85/15/5 87/16/5 89/17/5
f 86/18/6 90/19/6 88/20/6
f 88/21/11 100/22/12 99/23/12
f 85/15/5 89/17/5 91/24/5
f 86/18/6 92/25/6 90/19/6
f 90/26/13 101/27/13 100/22/13
f 85/15/5 91/24/5 93/28/5
f 86/18/6 94/29/6 92/25/6
f 92/30/14 102/31/15 101/27/15
f 85/15/5 93/28/5 95/32/5
f 86/18/6 96/33/6 94/29/6
f 94/34/16 103/35/17 102/31/17
f 85/15/5 95/32/5 97/36/5
f 86/18/6 98/37/6 96/33/6
f 96/38/18 104/39/18 103/35/18
f 85/15/5 97/36/5 87/16/5
f 86/18/6 88/20/6 98/37/6
f 98/40/19 99/41/20 104/39/20
f 104/42/20 87/43/19 97/44/19
f 103/45/18 97/44/18 95/46/18
f 102/56/17 95/46/16 93/47/16
f 101/48/15 93/47/14 91/49/14
f 100/50/13 91/49/13 89/51/13
f 99/52/12 89/51/11 87/53/11
f 88/21/11 90/26/11 100/22/12
f 90/26/13 92/30/13 101/27/13
f 92/30/14 94/34/14 102/31/15
f 94/34/16 96/38/16 103/35/17
f 96/38/18 98/40/18 104/39/18
f 98/40/19 88/54/19 99/41/20
f 104/42/20 99/55/20 87/43/19
f 103/45/18 104/42/18 97/44/18
f 102/56/17 103/45/17 95/46/16
f 101/48/15 102/56/15 93/47/14
f 100/50/13 101/48/13 91/49/13
f 99/52/12 100/50/12 89/51/11
f 105/15/5 107/16/5 109/17/5
f 106/18/6 110/19/6 108/20/6
f 108/21/11 120/22/12 119/23/12
f 105/15/5 109/17/5 111/24/5
f 106/18/6 112/25/6 110/19/6
f 110/26/13 121/27/13 120/22/13
f 105/15/5 111/24/5 113/28/5
f 106/18/6 114/29/6 112/25/6
f 112/30/14 122/31/15 121/27/15
f 105/15/5 113/28/5 115/32/5
f 106/18/6 116/33/6 114/29/6
f 114/34/16 123/35/17 122/31/17
f 105/15/5 115/32/5 117/36/5
f 106/18/6 118/37/6 116/33/6
f 116/38/18 124/39/18 123/35/18
f 105/15/5 117/36/5 107/16/5
f 106/18/6 108/20/6 118/37/6
f 124/39/20 108/54/19 119/41/20
f 124/42/20 107/43/19 117/44/19
f 123/45/18 117/44/18 115/46/18
f 113/47/16 123/45/17 115/46/16
f 121/48/15 113/47/14 111/49/14
f 120/50/13 111/49/13 109/51/13
f 119/52/12 109/51/11 107/53/11
f 108/21/11 110/26/11 120/22/12
f 110/26/13 112/30/13 121/27/13
f 112/30/14 114/34/14 122/31/15
f 114/34/16 116/38/16 123/35/17
f 116/38/18 118/40/18 124/39/18
f 124/39/20 118/40/19 108/54/19
f 124/42/20 119/55/20 107/43/19
f 123/45/18 124/42/18 117/44/18
f 113/47/16 122/56/17 123/45/17
f 121/48/15 122/56/15 113/47/14
f 120/50/13 121/48/13 111/49/13
f 119/52/12 120/50/12 109/51/11
