# Blender 5.1.2
# www.blender.org
mtllib table1.mtl
o Cube.018
v -0.735266 0.206609 -0.364533
v -0.735266 0.323109 -0.364533
v 0.735267 0.206609 -0.364534
v 0.735267 0.323109 -0.364534
v -0.735266 0.206609 0.364533
v -0.735266 0.323109 0.364533
v 0.735267 0.206609 0.364533
v 0.735267 0.323109 0.364533
v 0.000001 0.206609 -0.364533
v 0.735267 0.206609 -0.000000
v 0.000001 0.206609 0.364533
v -0.735266 0.206609 0.000000
v 0.000001 0.206609 -0.000000
v -0.367633 0.206609 -0.364533
v 0.735267 0.206609 -0.182267
v 0.367634 0.206609 0.364533
v -0.735266 0.206609 0.182267
v 0.367634 0.206609 -0.364533
v 0.735267 0.206609 0.182267
v -0.367633 0.206609 0.364533
v -0.735266 0.206609 -0.182267
v -0.367633 0.206609 -0.000000
v 0.367634 0.206609 -0.000000
v 0.000001 0.206609 -0.182267
v 0.000001 0.206609 0.182267
v 0.367634 0.206609 0.182267
v 0.367634 0.206609 -0.182267
v -0.367633 0.206609 -0.182267
v -0.367633 0.206609 0.182267
v -0.504919 0.206609 -0.331072
v -0.597979 0.206609 -0.331072
v 0.597981 0.206609 -0.215728
v 0.597981 0.206609 -0.331072
v 0.504921 0.206609 0.331072
v 0.597981 0.206609 0.331072
v -0.597979 0.206609 0.215728
v -0.597979 0.206609 0.331072
v 0.504921 0.206609 -0.331072
v 0.597981 0.206609 0.215728
v -0.504919 0.206609 0.331072
v -0.597979 0.206609 -0.215728
v 0.504921 0.206609 0.215728
v 0.504921 0.206609 -0.215728
v -0.504919 0.206609 -0.215728
v -0.504919 0.206609 0.215728
v -0.504919 -0.562619 -0.331072
v -0.597979 -0.562619 -0.331072
v 0.597981 -0.562619 -0.215728
v 0.597981 -0.562619 -0.331072
v 0.504921 -0.562619 0.331072
v 0.597981 -0.562619 0.331072
v -0.597979 -0.562619 0.215728
v -0.597979 -0.562619 0.331072
v 0.504921 -0.562619 -0.331072
v 0.597981 -0.562619 0.215728
v -0.504919 -0.562619 0.331072
v -0.597979 -0.562619 -0.215728
v 0.504921 -0.562619 0.215728
v 0.504921 -0.562619 -0.215728
v -0.504919 -0.562619 -0.215728
v -0.504919 -0.562619 0.215728
v 0.597981 -0.178005 -0.215728
v 0.597981 -0.178005 -0.331072
v 0.504921 -0.098908 -0.215728
v 0.504921 -0.098908 -0.331072
v 0.597981 -0.178005 0.215728
v 0.504921 -0.098907 0.215728
v 0.504921 -0.098907 0.331072
v 0.597981 -0.178005 0.331072
v -0.597979 -0.178038 0.215728
v -0.597979 -0.178038 0.331072
v -0.504919 -0.098912 0.331072
v -0.504919 -0.098912 0.215728
v -0.597979 -0.178005 -0.215728
v -0.504919 -0.098908 -0.215728
v -0.504919 -0.098908 -0.331072
v -0.597979 -0.178005 -0.331072
v 0.504921 -0.064786 0.215728
v 0.504921 -0.064786 0.331072
v 0.597981 0.014355 0.331072
v 0.597981 0.014355 0.215728
v 0.597981 0.014302 -0.331072
v 0.597981 0.014302 -0.215728
v 0.504921 -0.064796 -0.215728
v 0.504921 -0.064796 -0.331072
v -0.597979 0.014285 0.331072
v -0.504919 -0.064798 0.331072
v -0.597979 0.014285 0.215728
v -0.504919 -0.064798 0.215728
v -0.504919 -0.064796 -0.215728
v -0.504919 -0.064796 -0.331072
v -0.597979 0.014302 -0.215728
v -0.597979 0.014302 -0.331072
v 0.590699 0.116111 -0.270053
v 0.590699 0.116111 -0.276748
v -0.590697 0.116111 0.270053
v -0.590697 0.116111 0.276748
v 0.590699 0.116111 0.276747
v 0.590699 0.116111 0.270052
v -0.590697 0.116111 -0.276748
v -0.590697 0.116111 -0.270053
v 0.560949 0.116111 -0.271282
v 0.560949 0.116111 -0.275519
v -0.560948 0.116111 0.271282
v -0.560948 0.116111 0.275518
v 0.560949 0.116111 0.275518
v 0.560949 0.116111 0.271282
v -0.560948 0.116111 -0.275518
v -0.560948 0.116111 -0.271282
vn -0.6289 -0.4480 -0.6355
vn -0.5773 0.5774 -0.5773
vn 0.6289 -0.4480 -0.6355
vn 0.5773 0.5774 -0.5773
vn -0.6289 -0.4480 0.6355
vn -0.5773 0.5774 0.5773
vn 0.6289 -0.4480 0.6355
vn 0.5773 0.5774 0.5773
vn -0.0000 -0.7071 -0.7071
vn 0.7071 -0.7071 -0.0000
vn -0.0000 -0.7071 0.7071
vn -0.7071 -0.7071 -0.0000
vn -0.0000 -1.0000 -0.0000
vn 0.7625 -0.6388 0.1025
vn -0.7625 -0.6388 -0.1025
vn 0.7626 -0.6388 -0.1025
vn -0.7626 -0.6388 0.1025
vn 0.3015 -0.9045 -0.3015
vn -0.0463 -0.7284 -0.6836
vn 0.0463 -0.7284 0.6836
vn 0.0463 -0.7284 -0.6836
vn -0.3015 -0.9045 0.3015
vn -0.0463 -0.7284 0.6836
vn -0.3015 -0.9045 -0.3015
vn 0.3015 -0.9045 0.3015
vn 0.5773 -0.5774 -0.5773
vn -0.5773 -0.5774 -0.5773
vn 0.5773 -0.5774 0.5773
vn 0.5773 -0.5774 -0.5774
vn -0.5773 -0.5774 0.5773
vn -0.5773 -0.5774 0.5774
vn 0.7071 -0.0000 0.7071
vn 0.7071 -0.0000 -0.7071
vn -0.3015 -0.3015 0.9045
vn -0.3015 -0.3015 -0.9045
vn -0.7071 -0.0000 -0.7071
vn -0.7071 -0.0000 0.7071
vn 0.3015 -0.3015 0.9045
vn 0.3015 -0.3015 -0.9045
vn -0.3015 0.3015 -0.9045
vn -0.3015 0.3015 0.9045
vn 0.3015 0.3015 0.9045
vn 0.3015 0.3015 -0.9045
vn 0.1701 -0.8927 0.4174
vn 0.1701 -0.8927 -0.4174
vn -0.1701 -0.8927 -0.4174
vn -0.1701 -0.8927 0.4174
vn -0.7428 -0.5429 0.3918
vn -0.7429 -0.5428 -0.3918
vn 0.7429 -0.5429 -0.3918
vn 0.7428 -0.5429 0.3918
vn -0.7429 -0.5429 0.3918
vn -0.7428 -0.5429 -0.3918
vn 0.7428 -0.5429 -0.3918
vn 0.7429 -0.5429 0.3918
vt 1.939325 1.022877
vt 1.689325 1.022877
vt 1.439325 1.102100
vt 1.112994 1.022877
vt 1.236941 1.022877
vt 1.360887 1.102100
vt 2.189325 1.022877
vt 2.439325 1.102100
vt 0.989048 1.022877
vt 0.865102 1.102100
vt 1.689325 0.989048
vt 1.532684 0.966294
vt 1.439325 0.989048
vt 2.439325 1.360887
vt 1.439325 0.865102
vt 2.439325 0.865103
vt 1.689325 1.112994
vt 1.439325 1.236940
vt 1.689325 1.236940
vt 2.189325 1.112994
vt 1.939325 1.236940
vt 2.189325 1.236940
vt 2.189325 0.865103
vt 1.939325 0.989048
vt 2.189325 0.989048
vt 1.939325 1.112994
vt 2.439325 0.989048
vt 2.439325 1.112994
vt 2.282684 0.887857
vt 1.939325 1.360886
vt 2.189325 1.360886
vt 1.595967 1.338132
vt 1.689325 1.360886
vt 2.439325 1.236941
vt 2.341015 0.929352
vt 1.439325 1.112994
vt 1.939325 0.865103
vt 2.345967 0.761330
vt 2.282684 0.499783
vt 2.345967 0.499783
vt 0.966294 0.815119
vt 0.887857 0.499783
vt 0.887857 0.815119
vt 1.259695 0.761330
vt 1.338132 0.499783
vt 1.338132 0.761330
vt 2.282684 0.815119
vt 2.345967 0.887857
vt 2.345967 1.259695
vt 1.532684 1.338132
vt 1.439325 1.360886
vt 2.282684 1.259695
vt 2.282684 1.338132
vt 1.689325 0.865103
vt 1.595967 0.966294
vt 1.537635 0.924799
vt 2.345967 1.022877
vt 2.341015 0.961337
vt 2.320784 0.961337
vt 1.595967 1.259695
vt 2.282684 0.966294
vt 1.532684 0.887857
vt 1.595967 0.887857
vt 0.887857 1.022877
vt 0.928516 0.961337
vt 0.925635 0.961337
vt 2.345967 0.966294
vt 2.345967 1.338132
vt 0.966294 0.761308
vt 0.887857 0.499783
vt 0.887857 0.761308
vt 1.338132 0.815119
vt 1.259695 0.499783
vt 1.259695 0.815119
vt 2.282684 0.815119
vt 1.532684 0.761330
vt 1.595967 0.499783
vt 1.595967 0.815119
vt 0.887857 0.761330
vt 0.966294 0.499783
vt 0.966294 0.761330
vt 1.259695 0.815119
vt 1.532684 0.761308
vt 1.595967 0.815115
vt 1.532684 0.499783
vt 1.259695 0.499783
vt 1.259695 0.761330
vt 0.887857 0.815115
vt 0.966294 0.499783
vt 0.966294 0.815115
vt 2.345967 0.892104
vt 2.282684 0.838315
vt 1.595967 0.838315
vt 1.259695 0.892104
vt 1.338132 0.892104
vt 0.887857 0.892140
vt 0.966294 0.892140
vt 2.282684 0.838322
vt 2.345967 0.892140
vt 1.595967 0.838314
vt 1.532684 0.892093
vt 0.966294 0.892093
vt 0.887857 0.892093
vt 1.532684 0.892104
vt 1.259695 0.892104
vt 2.282684 1.022877
vt 0.966294 1.022877
vt 0.887857 0.838322
vt 1.259695 1.022877
vt 1.338132 1.022877
vt 1.259695 0.838315
vt 0.966294 1.022877
vt 0.887857 1.022877
vt 1.595967 1.022877
vt 1.532684 1.022877
vt 0.966294 0.838314
vt 1.259695 1.022877
vt 1.338132 0.838315
vt 1.537635 1.301190
vt 1.557866 1.297473
vt 1.537635 1.296637
vt 1.537635 0.929352
vt 1.557866 0.925635
vt 2.341015 0.924799
vt 2.320784 0.928516
vt 2.341015 1.296637
vt 2.320784 1.300354
vt 2.341015 1.301190
vt 1.300354 0.961337
vt 1.537635 0.961337
vt 1.557866 0.961337
vt 1.439325 1.022877
vt 1.297473 0.961337
vt 2.439325 1.022877
vt 0.925635 0.961337
vt 1.360887 1.022877
vt 0.865103 1.102100
vt 0.865103 1.022877
vt 0.865102 1.022877
vt 1.360886 1.102100
vt 1.360886 1.022877
vt 1.236940 1.022877
vt 1.532684 1.259695
vt 0.966294 0.838322
vt 0.887857 0.838314
vt 1.259695 0.838315
vt 1.557866 1.300354
vt 1.557866 0.928516
vt 2.320784 0.925635
vt 2.320784 1.297473
vt 1.297473 0.961337
s 1
usemtl drewno
f 9/1/9 14/2/9 2/3/2
f 10/4/10 15/5/14 4/6/4
f 11/1/11 16/7/11 8/8/8
f 12/4/12 17/9/15 6/10/6
f 29/11/13 36/12/19 17/13/15
f 4/14/4 6/15/6 8/16/8
f 22/17/13 21/18/17 28/19/13
f 23/20/13 24/21/13 27/22/13
f 16/23/11 25/24/13 26/25/13
f 26/25/13 13/26/13 23/20/13
f 19/27/16 23/20/13 10/28/10
f 26/25/13 34/29/22 16/23/11
f 27/22/13 9/30/9 18/31/9
f 28/19/13 30/32/18 14/33/9
f 10/28/10 27/22/13 15/34/14
f 7/16/7 99/35/45 19/27/16
f 24/21/13 14/33/9 9/30/9
f 13/26/13 28/19/13 24/21/13
f 29/11/13 12/36/12 22/17/13
f 25/24/13 22/17/13 13/26/13
f 11/37/11 29/11/13 25/24/13
f 69/38/32 50/39/30 51/40/28
f 67/41/35 50/42/30 68/43/34
f 62/44/32 49/45/29 63/46/33
f 66/38/33 58/39/27 67/47/35
f 16/23/11 35/48/20 7/16/7
f 27/22/13 32/49/20 15/34/14
f 14/33/9 31/50/19 1/51/1
f 18/31/9 43/52/22 27/22/13
f 3/14/3 38/53/24 18/31/9
f 20/54/11 45/55/18 29/11/13
f 17/13/15 97/56/47 5/15/5
f 33/57/21 95/58/45 103/59/49
f 21/18/17 44/60/25 28/19/13
f 19/27/16 42/61/24 26/25/13
f 20/54/11 37/62/23 40/63/25
f 35/64/20 107/65/53 106/66/52
f 56/63/28 52/12/27 61/55/26
f 51/48/28 58/61/27 55/67/29
f 48/49/28 54/53/27 49/68/29
f 60/60/28 47/50/27 46/32/26
f 62/38/32 59/39/30 48/40/28
f 70/69/36 53/70/31 71/71/37
f 65/72/35 59/73/30 64/74/34
f 63/38/33 54/39/27 65/75/35
f 74/76/37 60/77/28 75/78/38
f 69/79/32 55/80/29 66/81/33
f 75/82/38 46/45/26 76/72/39
f 71/83/37 56/77/28 72/84/38
f 70/83/36 61/77/26 52/85/27
f 77/46/36 57/86/31 74/87/37
f 77/76/36 46/77/26 47/85/27
f 72/88/38 61/89/26 73/90/39
f 82/91/33 65/75/35 85/92/40
f 65/75/35 91/93/43 85/92/40
f 84/92/41 62/38/32 83/91/32
f 83/94/32 63/46/33 82/95/33
f 80/96/32 66/81/33 81/97/33
f 78/98/40 66/38/33 67/47/35
f 78/61/40 87/63/42 79/29/41
f 79/98/41 69/38/32 80/99/32
f 68/47/34 87/100/42 72/84/38
f 88/101/36 73/84/39 70/83/36
f 86/101/37 72/84/38 87/100/42
f 88/102/36 71/71/37 86/103/37
f 91/93/43 77/76/36 93/104/36
f 93/95/36 74/87/37 92/105/37
f 85/53/40 90/60/42 84/52/41
f 92/104/37 75/78/38 90/93/42
f 34/106/22 80/99/32 35/57/20
f 42/107/24 79/108/41 34/64/22
f 42/106/24 81/99/33 78/98/40
f 35/64/20 81/97/33 39/107/21
f 32/109/20 82/95/33 33/110/21
f 43/106/22 83/91/32 32/57/20
f 38/110/24 84/111/41 43/109/22
f 38/106/24 82/91/33 85/92/40
f 36/112/19 86/103/37 37/113/23
f 40/114/25 86/101/37 87/100/42
f 45/114/18 88/101/36 36/115/19
f 40/113/25 89/116/43 45/112/18
f 44/114/25 92/104/37 90/93/42
f 44/117/25 91/118/43 30/110/18
f 31/110/19 92/105/37 41/117/23
f 30/114/18 93/104/36 31/115/19
f 65/53/35 75/60/38 76/32/39
f 84/92/41 75/78/38 64/75/34
f 67/47/35 89/100/43 78/98/40
f 68/29/34 73/55/39 67/61/35
f 100/119/46 109/120/55 101/121/47
f 96/122/46 105/123/51 97/56/47
f 98/124/44 107/125/53 99/35/45
f 94/126/44 103/127/49 95/128/45
f 41/117/23 108/129/54 31/110/19
f 37/115/23 97/130/47 105/131/51
f 15/34/14 95/128/45 3/14/3
f 36/115/19 96/130/46 17/132/15
f 33/110/21 102/133/48 32/109/20
f 1/51/1 101/121/47 21/18/17
f 31/115/19 100/130/46 1/132/1
f 39/57/21 99/58/45 107/59/53
f 35/57/20 98/58/44 7/134/7
f 41/115/23 101/130/47 109/131/55
f 36/112/19 105/135/51 104/65/50
f 32/57/20 94/58/44 15/134/14
f 14/2/9 1/132/1 2/3/2
f 2/3/2 4/8/4 9/1/9
f 4/8/4 3/134/3 18/7/9
f 4/8/4 18/7/9 9/1/9
f 15/5/14 3/136/3 4/6/4
f 4/6/4 8/137/8 10/4/10
f 8/137/8 7/138/7 19/9/16
f 8/137/8 19/9/16 10/4/10
f 16/7/11 7/134/7 8/8/8
f 8/8/8 6/3/6 11/1/11
f 6/3/6 5/132/5 20/2/11
f 6/3/6 20/2/11 11/1/11
f 17/9/15 5/139/5 6/10/6
f 6/10/6 2/140/2 12/4/12
f 2/140/2 1/141/1 21/142/17
f 2/140/2 21/142/17 12/4/12
f 29/11/13 45/55/18 36/12/19
f 4/14/4 2/51/2 6/15/6
f 22/17/13 12/36/12 21/18/17
f 23/20/13 13/26/13 24/21/13
f 16/23/11 11/37/11 25/24/13
f 26/25/13 25/24/13 13/26/13
f 19/27/16 26/25/13 23/20/13
f 26/25/13 42/61/24 34/29/22
f 27/22/13 24/21/13 9/30/9
f 28/19/13 44/60/25 30/32/18
f 10/28/10 23/20/13 27/22/13
f 7/16/7 98/124/44 99/35/45
f 24/21/13 28/19/13 14/33/9
f 13/26/13 22/17/13 28/19/13
f 29/11/13 17/13/15 12/36/12
f 25/24/13 29/11/13 22/17/13
f 11/37/11 20/54/11 29/11/13
f 69/38/32 68/47/34 50/39/30
f 67/41/35 58/80/27 50/42/30
f 62/44/32 48/73/28 49/45/29
f 66/38/33 55/40/29 58/39/27
f 16/23/11 34/29/22 35/48/20
f 27/22/13 43/52/22 32/49/20
f 14/33/9 30/32/18 31/50/19
f 18/31/9 38/53/24 43/52/22
f 3/14/3 33/68/21 38/53/24
f 20/54/11 40/63/25 45/55/18
f 17/13/15 96/122/46 97/56/47
f 33/57/21 3/134/3 95/58/45
f 21/18/17 41/143/23 44/60/25
f 19/27/16 39/67/21 42/61/24
f 20/54/11 5/15/5 37/62/23
f 35/64/20 39/107/21 107/65/53
f 56/63/28 53/62/31 52/12/27
f 51/48/28 50/29/30 58/61/27
f 48/49/28 59/52/30 54/53/27
f 60/60/28 57/143/31 47/50/27
f 62/38/32 64/75/34 59/39/30
f 70/69/36 52/89/27 53/70/31
f 65/72/35 54/45/27 59/73/30
f 63/38/33 49/40/29 54/39/27
f 74/76/37 57/85/31 60/77/28
f 69/79/32 51/42/28 55/80/29
f 75/82/38 60/86/28 46/45/26
f 71/83/37 53/85/31 56/77/28
f 70/83/36 73/84/39 61/77/26
f 77/46/36 47/45/27 57/86/31
f 77/76/36 76/78/39 46/77/26
f 72/88/38 56/70/28 61/89/26
f 82/91/33 63/38/33 65/75/35
f 65/75/35 76/78/39 91/93/43
f 84/92/41 64/75/34 62/38/32
f 83/94/32 62/44/32 63/46/33
f 80/96/32 69/79/32 66/81/33
f 78/98/40 81/99/33 66/38/33
f 78/61/40 89/55/43 87/63/42
f 79/98/41 68/47/34 69/38/32
f 68/47/34 79/98/41 87/100/42
f 88/101/36 89/100/43 73/84/39
f 86/101/37 71/83/37 72/84/38
f 88/102/36 70/69/36 71/71/37
f 91/93/43 76/78/39 77/76/36
f 93/95/36 77/46/36 74/87/37
f 85/53/40 91/32/43 90/60/42
f 92/104/37 74/76/37 75/78/38
f 34/106/22 79/98/41 80/99/32
f 42/107/24 78/144/40 79/108/41
f 42/106/24 39/57/21 81/99/33
f 35/64/20 80/96/32 81/97/33
f 32/109/20 83/94/32 82/95/33
f 43/106/22 84/92/41 83/91/32
f 38/110/24 85/118/40 84/111/41
f 38/106/24 33/57/21 82/91/33
f 36/112/19 88/102/36 86/103/37
f 40/114/25 37/115/23 86/101/37
f 45/114/18 89/100/43 88/101/36
f 40/113/25 87/145/42 89/116/43
f 44/114/25 41/115/23 92/104/37
f 44/117/25 90/146/42 91/118/43
f 31/110/19 93/95/36 92/105/37
f 30/114/18 91/93/43 93/104/36
f 65/53/35 64/52/34 75/60/38
f 84/92/41 90/93/42 75/78/38
f 67/47/35 73/84/39 89/100/43
f 68/29/34 72/63/38 73/55/39
f 100/119/46 108/147/54 109/120/55
f 96/122/46 104/148/50 105/123/51
f 98/124/44 106/149/52 107/125/53
f 94/126/44 102/150/48 103/127/49
f 41/117/23 109/151/55 108/129/54
f 37/115/23 5/132/5 97/130/47
f 15/34/14 94/126/44 95/128/45
f 36/115/19 104/131/50 96/130/46
f 33/110/21 103/129/49 102/133/48
f 1/51/1 100/119/46 101/121/47
f 31/115/19 108/131/54 100/130/46
f 39/57/21 19/134/16 99/58/45
f 35/57/20 106/59/52 98/58/44
f 41/115/23 21/132/17 101/130/47
f 36/112/19 37/113/23 105/135/51
f 32/57/20 102/59/48 94/58/44
