# Blender 5.1.2
# www.blender.org
mtllib table2.mtl
o Cube.006
v 0.003111 0.072697 0.564456
v 0.003111 0.139730 0.564456
v -1.167618 0.072697 -0.001504
v -1.167618 0.139730 -0.001504
v 0.003111 0.072697 -0.567465
v 0.003111 0.139730 -0.567465
v 1.173840 0.072697 -0.001504
v 1.173840 0.139730 -0.001504
v 0.003111 0.139730 -0.001504
v 1.173840 0.106214 -0.001504
v 0.003111 0.106214 -0.567465
v -1.167618 0.106214 -0.001504
v 0.003111 0.106214 0.564456
v 0.588475 0.072697 0.564456
v -0.582253 0.139730 0.564456
v -1.167618 0.072697 0.281476
v -1.167618 0.139730 -0.284485
v -0.582253 0.072697 -0.567465
v 0.588475 0.139730 -0.567465
v 1.173840 0.072697 -0.284484
v 1.173840 0.139730 0.281476
v -0.582253 0.072697 0.564456
v 0.588475 0.139730 0.564456
v -1.167618 0.072697 -0.284485
v -1.167618 0.139730 0.281476
v 0.588475 0.072697 -0.567465
v -0.582253 0.139730 -0.567465
v 1.173840 0.072697 0.281476
v 1.173840 0.139730 -0.284484
v 0.588475 0.139730 -0.001504
v -0.582253 0.139730 -0.001504
v 0.003111 0.139730 -0.284485
v 0.003111 0.139730 0.281476
v 0.117281 0.072697 -0.001504
v -0.111059 0.072697 -0.001504
v 0.003111 0.072697 0.108881
v 0.003111 0.072697 -0.111890
v 1.173840 0.106214 0.281476
v 1.173840 0.106214 -0.284484
v 1.173840 0.089455 -0.001504
v 1.173840 0.122972 -0.001504
v 0.588475 0.106214 -0.567465
v -0.582253 0.106214 -0.567465
v 0.003111 0.089455 -0.567465
v 0.003111 0.122972 -0.567465
v -1.167618 0.106214 -0.284485
v -1.167618 0.106214 0.281476
v -1.167618 0.089455 -0.001504
v -1.167618 0.122972 -0.001504
v -0.582253 0.106214 0.564456
v 0.588475 0.106214 0.564456
v 0.003111 0.089455 0.564456
v 0.003111 0.122972 0.564456
v 0.588475 0.122972 0.564456
v 0.588475 0.089455 0.564456
v -0.582253 0.089455 0.564456
v -1.167618 0.122972 0.281476
v -1.167618 0.089455 0.281476
v -1.167618 0.089455 -0.284485
v -0.582253 0.122972 -0.567465
v -0.582253 0.089455 -0.567465
v 0.588475 0.089455 -0.567465
v 1.173840 0.122972 -0.284484
v 1.173840 0.089455 -0.284484
v 1.173840 0.089455 0.281476
v -0.077620 0.072697 -0.079558
v -0.077620 0.072697 0.076550
v 0.083841 0.072697 0.076550
v -0.582253 0.139730 0.281476
v -0.582253 0.139730 -0.284485
v 0.588475 0.139730 -0.284484
v 0.588475 0.139730 0.281476
v 0.083841 0.072697 -0.079558
v 1.173840 0.122972 0.281476
v 0.588475 0.122972 -0.567465
v -1.167618 0.122972 -0.284485
v -0.582253 0.122972 0.564456
v -0.135928 -0.832276 -0.001504
v 0.003111 -0.832276 -0.135934
v 0.142149 -0.832276 -0.001504
v 0.003111 -0.832276 0.132926
v -0.095204 -0.832276 -0.096560
v -0.095204 -0.832276 0.093552
v 0.101426 -0.832276 0.093552
v 0.101426 -0.832276 -0.096560
v -0.469620 -0.832276 -0.001504
v 0.003111 -0.832276 -0.458565
v 0.475842 -0.832276 -0.001504
v 0.003111 -0.832276 0.455557
v -0.331160 -0.832276 -0.324695
v -0.331160 -0.832276 0.321686
v 0.337382 -0.832276 0.321687
v 0.337382 -0.832276 -0.324695
v -0.469620 -0.849045 -0.001504
v 0.003111 -0.849045 -0.001504
v 0.003111 -0.849045 -0.458565
v 0.475842 -0.849045 -0.001504
v 0.003111 -0.849045 0.455557
v -0.331160 -0.849045 -0.324695
v -0.331160 -0.849045 0.321686
v 0.337382 -0.849045 0.321687
v 0.337382 -0.849045 -0.324695
v 1.173840 0.072697 0.434319
v 0.904640 0.072697 0.564456
v 1.165444 0.072697 0.491623
v 1.124894 0.072697 0.540401
v 1.059233 0.072697 0.557962
v 0.986127 0.072697 0.560752
v 0.904640 0.139730 0.564456
v 1.173840 0.139730 0.434319
v 0.986127 0.139730 0.560752
v 1.059233 0.139730 0.557962
v 1.124894 0.139730 0.540401
v 1.165444 0.139730 0.491623
v -0.898419 0.072697 0.564456
v -1.167618 0.072697 0.434319
v -0.979906 0.072697 0.560752
v -1.053011 0.072697 0.557962
v -1.118672 0.072697 0.540401
v -1.159223 0.072697 0.491623
v -1.167618 0.139730 0.434319
v -0.898419 0.139730 0.564456
v -1.159223 0.139730 0.491623
v -1.118672 0.139730 0.540401
v -1.053011 0.139730 0.557962
v -0.979906 0.139730 0.560752
v 0.904641 0.072697 -0.567465
v 1.173840 0.072697 -0.437327
v 0.986127 0.072697 -0.563760
v 1.059233 0.072697 -0.560970
v 1.124894 0.072697 -0.543409
v 1.165444 0.072697 -0.494632
v 1.173840 0.139730 -0.437327
v 0.904641 0.139730 -0.567465
v 1.165444 0.139730 -0.494632
v 1.124894 0.139730 -0.543409
v 1.059233 0.139730 -0.560970
v 0.986127 0.139730 -0.563760
v -1.167618 0.072697 -0.437327
v -0.898418 0.072697 -0.567465
v -1.159954 0.072697 -0.476720
v -1.154184 0.072697 -0.512061
v -1.117857 0.072697 -0.543804
v -1.016957 0.072697 -0.563406
v -0.898418 0.139730 -0.567465
v -1.167618 0.139730 -0.437327
v -1.016957 0.139730 -0.563406
v -1.117857 0.139730 -0.543804
v -1.154184 0.139730 -0.512061
v -1.159954 0.139730 -0.476720
v 1.173840 0.106214 0.434319
v 0.904640 0.106214 0.564456
v 1.165444 0.106214 0.491623
v 1.124894 0.106214 0.540401
v 1.059233 0.106214 0.557962
v 0.986127 0.106214 0.560752
v -1.167618 0.106214 0.434319
v -0.898419 0.106214 0.564456
v -1.159223 0.106214 0.491623
v -1.118672 0.106214 0.540401
v -1.053011 0.106214 0.557962
v -0.979906 0.106214 0.560752
v -0.898418 0.106214 -0.567465
v -1.167618 0.106214 -0.437327
v -1.016957 0.106214 -0.563406
v -1.117857 0.106214 -0.543804
v -1.154184 0.106214 -0.512061
v -1.159954 0.106214 -0.476720
v 1.173840 0.106214 -0.437327
v 0.904641 0.106214 -0.567465
v 1.165444 0.106214 -0.494632
v 1.124894 0.106214 -0.543409
v 1.059233 0.106214 -0.560970
v 0.986127 0.106214 -0.563760
v 0.904640 0.122972 0.564456
v 1.173840 0.122972 0.434319
v 0.986127 0.122972 0.560752
v 1.059233 0.122972 0.557962
v 1.124894 0.122972 0.540401
v 1.165444 0.122972 0.491623
v -0.898419 0.089455 0.564456
v -1.167618 0.089455 0.434319
v -0.979906 0.089455 0.560752
v -1.053011 0.089455 0.557962
v -1.118672 0.089455 0.540401
v -1.159223 0.089455 0.491623
v -1.167618 0.089455 -0.437327
v -0.898418 0.089455 -0.567465
v -1.159954 0.089455 -0.476720
v -1.154184 0.089455 -0.512061
v -1.117857 0.089455 -0.543804
v -1.016957 0.089455 -0.563406
v 0.904641 0.089455 -0.567465
v 1.173840 0.089455 -0.437327
v 0.986127 0.089455 -0.563760
v 1.059233 0.089455 -0.560970
v 1.124894 0.089455 -0.543409
v 1.165444 0.089455 -0.494632
v 0.904640 0.089455 0.564456
v 1.173840 0.089455 0.434319
v 0.986127 0.089455 0.560752
v 1.059233 0.089455 0.557962
v 1.124894 0.089455 0.540401
v 1.165444 0.089455 0.491623
v -0.898419 0.122972 0.564456
v -1.167618 0.122972 0.434319
v -0.979906 0.122972 0.560752
v -1.053011 0.122972 0.557962
v -1.118672 0.122972 0.540401
v -1.159223 0.122972 0.491623
v -1.167618 0.122972 -0.437327
v -0.898418 0.122972 -0.567465
v -1.159954 0.122972 -0.476720
v -1.154184 0.122972 -0.512061
v -1.117857 0.122972 -0.543804
v -1.016957 0.122972 -0.563406
v 0.904641 0.122972 -0.567465
v 1.173840 0.122972 -0.437327
v 0.986127 0.122972 -0.563760
v 1.059233 0.122972 -0.560970
v 1.124894 0.122972 -0.543409
v 1.165444 0.122972 -0.494632
vn -0.0000 -0.7071 0.7071
vn -0.0000 0.7071 0.7071
vn -0.7071 -0.7071 -0.0000
vn -0.7071 0.7071 -0.0000
vn -0.0000 -0.7071 -0.7071
vn -0.0000 0.7071 -0.7071
vn 0.7071 -0.7071 -0.0000
vn 0.7071 0.7071 -0.0000
vn -0.0000 1.0000 -0.0000
vn 1.0000 -0.0000 -0.0000
vn -0.0000 -0.0000 -1.0000
vn -1.0000 -0.0000 -0.0000
vn -0.0000 -0.0000 1.0000
vn 0.6005 -0.7997 -0.0000
vn -0.6005 -0.7997 -0.0000
vn -0.0000 -0.7935 0.6085
vn -0.0000 -0.7935 -0.6085
vn -0.4223 -0.7965 -0.4327
vn -0.4223 -0.7965 0.4327
vn 0.4223 -0.7965 0.4327
vn 0.4223 -0.7965 -0.4327
vn -0.5797 0.8148 -0.0000
vn -0.0000 0.8085 -0.5885
vn 0.5797 0.8148 -0.0000
vn -0.0000 0.8085 0.5885
vn -0.4082 0.8116 -0.4179
vn -0.4082 0.8116 0.4179
vn 0.4082 0.8116 0.4179
vn 0.4082 0.8116 -0.4179
vn -0.7780 0.6283 -0.0000
vn -0.0000 0.6322 -0.7748
vn 0.7780 0.6283 -0.0000
vn -0.0000 0.6322 0.7748
vn -0.5424 0.6303 -0.5555
vn -0.5424 0.6303 0.5555
vn 0.5424 0.6303 0.5555
vn 0.5424 0.6303 -0.5555
vn -0.7780 -0.6283 -0.0000
vn -0.0000 -1.0000 -0.0000
vn -0.0000 -0.6322 -0.7748
vn 0.7780 -0.6283 -0.0000
vn -0.0000 -0.6322 0.7748
vn -0.5424 -0.6303 -0.5555
vn -0.5424 -0.6303 0.5555
vn 0.5424 -0.6303 0.5555
vn 0.5424 -0.6303 -0.5555
vn 0.7208 -0.6911 0.0525
vn 0.0162 -0.7020 0.7120
vn 0.6933 -0.6510 0.3092
vn 0.4120 -0.6448 0.6438
vn 0.1090 -0.6829 0.7224
vn 0.0295 -0.7079 0.7057
vn 0.0162 0.7020 0.7120
vn 0.7208 0.6911 0.0525
vn 0.0295 0.7079 0.7057
vn 0.1090 0.6829 0.7224
vn 0.4120 0.6448 0.6438
vn 0.6933 0.6510 0.3092
vn -0.0162 -0.7020 0.7120
vn -0.7208 -0.6911 0.0525
vn -0.0295 -0.7079 0.7057
vn -0.1090 -0.6829 0.7224
vn -0.4120 -0.6448 0.6438
vn -0.6933 -0.6510 0.3092
vn -0.7208 0.6911 0.0525
vn -0.0162 0.7020 0.7120
vn -0.6933 0.6510 0.3092
vn -0.4120 0.6448 0.6438
vn -0.1090 0.6829 0.7224
vn -0.0295 0.7079 0.7057
vn 0.0162 -0.7020 -0.7120
vn 0.7208 -0.6911 -0.0525
vn 0.0295 -0.7079 -0.7057
vn 0.1090 -0.6829 -0.7224
vn 0.4120 -0.6448 -0.6438
vn 0.6933 -0.6510 -0.3092
vn 0.7208 0.6911 -0.0525
vn 0.0162 0.7020 -0.7120
vn 0.6933 0.6510 -0.3092
vn 0.4120 0.6448 -0.6438
vn 0.1090 0.6829 -0.7224
vn 0.0295 0.7079 -0.7057
vn -0.7241 -0.6861 -0.0698
vn -0.0122 -0.7033 -0.7108
vn -0.6927 -0.7105 -0.1239
vn -0.6729 -0.6382 -0.3740
vn -0.3328 -0.6530 -0.6803
vn -0.0817 -0.6898 -0.7194
vn -0.0122 0.7033 -0.7108
vn -0.7241 0.6862 -0.0698
vn -0.0817 0.6898 -0.7194
vn -0.3329 0.6530 -0.6803
vn -0.6729 0.6383 -0.3740
vn -0.6927 0.7105 -0.1239
vn 0.9974 -0.0000 0.0727
vn 0.0227 -0.0000 0.9997
vn 0.9133 -0.0000 0.4073
vn 0.5390 -0.0000 0.8423
vn 0.1492 -0.0000 0.9888
vn 0.0418 -0.0000 0.9991
vn -0.9974 -0.0000 0.0727
vn -0.0227 -0.0000 0.9997
vn -0.9133 -0.0000 0.4073
vn -0.5390 -0.0000 0.8423
vn -0.1492 -0.0000 0.9888
vn -0.0418 -0.0000 0.9991
vn -0.0171 -0.0000 -0.9999
vn -0.9954 -0.0000 -0.0959
vn -0.1128 -0.0000 -0.9936
vn -0.4395 -0.0000 -0.8983
vn -0.8741 -0.0000 -0.4858
vn -0.9844 -0.0000 -0.1761
vn 0.9974 -0.0000 -0.0727
vn 0.0227 -0.0000 -0.9997
vn 0.9133 -0.0000 -0.4073
vn 0.5390 -0.0000 -0.8423
vn 0.1492 -0.0000 -0.9888
vn 0.0418 -0.0000 -0.9991
vt 2.946836 1.223070
vt 3.196836 1.343927
vt 2.946836 1.343927
vt 2.446836 1.223070
vt 2.696836 1.343927
vt 2.446836 1.343927
vt 2.446836 0.981357
vt 2.696836 1.102214
vt 2.446836 1.102214
vt 2.745596 1.223070
vt 3.196836 1.102214
vt 2.731315 1.189735
vt 2.731315 0.890762
vt 2.696836 0.504262
vt 2.738825 0.504262
vt 2.662357 1.256406
vt 2.696836 1.464783
vt 2.696836 1.270214
vt 1.343927 0.905077
vt 1.223070 0.897919
vt 1.343927 0.897919
vt 1.343927 0.919391
vt 1.223070 0.912234
vt 1.343927 0.912234
vt 2.446836 0.905077
vt 2.696836 0.897919
vt 2.446836 0.897919
vt 2.446836 0.919391
vt 2.696836 0.912234
vt 2.446836 0.912234
vt 1.102214 0.905077
vt 1.102214 0.897919
vt 1.102214 0.919391
vt 1.102214 0.912234
vt 2.946836 0.905077
vt 2.946836 0.897919
vt 2.946836 0.919391
vt 2.946836 0.912234
vt 2.696836 0.905077
vt 2.696836 0.890762
vt 2.946836 0.890762
vt 2.446836 0.890762
vt 1.223070 0.905077
vt 1.223070 0.890762
vt 1.102214 0.890762
vt 1.343927 0.890762
vt 2.662357 0.890762
vt 2.654847 0.504262
vt 2.196836 1.343927
vt 2.648076 1.223070
vt 2.196836 1.223070
vt 2.662357 1.189735
vt 2.696836 0.981357
vt 2.196836 1.102214
vt 2.946836 0.981357
vt 1.182473 0.504262
vt 1.223070 0.504262
vt 2.696836 1.223070
vt 2.446836 1.464783
vt 2.946836 1.464783
vt 2.946836 1.102214
vt 3.196836 1.223070
vt 1.263667 0.504262
vt 2.731315 1.256406
vt 1.223070 0.919391
vt 2.696836 0.919391
vt 2.756217 1.223070
vt 2.839598 1.085041
vt 2.898732 1.223070
vt 2.839598 1.361100
vt 2.738825 1.263667
vt 2.654847 1.263667
vt 2.696836 1.418274
vt 2.554074 1.361100
vt 2.654847 1.182473
vt 2.696836 1.027867
vt 2.696836 1.165658
vt 1.189735 0.890762
vt 1.256406 0.890762
vt 1.361100 0.504262
vt 1.223070 0.497100
vt 1.085041 0.497100
vt 1.085041 0.504262
vt 1.085041 0.504262
vt 1.361100 0.497100
vt 2.637455 1.223070
vt 2.554074 1.085041
vt 2.494940 1.223070
vt 2.696836 1.280483
vt 2.738825 1.182473
vt 2.839598 0.504262
vt 2.696836 0.497100
vt 2.839598 0.497100
vt 2.554074 0.504262
vt 2.554074 0.497100
vt 1.036937 0.919391
vt 1.012463 0.912234
vt 1.036937 0.912234
vt 1.012463 0.919391
vt 0.991631 0.912234
vt 3.175932 0.919391
vt 3.147889 0.912234
vt 3.175932 0.912234
vt 3.147889 0.919391
vt 3.116667 0.912234
vt 3.116667 0.919391
vt 3.081865 0.912234
vt 1.036937 0.890762
vt 1.012463 0.897919
vt 1.036937 0.897919
vt 1.012463 0.890762
vt 0.991631 0.897919
vt 2.217740 0.890762
vt 2.245782 0.897919
vt 2.217740 0.897919
vt 2.245782 0.890762
vt 2.277005 0.897919
vt 2.277005 0.890762
vt 2.311806 0.897919
vt 2.311807 0.890762
vt 2.261180 0.897919
vt 2.311807 0.897919
vt 2.261180 0.890762
vt 2.218088 0.897919
vt 2.218088 0.890762
vt 2.202573 0.897919
vt 1.441121 0.890762
vt 1.426028 0.897919
vt 1.441121 0.897919
vt 1.426028 0.890762
vt 1.409204 0.897919
vt 1.409204 0.890762
vt 1.433677 0.897919
vt 1.433677 0.890762
vt 1.454510 0.897919
vt 3.175932 0.890762
vt 3.147889 0.897919
vt 3.175932 0.897919
vt 3.147889 0.890762
vt 3.116667 0.897919
vt 3.116667 0.890762
vt 3.081865 0.897919
vt 1.036937 0.905077
vt 1.012463 0.905077
vt 3.175932 0.905077
vt 3.147889 0.905077
vt 3.116667 0.905077
vt 3.081865 0.897919
vt 2.217740 0.905077
vt 2.245782 0.912234
vt 2.217740 0.912234
vt 2.245782 0.905077
vt 2.277005 0.912234
vt 2.277005 0.905077
vt 2.311806 0.912234
vt 2.311807 0.905077
vt 2.261180 0.912234
vt 2.311807 0.912234
vt 2.261180 0.905077
vt 2.218088 0.912234
vt 2.218088 0.905077
vt 2.202573 0.912234
vt 1.441121 0.905077
vt 1.426028 0.912234
vt 1.441121 0.912234
vt 1.426028 0.905077
vt 1.409204 0.912234
vt 1.409204 0.905077
vt 1.433677 0.912234
vt 1.433677 0.905077
vt 1.454510 0.912234
vt 3.081865 0.912234
vt 0.991631 0.905077
vt 3.081865 0.905077
vt 2.311806 0.905077
vt 2.202573 0.905077
vt 1.454510 0.905077
vt 3.081865 0.905077
vt 0.991631 0.890762
vt 3.081865 0.890762
vt 0.991631 0.919391
vt 2.245782 0.919391
vt 2.217740 0.919391
vt 2.277005 0.919391
vt 2.311806 0.919391
vt 2.261180 0.919391
vt 2.311807 0.919391
vt 2.218088 0.919391
vt 2.202573 0.919391
vt 1.426028 0.919391
vt 1.441121 0.919391
vt 1.409204 0.919391
vt 1.433677 0.919391
vt 1.454510 0.919391
vt 3.081865 0.919391
vt 3.116667 0.982940
vt 3.081865 0.981357
vt 3.081865 0.919391
vt 3.196836 1.036937
vt 2.311806 0.890762
vt 2.311806 0.981357
vt 3.196836 1.409204
vt 3.116667 1.463201
vt 3.081865 0.890762
vt 3.081865 1.464783
vt 2.218088 1.454678
vt 2.261180 1.463050
vt 2.200109 1.426028
vt 2.196836 1.409204
vt 2.696836 1.175926
vt 2.738825 0.504262
vt 2.654847 0.504262
vt 1.085041 0.497100
vt 2.202573 0.890762
vt 1.454510 0.890762
vt 3.193250 1.012463
vt 3.147889 0.984131
vt 3.175932 0.991631
vt 2.277005 0.982940
vt 2.245782 0.984131
vt 2.196836 1.036937
vt 2.217740 0.991631
vt 2.200421 1.012463
vt 3.147889 1.462010
vt 3.175932 1.454510
vt 3.193250 1.433677
vt 2.311807 1.464783
vt 2.202573 1.441121
s 1
usemtl drewno
f 30/1/9 29/2/8 71/3/9
f 31/4/9 32/5/9 70/6/9
f 15/7/2 33/8/9 69/9/9
f 34/10/14 28/11/7 68/12/20
f 68/13/20 81/14/25 84/15/28
f 66/16/18 5/17/5 37/18/17
f 39/19/10 40/20/10 64/21/10
f 29/22/8 41/23/10 63/24/10
f 43/25/11 44/26/11 61/27/11
f 27/28/6 45/29/11 60/30/11
f 47/31/12 48/20/12 58/32/12
f 25/33/4 49/23/12 57/34/12
f 51/35/13 52/26/13 55/36/13
f 23/37/2 53/29/13 54/38/13
f 54/38/13 13/39/13 51/35/13
f 55/36/13 1/40/1 14/41/1
f 52/26/13 22/42/1 1/40/1
f 13/39/13 56/27/13 52/26/13
f 57/34/12 12/43/12 47/31/12
f 58/32/12 3/44/3 16/45/3
f 48/20/12 24/46/3 3/44/3
f 12/43/12 59/21/12 48/20/12
f 60/30/11 11/39/11 43/25/11
f 61/27/11 5/40/5 18/42/5
f 44/26/11 26/41/5 5/40/5
f 11/39/11 62/36/11 44/26/11
f 63/24/10 10/43/10 39/19/10
f 64/21/10 7/44/7 20/46/7
f 40/20/10 28/45/7 7/44/7
f 10/43/10 65/32/10 40/20/10
f 66/47/18 79/14/23 82/48/26
f 24/49/3 35/50/15 3/51/3
f 67/52/19 1/53/1 22/7/1
f 16/54/3 35/50/15 67/52/19
f 1/53/1 68/12/20 14/55/1
f 34/44/14 84/56/28 80/57/24
f 69/9/9 9/58/9 31/4/9
f 25/54/4 31/4/9 4/51/4
f 70/6/9 6/17/6 27/59/6
f 4/51/4 70/6/9 17/49/4
f 32/5/9 19/60/6 6/17/6
f 9/58/9 71/3/9 32/5/9
f 72/61/9 8/62/8 30/1/9
f 33/8/9 30/1/9 9/58/9
f 2/53/2 72/61/9 33/8/9
f 34/10/14 20/2/7 7/62/7
f 35/44/15 82/63/26 78/57/22
f 5/17/5 73/64/21 37/18/17
f 41/23/10 38/31/10 10/43/10
f 8/65/8 74/34/10 41/23/10
f 45/29/11 42/35/11 11/39/11
f 6/66/6 75/38/11 45/29/11
f 49/23/12 46/19/12 12/43/12
f 4/65/4 76/24/12 49/23/12
f 53/29/13 50/25/13 13/39/13
f 2/66/2 77/30/13 53/29/13
f 80/67/24 92/68/36 88/69/32
f 80/67/24 93/70/37 85/71/29
f 82/72/26 87/73/31 90/74/34
f 83/75/27 89/76/33 81/77/25
f 73/13/21 79/14/23 37/40/17
f 35/44/15 83/56/27 67/78/19
f 34/44/14 85/63/29 73/79/21
f 67/47/19 81/14/25 36/40/16
f 90/80/34 94/81/38 86/57/30
f 86/57/30 100/82/44 91/83/35
f 92/84/36 97/81/41 88/57/32
f 88/57/32 102/85/46 93/80/37
f 78/86/22 91/87/35 83/75/27
f 78/86/22 90/74/34 86/88/30
f 85/71/29 87/73/31 79/89/23
f 84/90/28 89/76/33 92/68/36
f 100/87/44 95/58/39 98/76/42
f 99/74/43 95/58/39 94/88/38
f 95/58/39 101/68/45 98/76/42
f 95/58/39 102/70/46 97/69/41
f 93/91/37 96/92/40 87/14/31
f 89/14/33 101/93/45 92/91/36
f 91/94/35 98/92/42 89/14/33
f 87/14/31 99/95/43 90/94/34
f 110/96/54 180/97/97 176/98/95
f 114/99/58 179/100/98 180/97/97
f 113/101/57 178/102/99 179/103/98
f 112/104/56 177/105/100 178/102/99
f 111/106/55 175/107/96 177/105/100
f 116/108/60 186/109/103 182/110/101
f 120/111/64 185/112/104 186/109/103
f 119/113/63 184/114/105 185/115/104
f 118/116/62 183/117/106 184/114/105
f 117/118/61 181/119/102 183/117/106
f 140/120/84 192/121/109 188/122/107
f 144/123/88 191/124/110 192/121/109
f 143/125/87 190/126/111 191/124/110
f 142/127/86 189/128/112 190/129/111
f 141/130/85 187/131/108 189/128/112
f 128/132/72 198/133/115 194/131/113
f 132/134/76 197/135/116 198/133/115
f 131/136/75 196/137/117 197/138/116
f 130/139/74 195/140/118 196/137/117
f 129/141/73 193/142/114 195/140/118
f 151/143/95 204/109/97 200/110/95
f 153/144/97 203/112/98 204/109/97
f 154/145/98 202/137/99 203/138/98
f 155/146/99 201/140/100 202/137/99
f 156/147/100 199/148/96 201/140/100
f 157/143/101 210/97/103 206/98/101
f 159/144/103 209/100/104 210/97/103
f 160/149/104 208/150/105 209/151/104
f 161/152/105 207/153/106 208/150/105
f 162/154/106 205/155/102 207/153/106
f 163/156/107 216/157/109 212/158/107
f 165/159/109 215/160/110 216/157/109
f 166/161/110 214/162/111 215/160/110
f 167/163/111 213/164/112 214/165/111
f 168/166/112 211/167/108 213/164/112
f 169/168/113 222/169/115 218/167/113
f 171/170/115 221/171/116 222/169/115
f 172/145/116 220/102/117 221/103/116
f 173/146/117 219/105/118 220/102/117
f 174/147/118 217/172/114 219/105/118
f 176/98/95 153/144/97 151/143/95
f 180/97/97 154/173/98 153/144/97
f 179/103/98 155/146/99 154/145/98
f 178/102/99 156/147/100 155/146/99
f 177/105/100 152/174/96 156/147/100
f 182/110/101 159/144/103 157/143/101
f 186/109/103 160/173/104 159/144/103
f 185/115/104 161/152/105 160/149/104
f 184/114/105 162/154/106 161/152/105
f 183/117/106 158/175/102 162/154/106
f 188/122/107 165/159/109 163/156/107
f 192/121/109 166/161/110 165/159/109
f 191/124/110 167/176/111 166/161/110
f 190/129/111 168/166/112 167/163/111
f 189/128/112 164/168/108 168/166/112
f 194/131/113 171/170/115 169/168/113
f 198/133/115 172/177/116 171/170/115
f 197/138/116 173/146/117 172/145/116
f 196/137/117 174/147/118 173/146/117
f 195/140/118 170/178/114 174/147/118
f 200/110/95 105/111/49 103/108/47
f 204/109/97 106/179/50 105/111/49
f 203/138/98 107/139/51 106/136/50
f 202/137/99 108/141/52 107/139/51
f 201/140/100 104/180/48 108/141/52
f 206/98/101 123/99/67 121/96/65
f 210/97/103 124/181/68 123/99/67
f 209/151/104 125/182/69 124/183/68
f 208/150/105 126/184/70 125/182/69
f 207/153/106 122/185/66 126/184/70
f 212/158/107 147/186/91 145/187/89
f 216/157/109 148/188/92 147/186/91
f 215/160/110 149/189/93 148/188/92
f 214/165/111 150/190/94 149/191/93
f 213/164/112 146/192/90 150/190/94
f 218/167/113 135/193/79 133/192/77
f 222/169/115 136/194/80 135/193/79
f 221/103/116 137/104/81 136/101/80
f 220/102/117 138/106/82 137/104/81
f 219/105/118 134/195/78 138/106/82
f 108/196/52 104/197/48 28/11/7
f 199/148/96 14/41/1 104/180/48
f 65/32/10 103/108/47 28/45/7
f 109/198/53 54/38/13 175/107/96
f 21/33/8 176/98/95 74/34/10
f 110/199/54 21/11/8 111/196/55
f 182/110/101 16/45/3 116/108/60
f 16/54/3 67/52/19 22/7/1
f 56/27/13 115/200/59 22/42/1
f 122/201/66 15/7/2 69/9/9
f 15/28/2 205/155/102 77/30/13
f 121/96/65 57/34/12 206/98/101
f 194/131/113 20/46/7 128/132/72
f 128/202/72 20/2/7 129/203/73
f 62/36/11 127/204/71 26/41/5
f 138/203/82 134/205/78 29/2/8
f 19/37/6 217/172/114 75/38/11
f 133/192/77 63/24/10 218/167/113
f 188/122/107 18/42/5 140/120/84
f 143/206/87 144/207/88 141/208/85
f 59/21/12 139/132/83 24/46/3
f 146/209/90 17/49/4 147/207/91
f 17/22/4 211/167/108 76/24/12
f 145/187/89 60/30/11 212/158/107
f 152/174/96 55/36/13 199/148/96
f 38/31/10 200/110/95 65/32/10
f 74/34/10 151/143/95 38/31/10
f 175/107/96 51/35/13 152/174/96
f 77/30/13 158/175/102 50/25/13
f 50/25/13 181/119/102 56/27/13
f 157/143/101 58/32/12 182/110/101
f 206/98/101 47/31/12 157/143/101
f 76/24/12 164/168/108 46/19/12
f 46/19/12 187/131/108 59/21/12
f 163/156/107 61/27/11 188/122/107
f 212/158/107 43/25/11 163/156/107
f 75/38/11 170/178/114 42/35/11
f 42/35/11 193/142/114 62/36/11
f 169/168/113 64/21/10 194/131/113
f 218/167/113 39/19/10 169/168/113
f 30/1/9 8/62/8 29/2/8
f 31/4/9 9/58/9 32/5/9
f 15/7/2 2/53/2 33/8/9
f 34/10/14 7/62/7 28/11/7
f 68/13/20 36/40/16 81/14/25
f 66/16/18 18/59/5 5/17/5
f 39/19/10 10/43/10 40/20/10
f 29/22/8 8/65/8 41/23/10
f 43/25/11 11/39/11 44/26/11
f 27/28/6 6/66/6 45/29/11
f 47/31/12 12/43/12 48/20/12
f 25/33/4 4/65/4 49/23/12
f 51/35/13 13/39/13 52/26/13
f 23/37/2 2/66/2 53/29/13
f 54/38/13 53/29/13 13/39/13
f 55/36/13 52/26/13 1/40/1
f 52/26/13 56/27/13 22/42/1
f 13/39/13 50/25/13 56/27/13
f 57/34/12 49/23/12 12/43/12
f 58/32/12 48/20/12 3/44/3
f 48/20/12 59/21/12 24/46/3
f 12/43/12 46/19/12 59/21/12
f 60/30/11 45/29/11 11/39/11
f 61/27/11 44/26/11 5/40/5
f 44/26/11 62/36/11 26/41/5
f 11/39/11 42/35/11 62/36/11
f 63/24/10 41/23/10 10/43/10
f 64/21/10 40/20/10 7/44/7
f 40/20/10 65/32/10 28/45/7
f 10/43/10 38/31/10 65/32/10
f 66/47/18 37/40/17 79/14/23
f 24/49/3 66/16/18 35/50/15
f 67/52/19 36/210/16 1/53/1
f 16/54/3 3/51/3 35/50/15
f 1/53/1 36/210/16 68/12/20
f 34/44/14 68/78/20 84/56/28
f 69/9/9 33/8/9 9/58/9
f 25/54/4 69/9/9 31/4/9
f 70/6/9 32/5/9 6/17/6
f 4/51/4 31/4/9 70/6/9
f 32/5/9 71/3/9 19/60/6
f 9/58/9 30/1/9 71/3/9
f 72/61/9 21/11/8 8/62/8
f 33/8/9 72/61/9 30/1/9
f 2/53/2 23/55/2 72/61/9
f 34/10/14 73/64/21 20/2/7
f 35/44/15 66/79/18 82/63/26
f 5/17/5 26/60/5 73/64/21
f 41/23/10 74/34/10 38/31/10
f 8/65/8 21/33/8 74/34/10
f 45/29/11 75/38/11 42/35/11
f 6/66/6 19/37/6 75/38/11
f 49/23/12 76/24/12 46/19/12
f 4/65/4 17/22/4 76/24/12
f 53/29/13 77/30/13 50/25/13
f 2/66/2 15/28/2 77/30/13
f 80/67/24 84/90/28 92/68/36
f 80/67/24 88/69/32 93/70/37
f 82/72/26 79/89/23 87/73/31
f 83/75/27 91/87/35 89/76/33
f 73/13/21 85/211/29 79/14/23
f 35/44/15 78/57/22 83/56/27
f 34/44/14 80/57/24 85/63/29
f 67/47/19 83/212/27 81/14/25
f 90/80/34 99/85/43 94/81/38
f 86/57/30 94/81/38 100/82/44
f 92/84/36 101/213/45 97/81/41
f 88/57/32 97/81/41 102/85/46
f 78/86/22 86/88/30 91/87/35
f 78/86/22 82/72/26 90/74/34
f 85/71/29 93/70/37 87/73/31
f 84/90/28 81/77/25 89/76/33
f 100/87/44 94/88/38 95/58/39
f 99/74/43 96/73/40 95/58/39
f 95/58/39 97/69/41 101/68/45
f 95/58/39 96/73/40 102/70/46
f 93/91/37 102/93/46 96/92/40
f 89/14/33 98/92/42 101/93/45
f 91/94/35 100/95/44 98/92/42
f 87/14/31 96/92/40 99/95/43
f 110/96/54 114/99/58 180/97/97
f 114/99/58 113/181/57 179/100/98
f 113/101/57 112/104/56 178/102/99
f 112/104/56 111/106/55 177/105/100
f 111/106/55 109/198/53 175/107/96
f 116/108/60 120/111/64 186/109/103
f 120/111/64 119/179/63 185/112/104
f 119/113/63 118/116/62 184/114/105
f 118/116/62 117/118/61 183/117/106
f 117/118/61 115/200/59 181/119/102
f 140/120/84 144/123/88 192/121/109
f 144/123/88 143/125/87 191/124/110
f 143/125/87 142/214/86 190/126/111
f 142/127/86 141/130/85 189/128/112
f 141/130/85 139/132/83 187/131/108
f 128/132/72 132/134/76 198/133/115
f 132/134/76 131/215/75 197/135/116
f 131/136/75 130/139/74 196/137/117
f 130/139/74 129/141/73 195/140/118
f 129/141/73 127/204/71 193/142/114
f 151/143/95 153/144/97 204/109/97
f 153/144/97 154/173/98 203/112/98
f 154/145/98 155/146/99 202/137/99
f 155/146/99 156/147/100 201/140/100
f 156/147/100 152/174/96 199/148/96
f 157/143/101 159/144/103 210/97/103
f 159/144/103 160/173/104 209/100/104
f 160/149/104 161/152/105 208/150/105
f 161/152/105 162/154/106 207/153/106
f 162/154/106 158/175/102 205/155/102
f 163/156/107 165/159/109 216/157/109
f 165/159/109 166/161/110 215/160/110
f 166/161/110 167/176/111 214/162/111
f 167/163/111 168/166/112 213/164/112
f 168/166/112 164/168/108 211/167/108
f 169/168/113 171/170/115 222/169/115
f 171/170/115 172/177/116 221/171/116
f 172/145/116 173/146/117 220/102/117
f 173/146/117 174/147/118 219/105/118
f 174/147/118 170/178/114 217/172/114
f 176/98/95 180/97/97 153/144/97
f 180/97/97 179/100/98 154/173/98
f 179/103/98 178/102/99 155/146/99
f 178/102/99 177/105/100 156/147/100
f 177/105/100 175/107/96 152/174/96
f 182/110/101 186/109/103 159/144/103
f 186/109/103 185/112/104 160/173/104
f 185/115/104 184/114/105 161/152/105
f 184/114/105 183/117/106 162/154/106
f 183/117/106 181/119/102 158/175/102
f 188/122/107 192/121/109 165/159/109
f 192/121/109 191/124/110 166/161/110
f 191/124/110 190/126/111 167/176/111
f 190/129/111 189/128/112 168/166/112
f 189/128/112 187/131/108 164/168/108
f 194/131/113 198/133/115 171/170/115
f 198/133/115 197/135/116 172/177/116
f 197/138/116 196/137/117 173/146/117
f 196/137/117 195/140/118 174/147/118
f 195/140/118 193/142/114 170/178/114
f 200/110/95 204/109/97 105/111/49
f 204/109/97 203/112/98 106/179/50
f 203/138/98 202/137/99 107/139/51
f 202/137/99 201/140/100 108/141/52
f 201/140/100 199/148/96 104/180/48
f 206/98/101 210/97/103 123/99/67
f 210/97/103 209/100/104 124/181/68
f 209/151/104 208/150/105 125/182/69
f 208/150/105 207/153/106 126/184/70
f 207/153/106 205/155/102 122/185/66
f 212/158/107 216/157/109 147/186/91
f 216/157/109 215/160/110 148/188/92
f 215/160/110 214/162/111 149/189/93
f 214/165/111 213/164/112 150/190/94
f 213/164/112 211/167/108 146/192/90
f 218/167/113 222/169/115 135/193/79
f 222/169/115 221/171/116 136/194/80
f 221/103/116 220/102/117 137/104/81
f 220/102/117 219/105/118 138/106/82
f 219/105/118 217/172/114 134/195/78
f 104/197/48 14/55/1 28/11/7
f 14/55/1 68/12/20 28/11/7
f 28/11/7 103/199/47 108/196/52
f 103/199/47 105/216/49 107/217/51
f 105/216/49 106/218/50 107/217/51
f 107/217/51 108/196/52 103/199/47
f 199/148/96 55/36/13 14/41/1
f 65/32/10 200/110/95 103/108/47
f 109/198/53 23/37/2 54/38/13
f 21/33/8 110/96/54 176/98/95
f 21/11/8 72/61/9 109/197/53
f 72/61/9 23/55/2 109/197/53
f 21/11/8 109/197/53 111/196/55
f 111/196/55 112/217/56 110/199/54
f 112/217/56 113/218/57 114/216/58
f 110/199/54 112/217/56 114/216/58
f 182/110/101 58/32/12 16/45/3
f 22/7/1 115/201/59 16/54/3
f 115/201/59 117/219/61 16/54/3
f 117/219/61 118/220/62 116/221/60
f 118/220/62 119/222/63 120/223/64
f 116/221/60 118/220/62 120/223/64
f 116/221/60 16/54/3 117/219/61
f 56/27/13 181/119/102 115/200/59
f 69/9/9 25/54/4 122/201/66
f 25/54/4 121/221/65 126/219/70
f 121/221/65 123/223/67 125/220/69
f 123/223/67 124/222/68 125/220/69
f 125/220/69 126/219/70 121/221/65
f 126/219/70 122/201/66 25/54/4
f 15/28/2 122/185/66 205/155/102
f 121/96/65 25/33/4 57/34/12
f 194/131/113 64/21/10 20/46/7
f 20/2/7 73/64/21 26/60/5
f 26/60/5 127/205/71 20/2/7
f 127/205/71 129/203/73 20/2/7
f 129/203/73 130/224/74 128/202/72
f 130/224/74 131/225/75 132/226/76
f 128/202/72 130/224/74 132/226/76
f 62/36/11 193/142/114 127/204/71
f 134/205/78 19/60/6 71/3/9
f 71/3/9 29/2/8 134/205/78
f 29/2/8 133/202/77 138/203/82
f 133/202/77 135/226/79 137/224/81
f 135/226/79 136/225/80 137/224/81
f 137/224/81 138/203/82 133/202/77
f 19/37/6 134/195/78 217/172/114
f 133/192/77 29/22/8 63/24/10
f 188/122/107 61/27/11 18/42/5
f 66/16/18 24/49/3 18/59/5
f 24/49/3 139/209/83 144/207/88
f 140/227/84 24/49/3 144/207/88
f 141/208/85 142/228/86 143/206/87
f 24/49/3 140/227/84 18/59/5
f 139/209/83 141/208/85 144/207/88
f 59/21/12 187/131/108 139/132/83
f 27/59/6 145/227/89 70/6/9
f 145/227/89 147/207/91 17/49/4
f 70/6/9 145/227/89 17/49/4
f 147/207/91 148/206/92 150/208/94
f 148/206/92 149/228/93 150/208/94
f 150/208/94 146/209/90 147/207/91
f 17/22/4 146/192/90 211/167/108
f 145/187/89 27/28/6 60/30/11
f 152/174/96 51/35/13 55/36/13
f 38/31/10 151/143/95 200/110/95
f 74/34/10 176/98/95 151/143/95
f 175/107/96 54/38/13 51/35/13
f 77/30/13 205/155/102 158/175/102
f 50/25/13 158/175/102 181/119/102
f 157/143/101 47/31/12 58/32/12
f 206/98/101 57/34/12 47/31/12
f 76/24/12 211/167/108 164/168/108
f 46/19/12 164/168/108 187/131/108
f 163/156/107 43/25/11 61/27/11
f 212/158/107 60/30/11 43/25/11
f 75/38/11 217/172/114 170/178/114
f 42/35/11 170/178/114 193/142/114
f 169/168/113 39/19/10 64/21/10
f 218/167/113 63/24/10 39/19/10
