# Blender 5.1.2
# www.blender.org
mtllib trashcan.mtl
o Cylinder.009
v -0.000000 -0.167310 -0.236139
v -0.000000 0.181607 -0.236139
v 0.166976 -0.167310 -0.166976
v 0.166976 0.181607 -0.166976
v 0.236139 -0.167310 0.000000
v 0.236139 0.181607 0.000000
v 0.166976 -0.167310 0.166976
v 0.166976 0.181607 0.166976
v -0.000000 -0.167310 0.236140
v -0.000000 0.181607 0.236140
v -0.166976 -0.167310 0.166976
v -0.166976 0.181607 0.166976
v -0.236140 -0.167310 0.000000
v -0.236140 0.181607 0.000000
v -0.166976 -0.167310 -0.166976
v -0.166976 0.181607 -0.166976
v 0.160673 0.185969 -0.160673
v -0.000000 0.185969 -0.227226
v 0.227226 0.185969 0.000000
v 0.160673 0.185969 0.160673
v -0.000000 0.185969 0.227226
v -0.160673 0.185969 0.160673
v -0.227226 0.185969 0.000000
v -0.160673 0.185969 -0.160673
v -0.000000 -0.254540 -0.192525
v 0.136135 -0.254540 -0.136135
v 0.192525 -0.254540 0.000000
v 0.136135 -0.254540 0.136136
v -0.000000 -0.254540 0.192525
v -0.136136 -0.254540 0.136136
v -0.192525 -0.254540 0.000000
v -0.136136 -0.254540 -0.136135
v 0.114757 -0.104069 -0.114757
v -0.000000 -0.104069 -0.162291
v 0.162291 -0.104069 0.000000
v 0.114757 -0.104069 0.114757
v -0.000000 -0.104069 0.162291
v -0.114758 -0.104069 0.114757
v -0.162292 -0.104069 0.000000
v -0.114758 -0.104069 -0.114757
v 0.090262 -0.167310 -0.217913
v 0.090262 0.181607 -0.217913
v -0.000000 0.007148 -0.236139
v 0.166976 0.007148 -0.166976
v 0.217913 -0.167310 -0.090262
v 0.217913 0.181607 -0.090262
v 0.236139 0.007148 0.000000
v 0.217913 -0.167310 0.090263
v 0.217913 0.181607 0.090263
v 0.166976 0.007148 0.166976
v 0.090262 -0.167310 0.217913
v 0.090262 0.181607 0.217913
v -0.000000 0.007148 0.236140
v -0.090263 -0.167310 0.217913
v -0.090263 0.181607 0.217913
v -0.166976 0.007148 0.166976
v -0.217913 -0.167310 0.090263
v -0.217913 0.181607 0.090263
v -0.236140 0.007148 0.000000
v -0.217913 -0.167310 -0.090262
v -0.217913 0.181607 -0.090262
v -0.166976 0.007148 -0.166976
v -0.090263 -0.167310 -0.217913
v -0.090263 0.181607 -0.217913
v 0.086855 0.185969 -0.209687
v 0.209687 0.185969 -0.086855
v 0.209687 0.185969 0.086856
v 0.086855 0.185969 0.209688
v -0.086855 0.185969 0.209688
v -0.209688 0.185969 0.086856
v -0.209687 0.185969 -0.086855
v -0.086855 0.185969 -0.209687
v -0.166188 0.209948 -0.166188
v -0.000000 0.209948 -0.235025
v 0.166188 0.209948 -0.166188
v 0.235025 0.209948 0.000000
v 0.166188 0.209948 0.166188
v -0.166188 0.209948 0.166188
v -0.235025 0.209948 0.000000
v -0.000000 0.209948 0.235025
v 0.064878 -0.254540 -0.156630
v 0.156630 -0.254540 -0.064878
v 0.156630 -0.254540 0.064878
v 0.064878 -0.254540 0.156630
v -0.064878 -0.254540 0.156630
v -0.156630 -0.254540 0.064878
v -0.156630 -0.254540 -0.064878
v -0.064878 -0.254540 -0.156630
v -0.000000 -0.243636 0.229097
v 0.161996 -0.243636 0.161996
v -0.161996 -0.243636 -0.161996
v -0.229097 -0.243636 0.000000
v 0.229097 -0.243636 0.000000
v 0.161996 -0.243636 -0.161996
v -0.161996 -0.243636 0.161996
v -0.000000 -0.243636 -0.229097
v 0.054114 -0.131308 -0.130643
v 0.130643 -0.131308 -0.054114
v 0.130643 -0.131308 0.054114
v 0.054114 -0.131308 0.130643
v -0.054114 -0.131308 0.130643
v -0.130643 -0.131308 0.054114
v -0.130643 -0.131308 -0.054114
v -0.054114 -0.131308 -0.130643
v -0.204544 0.025604 0.000000
v -0.144635 0.025604 -0.144634
v -0.000000 0.025604 0.204544
v -0.144635 0.025604 0.144635
v 0.204544 0.025604 0.000000
v 0.144634 0.025604 0.144635
v -0.000000 0.025604 -0.204544
v 0.144634 0.025604 -0.144634
v 0.090262 0.007148 -0.217913
v 0.217913 0.007148 -0.090262
v 0.217913 0.007148 0.090263
v 0.090262 0.007148 0.217913
v -0.090263 0.007148 0.217913
v -0.217913 0.007148 0.090263
v -0.089837 0.209948 -0.216885
v -0.217913 0.007148 -0.090262
v -0.090263 0.007148 -0.217913
v 0.086996 -0.243636 0.210027
v -0.187389 0.022918 -0.077619
v 0.089837 0.209948 -0.216885
v 0.216885 0.209948 0.089837
v -0.216885 0.209948 0.089837
v 0.089837 0.209948 0.216885
v -0.216885 0.209948 -0.089837
v 0.216885 0.209948 -0.089837
v -0.089837 0.209948 0.216885
v -0.000000 -0.254540 0.000000
v -0.210027 -0.243636 -0.086996
v 0.210027 -0.243636 -0.086996
v -0.086996 -0.243636 0.210027
v -0.086996 -0.243636 -0.210027
v 0.086996 -0.243636 -0.210027
v 0.210027 -0.243636 0.086996
v -0.210027 -0.243636 0.086996
v -0.000000 -0.200748 0.000000
v -0.077619 0.022918 0.187389
v 0.187389 0.022918 0.077619
v 0.077619 0.022918 -0.187389
v -0.077619 0.022918 -0.187389
v -0.187389 0.022918 0.077619
v 0.077619 0.022918 0.187389
v 0.187389 0.022918 -0.077619
v -0.000000 -0.157113 -0.213028
v -0.000000 0.241165 -0.233394
v 0.150634 -0.157113 -0.150634
v 0.165035 0.241165 -0.165035
v 0.213028 -0.157113 0.000000
v 0.233394 0.241165 0.000000
v 0.150634 -0.157113 0.150634
v 0.165035 0.241165 0.165035
v -0.000000 -0.157113 0.213028
v -0.000000 0.241165 0.233395
v -0.150634 -0.157113 0.150634
v -0.165035 0.241165 0.165035
v -0.213028 -0.157113 0.000000
v -0.233395 0.241165 0.000000
v -0.150634 -0.157113 -0.150634
v -0.165035 0.241165 -0.165035
v 0.168485 0.254540 -0.168485
v -0.000000 0.254540 -0.238274
v 0.238274 0.254540 0.000000
v 0.168485 0.254540 0.168486
v -0.000000 0.254540 0.238274
v -0.168486 0.254540 0.168486
v -0.238275 0.254540 0.000000
v -0.168486 0.254540 -0.168485
v 0.196267 0.197749 -0.196267
v -0.000000 0.197749 -0.277563
v 0.277563 0.197749 0.000000
v 0.196267 0.197749 0.196267
v -0.000000 0.197749 0.277563
v -0.196267 0.197749 0.196267
v -0.277563 0.197749 0.000000
v -0.196267 0.197749 -0.196267
v 0.150038 0.197749 -0.150038
v -0.000000 0.197749 -0.212185
v 0.212185 0.197749 0.000000
v 0.150038 0.197749 0.150038
v -0.000000 0.197749 0.212185
v -0.150038 0.197749 0.150038
v -0.212185 0.197749 0.000000
v -0.150038 0.197749 -0.150038
v 0.111265 -0.067690 -0.111265
v -0.000000 -0.067690 -0.157352
v 0.157352 -0.067690 0.000000
v 0.111265 -0.067690 0.111265
v -0.000000 -0.067690 0.157352
v -0.111265 -0.067690 0.111265
v -0.157352 -0.067690 0.000000
v -0.111265 -0.067690 -0.111265
v -0.000000 0.195178 -0.211038
v -0.041172 0.195178 -0.206983
v -0.080761 0.195178 -0.194973
v -0.117246 0.195178 -0.175471
v -0.149226 0.195178 -0.149226
v -0.175472 0.195178 -0.117246
v -0.194973 0.195178 -0.080761
v -0.206983 0.195178 -0.041171
v -0.211038 0.195178 0.000000
v -0.206983 0.195178 0.041171
v -0.194973 0.195178 0.080761
v -0.175472 0.195178 0.117246
v -0.149226 0.195178 0.149226
v -0.117246 0.195178 0.175471
v -0.080761 0.195178 0.194973
v -0.041172 0.195178 0.206983
v -0.000000 0.195178 0.211038
v 0.041171 0.195178 0.206983
v 0.080760 0.195178 0.194973
v 0.117246 0.195178 0.175471
v 0.149226 0.195178 0.149226
v 0.175471 0.195178 0.117246
v 0.194973 0.195178 0.080761
v 0.206982 0.195178 0.041171
v 0.211038 0.195178 0.000000
v 0.206982 0.195178 -0.041171
v 0.194973 0.195178 -0.080761
v 0.175471 0.195178 -0.117246
v 0.149226 0.195178 -0.149226
v 0.117246 0.195178 -0.175471
v 0.080760 0.195178 -0.194973
v 0.041171 0.195178 -0.206983
v -0.020586 0.195178 -0.209010
v -0.060966 0.195178 -0.200978
v -0.099004 0.195178 -0.185222
v -0.133236 0.195178 -0.162349
v -0.162349 0.195178 -0.133236
v -0.185223 0.195178 -0.099003
v -0.200978 0.195178 -0.060966
v -0.209010 0.195178 -0.020586
v -0.209010 0.195178 0.020586
v -0.200978 0.195178 0.060966
v -0.185223 0.195178 0.099003
v -0.162349 0.195178 0.133236
v -0.133236 0.195178 0.162349
v -0.099004 0.195178 0.185222
v -0.060966 0.195178 0.200978
v -0.020586 0.195178 0.209010
v 0.020586 0.195178 0.209010
v 0.060966 0.195178 0.200978
v 0.099003 0.195178 0.185222
v 0.133236 0.195178 0.162349
v 0.162349 0.195178 0.133236
v 0.185222 0.195178 0.099003
v 0.200978 0.195178 0.060966
v 0.209010 0.195178 0.020586
v 0.209010 0.195178 -0.020586
v 0.200978 0.195178 -0.060966
v 0.185222 0.195178 -0.099003
v 0.162349 0.195178 -0.133236
v 0.133236 0.195178 -0.162349
v 0.099003 0.195178 -0.185222
v 0.060966 0.195178 -0.200978
v 0.020586 0.195178 -0.209010
v 0.202999 0.195178 0.054302
v 0.034020 0.195178 0.207687
v -0.104179 0.195178 -0.182456
v -0.208447 0.195178 0.026308
v -0.096522 0.195178 -0.186549
v -0.100623 0.195178 -0.111335
v -0.080798 0.205507 -0.136644
v 0.065612 0.195178 -0.035987
v 0.090304 0.231552 -0.019011
v -0.117632 0.195178 0.148526
v -0.029207 0.195178 0.055856
v 0.030893 0.214047 -0.007129
v 0.122385 0.195178 -0.083174
v 0.010694 0.215504 -0.139020
v -0.093868 0.231552 0.023764
v 0.066540 0.195178 0.103374
vn -0.0000 -0.0501 -0.9987
vn -0.0000 0.0196 -0.9998
vn 0.7062 -0.0501 -0.7062
vn 0.7070 0.0196 -0.7070
vn 0.9987 -0.0501 -0.0000
vn 0.9998 0.0196 -0.0000
vn 0.7062 -0.0501 0.7062
vn 0.7070 0.0196 0.7070
vn -0.0000 -0.0501 0.9987
vn -0.0000 0.0196 0.9998
vn -0.7062 -0.0501 0.7062
vn -0.7070 0.0196 0.7070
vn -0.9987 -0.0501 -0.0000
vn -0.9998 0.0196 -0.0000
vn -0.7062 -0.0501 -0.7062
vn -0.7070 0.0196 -0.7070
vn -0.6885 0.2280 0.6885
vn -0.0000 0.2280 0.9737
vn -0.9737 0.2280 -0.0000
vn -0.6885 0.2280 -0.6885
vn -0.0000 0.2280 -0.9737
vn 0.6885 0.2280 -0.6885
vn 0.9737 0.2280 -0.0000
vn 0.6885 0.2280 0.6885
vn -0.0000 -0.9868 -0.1617
vn 0.1143 -0.9868 -0.1143
vn 0.1617 -0.9868 -0.0000
vn 0.1143 -0.9868 0.1143
vn -0.0000 -0.9868 0.1617
vn -0.1143 -0.9868 0.1143
vn -0.1617 -0.9868 -0.0000
vn -0.1143 -0.9868 -0.1143
vn -0.6114 0.5024 0.6114
vn -0.0000 0.5024 0.8647
vn -0.8647 0.5024 -0.0000
vn -0.6114 0.5024 -0.6114
vn -0.0000 0.5024 -0.8646
vn 0.6114 0.5024 -0.6114
vn 0.8647 0.5024 -0.0000
vn 0.6114 0.5024 0.6114
vn 0.3821 -0.0553 -0.9225
vn 0.3826 0.0196 -0.9237
vn -0.0000 -0.0000 -1.0000
vn 0.7071 -0.0000 -0.7071
vn 0.9225 -0.0553 -0.3821
vn 0.9237 0.0196 -0.3826
vn 1.0000 -0.0000 -0.0000
vn 0.9225 -0.0553 0.3821
vn 0.9237 0.0196 0.3826
vn 0.7071 -0.0000 0.7071
vn 0.3821 -0.0553 0.9225
vn 0.3826 0.0196 0.9237
vn -0.0000 -0.0000 1.0000
vn -0.3821 -0.0553 0.9225
vn -0.3826 0.0196 0.9237
vn -0.7071 -0.0000 0.7071
vn -0.9225 -0.0553 0.3821
vn -0.9237 0.0196 0.3826
vn -1.0000 -0.0000 -0.0000
vn -0.9225 -0.0553 -0.3821
vn -0.9237 0.0196 -0.3826
vn -0.7071 -0.0000 -0.7071
vn -0.3821 -0.0553 -0.9225
vn -0.3826 0.0196 -0.9237
vn -0.3726 0.2286 0.8994
vn -0.8994 0.2286 0.3726
vn -0.8994 0.2286 -0.3726
vn -0.3726 0.2286 -0.8994
vn 0.3726 0.2286 -0.8994
vn 0.8994 0.2286 -0.3726
vn 0.8994 0.2286 0.3726
vn 0.3726 0.2286 0.8994
vn -0.1795 0.9672 -0.1795
vn -0.0000 0.9672 -0.2539
vn 0.1795 0.9672 -0.1795
vn 0.2539 0.9672 -0.0000
vn 0.1795 0.9672 0.1795
vn -0.1795 0.9672 0.1795
vn -0.2539 0.9672 -0.0000
vn -0.0000 0.9672 0.2539
vn 0.0331 -0.9963 -0.0799
vn 0.0799 -0.9963 -0.0331
vn 0.0799 -0.9963 0.0331
vn 0.0331 -0.9963 0.0799
vn -0.0331 -0.9963 0.0799
vn -0.0799 -0.9963 0.0331
vn -0.0799 -0.9963 -0.0331
vn -0.0331 -0.9963 -0.0799
vn -0.0000 -0.5987 0.8009
vn 0.5663 -0.5987 0.5663
vn -0.5663 -0.5987 -0.5663
vn -0.8009 -0.5987 -0.0000
vn 0.8009 -0.5987 -0.0000
vn 0.5663 -0.5987 -0.5663
vn -0.5663 -0.5987 0.5663
vn -0.0000 -0.5987 -0.8009
vn -0.2697 0.7094 0.6512
vn -0.6512 0.7094 0.2697
vn -0.6512 0.7094 -0.2697
vn -0.2697 0.7094 -0.6512
vn 0.2697 0.7094 -0.6512
vn 0.6512 0.7094 -0.2697
vn 0.6512 0.7094 0.2697
vn 0.2697 0.7094 0.6512
vn 0.9746 0.2240 -0.0000
vn 0.6891 0.2240 0.6891
vn -0.0000 0.2240 -0.9746
vn 0.6891 0.2240 -0.6891
vn -0.9746 0.2240 -0.0000
vn -0.6891 0.2240 -0.6891
vn -0.0000 0.2240 0.9746
vn -0.6891 0.2240 0.6891
vn 0.3827 -0.0000 -0.9239
vn 0.9239 -0.0000 -0.3827
vn 0.9239 -0.0000 0.3827
vn 0.3827 -0.0000 0.9239
vn -0.3827 -0.0000 0.9239
vn -0.9239 -0.0000 0.3827
vn -0.0960 0.9680 -0.2318
vn -0.9239 -0.0000 -0.3827
vn -0.3827 -0.0000 -0.9239
vn 0.2959 -0.6341 0.7144
vn 0.8976 0.2367 0.3718
vn 0.0960 0.9680 -0.2318
vn 0.2318 0.9680 0.0960
vn -0.2318 0.9680 0.0960
vn 0.0960 0.9680 0.2318
vn -0.2318 0.9680 -0.0960
vn 0.2318 0.9680 -0.0960
vn -0.0960 0.9680 0.2318
vn -0.0000 -1.0000 -0.0000
vn -0.7144 -0.6341 -0.2959
vn 0.7144 -0.6341 -0.2959
vn -0.2959 -0.6341 0.7144
vn -0.2959 -0.6341 -0.7144
vn 0.2959 -0.6341 -0.7144
vn 0.7144 -0.6341 0.2959
vn -0.7144 -0.6341 0.2959
vn -0.0000 1.0000 -0.0000
vn 0.3718 0.2367 -0.8976
vn -0.8976 0.2367 -0.3718
vn -0.3718 0.2367 0.8976
vn 0.3718 0.2367 0.8976
vn 0.8976 0.2367 -0.3718
vn -0.3718 0.2367 -0.8976
vn -0.8976 0.2367 0.3718
vn -0.0000 -0.6493 -0.7605
vn -0.0000 -0.2066 -0.9784
vn 0.5378 -0.6493 -0.5377
vn 0.6918 -0.2066 -0.6919
vn 0.7605 -0.6494 -0.0000
vn 0.9784 -0.2066 -0.0000
vn 0.5377 -0.6494 0.5377
vn 0.6918 -0.2066 0.6919
vn -0.0000 -0.6493 0.7605
vn -0.0000 -0.2066 0.9784
vn -0.5378 -0.6493 0.5377
vn -0.6918 -0.2066 0.6919
vn -0.7605 -0.6494 -0.0000
vn -0.9784 -0.2066 -0.0000
vn -0.5377 -0.6494 -0.5377
vn -0.6918 -0.2066 -0.6919
vn -0.0661 -0.9956 0.0661
vn -0.0000 -0.9956 0.0934
vn -0.0934 -0.9956 -0.0000
vn -0.0661 -0.9956 -0.0661
vn -0.0000 -0.9956 -0.0934
vn 0.0661 -0.9956 -0.0661
vn 0.0934 -0.9956 -0.0000
vn 0.0661 -0.9956 0.0661
vn -0.6500 0.3936 0.6500
vn -0.0000 0.3936 0.9193
vn -0.9193 0.3936 -0.0000
vn -0.6500 0.3936 -0.6500
vn -0.0000 0.3935 -0.9193
vn 0.6500 0.3936 -0.6500
vn 0.9193 0.3936 -0.0000
vn 0.6501 0.3935 0.6500
vn -0.3656 0.8560 0.3656
vn -0.0000 0.8560 0.5170
vn -0.5171 0.8560 -0.0000
vn -0.3656 0.8560 -0.3656
vn -0.0000 0.8560 -0.5171
vn 0.3656 0.8560 -0.3656
vn 0.5171 0.8560 -0.0000
vn 0.3656 0.8559 0.3656
vn -0.5015 0.7050 0.5015
vn -0.0000 0.7050 0.7092
vn -0.7092 0.7050 -0.0000
vn -0.5015 0.7050 -0.5015
vn -0.0000 0.7050 -0.7092
vn 0.5015 0.7050 -0.5015
vn 0.7092 0.7050 -0.0000
vn 0.5015 0.7050 0.5015
vn -0.0022 0.9625 -0.2713
vn -0.0557 0.9674 -0.2469
vn -0.0926 0.9748 -0.2028
vn -0.2974 0.9529 0.0584
vn -0.2772 0.9537 0.1170
vn -0.1727 0.9693 0.1752
vn 0.2697 0.9612 0.0580
vn 0.2881 0.9576 0.0025
vn 0.1960 0.9742 -0.1116
vn 0.1010 0.9690 -0.2256
vn 0.0557 0.9632 -0.2631
vn -0.0264 0.9631 -0.2679
vn -0.0714 0.9693 -0.2354
vn -0.0928 0.9804 -0.1737
vn -0.2925 0.9521 0.0887
vn -0.2638 0.9542 0.1410
vn 0.1325 0.9835 0.1231
vn 0.2843 0.9583 0.0280
vn 0.2925 0.9558 -0.0288
vn 0.1201 0.9891 -0.0858
vn 0.0770 0.9642 -0.2538
vn 0.0271 0.9610 -0.2753
vn 0.2595 0.9625 0.0787
vn -0.1121 0.9901 -0.0848
vn -0.2322 0.9711 -0.0547
vn -0.1002 0.9792 -0.1767
vn -0.1500 0.9885 -0.0188
vn -0.2361 0.9717 0.0034
vn -0.1383 0.9116 -0.3870
vn -0.1220 0.9681 -0.2188
vn 0.0062 0.9964 0.0842
vn 0.1215 0.9601 0.2519
vn -0.0228 0.9974 -0.0683
vn 0.0518 0.9880 -0.1455
vn 0.0045 0.9999 -0.0163
vn -0.0094 0.9989 0.0458
vn -0.0149 0.9951 0.0975
vt 1.000000 0.750000
vt 0.937500 0.576389
vt 1.000000 0.500000
vt 1.000000 1.000000
vt 0.937500 0.750000
vt 0.937500 0.923611
vt 0.875000 0.750000
vt 0.875000 0.583333
vt 0.812500 0.583333
vt 0.875000 0.916667
vt 0.812500 0.750000
vt 0.812500 0.916667
vt 0.750000 0.750000
vt 0.750000 0.583333
vt 0.687500 0.583333
vt 0.750000 0.916667
vt 0.687500 0.750000
vt 0.687500 0.916667
vt 0.625000 0.750000
vt 0.625000 0.583333
vt 0.562500 0.583333
vt 0.625000 0.916667
vt 0.562500 0.750000
vt 0.562500 0.916667
vt 0.500000 0.750000
vt 0.500000 0.583333
vt 0.437500 0.583333
vt 0.500000 0.916667
vt 0.437500 0.750000
vt 0.375000 0.916667
vt 0.375000 0.750000
vt 0.375000 0.583333
vt 0.312500 0.583333
vt 0.312500 0.750000
vt 0.312500 0.916667
vt 0.250000 0.750000
vt 0.250000 0.583333
vt 0.062500 0.923611
vt 0.000000 1.000000
vt 0.000000 1.000000
vt 0.125000 0.989583
vt 0.062500 0.991320
vt 0.125000 1.000000
vt 0.062500 1.000000
vt 0.187500 0.583333
vt 0.250000 0.916667
vt 0.187500 0.750000
vt 0.187500 0.916667
vt 0.125000 0.750000
vt 0.125000 0.583333
vt 0.062500 0.750000
vt 0.062500 0.576389
vt 0.125000 0.916667
vt 0.000000 0.750000
vt 0.000000 0.500000
vt 0.562500 0.510417
vt 0.625000 0.510417
vt 0.500000 0.500000
vt 0.562500 0.500000
vt 0.625000 0.500000
vt 0.187500 1.000000
vt 0.125000 1.000000
vt 0.250000 1.000000
vt 0.250000 1.000000
vt 0.187500 1.000000
vt 0.875000 0.989583
vt 1.000000 1.000000
vt 0.937500 0.991320
vt 0.937500 1.000000
vt 0.875000 1.000000
vt 0.625000 0.989583
vt 0.750000 0.989583
vt 0.687500 0.989583
vt 0.750000 1.000000
vt 0.687500 1.000000
vt 0.625000 1.000000
vt 0.250000 0.989583
vt 0.375000 0.989583
vt 0.312500 0.989583
vt 0.375000 1.000000
vt 0.312500 1.000000
vt 0.500000 0.989583
vt 0.562500 0.989583
vt 0.562500 1.000000
vt 0.500000 1.000000
vt 0.187500 0.989583
vt 0.812500 0.989583
vt 0.812500 1.000000
vt 0.437500 0.916667
vt 0.437500 0.989583
vt 0.437500 1.000000
vt 0.834853 0.454853
vt 0.665147 0.454853
vt 0.750000 0.490000
vt 0.954853 0.334853
vt 0.919706 0.419706
vt 0.954853 0.165147
vt 0.990000 0.250000
vt 0.834853 0.045147
vt 0.919706 0.080294
vt 0.665147 0.045147
vt 0.750000 0.010000
vt 0.545147 0.165147
vt 0.580294 0.080294
vt 0.545147 0.334853
vt 0.510000 0.250000
vt 0.580294 0.419706
vt 0.187500 0.510417
vt 0.250000 0.510417
vt 0.125000 0.500000
vt 0.187500 0.500000
vt 0.250000 0.500000
vt 0.812500 0.510417
vt 0.875000 0.510417
vt 0.750000 0.500000
vt 0.812500 0.500000
vt 0.875000 0.500000
vt 0.437500 0.510417
vt 0.500000 0.510417
vt 0.375000 0.500000
vt 0.437500 0.500000
vt 0.062500 0.508681
vt 0.125000 0.510417
vt 0.000000 0.500000
vt 0.062500 0.500000
vt 0.937500 0.508681
vt 1.000000 0.500000
vt 0.937500 0.500000
vt 0.687500 0.510417
vt 0.750000 0.510417
vt 0.687500 0.500000
vt 0.312500 0.510417
vt 0.375000 0.510417
vt 0.312500 0.500000
vt 0.334853 0.454853
vt 0.454853 0.334853
vt 0.419706 0.419706
vt 0.165147 0.454853
vt 0.250000 0.490000
vt 0.045147 0.334853
vt 0.080294 0.419706
vt 0.045147 0.165147
vt 0.010000 0.250000
vt 0.165147 0.045147
vt 0.080294 0.080294
vt 0.334853 0.045147
vt 0.250000 0.010000
vt 0.454853 0.165147
vt 0.419706 0.080294
vt 0.490000 0.250000
vt 0.375000 1.000000
vt 0.500000 1.000000
vt 0.437500 1.000000
vt 0.750000 1.000000
vt 0.687500 1.000000
vt 0.750000 1.000000
vt 0.625000 1.000000
vt 0.937500 1.000000
vt 0.875000 1.000000
vt 0.062500 1.000000
vt 0.062500 1.000000
vt 0.312500 1.000000
vt 0.312500 1.000000
vt 0.562500 1.000000
vt 0.562500 1.000000
vt 0.812500 1.000000
vt 0.812500 1.000000
vt 0.587288 0.802802
vt 0.560327 0.781425
vt 0.555677 0.793058
vt 0.560208 0.783961
vt 0.559047 0.783379
vt 0.560835 0.778284
vt 0.556880 0.786849
vt 0.554155 0.788891
vt 0.558959 0.802802
vt 0.555143 0.791231
vt 0.555788 0.787394
vt 0.551155 0.795299
vt 0.495761 0.430096
vt 0.503598 0.430303
vt 0.537711 0.802802
vt 0.552801 0.805643
vt 0.919706 0.080294
vt 0.580294 0.080294
vt 0.580294 0.419706
vt 0.533777 0.427103
vt 0.526894 0.429137
vt 0.531890 0.428400
vt 0.527055 0.429998
vt 0.544794 0.802802
vt 0.500000 1.000000
vt 0.503598 0.430303
vt 0.511405 0.430357
vt 0.250000 1.000000
vt 0.125000 1.000000
vt 0.558798 0.776274
vt 0.519200 0.430294
vt 0.533777 0.427103
vt 0.510970 0.423698
vt 0.489012 0.427413
vt 0.509953 0.434510
vt 0.519125 0.429149
vt 0.496077 0.429030
vt 0.503767 0.429147
vt 0.510970 0.423698
vt 0.490422 0.428240
vt 0.489012 0.427413
vt 0.511450 0.429117
vt 0.250000 0.490000
vt 0.010000 0.250000
vt 0.250000 0.010000
vt 0.646181 0.578135
vt 0.637155 0.591644
vt 0.589257 0.574434
vt 0.661785 0.467819
vt 0.569121 0.521812
vt 0.559968 0.424322
vt 0.591644 0.362845
vt 0.605152 0.371871
vt 0.467819 0.338215
vt 0.500000 0.335045
vt 0.419488 0.374851
vt 0.412778 0.579277
vt 0.335045 0.500000
vt 0.338215 0.467819
vt 0.410194 0.638382
vt 0.408356 0.637155
vt 0.426326 0.600585
vt 0.428459 0.474199
vt 0.481471 0.454093
vt 0.523599 0.507951
vt 0.750000 0.250000
vt 0.250000 0.250000
vt 0.750000 0.490000
vt 0.919706 0.419706
vt 0.990000 0.250000
vt 0.750000 0.010000
vt 0.510000 0.250000
vt 1.000000 1.000000
vt 0.490000 0.250000
vt 0.419706 0.419706
vt 0.080294 0.419706
vt 0.080294 0.080294
vt 0.419706 0.080294
vt 0.467819 0.661785
vt 0.451884 0.658615
vt 0.497656 0.609486
vt 0.436875 0.652398
vt 0.421865 0.646181
vt 0.563125 0.652398
vt 0.548515 0.533180
vt 0.662852 0.473184
vt 0.664955 0.483753
vt 0.664955 0.500000
vt 0.664955 0.516247
vt 0.661785 0.532181
vt 0.658615 0.548115
vt 0.652398 0.563125
vt 0.500000 0.664955
vt 0.516246 0.664955
vt 0.483753 0.664955
vt 0.532181 0.661785
vt 0.578135 0.646181
vt 0.548115 0.658615
vt 0.605152 0.628129
vt 0.591644 0.637155
vt 0.628129 0.605152
vt 0.616640 0.616641
vt 0.637155 0.408356
vt 0.646181 0.421865
vt 0.652398 0.436875
vt 0.658615 0.451885
vt 0.628129 0.394848
vt 0.542580 0.340283
vt 0.548116 0.341384
vt 0.563125 0.347602
vt 0.578135 0.353819
vt 0.616641 0.383359
vt 0.532181 0.338215
vt 0.339096 0.463390
vt 0.341385 0.451884
vt 0.347602 0.436874
vt 0.353819 0.421865
vt 0.362845 0.408356
vt 0.371871 0.394847
vt 0.383360 0.383359
vt 0.394848 0.371871
vt 0.408356 0.362845
vt 0.421865 0.353819
vt 0.436875 0.347602
vt 0.451885 0.341384
vt 0.483753 0.335045
vt 0.516247 0.335045
vt 0.404523 0.634594
vt 0.394847 0.628128
vt 0.383359 0.616640
vt 0.371871 0.605152
vt 0.362845 0.591644
vt 0.353819 0.578135
vt 0.347602 0.563125
vt 0.341384 0.548115
vt 0.338215 0.532181
vt 0.335045 0.516246
vt 0.335045 0.483753
s 1
usemtl Metalnew.001
f 43/1/43 41/2/41 1/3/1
f 2/4/2 113/5/113 43/1/43
f 42/6/42 44/7/44 113/5/113
f 113/5/113 3/8/3 41/2/41
f 44/7/44 45/9/45 3/8/3
f 4/10/4 114/11/114 44/7/44
f 46/12/46 47/13/47 114/11/114
f 114/11/114 5/14/5 45/9/45
f 47/13/47 48/15/48 5/14/5
f 6/16/6 115/17/115 47/13/47
f 49/18/49 50/19/50 115/17/115
f 115/17/115 7/20/7 48/15/48
f 50/19/50 51/21/51 7/20/7
f 8/22/8 116/23/116 50/19/50
f 52/24/52 53/25/53 116/23/116
f 116/23/116 9/26/9 51/21/51
f 53/25/53 54/27/54 9/26/9
f 10/28/10 117/29/117 53/25/53
f 117/29/117 12/30/12 56/31/56
f 117/29/117 11/32/11 54/27/54
f 56/31/56 57/33/57 11/32/11
f 12/30/12 118/34/118 56/31/56
f 58/35/58 59/36/59 118/34/118
f 118/34/118 13/37/13 57/33/57
f 64/38/64 74/39/74 2/40/2
f 64/38/64 73/41/73 119/42/119
f 119/42/119 24/43/24 72/44/72
f 119/42/119 18/40/18 74/39/74
f 59/36/59 60/45/60 13/37/13
f 14/46/14 120/47/120 59/36/59
f 61/48/61 62/49/62 120/47/120
f 120/47/120 15/50/15 60/45/60
f 15/50/15 121/51/121 63/52/63
f 16/53/16 121/51/121 62/49/62
f 64/38/64 43/54/43 121/51/121
f 121/51/121 1/55/1 63/52/63
f 7/20/7 122/56/122 90/57/90
f 9/26/9 122/56/122 51/21/51
f 122/56/122 29/58/29 84/59/84
f 122/56/122 28/60/28 90/57/90
f 71/61/71 106/62/106 24/43/24
f 71/61/71 105/63/105 123/61/123
f 123/61/123 39/64/39 103/65/103
f 123/61/123 40/62/40 106/62/106
f 42/6/42 75/66/75 4/10/4
f 42/6/42 74/67/74 124/68/124
f 124/68/124 18/4/18 65/69/65
f 124/68/124 17/70/17 75/66/75
f 49/18/49 77/71/77 8/22/8
f 49/18/49 76/72/76 125/73/125
f 125/73/125 19/74/19 67/75/67
f 125/73/125 20/76/20 77/71/77
f 58/35/58 79/77/79 14/46/14
f 58/35/58 78/78/78 126/79/126
f 126/79/126 22/80/22 70/81/70
f 126/79/126 23/64/23 79/77/79
f 52/24/52 80/82/80 10/28/10
f 52/24/52 77/71/77 127/83/127
f 127/83/127 20/76/20 68/84/68
f 127/83/127 21/85/21 80/82/80
f 61/48/61 73/41/73 16/53/16
f 61/48/61 79/77/79 128/86/128
f 128/86/128 23/64/23 71/61/71
f 128/86/128 24/43/24 73/41/73
f 46/12/46 76/72/76 6/16/6
f 46/12/46 75/66/75 129/87/129
f 129/87/129 17/70/17 66/88/66
f 129/87/129 19/74/19 76/72/76
f 55/89/55 78/78/78 12/30/12
f 55/89/55 80/82/80 130/90/130
f 130/90/130 21/85/21 69/91/69
f 130/90/130 22/80/22 78/78/78
f 81/92/81 88/93/88 25/94/25
f 82/95/82 81/92/81 26/96/26
f 83/97/83 82/95/82 27/98/27
f 84/99/84 83/97/83 28/100/28
f 85/101/85 84/99/84 29/102/29
f 86/103/86 85/101/85 30/104/30
f 87/105/87 86/103/86 31/106/31
f 88/93/88 87/105/87 32/107/32
f 13/37/13 132/108/132 92/109/92
f 15/50/15 132/108/132 60/45/60
f 132/108/132 32/110/32 87/111/87
f 132/108/132 31/112/31 92/109/92
f 3/8/3 133/113/133 94/114/94
f 5/14/5 133/113/133 45/9/45
f 133/113/133 27/115/27 82/116/82
f 133/113/133 26/117/26 94/114/94
f 9/26/9 134/118/134 89/119/89
f 11/32/11 134/118/134 54/27/54
f 134/118/134 30/120/30 85/121/85
f 134/118/134 29/58/29 89/119/89
f 15/50/15 135/122/135 91/123/91
f 1/55/1 135/122/135 63/52/63
f 135/122/135 25/124/25 88/125/88
f 135/122/135 32/110/32 91/123/91
f 1/3/1 136/126/136 96/127/96
f 3/8/3 136/126/136 41/2/41
f 136/126/136 26/117/26 81/128/81
f 136/126/136 25/127/25 96/127/96
f 5/14/5 137/129/137 93/130/93
f 7/20/7 137/129/137 48/15/48
f 137/129/137 28/60/28 83/131/83
f 137/129/137 27/115/27 93/130/93
f 11/32/11 138/132/138 95/133/95
f 13/37/13 138/132/138 57/33/57
f 138/132/138 31/112/31 86/134/86
f 138/132/138 30/120/30 95/133/95
f 97/135/97 98/136/98 33/137/33
f 104/138/104 97/135/97 34/139/34
f 103/140/103 104/138/104 40/141/40
f 102/142/102 103/140/103 39/143/39
f 101/144/101 102/142/102 38/145/38
f 100/146/100 101/144/101 37/147/37
f 99/148/99 100/146/100 36/149/36
f 98/136/98 99/148/99 35/150/35
f 69/91/69 108/151/108 22/80/22
f 69/91/69 107/152/107 140/153/140
f 140/153/140 37/85/37 101/91/101
f 140/153/140 38/151/38 108/151/108
f 67/75/67 110/76/110 20/76/20
f 67/75/67 109/154/109 141/155/141
f 141/155/141 35/156/35 99/75/99
f 141/155/141 36/157/36 110/76/110
f 65/69/65 112/70/112 17/70/17
f 65/69/65 111/67/111 142/69/142
f 142/69/142 34/67/34 97/158/97
f 142/69/142 33/159/33 112/70/112
f 72/44/72 111/39/111 18/40/18
f 72/44/72 106/62/106 143/160/143
f 143/160/143 40/62/40 104/161/104
f 143/160/143 34/39/34 111/39/111
f 70/81/70 105/63/105 23/64/23
f 70/81/70 108/151/108 144/162/144
f 144/162/144 38/151/38 102/163/102
f 144/162/144 39/64/39 105/63/105
f 68/84/68 107/152/107 21/85/21
f 68/84/68 110/76/110 145/164/145
f 145/164/145 36/157/36 100/165/100
f 145/164/145 37/85/37 107/152/107
f 66/88/66 109/154/109 19/74/19
f 66/88/66 112/70/112 146/166/146
f 146/166/146 33/159/33 98/167/98
f 146/166/146 35/156/35 109/154/109
f 43/1/43 113/5/113 41/2/41
f 2/4/2 42/6/42 113/5/113
f 42/6/42 4/10/4 44/7/44
f 113/5/113 44/7/44 3/8/3
f 44/7/44 114/11/114 45/9/45
f 4/10/4 46/12/46 114/11/114
f 46/12/46 6/16/6 47/13/47
f 114/11/114 47/13/47 5/14/5
f 47/13/47 115/17/115 48/15/48
f 6/16/6 49/18/49 115/17/115
f 49/18/49 8/22/8 50/19/50
f 115/17/115 50/19/50 7/20/7
f 50/19/50 116/23/116 51/21/51
f 8/22/8 52/24/52 116/23/116
f 52/24/52 10/28/10 53/25/53
f 116/23/116 53/25/53 9/26/9
f 53/25/53 117/29/117 54/27/54
f 10/28/10 55/89/55 117/29/117
f 117/29/117 55/89/55 12/30/12
f 117/29/117 56/31/56 11/32/11
f 56/31/56 118/34/118 57/33/57
f 12/30/12 58/35/58 118/34/118
f 58/35/58 14/46/14 59/36/59
f 118/34/118 59/36/59 13/37/13
f 64/38/64 119/42/119 74/39/74
f 64/38/64 16/53/16 73/41/73
f 119/42/119 73/41/73 24/43/24
f 119/42/119 72/44/72 18/40/18
f 59/36/59 120/47/120 60/45/60
f 14/46/14 61/48/61 120/47/120
f 61/48/61 16/53/16 62/49/62
f 120/47/120 62/49/62 15/50/15
f 15/50/15 62/49/62 121/51/121
f 16/53/16 64/38/64 121/51/121
f 64/38/64 2/40/2 43/54/43
f 121/51/121 43/54/43 1/55/1
f 7/20/7 51/21/51 122/56/122
f 9/26/9 89/119/89 122/56/122
f 122/56/122 89/119/89 29/58/29
f 122/56/122 84/59/84 28/60/28
f 71/61/71 123/61/123 106/62/106
f 71/61/71 23/64/23 105/63/105
f 123/61/123 105/63/105 39/64/39
f 123/61/123 103/65/103 40/62/40
f 42/6/42 124/68/124 75/66/75
f 42/6/42 2/4/2 74/67/74
f 124/68/124 74/67/74 18/4/18
f 124/68/124 65/69/65 17/70/17
f 49/18/49 125/73/125 77/71/77
f 49/18/49 6/16/6 76/72/76
f 125/73/125 76/72/76 19/74/19
f 125/73/125 67/75/67 20/76/20
f 58/35/58 126/79/126 79/77/79
f 58/35/58 12/30/12 78/78/78
f 126/79/126 78/78/78 22/80/22
f 126/79/126 70/81/70 23/64/23
f 52/24/52 127/83/127 80/82/80
f 52/24/52 8/22/8 77/71/77
f 127/83/127 77/71/77 20/76/20
f 127/83/127 68/84/68 21/85/21
f 61/48/61 128/86/128 73/41/73
f 61/48/61 14/46/14 79/77/79
f 128/86/128 79/77/79 23/64/23
f 128/86/128 71/61/71 24/43/24
f 46/12/46 129/87/129 76/72/76
f 46/12/46 4/10/4 75/66/75
f 129/87/129 75/66/75 17/70/17
f 129/87/129 66/88/66 19/74/19
f 55/89/55 130/90/130 78/78/78
f 55/89/55 10/28/10 80/82/80
f 130/90/130 80/82/80 21/85/21
f 130/90/130 69/91/69 22/80/22
f 81/92/81 131/233/131 88/93/88
f 82/95/82 131/233/131 81/92/81
f 83/97/83 131/233/131 82/95/82
f 84/99/84 131/233/131 83/97/83
f 85/101/85 131/233/131 84/99/84
f 86/103/86 131/233/131 85/101/85
f 87/105/87 131/233/131 86/103/86
f 88/93/88 131/233/131 87/105/87
f 13/37/13 60/45/60 132/108/132
f 15/50/15 91/123/91 132/108/132
f 132/108/132 91/123/91 32/110/32
f 132/108/132 87/111/87 31/112/31
f 3/8/3 45/9/45 133/113/133
f 5/14/5 93/130/93 133/113/133
f 133/113/133 93/130/93 27/115/27
f 133/113/133 82/116/82 26/117/26
f 9/26/9 54/27/54 134/118/134
f 11/32/11 95/133/95 134/118/134
f 134/118/134 95/133/95 30/120/30
f 134/118/134 85/121/85 29/58/29
f 15/50/15 63/52/63 135/122/135
f 1/55/1 96/124/96 135/122/135
f 135/122/135 96/124/96 25/124/25
f 135/122/135 88/125/88 32/110/32
f 1/3/1 41/2/41 136/126/136
f 3/8/3 94/114/94 136/126/136
f 136/126/136 94/114/94 26/117/26
f 136/126/136 81/128/81 25/127/25
f 5/14/5 48/15/48 137/129/137
f 7/20/7 90/57/90 137/129/137
f 137/129/137 90/57/90 28/60/28
f 137/129/137 83/131/83 27/115/27
f 11/32/11 57/33/57 138/132/138
f 13/37/13 92/109/92 138/132/138
f 138/132/138 92/109/92 31/112/31
f 138/132/138 86/134/86 30/120/30
f 97/135/97 139/234/139 98/136/98
f 104/138/104 139/234/139 97/135/97
f 103/140/103 139/234/139 104/138/104
f 102/142/102 139/234/139 103/140/103
f 101/144/101 139/234/139 102/142/102
f 100/146/100 139/234/139 101/144/101
f 99/148/99 139/234/139 100/146/100
f 98/136/98 139/234/139 99/148/99
f 69/91/69 140/153/140 108/151/108
f 69/91/69 21/85/21 107/152/107
f 140/153/140 107/152/107 37/85/37
f 140/153/140 101/91/101 38/151/38
f 67/75/67 141/155/141 110/76/110
f 67/75/67 19/74/19 109/154/109
f 141/155/141 109/154/109 35/156/35
f 141/155/141 99/75/99 36/157/36
f 65/69/65 142/69/142 112/70/112
f 65/69/65 18/4/18 111/67/111
f 142/69/142 111/67/111 34/67/34
f 142/69/142 97/158/97 33/159/33
f 72/44/72 143/160/143 111/39/111
f 72/44/72 24/43/24 106/62/106
f 143/160/143 106/62/106 40/62/40
f 143/160/143 104/161/104 34/39/34
f 70/81/70 144/162/144 105/63/105
f 70/81/70 22/80/22 108/151/108
f 144/162/144 108/151/108 38/151/38
f 144/162/144 102/163/102 39/64/39
f 68/84/68 145/164/145 107/152/107
f 68/84/68 20/76/20 110/76/110
f 145/164/145 110/76/110 36/157/36
f 145/164/145 100/165/100 37/85/37
f 66/88/66 146/166/146 109/154/109
f 66/88/66 17/70/17 112/70/112
f 146/166/146 112/70/112 33/159/33
f 146/166/146 98/167/98 35/156/35
usemtl fabric.002
f 148/168/148 149/169/149 147/170/147
f 150/171/150 151/172/151 149/169/149
f 151/172/151 154/173/154 153/174/153
f 154/173/154 155/175/155 153/174/153
f 156/176/156 157/177/157 155/175/155
f 158/178/158 159/179/159 157/177/157
f 154/173/154 165/180/165 166/181/166
f 159/179/159 162/182/162 161/183/161
f 161/183/161 148/168/148 147/170/147
f 153/184/153 157/185/157 161/186/161
f 170/187/170 177/188/177 178/189/178
f 158/178/158 169/190/169 160/191/160
f 156/192/156 166/193/166 167/194/167
f 160/195/160 170/187/170 162/196/162
f 150/171/150 165/180/165 152/197/152
f 156/176/156 168/198/168 158/178/158
f 148/168/148 170/199/170 164/200/164
f 148/168/148 163/201/163 150/171/150
f 172/202/172 186/196/186 180/40/180
f 167/194/167 176/203/176 168/198/168
f 166/193/166 173/204/173 174/205/174
f 164/206/164 171/207/171 163/208/163
f 164/206/164 178/189/178 172/202/172
f 168/198/168 177/188/177 169/190/169
f 167/194/167 174/205/174 175/209/175
f 165/180/165 171/207/171 173/204/173
f 182/157/182 191/85/191 183/85/183
f 176/203/176 185/195/185 177/188/177
f 174/205/174 183/192/183 175/209/175
f 171/207/171 181/156/181 173/204/173
f 177/188/177 186/196/186 178/189/178
f 175/209/175 184/151/184 176/203/176
f 173/204/173 182/157/182 174/205/174
f 172/202/172 179/159/179 171/207/171
f 188/210/188 193/211/193 191/212/191
f 179/159/179 189/156/189 181/156/181
f 185/64/185 194/62/194 186/62/186
f 183/85/183 192/151/192 184/151/184
f 181/156/181 190/157/190 182/157/182
f 180/4/180 187/159/187 179/159/179
f 180/40/180 194/62/194 188/40/188
f 184/151/184 193/64/193 185/64/185
f 148/168/148 150/171/150 149/169/149
f 150/171/150 152/197/152 151/172/151
f 151/172/151 152/197/152 154/173/154
f 154/173/154 156/176/156 155/175/155
f 156/176/156 158/178/158 157/177/157
f 158/178/158 160/191/160 159/179/159
f 154/173/154 152/197/152 165/180/165
f 159/179/159 160/191/160 162/182/162
f 161/183/161 162/182/162 148/168/148
f 161/186/161 147/235/147 149/236/149
f 149/236/149 151/237/151 153/184/153
f 153/184/153 155/238/155 157/185/157
f 157/185/157 159/239/159 161/186/161
f 161/186/161 149/236/149 153/184/153
f 170/187/170 169/190/169 177/188/177
f 158/178/158 168/198/168 169/190/169
f 156/176/156 154/173/154 166/181/166
f 160/195/160 169/190/169 170/187/170
f 150/171/150 163/201/163 165/180/165
f 156/192/156 167/194/167 168/198/168
f 148/168/148 162/182/162 170/199/170
f 148/240/148 164/206/164 163/208/163
f 172/202/172 178/189/178 186/196/186
f 167/194/167 175/209/175 176/203/176
f 166/193/166 165/180/165 173/204/173
f 164/206/164 172/202/172 171/207/171
f 164/206/164 170/187/170 178/189/178
f 168/198/168 176/203/176 177/188/177
f 167/194/167 166/193/166 174/205/174
f 165/180/165 163/208/163 171/207/171
f 182/157/182 190/157/190 191/85/191
f 176/203/176 184/151/184 185/195/185
f 174/205/174 182/157/182 183/192/183
f 171/207/171 179/159/179 181/156/181
f 177/188/177 185/195/185 186/196/186
f 175/209/175 183/192/183 184/151/184
f 173/204/173 181/156/181 182/157/182
f 172/202/172 180/240/180 179/159/179
f 189/241/189 187/242/187 188/210/188
f 188/210/188 194/243/194 193/211/193
f 193/211/193 192/244/192 191/212/191
f 191/212/191 190/245/190 189/241/189
f 189/241/189 188/210/188 191/212/191
f 179/159/179 187/159/187 189/156/189
f 185/64/185 193/64/193 194/62/194
f 183/85/183 191/85/191 192/151/192
f 181/156/181 189/156/189 190/157/190
f 180/4/180 188/4/188 187/159/187
f 180/40/180 186/62/186 194/62/194
f 184/151/184 192/151/192 193/64/193
usemtl trash.002
f 221/213/139 253/214/139 271/215/228
f 249/216/211 267/217/224 274/218/231
f 245/219/139 214/220/139 274/218/231
f 241/221/139 242/222/139 268/223/225
f 264/224/221 234/225/139 235/226/139
f 263/227/220 229/228/208 265/229/222
f 273/230/230 269/231/226 270/232/227
f 227/246/206 196/247/196 272/248/229
f 196/247/196 228/249/207 272/248/229
f 228/249/207 197/250/197 272/248/229
f 197/250/197 263/227/220 272/248/229
f 272/248/229 271/215/228 256/251/214
f 271/215/228 266/252/223 267/217/224
f 267/217/224 259/253/217 218/254/201
f 218/254/201 250/255/212 267/217/224
f 250/255/212 219/256/202 267/217/224
f 251/257/213 220/258/203 267/217/224
f 220/258/203 252/259/139 271/215/228
f 219/256/202 251/257/213 267/217/224
f 271/215/228 267/217/224 220/258/203
f 258/260/216 272/248/229 226/261/205
f 195/262/195 227/246/206 272/248/229
f 257/263/215 226/261/205 272/248/229
f 258/260/216 195/262/195 272/248/229
f 256/251/214 271/215/228 224/264/139
f 225/265/204 257/263/215 272/248/229
f 256/251/214 225/265/204 272/248/229
f 223/266/139 255/267/139 271/215/228
f 255/267/139 224/264/139 271/215/228
f 253/214/139 222/268/139 271/215/228
f 222/268/139 254/269/139 271/215/228
f 254/269/139 223/266/139 271/215/228
f 221/213/139 271/215/228 252/259/139
f 249/216/211 259/253/217 267/217/224
f 267/217/224 266/252/223 270/232/227
f 270/232/227 269/231/226 274/218/231
f 274/218/231 247/270/139 216/271/139
f 248/272/139 217/273/139 274/218/231
f 217/273/139 249/216/211 274/218/231
f 274/218/231 216/271/139 248/272/139
f 267/217/224 270/232/227 274/218/231
f 215/274/139 247/270/139 274/218/231
f 274/218/231 269/231/226 260/275/139
f 269/231/226 268/223/225 260/275/139
f 274/218/231 260/275/139 212/276/139
f 244/277/139 213/278/139 274/218/231
f 213/278/139 245/219/139 274/218/231
f 212/276/139 244/277/139 274/218/231
f 215/274/139 274/218/231 246/279/139
f 214/220/139 246/279/139 274/218/231
f 243/280/139 260/275/139 268/223/225
f 268/223/225 269/231/226 273/230/230
f 273/230/230 264/224/221 262/281/219
f 262/281/219 204/282/198 273/230/230
f 204/282/198 236/283/209 273/230/230
f 236/283/209 205/284/199 273/230/230
f 205/284/199 237/285/210 273/230/230
f 237/285/210 206/286/200 273/230/230
f 206/286/200 238/287/139 268/223/225
f 273/230/230 206/286/200 268/223/225
f 238/287/139 207/288/139 268/223/225
f 207/288/139 239/289/139 268/223/225
f 239/289/139 208/290/139 268/223/225
f 208/290/139 240/291/139 268/223/225
f 240/291/139 209/292/139 268/223/225
f 209/292/139 241/221/139 268/223/225
f 241/221/139 210/293/139 242/222/139
f 242/222/139 211/294/139 243/280/139
f 242/222/139 243/280/139 268/223/225
f 235/226/139 262/281/219 264/224/221
f 264/224/221 261/295/218 198/296/139
f 198/296/139 230/297/139 264/224/221
f 230/297/139 199/298/139 264/224/221
f 199/298/139 231/299/139 264/224/221
f 231/299/139 200/300/139 264/224/221
f 200/300/139 232/301/139 264/224/221
f 232/301/139 201/302/139 264/224/221
f 201/302/139 233/303/139 264/224/221
f 233/303/139 202/304/139 264/224/221
f 202/304/139 234/225/139 264/224/221
f 234/225/139 203/305/139 235/226/139
f 229/228/208 261/295/218 265/229/222
f 261/295/218 264/224/221 265/229/222
f 265/229/222 266/252/223 272/248/229
f 266/252/223 271/215/228 272/248/229
f 272/248/229 263/227/220 265/229/222
f 266/252/223 265/229/222 270/232/227
f 265/229/222 264/224/221 270/232/227
f 264/224/221 273/230/230 270/232/227
