# Blender 5.1.2
# www.blender.org
mtllib walls.mtl
o Plane.022
v -2.425330 1.266963 1.149731
v -2.135738 1.266963 1.149731
v -2.425330 1.266963 -1.330726
v -2.135738 1.266963 -1.330726
v -2.425330 1.186203 -1.330726
v -2.425330 1.186203 1.149731
v -2.135738 1.186203 1.149731
v -2.135738 1.186203 -1.330726
v -2.352931 2.714921 3.515421
v -2.352931 -0.180995 3.515421
v -2.352932 2.714921 -3.515421
v -2.352932 -0.180995 -3.515421
v -2.416366 2.714921 -3.515421
v -2.416365 2.714921 3.515421
v -2.416364 -0.180995 3.515421
v -2.416365 -0.180995 -3.515421
v -2.352931 2.714921 10.721161
v -2.352931 -0.180995 10.721161
v -2.416364 2.714921 10.721161
v -2.416364 -0.180995 10.721161
v -2.352932 2.214417 -3.515421
v -2.352932 2.714921 -2.515591
v -2.416366 2.714921 -2.563037
v -2.352932 2.506150 -2.524399
v -2.352932 2.495245 -2.826586
v -2.352932 2.362460 -2.836709
v -2.352932 2.306669 -2.630293
v -2.352932 2.198813 -2.631616
v -2.352932 2.210238 -3.046637
v -2.352932 2.048657 -3.034467
v -2.352932 2.069007 -3.190194
v -2.352932 2.224362 -3.227578
v -2.366551 2.533445 0.375302
v -2.339313 2.533445 0.375302
v -2.366551 2.533445 -0.375302
v -2.339313 2.533445 -0.375302
v -2.366551 1.615641 0.009971
v -2.366551 1.980972 0.375302
v -2.366551 1.722644 0.268299
v -2.339313 1.980972 0.375302
v -2.339313 1.615641 0.009971
v -2.339313 1.722644 0.268299
v -2.366551 1.980972 -0.375302
v -2.366551 1.615641 -0.009971
v -2.366551 1.722644 -0.268299
v -2.339313 1.615641 -0.009971
v -2.339313 1.980972 -0.375302
v -2.339313 1.722644 -0.268299
v 8.757261 2.714922 3.368252
v 8.757262 -0.180994 3.368252
v -2.492086 2.714920 3.368252
v -2.492085 -0.180996 3.368252
v -2.492086 2.714920 3.431686
v 8.757261 2.714922 3.431685
v 8.757262 -0.180994 3.431685
v -2.492085 -0.180996 3.431686
v -0.478014 1.909738 3.368252
v -1.220578 1.909738 3.368252
v -1.220578 1.167173 3.368252
v -0.478014 1.167173 3.368252
v -0.478014 1.909738 3.431685
v -1.220578 1.909738 3.431685
v -0.478014 1.167173 3.431685
v -1.220578 1.167173 3.431685
v 0.969944 1.909738 3.368252
v 0.227379 1.909738 3.368252
v 0.227380 1.167173 3.368252
v 0.969944 1.167173 3.368252
v 0.969944 1.167173 3.431685
v 0.227380 1.167173 3.431685
v 0.969944 1.909738 3.431685
v 0.227379 1.909738 3.431685
v 1.699143 2.425668 3.368252
v 8.098870 -0.180994 3.368252
v 1.699144 -0.180995 3.368252
v 8.098869 2.425669 3.368252
v 1.699143 2.425668 3.431685
v 8.098870 -0.180994 3.431685
v 1.699144 -0.180995 3.431685
v 8.098869 2.425669 3.431685
v -2.281173 1.952436 3.368252
v -1.747046 1.174238 3.368252
v -2.281173 1.174238 3.368252
v -1.747046 1.952436 3.368252
v -2.281173 1.952436 3.431686
v -1.747046 1.174238 3.431686
v -2.281173 1.174238 3.431686
v -1.747046 1.952436 3.431686
v -1.642089 -0.142449 3.452036
v -1.633039 2.712575 3.452036
v -1.642089 -0.142449 3.244770
v -1.633039 2.712575 3.244770
v -1.434822 -0.142449 3.452036
v -1.425772 2.712575 3.452036
v -1.434822 -0.142449 3.244770
v -1.425772 2.712575 3.244770
v -0.132800 -0.142449 3.452036
v -0.123750 2.712575 3.452036
v -0.132800 -0.142449 3.244770
v -0.123750 2.712575 3.244770
v 0.074467 -0.142449 3.452036
v 0.083517 2.712575 3.452036
v 0.074467 -0.142449 3.244770
v 0.083517 2.712575 3.244770
v 1.293528 1.105630 3.420221
v 1.293528 1.181733 3.420221
v 1.293528 1.105630 3.095590
v 1.293528 1.181733 3.095590
v -1.293528 1.105630 3.420221
v -1.293528 1.181733 3.420221
v -1.293528 1.105630 3.095590
v -1.293528 1.181733 3.095590
v 1.293528 1.105630 3.690217
v 1.293528 1.181733 3.690217
v -1.293528 1.181733 3.690217
v -1.293528 1.105630 3.690217
v 1.770646 1.105630 3.420221
v 1.770646 1.181733 3.420221
v -1.770646 1.181733 3.420221
v -1.770646 1.105630 3.420221
v 1.770646 1.105630 3.690217
v 1.770646 1.181733 3.690217
v -1.770646 1.181733 3.690217
v -1.770646 1.105630 3.690217
v -2.415115 1.181733 3.095590
v -2.415115 1.105630 3.095590
v -2.415115 1.105630 3.420221
v -2.415115 1.181733 3.420221
v 7.368884 2.714921 3.444773
v 7.368885 -0.180995 3.444773
v 7.368883 2.714921 -3.586070
v 7.368884 -0.180995 -3.586070
v 7.305450 2.714921 -3.586070
v 7.305451 2.714921 3.444773
v 7.305451 -0.180995 3.444773
v 7.305450 -0.180995 -3.586070
v 7.368885 2.714921 10.659470
v 7.368886 -0.180995 10.659470
v 7.305451 2.714921 10.659470
v 7.305452 -0.180995 10.659470
v -2.351525 2.714920 -3.438899
v -3.080301 -0.180996 -3.438899
v 8.872132 2.714922 -3.438901
v 8.872133 -0.180994 -3.438901
v 8.872132 2.714922 -3.502335
v -3.080302 2.714920 -3.502332
v -3.080301 -0.180996 -3.502332
v 8.872133 -0.180994 -3.502335
v 0.020654 2.375846 -3.438900
v 1.158205 2.375846 -3.438900
v 0.020654 0.568776 -3.438900
v 1.158206 0.568776 -3.438900
v 0.020654 -0.180995 -3.438900
v 1.158206 -0.180995 -3.438900
v 0.020654 -0.180995 -3.502333
v 1.158206 -0.180995 -3.502333
v 1.158206 0.568776 -3.502333
v 0.020654 0.568776 -3.502333
v 0.020654 2.375846 -3.502333
v 1.158205 2.375846 -3.502333
v 1.803758 0.538015 -3.438900
v 3.319113 0.538016 -3.438900
v 1.803757 2.404222 -3.438900
v 1.803757 2.506862 -3.438900
v 3.319113 2.506862 -3.438900
v 3.319113 0.538016 -3.502334
v 1.803758 0.538015 -3.502333
v 1.803757 2.404222 -3.502333
v 1.803757 2.506862 -3.502333
v 3.319113 2.506862 -3.502334
v 3.585050 0.538015 -3.438900
v 5.100406 0.538016 -3.438901
v 3.585050 2.506862 -3.438900
v 5.100406 2.506862 -3.438901
v 5.100406 0.538016 -3.502334
v 3.585050 0.538015 -3.502334
v 3.585050 2.506862 -3.502334
v 5.100406 2.506862 -3.502334
v -1.656035 2.714920 -3.438899
v -2.351525 2.276364 -3.438899
v -1.656035 2.608330 -3.438899
v -2.009821 2.612645 -3.438899
v -2.005506 2.435751 -3.438899
v -1.914902 2.435751 -3.438899
v -1.923531 2.280430 -3.438899
v -0.347187 -0.180995 -3.438900
v -0.347187 2.714921 -3.438900
v 5.318923 -0.180994 -3.438901
v 5.318924 2.714922 -3.438901
v 1.803757 -0.180995 -3.438900
v 5.100407 -0.180994 -3.438901
v 3.585050 -0.180995 -3.438900
v 3.319113 -0.180995 -3.438900
v -0.004248 -0.147677 -3.480475
v -0.004248 2.379718 -3.480475
v -0.004248 -0.147677 -3.464294
v -0.004248 2.379718 -3.464294
v 1.173857 -0.147677 -3.480475
v 1.173857 2.379718 -3.480475
v 1.173857 -0.147677 -3.464294
v 1.173857 2.379718 -3.464294
v 0.165223 1.122011 -3.464294
v 1.004387 1.122011 -3.464294
v 0.097486 2.271563 -3.480475
v 1.102514 1.122011 -3.480475
v 1.102514 2.271563 -3.480475
v 0.097486 1.122011 -3.480475
v 1.032608 2.271563 -3.464294
v 0.137002 2.271563 -3.464294
v 0.097486 2.271563 -3.464294
v 0.097486 1.122011 -3.464294
v 1.102514 1.122011 -3.464294
v 1.102514 2.271563 -3.464294
v 1.069440 -0.035143 -3.464294
v 0.930010 1.009477 -3.464294
v 0.100169 -0.035143 -3.464294
v 0.239599 1.009477 -3.464294
v 1.069440 -0.035143 -3.504029
v 0.930010 1.009477 -3.504029
v 0.100169 -0.035143 -3.504029
v 0.239599 1.009477 -3.504029
v -2.352932 1.376129 -0.815348
v -2.366551 2.161108 -0.767290
v -2.366551 1.881761 -0.755094
v -2.339313 2.161108 -0.767290
v -2.339313 1.881761 -0.755094
v -2.366551 1.843889 -1.447568
v -2.366551 1.654986 -1.241416
v -2.339313 1.843889 -1.447568
v -2.339313 1.654986 -1.241416
v -2.366551 2.531007 -0.939777
v -2.366551 2.600820 -1.131588
v -2.366551 2.517961 -1.053136
v -2.366551 2.526687 -1.077112
v -2.339313 2.600820 -1.131588
v -2.339313 2.531007 -0.939777
v -2.339313 2.526687 -1.077112
v -2.339313 2.517961 -1.053136
v -2.366551 2.405599 -1.550241
v -2.366551 2.213788 -1.620054
v -2.366551 2.316216 -1.528468
v -2.366551 2.292240 -1.537195
v -2.339313 2.213788 -1.620054
v -2.339313 2.405599 -1.550241
v -2.339313 2.292240 -1.537195
v -2.339313 2.316216 -1.528468
v -2.352932 1.345386 0.820974
v -2.366551 1.866467 1.410019
v -2.366551 1.660316 1.221116
v -2.339313 1.866467 1.410019
v -2.339313 1.660316 1.221116
v -2.366551 2.123189 0.704683
v -2.366551 1.843843 0.716879
v -2.339313 2.123189 0.704683
v -2.339313 1.843843 0.716879
v -2.366551 2.249992 1.549611
v -2.366551 2.434988 1.463346
v -2.366551 2.320924 1.460229
v -2.366551 2.344048 1.449446
v -2.339313 2.434988 1.463346
v -2.339313 2.249992 1.549611
v -2.339313 2.344048 1.449446
v -2.339313 2.320924 1.460229
v -2.366551 2.592978 1.029271
v -2.366551 2.506713 0.844274
v -2.366551 2.514380 0.981463
v -2.366551 2.503597 0.958339
v -2.339313 2.506713 0.844274
v -2.339313 2.592978 1.029271
v -2.339313 2.503597 0.958339
v -2.339313 2.514380 0.981463
v 8.587748 2.714921 10.559587
v 8.587748 -0.180995 10.559587
v 8.524314 2.714921 10.559587
v 8.524315 -0.180995 10.559587
v 8.587748 2.714921 10.722166
v 8.587748 -0.180995 10.722166
v 8.524314 2.714921 10.722166
v 8.524315 -0.180995 10.722166
v -2.718121 2.714919 10.559587
v -2.718121 -0.180997 10.559587
v -2.718121 2.714919 10.722168
v -2.718121 -0.180997 10.722168
v 0.900839 1.974756 3.361931
v 0.285651 1.974756 3.361931
v 0.900839 2.589944 3.361931
v 0.285651 2.589944 3.361931
v 0.900839 2.589944 3.369426
v 0.900839 1.974756 3.369426
v 0.285651 1.974756 3.369426
v 0.285651 2.589944 3.369426
v -0.528303 1.974756 3.361931
v -1.143491 1.974756 3.361931
v -0.528302 2.589944 3.361931
v -1.143490 2.589944 3.361931
v -0.528302 2.589944 3.369426
v -0.528303 1.974756 3.369426
v -1.143491 1.974756 3.369426
v -1.143490 2.589944 3.369426
v 1.837979 2.133643 3.251163
v 1.870993 2.149331 3.245297
v 1.840515 2.149666 3.266307
v 1.869998 2.431725 3.239356
v 1.836874 2.447414 3.244563
v 1.839520 2.432060 3.260366
v 1.242738 2.133643 3.350821
v 1.245274 2.149666 3.365965
v 1.209614 2.149331 3.356028
v 1.241633 2.447414 3.344221
v 1.208620 2.431725 3.350087
v 1.244279 2.432060 3.360024
v 1.791349 2.127619 2.972646
v 1.788703 2.142973 2.956843
v 1.824362 2.143308 2.966779
v 1.790244 2.441390 2.966045
v 1.823368 2.425702 2.960839
v 1.787708 2.425367 2.950902
v 1.196108 2.127619 3.072304
v 1.162984 2.143308 3.077511
v 1.193462 2.142973 3.056501
v 1.195003 2.441390 3.065703
v 1.192467 2.425367 3.050560
v 1.161989 2.425702 3.071570
v 1.096185 1.020746 -3.435752
v 1.101659 1.032747 -3.437005
v 1.101524 1.058683 -3.436917
v 1.095925 1.070432 -3.435582
v 0.860280 1.027254 -3.361163
v 0.856040 1.027159 -3.369897
v 0.861639 1.015410 -3.371231
v 0.861379 1.065096 -3.371062
v 0.855905 1.053095 -3.369809
v 0.860144 1.053189 -3.361075
v 1.094888 1.020714 -3.425725
v 1.100362 1.032715 -3.426978
v 1.093528 1.032558 -3.415657
v 1.094628 1.070400 -3.425555
v 1.093393 1.058494 -3.415569
v 1.100226 1.058651 -3.426889
v 1.078524 1.032223 -3.441324
v 1.081529 1.020410 -3.422604
v 1.071691 1.032065 -3.430003
v 1.071555 1.058001 -3.429915
v 1.081269 1.070097 -3.422435
v 1.078389 1.058159 -3.441236
v 1.074633 1.032128 -3.411242
v 1.075992 1.020284 -3.421310
v 1.075732 1.069971 -3.421141
v 1.074497 1.058064 -3.411154
v 0.872555 1.015658 -3.373781
v 0.884863 1.027817 -3.386355
v 0.876597 1.053563 -3.364919
v 0.877832 1.065470 -3.374906
v 0.884728 1.053753 -3.386267
v 0.872295 1.065344 -3.373612
v 0.876732 1.027628 -3.365007
v 0.878091 1.015784 -3.375075
v 1.088800 1.070280 -3.480649
v 1.090159 1.058437 -3.490716
v 1.083326 1.058279 -3.479395
v 1.102159 1.070584 -3.483770
v 1.107758 1.058835 -3.485104
v 1.103518 1.058740 -3.493837
v 1.107893 1.032899 -3.485192
v 1.102419 1.020898 -3.483939
v 1.103654 1.032805 -3.493925
v 1.089060 1.020594 -3.480818
v 1.083461 1.032343 -3.479484
v 1.090295 1.032501 -3.490804
v 6.246102 1.887100 -3.398863
v 6.151155 2.634398 -3.297097
v 6.339122 1.911118 -3.488444
v 6.244175 2.658415 -3.386678
v 7.270510 1.872916 -2.338938
v 7.175563 2.620214 -2.237172
v 7.363529 1.896934 -2.428519
v 7.268582 2.644231 -2.326753
v 6.268866 1.905054 -3.370413
v 6.178569 2.615749 -3.273631
v 7.152800 2.602260 -2.265623
v 7.243096 1.891565 -2.362404
v 6.287995 1.909994 -3.388835
v 6.197699 2.620688 -3.292054
v 7.171930 2.607199 -2.284045
v 7.262227 1.896504 -2.380827
vn 0.5774 -0.5774 0.5773
vn -0.5774 -0.5774 -0.5773
vn 0.5774 -0.5773 -0.5773
vn -0.5774 0.5773 -0.5773
vn 0.5774 0.5773 0.5773
vn 0.5774 0.5774 -0.5773
vn -0.5774 0.5774 0.5773
vn -0.5774 -0.5773 0.5773
vn -0.7071 0.7071 -0.0000
vn -1.0000 -0.0000 -0.0000
vn 0.5773 0.5774 0.5774
vn 0.5773 -0.5773 0.5774
vn 0.7071 -0.7071 -0.0000
vn -0.5773 0.5774 0.5774
vn 0.7071 0.7071 -0.0000
vn -0.5773 -0.5774 0.5773
vn -0.7071 -0.0000 0.7071
vn -0.5773 0.5773 -0.5774
vn 0.5773 -0.5773 -0.5774
vn -0.5773 -0.5774 -0.5774
vn 0.5773 0.5774 -0.5774
vn -0.7071 -0.7071 -0.0000
vn -0.5773 0.5774 -0.5773
vn -0.5774 0.5773 0.5773
vn -0.6657 -0.7319 -0.1456
vn 0.6303 -0.5490 -0.5490
vn 0.6657 -0.7319 -0.1456
vn -0.6657 -0.1456 -0.7319
vn 0.6657 -0.1456 -0.7319
vn -0.6657 -0.1456 0.7319
vn 0.6303 -0.5490 0.5490
vn 0.6657 -0.1456 0.7319
vn -0.6657 -0.7319 0.1456
vn 0.6657 -0.7319 0.1456
vn 0.5774 0.5773 -0.5774
vn -0.5774 0.5774 -0.5773
vn 0.3015 -0.3015 -0.9045
vn -0.3015 0.3015 -0.9045
vn 0.3015 0.3015 -0.9045
vn -0.0000 -0.0000 -1.0000
vn -0.3015 0.3015 0.9045
vn 0.3015 -0.3015 0.9045
vn -0.3015 -0.3015 0.9045
vn -0.0000 -0.0000 1.0000
vn -0.5774 -0.5774 0.5773
vn 0.5774 -0.5774 -0.5773
vn 0.5774 0.5774 0.5773
vn 0.3015 0.3015 0.9045
vn -0.3015 -0.3015 -0.9045
vn 1.0000 -0.0000 -0.0000
vn -0.0000 1.0000 -0.0000
vn -0.0000 -1.0000 -0.0000
vn -0.5764 0.5782 0.5775
vn -0.5784 -0.5765 -0.5772
vn -0.5783 -0.5765 0.5772
vn -0.5763 0.5782 -0.5775
vn 0.5763 -0.5782 -0.5775
vn 0.5784 0.5765 -0.5772
vn 0.5764 -0.5782 0.5775
vn 0.5783 0.5765 0.5772
vn 0.5773 -0.5774 -0.5774
vn 0.3015 0.9045 -0.3015
vn 0.3015 -0.9045 -0.3015
vn -0.0000 -0.7071 -0.7071
vn 0.5773 0.5773 -0.5774
vn -0.0000 0.7071 -0.7071
vn -0.0000 0.7071 0.7071
vn -0.0000 -0.7071 0.7071
vn -0.5773 -0.5774 0.5774
vn -0.5773 0.5774 -0.5774
vn -0.5773 -0.5773 0.5774
vn -0.5773 -0.5773 -0.5774
vn -0.5773 0.5773 0.5774
vn 0.5773 -0.5774 0.5774
vn -0.5773 0.5774 0.5773
vn 0.5773 0.5773 0.5774
vn -0.7071 -0.0000 -0.7071
vn 0.5774 -0.5773 -0.5774
vn 0.5774 -0.5773 0.5773
vn -0.5774 -0.5773 -0.5773
vn -0.8428 0.5370 -0.0365
vn -0.6612 -0.4962 -0.5626
vn -0.6619 -0.4941 0.5637
vn -0.0432 0.0011 0.9991
vn 0.7071 -0.0000 -0.7071
vn 0.7071 -0.0000 0.7071
vn -0.0311 0.6975 0.7159
vn 0.3021 -0.3451 0.8886
vn 0.5773 0.5774 -0.5773
vn 0.6179 0.5409 0.5707
vn 0.2955 0.2587 0.9196
vn -0.2955 0.2587 0.9196
vn -0.6179 0.5409 0.5707
vn 0.5344 -0.6104 0.5847
vn -0.5344 -0.6104 0.5846
vn -0.3021 -0.3451 0.8886
vn -0.0000 -0.9063 0.4226
vn -0.6907 -0.5747 -0.4389
vn 0.6907 -0.5747 -0.4389
vn 0.6657 -0.4412 -0.6018
vn -0.6657 0.1774 0.7248
vn 0.6907 -0.0332 0.7224
vn 0.6657 0.1774 0.7248
vn -0.6907 -0.0332 0.7224
vn 0.5962 0.7007 0.3919
vn -0.7627 0.6423 0.0757
vn -0.5962 0.7007 0.3919
vn 0.7627 0.6424 0.0757
vn -0.7785 0.5023 0.3764
vn 0.5885 0.7833 0.2003
vn -0.5884 0.7833 0.2003
vn -0.5962 0.1502 -0.7887
vn 0.7627 0.3549 -0.5407
vn 0.5962 0.1502 -0.7887
vn -0.7627 0.3549 -0.5407
vn 0.7785 0.0345 -0.6267
vn -0.7785 0.0345 -0.6267
vn 0.5884 0.3501 -0.7288
vn -0.5884 0.3501 -0.7288
vn 0.7785 0.5023 0.3764
vn -0.6657 -0.4412 -0.6018
vn -0.0000 -0.9397 -0.3420
vn -0.6907 -0.0960 -0.7168
vn 0.6907 -0.0960 -0.7168
vn 0.6657 0.1135 -0.7375
vn -0.6657 -0.3871 0.6379
vn 0.6907 -0.5343 0.4874
vn 0.6657 -0.3871 0.6379
vn -0.6907 -0.5343 0.4874
vn 0.5962 0.2184 0.7726
vn -0.7627 0.4007 0.5077
vn -0.5962 0.2184 0.7726
vn 0.7627 0.4007 0.5077
vn -0.7785 0.0890 0.6213
vn 0.7785 0.0890 0.6213
vn -0.5884 0.4123 0.6955
vn -0.5962 0.6639 -0.4515
vn 0.7627 0.6333 -0.1314
vn 0.5962 0.6639 -0.4515
vn -0.7627 0.6333 -0.1314
vn 0.7785 0.4676 -0.4187
vn -0.7785 0.4676 -0.4187
vn 0.5884 0.7629 -0.2678
vn 0.5884 0.4123 0.6955
vn -0.5884 0.7629 -0.2678
vn -0.6657 0.1135 -0.7375
vn -0.0000 0.8944 0.4472
vn -0.5774 0.5773 -0.5774
vn -0.0000 -0.8944 0.4472
vn 0.5774 0.5773 -0.5773
vn 0.2559 -0.9039 0.3427
vn 0.8328 -0.4441 0.3305
vn 0.3449 -0.3414 0.8744
vn 0.8296 0.4635 0.3114
vn 0.2495 0.9193 0.3043
vn 0.3424 0.3802 0.8592
vn -0.1303 -0.9039 0.4074
vn -0.0413 -0.3414 0.9390
vn -0.6797 -0.4441 0.5837
vn -0.1367 0.9193 0.3690
vn -0.6829 0.4635 0.5646
vn -0.0438 0.3802 0.9238
vn 0.1367 -0.9193 -0.3690
vn 0.0438 -0.3802 -0.9238
vn 0.6829 -0.4635 -0.5646
vn 0.1303 0.9039 -0.4074
vn 0.6797 0.4441 -0.5837
vn 0.0413 0.3414 -0.9390
vn -0.2495 -0.9193 -0.3044
vn -0.8296 -0.4635 -0.3114
vn -0.3423 -0.3802 -0.8592
vn -0.2559 0.9039 -0.3427
vn -0.3449 0.3414 -0.8744
vn -0.8328 0.4441 -0.3305
vn -0.8099 -0.4311 0.3978
vn -0.8201 0.4152 0.3936
vn 0.8130 -0.3201 0.4863
vn 0.8066 0.3285 0.4915
vn -0.5853 -0.7248 -0.3634
vn -0.6079 0.7091 -0.3571
vn -0.8130 0.3201 -0.4863
vn 0.8099 0.4311 -0.3978
vn 0.8201 -0.4152 -0.3936
vn -0.8065 -0.3286 -0.4915
vn 0.9082 -0.4021 0.1162
vn 0.9016 0.4162 0.1180
vn 0.8561 0.0027 0.5168
vn 0.1914 -0.6229 0.7586
vn 0.1643 0.6238 0.7641
vn -0.8996 -0.0062 0.4367
vn -0.1914 0.6229 -0.7586
vn 0.1914 -0.6228 0.7586
vn 0.1643 0.6239 0.7641
vn -0.8561 -0.0027 -0.5168
vn -0.1643 -0.6238 -0.7641
vn 0.8996 0.0062 -0.4367
vn -0.9016 -0.4162 -0.1179
vn -0.9082 0.4021 -0.1162
vn 0.9016 0.4162 0.1179
vn 0.9917 0.0048 0.1283
vn 0.0227 -0.9997 -0.0002
vn -0.0227 0.9997 0.0002
vn 0.2275 -0.0022 0.9738
vn 0.2275 -0.0021 0.9738
vn -0.5554 -0.4443 -0.7029
vn -0.9917 -0.0048 -0.1283
vn -0.2275 0.0021 -0.9738
vn -0.2553 0.8809 -0.3985
vn -0.6949 0.0096 -0.7190
vn 0.7082 0.1828 -0.6820
vn 0.6949 -0.0096 0.7190
vn -0.7082 -0.1828 0.6820
vn 0.1249 -0.9831 -0.1339
vn -0.1249 0.9831 0.1339
vn -0.7081 -0.1828 0.6820
vn -0.6303 -0.5490 -0.5490
vn -0.6303 -0.5490 0.5490
vn -0.5774 -0.5774 0.5774
vn 0.9082 -0.4022 0.1162
vn -0.1914 0.6228 -0.7586
vn 0.8996 0.0062 -0.4368
vn -0.9016 -0.4162 -0.1180
vn -0.0581 -0.9299 -0.3632
vn 0.2276 -0.0021 0.9738
vt 0.500000 0.000000
vt 0.000000 0.500000
vt 0.000000 0.000000
vt 0.000000 0.500000
vt 0.500000 1.000000
vt 0.000000 1.000000
vt 0.500000 -0.000000
vt 0.522310 0.500000
vt 0.500000 0.500000
vt 0.500000 0.500000
vt 0.522310 1.000000
vt 0.500000 1.000000
vt 1.000000 0.987823
vt 0.000000 -0.032444
vt 0.000000 0.987823
vt 1.000000 -0.032444
vt 0.254872 0.009360
vt 1.271325 0.913810
vt 1.289369 0.810365
vt 1.438106 0.009360
vt 1.438106 0.984078
vt 1.277828 0.984078
vt 1.438106 0.815617
vt -0.365052 0.009360
vt -0.365052 0.984079
vt -0.365052 0.984078
vt 0.254872 0.984078
vt -0.365052 0.009360
vt 0.780440 0.423319
vt 0.700803 0.410885
vt 0.603955 0.661763
vt 1.269843 0.984078
vt 0.094104 0.980539
vt 0.925896 0.980539
vt 0.521049 -0.036539
vt 0.807319 0.082038
vt 0.925896 0.368308
vt 0.094104 0.368308
vt 0.212681 0.082038
vt 0.498951 -0.036539
vt 1.455328 0.991859
vt -0.455328 0.991860
vt 0.743464 0.893602
vt 1.113246 0.466102
vt 0.993438 0.718345
vt 0.993437 0.466102
vt 1.455328 0.008140
vt 1.419505 0.468502
vt 1.239367 0.718345
vt 1.328786 0.468502
vt 1.328786 0.732849
vt 0.867316 0.466102
vt 0.743464 0.008141
vt 1.113246 0.718345
vt 1.328786 0.732849
vt 1.419505 0.468502
vt 1.419505 0.732849
vt -0.455328 0.008141
vt -0.343503 0.008141
vt 1.239367 0.466102
vt 0.867316 0.718345
vt -0.343503 0.893603
vt 0.375000 0.202667
vt 0.625000 0.192848
vt 0.375000 0.192848
vt 0.375000 0.547333
vt 0.625000 0.557152
vt 0.625000 0.547333
vt 0.125000 0.547333
vt 0.375000 0.557152
vt 0.875000 0.547333
vt 0.875000 0.557152
vt 1.105501 1.490259
vt 1.108660 -0.502895
vt 1.036311 -0.502895
vt 1.033153 1.490259
vt 0.578668 1.490259
vt 0.581827 -0.502895
vt 0.509478 -0.502895
vt 0.506319 1.490259
vt 0.393294 1.121585
vt 0.420930 1.121585
vt 0.393294 0.240637
vt 0.393294 -0.141287
vt 0.420930 0.240637
vt 0.443915 0.240637
vt 0.443915 1.121585
vt 0.420930 0.078168
vt 0.443915 0.078168
vt 0.443915 1.284054
vt 0.420930 1.284054
vt 0.420930 -0.141287
vt -0.441183 1.004117
vt 0.782735 -0.004116
vt 0.782735 1.004117
vt -0.441183 -0.004116
vt 1.412881 1.004117
vt 1.412881 -0.004116
vt 0.162154 0.049017
vt -0.037540 -0.395817
vt 0.162154 -0.395817
vt 0.713176 1.267096
vt 0.630911 0.049017
vt 0.713176 0.049017
vt 0.162154 1.203595
vt -0.037540 0.068048
vt 1.181933 0.049017
vt 1.181933 1.267096
vt 2.348671 1.395818
vt 0.027055 0.006167
vt -0.035256 0.006167
vt -0.503215 1.395817
vt 1.249528 1.395818
vt -1.348671 1.395816
vt 1.526446 0.006168
vt 1.526446 0.987272
vt -0.498230 0.006167
vt -0.498230 0.838693
vt 0.027055 0.260181
vt -0.037540 1.186040
vt -0.389428 1.186039
vt -0.389428 0.068048
vt 0.630911 1.267096
vt 0.162154 1.267096
vt 0.469995 0.433016
vt 0.467902 0.604594
vt 0.302184 0.703796
vt -0.380418 0.951159
vt -0.424269 0.892691
vt -0.425730 0.840070
vt 0.924552 0.987271
vt 0.630911 -0.395817
vt 0.713175 -0.395817
vt 0.375000 0.250000
vt 0.625000 0.000000
vt 0.375000 0.000000
vt 0.141849 0.645540
vt 0.350591 0.645540
vt 0.375000 0.750000
vt 0.625000 0.500000
vt 0.375000 0.500000
vt 0.500593 0.978411
vt 0.500593 0.765140
vt 0.614302 0.978411
vt 0.625000 0.750000
vt 0.614302 0.765139
vt 0.125000 0.750000
vt 0.125000 0.500000
vt 0.875000 0.500000
vt 0.429860 0.250000
vt 0.625000 0.250000
vt 0.452430 0.500000
vt 0.375000 0.104460
vt 0.625000 0.111146
vt 0.625000 0.104460
vt 0.625000 0.645540
vt 0.375000 0.638854
vt 0.375000 0.645540
vt 0.125000 0.638854
vt 0.642389 0.645540
vt 0.865171 0.645540
vt 0.875000 0.638854
vt 0.515738 0.041565
vt 0.666673 0.333175
vt 0.703733 0.462381
vt 0.246222 0.508150
vt 0.313852 0.339873
vt 0.228106 0.727777
vt 0.296591 0.760369
vt 0.334990 0.803457
vt 0.359803 0.864842
vt 0.722981 0.732243
vt 0.663554 0.758137
vt 0.627419 0.785596
vt 0.594681 0.859261
vt 0.500000 0.087869
vt 0.794374 0.354975
vt 0.911777 0.514408
vt 0.088223 0.514408
vt 0.205625 0.354975
vt 0.088223 0.766298
vt 0.206995 0.788568
vt 0.226790 0.799703
vt 0.246586 0.855377
vt 0.911777 0.766298
vt 0.793005 0.788568
vt 0.773209 0.799703
vt 0.753414 0.855377
vt -0.473012 -0.004116
vt -0.484054 -0.004116
vt -0.473011 1.004117
vt -0.484054 1.004117
vt 1.484054 1.004116
vt 1.484054 -0.004117
vt 0.000000 1.000000
vt 1.000000 0.000000
vt 0.000000 0.000000
vt 1.000000 1.000000
vt 0.080951 0.026860
vt 0.034389 0.072808
vt 0.080951 0.072808
vt 0.034389 0.899870
vt 0.080951 0.945818
vt 0.080951 0.899870
vt 0.919049 0.026860
vt 0.919049 0.072808
vt 0.965611 0.072808
vt 0.919049 0.945818
vt 0.965611 0.899870
vt 0.919049 0.899870
vt 0.893354 0.086013
vt 0.100929 0.898727
vt 0.100929 0.086013
vt 0.419813 0.744335
vt 0.342375 0.812500
vt 0.250000 0.744335
vt 0.687500 0.809667
vt 0.565249 0.875000
vt 0.565249 0.745751
vt 0.250000 0.505665
vt 0.342375 0.437500
vt 0.419813 0.505665
vt 0.687500 0.440333
vt 0.565249 0.504249
vt 0.565249 0.375000
vt 0.125000 0.525000
vt 0.187500 0.519335
vt 0.125000 0.527833
vt 0.565249 0.220751
vt 0.625000 0.225000
vt 0.565249 0.225000
vt 0.625000 0.228777
vt 0.565249 0.230665
vt 0.565249 0.225000
vt 0.625000 0.246223
vt 0.565249 0.250000
vt 0.565249 0.244335
vt 0.434751 0.250000
vt 0.375000 0.244335
vt 0.434751 0.244335
vt 0.375000 0.230665
vt 0.434751 0.225000
vt 0.434751 0.230665
vt 0.125000 0.505665
vt 0.565249 0.250000
vt 0.250000 0.525000
vt 0.434751 0.525000
vt 0.565249 0.727500
vt 0.750000 0.727500
vt 0.565249 0.026749
vt 0.625000 0.022500
vt 0.250000 0.727500
vt 0.434751 0.727500
vt 0.750000 0.525000
vt 0.434751 0.225000
vt 0.125000 0.724667
vt 0.565249 0.525000
vt 0.125000 0.519335
vt 0.125000 0.505665
vt 0.875000 0.505665
vt 0.875000 0.519335
vt 0.791667 0.519335
vt 0.187500 0.733165
vt 0.434751 0.219335
vt 0.434751 0.028165
vt 0.791667 0.733165
vt 0.875000 0.750000
vt 0.375000 1.000000
vt 0.500000 0.500000
vt 0.500000 0.500000
vt 0.522310 -0.000000
vt 0.522310 0.500000
vt 1.322181 0.910139
vt 1.289146 0.846667
vt 1.323884 0.865446
vt 1.389664 0.818964
vt 1.383373 0.766674
vt 1.359213 0.814210
vt 1.357165 0.759825
vt 0.907126 0.855131
vt 0.907126 0.414564
vt 0.763986 0.286568
vt 0.695448 0.268655
vt 0.518143 0.400829
vt 0.608409 0.544879
vt 0.517560 0.495768
vt 0.467078 0.855131
vt 0.470955 0.671361
vt 1.419505 0.732849
vt 0.625000 0.202667
vt 0.125000 0.557152
vt -0.389428 -0.395817
vt -1.348671 -0.395818
vt 2.348672 -0.395816
vt 1.181933 -0.395817
vt 1.249528 -0.395817
vt -1.133530 1.395816
vt -0.498230 0.987271
vt 0.302184 0.278418
vt 0.509751 0.282362
vt 0.513935 0.433015
vt 0.639480 0.600409
vt 0.639480 0.703796
vt -0.035256 0.987271
vt -0.380418 0.987271
vt -0.440347 0.952621
vt -0.439617 0.892692
vt 0.924552 0.006167
vt -0.503215 -0.395817
vt 0.625000 1.000000
vt 0.620718 0.250000
vt 0.617718 0.500000
vt 0.375000 0.111146
vt 0.625000 0.638854
vt 0.125000 0.645540
vt 0.875000 0.645540
vt 0.893355 0.898726
s 1
usemtl drewno
f 3/1/1 2/2/2 1/3/3
f 7/4/4 5/5/5 6/6/6
f 3/7/1 8/8/7 4/9/8
f 2/10/2 6/11/6 1/12/3
f 4/13/8 7/14/4 2/15/2
f 1/15/3 5/16/5 3/13/1
f 107/81/61 106/82/62 105/82/63
f 111/83/64 108/81/65 107/81/61
f 125/84/18 110/85/51 112/83/66
f 115/86/67 106/82/62 110/85/51
f 105/82/63 111/83/64 107/81/61
f 110/85/51 108/81/65 112/83/66
f 113/87/68 115/86/67 116/86/68
f 120/88/2 110/85/51 109/85/52
f 123/89/7 116/86/68 115/86/67
f 113/87/68 109/85/52 105/82/63
f 124/89/69 119/88/70 120/88/2
f 122/90/11 117/91/61 118/91/6
f 124/89/69 109/85/52 116/86/68
f 122/90/11 106/82/62 114/87/67
f 118/91/6 105/82/63 106/82/62
f 121/90/1 114/87/67 113/87/68
f 117/91/61 113/87/68 105/82/63
f 119/88/70 115/86/67 110/85/51
f 127/92/71 125/84/18 126/84/72
f 126/84/72 112/83/66 111/83/64
f 128/92/73 109/85/52 110/85/51
f 127/92/71 111/83/64 109/85/52
f 3/1/1 4/269/8 2/2/2
f 7/4/4 8/270/7 5/5/5
f 3/7/1 5/271/5 8/8/7
f 2/10/2 7/272/4 6/11/6
f 4/13/8 8/16/7 7/14/4
f 1/15/3 6/14/6 5/16/5
f 107/81/61 108/81/65 106/82/62
f 111/83/64 112/83/66 108/81/65
f 125/84/18 128/92/73 110/85/51
f 115/86/67 114/87/67 106/82/62
f 105/82/63 109/85/52 111/83/64
f 110/85/51 106/82/62 108/81/65
f 113/87/68 114/87/67 115/86/67
f 120/88/2 119/88/70 110/85/51
f 123/89/7 124/89/69 116/86/68
f 113/87/68 116/86/68 109/85/52
f 124/89/69 123/89/7 119/88/70
f 122/90/11 121/90/1 117/91/61
f 124/89/69 120/88/2 109/85/52
f 122/90/11 118/91/6 106/82/62
f 118/91/6 117/91/61 105/82/63
f 121/90/1 122/90/11 114/87/67
f 117/91/61 121/90/1 113/87/68
f 119/88/70 123/89/7 115/86/67
f 127/92/71 128/92/73 125/84/18
f 126/84/72 125/84/18 112/83/66
f 128/92/73 127/92/71 109/85/52
f 127/92/71 126/84/72 111/83/64
usemtl sciana
f 10/17/9 24/18/10 28/19/10
f 16/20/11 13/21/12 23/22/13
f 12/20/14 15/17/15 10/17/9
f 11/21/16 23/22/13 13/21/12
f 21/23/17 13/21/12 16/20/11
f 15/17/15 18/24/18 10/17/9
f 18/24/18 19/25/19 17/26/20
f 14/27/13 20/28/21 15/17/15
f 10/17/9 17/26/20 9/27/22
f 14/27/13 17/26/20 19/25/19
f 22/32/22 14/27/13 23/22/13
f 51/41/36 49/42/6 73/43/37
f 60/44/38 66/45/37 67/46/39
f 52/47/2 51/41/36 83/48/40
f 58/49/37 82/50/40 84/51/40
f 69/52/41 79/53/1 77/43/42
f 63/44/41 72/45/42 61/54/43
f 86/50/44 62/49/42 88/55/44
f 87/56/44 85/57/44 53/41/7
f 52/47/2 79/53/1 56/47/45
f 55/58/1 74/59/2 50/58/46
f 53/41/7 49/42/6 51/41/36
f 56/47/45 51/41/36 52/47/2
f 54/42/47 50/58/46 49/42/6
f 59/60/39 62/49/42 64/60/48
f 60/44/38 61/54/43 57/54/49
f 59/60/39 63/44/41 60/44/38
f 58/49/37 61/54/43 62/49/42
f 67/46/39 72/45/42 70/46/48
f 68/52/38 71/61/43 65/61/49
f 67/46/39 69/52/41 68/52/38
f 66/45/37 71/61/43 72/45/42
f 73/43/37 79/53/1 75/53/46
f 74/59/2 80/62/43 76/62/49
f 73/43/37 80/62/43 77/43/42
s 0
f 83/63/50 85/64/50 87/65/50
f 82/66/10 88/67/10 84/68/10
f 83/69/51 86/70/51 82/66/51
f 81/71/52 88/67/52 85/72/52
s 1
f 131/93/69 130/94/9 129/95/22
f 135/94/15 133/93/74 134/95/13
f 132/96/75 135/94/15 130/94/9
f 129/95/22 133/93/74 131/93/69
f 131/93/69 136/96/76 132/96/75
f 129/95/22 139/97/13 134/95/13
f 135/94/15 138/98/9 130/94/9
f 134/95/13 140/98/15 135/94/15
f 130/94/9 137/97/22 129/95/22
f 155/110/78 153/110/79 186/111/68
f 148/115/46 143/116/5 144/115/12
f 147/117/82 142/117/83 180/118/84
f 153/110/79 158/119/85 151/119/86
f 181/128/44 184/129/44 185/130/44
f 189/131/67 144/115/12 143/116/5
f 193/132/68 161/99/44 190/101/68
f 192/133/68 172/107/44 171/104/44
f 275/189/147 277/190/148 273/190/9
f 277/190/148 278/191/64 276/192/80
f 273/190/9 276/192/80 272/192/22
f 272/192/22 278/191/64 274/191/149
f 278/191/64 280/193/79 274/191/149
f 280/193/79 283/194/150 281/194/47
f 279/189/66 282/193/46 278/191/64
f 274/191/149 281/194/47 275/189/147
f 279/189/66 281/194/47 283/194/150
f 10/17/9 9/27/22 24/18/10
f 9/27/22 22/32/22 24/18/10
f 24/18/10 25/273/10 27/274/10
f 25/273/10 26/275/10 27/274/10
f 32/276/10 21/23/17 31/277/10
f 21/23/17 12/20/14 31/277/10
f 28/19/10 29/278/10 30/279/10
f 24/18/10 27/274/10 28/19/10
f 31/277/10 12/20/14 30/279/10
f 12/20/14 10/17/9 28/19/10
f 30/279/10 12/20/14 28/19/10
f 23/22/13 14/27/13 15/17/15
f 15/17/15 16/20/11 23/22/13
f 12/20/14 16/20/11 15/17/15
f 11/21/16 22/32/22 23/22/13
f 16/20/11 12/20/14 21/23/17
f 21/23/17 11/21/16 13/21/12
f 15/17/15 20/28/21 18/24/18
f 18/24/18 20/28/21 19/25/19
f 14/27/13 19/25/19 20/28/21
f 10/17/9 18/24/18 17/26/20
f 14/27/13 9/27/22 17/26/20
f 22/32/22 9/27/22 14/27/13
f 75/53/46 52/47/2 60/44/38
f 52/47/2 59/60/39 60/44/38
f 60/44/38 67/46/39 75/53/46
f 75/53/46 67/46/39 68/52/38
f 75/53/46 68/52/38 73/43/37
f 68/52/38 65/61/49 73/43/37
f 73/43/37 65/61/49 66/45/37
f 50/58/46 74/59/2 76/62/49
f 73/43/37 66/45/37 57/54/49
f 49/42/6 50/58/46 76/62/49
f 73/43/37 57/54/49 51/41/36
f 57/54/49 58/49/37 51/41/36
f 49/42/6 76/62/49 73/43/37
f 60/44/38 57/54/49 66/45/37
f 82/50/40 59/60/39 52/47/2
f 51/41/36 58/49/37 84/51/40
f 51/41/36 84/51/40 81/289/40
f 83/48/40 82/50/40 52/47/2
f 51/41/36 81/289/40 83/48/40
f 58/49/37 59/60/39 82/50/40
f 78/59/218 55/58/1 80/62/43
f 55/58/1 54/42/47 80/62/43
f 53/41/7 62/49/42 61/54/43
f 53/41/7 61/54/43 77/43/42
f 61/54/43 72/45/42 77/43/42
f 77/43/42 80/62/43 54/42/47
f 72/45/42 71/61/43 77/43/42
f 77/43/42 54/42/47 53/41/7
f 64/60/48 56/47/45 63/44/41
f 56/47/45 79/53/1 63/44/41
f 70/46/48 63/44/41 79/53/1
f 69/52/41 70/46/48 79/53/1
f 77/43/42 71/61/43 69/52/41
f 63/44/41 70/46/48 72/45/42
f 86/50/44 64/60/48 62/49/42
f 88/55/44 62/49/42 53/41/7
f 56/47/45 64/60/48 86/50/44
f 56/47/45 86/50/44 87/56/44
f 85/57/44 88/55/44 53/41/7
f 56/47/45 87/56/44 53/41/7
f 52/47/2 75/53/46 79/53/1
f 55/58/1 78/59/218 74/59/2
f 53/41/7 54/42/47 49/42/6
f 56/47/45 53/41/7 51/41/36
f 54/42/47 55/58/1 50/58/46
f 59/60/39 58/49/37 62/49/42
f 60/44/38 63/44/41 61/54/43
f 59/60/39 64/60/48 63/44/41
f 58/49/37 57/54/49 61/54/43
f 67/46/39 66/45/37 72/45/42
f 68/52/38 69/52/41 71/61/43
f 67/46/39 70/46/48 69/52/41
f 66/45/37 65/61/49 71/61/43
f 73/43/37 77/43/42 79/53/1
f 74/59/2 78/59/218 80/62/43
f 73/43/37 76/62/49 80/62/43
s 0
f 83/63/50 81/290/50 85/64/50
f 82/66/10 86/70/10 88/67/10
f 83/69/51 87/291/51 86/70/51
f 81/71/52 84/68/52 88/67/52
s 1
f 131/93/69 132/96/75 130/94/9
f 135/94/15 136/96/76 133/93/74
f 132/96/75 136/96/76 135/94/15
f 129/95/22 134/95/13 133/93/74
f 131/93/69 133/93/74 136/96/76
f 129/95/22 137/97/22 139/97/13
f 135/94/15 140/98/15 138/98/9
f 134/95/13 139/97/13 140/98/15
f 130/94/9 138/98/9 137/97/22
f 186/111/68 142/117/83 147/117/82
f 147/117/82 155/110/78 186/111/68
f 148/115/46 145/116/6 143/116/5
f 180/118/84 141/298/87 146/298/81
f 146/298/81 147/117/82 180/118/84
f 153/110/79 155/110/78 158/119/85
f 142/117/83 186/111/68 185/130/44
f 186/111/68 187/304/67 185/130/44
f 185/130/44 187/304/67 181/128/44
f 187/304/67 179/305/67 181/128/44
f 181/128/44 182/306/44 184/129/44
f 182/306/44 183/307/44 184/129/44
f 185/130/44 180/118/84 142/117/83
f 189/131/67 188/308/68 144/115/12
f 193/132/68 162/103/44 161/99/44
f 192/133/68 191/295/68 172/107/44
f 275/189/147 279/189/66 277/190/148
f 277/190/148 279/189/66 278/191/64
f 273/190/9 277/190/148 276/192/80
f 272/192/22 276/192/80 278/191/64
f 278/191/64 282/193/46 280/193/79
f 280/193/79 282/193/46 283/194/150
f 279/189/66 283/194/150 282/193/46
f 274/191/149 280/193/79 281/194/47
f 279/189/66 275/189/147 281/194/47
usemtl brick
f 32/29/10 29/30/10 25/31/10
f 161/99/44 154/100/71 190/101/68
f 173/102/44 162/103/44 171/104/44
f 163/105/44 152/106/17 161/99/44
f 157/106/77 168/105/40 167/99/40
f 175/107/40 178/108/40 145/109/6
f 166/103/40 177/102/40 176/104/40
f 190/101/68 154/100/71 156/100/80
f 187/112/67 189/113/67 146/114/81
f 157/106/77 154/100/71 152/106/17
f 152/106/17 160/120/49 157/106/77
f 150/120/43 159/121/37 160/120/49
f 151/122/86 159/121/37 149/121/42
s 0
f 168/105/50 163/105/50 167/99/50
f 162/103/10 170/123/10 166/103/10
f 162/103/51 167/99/51 161/99/51
f 170/123/52 164/124/52 169/124/52
f 171/104/50 177/102/50 173/102/50
f 172/107/10 178/108/10 175/107/10
f 172/107/51 176/104/51 171/104/51
f 174/108/52 177/102/52 178/108/52
s 1
f 183/125/44 182/126/44 141/127/87
f 164/124/44 165/123/44 189/113/67
f 193/132/68 171/104/44 162/103/44
f 11/280/16 21/281/17 32/29/10
f 32/29/10 31/282/10 29/30/10
f 31/282/10 30/283/10 29/30/10
f 29/30/10 28/284/10 26/285/10
f 28/284/10 27/286/10 26/285/10
f 22/287/22 11/280/16 25/31/10
f 11/280/16 32/29/10 25/31/10
f 25/31/10 24/288/10 22/287/22
f 29/30/10 26/285/10 25/31/10
f 161/99/44 152/106/17 154/100/71
f 173/102/44 165/123/44 162/103/44
f 163/105/44 150/120/43 152/106/17
f 157/106/77 160/120/49 168/105/40
f 169/124/40 168/105/40 160/120/49
f 159/121/37 158/122/85 146/114/81
f 158/122/85 155/292/78 147/293/82
f 146/114/81 158/122/85 147/293/82
f 169/124/40 160/120/49 159/121/37
f 178/108/40 177/102/40 145/109/6
f 177/102/40 170/123/40 145/109/6
f 167/99/40 166/103/40 156/100/80
f 166/103/40 176/104/40 156/100/80
f 156/100/80 157/106/77 167/99/40
f 148/294/46 156/100/80 175/107/40
f 156/100/80 176/104/40 175/107/40
f 169/124/40 159/121/37 146/114/81
f 170/123/40 169/124/40 146/114/81
f 170/123/40 146/114/81 145/109/6
f 148/294/46 175/107/40 145/109/6
f 166/103/40 170/123/40 177/102/40
f 156/100/80 148/294/46 191/295/68
f 148/294/46 144/294/12 188/296/68
f 156/100/80 191/295/68 192/133/68
f 188/296/68 191/295/68 148/294/46
f 192/133/68 193/132/68 156/100/80
f 193/132/68 190/101/68 156/100/80
f 189/113/67 143/109/5 145/109/6
f 145/109/6 146/114/81 189/113/67
f 146/114/81 141/114/87 179/297/67
f 179/297/67 187/112/67 146/114/81
f 157/106/77 156/100/80 154/100/71
f 152/106/17 150/120/43 160/120/49
f 150/120/43 149/121/42 159/121/37
f 151/122/86 158/122/85 159/121/37
s 0
f 168/105/50 169/124/50 164/124/50
f 163/105/50 161/99/50 167/99/50
f 168/105/50 164/124/50 163/105/50
f 162/103/10 165/123/10 170/123/10
f 162/103/51 166/103/51 167/99/51
f 170/123/52 165/123/52 164/124/52
f 171/104/50 176/104/50 177/102/50
f 172/107/10 174/108/10 178/108/10
f 172/107/51 175/107/51 176/104/51
f 174/108/52 173/102/52 177/102/52
s 1
f 141/127/87 180/299/84 183/125/44
f 180/299/84 185/300/44 183/125/44
f 185/300/44 184/301/44 183/125/44
f 182/126/44 181/302/44 179/303/67
f 182/126/44 179/303/67 141/127/87
f 174/108/44 172/107/44 189/113/67
f 172/107/44 191/295/68 188/296/68
f 189/113/67 172/107/44 188/296/68
f 187/112/67 186/309/68 151/122/86
f 186/309/68 153/292/79 151/122/86
f 151/122/86 149/121/42 187/112/67
f 149/121/42 150/120/43 187/112/67
f 150/120/43 163/105/44 164/124/44
f 150/120/43 164/124/44 187/112/67
f 165/123/44 173/102/44 189/113/67
f 173/102/44 174/108/44 189/113/67
f 187/112/67 164/124/44 189/113/67
f 193/132/68 192/133/68 171/104/44
usemtl tarczasrodek
f 34/33/11 35/34/23 33/33/24
f 44/35/25 48/36/26 46/35/27
f 48/36/26 43/37/28 47/37/29
f 38/38/30 42/39/31 40/38/32
f 42/39/31 37/40/33 41/40/34
f 43/37/28 44/35/25 38/38/30
f 46/35/27 37/40/33 44/35/25
f 38/38/30 34/33/11 33/33/24
f 47/37/29 40/38/32 41/40/34
f 36/34/35 43/37/28 35/34/23
f 34/33/11 36/34/35 35/34/23
f 44/35/25 45/36/216 48/36/26
f 48/36/26 45/36/216 43/37/28
f 38/38/30 39/39/217 42/39/31
f 42/39/31 39/39/217 37/40/33
f 33/33/24 35/34/23 43/37/28
f 43/37/28 45/36/216 44/35/25
f 44/35/25 37/40/33 38/38/30
f 37/40/33 39/39/217 38/38/30
f 38/38/30 33/33/24 43/37/28
f 46/35/27 41/40/34 37/40/33
f 38/38/30 40/38/32 34/33/11
f 41/40/34 46/35/27 47/37/29
f 46/35/27 48/36/26 47/37/29
f 47/37/29 36/34/35 40/38/32
f 36/34/35 34/33/11 40/38/32
f 40/38/32 42/39/31 41/40/34
f 36/34/35 47/37/29 43/37/28
usemtl cegly
f 90/73/53 91/74/54 89/74/55
f 92/73/56 95/75/57 91/74/54
f 96/76/58 93/75/59 95/75/57
f 93/75/59 90/73/53 89/74/55
f 95/75/57 89/74/55 91/74/54
f 92/73/56 94/76/60 96/76/58
f 98/77/53 99/78/54 97/78/55
f 100/77/56 103/79/57 99/78/54
f 104/80/58 101/79/59 103/79/57
f 101/79/59 98/77/53 97/78/55
f 103/79/57 97/78/55 99/78/54
f 100/77/56 102/80/60 104/80/58
f 90/73/53 92/73/56 91/74/54
f 92/73/56 96/76/58 95/75/57
f 96/76/58 94/76/60 93/75/59
f 93/75/59 94/76/60 90/73/53
f 95/75/57 93/75/59 89/74/55
f 92/73/56 90/73/53 94/76/60
f 98/77/53 100/77/56 99/78/54
f 100/77/56 104/80/58 103/79/57
f 104/80/58 102/80/60 101/79/59
f 101/79/59 102/80/60 98/77/53
f 103/79/57 101/79/59 97/78/55
f 100/77/56 98/77/53 102/80/60
usemtl drzwi
f 196/134/71 195/135/18 194/136/20
f 217/137/88 203/138/67 202/137/67
f 198/139/19 201/140/47 200/141/12
f 207/142/39 205/143/38 198/139/19
f 204/144/37 199/145/89 206/146/49
f 194/147/20 200/141/12 196/148/71
f 199/145/89 197/149/14 201/140/47
f 209/149/68 201/140/47 197/149/14
f 211/150/48 197/151/14 196/134/71
f 212/152/41 200/141/12 201/140/47
f 211/153/48 204/154/37 210/155/42
f 213/156/43 205/157/38 212/158/41
f 207/159/39 202/137/67 203/138/67
f 208/160/68 209/161/68 204/162/37
f 220/134/90 217/134/88 216/134/91
f 214/141/92 196/148/71 200/141/12
f 216/134/91 202/134/67 196/134/71
f 203/141/67 214/141/92 200/141/12
f 218/141/93 221/148/94 220/148/90
f 219/141/95 214/141/92 215/141/96
f 221/137/94 215/138/96 217/137/88
f 218/141/93 216/148/91 214/141/92
f 196/134/71 197/151/14 195/135/18
f 217/137/88 215/138/96 203/138/67
f 198/139/19 199/145/89 201/140/47
f 194/268/20 195/310/18 207/142/39
f 195/310/18 204/144/37 207/142/39
f 206/146/49 199/145/89 205/143/38
f 199/145/89 198/139/19 205/143/38
f 194/268/20 207/142/39 198/139/19
f 204/144/37 195/310/18 199/145/89
f 194/147/20 198/139/19 200/141/12
f 199/145/89 195/267/18 197/149/14
f 209/149/68 208/140/68 201/140/47
f 210/311/42 209/151/68 197/151/14
f 196/134/71 202/134/67 211/150/48
f 211/150/48 210/311/42 197/151/14
f 212/152/41 203/141/67 200/141/12
f 201/140/47 208/140/68 213/312/43
f 213/312/43 212/152/41 201/140/47
f 211/153/48 207/313/39 204/154/37
f 213/156/43 206/314/49 205/157/38
f 212/158/41 205/157/38 203/138/67
f 205/157/38 207/159/39 203/138/67
f 207/159/39 211/315/48 202/137/67
f 204/162/37 206/314/49 208/160/68
f 206/314/49 213/156/43 208/160/68
f 209/161/68 210/316/42 204/162/37
f 220/134/90 221/134/94 217/134/88
f 214/141/92 216/148/91 196/148/71
f 216/134/91 217/134/88 202/134/67
f 203/141/67 215/141/96 214/141/92
f 218/141/93 219/141/95 221/148/94
f 219/141/95 218/141/93 214/141/92
f 221/137/94 219/138/95 215/138/96
f 218/141/93 220/148/90 216/148/91
usemtl tarczaprawo
f 222/163/97 228/164/98 230/164/99
f 228/164/98 229/165/100 230/164/99
f 223/166/101 226/167/102 225/166/103
f 226/167/102 224/167/104 222/163/97
f 236/168/105 233/169/106 231/168/107
f 238/169/108 234/170/109 233/169/106
f 234/170/109 235/171/110 232/171/111
f 240/172/112 245/173/113 243/172/114
f 242/173/115 246/174/116 245/173/113
f 241/174/117 244/175/118 246/174/116
f 223/166/101 233/169/106 242/173/115
f 235/171/110 239/175/119 232/171/111
f 225/166/103 231/168/107 223/166/101
f 246/174/116 244/175/118 237/170/120
f 243/172/114 227/165/121 240/172/112
f 228/164/98 227/165/121 229/165/100
f 223/166/101 224/167/104 226/167/102
f 236/168/105 238/169/108 233/169/106
f 238/169/108 237/170/120 234/170/109
f 234/170/109 237/170/120 235/171/110
f 240/172/112 242/173/115 245/173/113
f 242/173/115 241/174/117 246/174/116
f 241/174/117 239/175/119 244/175/118
f 232/171/111 239/175/119 241/174/117
f 242/173/115 240/172/112 227/165/121
f 232/171/111 241/174/117 234/170/109
f 241/174/117 242/173/115 234/170/109
f 242/173/115 227/165/121 223/166/101
f 227/165/121 228/164/98 224/167/104
f 228/164/98 222/163/97 224/167/104
f 224/167/104 223/166/101 227/165/121
f 223/166/101 231/168/107 233/169/106
f 233/169/106 234/170/109 242/173/115
f 235/171/110 244/175/118 239/175/119
f 225/166/103 236/168/105 231/168/107
f 226/167/102 222/163/97 230/164/99
f 230/164/99 229/165/100 225/166/103
f 229/165/100 243/172/114 245/173/113
f 229/165/100 245/173/113 225/166/103
f 225/166/103 226/167/102 230/164/99
f 238/169/108 236/168/105 225/166/103
f 244/175/118 235/171/110 237/170/120
f 237/170/120 238/169/108 246/174/116
f 238/169/108 225/166/103 245/173/113
f 246/174/116 238/169/108 245/173/113
f 243/172/114 229/165/100 227/165/121
usemtl tarczalewo
f 247/176/122 253/177/123 255/177/124
f 253/177/123 254/178/125 255/177/124
f 248/179/126 251/180/127 250/179/128
f 251/180/127 249/180/129 247/176/122
f 261/181/130 258/182/131 256/181/132
f 263/182/133 259/183/134 258/182/131
f 262/183/135 257/184/136 259/183/134
f 265/185/137 270/186/138 268/185/139
f 267/186/140 271/187/141 270/186/138
f 266/187/142 269/188/143 271/187/141
f 248/179/126 258/182/131 267/186/140
f 260/184/144 264/188/145 257/184/136
f 250/179/128 256/181/132 248/179/126
f 271/187/141 269/188/143 262/183/135
f 268/185/139 252/178/146 265/185/137
f 253/177/123 252/178/146 254/178/125
f 248/179/126 249/180/129 251/180/127
f 261/181/130 263/182/133 258/182/131
f 263/182/133 262/183/135 259/183/134
f 262/183/135 260/184/144 257/184/136
f 265/185/137 267/186/140 270/186/138
f 267/186/140 266/187/142 271/187/141
f 266/187/142 264/188/145 269/188/143
f 257/184/136 264/188/145 266/187/142
f 267/186/140 265/185/137 252/178/146
f 257/184/136 266/187/142 259/183/134
f 266/187/142 267/186/140 259/183/134
f 267/186/140 252/178/146 248/179/126
f 252/178/146 253/177/123 249/180/129
f 253/177/123 247/176/122 249/180/129
f 249/180/129 248/179/126 252/178/146
f 248/179/126 256/181/132 258/182/131
f 258/182/131 259/183/134 267/186/140
f 260/184/144 269/188/143 264/188/145
f 250/179/128 261/181/130 256/181/132
f 251/180/127 247/176/122 255/177/124
f 255/177/124 254/178/125 250/179/128
f 254/178/125 268/185/139 270/186/138
f 254/178/125 270/186/138 250/179/128
f 250/179/128 251/180/127 255/177/124
f 263/182/133 261/181/130 250/179/128
f 269/188/143 260/184/144 262/183/135
f 262/183/135 263/182/133 271/187/141
f 263/182/133 250/179/128 270/186/138
f 271/187/141 263/182/133 270/186/138
f 268/185/139 254/178/125 252/178/146
s 0
usemtl menu
f 286/195/44 285/196/44 284/197/44
f 290/196/40 288/195/40 289/197/40
f 287/198/50 290/196/50 285/196/50
f 284/197/10 288/195/10 286/195/10
f 286/195/52 291/198/52 287/198/52
f 285/196/51 289/197/51 284/197/51
f 286/195/44 287/198/44 285/196/44
f 290/196/40 291/198/40 288/195/40
f 287/198/50 291/198/50 290/196/50
f 284/197/10 289/197/10 288/195/10
f 286/195/52 288/195/52 291/198/52
f 285/196/51 290/196/51 289/197/51
usemtl menu
f 294/195/44 293/196/44 292/197/44
f 298/196/40 296/195/40 297/197/40
f 293/196/51 297/197/51 292/197/51
f 295/198/50 298/196/50 293/196/50
f 292/197/10 296/195/10 294/195/10
f 294/195/52 299/198/52 295/198/52
f 294/195/44 295/198/44 293/196/44
f 298/196/40 299/198/40 296/195/40
f 293/196/51 298/196/51 297/197/51
f 295/198/50 299/198/50 298/196/50
f 292/197/10 297/197/10 296/195/10
f 294/195/52 296/195/52 299/198/52
s 1
usemtl radio
f 300/199/151 301/200/152 302/201/153
f 303/202/154 304/203/155 305/204/156
f 306/205/157 307/206/158 308/207/159
f 309/208/160 310/209/161 311/210/162
f 312/199/163 313/201/164 314/200/165
f 315/203/166 316/202/167 317/204/168
f 318/205/169 319/207/170 320/206/171
f 321/208/172 322/210/173 323/209/174
f 300/199/151 307/206/158 306/205/157
f 301/200/152 305/204/156 302/201/153
f 309/208/160 305/204/156 304/203/155
f 310/209/161 307/206/158 311/210/162
f 306/205/157 319/207/170 318/205/169
f 320/206/171 323/209/174 322/210/173
f 312/199/163 320/206/171 313/201/164
f 321/208/172 317/204/168 322/210/173
f 314/200/165 317/204/168 316/202/167
f 305/204/156 307/206/158 302/201/153
f 322/211/173 313/212/164 320/213/171
f 300/199/151 302/201/153 307/206/158
f 301/200/152 303/202/154 305/204/156
f 309/208/160 311/210/162 305/204/156
f 310/209/161 308/207/159 307/206/158
f 306/205/157 308/207/159 319/207/170
f 320/206/171 319/207/170 323/209/174
f 312/199/163 318/205/169 320/206/171
f 321/208/172 315/203/166 317/204/168
f 314/200/165 313/201/164 317/204/168
f 312/199/163 314/200/165 301/200/152
f 305/204/156 311/210/162 307/206/158
f 322/211/173 317/317/168 313/212/164
usemtl Metalnew
f 309/208/160 323/209/174 310/209/161
f 312/199/163 301/200/152 300/199/151
f 315/203/166 303/202/154 316/202/167
f 318/205/169 300/199/151 306/205/157
f 314/200/165 303/202/154 301/200/152
f 309/208/160 315/203/166 321/208/172
f 310/209/161 319/207/170 308/207/159
s 0
f 328/214/175 329/215/175 330/216/175
f 331/217/176 332/218/176 333/219/176
f 334/220/177 335/221/177 336/222/177
f 337/223/178 338/224/178 339/225/178
f 340/226/179 341/227/179 342/228/179
f 343/229/180 344/230/180 345/231/180
f 358/232/181 359/233/181 360/234/181
f 361/235/182 362/236/182 363/237/182
f 364/238/183 365/239/183 366/240/183
f 367/241/184 368/242/184 369/243/184
f 324/244/185 335/221/185 334/220/185
f 327/151/186 339/225/186 326/245/186
f 338/224/187 335/221/187 339/225/187
f 347/246/188 336/222/188 346/247/188
f 331/217/189 352/248/189 353/249/189
f 332/218/190 328/214/190 333/219/190
f 344/230/191 354/250/191 355/251/191
f 357/252/192 346/247/192 356/253/192
f 348/254/193 338/224/193 337/223/193
f 340/255/194 343/229/194 345/231/194
f 341/227/195 351/256/195 342/228/195
f 353/249/189 349/257/189 348/254/189
f 330/216/192 356/253/192 328/214/192
f 361/235/191 359/233/191 358/232/191
f 364/238/196 363/237/196 362/236/196
f 365/239/195 369/243/195 366/240/195
f 369/243/194 360/234/194 359/233/194
f 340/226/197 367/258/197 341/227/197
f 325/148/185 365/259/185 364/148/185
f 358/232/198 345/231/198 344/230/198
f 326/245/199 361/235/199 327/151/199
f 325/238/200 362/236/200 326/245/200
f 326/245/200 335/221/200 325/238/200
f 334/220/201 341/227/201 324/244/201
f 324/244/201 367/258/201 365/259/201
f 327/260/202 358/261/202 344/262/202
f 337/223/50 344/262/50 348/254/50
f 356/253/203 333/219/203 328/214/203
f 336/222/204 349/257/204 346/247/204
f 341/227/205 357/252/205 350/263/205
f 340/255/206 360/234/206 368/242/206
f 354/250/207 342/264/207 351/265/207
f 348/254/208 355/266/208 353/249/208
f 346/247/204 352/248/204 356/253/204
f 359/233/207 366/240/207 369/243/207
s 1
f 309/208/160 321/208/172 323/209/174
f 315/203/166 304/203/155 303/202/154
f 318/205/169 312/199/163 300/199/151
f 314/200/165 316/202/167 303/202/154
f 309/208/160 304/203/155 315/203/166
f 310/209/161 323/209/174 319/207/170
s 0
f 324/244/219 325/148/219 335/221/219
f 327/151/199 337/223/199 339/225/199
f 338/224/187 336/222/187 335/221/187
f 347/246/188 334/220/188 336/222/188
f 331/217/189 333/219/189 352/248/189
f 332/218/190 329/215/190 328/214/190
f 344/230/220 343/229/220 354/250/220
f 357/252/188 347/246/188 346/247/188
f 348/254/189 349/257/189 338/224/189
f 340/255/194 342/264/194 343/229/194
f 341/227/195 350/263/195 351/256/195
f 353/249/189 352/248/189 349/257/189
f 330/216/188 357/252/188 356/253/188
f 361/235/220 363/237/220 359/233/220
f 364/238/221 366/240/221 363/237/221
f 365/239/195 367/241/195 369/243/195
f 369/243/194 368/242/194 360/234/194
f 340/226/222 368/226/222 367/258/222
f 325/148/185 324/244/185 365/259/185
f 358/232/198 360/234/198 345/231/198
f 326/245/186 362/236/186 361/235/186
f 325/238/200 364/238/200 362/236/200
f 326/245/200 339/225/200 335/221/200
f 334/220/223 347/246/223 341/227/223
f 324/244/201 341/227/201 367/258/201
f 327/260/202 361/260/202 358/261/202
f 337/223/202 327/260/202 344/262/202
f 356/253/204 352/248/204 333/219/204
f 336/222/204 338/224/204 349/257/204
f 341/227/40 347/246/40 357/252/40
f 340/255/206 345/231/206 360/234/206
f 354/250/207 343/229/207 342/264/207
f 348/254/40 344/262/40 355/266/40
f 346/247/224 349/257/224 352/248/224
f 359/233/207 363/237/207 366/240/207
usemtl Metalnew
f 370/136/209 373/151/209 372/134/209
f 373/151/210 376/141/210 372/134/210
f 376/141/211 375/145/211 374/139/211
f 374/139/212 378/147/212 370/147/212
f 376/141/213 370/147/213 372/148/213
f 377/140/214 371/267/214 375/145/214
f 380/145/213 383/267/213 384/145/213
f 375/145/212 379/267/212 380/145/212
f 374/139/212 380/145/212 381/139/212
f 370/136/215 379/135/215 371/135/215
f 380/145/209 385/139/209 381/139/209
f 381/139/214 382/147/214 378/147/214
f 379/135/211 382/136/211 383/135/211
f 370/136/209 371/135/209 373/151/209
f 373/151/210 377/140/210 376/141/210
f 376/141/211 377/140/211 375/145/211
f 374/139/212 381/139/212 378/147/212
f 376/141/213 374/139/213 370/147/213
f 377/140/214 373/149/214 371/267/214
f 380/145/213 379/267/213 383/267/213
f 375/145/215 371/267/215 379/267/215
f 374/139/215 375/145/215 380/145/215
f 370/136/212 378/136/212 379/135/212
f 380/145/209 384/145/209 385/139/209
f 381/139/214 385/139/214 382/147/214
f 379/135/211 378/136/211 382/136/211
usemtl szklo.002
f 384/145/212 382/268/212 385/139/212
f 384/145/212 383/310/212 382/268/212
