# Blender 5.1.2
# www.blender.org
mtllib wheel.mtl
o Cylinder
v 0.015102 0.000060 -0.654442
v -0.015101 -0.000060 -0.654442
v 0.015772 -0.169321 -0.632143
v -0.014431 -0.169441 -0.632143
v 0.016398 -0.327159 -0.566764
v -0.013806 -0.327278 -0.566764
v 0.016934 -0.462697 -0.462761
v -0.013269 -0.462817 -0.462761
v 0.017346 -0.566700 -0.327221
v -0.012857 -0.566819 -0.327221
v 0.017605 -0.632078 -0.169382
v -0.012598 -0.632198 -0.169382
v 0.017694 -0.654378 -0.000000
v -0.012510 -0.654497 -0.000000
v 0.017605 -0.632078 0.169382
v -0.012598 -0.632198 0.169382
v 0.017346 -0.566700 0.327221
v -0.012857 -0.566819 0.327221
v 0.016935 -0.462697 0.462760
v -0.013269 -0.462817 0.462760
v 0.016398 -0.327159 0.566764
v -0.013805 -0.327279 0.566764
v 0.015773 -0.169321 0.632143
v -0.014431 -0.169441 0.632143
v 0.015102 0.000060 0.654442
v -0.015101 -0.000060 0.654442
v 0.014431 0.169440 0.632143
v -0.015772 0.169321 0.632143
v 0.013806 0.327278 0.566764
v -0.016397 0.327159 0.566764
v 0.013269 0.462817 0.462761
v -0.016934 0.462697 0.462761
v 0.012857 0.566819 0.327221
v -0.017346 0.566699 0.327221
v 0.012598 0.632197 0.169382
v -0.017605 0.632078 0.169382
v 0.012510 0.654497 0.000000
v -0.017693 0.654377 0.000000
v 0.012598 0.632197 -0.169382
v -0.017605 0.632078 -0.169382
v 0.012857 0.566819 -0.327221
v -0.017346 0.566699 -0.327221
v 0.013269 0.462817 -0.462761
v -0.016934 0.462697 -0.462761
v 0.013806 0.327278 -0.566764
v -0.016397 0.327159 -0.566764
v 0.014431 0.169441 -0.632143
v -0.015772 0.169321 -0.632143
vn 0.6789 0.0027 -0.7342
vn -0.6789 -0.0027 -0.7343
vn 0.6796 -0.1874 -0.7093
vn -0.6781 -0.1927 -0.7092
vn 0.6803 -0.3644 -0.6359
vn -0.6774 -0.3698 -0.6359
vn 0.6809 -0.5165 -0.5192
vn -0.6768 -0.5219 -0.5192
vn 0.6814 -0.6332 -0.3671
vn -0.6763 -0.6386 -0.3671
vn 0.6817 -0.7066 -0.1900
vn -0.6761 -0.7119 -0.1900
vn 0.6818 -0.7316 -0.0000
vn -0.6760 -0.7369 -0.0000
vn 0.6817 -0.7065 0.1900
vn -0.6761 -0.7119 0.1900
vn 0.6814 -0.6332 0.3671
vn -0.6763 -0.6386 0.3671
vn 0.6809 -0.5165 0.5192
vn -0.6768 -0.5219 0.5192
vn 0.6803 -0.3644 0.6359
vn -0.6774 -0.3698 0.6359
vn 0.6796 -0.1873 0.7092
vn -0.6781 -0.1927 0.7092
vn 0.6789 0.0027 0.7342
vn -0.6788 -0.0027 0.7343
vn 0.6781 0.1927 0.7092
vn -0.6796 0.1873 0.7092
vn 0.6774 0.3698 0.6359
vn -0.6803 0.3644 0.6359
vn 0.6768 0.5219 0.5192
vn -0.6809 0.5165 0.5192
vn 0.6764 0.6386 0.3671
vn -0.6814 0.6332 0.3671
vn 0.6761 0.7119 0.1900
vn -0.6817 0.7065 0.1900
vn 0.6760 0.7369 -0.0000
vn -0.6818 0.7316 -0.0000
vn 0.6761 0.7119 -0.1900
vn -0.6817 0.7065 -0.1900
vn 0.6764 0.6386 -0.3671
vn -0.6814 0.6332 -0.3671
vn 0.6768 0.5219 -0.5192
vn -0.6809 0.5165 -0.5192
vn 0.6774 0.3698 -0.6359
vn -0.6803 0.3644 -0.6359
vn 0.6781 0.1927 -0.7092
vn -0.6796 0.1873 -0.7092
vt 0.824975 0.752875
vt 0.931301 0.443218
vt 0.666476 0.098092
vt 0.068699 0.556782
vt 0.068699 0.556782
vt 0.764825 0.845127
vt 0.666476 0.098091
vt 0.098092 0.666476
vt 0.154873 0.764825
vt 0.235175 0.845127
vt 0.333524 0.901908
vt 0.443218 0.931301
vt 0.556782 0.931301
vt 0.666476 0.901908
vt 0.845127 0.764825
vt 0.901908 0.666476
vt 0.931301 0.556782
vt 0.901908 0.333524
vt 0.845127 0.235175
vt 0.764825 0.154873
vt 0.556782 0.068699
vt 0.443218 0.068699
vt 0.333524 0.098092
vt 0.235175 0.154873
vt 0.154873 0.235175
vt 0.098091 0.333524
vt 0.068699 0.443218
vt 0.556782 0.068699
vt 0.443218 0.068699
vt 0.333524 0.098092
vt 0.235175 0.154873
vt 0.154873 0.235175
vt 0.098091 0.333524
vt 0.068699 0.443218
vt 0.098091 0.666476
vt 0.154873 0.764825
vt 0.235175 0.845127
vt 0.333524 0.901909
vt 0.443218 0.931301
vt 0.556782 0.931301
vt 0.845127 0.764825
vt 0.931301 0.556782
vt 0.931301 0.443218
vt 0.901908 0.333524
vt 0.764825 0.154873
s 1
usemtl kolo2
f 3/1/3 2/1/2 1/1/1
f 5/1/5 4/1/4 3/1/3
f 5/1/5 8/1/8 6/1/6
f 9/1/9 8/1/8 7/1/7
f 9/1/9 12/1/12 10/1/10
f 11/1/11 14/1/14 12/1/12
f 15/1/15 14/1/14 13/1/13
f 17/1/17 16/1/16 15/1/15
f 19/1/19 18/1/18 17/1/17
f 19/1/19 22/1/22 20/1/20
f 23/1/23 22/1/22 21/1/21
f 25/1/25 24/1/24 23/1/23
f 25/1/25 28/1/28 26/1/26
f 27/1/27 30/1/30 28/1/28
f 31/1/31 30/1/30 29/1/29
f 31/1/31 34/1/34 32/1/32
f 35/1/35 34/1/34 33/1/33
f 37/1/37 36/1/36 35/1/35
f 37/1/37 40/1/40 38/1/38
f 41/1/41 40/1/40 39/1/39
f 41/1/41 44/1/44 42/1/42
f 45/1/45 44/1/44 43/1/43
f 26/2/26 34/3/34 2/4/2
f 45/1/45 48/1/48 46/1/46
f 47/1/47 2/1/2 48/1/48
f 35/5/35 19/6/19 3/7/3
f 3/1/3 4/1/4 2/1/2
f 5/1/5 6/1/6 4/1/4
f 5/1/5 7/1/7 8/1/8
f 9/1/9 10/1/10 8/1/8
f 9/1/9 11/1/11 12/1/12
f 11/1/11 13/1/13 14/1/14
f 15/1/15 16/1/16 14/1/14
f 17/1/17 18/1/18 16/1/16
f 19/1/19 20/1/20 18/1/18
f 19/1/19 21/1/21 22/1/22
f 23/1/23 24/1/24 22/1/22
f 25/1/25 26/1/26 24/1/24
f 25/1/25 27/1/27 28/1/28
f 27/1/27 29/1/29 30/1/30
f 31/1/31 32/1/32 30/1/30
f 31/1/31 33/1/33 34/1/34
f 35/1/35 36/1/36 34/1/34
f 37/1/37 38/1/38 36/1/36
f 37/1/37 39/1/39 40/1/40
f 41/1/41 42/1/42 40/1/40
f 41/1/41 43/1/43 44/1/44
f 45/1/45 46/1/46 44/1/44
f 2/4/2 4/8/4 6/9/6
f 6/9/6 8/10/8 10/11/10
f 10/11/10 12/12/12 18/6/18
f 12/12/12 14/13/14 18/6/18
f 14/13/14 16/14/16 18/6/18
f 18/6/18 20/15/20 22/16/22
f 22/16/22 24/17/24 26/2/26
f 26/2/26 28/18/28 30/19/30
f 30/19/30 32/20/32 34/3/34
f 34/3/34 36/21/36 38/22/38
f 38/22/38 40/23/40 42/24/42
f 42/24/42 44/25/44 46/26/46
f 46/26/46 48/27/48 2/4/2
f 2/4/2 6/9/6 18/6/18
f 6/9/6 10/11/10 18/6/18
f 18/6/18 22/16/22 26/2/26
f 26/2/26 30/19/30 34/3/34
f 34/3/34 38/22/38 2/4/2
f 38/22/38 42/24/42 2/4/2
f 42/24/42 46/26/46 2/4/2
f 18/6/18 26/2/26 2/4/2
f 45/1/45 47/1/47 48/1/48
f 47/1/47 1/1/1 2/1/2
f 3/7/3 1/28/1 47/29/47
f 47/29/47 45/30/45 3/7/3
f 45/30/45 43/31/43 3/7/3
f 43/31/43 41/32/41 39/33/39
f 39/33/39 37/34/37 35/5/35
f 35/5/35 33/35/33 31/36/31
f 31/36/31 29/37/29 35/5/35
f 29/37/29 27/38/27 35/5/35
f 27/38/27 25/39/25 23/40/23
f 23/40/23 21/14/21 27/38/27
f 21/14/21 19/6/19 27/38/27
f 19/6/19 17/41/17 15/16/15
f 15/16/15 13/42/13 11/43/11
f 11/43/11 9/44/9 7/19/7
f 7/19/7 5/45/5 11/43/11
f 5/45/5 3/7/3 11/43/11
f 43/31/43 39/33/39 3/7/3
f 39/33/39 35/5/35 3/7/3
f 19/6/19 15/16/15 3/7/3
f 15/16/15 11/43/11 3/7/3
f 35/5/35 27/38/27 19/6/19
